%TF.GenerationSoftware,Altium Limited,Altium NEXUS,2.1.5 (53)*%
G04 Layer_Color=8421504*
%FSLAX44Y44*%
%MOMM*%
%TF.FileFunction,Paste,Top*%
%TF.Part,Single*%
G01*
G75*
%TA.AperFunction,ConnectorPad*%
%ADD10R,1.2700X12.7000*%
%ADD11R,1.2700X12.0000*%
%TA.AperFunction,SMDPad,CuDef*%
%ADD12R,1.0000X0.9000*%
%ADD13R,1.0000X1.1000*%
%ADD14R,1.2200X1.0000*%
G04:AMPARAMS|DCode=15|XSize=1mm|YSize=1.22mm|CornerRadius=0mm|HoleSize=0mm|Usage=FLASHONLY|Rotation=270.000|XOffset=0mm|YOffset=0mm|HoleType=Round|Shape=Octagon|*
%AMOCTAGOND15*
4,1,8,0.6100,0.2500,0.6100,-0.2500,0.3600,-0.5000,-0.3600,-0.5000,-0.6100,-0.2500,-0.6100,0.2500,-0.3600,0.5000,0.3600,0.5000,0.6100,0.2500,0.0*
%
%ADD15OCTAGOND15*%

%ADD16R,0.9000X0.8000*%
%ADD17R,0.8000X0.9000*%
%ADD18R,0.7000X0.9000*%
%ADD19R,2.5900X0.9500*%
%ADD20R,5.9400X5.6300*%
%ADD21O,2.5000X0.8000*%
%ADD22R,2.5000X0.8000*%
%ADD23R,2.2000X3.0000*%
%ADD24R,1.3700X0.5900*%
%ADD25R,0.9000X1.0000*%
%ADD26R,1.4000X1.0000*%
%ADD27R,1.0000X1.4000*%
%ADD28R,0.9000X0.7000*%
%ADD29R,0.8000X0.6000*%
D10*
X97790Y546100D02*
D03*
X173990D02*
D03*
D11*
X146685Y542290D02*
D03*
X125095D02*
D03*
D12*
X54610Y426330D02*
D03*
Y409330D02*
D03*
X95250Y190890D02*
D03*
Y207890D02*
D03*
D13*
X30480Y426330D02*
D03*
Y409330D02*
D03*
D14*
X148289Y173990D02*
D03*
X140669Y281940D02*
D03*
D15*
X181911Y173990D02*
D03*
X174291Y281940D02*
D03*
D16*
X123190Y295290D02*
D03*
Y281290D02*
D03*
X15240Y241920D02*
D03*
Y255920D02*
D03*
X200660Y188610D02*
D03*
Y174610D02*
D03*
X78740Y177150D02*
D03*
Y191150D02*
D03*
X191770Y351170D02*
D03*
Y337170D02*
D03*
D17*
X118730Y173990D02*
D03*
X132730D02*
D03*
X29830Y318770D02*
D03*
X43830D02*
D03*
D18*
X159900Y255270D02*
D03*
X144900D02*
D03*
X29450Y306070D02*
D03*
X44450D02*
D03*
D19*
X81860Y317500D02*
D03*
Y363220D02*
D03*
D20*
X150360Y340360D02*
D03*
D21*
X98354Y243078D02*
D03*
Y255778D02*
D03*
Y268478D02*
D03*
Y281178D02*
D03*
X38354Y243078D02*
D03*
Y255778D02*
D03*
Y268478D02*
D03*
D22*
Y281178D02*
D03*
D23*
X68580Y261620D02*
D03*
D24*
X112710Y189890D02*
D03*
Y208890D02*
D03*
X136210D02*
D03*
Y199390D02*
D03*
Y189890D02*
D03*
D25*
X182490Y194310D02*
D03*
X165490D02*
D03*
X165490Y210820D02*
D03*
X182490D02*
D03*
D26*
X180340Y237650D02*
D03*
Y257650D02*
D03*
D27*
X159860Y237490D02*
D03*
X139860D02*
D03*
D28*
X121920Y255150D02*
D03*
Y240150D02*
D03*
D29*
X99410Y224790D02*
D03*
X111410D02*
D03*
%TF.MD5,d826a6defa1f869314e6bd6f60536a25*%
M02*
