%TF.GenerationSoftware,Altium Limited,Altium NEXUS,2.1.5 (53)*%
G04 Layer_Color=65535*
%FSLAX44Y44*%
%MOMM*%
%TF.FileFunction,Legend,Top*%
%TF.Part,Single*%
G01*
G75*
%TA.AperFunction,NonConductor*%
%ADD40C,0.2000*%
%ADD41C,0.2540*%
%ADD42C,0.1270*%
D40*
X65770Y362860D02*
G03*
X65770Y362860I-1000J0D01*
G01*
X149208Y189230D02*
G03*
X149208Y189230I-618J0D01*
G01*
X200120Y115230D02*
Y138230D01*
X69120D02*
X200120D01*
X69120Y115230D02*
Y138230D01*
X200120Y-2770D02*
Y85230D01*
X69120Y-2770D02*
X200120D01*
X69120D02*
Y85230D01*
X58420Y416560D02*
Y419100D01*
X50800Y416560D02*
Y419100D01*
X158750Y180990D02*
X170800D01*
X171450Y179070D02*
Y180340D01*
Y167640D02*
Y168910D01*
X158750Y166990D02*
X170800D01*
X171450Y167640D01*
X243840Y146050D02*
Y219710D01*
X213360Y146050D02*
Y219710D01*
Y146050D02*
X243840D01*
X213360Y151130D02*
X218440Y146050D01*
X213360Y151130D02*
Y153670D01*
Y219710D02*
X243840D01*
Y222250D02*
Y295910D01*
X213360Y222250D02*
Y295910D01*
Y222250D02*
X243840D01*
X213360Y227330D02*
X218440Y222250D01*
X213360Y227330D02*
Y229870D01*
Y295910D02*
X243840D01*
Y374650D02*
Y448310D01*
X213360Y374650D02*
Y448310D01*
Y374650D02*
X243840D01*
X213360Y379730D02*
X218440Y374650D01*
X213360Y379730D02*
Y382270D01*
Y448310D02*
X243840D01*
Y298450D02*
Y372110D01*
X213360Y298450D02*
Y372110D01*
Y298450D02*
X243840D01*
X213360Y303530D02*
X218440Y298450D01*
X213360Y303530D02*
Y306070D01*
Y372110D02*
X243840D01*
X151130Y288940D02*
X163180D01*
X163830Y287020D02*
Y288290D01*
Y275590D02*
Y276860D01*
X151130Y274940D02*
X163180D01*
X163830Y275590D01*
X150400Y251770D02*
X154400D01*
X150400Y258770D02*
X154400D01*
X43942Y289814D02*
X93218D01*
X43180Y235204D02*
X92456D01*
X91440Y198120D02*
Y200660D01*
X99060Y198120D02*
Y200660D01*
X172720Y190500D02*
X175260D01*
X172720Y198120D02*
X175260D01*
X125420Y245650D02*
Y249650D01*
X118420Y245650D02*
Y249650D01*
X34950Y309570D02*
X38950D01*
X34950Y302570D02*
X38950D01*
X172720Y214630D02*
X175260D01*
X172720Y207010D02*
X175260D01*
D41*
X39608Y295148D02*
G03*
X39608Y295148I-1000J0D01*
G01*
X38100Y400050D02*
X39370D01*
Y406400D01*
X21590Y400050D02*
X38100D01*
X21590D02*
Y406400D01*
X58801Y163952D02*
Y151256D01*
X61340Y148717D01*
X66418D01*
X68958Y151256D01*
Y163952D01*
X84193D02*
X74036D01*
Y156334D01*
X79114Y158874D01*
X81654D01*
X84193Y156334D01*
Y151256D01*
X81654Y148717D01*
X76575D01*
X74036Y151256D01*
X76327Y640075D02*
Y627379D01*
X78866Y624840D01*
X83945D01*
X86484Y627379D01*
Y640075D01*
X99180Y624840D02*
Y640075D01*
X91562Y632458D01*
X101719D01*
D42*
X166360Y306860D02*
Y310360D01*
Y370360D02*
Y373860D01*
X104360D02*
X166360D01*
X104360Y306860D02*
Y373860D01*
Y306860D02*
X166360D01*
X132960Y183890D02*
Y184890D01*
X115960Y183890D02*
Y184890D01*
Y213890D02*
Y214890D01*
X132960Y213890D02*
Y214890D01*
X115960D02*
X132960D01*
X115960Y183890D02*
X132960D01*
%TF.MD5,56d4b1519dcfe588813f868c770eeeb4*%
M02*
