%TF.GenerationSoftware,Altium Limited,Altium NEXUS,2.1.5 (53)*%
G04 Layer_Color=16711935*
%FSLAX44Y44*%
%MOMM*%
%TF.FileFunction,Soldermask,Bot*%
%TF.Part,Single*%
G01*
G75*
%TA.AperFunction,ComponentPad*%
%ADD63C,2.5032*%
%ADD64C,1.6312*%
%ADD65R,1.6312X1.6312*%
%ADD66R,1.9032X1.9032*%
%ADD67C,1.9032*%
G36*
X142135Y111977D02*
X144257D01*
Y111674D01*
X146076D01*
Y111371D01*
X147289D01*
Y111068D01*
X148805D01*
Y110765D01*
X149411D01*
Y110462D01*
Y110158D01*
X149714D01*
Y109855D01*
Y109552D01*
Y109249D01*
Y108946D01*
Y108643D01*
X150018D01*
Y108339D01*
Y108036D01*
Y107733D01*
Y107430D01*
X150321D01*
Y107127D01*
Y106823D01*
Y106520D01*
Y106217D01*
Y105914D01*
X150624D01*
Y105611D01*
Y105308D01*
Y105004D01*
Y104701D01*
X150927D01*
Y104398D01*
Y104095D01*
Y103792D01*
Y103488D01*
X151230D01*
Y103185D01*
Y102882D01*
Y102579D01*
Y102276D01*
Y101973D01*
X151534D01*
Y101669D01*
Y101366D01*
Y101063D01*
Y100760D01*
X151837D01*
Y100457D01*
Y100154D01*
Y99850D01*
Y99547D01*
Y99244D01*
X152140D01*
Y98941D01*
Y98638D01*
Y98334D01*
Y98031D01*
X152443D01*
Y97728D01*
Y97425D01*
Y97122D01*
Y96819D01*
X152746D01*
Y96515D01*
Y96212D01*
Y95909D01*
Y95606D01*
X153049D01*
Y95303D01*
Y94999D01*
Y94696D01*
Y94393D01*
Y94090D01*
X153353D01*
Y93787D01*
Y93483D01*
Y93180D01*
Y92877D01*
X153656D01*
Y92574D01*
Y92271D01*
Y91968D01*
Y91664D01*
X153959D01*
Y91361D01*
Y91058D01*
Y90755D01*
Y90452D01*
Y90149D01*
X154262D01*
Y89845D01*
Y89542D01*
Y89239D01*
Y88936D01*
X154565D01*
Y88633D01*
Y88330D01*
Y88026D01*
Y87723D01*
Y87420D01*
X154868D01*
Y87117D01*
Y86814D01*
Y86510D01*
Y86207D01*
X155172D01*
Y85904D01*
Y85601D01*
Y85298D01*
Y84995D01*
X155475D01*
Y84691D01*
Y84388D01*
Y84085D01*
Y83782D01*
X155778D01*
Y83479D01*
Y83176D01*
X155172D01*
Y83479D01*
X154868D01*
Y83782D01*
X154262D01*
Y84085D01*
X153656D01*
Y84388D01*
X153353D01*
Y84691D01*
X152746D01*
Y84995D01*
X152443D01*
Y85298D01*
X151837D01*
Y85601D01*
X151534D01*
Y85904D01*
X150927D01*
Y86207D01*
X150321D01*
Y86510D01*
X150018D01*
Y86814D01*
X149411D01*
Y87117D01*
X149108D01*
Y87420D01*
X148502D01*
Y87723D01*
X147895D01*
Y88026D01*
X147592D01*
Y88330D01*
X146986D01*
Y88633D01*
X146683D01*
Y88936D01*
X146076D01*
Y89239D01*
X145773D01*
Y89542D01*
X145167D01*
Y89845D01*
X144560D01*
Y90149D01*
X144257D01*
Y90452D01*
X143651D01*
Y90755D01*
X143348D01*
Y91058D01*
X142741D01*
Y91361D01*
X142135D01*
Y91664D01*
X141832D01*
Y91968D01*
X141226D01*
Y92271D01*
X140619D01*
Y92574D01*
X140316D01*
Y92877D01*
X139710D01*
Y93180D01*
X139406D01*
Y93483D01*
X138800D01*
Y93787D01*
X138497D01*
Y94090D01*
X137891D01*
Y94393D01*
X137284D01*
Y94696D01*
X136981D01*
Y94999D01*
X136375D01*
Y95303D01*
X136072D01*
Y95606D01*
X135465D01*
Y95909D01*
X134859D01*
Y96212D01*
X134556D01*
Y96515D01*
X133949D01*
Y96819D01*
X133646D01*
Y97122D01*
X133040D01*
Y97425D01*
X132737D01*
Y97728D01*
X132130D01*
Y98031D01*
X131524D01*
Y98334D01*
X131221D01*
Y98638D01*
X130614D01*
Y98941D01*
X130311D01*
Y99244D01*
X129705D01*
Y99547D01*
X129098D01*
Y99850D01*
X128795D01*
Y100154D01*
X128189D01*
Y100457D01*
X127886D01*
Y100760D01*
X127279D01*
Y101063D01*
X126673D01*
Y101366D01*
X126370D01*
Y101669D01*
X125764D01*
Y101973D01*
X125157D01*
Y102276D01*
X124854D01*
Y102579D01*
X124248D01*
Y102882D01*
X123944D01*
Y103185D01*
X123338D01*
Y103488D01*
X123035D01*
Y103792D01*
X122429D01*
Y104095D01*
X121822D01*
Y104398D01*
X121519D01*
Y104701D01*
X120913D01*
Y105004D01*
X120610D01*
Y105308D01*
X120003D01*
Y105611D01*
X119700D01*
Y105914D01*
X119094D01*
Y106217D01*
X118487D01*
Y106520D01*
X118184D01*
Y106823D01*
X117578D01*
Y107127D01*
X117275D01*
Y107430D01*
X116668D01*
Y107733D01*
X116062D01*
Y108036D01*
X115759D01*
Y108339D01*
X116365D01*
Y108643D01*
X117275D01*
Y108946D01*
X117881D01*
Y109249D01*
X118790D01*
Y109552D01*
X119700D01*
Y109855D01*
X120610D01*
Y110158D01*
X121519D01*
Y110462D01*
X122732D01*
Y110765D01*
X123944D01*
Y111068D01*
X125157D01*
Y111371D01*
X126673D01*
Y111674D01*
X128492D01*
Y111977D01*
X130614D01*
Y112281D01*
X142135D01*
Y111977D01*
D02*
G37*
G36*
X109695Y104701D02*
X110301D01*
Y104398D01*
X110605D01*
Y104095D01*
X111211D01*
Y103792D01*
X111817D01*
Y103488D01*
X112121D01*
Y103185D01*
X112727D01*
Y102882D01*
X113333D01*
Y102579D01*
X113636D01*
Y102276D01*
X114243D01*
Y101973D01*
X114546D01*
Y101669D01*
X115152D01*
Y101366D01*
X115759D01*
Y101063D01*
X116062D01*
Y100760D01*
X116668D01*
Y100457D01*
X116971D01*
Y100154D01*
X117578D01*
Y99850D01*
X117881D01*
Y99547D01*
X118487D01*
Y99244D01*
X119094D01*
Y98941D01*
X119397D01*
Y98638D01*
X120003D01*
Y98334D01*
X120306D01*
Y98031D01*
X120913D01*
Y97728D01*
X121519D01*
Y97425D01*
X121822D01*
Y97122D01*
X122429D01*
Y96819D01*
X123035D01*
Y96515D01*
X123338D01*
Y96212D01*
X123944D01*
Y95909D01*
X124248D01*
Y95606D01*
X124854D01*
Y95303D01*
X125460D01*
Y94999D01*
X125764D01*
Y94696D01*
X126370D01*
Y94393D01*
X126673D01*
Y94090D01*
X127279D01*
Y93787D01*
X127886D01*
Y93483D01*
X128189D01*
Y93180D01*
X128795D01*
Y92877D01*
X129098D01*
Y92574D01*
X129705D01*
Y92271D01*
X130008D01*
Y91968D01*
X130614D01*
Y91664D01*
X131221D01*
Y91361D01*
X131524D01*
Y91058D01*
X132130D01*
Y90755D01*
X132433D01*
Y90452D01*
X133040D01*
Y90149D01*
X133646D01*
Y89845D01*
X133949D01*
Y89542D01*
X132433D01*
Y89239D01*
X131221D01*
Y88936D01*
X129705D01*
Y88633D01*
X128492D01*
Y88330D01*
X126976D01*
Y88026D01*
X126067D01*
Y87723D01*
X124551D01*
Y87420D01*
X123035D01*
Y87117D01*
X121822D01*
Y86814D01*
X120306D01*
Y86510D01*
X119094D01*
Y86207D01*
X117578D01*
Y85904D01*
X116365D01*
Y85601D01*
X114849D01*
Y85298D01*
X113636D01*
Y84995D01*
X112424D01*
Y84691D01*
X110908D01*
Y84388D01*
X109695D01*
Y84085D01*
X108179D01*
Y83782D01*
X106966D01*
Y83479D01*
X105451D01*
Y83176D01*
X104238D01*
Y82872D01*
X102722D01*
Y82569D01*
X101509D01*
Y82266D01*
X99993D01*
Y81963D01*
X98781D01*
Y81660D01*
X97568D01*
Y81356D01*
X96052D01*
Y81053D01*
X94839D01*
Y80750D01*
X93323D01*
Y80447D01*
X92111D01*
Y80144D01*
X90595D01*
Y79841D01*
X89382D01*
Y79537D01*
X88169D01*
Y79234D01*
X87563D01*
Y79537D01*
X87866D01*
Y79841D01*
Y80144D01*
X88169D01*
Y80447D01*
Y80750D01*
Y81053D01*
X88473D01*
Y81356D01*
Y81660D01*
X88776D01*
Y81963D01*
Y82266D01*
X89079D01*
Y82569D01*
Y82872D01*
X89382D01*
Y83176D01*
Y83479D01*
X89685D01*
Y83782D01*
Y84085D01*
X89989D01*
Y84388D01*
Y84691D01*
X90292D01*
Y84995D01*
Y85298D01*
X90595D01*
Y85601D01*
Y85904D01*
X90898D01*
Y86207D01*
Y86510D01*
X91201D01*
Y86814D01*
X91504D01*
Y87117D01*
Y87420D01*
X91808D01*
Y87723D01*
X92111D01*
Y88026D01*
Y88330D01*
X92414D01*
Y88633D01*
Y88936D01*
X92717D01*
Y89239D01*
X93020D01*
Y89542D01*
Y89845D01*
X93323D01*
Y90149D01*
X93627D01*
Y90452D01*
X93930D01*
Y90755D01*
Y91058D01*
X94233D01*
Y91361D01*
X94536D01*
Y91664D01*
X94839D01*
Y91968D01*
Y92271D01*
X95143D01*
Y92574D01*
X95446D01*
Y92877D01*
X95749D01*
Y93180D01*
Y93483D01*
X96052D01*
Y93787D01*
X96355D01*
Y94090D01*
X96658D01*
Y94393D01*
X96962D01*
Y94696D01*
X97265D01*
Y94999D01*
X97568D01*
Y95303D01*
X97871D01*
Y95606D01*
Y95909D01*
X98174D01*
Y96212D01*
X98477D01*
Y96515D01*
X98781D01*
Y96819D01*
X99084D01*
Y97122D01*
X99387D01*
Y97425D01*
X99690D01*
Y97728D01*
X99993D01*
Y98031D01*
X100296D01*
Y98334D01*
X100600D01*
Y98638D01*
X101206D01*
Y98941D01*
X101509D01*
Y99244D01*
X101812D01*
Y99547D01*
X102116D01*
Y99850D01*
X102419D01*
Y100154D01*
X102722D01*
Y100457D01*
X103025D01*
Y100760D01*
X103631D01*
Y101063D01*
X103935D01*
Y101366D01*
X104238D01*
Y101669D01*
X104844D01*
Y101973D01*
X105147D01*
Y102276D01*
X105451D01*
Y102579D01*
X106057D01*
Y102882D01*
X106360D01*
Y103185D01*
X106663D01*
Y103488D01*
X107270D01*
Y103792D01*
X107876D01*
Y104095D01*
X108179D01*
Y104398D01*
X108785D01*
Y104701D01*
X109089D01*
Y105004D01*
X109695D01*
Y104701D01*
D02*
G37*
G36*
X156384Y108339D02*
X156991D01*
Y108036D01*
X157597D01*
Y107733D01*
X158203D01*
Y107430D01*
X158810D01*
Y107127D01*
X159416D01*
Y106823D01*
X160023D01*
Y106520D01*
X160629D01*
Y106217D01*
X161235D01*
Y105914D01*
X161842D01*
Y105611D01*
X162448D01*
Y105308D01*
X162751D01*
Y105004D01*
X163358D01*
Y104701D01*
X163964D01*
Y104398D01*
X164267D01*
Y104095D01*
X164873D01*
Y103792D01*
X165177D01*
Y103488D01*
X165783D01*
Y103185D01*
X166086D01*
Y102882D01*
X166692D01*
Y102579D01*
X166996D01*
Y102276D01*
X167602D01*
Y101973D01*
X167905D01*
Y101669D01*
X168208D01*
Y101366D01*
X168815D01*
Y101063D01*
X169118D01*
Y100760D01*
X169421D01*
Y100457D01*
X169724D01*
Y100154D01*
X170331D01*
Y99850D01*
X170634D01*
Y99547D01*
X170937D01*
Y99244D01*
X171240D01*
Y98941D01*
X171543D01*
Y98638D01*
X171846D01*
Y98334D01*
X172150D01*
Y98031D01*
X172453D01*
Y97728D01*
X172756D01*
Y97425D01*
X173059D01*
Y97122D01*
X173362D01*
Y96819D01*
X173666D01*
Y96515D01*
X173969D01*
Y96212D01*
X174272D01*
Y95909D01*
X174575D01*
Y95606D01*
X174878D01*
Y95303D01*
X175181D01*
Y94999D01*
X175485D01*
Y94696D01*
X175788D01*
Y94393D01*
X176091D01*
Y94090D01*
X176394D01*
Y93787D01*
Y93483D01*
X176697D01*
Y93180D01*
X177000D01*
Y92877D01*
X177304D01*
Y92574D01*
X177607D01*
Y92271D01*
Y91968D01*
X177910D01*
Y91664D01*
X178213D01*
Y91361D01*
X178516D01*
Y91058D01*
Y90755D01*
X178820D01*
Y90452D01*
X179123D01*
Y90149D01*
Y89845D01*
X179426D01*
Y89542D01*
X179729D01*
Y89239D01*
X180032D01*
Y88936D01*
Y88633D01*
X180335D01*
Y88330D01*
Y88026D01*
X180639D01*
Y87723D01*
X180942D01*
Y87420D01*
Y87117D01*
X181245D01*
Y86814D01*
X181548D01*
Y86510D01*
Y86207D01*
X181245D01*
Y85904D01*
X180942D01*
Y85601D01*
Y85298D01*
X180639D01*
Y84995D01*
X180335D01*
Y84691D01*
Y84388D01*
X180032D01*
Y84085D01*
Y83782D01*
X179729D01*
Y83479D01*
X179426D01*
Y83176D01*
Y82872D01*
X179123D01*
Y82569D01*
X178820D01*
Y82266D01*
Y81963D01*
X178516D01*
Y81660D01*
Y81356D01*
X178213D01*
Y81053D01*
X177910D01*
Y80750D01*
Y80447D01*
X177607D01*
Y80144D01*
X177304D01*
Y79841D01*
Y79537D01*
X177000D01*
Y79234D01*
Y78931D01*
X176697D01*
Y78628D01*
X176394D01*
Y78325D01*
Y78022D01*
X176091D01*
Y77718D01*
X175788D01*
Y77415D01*
Y77112D01*
X175485D01*
Y76809D01*
Y76506D01*
X175181D01*
Y76203D01*
X174878D01*
Y75899D01*
Y75596D01*
X174575D01*
Y75293D01*
X174272D01*
Y74990D01*
Y74687D01*
X173969D01*
Y74383D01*
X173666D01*
Y74080D01*
Y73777D01*
X173362D01*
Y73474D01*
Y73171D01*
X173059D01*
Y72867D01*
X172756D01*
Y72564D01*
Y72261D01*
X172453D01*
Y71958D01*
X172150D01*
Y71655D01*
Y71352D01*
X171846D01*
Y71048D01*
Y70745D01*
X171543D01*
Y70442D01*
X171240D01*
Y70139D01*
Y69836D01*
X170937D01*
Y69533D01*
Y69229D01*
X170634D01*
Y68926D01*
X170331D01*
Y68623D01*
Y68320D01*
X170027D01*
Y68017D01*
X169724D01*
Y67713D01*
Y67410D01*
X169421D01*
Y67107D01*
Y66804D01*
X169118D01*
Y66501D01*
X168815D01*
Y66198D01*
Y65894D01*
X168511D01*
Y65591D01*
X168208D01*
Y65288D01*
Y64985D01*
X167905D01*
Y64682D01*
X167602D01*
Y64378D01*
Y64075D01*
X167299D01*
Y63772D01*
Y63469D01*
X166996D01*
Y63166D01*
X166692D01*
Y62863D01*
Y62559D01*
X166389D01*
Y62863D01*
Y63166D01*
Y63469D01*
Y63772D01*
X166086D01*
Y64075D01*
Y64378D01*
Y64682D01*
Y64985D01*
X165783D01*
Y65288D01*
Y65591D01*
Y65894D01*
Y66198D01*
Y66501D01*
X165480D01*
Y66804D01*
Y67107D01*
Y67410D01*
Y67713D01*
X165177D01*
Y68017D01*
Y68320D01*
Y68623D01*
Y68926D01*
Y69229D01*
X164873D01*
Y69533D01*
Y69836D01*
Y70139D01*
Y70442D01*
X164570D01*
Y70745D01*
Y71048D01*
Y71352D01*
Y71655D01*
X164267D01*
Y71958D01*
Y72261D01*
Y72564D01*
Y72867D01*
X163964D01*
Y73171D01*
Y73474D01*
Y73777D01*
Y74080D01*
Y74383D01*
X163661D01*
Y74687D01*
Y74990D01*
Y75293D01*
Y75596D01*
Y75899D01*
X163358D01*
Y76203D01*
Y76506D01*
Y76809D01*
Y77112D01*
X163054D01*
Y77415D01*
Y77718D01*
Y78022D01*
Y78325D01*
X162751D01*
Y78628D01*
Y78931D01*
Y79234D01*
Y79537D01*
X162448D01*
Y79841D01*
Y80144D01*
Y80447D01*
Y80750D01*
Y81053D01*
X162145D01*
Y81356D01*
Y81660D01*
Y81963D01*
Y82266D01*
X161842D01*
Y82569D01*
Y82872D01*
Y83176D01*
Y83479D01*
Y83782D01*
X161538D01*
Y84085D01*
Y84388D01*
Y84691D01*
Y84995D01*
X161235D01*
Y85298D01*
Y85601D01*
Y85904D01*
Y86207D01*
X160932D01*
Y86510D01*
Y86814D01*
Y87117D01*
Y87420D01*
Y87723D01*
X160629D01*
Y88026D01*
Y88330D01*
Y88633D01*
Y88936D01*
X160326D01*
Y89239D01*
Y89542D01*
Y89845D01*
Y90149D01*
Y90452D01*
X160023D01*
Y90755D01*
Y91058D01*
Y91361D01*
Y91664D01*
X159719D01*
Y91968D01*
Y92271D01*
Y92574D01*
Y92877D01*
X159416D01*
Y93180D01*
Y93483D01*
Y93787D01*
Y94090D01*
X159113D01*
Y94393D01*
Y94696D01*
Y94999D01*
Y95303D01*
Y95606D01*
X158810D01*
Y95909D01*
Y96212D01*
Y96515D01*
Y96819D01*
X158507D01*
Y97122D01*
Y97425D01*
Y97728D01*
Y98031D01*
Y98334D01*
X158203D01*
Y98638D01*
Y98941D01*
Y99244D01*
Y99547D01*
X157900D01*
Y99850D01*
Y100154D01*
Y100457D01*
Y100760D01*
X157597D01*
Y101063D01*
Y101366D01*
Y101669D01*
Y101973D01*
Y102276D01*
X157294D01*
Y102579D01*
Y102882D01*
Y103185D01*
Y103488D01*
X156991D01*
Y103792D01*
Y104095D01*
Y104398D01*
Y104701D01*
Y105004D01*
X156687D01*
Y105308D01*
Y105611D01*
Y105914D01*
Y106217D01*
X156384D01*
Y106520D01*
Y106823D01*
Y107127D01*
Y107430D01*
X156081D01*
Y107733D01*
Y108036D01*
Y108339D01*
Y108643D01*
X156384D01*
Y108339D01*
D02*
G37*
G36*
X184883Y79841D02*
Y79537D01*
Y79234D01*
X185186D01*
Y78931D01*
Y78628D01*
Y78325D01*
X185489D01*
Y78022D01*
Y77718D01*
X185793D01*
Y77415D01*
Y77112D01*
Y76809D01*
X186096D01*
Y76506D01*
Y76203D01*
Y75899D01*
Y75596D01*
X186399D01*
Y75293D01*
Y74990D01*
Y74687D01*
X186702D01*
Y74383D01*
Y74080D01*
Y73777D01*
Y73474D01*
X187005D01*
Y73171D01*
Y72867D01*
Y72564D01*
X187309D01*
Y72261D01*
Y71958D01*
Y71655D01*
Y71352D01*
Y71048D01*
X187612D01*
Y70745D01*
Y70442D01*
Y70139D01*
Y69836D01*
X187915D01*
Y69533D01*
Y69229D01*
Y68926D01*
Y68623D01*
Y68320D01*
Y68017D01*
Y67713D01*
X188218D01*
Y67410D01*
Y67107D01*
Y66804D01*
Y66501D01*
Y66198D01*
Y65894D01*
Y65591D01*
X188521D01*
Y65288D01*
Y64985D01*
Y64682D01*
Y64378D01*
Y64075D01*
Y63772D01*
Y63469D01*
Y63166D01*
Y62863D01*
Y62559D01*
Y62256D01*
Y61953D01*
Y61650D01*
Y61347D01*
Y61044D01*
Y60740D01*
Y60437D01*
Y60134D01*
Y59831D01*
Y59528D01*
Y59225D01*
Y58921D01*
Y58618D01*
Y58315D01*
Y58012D01*
Y57709D01*
Y57405D01*
Y57102D01*
Y56799D01*
Y56496D01*
Y56193D01*
Y55890D01*
Y55586D01*
Y55283D01*
Y54980D01*
Y54677D01*
Y54374D01*
X188218D01*
Y54071D01*
Y53767D01*
Y53464D01*
Y53161D01*
Y52858D01*
Y52555D01*
Y52251D01*
X187915D01*
Y51948D01*
Y51645D01*
Y51342D01*
Y51039D01*
Y50736D01*
Y50432D01*
X187612D01*
Y50129D01*
Y49826D01*
Y49523D01*
Y49220D01*
Y48917D01*
X187309D01*
Y48613D01*
Y48310D01*
Y48007D01*
Y47704D01*
X187005D01*
Y47401D01*
Y47098D01*
Y46794D01*
X185489D01*
Y46491D01*
X183974D01*
Y46188D01*
X182761D01*
Y45885D01*
X181245D01*
Y45582D01*
X180032D01*
Y45278D01*
X178820D01*
Y44975D01*
X177607D01*
Y44672D01*
X176091D01*
Y44369D01*
X174878D01*
Y44066D01*
X173666D01*
Y43762D01*
X172150D01*
Y43459D01*
X170937D01*
Y43156D01*
X169421D01*
Y42853D01*
X168208D01*
Y42550D01*
X166996D01*
Y42247D01*
X165783D01*
Y41943D01*
X164267D01*
Y41640D01*
X163054D01*
Y41337D01*
X161538D01*
Y41034D01*
X160326D01*
Y40731D01*
X159719D01*
Y41034D01*
X160023D01*
Y41337D01*
X160326D01*
Y41640D01*
Y41943D01*
X160629D01*
Y42247D01*
X160932D01*
Y42550D01*
Y42853D01*
X161235D01*
Y43156D01*
X161538D01*
Y43459D01*
Y43762D01*
X161842D01*
Y44066D01*
Y44369D01*
X162145D01*
Y44672D01*
X162448D01*
Y44975D01*
Y45278D01*
X162751D01*
Y45582D01*
X163054D01*
Y45885D01*
Y46188D01*
X163358D01*
Y46491D01*
X163661D01*
Y46794D01*
Y47098D01*
X163964D01*
Y47401D01*
Y47704D01*
X164267D01*
Y48007D01*
X164570D01*
Y48310D01*
Y48613D01*
X164873D01*
Y48917D01*
X165177D01*
Y49220D01*
Y49523D01*
X165480D01*
Y49826D01*
Y50129D01*
X165783D01*
Y50432D01*
X166086D01*
Y50736D01*
Y51039D01*
X166389D01*
Y51342D01*
X166692D01*
Y51645D01*
Y51948D01*
X166996D01*
Y52251D01*
Y52555D01*
X167299D01*
Y52858D01*
X167602D01*
Y53161D01*
Y53464D01*
X167905D01*
Y53767D01*
X168208D01*
Y54071D01*
Y54374D01*
X168511D01*
Y54677D01*
Y54980D01*
X168815D01*
Y55283D01*
X169118D01*
Y55586D01*
Y55890D01*
X169421D01*
Y56193D01*
X169724D01*
Y56496D01*
Y56799D01*
X170027D01*
Y57102D01*
Y57405D01*
X170331D01*
Y57709D01*
X170634D01*
Y58012D01*
Y58315D01*
X170937D01*
Y58618D01*
X171240D01*
Y58921D01*
Y59225D01*
X171543D01*
Y59528D01*
Y59831D01*
X171846D01*
Y60134D01*
X172150D01*
Y60437D01*
Y60740D01*
X172453D01*
Y61044D01*
X172756D01*
Y61347D01*
Y61650D01*
X173059D01*
Y61953D01*
X173362D01*
Y62256D01*
Y62559D01*
X173666D01*
Y62863D01*
Y63166D01*
X173969D01*
Y63469D01*
X174272D01*
Y63772D01*
Y64075D01*
X174575D01*
Y64378D01*
X174878D01*
Y64682D01*
Y64985D01*
X175181D01*
Y65288D01*
Y65591D01*
X175485D01*
Y65894D01*
X175788D01*
Y66198D01*
Y66501D01*
X176091D01*
Y66804D01*
X176394D01*
Y67107D01*
Y67410D01*
X176697D01*
Y67713D01*
Y68017D01*
X177000D01*
Y68320D01*
X177304D01*
Y68623D01*
Y68926D01*
X177607D01*
Y69229D01*
X177910D01*
Y69533D01*
Y69836D01*
X178213D01*
Y70139D01*
Y70442D01*
X178516D01*
Y70745D01*
X178820D01*
Y71048D01*
Y71352D01*
X179123D01*
Y71655D01*
X179426D01*
Y71958D01*
Y72261D01*
X179729D01*
Y72564D01*
Y72867D01*
X180032D01*
Y73171D01*
X180335D01*
Y73474D01*
Y73777D01*
X180639D01*
Y74080D01*
X180942D01*
Y74383D01*
Y74687D01*
X181245D01*
Y74990D01*
X181548D01*
Y75293D01*
Y75596D01*
X181851D01*
Y75899D01*
Y76203D01*
X182154D01*
Y76506D01*
X182458D01*
Y76809D01*
Y77112D01*
X182761D01*
Y77415D01*
X183064D01*
Y77718D01*
Y78022D01*
X183367D01*
Y78325D01*
Y78628D01*
X183670D01*
Y78931D01*
X183974D01*
Y79234D01*
Y79537D01*
X184277D01*
Y79841D01*
Y80144D01*
X184883D01*
Y79841D01*
D02*
G37*
G36*
X113636Y78931D02*
Y78628D01*
X113333D01*
Y78325D01*
X113030D01*
Y78022D01*
Y77718D01*
X112727D01*
Y77415D01*
X112424D01*
Y77112D01*
Y76809D01*
X112121D01*
Y76506D01*
Y76203D01*
X111817D01*
Y75899D01*
X111514D01*
Y75596D01*
Y75293D01*
X111211D01*
Y74990D01*
X110908D01*
Y74687D01*
Y74383D01*
X110605D01*
Y74080D01*
X110301D01*
Y73777D01*
Y73474D01*
X109998D01*
Y73171D01*
Y72867D01*
X109695D01*
Y72564D01*
X109392D01*
Y72261D01*
Y71958D01*
X109089D01*
Y71655D01*
X108785D01*
Y71352D01*
Y71048D01*
X108482D01*
Y70745D01*
Y70442D01*
X108179D01*
Y70139D01*
X107876D01*
Y69836D01*
Y69533D01*
X107573D01*
Y69229D01*
X107270D01*
Y68926D01*
Y68623D01*
X106966D01*
Y68320D01*
Y68017D01*
X106663D01*
Y67713D01*
X106360D01*
Y67410D01*
Y67107D01*
X106057D01*
Y66804D01*
X105754D01*
Y66501D01*
Y66198D01*
X105451D01*
Y65894D01*
Y65591D01*
X105147D01*
Y65288D01*
X104844D01*
Y64985D01*
Y64682D01*
X104541D01*
Y64378D01*
X104238D01*
Y64075D01*
Y63772D01*
X103935D01*
Y63469D01*
X103631D01*
Y63166D01*
Y62863D01*
X103328D01*
Y62559D01*
Y62256D01*
X103025D01*
Y61953D01*
X102722D01*
Y61650D01*
Y61347D01*
X102419D01*
Y61044D01*
X102116D01*
Y60740D01*
Y60437D01*
X101812D01*
Y60134D01*
X101509D01*
Y59831D01*
Y59528D01*
X101206D01*
Y59225D01*
Y58921D01*
X100903D01*
Y58618D01*
X100600D01*
Y58315D01*
Y58012D01*
X100296D01*
Y57709D01*
X99993D01*
Y57405D01*
Y57102D01*
X99690D01*
Y56799D01*
X99387D01*
Y56496D01*
Y56193D01*
X99084D01*
Y55890D01*
Y55586D01*
X98781D01*
Y55283D01*
X98477D01*
Y54980D01*
Y54677D01*
X98174D01*
Y54374D01*
X97871D01*
Y54071D01*
Y53767D01*
X97568D01*
Y53464D01*
X97265D01*
Y53161D01*
Y52858D01*
X96962D01*
Y52555D01*
Y52251D01*
X96658D01*
Y51948D01*
X96355D01*
Y51645D01*
Y51342D01*
X96052D01*
Y51039D01*
Y50736D01*
X95749D01*
Y50432D01*
X95446D01*
Y50129D01*
Y49826D01*
X95143D01*
Y49523D01*
X94839D01*
Y49220D01*
Y48917D01*
X94536D01*
Y48613D01*
X94233D01*
Y48310D01*
Y48007D01*
X93930D01*
Y47704D01*
Y47401D01*
X93627D01*
Y47098D01*
X93323D01*
Y46794D01*
Y46491D01*
X93020D01*
Y46188D01*
X92717D01*
Y45885D01*
Y45582D01*
X92414D01*
Y45278D01*
Y44975D01*
X92111D01*
Y44672D01*
X91808D01*
Y44369D01*
Y44066D01*
X91504D01*
Y43762D01*
X91201D01*
Y43459D01*
Y43156D01*
X90898D01*
Y42853D01*
X90595D01*
Y42550D01*
Y42247D01*
X90292D01*
Y41943D01*
Y41640D01*
X89989D01*
Y41337D01*
X89685D01*
Y41034D01*
Y40731D01*
X89382D01*
Y40428D01*
X89079D01*
Y40124D01*
Y39821D01*
X88776D01*
Y39518D01*
X88473D01*
Y39215D01*
X88169D01*
Y39518D01*
Y39821D01*
X87866D01*
Y40124D01*
Y40428D01*
Y40731D01*
X87563D01*
Y41034D01*
Y41337D01*
X87260D01*
Y41640D01*
Y41943D01*
Y42247D01*
X86957D01*
Y42550D01*
Y42853D01*
Y43156D01*
X86654D01*
Y43459D01*
Y43762D01*
Y44066D01*
X86350D01*
Y44369D01*
Y44672D01*
Y44975D01*
X86047D01*
Y45278D01*
Y45582D01*
Y45885D01*
Y46188D01*
X85744D01*
Y46491D01*
Y46794D01*
Y47098D01*
X85441D01*
Y47401D01*
Y47704D01*
Y48007D01*
Y48310D01*
Y48613D01*
X85138D01*
Y48917D01*
Y49220D01*
Y49523D01*
Y49826D01*
X84834D01*
Y50129D01*
Y50432D01*
Y50736D01*
Y51039D01*
Y51342D01*
Y51645D01*
X84531D01*
Y51948D01*
Y52251D01*
Y52555D01*
Y52858D01*
Y53161D01*
Y53464D01*
Y53767D01*
Y54071D01*
X84228D01*
Y54374D01*
Y54677D01*
Y54980D01*
Y55283D01*
Y55586D01*
Y55890D01*
Y56193D01*
Y56496D01*
Y56799D01*
Y57102D01*
X83925D01*
Y57405D01*
Y57709D01*
Y58012D01*
Y58315D01*
Y58618D01*
Y58921D01*
Y59225D01*
Y59528D01*
Y59831D01*
Y60134D01*
Y60437D01*
Y60740D01*
Y61044D01*
Y61347D01*
Y61650D01*
Y61953D01*
Y62256D01*
Y62559D01*
Y62863D01*
Y63166D01*
X84228D01*
Y63469D01*
Y63772D01*
Y64075D01*
Y64378D01*
Y64682D01*
Y64985D01*
Y65288D01*
Y65591D01*
Y65894D01*
Y66198D01*
X84531D01*
Y66501D01*
Y66804D01*
Y67107D01*
Y67410D01*
Y67713D01*
Y68017D01*
Y68320D01*
Y68623D01*
X84834D01*
Y68926D01*
Y69229D01*
Y69533D01*
Y69836D01*
Y70139D01*
Y70442D01*
X85138D01*
Y70745D01*
Y71048D01*
Y71352D01*
Y71655D01*
X85441D01*
Y71958D01*
Y72261D01*
Y72564D01*
Y72867D01*
X86957D01*
Y73171D01*
X88169D01*
Y73474D01*
X89685D01*
Y73777D01*
X90898D01*
Y74080D01*
X92414D01*
Y74383D01*
X93627D01*
Y74687D01*
X94839D01*
Y74990D01*
X96355D01*
Y75293D01*
X97568D01*
Y75596D01*
X99084D01*
Y75899D01*
X99993D01*
Y76203D01*
X101509D01*
Y76506D01*
X102722D01*
Y76809D01*
X104238D01*
Y77112D01*
X105451D01*
Y77415D01*
X106663D01*
Y77718D01*
X108179D01*
Y78022D01*
X109392D01*
Y78325D01*
X110908D01*
Y78628D01*
X112121D01*
Y78931D01*
X113333D01*
Y79234D01*
X113636D01*
Y78931D01*
D02*
G37*
G36*
X184883Y40124D02*
X184580D01*
Y39821D01*
Y39518D01*
X184277D01*
Y39215D01*
Y38912D01*
X183974D01*
Y38609D01*
Y38305D01*
Y38002D01*
X183670D01*
Y37699D01*
Y37396D01*
X183367D01*
Y37093D01*
Y36789D01*
X183064D01*
Y36486D01*
Y36183D01*
X182761D01*
Y35880D01*
Y35577D01*
X182458D01*
Y35273D01*
Y34970D01*
X182154D01*
Y34667D01*
X181851D01*
Y34364D01*
Y34061D01*
X181548D01*
Y33758D01*
Y33454D01*
X181245D01*
Y33151D01*
Y32848D01*
X180942D01*
Y32545D01*
X180639D01*
Y32242D01*
Y31939D01*
X180335D01*
Y31635D01*
X180032D01*
Y31332D01*
Y31029D01*
X179729D01*
Y30726D01*
X179426D01*
Y30423D01*
Y30120D01*
X179123D01*
Y29816D01*
X178820D01*
Y29513D01*
Y29210D01*
X178516D01*
Y28907D01*
X178213D01*
Y28604D01*
X177910D01*
Y28300D01*
Y27997D01*
X177607D01*
Y27694D01*
X177304D01*
Y27391D01*
X177000D01*
Y27088D01*
X176697D01*
Y26785D01*
Y26481D01*
X176394D01*
Y26178D01*
X176091D01*
Y25875D01*
X175788D01*
Y25572D01*
X175485D01*
Y25269D01*
X175181D01*
Y24966D01*
X174878D01*
Y24662D01*
Y24359D01*
X174272D01*
Y24056D01*
Y23753D01*
X173969D01*
Y23450D01*
X173666D01*
Y23146D01*
X173362D01*
Y22843D01*
X173059D01*
Y22540D01*
X172756D01*
Y22237D01*
X172453D01*
Y21934D01*
X172150D01*
Y21630D01*
X171543D01*
Y21327D01*
X171240D01*
Y21024D01*
X170937D01*
Y20721D01*
X170634D01*
Y20418D01*
X170331D01*
Y20115D01*
X170027D01*
Y19812D01*
X169724D01*
Y19508D01*
X169118D01*
Y19205D01*
X168815D01*
Y18902D01*
X168511D01*
Y18599D01*
X167905D01*
Y18296D01*
X167602D01*
Y17992D01*
X167299D01*
Y17689D01*
X166692D01*
Y17386D01*
X166389D01*
Y17083D01*
X166086D01*
Y16780D01*
X165480D01*
Y16477D01*
X165177D01*
Y16173D01*
X164570D01*
Y15870D01*
X163964D01*
Y15567D01*
X163661D01*
Y15264D01*
X162751D01*
Y15567D01*
X162145D01*
Y15870D01*
X161842D01*
Y16173D01*
X161235D01*
Y16477D01*
X160629D01*
Y16780D01*
X160326D01*
Y17083D01*
X159719D01*
Y17386D01*
X159416D01*
Y17689D01*
X158810D01*
Y17992D01*
X158203D01*
Y18296D01*
X157900D01*
Y18599D01*
X157294D01*
Y18902D01*
X156991D01*
Y19205D01*
X156384D01*
Y19508D01*
X155778D01*
Y19812D01*
X155475D01*
Y20115D01*
X154868D01*
Y20418D01*
X154565D01*
Y20721D01*
X153959D01*
Y21024D01*
X153656D01*
Y21327D01*
X153049D01*
Y21630D01*
X152443D01*
Y21934D01*
X152140D01*
Y22237D01*
X151534D01*
Y22540D01*
X150927D01*
Y22843D01*
X150624D01*
Y23146D01*
X150018D01*
Y23450D01*
X149714D01*
Y23753D01*
X149108D01*
Y24056D01*
X148502D01*
Y24359D01*
X148199D01*
Y24662D01*
X147592D01*
Y24966D01*
X147289D01*
Y25269D01*
X146683D01*
Y25572D01*
X146076D01*
Y25875D01*
X145773D01*
Y26178D01*
X145167D01*
Y26481D01*
X144864D01*
Y26785D01*
X144257D01*
Y27088D01*
X143651D01*
Y27391D01*
X143348D01*
Y27694D01*
X142741D01*
Y27997D01*
X142438D01*
Y28300D01*
X141832D01*
Y28604D01*
X141529D01*
Y28907D01*
X140922D01*
Y29210D01*
X140316D01*
Y29513D01*
X140013D01*
Y29816D01*
X139406D01*
Y30120D01*
X140316D01*
Y30423D01*
X141832D01*
Y30726D01*
X143348D01*
Y31029D01*
X144560D01*
Y31332D01*
X145773D01*
Y31635D01*
X146986D01*
Y31939D01*
X148502D01*
Y32242D01*
X149714D01*
Y32545D01*
X151230D01*
Y32848D01*
X152443D01*
Y33151D01*
X153656D01*
Y33454D01*
X155172D01*
Y33758D01*
X156384D01*
Y34061D01*
X157900D01*
Y34364D01*
X159113D01*
Y34667D01*
X160326D01*
Y34970D01*
X161538D01*
Y35273D01*
X163054D01*
Y35577D01*
X164267D01*
Y35880D01*
X165783D01*
Y36183D01*
X166996D01*
Y36486D01*
X168208D01*
Y36789D01*
X169724D01*
Y37093D01*
X170937D01*
Y37396D01*
X172453D01*
Y37699D01*
X173666D01*
Y38002D01*
X174878D01*
Y38305D01*
X176091D01*
Y38609D01*
X177607D01*
Y38912D01*
X179123D01*
Y39215D01*
X180335D01*
Y39518D01*
X181548D01*
Y39821D01*
X182761D01*
Y40124D01*
X184277D01*
Y40428D01*
X184883D01*
Y40124D01*
D02*
G37*
G36*
X106966Y56799D02*
Y56496D01*
Y56193D01*
Y55890D01*
X107270D01*
Y55586D01*
Y55283D01*
Y54980D01*
Y54677D01*
X107573D01*
Y54374D01*
Y54071D01*
Y53767D01*
Y53464D01*
Y53161D01*
X107876D01*
Y52858D01*
Y52555D01*
Y52251D01*
Y51948D01*
X108179D01*
Y51645D01*
Y51342D01*
Y51039D01*
Y50736D01*
Y50432D01*
X108482D01*
Y50129D01*
Y49826D01*
Y49523D01*
Y49220D01*
X108785D01*
Y48917D01*
Y48613D01*
Y48310D01*
Y48007D01*
X109089D01*
Y47704D01*
Y47401D01*
Y47098D01*
Y46794D01*
X109392D01*
Y46491D01*
Y46188D01*
Y45885D01*
Y45582D01*
Y45278D01*
X109695D01*
Y44975D01*
Y44672D01*
Y44369D01*
Y44066D01*
Y43762D01*
X109998D01*
Y43459D01*
Y43156D01*
Y42853D01*
Y42550D01*
X110301D01*
Y42247D01*
Y41943D01*
Y41640D01*
Y41337D01*
X110605D01*
Y41034D01*
Y40731D01*
Y40428D01*
Y40124D01*
X110908D01*
Y39821D01*
Y39518D01*
Y39215D01*
Y38912D01*
Y38609D01*
X111211D01*
Y38305D01*
Y38002D01*
Y37699D01*
Y37396D01*
X111514D01*
Y37093D01*
Y36789D01*
Y36486D01*
Y36183D01*
Y35880D01*
X111817D01*
Y35577D01*
Y35273D01*
Y34970D01*
Y34667D01*
X112121D01*
Y34364D01*
Y34061D01*
Y33758D01*
Y33454D01*
X112424D01*
Y33151D01*
Y32848D01*
Y32545D01*
Y32242D01*
Y31939D01*
X112727D01*
Y31635D01*
Y31332D01*
Y31029D01*
Y30726D01*
X113030D01*
Y30423D01*
Y30120D01*
Y29816D01*
Y29513D01*
Y29210D01*
X113333D01*
Y28907D01*
Y28604D01*
Y28300D01*
Y27997D01*
X113636D01*
Y27694D01*
Y27391D01*
Y27088D01*
Y26785D01*
X113940D01*
Y26481D01*
Y26178D01*
Y25875D01*
Y25572D01*
X114243D01*
Y25269D01*
Y24966D01*
Y24662D01*
Y24359D01*
Y24056D01*
X114546D01*
Y23753D01*
Y23450D01*
Y23146D01*
Y22843D01*
X114849D01*
Y22540D01*
Y22237D01*
Y21934D01*
Y21630D01*
Y21327D01*
X115152D01*
Y21024D01*
Y20721D01*
Y20418D01*
Y20115D01*
X115455D01*
Y19812D01*
Y19508D01*
Y19205D01*
Y18902D01*
X115759D01*
Y18599D01*
Y18296D01*
Y17992D01*
Y17689D01*
Y17386D01*
X116062D01*
Y17083D01*
Y16780D01*
Y16477D01*
Y16173D01*
X116365D01*
Y15870D01*
Y15567D01*
Y15264D01*
Y14961D01*
Y14657D01*
X116668D01*
Y14354D01*
Y14051D01*
Y13748D01*
Y13445D01*
X116971D01*
Y13142D01*
Y12838D01*
Y12535D01*
Y12232D01*
X117275D01*
Y11929D01*
Y11626D01*
Y11322D01*
X116971D01*
Y11626D01*
X116062D01*
Y11929D01*
X115455D01*
Y12232D01*
X114849D01*
Y12535D01*
X114243D01*
Y12838D01*
X113636D01*
Y13142D01*
X112727D01*
Y13445D01*
X112424D01*
Y13748D01*
X111817D01*
Y14051D01*
X111211D01*
Y14354D01*
X110605D01*
Y14657D01*
X109998D01*
Y14961D01*
X109695D01*
Y15264D01*
X109089D01*
Y15567D01*
X108482D01*
Y15870D01*
X108179D01*
Y16173D01*
X107573D01*
Y16477D01*
X107270D01*
Y16780D01*
X106663D01*
Y17083D01*
X106360D01*
Y17386D01*
X105754D01*
Y17689D01*
X105451D01*
Y17992D01*
X105147D01*
Y18296D01*
X104541D01*
Y18599D01*
X104238D01*
Y18902D01*
X103935D01*
Y19205D01*
X103328D01*
Y19508D01*
X103025D01*
Y19812D01*
X102722D01*
Y20115D01*
X102419D01*
Y20418D01*
X102116D01*
Y20721D01*
X101509D01*
Y21024D01*
X101206D01*
Y21327D01*
X100903D01*
Y21630D01*
X100600D01*
Y21934D01*
X100296D01*
Y22237D01*
X99993D01*
Y22540D01*
X99690D01*
Y22843D01*
X99387D01*
Y23146D01*
X99084D01*
Y23450D01*
X98781D01*
Y23753D01*
X98477D01*
Y24056D01*
X98174D01*
Y24359D01*
X97871D01*
Y24662D01*
X97568D01*
Y24966D01*
X97265D01*
Y25269D01*
X96962D01*
Y25572D01*
Y25875D01*
X96658D01*
Y26178D01*
X96355D01*
Y26481D01*
X96052D01*
Y26785D01*
X95749D01*
Y27088D01*
X95446D01*
Y27391D01*
Y27694D01*
X95143D01*
Y27997D01*
X94839D01*
Y28300D01*
X94536D01*
Y28604D01*
X94233D01*
Y28907D01*
Y29210D01*
X93930D01*
Y29513D01*
X93627D01*
Y29816D01*
Y30120D01*
X93323D01*
Y30423D01*
X93020D01*
Y30726D01*
Y31029D01*
X92717D01*
Y31332D01*
X92414D01*
Y31635D01*
Y31939D01*
X92111D01*
Y32242D01*
X91808D01*
Y32545D01*
Y32848D01*
Y33151D01*
Y33454D01*
X92111D01*
Y33758D01*
Y34061D01*
X92414D01*
Y34364D01*
X92717D01*
Y34667D01*
Y34970D01*
X93020D01*
Y35273D01*
X93323D01*
Y35577D01*
Y35880D01*
X93627D01*
Y36183D01*
Y36486D01*
X93930D01*
Y36789D01*
X94233D01*
Y37093D01*
Y37396D01*
X94536D01*
Y37699D01*
X94839D01*
Y38002D01*
Y38305D01*
X95143D01*
Y38609D01*
X95446D01*
Y38912D01*
Y39215D01*
X95749D01*
Y39518D01*
Y39821D01*
X96052D01*
Y40124D01*
X96355D01*
Y40428D01*
Y40731D01*
X96658D01*
Y41034D01*
X96962D01*
Y41337D01*
Y41640D01*
X97265D01*
Y41943D01*
Y42247D01*
X97568D01*
Y42550D01*
X97871D01*
Y42853D01*
Y43156D01*
X98174D01*
Y43459D01*
X98477D01*
Y43762D01*
Y44066D01*
X98781D01*
Y44369D01*
Y44672D01*
X99084D01*
Y44975D01*
X99387D01*
Y45278D01*
Y45582D01*
X99690D01*
Y45885D01*
Y46188D01*
X99993D01*
Y46491D01*
X100296D01*
Y46794D01*
Y47098D01*
X100600D01*
Y47401D01*
X100903D01*
Y47704D01*
Y48007D01*
X101206D01*
Y48310D01*
X101509D01*
Y48613D01*
Y48917D01*
X101812D01*
Y49220D01*
Y49523D01*
X102116D01*
Y49826D01*
X102419D01*
Y50129D01*
Y50432D01*
X102722D01*
Y50736D01*
X103025D01*
Y51039D01*
Y51342D01*
X103328D01*
Y51645D01*
Y51948D01*
X103631D01*
Y52251D01*
X103935D01*
Y52555D01*
Y52858D01*
X104238D01*
Y53161D01*
X104541D01*
Y53464D01*
Y53767D01*
X104844D01*
Y54071D01*
Y54374D01*
X105147D01*
Y54677D01*
X105451D01*
Y54980D01*
Y55283D01*
X105754D01*
Y55586D01*
X106057D01*
Y55890D01*
Y56193D01*
X106360D01*
Y56496D01*
Y56799D01*
X106663D01*
Y57102D01*
X106966D01*
Y56799D01*
D02*
G37*
G36*
X117881Y36486D02*
X118184D01*
Y36183D01*
X118790D01*
Y35880D01*
X119094D01*
Y35577D01*
X119700D01*
Y35273D01*
X120003D01*
Y34970D01*
X120610D01*
Y34667D01*
X121216D01*
Y34364D01*
X121519D01*
Y34061D01*
X122125D01*
Y33758D01*
X122429D01*
Y33454D01*
X123035D01*
Y33151D01*
X123641D01*
Y32848D01*
X123944D01*
Y32545D01*
X124551D01*
Y32242D01*
X124854D01*
Y31939D01*
X125460D01*
Y31635D01*
X125764D01*
Y31332D01*
X126370D01*
Y31029D01*
X126976D01*
Y30726D01*
X127279D01*
Y30423D01*
X127886D01*
Y30120D01*
X128189D01*
Y29816D01*
X128795D01*
Y29513D01*
X129402D01*
Y29210D01*
X129705D01*
Y28907D01*
X130311D01*
Y28604D01*
X130614D01*
Y28300D01*
X131221D01*
Y27997D01*
X131827D01*
Y27694D01*
X132130D01*
Y27391D01*
X132737D01*
Y27088D01*
X133040D01*
Y26785D01*
X133646D01*
Y26481D01*
X134252D01*
Y26178D01*
X134556D01*
Y25875D01*
X135162D01*
Y25572D01*
X135465D01*
Y25269D01*
X136072D01*
Y24966D01*
X136678D01*
Y24662D01*
X136981D01*
Y24359D01*
X137587D01*
Y24056D01*
X137891D01*
Y23753D01*
X138497D01*
Y23450D01*
X138800D01*
Y23146D01*
X139406D01*
Y22843D01*
X140013D01*
Y22540D01*
X140316D01*
Y22237D01*
X140922D01*
Y21934D01*
X141226D01*
Y21630D01*
X141832D01*
Y21327D01*
X142438D01*
Y21024D01*
X142741D01*
Y20721D01*
X143348D01*
Y20418D01*
X143651D01*
Y20115D01*
X144257D01*
Y19812D01*
X144864D01*
Y19508D01*
X145167D01*
Y19205D01*
X145773D01*
Y18902D01*
X146379D01*
Y18599D01*
X146683D01*
Y18296D01*
X147289D01*
Y17992D01*
X147592D01*
Y17689D01*
X148199D01*
Y17386D01*
X148502D01*
Y17083D01*
X149108D01*
Y16780D01*
X149714D01*
Y16477D01*
X150018D01*
Y16173D01*
X150624D01*
Y15870D01*
X150927D01*
Y15567D01*
X151534D01*
Y15264D01*
X151837D01*
Y14961D01*
X152443D01*
Y14657D01*
X153049D01*
Y14354D01*
X153353D01*
Y14051D01*
X153959D01*
Y13748D01*
X154262D01*
Y13445D01*
X154868D01*
Y13142D01*
X155475D01*
Y12838D01*
X155778D01*
Y12535D01*
X156384D01*
Y12232D01*
X156991D01*
Y11929D01*
X156384D01*
Y11626D01*
X155778D01*
Y11322D01*
X154868D01*
Y11019D01*
X154262D01*
Y10716D01*
X153353D01*
Y10413D01*
X152140D01*
Y10110D01*
X151230D01*
Y9807D01*
X150321D01*
Y9503D01*
X149108D01*
Y9200D01*
X147895D01*
Y8897D01*
X146683D01*
Y8594D01*
X144864D01*
Y8291D01*
X142438D01*
Y7988D01*
X139406D01*
Y7684D01*
X133040D01*
Y7988D01*
X130008D01*
Y8291D01*
X127886D01*
Y8594D01*
X126067D01*
Y8897D01*
X124854D01*
Y9200D01*
X123944D01*
Y9503D01*
X123641D01*
Y9807D01*
Y10110D01*
Y10413D01*
Y10716D01*
Y11019D01*
X123338D01*
Y11322D01*
Y11626D01*
Y11929D01*
Y12232D01*
X123035D01*
Y12535D01*
Y12838D01*
Y13142D01*
Y13445D01*
Y13748D01*
X122732D01*
Y14051D01*
Y14354D01*
Y14657D01*
Y14961D01*
X122429D01*
Y15264D01*
Y15567D01*
Y15870D01*
Y16173D01*
X122125D01*
Y16477D01*
Y16780D01*
Y17083D01*
Y17386D01*
Y17689D01*
X121822D01*
Y17992D01*
Y18296D01*
Y18599D01*
Y18902D01*
X121519D01*
Y19205D01*
Y19508D01*
Y19812D01*
Y20115D01*
X121216D01*
Y20418D01*
Y20721D01*
Y21024D01*
Y21327D01*
X120913D01*
Y21630D01*
Y21934D01*
Y22237D01*
Y22540D01*
Y22843D01*
X120610D01*
Y23146D01*
Y23450D01*
Y23753D01*
Y24056D01*
X120306D01*
Y24359D01*
Y24662D01*
Y24966D01*
Y25269D01*
Y25572D01*
X120003D01*
Y25875D01*
Y26178D01*
Y26481D01*
Y26785D01*
X119700D01*
Y27088D01*
Y27391D01*
Y27694D01*
Y27997D01*
X119397D01*
Y28300D01*
Y28604D01*
Y28907D01*
Y29210D01*
Y29513D01*
X119094D01*
Y29816D01*
Y30120D01*
Y30423D01*
Y30726D01*
X118790D01*
Y31029D01*
Y31332D01*
Y31635D01*
Y31939D01*
Y32242D01*
X118487D01*
Y32545D01*
Y32848D01*
Y33151D01*
X118184D01*
Y33454D01*
Y33758D01*
Y34061D01*
Y34364D01*
Y34667D01*
X117881D01*
Y34970D01*
Y35273D01*
Y35577D01*
Y35880D01*
X117578D01*
Y36183D01*
Y36486D01*
Y36789D01*
X117881D01*
Y36486D01*
D02*
G37*
D63*
X200320Y100230D02*
D03*
X68920D02*
D03*
D64*
X169620Y127330D02*
D03*
X144620D02*
D03*
X124620D02*
D03*
D65*
X99620D02*
D03*
D66*
X228600Y163830D02*
D03*
Y240030D02*
D03*
Y392430D02*
D03*
Y316230D02*
D03*
D67*
Y201930D02*
D03*
Y278130D02*
D03*
Y430530D02*
D03*
Y354330D02*
D03*
%TF.MD5,f4a104ad7a1c981ed39e00af16382637*%
M02*
