G04*
G04 #@! TF.GenerationSoftware,Altium Limited,Altium NEXUS,2.1.5 (53)*
G04*
G04 Layer_Physical_Order=2*
G04 Layer_Color=16711680*
%FSLAX44Y44*%
%MOMM*%
G71*
G01*
G75*
G04:AMPARAMS|DCode=17|XSize=1.1mm|YSize=2.8mm|CornerRadius=0.275mm|HoleSize=0mm|Usage=FLASHONLY|Rotation=180.000|XOffset=0mm|YOffset=0mm|HoleType=Round|Shape=RoundedRectangle|*
%AMROUNDEDRECTD17*
21,1,1.1000,2.2500,0,0,180.0*
21,1,0.5500,2.8000,0,0,180.0*
1,1,0.5500,-0.2750,1.1250*
1,1,0.5500,0.2750,1.1250*
1,1,0.5500,0.2750,-1.1250*
1,1,0.5500,-0.2750,-1.1250*
%
%ADD17ROUNDEDRECTD17*%
%ADD18C,1.5000*%
%ADD19C,0.6000*%
G36*
X136599Y242293D02*
X135329Y241908D01*
X135064Y242304D01*
X133314Y243473D01*
X131250Y243884D01*
X129770D01*
Y227240D01*
X128500D01*
D01*
X129770D01*
Y210596D01*
X131250D01*
X133314Y211007D01*
X135064Y212176D01*
X135329Y212572D01*
X136599Y212187D01*
Y100076D01*
X136873Y98695D01*
X137656Y97524D01*
X138827Y96741D01*
X140208Y96467D01*
X346599D01*
Y3685D01*
X3817D01*
Y211738D01*
X5087Y212075D01*
X6686Y211007D01*
X8750Y210596D01*
X10230D01*
Y227240D01*
Y243884D01*
X8750D01*
X6686Y243473D01*
X5087Y242405D01*
X3817Y242742D01*
Y252169D01*
X136599D01*
Y242293D01*
D02*
G37*
%LPC*%
G36*
X48770Y237199D02*
Y228510D01*
X57459D01*
X57282Y229861D01*
X56270Y232303D01*
X54661Y234401D01*
X52563Y236010D01*
X50121Y237022D01*
X48770Y237199D01*
D02*
G37*
G36*
X14250Y243884D02*
X12770D01*
Y228510D01*
X19644D01*
Y238490D01*
X19233Y240554D01*
X18064Y242304D01*
X16314Y243473D01*
X14250Y243884D01*
D02*
G37*
G36*
X93770Y237199D02*
Y228510D01*
X102459D01*
X102282Y229861D01*
X101270Y232303D01*
X99661Y234401D01*
X97563Y236010D01*
X95121Y237022D01*
X93770Y237199D01*
D02*
G37*
G36*
X127230Y243884D02*
X125750D01*
X123686Y243473D01*
X121936Y242304D01*
X120767Y240554D01*
X120356Y238490D01*
Y228510D01*
X127230D01*
Y243884D01*
D02*
G37*
G36*
X46230Y237199D02*
X44879Y237022D01*
X42437Y236010D01*
X40339Y234401D01*
X38730Y232303D01*
X37718Y229861D01*
X37541Y228510D01*
X46230D01*
Y237199D01*
D02*
G37*
G36*
X91230D02*
X89879Y237022D01*
X87437Y236010D01*
X85339Y234401D01*
X83730Y232303D01*
X82718Y229861D01*
X82541Y228510D01*
X91230D01*
Y237199D01*
D02*
G37*
G36*
X102459Y225970D02*
X93770D01*
Y217281D01*
X95121Y217458D01*
X97563Y218470D01*
X99661Y220079D01*
X101270Y222177D01*
X102282Y224619D01*
X102459Y225970D01*
D02*
G37*
G36*
X57459D02*
X48770D01*
Y217281D01*
X50121Y217458D01*
X52563Y218470D01*
X54661Y220079D01*
X56270Y222177D01*
X57282Y224619D01*
X57459Y225970D01*
D02*
G37*
G36*
X91230D02*
X82541D01*
X82718Y224619D01*
X83730Y222177D01*
X85339Y220079D01*
X87437Y218470D01*
X89879Y217458D01*
X91230Y217281D01*
Y225970D01*
D02*
G37*
G36*
X46230D02*
X37541D01*
X37718Y224619D01*
X38730Y222177D01*
X40339Y220079D01*
X42437Y218470D01*
X44879Y217458D01*
X46230Y217281D01*
Y225970D01*
D02*
G37*
G36*
X127230D02*
X120356D01*
Y215990D01*
X120767Y213926D01*
X121936Y212176D01*
X123686Y211007D01*
X125750Y210596D01*
X127230D01*
Y225970D01*
D02*
G37*
G36*
X19644D02*
X12770D01*
Y210596D01*
X14250D01*
X16314Y211007D01*
X18064Y212176D01*
X19233Y213926D01*
X19644Y215990D01*
Y225970D01*
D02*
G37*
%LPD*%
D17*
X128500Y227240D02*
D03*
X11500D02*
D03*
D18*
X92500D02*
D03*
X47500D02*
D03*
D19*
X330000Y80000D02*
D03*
X320000Y60000D02*
D03*
X330000Y40000D02*
D03*
X320000Y20000D02*
D03*
X310000Y80000D02*
D03*
X300000Y60000D02*
D03*
X310000Y40000D02*
D03*
X300000Y20000D02*
D03*
X290000Y40000D02*
D03*
X280000Y20000D02*
D03*
X260000Y60000D02*
D03*
X270000Y40000D02*
D03*
X260000Y20000D02*
D03*
X240000Y60000D02*
D03*
Y20000D02*
D03*
X220000D02*
D03*
X200000Y60000D02*
D03*
Y20000D02*
D03*
X190000Y80000D02*
D03*
X180000Y60000D02*
D03*
Y20000D02*
D03*
X170000Y80000D02*
D03*
X160000Y60000D02*
D03*
Y20000D02*
D03*
X150000Y80000D02*
D03*
X140000Y60000D02*
D03*
Y20000D02*
D03*
X130000Y200000D02*
D03*
X120000Y180000D02*
D03*
X130000Y160000D02*
D03*
X120000Y140000D02*
D03*
X130000Y120000D02*
D03*
X120000Y100000D02*
D03*
X130000Y80000D02*
D03*
X120000Y60000D02*
D03*
Y20000D02*
D03*
X100000Y180000D02*
D03*
X110000Y160000D02*
D03*
X100000Y140000D02*
D03*
X110000Y120000D02*
D03*
X100000Y100000D02*
D03*
X110000Y80000D02*
D03*
X100000Y60000D02*
D03*
Y20000D02*
D03*
X80000Y180000D02*
D03*
X90000Y160000D02*
D03*
X80000Y140000D02*
D03*
X90000Y120000D02*
D03*
X80000Y100000D02*
D03*
X90000Y80000D02*
D03*
X80000Y60000D02*
D03*
Y20000D02*
D03*
X60000Y180000D02*
D03*
X70000Y160000D02*
D03*
X60000Y140000D02*
D03*
X70000Y120000D02*
D03*
X60000Y100000D02*
D03*
X70000Y80000D02*
D03*
X60000Y60000D02*
D03*
Y20000D02*
D03*
X50000Y160000D02*
D03*
Y120000D02*
D03*
Y80000D02*
D03*
X40000Y20000D02*
D03*
X20000Y180000D02*
D03*
Y140000D02*
D03*
Y100000D02*
D03*
Y60000D02*
D03*
X30000Y40000D02*
D03*
X20000Y20000D02*
D03*
M02*
