%TF.GenerationSoftware,Altium Limited,Altium NEXUS,2.1.5 (53)*%
G04 Layer_Color=0*
%FSLAX44Y44*%
%MOMM*%
%TF.FileFunction,Profile,NP*%
%TF.Part,Single*%
G01*
G75*
%TA.AperFunction,Profile*%
%ADD63C,0.0254*%
G36*
X165000Y443600D02*
X1400000D01*
Y213600D01*
X165000D01*
Y443600D01*
D02*
G37*
G36*
X824230Y381000D02*
D01*
D02*
G37*
D63*
X0Y1098550D02*
X0Y288550D01*
X533Y276348D01*
X2127Y264239D01*
X4770Y252315D01*
X8443Y240667D01*
X13117Y229384D01*
X18757Y218550D01*
X25319Y208249D01*
X32754Y198560D01*
X41005Y189555D01*
X50010Y181304D01*
X59699Y173869D01*
X70000Y167306D01*
X80834Y161667D01*
X92117Y156993D01*
X103765Y153320D01*
X115689Y150677D01*
X127798Y149083D01*
X140000Y148550D01*
X1420000Y148550D01*
X1432202Y149083D01*
X1444311Y150677D01*
X1456235Y153321D01*
X1467883Y156993D01*
X1479167Y161667D01*
X1490000Y167307D01*
X1500301Y173869D01*
X1509990Y181304D01*
X1518995Y189555D01*
X1527246Y198560D01*
X1534681Y208249D01*
X1541244Y218550D01*
X1546883Y229384D01*
X1551557Y240667D01*
X1555230Y252316D01*
X1557873Y264240D01*
X1559467Y276348D01*
X1560000Y288550D01*
Y1098550D01*
X1559467Y1110752D01*
X1557873Y1122861D01*
X1555230Y1134785D01*
X1551557Y1146433D01*
X1546883Y1157717D01*
X1541244Y1168550D01*
X1534681Y1178851D01*
X1527246Y1188541D01*
X1518995Y1197545D01*
X1509990Y1205797D01*
X1500301Y1213231D01*
X1490000Y1219794D01*
X1479167Y1225433D01*
X1467883Y1230107D01*
X1456235Y1233780D01*
X1444311Y1236423D01*
X1432202Y1238018D01*
X1420000Y1238550D01*
X140000D01*
X127798Y1238017D01*
X115689Y1236423D01*
X103765Y1233780D01*
X92117Y1230107D01*
X80833Y1225433D01*
X70000Y1219793D01*
X59699Y1213231D01*
X50010Y1205796D01*
X41005Y1197545D01*
X32754Y1188540D01*
X25319Y1178851D01*
X18756Y1168550D01*
X13117Y1157717D01*
X8443Y1146433D01*
X4770Y1134785D01*
X2127Y1122861D01*
X533Y1110752D01*
X0Y1098550D01*
%TF.MD5,247687215fa6007aea04d973c4ad8ed4*%
M02*
