%TF.GenerationSoftware,Altium Limited,Altium NEXUS,2.1.5 (53)*%
G04 Layer_Physical_Order=1*
G04 Layer_Color=255*
%FSLAX44Y44*%
%MOMM*%
%TF.FileFunction,Copper,L1,Top,Signal*%
%TF.Part,Single*%
G01*
G75*
%TA.AperFunction,SMDPad,CuDef*%
%ADD10R,1.4000X1.2000*%
%ADD11R,2.9600X1.2700*%
%ADD12R,1.0000X0.9000*%
%ADD13R,0.9000X1.0000*%
G04:AMPARAMS|DCode=14|XSize=0.65mm|YSize=1.1mm|CornerRadius=0mm|HoleSize=0mm|Usage=FLASHONLY|Rotation=180.000|XOffset=0mm|YOffset=0mm|HoleType=Round|Shape=Octagon|*
%AMOCTAGOND14*
4,1,8,0.1625,-0.5500,-0.1625,-0.5500,-0.3250,-0.3875,-0.3250,0.3875,-0.1625,0.5500,0.1625,0.5500,0.3250,0.3875,0.3250,-0.3875,0.1625,-0.5500,0.0*
%
%ADD14OCTAGOND14*%

%ADD15R,0.6500X1.1000*%
%ADD16R,0.6100X1.6100*%
G04:AMPARAMS|DCode=17|XSize=3.8mm|YSize=1.3mm|CornerRadius=0mm|HoleSize=0mm|Usage=FLASHONLY|Rotation=90.000|XOffset=0mm|YOffset=0mm|HoleType=Round|Shape=Octagon|*
%AMOCTAGOND17*
4,1,8,0.3250,1.9000,-0.3250,1.9000,-0.6500,1.5750,-0.6500,-1.5750,-0.3250,-1.9000,0.3250,-1.9000,0.6500,-1.5750,0.6500,1.5750,0.3250,1.9000,0.0*
%
%ADD17OCTAGOND17*%

%ADD18R,1.3000X3.8000*%
G04:AMPARAMS|DCode=19|XSize=1.64mm|YSize=0.41mm|CornerRadius=0.0513mm|HoleSize=0mm|Usage=FLASHONLY|Rotation=90.000|XOffset=0mm|YOffset=0mm|HoleType=Round|Shape=RoundedRectangle|*
%AMROUNDEDRECTD19*
21,1,1.6400,0.3075,0,0,90.0*
21,1,1.5375,0.4100,0,0,90.0*
1,1,0.1025,0.1538,0.7688*
1,1,0.1025,0.1538,-0.7688*
1,1,0.1025,-0.1538,-0.7688*
1,1,0.1025,-0.1538,0.7688*
%
%ADD19ROUNDEDRECTD19*%
%ADD20R,1.0000X1.0000*%
%ADD21R,1.0000X1.1000*%
%TA.AperFunction,Conductor*%
%ADD22C,0.2540*%
%ADD23C,0.3000*%
%ADD24C,1.4000*%
%ADD25C,2.5000*%
%ADD26C,0.5000*%
%TA.AperFunction,ComponentPad*%
%ADD27C,1.5240*%
%ADD28C,3.0000*%
%ADD29C,1.7000*%
%ADD30R,1.7000X1.7000*%
%ADD31O,2.6160X1.3080*%
%ADD32O,1.5080X3.0160*%
%ADD33C,1.6000*%
%ADD34C,1.8000*%
%ADD35R,1.8000X1.8000*%
%TA.AperFunction,ViaPad*%
%ADD36C,0.6000*%
G36*
X1431887Y1234418D02*
X1443683Y1232865D01*
X1455300Y1230290D01*
X1466647Y1226712D01*
X1477640Y1222159D01*
X1488194Y1216665D01*
X1498228Y1210272D01*
X1507668Y1203029D01*
X1516440Y1194991D01*
X1524479Y1186218D01*
X1531722Y1176779D01*
X1538115Y1166744D01*
X1543609Y1156190D01*
X1548162Y1145197D01*
X1551740Y1133850D01*
X1554315Y1122234D01*
X1555868Y1110437D01*
X1556391Y1098471D01*
Y288629D01*
X1555868Y276663D01*
X1554315Y264867D01*
X1551740Y253251D01*
X1548162Y241903D01*
X1543609Y230911D01*
X1538115Y220357D01*
X1531722Y210322D01*
X1524479Y200882D01*
X1516440Y192110D01*
X1507668Y184072D01*
X1498229Y176828D01*
X1488194Y170435D01*
X1477640Y164941D01*
X1466647Y160388D01*
X1455300Y156810D01*
X1443683Y154235D01*
X1431887Y152682D01*
X1419921Y152160D01*
X140079Y152159D01*
X128113Y152682D01*
X116317Y154235D01*
X104700Y156810D01*
X93353Y160388D01*
X82360Y164941D01*
X71806Y170435D01*
X61772Y176828D01*
X52332Y184071D01*
X43560Y192110D01*
X35521Y200882D01*
X28278Y210321D01*
X21885Y220357D01*
X16391Y230911D01*
X11838Y241903D01*
X8260Y253250D01*
X5685Y264867D01*
X4132Y276663D01*
X3609Y288629D01*
X3609Y1098471D01*
X4132Y1110437D01*
X5685Y1122233D01*
X8260Y1133850D01*
X11838Y1145197D01*
X16391Y1156190D01*
X21885Y1166744D01*
X28278Y1176778D01*
X35521Y1186218D01*
X43559Y1194990D01*
X52332Y1203029D01*
X61771Y1210272D01*
X71806Y1216665D01*
X82360Y1222159D01*
X93353Y1226712D01*
X104700Y1230290D01*
X116317Y1232865D01*
X128113Y1234418D01*
X140079Y1234941D01*
X1419921D01*
X1431887Y1234418D01*
D02*
G37*
%LPC*%
G36*
X718260Y1202228D02*
Y1192530D01*
X727958D01*
X727746Y1194142D01*
X726633Y1196828D01*
X724864Y1199134D01*
X722558Y1200903D01*
X719872Y1202016D01*
X718260Y1202228D01*
D02*
G37*
G36*
X715720D02*
X714108Y1202016D01*
X711422Y1200903D01*
X709116Y1199134D01*
X707347Y1196828D01*
X706234Y1194142D01*
X706022Y1192530D01*
X715720D01*
Y1202228D01*
D02*
G37*
G36*
X844470Y1198520D02*
X838200D01*
Y1191750D01*
X844470D01*
Y1198520D01*
D02*
G37*
G36*
X835660D02*
X829390D01*
Y1191750D01*
X835660D01*
Y1198520D01*
D02*
G37*
G36*
X727958Y1189990D02*
X718260D01*
Y1180292D01*
X719872Y1180504D01*
X722558Y1181617D01*
X724864Y1183386D01*
X726633Y1185692D01*
X727746Y1188378D01*
X727958Y1189990D01*
D02*
G37*
G36*
X715720D02*
X706022D01*
X706234Y1188378D01*
X707347Y1185692D01*
X709116Y1183386D01*
X711422Y1181617D01*
X714108Y1180504D01*
X715720Y1180292D01*
Y1189990D01*
D02*
G37*
G36*
X956310Y1220529D02*
X671120D01*
X669154Y1220138D01*
X667486Y1219024D01*
X653368Y1204905D01*
X652773Y1205222D01*
X649938Y1206082D01*
X646990Y1206373D01*
X644042Y1206082D01*
X641207Y1205222D01*
X638594Y1203826D01*
X636735Y1202300D01*
X635950D01*
Y1201515D01*
X635343Y1200775D01*
X554534Y1119966D01*
X552672Y1117698D01*
X550404Y1115836D01*
X511477Y1076910D01*
X507290D01*
X502770Y1072390D01*
Y1070653D01*
X390253D01*
X387745Y1071993D01*
X384438Y1072996D01*
X381000Y1073335D01*
X377562Y1072996D01*
X374255Y1071993D01*
X371208Y1070365D01*
X368537Y1068173D01*
X366345Y1065502D01*
X364717Y1062455D01*
X363920Y1059829D01*
X319366D01*
X283130Y1096065D01*
Y1104320D01*
X268050D01*
Y1090240D01*
X277305D01*
X314747Y1052797D01*
X316084Y1051904D01*
X317660Y1051591D01*
X363920D01*
X364717Y1048965D01*
X366345Y1045918D01*
X368537Y1043247D01*
X371208Y1041056D01*
X374255Y1039427D01*
X377562Y1038424D01*
X381000Y1038085D01*
X384438Y1038424D01*
X387745Y1039427D01*
X389617Y1040427D01*
X502770D01*
Y1038350D01*
X507290Y1033830D01*
X516330D01*
X520850Y1038350D01*
Y1043333D01*
X522496Y1044684D01*
X524376Y1046974D01*
X524478Y1047166D01*
X571776Y1094464D01*
X573638Y1096732D01*
X575906Y1098594D01*
X582473Y1105161D01*
X656540D01*
Y1101240D01*
X668120D01*
Y1117320D01*
X656540D01*
Y1113399D01*
X592371D01*
X591885Y1114573D01*
X657533Y1180220D01*
X658030D01*
Y1180795D01*
X659556Y1182654D01*
X660952Y1185267D01*
X661812Y1188102D01*
X662103Y1191050D01*
Y1191260D01*
X661812Y1194208D01*
X660952Y1197043D01*
X660635Y1197638D01*
X673249Y1210251D01*
X954182D01*
X987706Y1176727D01*
X986867Y1175770D01*
X984990Y1177210D01*
X982182Y1178373D01*
X979170Y1178770D01*
X976158Y1178373D01*
X973350Y1177210D01*
X970940Y1175360D01*
X969090Y1172950D01*
X967927Y1170143D01*
X967531Y1167130D01*
X967927Y1164118D01*
X969090Y1161310D01*
X970940Y1158900D01*
X973350Y1157050D01*
X976158Y1155887D01*
X979170Y1155490D01*
X982182Y1155887D01*
X984990Y1157050D01*
X987400Y1158900D01*
X989250Y1161310D01*
X990413Y1164118D01*
X990809Y1167130D01*
X990413Y1170143D01*
X989250Y1172950D01*
X987810Y1174827D01*
X988767Y1175666D01*
X993609Y1170824D01*
X993327Y1170143D01*
X992930Y1167130D01*
X993327Y1164118D01*
X994490Y1161310D01*
X996340Y1158900D01*
X998750Y1157050D01*
X1001557Y1155887D01*
X1004570Y1155490D01*
X1007582Y1155887D01*
X1010390Y1157050D01*
X1012800Y1158900D01*
X1014650Y1161310D01*
X1015813Y1164118D01*
X1016209Y1167130D01*
X1015813Y1170143D01*
X1014650Y1172950D01*
X1012800Y1175360D01*
X1010390Y1177210D01*
X1007582Y1178373D01*
X1004570Y1178770D01*
X1001557Y1178373D01*
X1000876Y1178091D01*
X959944Y1219024D01*
X958277Y1220138D01*
X956310Y1220529D01*
D02*
G37*
G36*
X382270Y1182674D02*
Y1173480D01*
X391464D01*
X391269Y1174961D01*
X390207Y1177525D01*
X388517Y1179727D01*
X386315Y1181417D01*
X383751Y1182479D01*
X382270Y1182674D01*
D02*
G37*
G36*
X379730D02*
X378248Y1182479D01*
X375685Y1181417D01*
X373483Y1179727D01*
X371793Y1177525D01*
X370731Y1174961D01*
X370536Y1173480D01*
X379730D01*
Y1182674D01*
D02*
G37*
G36*
X955040Y1178602D02*
Y1168400D01*
X965242D01*
X965013Y1170143D01*
X963850Y1172950D01*
X962000Y1175360D01*
X959590Y1177210D01*
X956783Y1178373D01*
X955040Y1178602D01*
D02*
G37*
G36*
X952500D02*
X950758Y1178373D01*
X947950Y1177210D01*
X945540Y1175360D01*
X943690Y1172950D01*
X942527Y1170143D01*
X942298Y1168400D01*
X952500D01*
Y1178602D01*
D02*
G37*
G36*
X441770Y1180250D02*
Y1163980D01*
X450667D01*
Y1170250D01*
X450321Y1172881D01*
X449305Y1175333D01*
X447689Y1177439D01*
X445583Y1179055D01*
X443131Y1180070D01*
X441770Y1180250D01*
D02*
G37*
G36*
X322770D02*
Y1163980D01*
X331667D01*
Y1170250D01*
X331320Y1172881D01*
X330305Y1175333D01*
X328689Y1177439D01*
X326584Y1179055D01*
X324131Y1180070D01*
X322770Y1180250D01*
D02*
G37*
G36*
X320230D02*
X318869Y1180070D01*
X316416Y1179055D01*
X314311Y1177439D01*
X312695Y1175333D01*
X311679Y1172881D01*
X311333Y1170250D01*
Y1163980D01*
X320230D01*
Y1180250D01*
D02*
G37*
G36*
X439230D02*
X437869Y1180070D01*
X435416Y1179055D01*
X433311Y1177439D01*
X431695Y1175333D01*
X430680Y1172881D01*
X430333Y1170250D01*
Y1163980D01*
X439230D01*
Y1180250D01*
D02*
G37*
G36*
X391464Y1170940D02*
X382270D01*
Y1161746D01*
X383751Y1161941D01*
X386315Y1163003D01*
X388517Y1164693D01*
X390207Y1166895D01*
X391269Y1169458D01*
X391464Y1170940D01*
D02*
G37*
G36*
X379730D02*
X370536D01*
X370731Y1169458D01*
X371793Y1166895D01*
X373483Y1164693D01*
X375685Y1163003D01*
X378248Y1161941D01*
X379730Y1161746D01*
Y1170940D01*
D02*
G37*
G36*
X283130Y1162960D02*
X276860D01*
Y1156190D01*
X283130D01*
Y1162960D01*
D02*
G37*
G36*
X274320D02*
X268050D01*
Y1156190D01*
X274320D01*
Y1162960D01*
D02*
G37*
G36*
X965242Y1165860D02*
X955040D01*
Y1155658D01*
X956783Y1155887D01*
X959590Y1157050D01*
X962000Y1158900D01*
X963850Y1161310D01*
X965013Y1164118D01*
X965242Y1165860D01*
D02*
G37*
G36*
X952500D02*
X942298D01*
X942527Y1164118D01*
X943690Y1161310D01*
X945540Y1158900D01*
X947950Y1157050D01*
X950758Y1155887D01*
X952500Y1155658D01*
Y1165860D01*
D02*
G37*
G36*
X1207770Y1178770D02*
X1204758Y1178373D01*
X1201950Y1177210D01*
X1199540Y1175360D01*
X1197690Y1172950D01*
X1196527Y1170143D01*
X1196130Y1167130D01*
X1196527Y1164118D01*
X1197690Y1161310D01*
X1199540Y1158900D01*
X1201950Y1157050D01*
X1204758Y1155887D01*
X1207770Y1155490D01*
X1210782Y1155887D01*
X1213590Y1157050D01*
X1216000Y1158900D01*
X1217850Y1161310D01*
X1219013Y1164118D01*
X1219410Y1167130D01*
X1219013Y1170143D01*
X1217850Y1172950D01*
X1216000Y1175360D01*
X1213590Y1177210D01*
X1210782Y1178373D01*
X1207770Y1178770D01*
D02*
G37*
G36*
X1182370D02*
X1179358Y1178373D01*
X1176550Y1177210D01*
X1174140Y1175360D01*
X1172290Y1172950D01*
X1171127Y1170143D01*
X1170730Y1167130D01*
X1171127Y1164118D01*
X1172290Y1161310D01*
X1174140Y1158900D01*
X1176550Y1157050D01*
X1179358Y1155887D01*
X1182370Y1155490D01*
X1185383Y1155887D01*
X1188190Y1157050D01*
X1190600Y1158900D01*
X1192450Y1161310D01*
X1193613Y1164118D01*
X1194010Y1167130D01*
X1193613Y1170143D01*
X1192450Y1172950D01*
X1190600Y1175360D01*
X1188190Y1177210D01*
X1185383Y1178373D01*
X1182370Y1178770D01*
D02*
G37*
G36*
X1156970D02*
X1153958Y1178373D01*
X1151150Y1177210D01*
X1148740Y1175360D01*
X1146890Y1172950D01*
X1145727Y1170143D01*
X1145331Y1167130D01*
X1145727Y1164118D01*
X1146890Y1161310D01*
X1148740Y1158900D01*
X1151150Y1157050D01*
X1153958Y1155887D01*
X1156970Y1155490D01*
X1159983Y1155887D01*
X1162790Y1157050D01*
X1165200Y1158900D01*
X1167050Y1161310D01*
X1168213Y1164118D01*
X1168610Y1167130D01*
X1168213Y1170143D01*
X1167050Y1172950D01*
X1165200Y1175360D01*
X1162790Y1177210D01*
X1159983Y1178373D01*
X1156970Y1178770D01*
D02*
G37*
G36*
X1131570D02*
X1128558Y1178373D01*
X1125750Y1177210D01*
X1123340Y1175360D01*
X1121490Y1172950D01*
X1120327Y1170143D01*
X1119930Y1167130D01*
X1120327Y1164118D01*
X1121490Y1161310D01*
X1123340Y1158900D01*
X1125750Y1157050D01*
X1128558Y1155887D01*
X1131570Y1155490D01*
X1134583Y1155887D01*
X1137390Y1157050D01*
X1139800Y1158900D01*
X1141650Y1161310D01*
X1142813Y1164118D01*
X1143210Y1167130D01*
X1142813Y1170143D01*
X1141650Y1172950D01*
X1139800Y1175360D01*
X1137390Y1177210D01*
X1134583Y1178373D01*
X1131570Y1178770D01*
D02*
G37*
G36*
X1106170D02*
X1103158Y1178373D01*
X1100350Y1177210D01*
X1097940Y1175360D01*
X1096090Y1172950D01*
X1094927Y1170143D01*
X1094530Y1167130D01*
X1094927Y1164118D01*
X1096090Y1161310D01*
X1097940Y1158900D01*
X1100350Y1157050D01*
X1103158Y1155887D01*
X1106170Y1155490D01*
X1109183Y1155887D01*
X1111990Y1157050D01*
X1114400Y1158900D01*
X1116250Y1161310D01*
X1117413Y1164118D01*
X1117810Y1167130D01*
X1117413Y1170143D01*
X1116250Y1172950D01*
X1114400Y1175360D01*
X1111990Y1177210D01*
X1109183Y1178373D01*
X1106170Y1178770D01*
D02*
G37*
G36*
X1080770D02*
X1077757Y1178373D01*
X1074950Y1177210D01*
X1072540Y1175360D01*
X1070690Y1172950D01*
X1069527Y1170143D01*
X1069130Y1167130D01*
X1069527Y1164118D01*
X1070690Y1161310D01*
X1072540Y1158900D01*
X1074950Y1157050D01*
X1077757Y1155887D01*
X1080770Y1155490D01*
X1083783Y1155887D01*
X1086590Y1157050D01*
X1089000Y1158900D01*
X1090850Y1161310D01*
X1092013Y1164118D01*
X1092410Y1167130D01*
X1092013Y1170143D01*
X1090850Y1172950D01*
X1089000Y1175360D01*
X1086590Y1177210D01*
X1083783Y1178373D01*
X1080770Y1178770D01*
D02*
G37*
G36*
X1055370D02*
X1052357Y1178373D01*
X1049550Y1177210D01*
X1047140Y1175360D01*
X1045290Y1172950D01*
X1044127Y1170143D01*
X1043730Y1167130D01*
X1044127Y1164118D01*
X1045290Y1161310D01*
X1047140Y1158900D01*
X1049550Y1157050D01*
X1052357Y1155887D01*
X1055370Y1155490D01*
X1058382Y1155887D01*
X1061190Y1157050D01*
X1063600Y1158900D01*
X1065450Y1161310D01*
X1066613Y1164118D01*
X1067010Y1167130D01*
X1066613Y1170143D01*
X1065450Y1172950D01*
X1063600Y1175360D01*
X1061190Y1177210D01*
X1058382Y1178373D01*
X1055370Y1178770D01*
D02*
G37*
G36*
X1029970D02*
X1026957Y1178373D01*
X1024150Y1177210D01*
X1021740Y1175360D01*
X1019890Y1172950D01*
X1018727Y1170143D01*
X1018330Y1167130D01*
X1018727Y1164118D01*
X1019890Y1161310D01*
X1021740Y1158900D01*
X1024150Y1157050D01*
X1026957Y1155887D01*
X1029970Y1155490D01*
X1032982Y1155887D01*
X1035790Y1157050D01*
X1038200Y1158900D01*
X1040050Y1161310D01*
X1041213Y1164118D01*
X1041609Y1167130D01*
X1041213Y1170143D01*
X1040050Y1172950D01*
X1038200Y1175360D01*
X1035790Y1177210D01*
X1032982Y1178373D01*
X1029970Y1178770D01*
D02*
G37*
G36*
X928370D02*
X925358Y1178373D01*
X922550Y1177210D01*
X920140Y1175360D01*
X918290Y1172950D01*
X917127Y1170143D01*
X916730Y1167130D01*
X917127Y1164118D01*
X918290Y1161310D01*
X920140Y1158900D01*
X922550Y1157050D01*
X925358Y1155887D01*
X928370Y1155490D01*
X931383Y1155887D01*
X934190Y1157050D01*
X936600Y1158900D01*
X938450Y1161310D01*
X939613Y1164118D01*
X940010Y1167130D01*
X939613Y1170143D01*
X938450Y1172950D01*
X936600Y1175360D01*
X934190Y1177210D01*
X931383Y1178373D01*
X928370Y1178770D01*
D02*
G37*
G36*
X450667Y1161440D02*
X441770D01*
Y1145170D01*
X443131Y1145349D01*
X445583Y1146365D01*
X447689Y1147981D01*
X449305Y1150087D01*
X450321Y1152539D01*
X450667Y1155170D01*
Y1161440D01*
D02*
G37*
G36*
X331667D02*
X322770D01*
Y1145170D01*
X324131Y1145349D01*
X326584Y1146365D01*
X328689Y1147981D01*
X330305Y1150087D01*
X331320Y1152539D01*
X331667Y1155170D01*
Y1161440D01*
D02*
G37*
G36*
X320230D02*
X311333D01*
Y1155170D01*
X311679Y1152539D01*
X312695Y1150087D01*
X314311Y1147981D01*
X316416Y1146365D01*
X318869Y1145349D01*
X320230Y1145170D01*
Y1161440D01*
D02*
G37*
G36*
X439230D02*
X430333D01*
Y1155170D01*
X430680Y1152539D01*
X431695Y1150087D01*
X433311Y1147981D01*
X435416Y1146365D01*
X437869Y1145349D01*
X439230Y1145170D01*
Y1161440D01*
D02*
G37*
G36*
X844470Y1189210D02*
X836930D01*
X829390D01*
Y1182790D01*
X829390Y1182440D01*
Y1181520D01*
X829390Y1181170D01*
Y1165440D01*
X833045D01*
Y1158150D01*
X829390D01*
Y1144070D01*
X844470D01*
Y1158150D01*
X840815D01*
Y1165440D01*
X844470D01*
Y1181170D01*
X844470Y1181520D01*
Y1182440D01*
X844470Y1182790D01*
Y1189210D01*
D02*
G37*
G36*
X520850Y1144910D02*
X513080D01*
Y1124640D01*
X520850D01*
Y1144910D01*
D02*
G37*
G36*
X510540D02*
X502770D01*
Y1124640D01*
X510540D01*
Y1144910D01*
D02*
G37*
G36*
X387540Y1131368D02*
X382270D01*
Y1123480D01*
X396531D01*
X396386Y1124580D01*
X395471Y1126789D01*
X394016Y1128686D01*
X392119Y1130141D01*
X389910Y1131056D01*
X387540Y1131368D01*
D02*
G37*
G36*
X379730D02*
X374460D01*
X372090Y1131056D01*
X369881Y1130141D01*
X367984Y1128686D01*
X366529Y1126789D01*
X365614Y1124580D01*
X365469Y1123480D01*
X379730D01*
Y1131368D01*
D02*
G37*
G36*
X396531Y1120940D02*
X382270D01*
Y1113052D01*
X387540D01*
X389910Y1113364D01*
X392119Y1114279D01*
X394016Y1115734D01*
X395471Y1117631D01*
X396386Y1119840D01*
X396531Y1120940D01*
D02*
G37*
G36*
X379730D02*
X365469D01*
X365614Y1119840D01*
X366529Y1117631D01*
X367984Y1115734D01*
X369881Y1114279D01*
X372090Y1113364D01*
X374460Y1113052D01*
X379730D01*
Y1120940D01*
D02*
G37*
G36*
X441770Y1128250D02*
Y1111980D01*
X450667D01*
Y1118250D01*
X450321Y1120881D01*
X449305Y1123334D01*
X447689Y1125439D01*
X445583Y1127055D01*
X443131Y1128071D01*
X441770Y1128250D01*
D02*
G37*
G36*
X322770D02*
Y1111980D01*
X331667D01*
Y1118250D01*
X331320Y1120881D01*
X330305Y1123334D01*
X328689Y1125439D01*
X326584Y1127055D01*
X324131Y1128071D01*
X322770Y1128250D01*
D02*
G37*
G36*
X320230D02*
X318869Y1128071D01*
X316416Y1127055D01*
X314311Y1125439D01*
X312695Y1123334D01*
X311679Y1120881D01*
X311333Y1118250D01*
Y1111980D01*
X320230D01*
Y1128250D01*
D02*
G37*
G36*
X439230D02*
X437869Y1128071D01*
X435416Y1127055D01*
X433311Y1125439D01*
X431695Y1123334D01*
X430680Y1120881D01*
X430333Y1118250D01*
Y1111980D01*
X439230D01*
Y1128250D01*
D02*
G37*
G36*
X283130Y1153650D02*
X275590D01*
X268050D01*
Y1147230D01*
X268050Y1146880D01*
Y1145960D01*
X268050Y1145610D01*
Y1129880D01*
X271471D01*
Y1121320D01*
X268050D01*
Y1107240D01*
X283130D01*
Y1121320D01*
X279709D01*
Y1129880D01*
X283130D01*
Y1145610D01*
X283130Y1145960D01*
Y1146880D01*
X283130Y1147230D01*
Y1153650D01*
D02*
G37*
G36*
X520850Y1122100D02*
X513080D01*
Y1101830D01*
X520850D01*
Y1122100D01*
D02*
G37*
G36*
X510540D02*
X502770D01*
Y1101830D01*
X510540D01*
Y1122100D01*
D02*
G37*
G36*
X681990Y1202395D02*
X679108Y1202016D01*
X676422Y1200903D01*
X674116Y1199134D01*
X672347Y1196828D01*
X671234Y1194142D01*
X670855Y1191260D01*
X671234Y1188378D01*
X672347Y1185692D01*
X674116Y1183386D01*
X676422Y1181617D01*
X677541Y1181153D01*
Y1117320D01*
X675540D01*
Y1101240D01*
X687120D01*
Y1105395D01*
X690351D01*
X692230Y1103516D01*
Y1094930D01*
X707310D01*
Y1109010D01*
X697724D01*
X694707Y1112027D01*
X693447Y1112869D01*
X691960Y1113165D01*
X687120D01*
Y1117320D01*
X685779D01*
Y1180880D01*
X687558Y1181617D01*
X689864Y1183386D01*
X691633Y1185692D01*
X692746Y1188378D01*
X693125Y1191260D01*
X692746Y1194142D01*
X691633Y1196828D01*
X689864Y1199134D01*
X687558Y1200903D01*
X684872Y1202016D01*
X681990Y1202395D01*
D02*
G37*
G36*
X450667Y1109440D02*
X441770D01*
Y1093170D01*
X443131Y1093350D01*
X445583Y1094365D01*
X447689Y1095981D01*
X449305Y1098086D01*
X450321Y1100539D01*
X450667Y1103170D01*
Y1109440D01*
D02*
G37*
G36*
X331667D02*
X322770D01*
Y1093170D01*
X324131Y1093350D01*
X326584Y1094365D01*
X328689Y1095981D01*
X330305Y1098086D01*
X331320Y1100539D01*
X331667Y1103170D01*
Y1109440D01*
D02*
G37*
G36*
X439230D02*
X430333D01*
Y1103170D01*
X430680Y1100539D01*
X431695Y1098086D01*
X433311Y1095981D01*
X435416Y1094365D01*
X437869Y1093350D01*
X439230Y1093170D01*
Y1109440D01*
D02*
G37*
G36*
X320230D02*
X311333D01*
Y1103170D01*
X311679Y1100539D01*
X312695Y1098086D01*
X314311Y1095981D01*
X316416Y1094365D01*
X318869Y1093350D01*
X320230Y1093170D01*
Y1109440D01*
D02*
G37*
G36*
X687120Y1093320D02*
X682600D01*
Y1086550D01*
X687120D01*
Y1093320D01*
D02*
G37*
G36*
Y1084010D02*
X682600D01*
Y1077240D01*
X687120D01*
Y1084010D01*
D02*
G37*
G36*
X666040Y1093320D02*
X664770Y1093320D01*
X659435D01*
X656540Y1090425D01*
Y1080135D01*
X659435Y1077240D01*
X664770D01*
X666040Y1077240D01*
X666040Y1077240D01*
X667945D01*
Y1068760D01*
X664290D01*
Y1054680D01*
X679370D01*
Y1057835D01*
X687070D01*
X688557Y1058131D01*
X689817Y1058973D01*
X702517Y1071673D01*
X703359Y1072933D01*
X703655Y1074420D01*
Y1077930D01*
X707310D01*
Y1092010D01*
X692230D01*
Y1077930D01*
X695885D01*
Y1076029D01*
X685461Y1065605D01*
X679370D01*
Y1068760D01*
X675715D01*
Y1077240D01*
X680060D01*
Y1085280D01*
Y1093320D01*
X666040D01*
X666040Y1093320D01*
D02*
G37*
G36*
X1005840Y1026202D02*
Y1016000D01*
X1016042D01*
X1015813Y1017742D01*
X1014650Y1020550D01*
X1012800Y1022960D01*
X1010390Y1024810D01*
X1007582Y1025973D01*
X1005840Y1026202D01*
D02*
G37*
G36*
X1003300D02*
X1001557Y1025973D01*
X998750Y1024810D01*
X996340Y1022960D01*
X994490Y1020550D01*
X993327Y1017742D01*
X993098Y1016000D01*
X1003300D01*
Y1026202D01*
D02*
G37*
G36*
X1016042Y1013460D02*
X1005840D01*
Y1003258D01*
X1007582Y1003487D01*
X1010390Y1004650D01*
X1012800Y1006500D01*
X1014650Y1008910D01*
X1015813Y1011718D01*
X1016042Y1013460D01*
D02*
G37*
G36*
X1003300D02*
X993098D01*
X993327Y1011718D01*
X994490Y1008910D01*
X996340Y1006500D01*
X998750Y1004650D01*
X1001557Y1003487D01*
X1003300Y1003258D01*
Y1013460D01*
D02*
G37*
G36*
X939910Y1026270D02*
X916830D01*
Y1003190D01*
X939910D01*
Y1026270D01*
D02*
G37*
G36*
X798830Y1063559D02*
X796668Y1063129D01*
X794836Y1061904D01*
X793611Y1060072D01*
X793182Y1057910D01*
X793207Y1057781D01*
X766520Y1031093D01*
X765409Y1031441D01*
X765250Y1031562D01*
Y1034158D01*
X765359Y1034231D01*
X766584Y1036063D01*
X767013Y1038225D01*
X766584Y1040387D01*
X765359Y1042219D01*
X763527Y1043444D01*
X761365Y1043874D01*
X759203Y1043444D01*
X757371Y1042219D01*
X756146Y1040387D01*
X755716Y1038225D01*
X756146Y1036063D01*
X757371Y1034231D01*
X757480Y1034158D01*
Y962364D01*
X753239Y958123D01*
X753110Y958148D01*
X750948Y957719D01*
X749116Y956494D01*
X747891Y954662D01*
X747461Y952500D01*
X747891Y950338D01*
X749116Y948506D01*
X750948Y947281D01*
X753110Y946852D01*
X755272Y947281D01*
X756210Y947909D01*
X757480Y947230D01*
Y944691D01*
X756553Y943930D01*
X753477D01*
X752287Y943693D01*
X751277Y943018D01*
X750679Y942959D01*
X745565Y948074D01*
Y995423D01*
X745674Y995496D01*
X746899Y997328D01*
X747328Y999490D01*
X746963Y1001330D01*
X747801Y1002079D01*
X747992Y1002170D01*
X748408Y1001891D01*
X750570Y1001461D01*
X752732Y1001891D01*
X754564Y1003116D01*
X755789Y1004948D01*
X756218Y1007110D01*
X755789Y1009272D01*
X754564Y1011104D01*
X752732Y1012329D01*
X750570Y1012758D01*
X750441Y1012733D01*
X715707Y1047467D01*
X714447Y1048309D01*
X712960Y1048605D01*
X679370D01*
Y1051760D01*
X664290D01*
Y1037680D01*
X679370D01*
Y1040835D01*
X711351D01*
X744947Y1007239D01*
X744921Y1007110D01*
X745287Y1005270D01*
X744449Y1004521D01*
X744258Y1004430D01*
X743842Y1004709D01*
X741680Y1005138D01*
X741551Y1005113D01*
X718877Y1027787D01*
X717617Y1028629D01*
X716130Y1028925D01*
X139370D01*
X137883Y1028629D01*
X136623Y1027787D01*
X43552Y934716D01*
X42122Y935309D01*
X39370Y935671D01*
X36618Y935309D01*
X34055Y934247D01*
X31853Y932557D01*
X30163Y930356D01*
X29101Y927792D01*
X28739Y925040D01*
X29101Y922289D01*
X30163Y919725D01*
X31853Y917523D01*
X34055Y915833D01*
X36618Y914771D01*
X38547Y914517D01*
X39003Y913176D01*
X16303Y890477D01*
X15461Y889217D01*
X15165Y887730D01*
Y770360D01*
X15461Y768873D01*
X16303Y767613D01*
X29694Y754222D01*
X29101Y752792D01*
X28739Y750040D01*
X29101Y747289D01*
X29694Y745858D01*
X16303Y732467D01*
X15461Y731207D01*
X15165Y729720D01*
Y509860D01*
X15461Y508373D01*
X16303Y507113D01*
X29694Y493722D01*
X29101Y492291D01*
X28739Y489540D01*
X29101Y486788D01*
X30163Y484225D01*
X31853Y482023D01*
X34055Y480333D01*
X36618Y479271D01*
X39370Y478909D01*
X42122Y479271D01*
X44686Y480333D01*
X46887Y482023D01*
X48577Y484225D01*
X49639Y486788D01*
X50001Y489540D01*
X49639Y492291D01*
X48577Y494855D01*
X46887Y497057D01*
X44686Y498747D01*
X42122Y499809D01*
X39370Y500171D01*
X36618Y499809D01*
X35188Y499216D01*
X22935Y511469D01*
Y728111D01*
X35188Y740364D01*
X36618Y739771D01*
X39370Y739409D01*
X42122Y739771D01*
X44686Y740833D01*
X46887Y742523D01*
X48577Y744725D01*
X49639Y747289D01*
X50001Y750040D01*
X49639Y752792D01*
X48577Y755356D01*
X46887Y757557D01*
X44686Y759247D01*
X42122Y760309D01*
X39370Y760671D01*
X36618Y760309D01*
X35188Y759716D01*
X22935Y771969D01*
Y886121D01*
X27628Y890814D01*
X28767Y890253D01*
X28739Y890040D01*
X29101Y887289D01*
X30163Y884725D01*
X31853Y882523D01*
X34055Y880833D01*
X36618Y879771D01*
X39370Y879409D01*
X42122Y879771D01*
X44686Y880833D01*
X46887Y882523D01*
X48577Y884725D01*
X49639Y887289D01*
X50001Y890040D01*
X49639Y892792D01*
X49046Y894222D01*
X140979Y986155D01*
X721850D01*
X723008Y985381D01*
X725170Y984951D01*
X727332Y985381D01*
X729164Y986606D01*
X730389Y988438D01*
X730818Y990600D01*
X730389Y992762D01*
X729164Y994594D01*
X727332Y995819D01*
X725170Y996248D01*
X723008Y995819D01*
X721176Y994594D01*
X720729Y993925D01*
X693123D01*
X692369Y995195D01*
X692719Y996950D01*
X692289Y999112D01*
X691064Y1000944D01*
X690955Y1001017D01*
Y1011933D01*
X691064Y1012006D01*
X692289Y1013838D01*
X692719Y1016000D01*
X692289Y1018162D01*
X691137Y1019885D01*
X691438Y1021155D01*
X714521D01*
X736057Y999619D01*
X736031Y999490D01*
X736461Y997328D01*
X737686Y995496D01*
X737795Y995423D01*
Y946465D01*
X738091Y944978D01*
X738933Y943718D01*
X750365Y932286D01*
Y925443D01*
X750415Y925195D01*
X749409Y923925D01*
X201392D01*
X200844Y924744D01*
X199012Y925969D01*
X196850Y926398D01*
X194688Y925969D01*
X192856Y924744D01*
X192308Y923925D01*
X139370D01*
X137883Y923629D01*
X136623Y922787D01*
X43552Y829716D01*
X42122Y830309D01*
X39370Y830671D01*
X36618Y830309D01*
X34055Y829247D01*
X31853Y827557D01*
X30163Y825355D01*
X29101Y822792D01*
X28739Y820040D01*
X29101Y817289D01*
X30163Y814725D01*
X31853Y812523D01*
X34055Y810833D01*
X36618Y809771D01*
X39370Y809409D01*
X42122Y809771D01*
X44686Y810833D01*
X46887Y812523D01*
X48577Y814725D01*
X49639Y817289D01*
X50001Y820040D01*
X49639Y822792D01*
X49046Y824222D01*
X140979Y916155D01*
X193755D01*
X194688Y915531D01*
X196850Y915101D01*
X199012Y915531D01*
X199945Y916155D01*
X754942D01*
X755695Y914885D01*
X755346Y913130D01*
X755776Y910968D01*
X757001Y909136D01*
X758118Y908389D01*
X757733Y907119D01*
X200612D01*
X199012Y908189D01*
X196850Y908618D01*
X194688Y908189D01*
X193088Y907119D01*
X157565D01*
X156078Y906824D01*
X154818Y905982D01*
X43552Y794716D01*
X42122Y795309D01*
X39370Y795671D01*
X36618Y795309D01*
X34055Y794247D01*
X31853Y792557D01*
X30163Y790355D01*
X29101Y787792D01*
X28739Y785040D01*
X29101Y782289D01*
X30163Y779725D01*
X31853Y777523D01*
X34055Y775833D01*
X36618Y774771D01*
X39370Y774409D01*
X42122Y774771D01*
X44686Y775833D01*
X46887Y777523D01*
X48577Y779725D01*
X49639Y782289D01*
X50001Y785040D01*
X49639Y787792D01*
X49046Y789222D01*
X159174Y899350D01*
X192606D01*
X192856Y898976D01*
X194688Y897751D01*
X196850Y897321D01*
X199012Y897751D01*
X200844Y898976D01*
X201094Y899350D01*
X761735D01*
X763222Y899646D01*
X764482Y900488D01*
X776812Y912817D01*
X777654Y914078D01*
X777950Y915564D01*
Y921569D01*
X778877Y922330D01*
X781953D01*
X782563Y921829D01*
Y912329D01*
X782136Y912044D01*
X780911Y910212D01*
X780481Y908050D01*
X780911Y905888D01*
X782136Y904056D01*
X783968Y902831D01*
X786130Y902402D01*
X788292Y902831D01*
X790124Y904056D01*
X791349Y905888D01*
X791778Y908050D01*
X791349Y910212D01*
X790332Y911733D01*
Y921283D01*
X791578Y922330D01*
X791845D01*
Y933130D01*
X794385D01*
Y922330D01*
X794652D01*
X795844Y922567D01*
X796290Y922866D01*
X796737Y922567D01*
X797927Y922330D01*
X801003D01*
X802194Y922567D01*
X802640Y922866D01*
X803086Y922567D01*
X804277Y922330D01*
X807353D01*
X808543Y922567D01*
X808990Y922866D01*
X809436Y922567D01*
X810628Y922330D01*
X813702D01*
X814893Y922567D01*
X815340Y922866D01*
X815787Y922567D01*
X816977Y922330D01*
X820052D01*
X821244Y922567D01*
X821690Y922866D01*
X822137Y922567D01*
X823327Y922330D01*
X826403D01*
X827594Y922567D01*
X828603Y923242D01*
X829278Y924251D01*
X829515Y925443D01*
Y940817D01*
X829278Y942009D01*
X828603Y943018D01*
X827594Y943693D01*
X826403Y943930D01*
X823327D01*
X822137Y943693D01*
X821690Y943395D01*
X821244Y943693D01*
X820052Y943930D01*
X816977D01*
X815787Y943693D01*
X815340Y943395D01*
X814893Y943693D01*
X813702Y943930D01*
X810628D01*
X809436Y943693D01*
X808990Y943395D01*
X808543Y943693D01*
X807353Y943930D01*
X804277D01*
X803584Y944499D01*
Y971241D01*
X806530D01*
Y968550D01*
X806530Y968200D01*
Y967280D01*
X806530Y966930D01*
Y961010D01*
X814070D01*
X821610D01*
Y966930D01*
X821610Y967280D01*
Y968200D01*
X821610Y968550D01*
Y983280D01*
X806530D01*
Y979479D01*
X802182D01*
X801776Y979398D01*
X801370Y979479D01*
X797480D01*
Y983280D01*
X784617D01*
Y986321D01*
X785044Y986606D01*
X786269Y988438D01*
X786699Y990600D01*
X786269Y992762D01*
X785044Y994594D01*
X784300Y995092D01*
Y997246D01*
X830919Y1043865D01*
X844942D01*
X845428Y1042692D01*
X807849Y1005113D01*
X807720Y1005138D01*
X805558Y1004709D01*
X803726Y1003484D01*
X802501Y1001652D01*
X802072Y999490D01*
X802501Y997328D01*
X803726Y995496D01*
X805558Y994271D01*
X807720Y993841D01*
X809882Y994271D01*
X811714Y995496D01*
X812939Y997328D01*
X813369Y999490D01*
X813343Y999619D01*
X819062Y1005338D01*
X820044Y1005040D01*
X820356Y1004837D01*
X821506Y1003116D01*
X823338Y1001891D01*
X825500Y1001461D01*
X825629Y1001487D01*
X846883Y980233D01*
X848143Y979391D01*
X849630Y979095D01*
X998220D01*
X999707Y979391D01*
X1000967Y980233D01*
X1025022Y1004289D01*
X1026957Y1003487D01*
X1029970Y1003090D01*
X1032982Y1003487D01*
X1035790Y1004650D01*
X1038200Y1006500D01*
X1040050Y1008910D01*
X1041213Y1011718D01*
X1041609Y1014730D01*
X1041213Y1017742D01*
X1040050Y1020550D01*
X1038200Y1022960D01*
X1035790Y1024810D01*
X1032982Y1025973D01*
X1029970Y1026369D01*
X1026957Y1025973D01*
X1024150Y1024810D01*
X1021740Y1022960D01*
X1019890Y1020550D01*
X1018727Y1017742D01*
X1018330Y1014730D01*
X1018727Y1011718D01*
X1019529Y1009782D01*
X996611Y986865D01*
X851239D01*
X831123Y1006981D01*
X831149Y1007110D01*
X830719Y1009272D01*
X829494Y1011104D01*
X827774Y1012254D01*
X827570Y1012566D01*
X827272Y1013548D01*
X852509Y1038785D01*
X1114277D01*
X1114703Y1037515D01*
X1113651Y1035942D01*
X1113222Y1033780D01*
X1113651Y1031618D01*
X1114876Y1029786D01*
X1116708Y1028561D01*
X1118870Y1028131D01*
X1121032Y1028561D01*
X1122864Y1029786D01*
X1122937Y1029895D01*
X1161711D01*
X1171929Y1019678D01*
X1171127Y1017742D01*
X1170730Y1014730D01*
X1171127Y1011718D01*
X1172290Y1008910D01*
X1174140Y1006500D01*
X1176550Y1004650D01*
X1179358Y1003487D01*
X1182370Y1003090D01*
X1185383Y1003487D01*
X1188190Y1004650D01*
X1190600Y1006500D01*
X1192450Y1008910D01*
X1193613Y1011718D01*
X1194010Y1014730D01*
X1193613Y1017742D01*
X1192450Y1020550D01*
X1190600Y1022960D01*
X1188190Y1024810D01*
X1185383Y1025973D01*
X1182370Y1026369D01*
X1179358Y1025973D01*
X1177422Y1025171D01*
X1166067Y1036527D01*
X1164807Y1037369D01*
X1164071Y1037515D01*
X1164196Y1038785D01*
X1178221D01*
X1197329Y1019678D01*
X1196527Y1017742D01*
X1196130Y1014730D01*
X1196527Y1011718D01*
X1197690Y1008910D01*
X1199540Y1006500D01*
X1201950Y1004650D01*
X1204758Y1003487D01*
X1207770Y1003090D01*
X1210782Y1003487D01*
X1213590Y1004650D01*
X1216000Y1006500D01*
X1217850Y1008910D01*
X1219013Y1011718D01*
X1219410Y1014730D01*
X1219013Y1017742D01*
X1217850Y1020550D01*
X1216000Y1022960D01*
X1213590Y1024810D01*
X1210782Y1025973D01*
X1207770Y1026369D01*
X1204758Y1025973D01*
X1202822Y1025171D01*
X1185302Y1042692D01*
X1185788Y1043865D01*
X1198541D01*
X1222729Y1019678D01*
X1221927Y1017742D01*
X1221530Y1014730D01*
X1221927Y1011718D01*
X1223090Y1008910D01*
X1224940Y1006500D01*
X1227350Y1004650D01*
X1230157Y1003487D01*
X1233170Y1003090D01*
X1236182Y1003487D01*
X1238990Y1004650D01*
X1241400Y1006500D01*
X1243250Y1008910D01*
X1244413Y1011718D01*
X1244810Y1014730D01*
X1244413Y1017742D01*
X1243250Y1020550D01*
X1241400Y1022960D01*
X1238990Y1024810D01*
X1236182Y1025973D01*
X1233170Y1026369D01*
X1230157Y1025973D01*
X1228222Y1025171D01*
X1205622Y1047772D01*
X1206108Y1048945D01*
X1218861D01*
X1248129Y1019678D01*
X1247327Y1017742D01*
X1246930Y1014730D01*
X1247327Y1011718D01*
X1248490Y1008910D01*
X1250340Y1006500D01*
X1252750Y1004650D01*
X1255557Y1003487D01*
X1258570Y1003090D01*
X1261582Y1003487D01*
X1264390Y1004650D01*
X1266800Y1006500D01*
X1268650Y1008910D01*
X1269813Y1011718D01*
X1270210Y1014730D01*
X1269813Y1017742D01*
X1268650Y1020550D01*
X1266800Y1022960D01*
X1264390Y1024810D01*
X1261582Y1025973D01*
X1258570Y1026369D01*
X1255557Y1025973D01*
X1253622Y1025171D01*
X1225942Y1052852D01*
X1226428Y1054025D01*
X1239181D01*
X1273529Y1019678D01*
X1272727Y1017742D01*
X1272330Y1014730D01*
X1272727Y1011718D01*
X1273890Y1008910D01*
X1275740Y1006500D01*
X1278150Y1004650D01*
X1280957Y1003487D01*
X1283970Y1003090D01*
X1286983Y1003487D01*
X1289790Y1004650D01*
X1292200Y1006500D01*
X1294050Y1008910D01*
X1295213Y1011718D01*
X1295610Y1014730D01*
X1295213Y1017742D01*
X1294050Y1020550D01*
X1292200Y1022960D01*
X1289790Y1024810D01*
X1286983Y1025973D01*
X1283970Y1026369D01*
X1280957Y1025973D01*
X1279022Y1025171D01*
X1243537Y1060657D01*
X1242277Y1061499D01*
X1240790Y1061795D01*
X802897D01*
X802824Y1061904D01*
X800992Y1063129D01*
X798830Y1063559D01*
D02*
G37*
G36*
X1156970Y1026369D02*
X1153958Y1025973D01*
X1151150Y1024810D01*
X1148740Y1022960D01*
X1146890Y1020550D01*
X1145727Y1017742D01*
X1145331Y1014730D01*
X1145727Y1011718D01*
X1146890Y1008910D01*
X1148740Y1006500D01*
X1151150Y1004650D01*
X1153958Y1003487D01*
X1156970Y1003090D01*
X1159983Y1003487D01*
X1162790Y1004650D01*
X1165200Y1006500D01*
X1167050Y1008910D01*
X1168213Y1011718D01*
X1168610Y1014730D01*
X1168213Y1017742D01*
X1167050Y1020550D01*
X1165200Y1022960D01*
X1162790Y1024810D01*
X1159983Y1025973D01*
X1156970Y1026369D01*
D02*
G37*
G36*
X1131570D02*
X1128558Y1025973D01*
X1125750Y1024810D01*
X1123340Y1022960D01*
X1121490Y1020550D01*
X1120327Y1017742D01*
X1119930Y1014730D01*
X1120327Y1011718D01*
X1121490Y1008910D01*
X1123340Y1006500D01*
X1125750Y1004650D01*
X1128558Y1003487D01*
X1131570Y1003090D01*
X1134583Y1003487D01*
X1137390Y1004650D01*
X1139800Y1006500D01*
X1141650Y1008910D01*
X1142813Y1011718D01*
X1143210Y1014730D01*
X1142813Y1017742D01*
X1141650Y1020550D01*
X1139800Y1022960D01*
X1137390Y1024810D01*
X1134583Y1025973D01*
X1131570Y1026369D01*
D02*
G37*
G36*
X1080770D02*
X1077757Y1025973D01*
X1074950Y1024810D01*
X1072540Y1022960D01*
X1070690Y1020550D01*
X1069527Y1017742D01*
X1069130Y1014730D01*
X1069527Y1011718D01*
X1070690Y1008910D01*
X1072540Y1006500D01*
X1074950Y1004650D01*
X1077757Y1003487D01*
X1080770Y1003090D01*
X1083783Y1003487D01*
X1086590Y1004650D01*
X1089000Y1006500D01*
X1090850Y1008910D01*
X1092013Y1011718D01*
X1092410Y1014730D01*
X1092013Y1017742D01*
X1090850Y1020550D01*
X1089000Y1022960D01*
X1086590Y1024810D01*
X1083783Y1025973D01*
X1080770Y1026369D01*
D02*
G37*
G36*
X1055370D02*
X1052357Y1025973D01*
X1049550Y1024810D01*
X1047140Y1022960D01*
X1045290Y1020550D01*
X1044127Y1017742D01*
X1043730Y1014730D01*
X1044127Y1011718D01*
X1045290Y1008910D01*
X1047140Y1006500D01*
X1049550Y1004650D01*
X1052357Y1003487D01*
X1055370Y1003090D01*
X1058382Y1003487D01*
X1061190Y1004650D01*
X1063600Y1006500D01*
X1065450Y1008910D01*
X1066613Y1011718D01*
X1067010Y1014730D01*
X1066613Y1017742D01*
X1065450Y1020550D01*
X1063600Y1022960D01*
X1061190Y1024810D01*
X1058382Y1025973D01*
X1055370Y1026369D01*
D02*
G37*
G36*
X979170D02*
X976158Y1025973D01*
X973350Y1024810D01*
X970940Y1022960D01*
X969090Y1020550D01*
X967927Y1017742D01*
X967531Y1014730D01*
X967927Y1011718D01*
X969090Y1008910D01*
X970940Y1006500D01*
X973350Y1004650D01*
X976158Y1003487D01*
X979170Y1003090D01*
X982182Y1003487D01*
X984990Y1004650D01*
X987400Y1006500D01*
X989250Y1008910D01*
X990413Y1011718D01*
X990809Y1014730D01*
X990413Y1017742D01*
X989250Y1020550D01*
X987400Y1022960D01*
X984990Y1024810D01*
X982182Y1025973D01*
X979170Y1026369D01*
D02*
G37*
G36*
X953770D02*
X950758Y1025973D01*
X947950Y1024810D01*
X945540Y1022960D01*
X943690Y1020550D01*
X942527Y1017742D01*
X942130Y1014730D01*
X942527Y1011718D01*
X943690Y1008910D01*
X945540Y1006500D01*
X947950Y1004650D01*
X950758Y1003487D01*
X953770Y1003090D01*
X956783Y1003487D01*
X959590Y1004650D01*
X962000Y1006500D01*
X963850Y1008910D01*
X965013Y1011718D01*
X965409Y1014730D01*
X965013Y1017742D01*
X963850Y1020550D01*
X962000Y1022960D01*
X959590Y1024810D01*
X956783Y1025973D01*
X953770Y1026369D01*
D02*
G37*
G36*
X1106170D02*
X1103158Y1025973D01*
X1100350Y1024810D01*
X1097940Y1022960D01*
X1096090Y1020550D01*
X1094927Y1017742D01*
X1094530Y1014730D01*
X1094927Y1011718D01*
X1096090Y1008910D01*
X1097940Y1006500D01*
X1100350Y1004650D01*
X1103158Y1003487D01*
X1106170Y1003090D01*
X1109183Y1003487D01*
X1111118Y1004289D01*
X1127553Y987853D01*
X1128813Y987011D01*
X1130300Y986715D01*
X1300223D01*
X1300296Y986606D01*
X1302128Y985381D01*
X1304290Y984951D01*
X1306452Y985381D01*
X1308284Y986606D01*
X1309509Y988438D01*
X1309939Y990600D01*
X1309509Y992762D01*
X1308284Y994594D01*
X1306452Y995819D01*
X1304290Y996248D01*
X1302128Y995819D01*
X1300296Y994594D01*
X1300223Y994485D01*
X1131909D01*
X1116611Y1009782D01*
X1117413Y1011718D01*
X1117810Y1014730D01*
X1117413Y1017742D01*
X1116250Y1020550D01*
X1114400Y1022960D01*
X1111990Y1024810D01*
X1109183Y1025973D01*
X1106170Y1026369D01*
D02*
G37*
G36*
X1522730Y970504D02*
Y961310D01*
X1531924D01*
X1531729Y962792D01*
X1530667Y965355D01*
X1528977Y967557D01*
X1526776Y969247D01*
X1524211Y970309D01*
X1522730Y970504D01*
D02*
G37*
G36*
X40640D02*
Y961310D01*
X49834D01*
X49639Y962792D01*
X48577Y965355D01*
X46887Y967557D01*
X44686Y969247D01*
X42122Y970309D01*
X40640Y970504D01*
D02*
G37*
G36*
X1520190Y970504D02*
X1518708Y970309D01*
X1516145Y969247D01*
X1513943Y967557D01*
X1512253Y965355D01*
X1511191Y962792D01*
X1510996Y961310D01*
X1520190D01*
Y970504D01*
D02*
G37*
G36*
X38100D02*
X36618Y970309D01*
X34055Y969247D01*
X31853Y967557D01*
X30163Y965355D01*
X29101Y962792D01*
X28906Y961310D01*
X38100D01*
Y970504D01*
D02*
G37*
G36*
X821610Y958470D02*
X815340D01*
Y952200D01*
X821610D01*
Y958470D01*
D02*
G37*
G36*
X812800D02*
X806530D01*
Y952200D01*
X812800D01*
Y958470D01*
D02*
G37*
G36*
X1520190Y958770D02*
X1510996D01*
X1511191Y957289D01*
X1512253Y954725D01*
X1513943Y952523D01*
X1516145Y950833D01*
X1518708Y949771D01*
X1520190Y949576D01*
Y958770D01*
D02*
G37*
G36*
X38100D02*
X28906D01*
X29101Y957289D01*
X30163Y954725D01*
X31853Y952523D01*
X34055Y950833D01*
X36618Y949771D01*
X38100Y949576D01*
Y958770D01*
D02*
G37*
G36*
X49834D02*
X40640D01*
Y949576D01*
X42122Y949771D01*
X44686Y950833D01*
X46887Y952523D01*
X48577Y954725D01*
X49639Y957289D01*
X49834Y958770D01*
D02*
G37*
G36*
X1531924D02*
X1522730D01*
Y949576D01*
X1524211Y949771D01*
X1526776Y950833D01*
X1528977Y952523D01*
X1530667Y954725D01*
X1531729Y957289D01*
X1531924Y958770D01*
D02*
G37*
G36*
X730250Y944178D02*
X728088Y943749D01*
X726256Y942524D01*
X726183Y942415D01*
X199107D01*
X199012Y942479D01*
X196850Y942908D01*
X194688Y942479D01*
X192856Y941254D01*
X192783Y941145D01*
X121590D01*
X120103Y940849D01*
X118843Y940007D01*
X43552Y864716D01*
X42122Y865309D01*
X39370Y865671D01*
X36618Y865309D01*
X34055Y864247D01*
X31853Y862557D01*
X30163Y860356D01*
X29101Y857792D01*
X28739Y855040D01*
X29101Y852289D01*
X30163Y849725D01*
X31853Y847523D01*
X34055Y845833D01*
X36618Y844771D01*
X39370Y844409D01*
X42122Y844771D01*
X44686Y845833D01*
X46887Y847523D01*
X48577Y849725D01*
X49639Y852289D01*
X50001Y855040D01*
X49639Y857792D01*
X49046Y859222D01*
X123199Y933375D01*
X192783D01*
X192856Y933266D01*
X194688Y932041D01*
X196850Y931611D01*
X199012Y932041D01*
X200844Y933266D01*
X201766Y934645D01*
X726183D01*
X726256Y934536D01*
X728088Y933311D01*
X730250Y932881D01*
X732412Y933311D01*
X734244Y934536D01*
X735469Y936368D01*
X735899Y938530D01*
X735469Y940692D01*
X734244Y942524D01*
X732412Y943749D01*
X730250Y944178D01*
D02*
G37*
G36*
X1521460Y935671D02*
X1518708Y935309D01*
X1516145Y934247D01*
X1513943Y932557D01*
X1512253Y930356D01*
X1511191Y927792D01*
X1510829Y925040D01*
X1511191Y922289D01*
X1512253Y919725D01*
X1513943Y917523D01*
X1516145Y915833D01*
X1518708Y914771D01*
X1521460Y914409D01*
X1524211Y914771D01*
X1526776Y915833D01*
X1528977Y917523D01*
X1530667Y919725D01*
X1531729Y922289D01*
X1532091Y925040D01*
X1531729Y927792D01*
X1530667Y930356D01*
X1528977Y932557D01*
X1526776Y934247D01*
X1524211Y935309D01*
X1521460Y935671D01*
D02*
G37*
G36*
X826403Y891230D02*
X823327D01*
X822137Y890993D01*
X821690Y890695D01*
X821244Y890993D01*
X820052Y891230D01*
X816977D01*
X815787Y890993D01*
X815340Y890695D01*
X814893Y890993D01*
X813702Y891230D01*
X810628D01*
X809436Y890993D01*
X808990Y890695D01*
X808543Y890993D01*
X807353Y891230D01*
X804277D01*
X803086Y890993D01*
X802640Y890695D01*
X802194Y890993D01*
X801003Y891230D01*
X797927D01*
X796737Y890993D01*
X796290Y890695D01*
X795844Y890993D01*
X794652Y891230D01*
X791578D01*
X790387Y890993D01*
X789940Y890695D01*
X789493Y890993D01*
X788303Y891230D01*
X785228D01*
X784036Y890993D01*
X783590Y890695D01*
X783143Y890993D01*
X781953Y891230D01*
X778877D01*
X777686Y890993D01*
X777240Y890695D01*
X776794Y890993D01*
X775602Y891230D01*
X772527D01*
X771337Y890993D01*
X770890Y890695D01*
X770443Y890993D01*
X769252Y891230D01*
X766178D01*
X764986Y890993D01*
X764540Y890695D01*
X764093Y890993D01*
X762903Y891230D01*
X759827D01*
X758636Y890993D01*
X758190Y890695D01*
X757744Y890993D01*
X756553Y891230D01*
X753477D01*
X752287Y890993D01*
X751277Y890318D01*
X750602Y889308D01*
X750365Y888118D01*
Y872742D01*
X750602Y871552D01*
X750896Y871112D01*
Y866585D01*
X743250Y858939D01*
X351900D01*
X350324Y858626D01*
X348987Y857733D01*
X297337Y806083D01*
X296444Y804746D01*
X296131Y803170D01*
Y662540D01*
X293070D01*
Y647460D01*
X296131D01*
Y637760D01*
X294660D01*
Y617860D01*
X285340D01*
Y637760D01*
X274160D01*
Y631289D01*
X239622D01*
Y676749D01*
X240892Y677067D01*
X242346Y674348D01*
X244537Y671677D01*
X247208Y669485D01*
X250255Y667857D01*
X253561Y666854D01*
X257000Y666515D01*
X260438Y666854D01*
X263745Y667857D01*
X266792Y669485D01*
X269463Y671677D01*
X271654Y674348D01*
X273283Y677395D01*
X274286Y680702D01*
X274625Y684140D01*
X274286Y687579D01*
X273283Y690885D01*
X271654Y693932D01*
X269463Y696603D01*
X266792Y698794D01*
X263745Y700423D01*
X260438Y701426D01*
X257000Y701765D01*
X253561Y701426D01*
X250255Y700423D01*
X247208Y698794D01*
X244537Y696603D01*
X242346Y693932D01*
X240892Y691213D01*
X239622Y691531D01*
Y710821D01*
X239898Y711488D01*
X240248Y714140D01*
X239898Y716792D01*
X238875Y719264D01*
X237246Y721386D01*
X235124Y723015D01*
X232652Y724038D01*
X230000Y724388D01*
X227348Y724038D01*
X224876Y723015D01*
X222754Y721386D01*
X221125Y719264D01*
X220102Y716792D01*
X219752Y714140D01*
X220102Y711488D01*
X220378Y710821D01*
Y627100D01*
X220460Y626475D01*
Y619060D01*
X220460D01*
Y618140D01*
X220460D01*
Y610725D01*
X220378Y610100D01*
Y521590D01*
X209660D01*
Y503810D01*
X220378D01*
Y470790D01*
X209660D01*
Y453010D01*
X244340D01*
Y470790D01*
X239622D01*
Y503810D01*
X244340D01*
Y521590D01*
X239622D01*
Y603151D01*
X284410D01*
Y596680D01*
X295590D01*
Y616580D01*
X305840D01*
Y637760D01*
X304369D01*
Y647460D01*
X307150D01*
Y662540D01*
X304369D01*
Y801464D01*
X353606Y850701D01*
X457136D01*
X457622Y849528D01*
X417337Y809243D01*
X416444Y807906D01*
X416131Y806330D01*
Y662540D01*
X414990D01*
Y647460D01*
X416131D01*
Y637760D01*
X414660D01*
Y617860D01*
X405340D01*
Y637760D01*
X394160D01*
Y631289D01*
X359622D01*
Y676749D01*
X360892Y677067D01*
X362346Y674348D01*
X364537Y671677D01*
X367208Y669485D01*
X370255Y667857D01*
X373562Y666854D01*
X377000Y666515D01*
X380438Y666854D01*
X383745Y667857D01*
X386792Y669485D01*
X389463Y671677D01*
X391655Y674348D01*
X393283Y677395D01*
X394286Y680702D01*
X394625Y684140D01*
X394286Y687579D01*
X393283Y690885D01*
X391655Y693932D01*
X389463Y696603D01*
X386792Y698794D01*
X383745Y700423D01*
X380438Y701426D01*
X377000Y701765D01*
X373562Y701426D01*
X370255Y700423D01*
X367208Y698794D01*
X364537Y696603D01*
X362346Y693932D01*
X360892Y691213D01*
X359622Y691531D01*
Y710821D01*
X359898Y711488D01*
X360248Y714140D01*
X359898Y716792D01*
X358875Y719264D01*
X357246Y721386D01*
X355124Y723015D01*
X352652Y724038D01*
X350000Y724388D01*
X347348Y724038D01*
X344876Y723015D01*
X342754Y721386D01*
X341125Y719264D01*
X340102Y716792D01*
X339752Y714140D01*
X340102Y711488D01*
X340378Y710821D01*
Y627100D01*
X340460Y626475D01*
Y619060D01*
X340460D01*
Y618140D01*
X340460D01*
Y610725D01*
X340378Y610100D01*
Y521590D01*
X329660D01*
Y503810D01*
X340378D01*
Y470790D01*
X329660D01*
Y453010D01*
X364340D01*
Y470790D01*
X359622D01*
Y503810D01*
X364340D01*
Y521590D01*
X359622D01*
Y603151D01*
X404410D01*
Y596680D01*
X415590D01*
Y616580D01*
X425840D01*
Y637760D01*
X424369D01*
Y647460D01*
X429070D01*
Y662540D01*
X424369D01*
Y804624D01*
X464906Y845161D01*
X570976D01*
X571462Y843988D01*
X537337Y809863D01*
X536444Y808526D01*
X536131Y806950D01*
Y662540D01*
X533100D01*
Y647460D01*
X536131D01*
Y637760D01*
X534660D01*
Y617860D01*
X525340D01*
Y637760D01*
X514160D01*
Y631289D01*
X479622D01*
Y676749D01*
X480892Y677067D01*
X482346Y674348D01*
X484537Y671677D01*
X487208Y669485D01*
X490255Y667857D01*
X493562Y666854D01*
X497000Y666515D01*
X500438Y666854D01*
X503745Y667857D01*
X506792Y669485D01*
X509463Y671677D01*
X511655Y674348D01*
X513283Y677395D01*
X514286Y680702D01*
X514625Y684140D01*
X514286Y687579D01*
X513283Y690885D01*
X511655Y693932D01*
X509463Y696603D01*
X506792Y698794D01*
X503745Y700423D01*
X500438Y701426D01*
X497000Y701765D01*
X493562Y701426D01*
X490255Y700423D01*
X487208Y698794D01*
X484537Y696603D01*
X482346Y693932D01*
X480892Y691213D01*
X479622Y691531D01*
Y710821D01*
X479898Y711488D01*
X480248Y714140D01*
X479898Y716792D01*
X478875Y719264D01*
X477246Y721386D01*
X475124Y723015D01*
X472652Y724038D01*
X470000Y724388D01*
X467348Y724038D01*
X464876Y723015D01*
X462754Y721386D01*
X461125Y719264D01*
X460102Y716792D01*
X459752Y714140D01*
X460102Y711488D01*
X460378Y710821D01*
Y627100D01*
X460460Y626475D01*
Y619060D01*
X460460D01*
Y618140D01*
X460460D01*
Y610725D01*
X460378Y610100D01*
Y521590D01*
X449660D01*
Y503810D01*
X460378D01*
Y470790D01*
X449660D01*
Y453010D01*
X484340D01*
Y470790D01*
X479622D01*
Y503810D01*
X484340D01*
Y521590D01*
X479622D01*
Y603151D01*
X524410D01*
Y596680D01*
X535590D01*
Y616580D01*
X545840D01*
Y637760D01*
X544369D01*
Y647460D01*
X547180D01*
Y662540D01*
X544369D01*
Y805244D01*
X578746Y839621D01*
X687356D01*
X687842Y838447D01*
X657337Y807943D01*
X656444Y806606D01*
X656131Y805030D01*
Y662540D01*
X653750D01*
Y647460D01*
X656131D01*
Y637760D01*
X654660D01*
Y617860D01*
X645340D01*
Y637760D01*
X634160D01*
Y631289D01*
X599622D01*
Y676749D01*
X600892Y677067D01*
X602346Y674348D01*
X604537Y671677D01*
X607208Y669485D01*
X610255Y667857D01*
X613562Y666854D01*
X617000Y666515D01*
X620438Y666854D01*
X623745Y667857D01*
X626792Y669485D01*
X629463Y671677D01*
X631655Y674348D01*
X633283Y677395D01*
X634286Y680702D01*
X634625Y684140D01*
X634286Y687579D01*
X633283Y690885D01*
X631655Y693932D01*
X629463Y696603D01*
X626792Y698794D01*
X623745Y700423D01*
X620438Y701426D01*
X617000Y701765D01*
X613562Y701426D01*
X610255Y700423D01*
X607208Y698794D01*
X604537Y696603D01*
X602346Y693932D01*
X600892Y691213D01*
X599622Y691531D01*
Y710821D01*
X599898Y711488D01*
X600248Y714140D01*
X599898Y716792D01*
X598875Y719264D01*
X597246Y721386D01*
X595124Y723015D01*
X592652Y724038D01*
X590000Y724388D01*
X587348Y724038D01*
X584876Y723015D01*
X582754Y721386D01*
X581125Y719264D01*
X580102Y716792D01*
X579752Y714140D01*
X580102Y711488D01*
X580378Y710821D01*
Y627100D01*
X580460Y626475D01*
Y619060D01*
X580460D01*
Y618140D01*
X580460D01*
Y610725D01*
X580378Y610100D01*
Y521590D01*
X569660D01*
Y503810D01*
X580378D01*
Y470790D01*
X569660D01*
Y453010D01*
X604340D01*
Y470790D01*
X599622D01*
Y503810D01*
X604340D01*
Y521590D01*
X599622D01*
Y603151D01*
X644410D01*
Y596680D01*
X655590D01*
Y616580D01*
X665840D01*
Y637760D01*
X664369D01*
Y647460D01*
X667830D01*
Y662540D01*
X664369D01*
Y803324D01*
X695126Y834081D01*
X751840D01*
X753416Y834394D01*
X754753Y835287D01*
X775040Y855575D01*
X776213Y855089D01*
Y662540D01*
X773130D01*
Y647460D01*
X776213D01*
Y637760D01*
X774660D01*
Y617860D01*
X765340D01*
Y637760D01*
X754160D01*
Y631289D01*
X719622D01*
Y676749D01*
X720892Y677067D01*
X722346Y674348D01*
X724537Y671677D01*
X727208Y669485D01*
X730255Y667857D01*
X733562Y666854D01*
X737000Y666515D01*
X740438Y666854D01*
X743745Y667857D01*
X746792Y669485D01*
X749463Y671677D01*
X751655Y674348D01*
X753283Y677395D01*
X754286Y680702D01*
X754625Y684140D01*
X754286Y687579D01*
X753283Y690885D01*
X751655Y693932D01*
X749463Y696603D01*
X746792Y698794D01*
X743745Y700423D01*
X740438Y701426D01*
X737000Y701765D01*
X733562Y701426D01*
X730255Y700423D01*
X727208Y698794D01*
X724537Y696603D01*
X722346Y693932D01*
X720892Y691213D01*
X719622Y691531D01*
Y710821D01*
X719899Y711488D01*
X720248Y714140D01*
X719899Y716792D01*
X718875Y719264D01*
X717246Y721386D01*
X715124Y723015D01*
X712652Y724038D01*
X710000Y724388D01*
X707348Y724038D01*
X704876Y723015D01*
X702754Y721386D01*
X701125Y719264D01*
X700101Y716792D01*
X699752Y714140D01*
X700101Y711488D01*
X700378Y710821D01*
Y627100D01*
X700460Y626475D01*
Y619060D01*
X700460D01*
Y618140D01*
X700460D01*
Y610725D01*
X700378Y610100D01*
Y521590D01*
X689660D01*
Y503810D01*
X700378D01*
Y470790D01*
X689660D01*
Y453010D01*
X724340D01*
Y470790D01*
X719622D01*
Y503810D01*
X724340D01*
Y521590D01*
X719622D01*
Y603151D01*
X764410D01*
Y596680D01*
X775590D01*
Y616580D01*
X785840D01*
Y637760D01*
X784452D01*
Y647460D01*
X787210D01*
Y662540D01*
X784452D01*
Y855254D01*
X785625Y855740D01*
X806077Y835287D01*
X807414Y834394D01*
X808990Y834081D01*
X868244D01*
X896131Y806194D01*
Y662540D01*
X892510D01*
Y647460D01*
X896131D01*
Y637760D01*
X894660D01*
Y617860D01*
X885340D01*
Y637760D01*
X874160D01*
Y631289D01*
X839622D01*
Y676749D01*
X840892Y677067D01*
X842346Y674348D01*
X844537Y671677D01*
X847208Y669485D01*
X850255Y667857D01*
X853561Y666854D01*
X857000Y666515D01*
X860438Y666854D01*
X863745Y667857D01*
X866792Y669485D01*
X869463Y671677D01*
X871655Y674348D01*
X873283Y677395D01*
X874286Y680702D01*
X874625Y684140D01*
X874286Y687579D01*
X873283Y690885D01*
X871655Y693932D01*
X869463Y696603D01*
X866792Y698794D01*
X863745Y700423D01*
X860438Y701426D01*
X857000Y701765D01*
X853561Y701426D01*
X850255Y700423D01*
X847208Y698794D01*
X844537Y696603D01*
X842346Y693932D01*
X840892Y691213D01*
X839622Y691531D01*
Y710821D01*
X839899Y711488D01*
X840248Y714140D01*
X839899Y716792D01*
X838875Y719264D01*
X837246Y721386D01*
X835124Y723015D01*
X832652Y724038D01*
X830000Y724388D01*
X827348Y724038D01*
X824876Y723015D01*
X822754Y721386D01*
X821125Y719264D01*
X820101Y716792D01*
X819752Y714140D01*
X820101Y711488D01*
X820378Y710821D01*
Y627100D01*
X820460Y626475D01*
Y619060D01*
X820460D01*
Y618140D01*
X820460D01*
Y610725D01*
X820378Y610100D01*
Y521590D01*
X809660D01*
Y503810D01*
X820378D01*
Y470790D01*
X809660D01*
Y453010D01*
X844340D01*
Y470790D01*
X839622D01*
Y503810D01*
X844340D01*
Y521590D01*
X839622D01*
Y603151D01*
X884410D01*
Y596680D01*
X895590D01*
Y616580D01*
X905840D01*
Y637760D01*
X904369D01*
Y647460D01*
X906590D01*
Y662540D01*
X904369D01*
Y807900D01*
X904056Y809476D01*
X903163Y810813D01*
X875528Y838447D01*
X876014Y839621D01*
X989704D01*
X1016131Y813194D01*
Y662540D01*
X1014040D01*
Y647460D01*
X1016131D01*
Y637760D01*
X1014660D01*
Y617860D01*
X1005340D01*
Y637760D01*
X994160D01*
Y631289D01*
X959622D01*
Y676749D01*
X960892Y677067D01*
X962346Y674348D01*
X964537Y671677D01*
X967208Y669485D01*
X970255Y667857D01*
X973562Y666854D01*
X977000Y666515D01*
X980439Y666854D01*
X983745Y667857D01*
X986792Y669485D01*
X989463Y671677D01*
X991655Y674348D01*
X993283Y677395D01*
X994286Y680702D01*
X994625Y684140D01*
X994286Y687579D01*
X993283Y690885D01*
X991655Y693932D01*
X989463Y696603D01*
X986792Y698794D01*
X983745Y700423D01*
X980439Y701426D01*
X977000Y701765D01*
X973562Y701426D01*
X970255Y700423D01*
X967208Y698794D01*
X964537Y696603D01*
X962346Y693932D01*
X960892Y691213D01*
X959622Y691531D01*
Y710821D01*
X959899Y711488D01*
X960248Y714140D01*
X959899Y716792D01*
X958875Y719264D01*
X957246Y721386D01*
X955124Y723015D01*
X952652Y724038D01*
X950000Y724388D01*
X947348Y724038D01*
X944876Y723015D01*
X942754Y721386D01*
X941125Y719264D01*
X940101Y716792D01*
X939752Y714140D01*
X940101Y711488D01*
X940378Y710821D01*
Y627100D01*
X940460Y626475D01*
Y619410D01*
X940460Y619060D01*
X940460D01*
Y618140D01*
X940460D01*
Y601335D01*
X940378Y600710D01*
Y521590D01*
X929660D01*
Y503810D01*
X940378D01*
Y470790D01*
X929660D01*
Y453010D01*
X964340D01*
Y470790D01*
X959622D01*
Y503810D01*
X964340D01*
Y521590D01*
X959622D01*
Y600710D01*
X959540Y601335D01*
Y603151D01*
X1004410D01*
Y596680D01*
X1015590D01*
Y616580D01*
X1025840D01*
Y637760D01*
X1024369D01*
Y647460D01*
X1028120D01*
Y662540D01*
X1024369D01*
Y814900D01*
X1024056Y816476D01*
X1023163Y817813D01*
X996988Y843988D01*
X997474Y845161D01*
X1103334D01*
X1136131Y812364D01*
Y662540D01*
X1133810D01*
Y647460D01*
X1136131D01*
Y637760D01*
X1134660D01*
Y617860D01*
X1125340D01*
Y637760D01*
X1114160D01*
Y631289D01*
X1079622D01*
Y676749D01*
X1080892Y677067D01*
X1082346Y674348D01*
X1084537Y671677D01*
X1087208Y669485D01*
X1090255Y667857D01*
X1093561Y666854D01*
X1097000Y666515D01*
X1100438Y666854D01*
X1103745Y667857D01*
X1106792Y669485D01*
X1109463Y671677D01*
X1111655Y674348D01*
X1113283Y677395D01*
X1114286Y680702D01*
X1114625Y684140D01*
X1114286Y687579D01*
X1113283Y690885D01*
X1111655Y693932D01*
X1109463Y696603D01*
X1106792Y698794D01*
X1103745Y700423D01*
X1100438Y701426D01*
X1097000Y701765D01*
X1093561Y701426D01*
X1090255Y700423D01*
X1087208Y698794D01*
X1084537Y696603D01*
X1082346Y693932D01*
X1080892Y691213D01*
X1079622Y691531D01*
Y710821D01*
X1079899Y711488D01*
X1080248Y714140D01*
X1079899Y716792D01*
X1078875Y719264D01*
X1077246Y721386D01*
X1075124Y723015D01*
X1072652Y724038D01*
X1070000Y724388D01*
X1067348Y724038D01*
X1064876Y723015D01*
X1062754Y721386D01*
X1061125Y719264D01*
X1060101Y716792D01*
X1059752Y714140D01*
X1060101Y711488D01*
X1060378Y710821D01*
Y627100D01*
X1060460Y626475D01*
Y619060D01*
X1060460D01*
Y618140D01*
X1060460D01*
Y610725D01*
X1060378Y610100D01*
Y521590D01*
X1049660D01*
Y503810D01*
X1060378D01*
Y470790D01*
X1049660D01*
Y453010D01*
X1084340D01*
Y470790D01*
X1079622D01*
Y503810D01*
X1084340D01*
Y521590D01*
X1079622D01*
Y603151D01*
X1124410D01*
Y596680D01*
X1135590D01*
Y616580D01*
X1145840D01*
Y637760D01*
X1144369D01*
Y647460D01*
X1147890D01*
Y662540D01*
X1144369D01*
Y814070D01*
X1144056Y815646D01*
X1143163Y816983D01*
X1110618Y849528D01*
X1111104Y850701D01*
X1223734D01*
X1256131Y818304D01*
Y662540D01*
X1253190D01*
Y647460D01*
X1256131D01*
Y637760D01*
X1254660D01*
Y617860D01*
X1245340D01*
Y637760D01*
X1234160D01*
Y631289D01*
X1199622D01*
Y676749D01*
X1200892Y677067D01*
X1202346Y674348D01*
X1204537Y671677D01*
X1207208Y669485D01*
X1210255Y667857D01*
X1213562Y666854D01*
X1217000Y666515D01*
X1220439Y666854D01*
X1223745Y667857D01*
X1226792Y669485D01*
X1229463Y671677D01*
X1231655Y674348D01*
X1233283Y677395D01*
X1234286Y680702D01*
X1234625Y684140D01*
X1234286Y687579D01*
X1233283Y690885D01*
X1231655Y693932D01*
X1229463Y696603D01*
X1226792Y698794D01*
X1223745Y700423D01*
X1220439Y701426D01*
X1217000Y701765D01*
X1213562Y701426D01*
X1210255Y700423D01*
X1207208Y698794D01*
X1204537Y696603D01*
X1202346Y693932D01*
X1200892Y691213D01*
X1199622Y691531D01*
Y710821D01*
X1199899Y711488D01*
X1200248Y714140D01*
X1199899Y716792D01*
X1198875Y719264D01*
X1197246Y721386D01*
X1195124Y723015D01*
X1192652Y724038D01*
X1190000Y724388D01*
X1187348Y724038D01*
X1184876Y723015D01*
X1182754Y721386D01*
X1181125Y719264D01*
X1180101Y716792D01*
X1179752Y714140D01*
X1180101Y711488D01*
X1180378Y710821D01*
Y627100D01*
X1180460Y626475D01*
Y619060D01*
X1180460D01*
Y618140D01*
X1180460D01*
Y610725D01*
X1180378Y610100D01*
Y521590D01*
X1169660D01*
Y503810D01*
X1180378D01*
Y470790D01*
X1169660D01*
Y453010D01*
X1204340D01*
Y470790D01*
X1199622D01*
Y503810D01*
X1204340D01*
Y521590D01*
X1199622D01*
Y603151D01*
X1244410D01*
Y596680D01*
X1255590D01*
Y616580D01*
X1265840D01*
Y637760D01*
X1264369D01*
Y647460D01*
X1267270D01*
Y662540D01*
X1264369D01*
Y820010D01*
X1264056Y821586D01*
X1263163Y822923D01*
X1231018Y855068D01*
X1231504Y856241D01*
X1340114D01*
X1376131Y820224D01*
Y662540D01*
X1373840D01*
Y647460D01*
X1376131D01*
Y637760D01*
X1374660D01*
Y617860D01*
X1365340D01*
Y637760D01*
X1354160D01*
Y631289D01*
X1319622D01*
Y676749D01*
X1320892Y677067D01*
X1322345Y674348D01*
X1324537Y671677D01*
X1327208Y669485D01*
X1330255Y667857D01*
X1333562Y666854D01*
X1337000Y666515D01*
X1340438Y666854D01*
X1343745Y667857D01*
X1346792Y669485D01*
X1349463Y671677D01*
X1351655Y674348D01*
X1353283Y677395D01*
X1354286Y680702D01*
X1354625Y684140D01*
X1354286Y687579D01*
X1353283Y690885D01*
X1351655Y693932D01*
X1349463Y696603D01*
X1346792Y698794D01*
X1343745Y700423D01*
X1340438Y701426D01*
X1337000Y701765D01*
X1333562Y701426D01*
X1330255Y700423D01*
X1327208Y698794D01*
X1324537Y696603D01*
X1322345Y693932D01*
X1320892Y691213D01*
X1319622Y691531D01*
Y710821D01*
X1319899Y711488D01*
X1320248Y714140D01*
X1319899Y716792D01*
X1318875Y719264D01*
X1317246Y721386D01*
X1315124Y723015D01*
X1312652Y724038D01*
X1310000Y724388D01*
X1307348Y724038D01*
X1304876Y723015D01*
X1302754Y721386D01*
X1301125Y719264D01*
X1300101Y716792D01*
X1299752Y714140D01*
X1300101Y711488D01*
X1300378Y710821D01*
Y627100D01*
X1300460Y626475D01*
Y619060D01*
X1300460D01*
Y618140D01*
X1300460D01*
Y610725D01*
X1300378Y610100D01*
Y521590D01*
X1289660D01*
Y503810D01*
X1300378D01*
Y470790D01*
X1289660D01*
Y453010D01*
X1324340D01*
Y470790D01*
X1319622D01*
Y503810D01*
X1324340D01*
Y521590D01*
X1319622D01*
Y603151D01*
X1364410D01*
Y596680D01*
X1375590D01*
Y616580D01*
X1385840D01*
Y637760D01*
X1384369D01*
Y647460D01*
X1387920D01*
Y662540D01*
X1384369D01*
Y821930D01*
X1384056Y823506D01*
X1383163Y824843D01*
X1344733Y863273D01*
X1343396Y864166D01*
X1341820Y864479D01*
X819875D01*
X816464Y867890D01*
X816510Y869247D01*
X816977Y869630D01*
X820052D01*
X821244Y869867D01*
X821690Y870165D01*
X822137Y869867D01*
X823327Y869630D01*
X826403D01*
X827594Y869867D01*
X828603Y870542D01*
X829278Y871552D01*
X829515Y872742D01*
Y888118D01*
X829278Y889308D01*
X828603Y890318D01*
X827594Y890993D01*
X826403Y891230D01*
D02*
G37*
G36*
X1521460Y900671D02*
X1518708Y900309D01*
X1516145Y899247D01*
X1513943Y897557D01*
X1512253Y895356D01*
X1511191Y892792D01*
X1510829Y890040D01*
X1511191Y887289D01*
X1512253Y884725D01*
X1513943Y882523D01*
X1516145Y880833D01*
X1518708Y879771D01*
X1521460Y879409D01*
X1524211Y879771D01*
X1526776Y880833D01*
X1528977Y882523D01*
X1530667Y884725D01*
X1531729Y887289D01*
X1532091Y890040D01*
X1531729Y892792D01*
X1530667Y895356D01*
X1528977Y897557D01*
X1526776Y899247D01*
X1524211Y900309D01*
X1521460Y900671D01*
D02*
G37*
G36*
Y865671D02*
X1518708Y865309D01*
X1516145Y864247D01*
X1513943Y862557D01*
X1512253Y860356D01*
X1511191Y857792D01*
X1510829Y855040D01*
X1511191Y852289D01*
X1512253Y849725D01*
X1513943Y847523D01*
X1516145Y845833D01*
X1518708Y844771D01*
X1521460Y844409D01*
X1524211Y844771D01*
X1526776Y845833D01*
X1528977Y847523D01*
X1530667Y849725D01*
X1531729Y852289D01*
X1532091Y855040D01*
X1531729Y857792D01*
X1530667Y860356D01*
X1528977Y862557D01*
X1526776Y864247D01*
X1524211Y865309D01*
X1521460Y865671D01*
D02*
G37*
G36*
Y830671D02*
X1518708Y830309D01*
X1516145Y829247D01*
X1513943Y827557D01*
X1512253Y825355D01*
X1511191Y822792D01*
X1510829Y820040D01*
X1511191Y817289D01*
X1512253Y814725D01*
X1513943Y812523D01*
X1516145Y810833D01*
X1518708Y809771D01*
X1521460Y809409D01*
X1524211Y809771D01*
X1526776Y810833D01*
X1528977Y812523D01*
X1530667Y814725D01*
X1531729Y817289D01*
X1532091Y820040D01*
X1531729Y822792D01*
X1530667Y825355D01*
X1528977Y827557D01*
X1526776Y829247D01*
X1524211Y830309D01*
X1521460Y830671D01*
D02*
G37*
G36*
X1337000Y831765D02*
X1333562Y831426D01*
X1330255Y830423D01*
X1327208Y828794D01*
X1324537Y826603D01*
X1322345Y823932D01*
X1320717Y820885D01*
X1319714Y817579D01*
X1319375Y814140D01*
X1319714Y810702D01*
X1320717Y807395D01*
X1322345Y804348D01*
X1324537Y801677D01*
X1327208Y799485D01*
X1330255Y797857D01*
X1333562Y796854D01*
X1337000Y796515D01*
X1340438Y796854D01*
X1343745Y797857D01*
X1346792Y799485D01*
X1349463Y801677D01*
X1351655Y804348D01*
X1353283Y807395D01*
X1354286Y810702D01*
X1354625Y814140D01*
X1354286Y817579D01*
X1353283Y820885D01*
X1351655Y823932D01*
X1349463Y826603D01*
X1346792Y828794D01*
X1343745Y830423D01*
X1340438Y831426D01*
X1337000Y831765D01*
D02*
G37*
G36*
X1217000D02*
X1213562Y831426D01*
X1210255Y830423D01*
X1207208Y828794D01*
X1204537Y826603D01*
X1202346Y823932D01*
X1200717Y820885D01*
X1199714Y817579D01*
X1199375Y814140D01*
X1199714Y810702D01*
X1200717Y807395D01*
X1202346Y804348D01*
X1204537Y801677D01*
X1207208Y799485D01*
X1210255Y797857D01*
X1213562Y796854D01*
X1217000Y796515D01*
X1220439Y796854D01*
X1223745Y797857D01*
X1226792Y799485D01*
X1229463Y801677D01*
X1231655Y804348D01*
X1233283Y807395D01*
X1234286Y810702D01*
X1234625Y814140D01*
X1234286Y817579D01*
X1233283Y820885D01*
X1231655Y823932D01*
X1229463Y826603D01*
X1226792Y828794D01*
X1223745Y830423D01*
X1220439Y831426D01*
X1217000Y831765D01*
D02*
G37*
G36*
X1097000D02*
X1093561Y831426D01*
X1090255Y830423D01*
X1087208Y828794D01*
X1084537Y826603D01*
X1082346Y823932D01*
X1080717Y820885D01*
X1079714Y817579D01*
X1079375Y814140D01*
X1079714Y810702D01*
X1080717Y807395D01*
X1082346Y804348D01*
X1084537Y801677D01*
X1087208Y799485D01*
X1090255Y797857D01*
X1093561Y796854D01*
X1097000Y796515D01*
X1100438Y796854D01*
X1103745Y797857D01*
X1106792Y799485D01*
X1109463Y801677D01*
X1111655Y804348D01*
X1113283Y807395D01*
X1114286Y810702D01*
X1114625Y814140D01*
X1114286Y817579D01*
X1113283Y820885D01*
X1111655Y823932D01*
X1109463Y826603D01*
X1106792Y828794D01*
X1103745Y830423D01*
X1100438Y831426D01*
X1097000Y831765D01*
D02*
G37*
G36*
X977000D02*
X973562Y831426D01*
X970255Y830423D01*
X967208Y828794D01*
X964537Y826603D01*
X962346Y823932D01*
X960717Y820885D01*
X959714Y817579D01*
X959375Y814140D01*
X959714Y810702D01*
X960717Y807395D01*
X962346Y804348D01*
X964537Y801677D01*
X967208Y799485D01*
X970255Y797857D01*
X973562Y796854D01*
X977000Y796515D01*
X980439Y796854D01*
X983745Y797857D01*
X986792Y799485D01*
X989463Y801677D01*
X991655Y804348D01*
X993283Y807395D01*
X994286Y810702D01*
X994625Y814140D01*
X994286Y817579D01*
X993283Y820885D01*
X991655Y823932D01*
X989463Y826603D01*
X986792Y828794D01*
X983745Y830423D01*
X980439Y831426D01*
X977000Y831765D01*
D02*
G37*
G36*
X857000D02*
X853561Y831426D01*
X850255Y830423D01*
X847208Y828794D01*
X844537Y826603D01*
X842346Y823932D01*
X840717Y820885D01*
X839714Y817579D01*
X839375Y814140D01*
X839714Y810702D01*
X840717Y807395D01*
X842346Y804348D01*
X844537Y801677D01*
X847208Y799485D01*
X850255Y797857D01*
X853561Y796854D01*
X857000Y796515D01*
X860438Y796854D01*
X863745Y797857D01*
X866792Y799485D01*
X869463Y801677D01*
X871655Y804348D01*
X873283Y807395D01*
X874286Y810702D01*
X874625Y814140D01*
X874286Y817579D01*
X873283Y820885D01*
X871655Y823932D01*
X869463Y826603D01*
X866792Y828794D01*
X863745Y830423D01*
X860438Y831426D01*
X857000Y831765D01*
D02*
G37*
G36*
X737000D02*
X733562Y831426D01*
X730255Y830423D01*
X727208Y828794D01*
X724537Y826603D01*
X722346Y823932D01*
X720717Y820885D01*
X719714Y817579D01*
X719375Y814140D01*
X719714Y810702D01*
X720717Y807395D01*
X722346Y804348D01*
X724537Y801677D01*
X727208Y799485D01*
X730255Y797857D01*
X733562Y796854D01*
X737000Y796515D01*
X740438Y796854D01*
X743745Y797857D01*
X746792Y799485D01*
X749463Y801677D01*
X751655Y804348D01*
X753283Y807395D01*
X754286Y810702D01*
X754625Y814140D01*
X754286Y817579D01*
X753283Y820885D01*
X751655Y823932D01*
X749463Y826603D01*
X746792Y828794D01*
X743745Y830423D01*
X740438Y831426D01*
X737000Y831765D01*
D02*
G37*
G36*
X617000D02*
X613562Y831426D01*
X610255Y830423D01*
X607208Y828794D01*
X604537Y826603D01*
X602346Y823932D01*
X600717Y820885D01*
X599714Y817579D01*
X599375Y814140D01*
X599714Y810702D01*
X600717Y807395D01*
X602346Y804348D01*
X604537Y801677D01*
X607208Y799485D01*
X610255Y797857D01*
X613562Y796854D01*
X617000Y796515D01*
X620438Y796854D01*
X623745Y797857D01*
X626792Y799485D01*
X629463Y801677D01*
X631655Y804348D01*
X633283Y807395D01*
X634286Y810702D01*
X634625Y814140D01*
X634286Y817579D01*
X633283Y820885D01*
X631655Y823932D01*
X629463Y826603D01*
X626792Y828794D01*
X623745Y830423D01*
X620438Y831426D01*
X617000Y831765D01*
D02*
G37*
G36*
X497000D02*
X493562Y831426D01*
X490255Y830423D01*
X487208Y828794D01*
X484537Y826603D01*
X482346Y823932D01*
X480717Y820885D01*
X479714Y817579D01*
X479375Y814140D01*
X479714Y810702D01*
X480717Y807395D01*
X482346Y804348D01*
X484537Y801677D01*
X487208Y799485D01*
X490255Y797857D01*
X493562Y796854D01*
X497000Y796515D01*
X500438Y796854D01*
X503745Y797857D01*
X506792Y799485D01*
X509463Y801677D01*
X511655Y804348D01*
X513283Y807395D01*
X514286Y810702D01*
X514625Y814140D01*
X514286Y817579D01*
X513283Y820885D01*
X511655Y823932D01*
X509463Y826603D01*
X506792Y828794D01*
X503745Y830423D01*
X500438Y831426D01*
X497000Y831765D01*
D02*
G37*
G36*
X377000D02*
X373562Y831426D01*
X370255Y830423D01*
X367208Y828794D01*
X364537Y826603D01*
X362346Y823932D01*
X360717Y820885D01*
X359714Y817579D01*
X359375Y814140D01*
X359714Y810702D01*
X360717Y807395D01*
X362346Y804348D01*
X364537Y801677D01*
X367208Y799485D01*
X370255Y797857D01*
X373562Y796854D01*
X377000Y796515D01*
X380438Y796854D01*
X383745Y797857D01*
X386792Y799485D01*
X389463Y801677D01*
X391655Y804348D01*
X393283Y807395D01*
X394286Y810702D01*
X394625Y814140D01*
X394286Y817579D01*
X393283Y820885D01*
X391655Y823932D01*
X389463Y826603D01*
X386792Y828794D01*
X383745Y830423D01*
X380438Y831426D01*
X377000Y831765D01*
D02*
G37*
G36*
X257000D02*
X253561Y831426D01*
X250255Y830423D01*
X247208Y828794D01*
X244537Y826603D01*
X242346Y823932D01*
X240717Y820885D01*
X239714Y817579D01*
X239375Y814140D01*
X239714Y810702D01*
X240717Y807395D01*
X242346Y804348D01*
X244537Y801677D01*
X247208Y799485D01*
X250255Y797857D01*
X253561Y796854D01*
X257000Y796515D01*
X260438Y796854D01*
X263745Y797857D01*
X266792Y799485D01*
X269463Y801677D01*
X271654Y804348D01*
X273283Y807395D01*
X274286Y810702D01*
X274625Y814140D01*
X274286Y817579D01*
X273283Y820885D01*
X271654Y823932D01*
X269463Y826603D01*
X266792Y828794D01*
X263745Y830423D01*
X260438Y831426D01*
X257000Y831765D01*
D02*
G37*
G36*
X1521460Y795671D02*
X1518708Y795309D01*
X1516145Y794247D01*
X1513943Y792557D01*
X1512253Y790355D01*
X1511191Y787792D01*
X1510829Y785040D01*
X1511191Y782289D01*
X1512253Y779725D01*
X1513943Y777523D01*
X1516145Y775833D01*
X1518708Y774771D01*
X1521460Y774409D01*
X1524211Y774771D01*
X1526776Y775833D01*
X1528977Y777523D01*
X1530667Y779725D01*
X1531729Y782289D01*
X1532091Y785040D01*
X1531729Y787792D01*
X1530667Y790355D01*
X1528977Y792557D01*
X1526776Y794247D01*
X1524211Y795309D01*
X1521460Y795671D01*
D02*
G37*
G36*
X1310000Y794388D02*
X1307348Y794038D01*
X1304876Y793015D01*
X1302754Y791386D01*
X1301125Y789264D01*
X1300101Y786792D01*
X1299752Y784140D01*
X1300101Y781488D01*
X1301125Y779016D01*
X1302754Y776894D01*
X1304876Y775265D01*
X1307348Y774241D01*
X1310000Y773892D01*
X1312652Y774241D01*
X1315124Y775265D01*
X1317246Y776894D01*
X1318875Y779016D01*
X1319899Y781488D01*
X1320248Y784140D01*
X1319899Y786792D01*
X1318875Y789264D01*
X1317246Y791386D01*
X1315124Y793015D01*
X1312652Y794038D01*
X1310000Y794388D01*
D02*
G37*
G36*
X1190000D02*
X1187348Y794038D01*
X1184876Y793015D01*
X1182754Y791386D01*
X1181125Y789264D01*
X1180101Y786792D01*
X1179752Y784140D01*
X1180101Y781488D01*
X1181125Y779016D01*
X1182754Y776894D01*
X1184876Y775265D01*
X1187348Y774241D01*
X1190000Y773892D01*
X1192652Y774241D01*
X1195124Y775265D01*
X1197246Y776894D01*
X1198875Y779016D01*
X1199899Y781488D01*
X1200248Y784140D01*
X1199899Y786792D01*
X1198875Y789264D01*
X1197246Y791386D01*
X1195124Y793015D01*
X1192652Y794038D01*
X1190000Y794388D01*
D02*
G37*
G36*
X1070000D02*
X1067348Y794038D01*
X1064876Y793015D01*
X1062754Y791386D01*
X1061125Y789264D01*
X1060101Y786792D01*
X1059752Y784140D01*
X1060101Y781488D01*
X1061125Y779016D01*
X1062754Y776894D01*
X1064876Y775265D01*
X1067348Y774241D01*
X1070000Y773892D01*
X1072652Y774241D01*
X1075124Y775265D01*
X1077246Y776894D01*
X1078875Y779016D01*
X1079899Y781488D01*
X1080248Y784140D01*
X1079899Y786792D01*
X1078875Y789264D01*
X1077246Y791386D01*
X1075124Y793015D01*
X1072652Y794038D01*
X1070000Y794388D01*
D02*
G37*
G36*
X950000D02*
X947348Y794038D01*
X944876Y793015D01*
X942754Y791386D01*
X941125Y789264D01*
X940101Y786792D01*
X939752Y784140D01*
X940101Y781488D01*
X941125Y779016D01*
X942754Y776894D01*
X944876Y775265D01*
X947348Y774241D01*
X950000Y773892D01*
X952652Y774241D01*
X955124Y775265D01*
X957246Y776894D01*
X958875Y779016D01*
X959899Y781488D01*
X960248Y784140D01*
X959899Y786792D01*
X958875Y789264D01*
X957246Y791386D01*
X955124Y793015D01*
X952652Y794038D01*
X950000Y794388D01*
D02*
G37*
G36*
X830000D02*
X827348Y794038D01*
X824876Y793015D01*
X822754Y791386D01*
X821125Y789264D01*
X820101Y786792D01*
X819752Y784140D01*
X820101Y781488D01*
X821125Y779016D01*
X822754Y776894D01*
X824876Y775265D01*
X827348Y774241D01*
X830000Y773892D01*
X832652Y774241D01*
X835124Y775265D01*
X837246Y776894D01*
X838875Y779016D01*
X839899Y781488D01*
X840248Y784140D01*
X839899Y786792D01*
X838875Y789264D01*
X837246Y791386D01*
X835124Y793015D01*
X832652Y794038D01*
X830000Y794388D01*
D02*
G37*
G36*
X710000D02*
X707348Y794038D01*
X704876Y793015D01*
X702754Y791386D01*
X701125Y789264D01*
X700101Y786792D01*
X699752Y784140D01*
X700101Y781488D01*
X701125Y779016D01*
X702754Y776894D01*
X704876Y775265D01*
X707348Y774241D01*
X710000Y773892D01*
X712652Y774241D01*
X715124Y775265D01*
X717246Y776894D01*
X718875Y779016D01*
X719899Y781488D01*
X720248Y784140D01*
X719899Y786792D01*
X718875Y789264D01*
X717246Y791386D01*
X715124Y793015D01*
X712652Y794038D01*
X710000Y794388D01*
D02*
G37*
G36*
X590000D02*
X587348Y794038D01*
X584876Y793015D01*
X582754Y791386D01*
X581125Y789264D01*
X580102Y786792D01*
X579752Y784140D01*
X580102Y781488D01*
X581125Y779016D01*
X582754Y776894D01*
X584876Y775265D01*
X587348Y774241D01*
X590000Y773892D01*
X592652Y774241D01*
X595124Y775265D01*
X597246Y776894D01*
X598875Y779016D01*
X599898Y781488D01*
X600248Y784140D01*
X599898Y786792D01*
X598875Y789264D01*
X597246Y791386D01*
X595124Y793015D01*
X592652Y794038D01*
X590000Y794388D01*
D02*
G37*
G36*
X470000D02*
X467348Y794038D01*
X464876Y793015D01*
X462754Y791386D01*
X461125Y789264D01*
X460102Y786792D01*
X459752Y784140D01*
X460102Y781488D01*
X461125Y779016D01*
X462754Y776894D01*
X464876Y775265D01*
X467348Y774241D01*
X470000Y773892D01*
X472652Y774241D01*
X475124Y775265D01*
X477246Y776894D01*
X478875Y779016D01*
X479898Y781488D01*
X480248Y784140D01*
X479898Y786792D01*
X478875Y789264D01*
X477246Y791386D01*
X475124Y793015D01*
X472652Y794038D01*
X470000Y794388D01*
D02*
G37*
G36*
X350000D02*
X347348Y794038D01*
X344876Y793015D01*
X342754Y791386D01*
X341125Y789264D01*
X340102Y786792D01*
X339752Y784140D01*
X340102Y781488D01*
X341125Y779016D01*
X342754Y776894D01*
X344876Y775265D01*
X347348Y774241D01*
X350000Y773892D01*
X352652Y774241D01*
X355124Y775265D01*
X357246Y776894D01*
X358875Y779016D01*
X359898Y781488D01*
X360248Y784140D01*
X359898Y786792D01*
X358875Y789264D01*
X357246Y791386D01*
X355124Y793015D01*
X352652Y794038D01*
X350000Y794388D01*
D02*
G37*
G36*
X230000D02*
X227348Y794038D01*
X224876Y793015D01*
X222754Y791386D01*
X221125Y789264D01*
X220102Y786792D01*
X219752Y784140D01*
X220102Y781488D01*
X221125Y779016D01*
X222754Y776894D01*
X224876Y775265D01*
X227348Y774241D01*
X230000Y773892D01*
X232652Y774241D01*
X235124Y775265D01*
X237246Y776894D01*
X238875Y779016D01*
X239898Y781488D01*
X240248Y784140D01*
X239898Y786792D01*
X238875Y789264D01*
X237246Y791386D01*
X235124Y793015D01*
X232652Y794038D01*
X230000Y794388D01*
D02*
G37*
G36*
X1310000Y769388D02*
X1307348Y769038D01*
X1304876Y768015D01*
X1302754Y766386D01*
X1301125Y764264D01*
X1300101Y761792D01*
X1299752Y759140D01*
X1300101Y756488D01*
X1301125Y754016D01*
X1302754Y751894D01*
X1304876Y750265D01*
X1305933Y749827D01*
Y748453D01*
X1304876Y748015D01*
X1302754Y746386D01*
X1301125Y744264D01*
X1300101Y741792D01*
X1299752Y739140D01*
X1300101Y736488D01*
X1301125Y734016D01*
X1302754Y731894D01*
X1304876Y730265D01*
X1307348Y729241D01*
X1310000Y728892D01*
X1312652Y729241D01*
X1315124Y730265D01*
X1317246Y731894D01*
X1318875Y734016D01*
X1319899Y736488D01*
X1320248Y739140D01*
X1319899Y741792D01*
X1318875Y744264D01*
X1317246Y746386D01*
X1315124Y748015D01*
X1314067Y748453D01*
Y749827D01*
X1315124Y750265D01*
X1317246Y751894D01*
X1318875Y754016D01*
X1319899Y756488D01*
X1320248Y759140D01*
X1319899Y761792D01*
X1318875Y764264D01*
X1317246Y766386D01*
X1315124Y768015D01*
X1312652Y769038D01*
X1310000Y769388D01*
D02*
G37*
G36*
X1190000D02*
X1187348Y769038D01*
X1184876Y768015D01*
X1182754Y766386D01*
X1181125Y764264D01*
X1180101Y761792D01*
X1179752Y759140D01*
X1180101Y756488D01*
X1181125Y754016D01*
X1182754Y751894D01*
X1184876Y750265D01*
X1185933Y749827D01*
Y748453D01*
X1184876Y748015D01*
X1182754Y746386D01*
X1181125Y744264D01*
X1180101Y741792D01*
X1179752Y739140D01*
X1180101Y736488D01*
X1181125Y734016D01*
X1182754Y731894D01*
X1184876Y730265D01*
X1187348Y729241D01*
X1190000Y728892D01*
X1192652Y729241D01*
X1195124Y730265D01*
X1197246Y731894D01*
X1198875Y734016D01*
X1199899Y736488D01*
X1200248Y739140D01*
X1199899Y741792D01*
X1198875Y744264D01*
X1197246Y746386D01*
X1195124Y748015D01*
X1194067Y748453D01*
Y749827D01*
X1195124Y750265D01*
X1197246Y751894D01*
X1198875Y754016D01*
X1199899Y756488D01*
X1200248Y759140D01*
X1199899Y761792D01*
X1198875Y764264D01*
X1197246Y766386D01*
X1195124Y768015D01*
X1192652Y769038D01*
X1190000Y769388D01*
D02*
G37*
G36*
X1070000D02*
X1067348Y769038D01*
X1064876Y768015D01*
X1062754Y766386D01*
X1061125Y764264D01*
X1060101Y761792D01*
X1059752Y759140D01*
X1060101Y756488D01*
X1061125Y754016D01*
X1062754Y751894D01*
X1064876Y750265D01*
X1065933Y749827D01*
Y748453D01*
X1064876Y748015D01*
X1062754Y746386D01*
X1061125Y744264D01*
X1060101Y741792D01*
X1059752Y739140D01*
X1060101Y736488D01*
X1061125Y734016D01*
X1062754Y731894D01*
X1064876Y730265D01*
X1067348Y729241D01*
X1070000Y728892D01*
X1072652Y729241D01*
X1075124Y730265D01*
X1077246Y731894D01*
X1078875Y734016D01*
X1079899Y736488D01*
X1080248Y739140D01*
X1079899Y741792D01*
X1078875Y744264D01*
X1077246Y746386D01*
X1075124Y748015D01*
X1074067Y748453D01*
Y749827D01*
X1075124Y750265D01*
X1077246Y751894D01*
X1078875Y754016D01*
X1079899Y756488D01*
X1080248Y759140D01*
X1079899Y761792D01*
X1078875Y764264D01*
X1077246Y766386D01*
X1075124Y768015D01*
X1072652Y769038D01*
X1070000Y769388D01*
D02*
G37*
G36*
X950000D02*
X947348Y769038D01*
X944876Y768015D01*
X942754Y766386D01*
X941125Y764264D01*
X940101Y761792D01*
X939752Y759140D01*
X940101Y756488D01*
X941125Y754016D01*
X942754Y751894D01*
X944876Y750265D01*
X945933Y749827D01*
Y748453D01*
X944876Y748015D01*
X942754Y746386D01*
X941125Y744264D01*
X940101Y741792D01*
X939752Y739140D01*
X940101Y736488D01*
X941125Y734016D01*
X942754Y731894D01*
X944876Y730265D01*
X947348Y729241D01*
X950000Y728892D01*
X952652Y729241D01*
X955124Y730265D01*
X957246Y731894D01*
X958875Y734016D01*
X959899Y736488D01*
X960248Y739140D01*
X959899Y741792D01*
X958875Y744264D01*
X957246Y746386D01*
X955124Y748015D01*
X954067Y748453D01*
Y749827D01*
X955124Y750265D01*
X957246Y751894D01*
X958875Y754016D01*
X959899Y756488D01*
X960248Y759140D01*
X959899Y761792D01*
X958875Y764264D01*
X957246Y766386D01*
X955124Y768015D01*
X952652Y769038D01*
X950000Y769388D01*
D02*
G37*
G36*
X830000D02*
X827348Y769038D01*
X824876Y768015D01*
X822754Y766386D01*
X821125Y764264D01*
X820101Y761792D01*
X819752Y759140D01*
X820101Y756488D01*
X821125Y754016D01*
X822754Y751894D01*
X824876Y750265D01*
X825933Y749827D01*
Y748453D01*
X824876Y748015D01*
X822754Y746386D01*
X821125Y744264D01*
X820101Y741792D01*
X819752Y739140D01*
X820101Y736488D01*
X821125Y734016D01*
X822754Y731894D01*
X824876Y730265D01*
X827348Y729241D01*
X830000Y728892D01*
X832652Y729241D01*
X835124Y730265D01*
X837246Y731894D01*
X838875Y734016D01*
X839899Y736488D01*
X840248Y739140D01*
X839899Y741792D01*
X838875Y744264D01*
X837246Y746386D01*
X835124Y748015D01*
X834067Y748453D01*
Y749827D01*
X835124Y750265D01*
X837246Y751894D01*
X838875Y754016D01*
X839899Y756488D01*
X840248Y759140D01*
X839899Y761792D01*
X838875Y764264D01*
X837246Y766386D01*
X835124Y768015D01*
X832652Y769038D01*
X830000Y769388D01*
D02*
G37*
G36*
X710000D02*
X707348Y769038D01*
X704876Y768015D01*
X702754Y766386D01*
X701125Y764264D01*
X700101Y761792D01*
X699752Y759140D01*
X700101Y756488D01*
X701125Y754016D01*
X702754Y751894D01*
X704876Y750265D01*
X705933Y749827D01*
Y748453D01*
X704876Y748015D01*
X702754Y746386D01*
X701125Y744264D01*
X700101Y741792D01*
X699752Y739140D01*
X700101Y736488D01*
X701125Y734016D01*
X702754Y731894D01*
X704876Y730265D01*
X707348Y729241D01*
X710000Y728892D01*
X712652Y729241D01*
X715124Y730265D01*
X717246Y731894D01*
X718875Y734016D01*
X719899Y736488D01*
X720248Y739140D01*
X719899Y741792D01*
X718875Y744264D01*
X717246Y746386D01*
X715124Y748015D01*
X714067Y748453D01*
Y749827D01*
X715124Y750265D01*
X717246Y751894D01*
X718875Y754016D01*
X719899Y756488D01*
X720248Y759140D01*
X719899Y761792D01*
X718875Y764264D01*
X717246Y766386D01*
X715124Y768015D01*
X712652Y769038D01*
X710000Y769388D01*
D02*
G37*
G36*
X590000D02*
X587348Y769038D01*
X584876Y768015D01*
X582754Y766386D01*
X581125Y764264D01*
X580102Y761792D01*
X579752Y759140D01*
X580102Y756488D01*
X581125Y754016D01*
X582754Y751894D01*
X584876Y750265D01*
X585933Y749827D01*
Y748453D01*
X584876Y748015D01*
X582754Y746386D01*
X581125Y744264D01*
X580102Y741792D01*
X579752Y739140D01*
X580102Y736488D01*
X581125Y734016D01*
X582754Y731894D01*
X584876Y730265D01*
X587348Y729241D01*
X590000Y728892D01*
X592652Y729241D01*
X595124Y730265D01*
X597246Y731894D01*
X598875Y734016D01*
X599898Y736488D01*
X600248Y739140D01*
X599898Y741792D01*
X598875Y744264D01*
X597246Y746386D01*
X595124Y748015D01*
X594067Y748453D01*
Y749827D01*
X595124Y750265D01*
X597246Y751894D01*
X598875Y754016D01*
X599898Y756488D01*
X600248Y759140D01*
X599898Y761792D01*
X598875Y764264D01*
X597246Y766386D01*
X595124Y768015D01*
X592652Y769038D01*
X590000Y769388D01*
D02*
G37*
G36*
X470000D02*
X467348Y769038D01*
X464876Y768015D01*
X462754Y766386D01*
X461125Y764264D01*
X460102Y761792D01*
X459752Y759140D01*
X460102Y756488D01*
X461125Y754016D01*
X462754Y751894D01*
X464876Y750265D01*
X465933Y749827D01*
Y748453D01*
X464876Y748015D01*
X462754Y746386D01*
X461125Y744264D01*
X460102Y741792D01*
X459752Y739140D01*
X460102Y736488D01*
X461125Y734016D01*
X462754Y731894D01*
X464876Y730265D01*
X467348Y729241D01*
X470000Y728892D01*
X472652Y729241D01*
X475124Y730265D01*
X477246Y731894D01*
X478875Y734016D01*
X479898Y736488D01*
X480248Y739140D01*
X479898Y741792D01*
X478875Y744264D01*
X477246Y746386D01*
X475124Y748015D01*
X474067Y748453D01*
Y749827D01*
X475124Y750265D01*
X477246Y751894D01*
X478875Y754016D01*
X479898Y756488D01*
X480248Y759140D01*
X479898Y761792D01*
X478875Y764264D01*
X477246Y766386D01*
X475124Y768015D01*
X472652Y769038D01*
X470000Y769388D01*
D02*
G37*
G36*
X350000D02*
X347348Y769038D01*
X344876Y768015D01*
X342754Y766386D01*
X341125Y764264D01*
X340102Y761792D01*
X339752Y759140D01*
X340102Y756488D01*
X341125Y754016D01*
X342754Y751894D01*
X344876Y750265D01*
X345933Y749827D01*
Y748453D01*
X344876Y748015D01*
X342754Y746386D01*
X341125Y744264D01*
X340102Y741792D01*
X339752Y739140D01*
X340102Y736488D01*
X341125Y734016D01*
X342754Y731894D01*
X344876Y730265D01*
X347348Y729241D01*
X350000Y728892D01*
X352652Y729241D01*
X355124Y730265D01*
X357246Y731894D01*
X358875Y734016D01*
X359898Y736488D01*
X360248Y739140D01*
X359898Y741792D01*
X358875Y744264D01*
X357246Y746386D01*
X355124Y748015D01*
X354067Y748453D01*
Y749827D01*
X355124Y750265D01*
X357246Y751894D01*
X358875Y754016D01*
X359898Y756488D01*
X360248Y759140D01*
X359898Y761792D01*
X358875Y764264D01*
X357246Y766386D01*
X355124Y768015D01*
X352652Y769038D01*
X350000Y769388D01*
D02*
G37*
G36*
X230000D02*
X227348Y769038D01*
X224876Y768015D01*
X222754Y766386D01*
X221125Y764264D01*
X220102Y761792D01*
X219752Y759140D01*
X220102Y756488D01*
X221125Y754016D01*
X222754Y751894D01*
X224876Y750265D01*
X225933Y749827D01*
Y748453D01*
X224876Y748015D01*
X222754Y746386D01*
X221125Y744264D01*
X220102Y741792D01*
X219752Y739140D01*
X220102Y736488D01*
X221125Y734016D01*
X222754Y731894D01*
X224876Y730265D01*
X227348Y729241D01*
X230000Y728892D01*
X232652Y729241D01*
X235124Y730265D01*
X237246Y731894D01*
X238875Y734016D01*
X239898Y736488D01*
X240248Y739140D01*
X239898Y741792D01*
X238875Y744264D01*
X237246Y746386D01*
X235124Y748015D01*
X234067Y748453D01*
Y749827D01*
X235124Y750265D01*
X237246Y751894D01*
X238875Y754016D01*
X239898Y756488D01*
X240248Y759140D01*
X239898Y761792D01*
X238875Y764264D01*
X237246Y766386D01*
X235124Y768015D01*
X232652Y769038D01*
X230000Y769388D01*
D02*
G37*
G36*
X1522730Y710004D02*
Y700810D01*
X1531924D01*
X1531729Y702291D01*
X1530667Y704855D01*
X1528977Y707057D01*
X1526776Y708747D01*
X1524211Y709809D01*
X1522730Y710004D01*
D02*
G37*
G36*
X40640D02*
Y700810D01*
X49834D01*
X49639Y702291D01*
X48577Y704855D01*
X46887Y707057D01*
X44686Y708747D01*
X42122Y709809D01*
X40640Y710004D01*
D02*
G37*
G36*
X1520190Y710004D02*
X1518708Y709809D01*
X1516145Y708747D01*
X1513943Y707057D01*
X1512253Y704855D01*
X1511191Y702291D01*
X1510996Y700810D01*
X1520190D01*
Y710004D01*
D02*
G37*
G36*
X38100D02*
X36618Y709809D01*
X34055Y708747D01*
X31853Y707057D01*
X30163Y704855D01*
X29101Y702291D01*
X28906Y700810D01*
X38100D01*
Y710004D01*
D02*
G37*
G36*
X1520190Y698270D02*
X1510996D01*
X1511191Y696788D01*
X1512253Y694224D01*
X1513943Y692023D01*
X1516145Y690333D01*
X1518708Y689271D01*
X1520190Y689076D01*
Y698270D01*
D02*
G37*
G36*
X38100D02*
X28906D01*
X29101Y696788D01*
X30163Y694224D01*
X31853Y692023D01*
X34055Y690333D01*
X36618Y689271D01*
X38100Y689076D01*
Y698270D01*
D02*
G37*
G36*
X49834D02*
X40640D01*
Y689076D01*
X42122Y689271D01*
X44686Y690333D01*
X46887Y692023D01*
X48577Y694224D01*
X49639Y696788D01*
X49834Y698270D01*
D02*
G37*
G36*
X1531924D02*
X1522730D01*
Y689076D01*
X1524211Y689271D01*
X1526776Y690333D01*
X1528977Y692023D01*
X1530667Y694224D01*
X1531729Y696788D01*
X1531924Y698270D01*
D02*
G37*
G36*
X1045120Y662540D02*
X1039350D01*
Y656270D01*
X1045120D01*
Y662540D01*
D02*
G37*
G36*
X1036810D02*
X1031040D01*
Y656270D01*
X1036810D01*
Y662540D01*
D02*
G37*
G36*
X324150D02*
X318380D01*
Y656270D01*
X324150D01*
Y662540D01*
D02*
G37*
G36*
X315840D02*
X310070D01*
Y656270D01*
X315840D01*
Y662540D01*
D02*
G37*
G36*
X804210D02*
X798440D01*
Y656270D01*
X804210D01*
Y662540D01*
D02*
G37*
G36*
X684830D02*
X679060D01*
Y656270D01*
X684830D01*
Y662540D01*
D02*
G37*
G36*
X564180D02*
X558410D01*
Y656270D01*
X564180D01*
Y662540D01*
D02*
G37*
G36*
X446070D02*
X440300D01*
Y656270D01*
X446070D01*
Y662540D01*
D02*
G37*
G36*
X1404920D02*
X1399150D01*
Y656270D01*
X1404920D01*
Y662540D01*
D02*
G37*
G36*
X1284270D02*
X1278500D01*
Y656270D01*
X1284270D01*
Y662540D01*
D02*
G37*
G36*
X1164890D02*
X1159120D01*
Y656270D01*
X1164890D01*
Y662540D01*
D02*
G37*
G36*
X923590D02*
X917820D01*
Y656270D01*
X923590D01*
Y662540D01*
D02*
G37*
G36*
X795900D02*
X790130D01*
Y656270D01*
X795900D01*
Y662540D01*
D02*
G37*
G36*
X676520D02*
X670750D01*
Y656270D01*
X676520D01*
Y662540D01*
D02*
G37*
G36*
X437760D02*
X431990D01*
Y656270D01*
X437760D01*
Y662540D01*
D02*
G37*
G36*
X555870D02*
X550100D01*
Y656270D01*
X555870D01*
Y662540D01*
D02*
G37*
G36*
X1396610D02*
X1390840D01*
Y656270D01*
X1396610D01*
Y662540D01*
D02*
G37*
G36*
X1156580D02*
X1150810D01*
Y656270D01*
X1156580D01*
Y662540D01*
D02*
G37*
G36*
X1275960D02*
X1270190D01*
Y656270D01*
X1275960D01*
Y662540D01*
D02*
G37*
G36*
X915280D02*
X909510D01*
Y656270D01*
X915280D01*
Y662540D01*
D02*
G37*
G36*
X1521460Y675171D02*
X1518708Y674809D01*
X1516145Y673747D01*
X1513943Y672057D01*
X1512253Y669855D01*
X1511191Y667291D01*
X1510829Y664540D01*
X1511191Y661788D01*
X1512253Y659225D01*
X1513943Y657023D01*
X1516145Y655333D01*
X1518708Y654271D01*
X1521460Y653909D01*
X1524211Y654271D01*
X1526776Y655333D01*
X1528977Y657023D01*
X1530667Y659225D01*
X1531729Y661788D01*
X1532091Y664540D01*
X1531729Y667291D01*
X1530667Y669855D01*
X1528977Y672057D01*
X1526776Y673747D01*
X1524211Y674809D01*
X1521460Y675171D01*
D02*
G37*
G36*
X39370D02*
X36618Y674809D01*
X34055Y673747D01*
X31853Y672057D01*
X30163Y669855D01*
X29101Y667291D01*
X28739Y664540D01*
X29101Y661788D01*
X30163Y659225D01*
X31853Y657023D01*
X34055Y655333D01*
X36618Y654271D01*
X39370Y653909D01*
X42122Y654271D01*
X44686Y655333D01*
X46887Y657023D01*
X48577Y659224D01*
X49639Y661788D01*
X50001Y664540D01*
X49639Y667291D01*
X48577Y669855D01*
X46887Y672057D01*
X44686Y673747D01*
X42122Y674809D01*
X39370Y675171D01*
D02*
G37*
G36*
X1404920Y653730D02*
X1399150D01*
Y647460D01*
X1404920D01*
Y653730D01*
D02*
G37*
G36*
X1396610D02*
X1390840D01*
Y647460D01*
X1396610D01*
Y653730D01*
D02*
G37*
G36*
X1284270D02*
X1278500D01*
Y647460D01*
X1284270D01*
Y653730D01*
D02*
G37*
G36*
X1275960D02*
X1270190D01*
Y647460D01*
X1275960D01*
Y653730D01*
D02*
G37*
G36*
X1164890D02*
X1159120D01*
Y647460D01*
X1164890D01*
Y653730D01*
D02*
G37*
G36*
X1156580D02*
X1150810D01*
Y647460D01*
X1156580D01*
Y653730D01*
D02*
G37*
G36*
X1045120Y653730D02*
X1039350D01*
Y647460D01*
X1045120D01*
Y653730D01*
D02*
G37*
G36*
X1036810D02*
X1031040D01*
Y647460D01*
X1036810D01*
Y653730D01*
D02*
G37*
G36*
X923590Y653730D02*
X917820D01*
Y647460D01*
X923590D01*
Y653730D01*
D02*
G37*
G36*
X915280D02*
X909510D01*
Y647460D01*
X915280D01*
Y653730D01*
D02*
G37*
G36*
X804210D02*
X798440D01*
Y647460D01*
X804210D01*
Y653730D01*
D02*
G37*
G36*
X795900D02*
X790130D01*
Y647460D01*
X795900D01*
Y653730D01*
D02*
G37*
G36*
X684830D02*
X679060D01*
Y647460D01*
X684830D01*
Y653730D01*
D02*
G37*
G36*
X676520D02*
X670750D01*
Y647460D01*
X676520D01*
Y653730D01*
D02*
G37*
G36*
X564180D02*
X558410D01*
Y647460D01*
X564180D01*
Y653730D01*
D02*
G37*
G36*
X555870D02*
X550100D01*
Y647460D01*
X555870D01*
Y653730D01*
D02*
G37*
G36*
X446070D02*
X440300D01*
Y647460D01*
X446070D01*
Y653730D01*
D02*
G37*
G36*
X437760D02*
X431990D01*
Y647460D01*
X437760D01*
Y653730D01*
D02*
G37*
G36*
X324150Y653730D02*
X318380D01*
Y647460D01*
X324150D01*
Y653730D01*
D02*
G37*
G36*
X315840D02*
X310070D01*
Y647460D01*
X315840D01*
Y653730D01*
D02*
G37*
G36*
X1521460Y640171D02*
X1518708Y639809D01*
X1516145Y638747D01*
X1513943Y637057D01*
X1512253Y634855D01*
X1511191Y632291D01*
X1510829Y629540D01*
X1511191Y626788D01*
X1512253Y624225D01*
X1513943Y622023D01*
X1516145Y620333D01*
X1518708Y619271D01*
X1521460Y618909D01*
X1524211Y619271D01*
X1526776Y620333D01*
X1528977Y622023D01*
X1530667Y624225D01*
X1531729Y626788D01*
X1532091Y629540D01*
X1531729Y632291D01*
X1530667Y634855D01*
X1528977Y637057D01*
X1526776Y638747D01*
X1524211Y639809D01*
X1521460Y640171D01*
D02*
G37*
G36*
X39370D02*
X36618Y639809D01*
X34055Y638747D01*
X31853Y637057D01*
X30163Y634855D01*
X29101Y632291D01*
X28739Y629540D01*
X29101Y626788D01*
X30163Y624225D01*
X31853Y622023D01*
X34055Y620333D01*
X36618Y619271D01*
X39370Y618909D01*
X42122Y619271D01*
X44686Y620333D01*
X46887Y622023D01*
X48577Y624225D01*
X49639Y626788D01*
X50001Y629540D01*
X49639Y632291D01*
X48577Y634855D01*
X46887Y637057D01*
X44686Y638747D01*
X42122Y639809D01*
X39370Y640171D01*
D02*
G37*
G36*
X1470660Y911159D02*
X1468498Y910729D01*
X1466666Y909504D01*
X1465441Y907672D01*
X1465011Y905510D01*
X1465441Y903348D01*
X1466666Y901516D01*
X1466775Y901443D01*
Y645340D01*
X1467071Y643853D01*
X1467913Y642593D01*
X1511784Y598722D01*
X1511191Y597291D01*
X1510829Y594540D01*
X1511191Y591788D01*
X1512253Y589225D01*
X1513943Y587023D01*
X1516145Y585333D01*
X1518708Y584271D01*
X1521460Y583909D01*
X1524211Y584271D01*
X1526776Y585333D01*
X1528977Y587023D01*
X1530667Y589225D01*
X1531729Y591788D01*
X1532091Y594540D01*
X1531729Y597291D01*
X1530667Y599855D01*
X1528977Y602057D01*
X1526776Y603747D01*
X1524211Y604809D01*
X1521460Y605171D01*
X1518708Y604809D01*
X1517278Y604216D01*
X1474545Y646949D01*
Y901443D01*
X1474654Y901516D01*
X1475879Y903348D01*
X1476308Y905510D01*
X1475879Y907672D01*
X1474654Y909504D01*
X1472822Y910729D01*
X1470660Y911159D01*
D02*
G37*
G36*
X39370Y605171D02*
X36618Y604809D01*
X34055Y603747D01*
X31853Y602057D01*
X30163Y599855D01*
X29101Y597291D01*
X28739Y594540D01*
X29101Y591788D01*
X30163Y589225D01*
X31853Y587023D01*
X34055Y585333D01*
X36618Y584271D01*
X39370Y583909D01*
X42122Y584271D01*
X44686Y585333D01*
X46887Y587023D01*
X48577Y589225D01*
X49639Y591788D01*
X50001Y594540D01*
X49639Y597291D01*
X48577Y599855D01*
X46887Y602057D01*
X44686Y603747D01*
X42122Y604809D01*
X39370Y605171D01*
D02*
G37*
G36*
X1452880Y894649D02*
X1450718Y894219D01*
X1448886Y892994D01*
X1447661Y891162D01*
X1447231Y889000D01*
X1447661Y886838D01*
X1448886Y885006D01*
X1448995Y884933D01*
Y628120D01*
X1449291Y626633D01*
X1450133Y625373D01*
X1511784Y563722D01*
X1511191Y562291D01*
X1510829Y559540D01*
X1511191Y556788D01*
X1512253Y554225D01*
X1513943Y552023D01*
X1516145Y550333D01*
X1518708Y549271D01*
X1521460Y548909D01*
X1524211Y549271D01*
X1526776Y550333D01*
X1528977Y552023D01*
X1530667Y554225D01*
X1531729Y556788D01*
X1532091Y559540D01*
X1531729Y562291D01*
X1530667Y564855D01*
X1528977Y567057D01*
X1526776Y568747D01*
X1524211Y569809D01*
X1521460Y570171D01*
X1518708Y569809D01*
X1517278Y569216D01*
X1456765Y629729D01*
Y884933D01*
X1456874Y885006D01*
X1458099Y886838D01*
X1458528Y889000D01*
X1458099Y891162D01*
X1456874Y892994D01*
X1455042Y894219D01*
X1452880Y894649D01*
D02*
G37*
G36*
X39370Y570171D02*
X36618Y569809D01*
X34055Y568747D01*
X31853Y567057D01*
X30163Y564855D01*
X29101Y562291D01*
X28739Y559540D01*
X29101Y556788D01*
X30163Y554225D01*
X31853Y552023D01*
X34055Y550333D01*
X36618Y549271D01*
X39370Y548909D01*
X42122Y549271D01*
X44686Y550333D01*
X46887Y552023D01*
X48577Y554225D01*
X49639Y556788D01*
X50001Y559540D01*
X49639Y562291D01*
X48577Y564855D01*
X46887Y567057D01*
X44686Y568747D01*
X42122Y569809D01*
X39370Y570171D01*
D02*
G37*
G36*
X1437640Y874329D02*
X1435478Y873899D01*
X1433646Y872674D01*
X1432421Y870842D01*
X1431991Y868680D01*
X1432421Y866518D01*
X1433646Y864686D01*
X1433755Y864613D01*
Y608360D01*
X1434051Y606873D01*
X1434893Y605613D01*
X1511784Y528722D01*
X1511191Y527291D01*
X1510829Y524540D01*
X1511191Y521788D01*
X1512253Y519225D01*
X1513943Y517023D01*
X1516145Y515333D01*
X1518708Y514271D01*
X1521460Y513909D01*
X1524211Y514271D01*
X1526776Y515333D01*
X1528977Y517023D01*
X1530667Y519225D01*
X1531729Y521788D01*
X1532091Y524540D01*
X1531729Y527291D01*
X1530667Y529855D01*
X1528977Y532057D01*
X1526776Y533747D01*
X1524211Y534809D01*
X1521460Y535171D01*
X1518708Y534809D01*
X1517278Y534216D01*
X1441525Y609969D01*
Y864613D01*
X1441634Y864686D01*
X1442859Y866518D01*
X1443289Y868680D01*
X1442859Y870842D01*
X1441634Y872674D01*
X1439802Y873899D01*
X1437640Y874329D01*
D02*
G37*
G36*
X39370Y535171D02*
X36618Y534809D01*
X34055Y533747D01*
X31853Y532057D01*
X30163Y529855D01*
X29101Y527291D01*
X28739Y524540D01*
X29101Y521788D01*
X30163Y519225D01*
X31853Y517023D01*
X34055Y515333D01*
X36618Y514271D01*
X39370Y513909D01*
X42122Y514271D01*
X44686Y515333D01*
X46887Y517023D01*
X48577Y519225D01*
X49639Y521788D01*
X50001Y524540D01*
X49639Y527291D01*
X48577Y529855D01*
X46887Y532057D01*
X44686Y533747D01*
X42122Y534809D01*
X39370Y535171D01*
D02*
G37*
G36*
X1329690Y1187525D02*
X1275080D01*
X1273593Y1187229D01*
X1272333Y1186387D01*
X1263518Y1177571D01*
X1261582Y1178373D01*
X1258570Y1178770D01*
X1255557Y1178373D01*
X1252750Y1177210D01*
X1250340Y1175360D01*
X1248490Y1172950D01*
X1247688Y1171015D01*
X1244052D01*
X1243250Y1172950D01*
X1241400Y1175360D01*
X1238990Y1177210D01*
X1236182Y1178373D01*
X1233170Y1178770D01*
X1230157Y1178373D01*
X1227350Y1177210D01*
X1224940Y1175360D01*
X1223090Y1172950D01*
X1221927Y1170143D01*
X1221530Y1167130D01*
X1221927Y1164118D01*
X1222729Y1162182D01*
X1198541Y1137995D01*
X844470D01*
Y1141150D01*
X829390D01*
Y1137995D01*
X823217D01*
X823144Y1138104D01*
X821312Y1139329D01*
X819150Y1139759D01*
X816988Y1139329D01*
X815156Y1138104D01*
X813931Y1136272D01*
X813502Y1134110D01*
X813931Y1131948D01*
X815156Y1130116D01*
X816988Y1128891D01*
X819150Y1128462D01*
X821312Y1128891D01*
X823144Y1130116D01*
X823217Y1130225D01*
X829390D01*
Y1127070D01*
X844470D01*
Y1130225D01*
X1200150D01*
X1201637Y1130521D01*
X1202897Y1131363D01*
X1228222Y1156689D01*
X1230157Y1155887D01*
X1233170Y1155490D01*
X1236182Y1155887D01*
X1238990Y1157050D01*
X1241400Y1158900D01*
X1243250Y1161310D01*
X1244052Y1163245D01*
X1247688D01*
X1248490Y1161310D01*
X1250340Y1158900D01*
X1252750Y1157050D01*
X1255557Y1155887D01*
X1258570Y1155490D01*
X1261582Y1155887D01*
X1264390Y1157050D01*
X1266800Y1158900D01*
X1268650Y1161310D01*
X1269813Y1164118D01*
X1270210Y1167130D01*
X1269813Y1170143D01*
X1269011Y1172078D01*
X1276689Y1179755D01*
X1281728D01*
X1281811Y1178485D01*
X1280957Y1178373D01*
X1278150Y1177210D01*
X1275740Y1175360D01*
X1273890Y1172950D01*
X1272727Y1170143D01*
X1272330Y1167130D01*
X1272727Y1164118D01*
X1273890Y1161310D01*
X1275740Y1158900D01*
X1278150Y1157050D01*
X1280957Y1155887D01*
X1283970Y1155490D01*
X1286983Y1155887D01*
X1288918Y1156689D01*
X1318185Y1127421D01*
Y1006097D01*
X1318076Y1006024D01*
X1316851Y1004192D01*
X1316422Y1002030D01*
X1316851Y999868D01*
X1318076Y998036D01*
X1319908Y996811D01*
X1322070Y996382D01*
X1324232Y996811D01*
X1326064Y998036D01*
X1327289Y999868D01*
X1327719Y1002030D01*
X1327289Y1004192D01*
X1326064Y1006024D01*
X1325955Y1006097D01*
Y1129030D01*
X1325659Y1130517D01*
X1324817Y1131777D01*
X1294411Y1162182D01*
X1295213Y1164118D01*
X1295610Y1167130D01*
X1295213Y1170143D01*
X1294050Y1172950D01*
X1292200Y1175360D01*
X1289790Y1177210D01*
X1286983Y1178373D01*
X1286129Y1178485D01*
X1286212Y1179755D01*
X1328081D01*
X1492175Y1015661D01*
Y775440D01*
X1492471Y773953D01*
X1493313Y772693D01*
X1511784Y754222D01*
X1511191Y752792D01*
X1510829Y750040D01*
X1511191Y747289D01*
X1512253Y744725D01*
X1513943Y742523D01*
X1516145Y740833D01*
X1518708Y739771D01*
X1521460Y739409D01*
X1524211Y739771D01*
X1525642Y740364D01*
X1540435Y725571D01*
Y514009D01*
X1525642Y499216D01*
X1524211Y499809D01*
X1521460Y500171D01*
X1518708Y499809D01*
X1516145Y498747D01*
X1513943Y497057D01*
X1512253Y494855D01*
X1511191Y492291D01*
X1510829Y489540D01*
X1511191Y486788D01*
X1512253Y484225D01*
X1513943Y482023D01*
X1516145Y480333D01*
X1518708Y479271D01*
X1521460Y478909D01*
X1524211Y479271D01*
X1526776Y480333D01*
X1528977Y482023D01*
X1530667Y484225D01*
X1531729Y486788D01*
X1532091Y489540D01*
X1531729Y492291D01*
X1531136Y493722D01*
X1547067Y509653D01*
X1547909Y510913D01*
X1548205Y512400D01*
Y727180D01*
X1547909Y728667D01*
X1547067Y729927D01*
X1531136Y745858D01*
X1531729Y747289D01*
X1532091Y750040D01*
X1531729Y752792D01*
X1530667Y755356D01*
X1528977Y757557D01*
X1526776Y759247D01*
X1524211Y760309D01*
X1521460Y760671D01*
X1518708Y760309D01*
X1517278Y759716D01*
X1499945Y777049D01*
Y1017270D01*
X1499649Y1018757D01*
X1498807Y1020017D01*
X1332437Y1186387D01*
X1331177Y1187229D01*
X1329690Y1187525D01*
D02*
G37*
G36*
X1337000Y578582D02*
X1334509Y578254D01*
X1332189Y577293D01*
X1330196Y575764D01*
X1328667Y573771D01*
X1327706Y571450D01*
X1327378Y568960D01*
Y546990D01*
X1325660D01*
Y529210D01*
X1327378D01*
Y496190D01*
X1325660D01*
Y478410D01*
X1360340D01*
Y496190D01*
X1346622D01*
Y529210D01*
X1360340D01*
Y546990D01*
X1346622D01*
Y568960D01*
X1346294Y571450D01*
X1345333Y573771D01*
X1343804Y575764D01*
X1341811Y577293D01*
X1339490Y578254D01*
X1337000Y578582D01*
D02*
G37*
G36*
X1217000D02*
X1214510Y578254D01*
X1212189Y577293D01*
X1210196Y575764D01*
X1208667Y573771D01*
X1207706Y571450D01*
X1207378Y568960D01*
Y546990D01*
X1205660D01*
Y529210D01*
X1207378D01*
Y496190D01*
X1205660D01*
Y478410D01*
X1240340D01*
Y496190D01*
X1226622D01*
Y529210D01*
X1240340D01*
Y546990D01*
X1226622D01*
Y568960D01*
X1226294Y571450D01*
X1225333Y573771D01*
X1223804Y575764D01*
X1221811Y577293D01*
X1219490Y578254D01*
X1217000Y578582D01*
D02*
G37*
G36*
X1097000D02*
X1094510Y578254D01*
X1092189Y577293D01*
X1090196Y575764D01*
X1088667Y573771D01*
X1087706Y571450D01*
X1087378Y568960D01*
Y546990D01*
X1085660D01*
Y529210D01*
X1087378D01*
Y496190D01*
X1085660D01*
Y478410D01*
X1120340D01*
Y496190D01*
X1106622D01*
Y529210D01*
X1120340D01*
Y546990D01*
X1106622D01*
Y568960D01*
X1106294Y571450D01*
X1105333Y573771D01*
X1103804Y575764D01*
X1101811Y577293D01*
X1099490Y578254D01*
X1097000Y578582D01*
D02*
G37*
G36*
X977000D02*
X974510Y578254D01*
X972189Y577293D01*
X970196Y575764D01*
X968667Y573771D01*
X967706Y571450D01*
X967378Y568960D01*
Y546990D01*
X965660D01*
Y529210D01*
X967378D01*
Y496190D01*
X965660D01*
Y478410D01*
X1000340D01*
Y496190D01*
X986622D01*
Y529210D01*
X1000340D01*
Y546990D01*
X986622D01*
Y568960D01*
X986294Y571450D01*
X985333Y573771D01*
X983804Y575764D01*
X981811Y577293D01*
X979490Y578254D01*
X977000Y578582D01*
D02*
G37*
G36*
X857000D02*
X854510Y578254D01*
X852189Y577293D01*
X850196Y575764D01*
X848667Y573771D01*
X847706Y571450D01*
X847378Y568960D01*
Y546990D01*
X845660D01*
Y529210D01*
X847378D01*
Y496190D01*
X845660D01*
Y478410D01*
X880340D01*
Y496190D01*
X866622D01*
Y529210D01*
X880340D01*
Y546990D01*
X866622D01*
Y568960D01*
X866294Y571450D01*
X865333Y573771D01*
X863804Y575764D01*
X861811Y577293D01*
X859490Y578254D01*
X857000Y578582D01*
D02*
G37*
G36*
X737000D02*
X734510Y578254D01*
X732189Y577293D01*
X730196Y575764D01*
X728667Y573771D01*
X727706Y571450D01*
X727378Y568960D01*
Y546990D01*
X725660D01*
Y529210D01*
X727378D01*
Y496190D01*
X725660D01*
Y478410D01*
X760340D01*
Y496190D01*
X746622D01*
Y529210D01*
X760340D01*
Y546990D01*
X746622D01*
Y568960D01*
X746294Y571450D01*
X745333Y573771D01*
X743804Y575764D01*
X741811Y577293D01*
X739490Y578254D01*
X737000Y578582D01*
D02*
G37*
G36*
X617000D02*
X614510Y578254D01*
X612189Y577293D01*
X610196Y575764D01*
X608667Y573771D01*
X607705Y571450D01*
X607378Y568960D01*
Y546990D01*
X605660D01*
Y529210D01*
X607378D01*
Y496190D01*
X605660D01*
Y478410D01*
X640340D01*
Y496190D01*
X626622D01*
Y529210D01*
X640340D01*
Y546990D01*
X626622D01*
Y568960D01*
X626294Y571450D01*
X625333Y573771D01*
X623804Y575764D01*
X621811Y577293D01*
X619490Y578254D01*
X617000Y578582D01*
D02*
G37*
G36*
X497000D02*
X494510Y578254D01*
X492189Y577293D01*
X490196Y575764D01*
X488667Y573771D01*
X487706Y571450D01*
X487378Y568960D01*
Y546990D01*
X485660D01*
Y529210D01*
X487378D01*
Y496190D01*
X485660D01*
Y478410D01*
X520340D01*
Y496190D01*
X506622D01*
Y529210D01*
X520340D01*
Y546990D01*
X506622D01*
Y568960D01*
X506294Y571450D01*
X505333Y573771D01*
X503804Y575764D01*
X501811Y577293D01*
X499490Y578254D01*
X497000Y578582D01*
D02*
G37*
G36*
X377000D02*
X374510Y578254D01*
X372189Y577293D01*
X370196Y575764D01*
X368667Y573771D01*
X367706Y571450D01*
X367378Y568960D01*
Y546990D01*
X365660D01*
Y529210D01*
X367378D01*
Y496190D01*
X365660D01*
Y478410D01*
X400340D01*
Y496190D01*
X386622D01*
Y529210D01*
X400340D01*
Y546990D01*
X386622D01*
Y568960D01*
X386295Y571450D01*
X385333Y573771D01*
X383804Y575764D01*
X381811Y577293D01*
X379491Y578254D01*
X377000Y578582D01*
D02*
G37*
G36*
X257000D02*
X254510Y578254D01*
X252189Y577293D01*
X250196Y575764D01*
X248667Y573771D01*
X247705Y571450D01*
X247378Y568960D01*
Y546990D01*
X245660D01*
Y529210D01*
X247378D01*
Y496190D01*
X245660D01*
Y478410D01*
X280340D01*
Y496190D01*
X266622D01*
Y529210D01*
X280340D01*
Y546990D01*
X266622D01*
Y568960D01*
X266294Y571450D01*
X265333Y573771D01*
X263804Y575764D01*
X261811Y577293D01*
X259490Y578254D01*
X257000Y578582D01*
D02*
G37*
G36*
X1400000Y447209D02*
X165000D01*
X163619Y446935D01*
X162448Y446152D01*
X161665Y444981D01*
X161391Y443600D01*
Y213600D01*
X161665Y212219D01*
X162448Y211048D01*
X163619Y210265D01*
X165000Y209991D01*
X1400000D01*
X1401381Y210265D01*
X1402552Y211048D01*
X1403335Y212219D01*
X1403609Y213600D01*
Y443600D01*
X1403335Y444981D01*
X1402552Y446152D01*
X1401381Y446935D01*
X1400000Y447209D01*
D02*
G37*
%LPD*%
D10*
X230000Y609600D02*
D03*
Y627600D02*
D03*
X350000Y609600D02*
D03*
Y627600D02*
D03*
X470000Y609600D02*
D03*
Y627600D02*
D03*
X590000Y609600D02*
D03*
Y627600D02*
D03*
X710000Y609600D02*
D03*
Y627600D02*
D03*
X830000Y609600D02*
D03*
Y627600D02*
D03*
X950000Y609600D02*
D03*
Y627600D02*
D03*
X1070000Y609600D02*
D03*
Y627600D02*
D03*
X1190000Y609600D02*
D03*
Y627600D02*
D03*
X1310000Y609600D02*
D03*
Y627600D02*
D03*
D11*
X623000Y538100D02*
D03*
X587000Y512700D02*
D03*
X623000Y487300D02*
D03*
X587000Y461900D02*
D03*
X263000Y538100D02*
D03*
X227000Y512700D02*
D03*
X263000Y487300D02*
D03*
X227000Y461900D02*
D03*
X383000Y538100D02*
D03*
X347000Y512700D02*
D03*
X383000Y487300D02*
D03*
X347000Y461900D02*
D03*
X503000Y538100D02*
D03*
X467000Y512700D02*
D03*
X503000Y487300D02*
D03*
X467000Y461900D02*
D03*
X743000Y538100D02*
D03*
X707000Y512700D02*
D03*
X743000Y487300D02*
D03*
X707000Y461900D02*
D03*
X863000Y538100D02*
D03*
X827000Y512700D02*
D03*
X863000Y487300D02*
D03*
X827000Y461900D02*
D03*
X983000Y538100D02*
D03*
X947000Y512700D02*
D03*
X983000Y487300D02*
D03*
X947000Y461900D02*
D03*
X1103000Y538100D02*
D03*
X1067000Y512700D02*
D03*
X1103000Y487300D02*
D03*
X1067000Y461900D02*
D03*
X1223000Y538100D02*
D03*
X1187000Y512700D02*
D03*
X1223000Y487300D02*
D03*
X1187000Y461900D02*
D03*
X1343000Y538100D02*
D03*
X1307000Y512700D02*
D03*
X1343000Y487300D02*
D03*
X1307000Y461900D02*
D03*
D12*
X699770Y1084970D02*
D03*
Y1101970D02*
D03*
X671830Y1061720D02*
D03*
Y1044720D02*
D03*
X836930Y1151110D02*
D03*
Y1134110D02*
D03*
X275590Y1114280D02*
D03*
Y1097280D02*
D03*
D13*
X677790Y655000D02*
D03*
X660790D02*
D03*
X916550D02*
D03*
X899550D02*
D03*
X1157850D02*
D03*
X1140850D02*
D03*
X1397880D02*
D03*
X1380880D02*
D03*
X439030D02*
D03*
X422030D02*
D03*
X557140D02*
D03*
X540140D02*
D03*
X797170D02*
D03*
X780170D02*
D03*
X1038080D02*
D03*
X1021080D02*
D03*
X1277230D02*
D03*
X1260230D02*
D03*
X317110D02*
D03*
X300110D02*
D03*
D14*
X662330Y1085280D02*
D03*
D15*
X671830D02*
D03*
X681330D02*
D03*
Y1109280D02*
D03*
X662330D02*
D03*
D16*
X1380250Y627170D02*
D03*
X1359750D02*
D03*
X1370000Y607270D02*
D03*
X1260250Y627170D02*
D03*
X1239750D02*
D03*
X1250000Y607270D02*
D03*
X1140250Y627170D02*
D03*
X1119750D02*
D03*
X1130000Y607270D02*
D03*
X1020250Y627170D02*
D03*
X999750D02*
D03*
X1010000Y607270D02*
D03*
X900250Y627170D02*
D03*
X879750D02*
D03*
X890000Y607270D02*
D03*
X780250Y627170D02*
D03*
X759750D02*
D03*
X770000Y607270D02*
D03*
X660250Y627170D02*
D03*
X639750D02*
D03*
X650000Y607270D02*
D03*
X540250Y627170D02*
D03*
X519750D02*
D03*
X530000Y607270D02*
D03*
X420250Y627170D02*
D03*
X399750D02*
D03*
X410000Y607270D02*
D03*
X300250Y627170D02*
D03*
X279750D02*
D03*
X290000Y607270D02*
D03*
D17*
X511810Y1055370D02*
D03*
D18*
Y1123370D02*
D03*
D19*
X755015Y933130D02*
D03*
X761365D02*
D03*
X767715D02*
D03*
X774065D02*
D03*
X780415D02*
D03*
X786765D02*
D03*
X793115D02*
D03*
X799465D02*
D03*
X805815D02*
D03*
X812165D02*
D03*
X818515D02*
D03*
X824865D02*
D03*
Y880430D02*
D03*
X818515D02*
D03*
X812165D02*
D03*
X805815D02*
D03*
X799465D02*
D03*
X793115D02*
D03*
X786765D02*
D03*
X780415D02*
D03*
X774065D02*
D03*
X767715D02*
D03*
X761365D02*
D03*
X755015D02*
D03*
D20*
X789940Y959740D02*
D03*
Y975740D02*
D03*
X814070Y975740D02*
D03*
Y959740D02*
D03*
D21*
X836930Y1173480D02*
D03*
Y1190480D02*
D03*
X275590Y1137920D02*
D03*
Y1154920D02*
D03*
D22*
X1521460Y489540D02*
X1544320Y512400D01*
Y727180D01*
X1521460Y750040D02*
X1544320Y727180D01*
X741680Y946465D02*
X755015Y933130D01*
X198120Y938530D02*
X730250D01*
X196850Y937260D02*
X198120Y938530D01*
X761365Y960755D02*
Y1038225D01*
X753110Y952500D02*
X761365Y960755D01*
Y950595D02*
X768985Y958215D01*
X761365Y933130D02*
Y950595D01*
X768985Y958215D02*
Y1028065D01*
X157565Y903235D02*
X761735D01*
X139370Y920040D02*
X758750D01*
X121590Y937260D02*
X196850D01*
X19050Y509860D02*
Y729720D01*
Y509860D02*
X39370Y489540D01*
X19050Y729720D02*
X39370Y750040D01*
X19050Y770360D02*
X39370Y750040D01*
X19050Y770360D02*
Y887730D01*
X128270Y996950D01*
X285750D01*
X761735Y903235D02*
X774065Y915564D01*
X39370Y785040D02*
X157565Y903235D01*
X761365Y922655D02*
Y933130D01*
X758750Y920040D02*
X761365Y922655D01*
X760995Y913130D02*
X767715Y919850D01*
X39370Y820040D02*
X139370Y920040D01*
X774065Y915564D02*
Y933130D01*
X767715Y919850D02*
Y933130D01*
X39370Y855040D02*
X121590Y937260D01*
X39370Y890040D02*
X139370Y990040D01*
X39370Y925040D02*
X139370Y1025040D01*
Y990040D02*
X724610D01*
X139370Y1025040D02*
X716130D01*
X741680Y999490D01*
X1130300Y990600D02*
X1304290D01*
X1106170Y1014730D02*
X1130300Y990600D01*
X1470660Y645340D02*
Y905510D01*
Y645340D02*
X1521460Y594540D01*
X1452880Y628120D02*
Y889000D01*
Y628120D02*
X1521460Y559540D01*
X1437640Y608360D02*
X1521460Y524540D01*
X1437640Y608360D02*
Y868680D01*
X1496060Y775440D02*
X1521460Y750040D01*
X741680Y946465D02*
Y999490D01*
X768985Y1028065D02*
X798830Y1057910D01*
X671830Y1044720D02*
X712960D01*
X750570Y1007110D01*
X687070Y1061720D02*
X699770Y1074420D01*
Y1084970D01*
X671830Y1061720D02*
X687070D01*
X671830D02*
Y1085280D01*
X681330Y1109280D02*
X691960D01*
X699270Y1101970D01*
X699770D01*
Y1104510D01*
X699620Y1104660D02*
X699770Y1104510D01*
X750190Y1007110D02*
X750570D01*
X780732Y990283D02*
X781050Y990600D01*
X780732Y933447D02*
Y990283D01*
X819150Y1134110D02*
X836930D01*
X687070Y996950D02*
Y1016000D01*
X808180Y999950D02*
X850900Y1042670D01*
X786130Y908050D02*
X786448Y908367D01*
Y932812D01*
X786765Y933130D01*
X1258570Y1167130D02*
X1275080Y1183640D01*
X1329690D01*
X1496060Y1017270D01*
Y775440D02*
Y1017270D01*
X1233170Y1167130D02*
X1258570D01*
X1200150Y1134110D02*
X1233170Y1167130D01*
X836930Y1134110D02*
X1200150D01*
X836930Y1151110D02*
Y1173480D01*
X849630Y982980D02*
X998220D01*
X825500Y1007110D02*
X849630Y982980D01*
X998220D02*
X1029970Y1014730D01*
X1283970Y1167130D02*
X1322070Y1129030D01*
Y1002030D02*
Y1129030D01*
X850900Y1042670D02*
X1179830D01*
X1163320Y1033780D02*
X1182370Y1014730D01*
X1118870Y1033780D02*
X1163320D01*
X774065Y1012825D02*
X808990Y1047750D01*
X798830Y1057910D02*
X1240790D01*
X780415Y933130D02*
X780732Y933447D01*
X786765Y933130D02*
Y959105D01*
X774065Y933130D02*
Y1012825D01*
X724610Y990040D02*
X725170Y990600D01*
X1179830Y1042670D02*
X1207770Y1014730D01*
X780415Y991870D02*
Y998855D01*
X829310Y1047750D01*
X1200150D01*
X821161Y1050290D02*
X823701Y1052830D01*
X1220470D01*
X1240790Y1057910D02*
X1283970Y1014730D01*
X1200150Y1047750D02*
X1233170Y1014730D01*
X1220470Y1052830D02*
X1258570Y1014730D01*
D23*
X798830Y975360D02*
X801370D01*
X790320D02*
X798830D01*
X799465Y974725D01*
Y933130D02*
Y974725D01*
X802182Y975360D02*
X813690D01*
X814070Y975740D01*
X950000Y600710D02*
X956560Y607270D01*
X561090Y1105150D02*
X565220Y1109280D01*
X662330D01*
X681330D02*
X681660Y1109610D01*
Y1190930D01*
X681990Y1191260D01*
X300250Y651510D02*
Y655320D01*
Y803170D01*
X789940Y975740D02*
X790320Y975360D01*
X787460Y978220D02*
X789940Y975740D01*
X786765Y959105D02*
X787400Y959740D01*
X661380Y1110230D02*
X662330Y1109280D01*
X275590Y1114280D02*
Y1137920D01*
X276090Y1097280D02*
X317660Y1055710D01*
X275590Y1097280D02*
X276090D01*
X317660Y1055710D02*
X381000D01*
X351900Y854820D02*
X744956D01*
X300250Y803170D02*
X351900Y854820D01*
X300250Y627170D02*
Y651510D01*
X420250Y806330D02*
X463200Y849280D01*
X420250Y627170D02*
Y806330D01*
X540250Y806950D02*
X577040Y843740D01*
X540250Y627170D02*
Y806950D01*
X744956Y854820D02*
X755015Y864879D01*
Y880430D01*
X463200Y849280D02*
X747251D01*
X761365Y863394D01*
Y880430D01*
X577040Y843740D02*
X749545D01*
X767715Y861910D01*
Y880430D01*
X751840Y838200D02*
X774065Y860425D01*
Y880430D01*
X693420Y838200D02*
X751840D01*
X660250Y805030D02*
X693420Y838200D01*
X660250Y627170D02*
Y805030D01*
X812165Y866364D02*
X818169Y860360D01*
X812165Y866364D02*
Y880430D01*
X818169Y860360D02*
X1341820D01*
X1380250Y821930D01*
Y627170D02*
Y821930D01*
X805815Y864879D02*
X815874Y854820D01*
X805815Y864879D02*
Y880430D01*
X815874Y854820D02*
X1225440D01*
X1260250Y820010D01*
Y627170D02*
Y820010D01*
X1140250Y627170D02*
Y814070D01*
X799465Y863394D02*
Y880430D01*
Y863394D02*
X813579Y849280D01*
X1105040D01*
X1140250Y814070D01*
X793115Y861910D02*
Y880430D01*
Y861910D02*
X811285Y843740D01*
X991410D01*
X1020250Y814900D01*
Y627170D02*
Y814900D01*
X786765Y860425D02*
X808990Y838200D01*
X786765Y860425D02*
Y880430D01*
X808990Y838200D02*
X869950D01*
X900250Y807900D01*
Y627170D02*
Y807900D01*
X780332Y880348D02*
X780415Y880430D01*
X780332Y627253D02*
Y880348D01*
X780250Y627170D02*
X780332Y627253D01*
X1310000Y610100D02*
X1312830Y607270D01*
X1370000D01*
X1310000Y627100D02*
X1310070Y627170D01*
X1359750D01*
X1190000Y610100D02*
X1192830Y607270D01*
X1250000D01*
X1190000Y627100D02*
X1190070Y627170D01*
X1239750D01*
X1070000Y627100D02*
X1070070Y627170D01*
X1119750D01*
X1070000Y610100D02*
X1072830Y607270D01*
X1130000D01*
X950000Y627100D02*
X950070Y627170D01*
X999750D01*
X956560Y607270D02*
X1010000D01*
X830000Y610100D02*
X832830Y607270D01*
X890000D01*
X710000Y610100D02*
X712830Y607270D01*
X770000D01*
X710000Y627100D02*
X710070Y627170D01*
X759750D01*
X590000Y610100D02*
X592830Y607270D01*
X650000D01*
Y608570D01*
X590000Y627100D02*
X590070Y627170D01*
X639750D01*
X470000Y610100D02*
X472830Y607270D01*
X530000D01*
X470000Y627100D02*
X470070Y627170D01*
X519750D01*
X350000Y627100D02*
X350070Y627170D01*
X399750D01*
X350000Y610100D02*
X352830Y607270D01*
X410000D01*
X230000Y610100D02*
X232830Y607270D01*
X290000D01*
X230000Y627100D02*
X230070Y627170D01*
X279750D01*
X830000Y627100D02*
X830070Y627170D01*
X879750D01*
D24*
X1337000Y488950D02*
Y568960D01*
X1217000Y488950D02*
Y568960D01*
X1097000Y488950D02*
Y568960D01*
X977000Y488950D02*
Y568960D01*
X857000Y488950D02*
Y568960D01*
X737000Y488950D02*
Y568960D01*
X617000Y488950D02*
Y568960D01*
X497000Y488950D02*
Y568960D01*
X1310000Y463550D02*
Y610100D01*
X1190000Y463550D02*
Y610100D01*
X1070000Y463550D02*
Y610100D01*
X950000Y463550D02*
Y600710D01*
X830000Y463550D02*
Y610100D01*
X710000Y463550D02*
Y610100D01*
X590000Y463550D02*
Y610100D01*
X470000Y463550D02*
Y610100D01*
X377000Y488950D02*
Y568960D01*
X230000Y463550D02*
Y610100D01*
X350000Y463550D02*
Y610100D01*
X257000Y488950D02*
Y568960D01*
X1310000Y627100D02*
Y714140D01*
X1190000Y627100D02*
Y714140D01*
X1070000Y627100D02*
Y714140D01*
X950000Y627100D02*
Y714140D01*
X830000Y627100D02*
Y714140D01*
X710000Y627100D02*
Y714140D01*
X590000Y627100D02*
Y714140D01*
X470000Y627100D02*
Y714140D01*
X350000Y627100D02*
Y714140D01*
X230000Y627100D02*
Y714140D01*
D25*
X511810Y1055870D02*
X561090Y1105150D01*
X565220Y1109280D02*
X646990Y1191050D01*
X511810Y1055370D02*
Y1055870D01*
X646990Y1191050D02*
Y1191260D01*
X511640Y1055540D02*
X511810Y1055370D01*
X381170Y1055540D02*
X511640D01*
X381000Y1055710D02*
X381170Y1055540D01*
D26*
X956310Y1215390D02*
X1004570Y1167130D01*
X671120Y1215390D02*
X956310D01*
X646990Y1191260D02*
X671120Y1215390D01*
D27*
X1310000Y739140D02*
D03*
Y759140D02*
D03*
Y714140D02*
D03*
Y784140D02*
D03*
X1190000Y739140D02*
D03*
Y759140D02*
D03*
Y714140D02*
D03*
Y784140D02*
D03*
X1070000Y739140D02*
D03*
Y759140D02*
D03*
Y714140D02*
D03*
Y784140D02*
D03*
X950000Y739140D02*
D03*
Y759140D02*
D03*
Y714140D02*
D03*
Y784140D02*
D03*
X830000Y739140D02*
D03*
Y759140D02*
D03*
Y714140D02*
D03*
Y784140D02*
D03*
X710000Y739140D02*
D03*
Y759140D02*
D03*
Y714140D02*
D03*
Y784140D02*
D03*
X590000Y739140D02*
D03*
Y759140D02*
D03*
Y714140D02*
D03*
Y784140D02*
D03*
X470000Y739140D02*
D03*
Y759140D02*
D03*
Y714140D02*
D03*
Y784140D02*
D03*
X350000Y739140D02*
D03*
Y759140D02*
D03*
Y714140D02*
D03*
Y784140D02*
D03*
X230000Y739140D02*
D03*
Y759140D02*
D03*
Y714140D02*
D03*
Y784140D02*
D03*
D28*
X1337000Y684140D02*
D03*
Y814140D02*
D03*
X381000Y1055710D02*
D03*
X1217000Y684140D02*
D03*
Y814140D02*
D03*
X1097000Y684140D02*
D03*
Y814140D02*
D03*
X977000Y684140D02*
D03*
Y814140D02*
D03*
X857000Y684140D02*
D03*
Y814140D02*
D03*
X737000Y684140D02*
D03*
Y814140D02*
D03*
X617000Y684140D02*
D03*
Y814140D02*
D03*
X497000Y684140D02*
D03*
Y814140D02*
D03*
X377000Y684140D02*
D03*
Y814140D02*
D03*
X257000Y684140D02*
D03*
Y814140D02*
D03*
D29*
X716990Y1191260D02*
D03*
X681990D02*
D03*
D30*
X646990D02*
D03*
D31*
X381000Y1122210D02*
D03*
D32*
X440500Y1110710D02*
D03*
Y1162710D02*
D03*
X321500D02*
D03*
Y1110710D02*
D03*
D33*
X381000Y1172210D02*
D03*
X1521460Y489540D02*
D03*
Y699540D02*
D03*
Y524540D02*
D03*
Y664540D02*
D03*
Y559540D02*
D03*
Y629540D02*
D03*
Y594540D02*
D03*
X39370Y489540D02*
D03*
Y699540D02*
D03*
Y524540D02*
D03*
Y664540D02*
D03*
Y559540D02*
D03*
Y629540D02*
D03*
Y594540D02*
D03*
Y750040D02*
D03*
Y960040D02*
D03*
Y785040D02*
D03*
Y925040D02*
D03*
Y820040D02*
D03*
Y890040D02*
D03*
Y855040D02*
D03*
X1521460Y750040D02*
D03*
Y960040D02*
D03*
Y785040D02*
D03*
Y925040D02*
D03*
Y820040D02*
D03*
Y890040D02*
D03*
Y855040D02*
D03*
D34*
X928370Y1167130D02*
D03*
X953770D02*
D03*
X979170D02*
D03*
X1004570D02*
D03*
X1029970D02*
D03*
X1055370D02*
D03*
X1080770D02*
D03*
X1106170D02*
D03*
X1131570D02*
D03*
X1156970D02*
D03*
X1182370D02*
D03*
X1207770D02*
D03*
X1233170D02*
D03*
X1258570D02*
D03*
X1283970D02*
D03*
Y1014730D02*
D03*
X1258570D02*
D03*
X1233170D02*
D03*
X1207770D02*
D03*
X1182370D02*
D03*
X1156970D02*
D03*
X1131570D02*
D03*
X1106170D02*
D03*
X1080770D02*
D03*
X1055370D02*
D03*
X1029970D02*
D03*
X1004570D02*
D03*
X979170D02*
D03*
X953770D02*
D03*
D35*
X928370D02*
D03*
D36*
X730250Y938530D02*
D03*
X753110Y952500D02*
D03*
X1500000Y1200000D02*
D03*
X1525000Y1150000D02*
D03*
X1500000Y1100000D02*
D03*
X1525000Y1050000D02*
D03*
X1500000Y700000D02*
D03*
X1525000Y650000D02*
D03*
X1500000Y600000D02*
D03*
Y500000D02*
D03*
X1525000Y450000D02*
D03*
X1500000Y400000D02*
D03*
X1525000Y350000D02*
D03*
X1500000Y300000D02*
D03*
X1525000Y250000D02*
D03*
X1500000Y200000D02*
D03*
X1450000Y1200000D02*
D03*
X1475000Y1150000D02*
D03*
X1450000Y1100000D02*
D03*
X1475000Y1050000D02*
D03*
Y550000D02*
D03*
X1450000Y500000D02*
D03*
X1475000Y450000D02*
D03*
X1450000Y400000D02*
D03*
X1475000Y350000D02*
D03*
X1450000Y300000D02*
D03*
X1475000Y250000D02*
D03*
X1450000Y200000D02*
D03*
X1400000Y1200000D02*
D03*
X1425000Y1150000D02*
D03*
X1400000Y1100000D02*
D03*
X1425000Y1050000D02*
D03*
X1400000Y900000D02*
D03*
Y800000D02*
D03*
Y700000D02*
D03*
X1425000Y650000D02*
D03*
X1400000Y600000D02*
D03*
X1425000Y550000D02*
D03*
X1400000Y500000D02*
D03*
X1425000Y450000D02*
D03*
Y350000D02*
D03*
Y250000D02*
D03*
X1400000Y200000D02*
D03*
X1350000Y1200000D02*
D03*
X1375000Y1150000D02*
D03*
X1350000Y1100000D02*
D03*
X1375000Y950000D02*
D03*
X1350000Y900000D02*
D03*
X1375000Y850000D02*
D03*
X1350000Y600000D02*
D03*
X1375000Y550000D02*
D03*
X1350000Y500000D02*
D03*
Y200000D02*
D03*
X1300000Y1200000D02*
D03*
X1325000Y1150000D02*
D03*
X1300000Y1100000D02*
D03*
Y1000000D02*
D03*
X1325000Y950000D02*
D03*
X1300000Y900000D02*
D03*
X1325000Y850000D02*
D03*
X1300000Y800000D02*
D03*
Y200000D02*
D03*
X1250000Y1200000D02*
D03*
Y1100000D02*
D03*
Y1000000D02*
D03*
X1275000Y950000D02*
D03*
X1250000Y900000D02*
D03*
X1275000Y850000D02*
D03*
X1250000Y800000D02*
D03*
X1275000Y750000D02*
D03*
X1250000Y700000D02*
D03*
X1275000Y550000D02*
D03*
X1250000Y500000D02*
D03*
Y200000D02*
D03*
X1200000Y1200000D02*
D03*
Y1100000D02*
D03*
Y1000000D02*
D03*
X1225000Y950000D02*
D03*
X1200000Y900000D02*
D03*
Y800000D02*
D03*
Y200000D02*
D03*
X1150000Y1200000D02*
D03*
X1175000Y1150000D02*
D03*
X1150000Y1100000D02*
D03*
X1175000Y950000D02*
D03*
X1150000Y900000D02*
D03*
Y800000D02*
D03*
X1175000Y750000D02*
D03*
X1150000Y700000D02*
D03*
X1175000Y650000D02*
D03*
X1150000Y600000D02*
D03*
X1175000Y550000D02*
D03*
X1150000Y500000D02*
D03*
Y200000D02*
D03*
X1100000Y1200000D02*
D03*
X1125000Y1150000D02*
D03*
X1100000Y1100000D02*
D03*
Y1000000D02*
D03*
X1125000Y950000D02*
D03*
X1100000Y900000D02*
D03*
X1125000Y750000D02*
D03*
Y650000D02*
D03*
Y550000D02*
D03*
X1100000Y200000D02*
D03*
X1050000Y1200000D02*
D03*
X1075000Y1150000D02*
D03*
X1050000Y1100000D02*
D03*
Y1000000D02*
D03*
X1075000Y950000D02*
D03*
X1050000Y900000D02*
D03*
Y800000D02*
D03*
Y700000D02*
D03*
Y600000D02*
D03*
Y500000D02*
D03*
Y200000D02*
D03*
X1000000Y1200000D02*
D03*
X1025000Y1150000D02*
D03*
X1000000Y1100000D02*
D03*
Y1000000D02*
D03*
X1025000Y950000D02*
D03*
X1000000Y900000D02*
D03*
Y800000D02*
D03*
Y700000D02*
D03*
Y600000D02*
D03*
X1025000Y550000D02*
D03*
X1000000Y500000D02*
D03*
Y200000D02*
D03*
X950000Y1200000D02*
D03*
X975000Y1150000D02*
D03*
X950000Y1100000D02*
D03*
Y1000000D02*
D03*
X975000Y950000D02*
D03*
X950000Y900000D02*
D03*
Y800000D02*
D03*
Y200000D02*
D03*
X900000Y1200000D02*
D03*
X925000Y1150000D02*
D03*
X900000Y1100000D02*
D03*
Y1000000D02*
D03*
X925000Y950000D02*
D03*
X900000Y900000D02*
D03*
X925000Y750000D02*
D03*
X900000Y600000D02*
D03*
X925000Y550000D02*
D03*
X900000Y500000D02*
D03*
Y200000D02*
D03*
X850000Y1200000D02*
D03*
X875000Y1150000D02*
D03*
X850000Y1100000D02*
D03*
Y1000000D02*
D03*
X875000Y950000D02*
D03*
X850000Y900000D02*
D03*
X875000Y750000D02*
D03*
Y650000D02*
D03*
X850000Y200000D02*
D03*
X800000Y1200000D02*
D03*
X825000Y1150000D02*
D03*
X800000Y1100000D02*
D03*
X825000Y950000D02*
D03*
X800000Y900000D02*
D03*
Y800000D02*
D03*
Y700000D02*
D03*
Y600000D02*
D03*
Y500000D02*
D03*
Y200000D02*
D03*
X750000Y1200000D02*
D03*
X775000Y1150000D02*
D03*
X750000Y1100000D02*
D03*
X775000Y1050000D02*
D03*
X750000Y600000D02*
D03*
X775000Y550000D02*
D03*
X750000Y500000D02*
D03*
Y200000D02*
D03*
X700000Y1200000D02*
D03*
X725000Y1150000D02*
D03*
X700000Y800000D02*
D03*
Y200000D02*
D03*
X650000Y1100000D02*
D03*
X675000Y950000D02*
D03*
X650000Y800000D02*
D03*
X675000Y750000D02*
D03*
X650000Y700000D02*
D03*
X675000Y550000D02*
D03*
X650000Y500000D02*
D03*
Y200000D02*
D03*
X600000Y1200000D02*
D03*
Y1100000D02*
D03*
X625000Y1050000D02*
D03*
Y950000D02*
D03*
X600000Y800000D02*
D03*
Y200000D02*
D03*
X550000Y1200000D02*
D03*
X575000Y1150000D02*
D03*
Y1050000D02*
D03*
Y950000D02*
D03*
X550000Y800000D02*
D03*
X575000Y750000D02*
D03*
X550000Y700000D02*
D03*
X575000Y650000D02*
D03*
X550000Y600000D02*
D03*
X575000Y550000D02*
D03*
X550000Y500000D02*
D03*
Y200000D02*
D03*
X500000Y1200000D02*
D03*
X525000Y1150000D02*
D03*
X500000Y1100000D02*
D03*
X525000Y950000D02*
D03*
Y750000D02*
D03*
Y650000D02*
D03*
Y550000D02*
D03*
X500000Y200000D02*
D03*
X450000Y1200000D02*
D03*
X475000Y1150000D02*
D03*
Y950000D02*
D03*
X450000Y800000D02*
D03*
Y700000D02*
D03*
Y600000D02*
D03*
Y500000D02*
D03*
Y200000D02*
D03*
X400000Y1200000D02*
D03*
X425000Y1150000D02*
D03*
X400000Y1100000D02*
D03*
X425000Y950000D02*
D03*
X400000Y800000D02*
D03*
Y700000D02*
D03*
Y600000D02*
D03*
X425000Y550000D02*
D03*
X400000Y500000D02*
D03*
Y200000D02*
D03*
X350000Y1200000D02*
D03*
X375000Y1150000D02*
D03*
X350000Y1100000D02*
D03*
X375000Y950000D02*
D03*
X350000Y800000D02*
D03*
Y200000D02*
D03*
X300000Y1200000D02*
D03*
Y1100000D02*
D03*
X325000Y950000D02*
D03*
Y850000D02*
D03*
Y750000D02*
D03*
X300000Y600000D02*
D03*
X325000Y550000D02*
D03*
X300000Y500000D02*
D03*
Y200000D02*
D03*
X250000Y1200000D02*
D03*
Y1100000D02*
D03*
X275000Y1050000D02*
D03*
Y950000D02*
D03*
Y850000D02*
D03*
Y750000D02*
D03*
Y650000D02*
D03*
X250000Y200000D02*
D03*
X200000Y1200000D02*
D03*
X225000Y1150000D02*
D03*
X200000Y1100000D02*
D03*
X225000Y1050000D02*
D03*
Y950000D02*
D03*
Y850000D02*
D03*
X200000Y800000D02*
D03*
Y700000D02*
D03*
Y600000D02*
D03*
Y500000D02*
D03*
Y200000D02*
D03*
X150000Y1200000D02*
D03*
X175000Y1150000D02*
D03*
X150000Y1100000D02*
D03*
X175000Y1050000D02*
D03*
Y950000D02*
D03*
Y850000D02*
D03*
X150000Y800000D02*
D03*
X175000Y750000D02*
D03*
X150000Y700000D02*
D03*
X175000Y650000D02*
D03*
X150000Y600000D02*
D03*
X175000Y550000D02*
D03*
X150000Y500000D02*
D03*
Y400000D02*
D03*
Y300000D02*
D03*
Y200000D02*
D03*
X100000Y1200000D02*
D03*
X125000Y1150000D02*
D03*
X100000Y1100000D02*
D03*
X125000Y1050000D02*
D03*
X100000Y1000000D02*
D03*
X125000Y950000D02*
D03*
X100000Y900000D02*
D03*
Y800000D02*
D03*
Y700000D02*
D03*
Y600000D02*
D03*
X125000Y550000D02*
D03*
X100000Y500000D02*
D03*
X125000Y450000D02*
D03*
X100000Y400000D02*
D03*
X125000Y350000D02*
D03*
X100000Y300000D02*
D03*
X125000Y250000D02*
D03*
X100000Y200000D02*
D03*
X75000Y1150000D02*
D03*
X50000Y1100000D02*
D03*
X75000Y1050000D02*
D03*
X50000Y1000000D02*
D03*
X75000Y750000D02*
D03*
Y650000D02*
D03*
Y550000D02*
D03*
X50000Y500000D02*
D03*
X75000Y450000D02*
D03*
X50000Y400000D02*
D03*
X75000Y350000D02*
D03*
X50000Y300000D02*
D03*
X75000Y250000D02*
D03*
X50000Y200000D02*
D03*
X196850Y902970D02*
D03*
Y920750D02*
D03*
Y937260D02*
D03*
X285750Y996950D02*
D03*
X760995Y913130D02*
D03*
X1304290Y990600D02*
D03*
X1437640Y868680D02*
D03*
X1452880Y889000D02*
D03*
X1470660Y905510D02*
D03*
X1337000Y568960D02*
D03*
X1217000D02*
D03*
X1097000D02*
D03*
X977000D02*
D03*
X857000D02*
D03*
X737000D02*
D03*
X617000D02*
D03*
X497000D02*
D03*
X377000D02*
D03*
X257000D02*
D03*
X741680Y999490D02*
D03*
X750570Y1007110D02*
D03*
X781050Y990600D02*
D03*
X819150Y1134110D02*
D03*
X687070Y1016000D02*
D03*
Y996950D02*
D03*
X786130Y908050D02*
D03*
X825500Y1007110D02*
D03*
X1322070Y1002030D02*
D03*
X807720Y999490D02*
D03*
X1118870Y1033780D02*
D03*
X808990Y1047750D02*
D03*
X725170Y990600D02*
D03*
X821161Y1050290D02*
D03*
X761365Y1038225D02*
D03*
X798830Y1057910D02*
D03*
%TF.MD5,3b2e637913aefc55d49713e3190a5d3f*%
M02*
