G04*
G04 #@! TF.GenerationSoftware,Altium Limited,Altium NEXUS,2.1.5 (53)*
G04*
G04 Layer_Color=16711935*
%FSLAX44Y44*%
%MOMM*%
G71*
G01*
G75*
%ADD38C,1.7272*%
%ADD39C,3.2032*%
%ADD40C,1.9032*%
%ADD41R,1.9032X1.9032*%
%ADD42O,2.8192X1.5112*%
%ADD43O,1.7112X3.2192*%
%ADD44C,1.8032*%
%ADD45C,2.0032*%
%ADD46R,2.0032X2.0032*%
D38*
X1310000Y739140D02*
D03*
Y759140D02*
D03*
Y714140D02*
D03*
Y784140D02*
D03*
X1190000Y739140D02*
D03*
Y759140D02*
D03*
Y714140D02*
D03*
Y784140D02*
D03*
X1070000Y739140D02*
D03*
Y759140D02*
D03*
Y714140D02*
D03*
Y784140D02*
D03*
X950000Y739140D02*
D03*
Y759140D02*
D03*
Y714140D02*
D03*
Y784140D02*
D03*
X830000Y739140D02*
D03*
Y759140D02*
D03*
Y714140D02*
D03*
Y784140D02*
D03*
X710000Y739140D02*
D03*
Y759140D02*
D03*
Y714140D02*
D03*
Y784140D02*
D03*
X590000Y739140D02*
D03*
Y759140D02*
D03*
Y714140D02*
D03*
Y784140D02*
D03*
X470000Y739140D02*
D03*
Y759140D02*
D03*
Y714140D02*
D03*
Y784140D02*
D03*
X350000Y739140D02*
D03*
Y759140D02*
D03*
Y714140D02*
D03*
Y784140D02*
D03*
X230000Y739140D02*
D03*
Y759140D02*
D03*
Y714140D02*
D03*
Y784140D02*
D03*
D39*
X1337000Y684140D02*
D03*
Y814140D02*
D03*
X381000Y1055710D02*
D03*
X1217000Y684140D02*
D03*
Y814140D02*
D03*
X1097000Y684140D02*
D03*
Y814140D02*
D03*
X977000Y684140D02*
D03*
Y814140D02*
D03*
X857000Y684140D02*
D03*
Y814140D02*
D03*
X737000Y684140D02*
D03*
Y814140D02*
D03*
X617000Y684140D02*
D03*
Y814140D02*
D03*
X497000Y684140D02*
D03*
Y814140D02*
D03*
X377000Y684140D02*
D03*
Y814140D02*
D03*
X257000Y684140D02*
D03*
Y814140D02*
D03*
D40*
X716990Y1191260D02*
D03*
X681990D02*
D03*
D41*
X646990D02*
D03*
D42*
X381000Y1122210D02*
D03*
D43*
X440500Y1110710D02*
D03*
Y1162710D02*
D03*
X321500D02*
D03*
Y1110710D02*
D03*
D44*
X381000Y1172210D02*
D03*
X1521460Y489540D02*
D03*
Y699540D02*
D03*
Y524540D02*
D03*
Y664540D02*
D03*
Y559540D02*
D03*
Y629540D02*
D03*
Y594540D02*
D03*
X39370Y489540D02*
D03*
Y699540D02*
D03*
Y524540D02*
D03*
Y664540D02*
D03*
Y559540D02*
D03*
Y629540D02*
D03*
Y594540D02*
D03*
Y750040D02*
D03*
Y960040D02*
D03*
Y785040D02*
D03*
Y925040D02*
D03*
Y820040D02*
D03*
Y890040D02*
D03*
Y855040D02*
D03*
X1521460Y750040D02*
D03*
Y960040D02*
D03*
Y785040D02*
D03*
Y925040D02*
D03*
Y820040D02*
D03*
Y890040D02*
D03*
Y855040D02*
D03*
D45*
X928370Y1167130D02*
D03*
X953770D02*
D03*
X979170D02*
D03*
X1004570D02*
D03*
X1029970D02*
D03*
X1055370D02*
D03*
X1080770D02*
D03*
X1106170D02*
D03*
X1131570D02*
D03*
X1156970D02*
D03*
X1182370D02*
D03*
X1207770D02*
D03*
X1233170D02*
D03*
X1258570D02*
D03*
X1283970D02*
D03*
Y1014730D02*
D03*
X1258570D02*
D03*
X1233170D02*
D03*
X1207770D02*
D03*
X1182370D02*
D03*
X1156970D02*
D03*
X1131570D02*
D03*
X1106170D02*
D03*
X1080770D02*
D03*
X1055370D02*
D03*
X1029970D02*
D03*
X1004570D02*
D03*
X979170D02*
D03*
X953770D02*
D03*
D46*
X928370D02*
D03*
M02*
