G04*
G04 #@! TF.GenerationSoftware,Altium Limited,Altium NEXUS,2.1.5 (53)*
G04*
G04 Layer_Color=255*
%FSLAX44Y44*%
%MOMM*%
G71*
G01*
G75*
%ADD15R,1.4000X1.2000*%
%ADD16R,2.9600X1.2700*%
%ADD17R,1.0000X0.9000*%
%ADD18R,0.9000X1.0000*%
G04:AMPARAMS|DCode=19|XSize=0.65mm|YSize=1.1mm|CornerRadius=0mm|HoleSize=0mm|Usage=FLASHONLY|Rotation=180.000|XOffset=0mm|YOffset=0mm|HoleType=Round|Shape=Octagon|*
%AMOCTAGOND19*
4,1,8,0.1625,-0.5500,-0.1625,-0.5500,-0.3250,-0.3875,-0.3250,0.3875,-0.1625,0.5500,0.1625,0.5500,0.3250,0.3875,0.3250,-0.3875,0.1625,-0.5500,0.0*
%
%ADD19OCTAGOND19*%

%ADD20R,0.6500X1.1000*%
%ADD21R,0.6100X1.6100*%
G04:AMPARAMS|DCode=22|XSize=3.8mm|YSize=1.3mm|CornerRadius=0mm|HoleSize=0mm|Usage=FLASHONLY|Rotation=90.000|XOffset=0mm|YOffset=0mm|HoleType=Round|Shape=Octagon|*
%AMOCTAGOND22*
4,1,8,0.3250,1.9000,-0.3250,1.9000,-0.6500,1.5750,-0.6500,-1.5750,-0.3250,-1.9000,0.3250,-1.9000,0.6500,-1.5750,0.6500,1.5750,0.3250,1.9000,0.0*
%
%ADD22OCTAGOND22*%

%ADD23R,1.3000X3.8000*%
G04:AMPARAMS|DCode=24|XSize=1.64mm|YSize=0.41mm|CornerRadius=0.0513mm|HoleSize=0mm|Usage=FLASHONLY|Rotation=90.000|XOffset=0mm|YOffset=0mm|HoleType=Round|Shape=RoundedRectangle|*
%AMROUNDEDRECTD24*
21,1,1.6400,0.3075,0,0,90.0*
21,1,1.5375,0.4100,0,0,90.0*
1,1,0.1025,0.1538,0.7688*
1,1,0.1025,0.1538,-0.7688*
1,1,0.1025,-0.1538,-0.7688*
1,1,0.1025,-0.1538,0.7688*
%
%ADD24ROUNDEDRECTD24*%
%ADD25R,1.0000X1.0000*%
%ADD26R,1.0000X1.1000*%
%ADD51C,1.5240*%
%ADD52C,3.0000*%
%ADD53C,1.7000*%
%ADD54R,1.7000X1.7000*%
%ADD55O,2.6160X1.3080*%
%ADD56O,1.5080X3.0160*%
%ADD57C,1.6000*%
%ADD58C,1.8000*%
%ADD59R,1.8000X1.8000*%
D15*
X230000Y609600D02*
D03*
Y627600D02*
D03*
X350000Y609600D02*
D03*
Y627600D02*
D03*
X470000Y609600D02*
D03*
Y627600D02*
D03*
X590000Y609600D02*
D03*
Y627600D02*
D03*
X710000Y609600D02*
D03*
Y627600D02*
D03*
X830000Y609600D02*
D03*
Y627600D02*
D03*
X950000Y609600D02*
D03*
Y627600D02*
D03*
X1070000Y609600D02*
D03*
Y627600D02*
D03*
X1190000Y609600D02*
D03*
Y627600D02*
D03*
X1310000Y609600D02*
D03*
Y627600D02*
D03*
D16*
X623000Y538100D02*
D03*
X587000Y512700D02*
D03*
X623000Y487300D02*
D03*
X587000Y461900D02*
D03*
X263000Y538100D02*
D03*
X227000Y512700D02*
D03*
X263000Y487300D02*
D03*
X227000Y461900D02*
D03*
X383000Y538100D02*
D03*
X347000Y512700D02*
D03*
X383000Y487300D02*
D03*
X347000Y461900D02*
D03*
X503000Y538100D02*
D03*
X467000Y512700D02*
D03*
X503000Y487300D02*
D03*
X467000Y461900D02*
D03*
X743000Y538100D02*
D03*
X707000Y512700D02*
D03*
X743000Y487300D02*
D03*
X707000Y461900D02*
D03*
X863000Y538100D02*
D03*
X827000Y512700D02*
D03*
X863000Y487300D02*
D03*
X827000Y461900D02*
D03*
X983000Y538100D02*
D03*
X947000Y512700D02*
D03*
X983000Y487300D02*
D03*
X947000Y461900D02*
D03*
X1103000Y538100D02*
D03*
X1067000Y512700D02*
D03*
X1103000Y487300D02*
D03*
X1067000Y461900D02*
D03*
X1223000Y538100D02*
D03*
X1187000Y512700D02*
D03*
X1223000Y487300D02*
D03*
X1187000Y461900D02*
D03*
X1343000Y538100D02*
D03*
X1307000Y512700D02*
D03*
X1343000Y487300D02*
D03*
X1307000Y461900D02*
D03*
D17*
X699770Y1084970D02*
D03*
Y1101970D02*
D03*
X671830Y1061720D02*
D03*
Y1044720D02*
D03*
X836930Y1151110D02*
D03*
Y1134110D02*
D03*
X275590Y1114280D02*
D03*
Y1097280D02*
D03*
D18*
X677790Y655000D02*
D03*
X660790D02*
D03*
X916550D02*
D03*
X899550D02*
D03*
X1157850D02*
D03*
X1140850D02*
D03*
X1397880D02*
D03*
X1380880D02*
D03*
X439030D02*
D03*
X422030D02*
D03*
X557140D02*
D03*
X540140D02*
D03*
X797170D02*
D03*
X780170D02*
D03*
X1038080D02*
D03*
X1021080D02*
D03*
X1277230D02*
D03*
X1260230D02*
D03*
X317110D02*
D03*
X300110D02*
D03*
D19*
X662330Y1085280D02*
D03*
D20*
X671830D02*
D03*
X681330D02*
D03*
Y1109280D02*
D03*
X662330D02*
D03*
D21*
X1380250Y627170D02*
D03*
X1359750D02*
D03*
X1370000Y607270D02*
D03*
X1260250Y627170D02*
D03*
X1239750D02*
D03*
X1250000Y607270D02*
D03*
X1140250Y627170D02*
D03*
X1119750D02*
D03*
X1130000Y607270D02*
D03*
X1020250Y627170D02*
D03*
X999750D02*
D03*
X1010000Y607270D02*
D03*
X900250Y627170D02*
D03*
X879750D02*
D03*
X890000Y607270D02*
D03*
X780250Y627170D02*
D03*
X759750D02*
D03*
X770000Y607270D02*
D03*
X660250Y627170D02*
D03*
X639750D02*
D03*
X650000Y607270D02*
D03*
X540250Y627170D02*
D03*
X519750D02*
D03*
X530000Y607270D02*
D03*
X420250Y627170D02*
D03*
X399750D02*
D03*
X410000Y607270D02*
D03*
X300250Y627170D02*
D03*
X279750D02*
D03*
X290000Y607270D02*
D03*
D22*
X511810Y1055370D02*
D03*
D23*
Y1123370D02*
D03*
D24*
X755015Y933130D02*
D03*
X761365D02*
D03*
X767715D02*
D03*
X774065D02*
D03*
X780415D02*
D03*
X786765D02*
D03*
X793115D02*
D03*
X799465D02*
D03*
X805815D02*
D03*
X812165D02*
D03*
X818515D02*
D03*
X824865D02*
D03*
Y880430D02*
D03*
X818515D02*
D03*
X812165D02*
D03*
X805815D02*
D03*
X799465D02*
D03*
X793115D02*
D03*
X786765D02*
D03*
X780415D02*
D03*
X774065D02*
D03*
X767715D02*
D03*
X761365D02*
D03*
X755015D02*
D03*
D25*
X789940Y959740D02*
D03*
Y975740D02*
D03*
X814070Y975740D02*
D03*
Y959740D02*
D03*
D26*
X836930Y1173480D02*
D03*
Y1190480D02*
D03*
X275590Y1137920D02*
D03*
Y1154920D02*
D03*
D51*
X1310000Y739140D02*
D03*
Y759140D02*
D03*
Y714140D02*
D03*
Y784140D02*
D03*
X1190000Y739140D02*
D03*
Y759140D02*
D03*
Y714140D02*
D03*
Y784140D02*
D03*
X1070000Y739140D02*
D03*
Y759140D02*
D03*
Y714140D02*
D03*
Y784140D02*
D03*
X950000Y739140D02*
D03*
Y759140D02*
D03*
Y714140D02*
D03*
Y784140D02*
D03*
X830000Y739140D02*
D03*
Y759140D02*
D03*
Y714140D02*
D03*
Y784140D02*
D03*
X710000Y739140D02*
D03*
Y759140D02*
D03*
Y714140D02*
D03*
Y784140D02*
D03*
X590000Y739140D02*
D03*
Y759140D02*
D03*
Y714140D02*
D03*
Y784140D02*
D03*
X470000Y739140D02*
D03*
Y759140D02*
D03*
Y714140D02*
D03*
Y784140D02*
D03*
X350000Y739140D02*
D03*
Y759140D02*
D03*
Y714140D02*
D03*
Y784140D02*
D03*
X230000Y739140D02*
D03*
Y759140D02*
D03*
Y714140D02*
D03*
Y784140D02*
D03*
D52*
X1337000Y684140D02*
D03*
Y814140D02*
D03*
X381000Y1055710D02*
D03*
X1217000Y684140D02*
D03*
Y814140D02*
D03*
X1097000Y684140D02*
D03*
Y814140D02*
D03*
X977000Y684140D02*
D03*
Y814140D02*
D03*
X857000Y684140D02*
D03*
Y814140D02*
D03*
X737000Y684140D02*
D03*
Y814140D02*
D03*
X617000Y684140D02*
D03*
Y814140D02*
D03*
X497000Y684140D02*
D03*
Y814140D02*
D03*
X377000Y684140D02*
D03*
Y814140D02*
D03*
X257000Y684140D02*
D03*
Y814140D02*
D03*
D53*
X716990Y1191260D02*
D03*
X681990D02*
D03*
D54*
X646990D02*
D03*
D55*
X381000Y1122210D02*
D03*
D56*
X440500Y1110710D02*
D03*
Y1162710D02*
D03*
X321500D02*
D03*
Y1110710D02*
D03*
D57*
X381000Y1172210D02*
D03*
X1521460Y489540D02*
D03*
Y699540D02*
D03*
Y524540D02*
D03*
Y664540D02*
D03*
Y559540D02*
D03*
Y629540D02*
D03*
Y594540D02*
D03*
X39370Y489540D02*
D03*
Y699540D02*
D03*
Y524540D02*
D03*
Y664540D02*
D03*
Y559540D02*
D03*
Y629540D02*
D03*
Y594540D02*
D03*
Y750040D02*
D03*
Y960040D02*
D03*
Y785040D02*
D03*
Y925040D02*
D03*
Y820040D02*
D03*
Y890040D02*
D03*
Y855040D02*
D03*
X1521460Y750040D02*
D03*
Y960040D02*
D03*
Y785040D02*
D03*
Y925040D02*
D03*
Y820040D02*
D03*
Y890040D02*
D03*
Y855040D02*
D03*
D58*
X928370Y1167130D02*
D03*
X953770D02*
D03*
X979170D02*
D03*
X1004570D02*
D03*
X1029970D02*
D03*
X1055370D02*
D03*
X1080770D02*
D03*
X1106170D02*
D03*
X1131570D02*
D03*
X1156970D02*
D03*
X1182370D02*
D03*
X1207770D02*
D03*
X1233170D02*
D03*
X1258570D02*
D03*
X1283970D02*
D03*
Y1014730D02*
D03*
X1258570D02*
D03*
X1233170D02*
D03*
X1207770D02*
D03*
X1182370D02*
D03*
X1156970D02*
D03*
X1131570D02*
D03*
X1106170D02*
D03*
X1080770D02*
D03*
X1055370D02*
D03*
X1029970D02*
D03*
X1004570D02*
D03*
X979170D02*
D03*
X953770D02*
D03*
D59*
X928370D02*
D03*
M02*
