G04*
G04 #@! TF.GenerationSoftware,Altium Limited,Altium NEXUS,2.1.5 (53)*
G04*
G04 Layer_Color=8388736*
%FSLAX44Y44*%
%MOMM*%
G71*
G01*
G75*
%ADD21R,0.6100X1.6100*%
%ADD27R,1.6032X1.4032*%
%ADD28R,3.1632X1.4732*%
%ADD29R,1.2032X1.1032*%
%ADD30R,1.1032X1.2032*%
G04:AMPARAMS|DCode=31|XSize=0.8532mm|YSize=1.3032mm|CornerRadius=0mm|HoleSize=0mm|Usage=FLASHONLY|Rotation=180.000|XOffset=0mm|YOffset=0mm|HoleType=Round|Shape=Octagon|*
%AMOCTAGOND31*
4,1,8,0.2133,-0.6516,-0.2133,-0.6516,-0.4266,-0.4383,-0.4266,0.4383,-0.2133,0.6516,0.2133,0.6516,0.4266,0.4383,0.4266,-0.4383,0.2133,-0.6516,0.0*
%
%ADD31OCTAGOND31*%

%ADD32R,0.8532X1.3032*%
G04:AMPARAMS|DCode=33|XSize=4.0032mm|YSize=1.5032mm|CornerRadius=0mm|HoleSize=0mm|Usage=FLASHONLY|Rotation=90.000|XOffset=0mm|YOffset=0mm|HoleType=Round|Shape=Octagon|*
%AMOCTAGOND33*
4,1,8,0.3758,2.0016,-0.3758,2.0016,-0.7516,1.6258,-0.7516,-1.6258,-0.3758,-2.0016,0.3758,-2.0016,0.7516,-1.6258,0.7516,1.6258,0.3758,2.0016,0.0*
%
%ADD33OCTAGOND33*%

%ADD34R,1.5032X4.0032*%
G04:AMPARAMS|DCode=35|XSize=1.8432mm|YSize=0.6132mm|CornerRadius=0.1529mm|HoleSize=0mm|Usage=FLASHONLY|Rotation=90.000|XOffset=0mm|YOffset=0mm|HoleType=Round|Shape=RoundedRectangle|*
%AMROUNDEDRECTD35*
21,1,1.8432,0.3075,0,0,90.0*
21,1,1.5375,0.6132,0,0,90.0*
1,1,0.3057,0.1538,0.7688*
1,1,0.3057,0.1538,-0.7688*
1,1,0.3057,-0.1538,-0.7688*
1,1,0.3057,-0.1538,0.7688*
%
%ADD35ROUNDEDRECTD35*%
%ADD36R,1.2032X1.2032*%
%ADD37R,1.2032X1.3032*%
%ADD38C,1.7272*%
%ADD39C,3.2032*%
%ADD40C,1.9032*%
%ADD41R,1.9032X1.9032*%
%ADD42O,2.8192X1.5112*%
%ADD43O,1.7112X3.2192*%
%ADD44C,1.8032*%
%ADD45C,2.0032*%
%ADD46R,2.0032X2.0032*%
D21*
X1380250Y627170D02*
D03*
X1359750D02*
D03*
X1370000Y607270D02*
D03*
X1260250Y627170D02*
D03*
X1239750D02*
D03*
X1250000Y607270D02*
D03*
X1140250Y627170D02*
D03*
X1119750D02*
D03*
X1130000Y607270D02*
D03*
X1020250Y627170D02*
D03*
X999750D02*
D03*
X1010000Y607270D02*
D03*
X900250Y627170D02*
D03*
X879750D02*
D03*
X890000Y607270D02*
D03*
X780250Y627170D02*
D03*
X759750D02*
D03*
X770000Y607270D02*
D03*
X660250Y627170D02*
D03*
X639750D02*
D03*
X650000Y607270D02*
D03*
X540250Y627170D02*
D03*
X519750D02*
D03*
X530000Y607270D02*
D03*
X420250Y627170D02*
D03*
X399750D02*
D03*
X410000Y607270D02*
D03*
X300250Y627170D02*
D03*
X279750D02*
D03*
X290000Y607270D02*
D03*
D27*
X230000Y609600D02*
D03*
Y627600D02*
D03*
X350000Y609600D02*
D03*
Y627600D02*
D03*
X470000Y609600D02*
D03*
Y627600D02*
D03*
X590000Y609600D02*
D03*
Y627600D02*
D03*
X710000Y609600D02*
D03*
Y627600D02*
D03*
X830000Y609600D02*
D03*
Y627600D02*
D03*
X950000Y609600D02*
D03*
Y627600D02*
D03*
X1070000Y609600D02*
D03*
Y627600D02*
D03*
X1190000Y609600D02*
D03*
Y627600D02*
D03*
X1310000Y609600D02*
D03*
Y627600D02*
D03*
D28*
X623000Y538100D02*
D03*
X587000Y512700D02*
D03*
X623000Y487300D02*
D03*
X587000Y461900D02*
D03*
X263000Y538100D02*
D03*
X227000Y512700D02*
D03*
X263000Y487300D02*
D03*
X227000Y461900D02*
D03*
X383000Y538100D02*
D03*
X347000Y512700D02*
D03*
X383000Y487300D02*
D03*
X347000Y461900D02*
D03*
X503000Y538100D02*
D03*
X467000Y512700D02*
D03*
X503000Y487300D02*
D03*
X467000Y461900D02*
D03*
X743000Y538100D02*
D03*
X707000Y512700D02*
D03*
X743000Y487300D02*
D03*
X707000Y461900D02*
D03*
X863000Y538100D02*
D03*
X827000Y512700D02*
D03*
X863000Y487300D02*
D03*
X827000Y461900D02*
D03*
X983000Y538100D02*
D03*
X947000Y512700D02*
D03*
X983000Y487300D02*
D03*
X947000Y461900D02*
D03*
X1103000Y538100D02*
D03*
X1067000Y512700D02*
D03*
X1103000Y487300D02*
D03*
X1067000Y461900D02*
D03*
X1223000Y538100D02*
D03*
X1187000Y512700D02*
D03*
X1223000Y487300D02*
D03*
X1187000Y461900D02*
D03*
X1343000Y538100D02*
D03*
X1307000Y512700D02*
D03*
X1343000Y487300D02*
D03*
X1307000Y461900D02*
D03*
D29*
X699770Y1084970D02*
D03*
Y1101970D02*
D03*
X671830Y1061720D02*
D03*
Y1044720D02*
D03*
X836930Y1151110D02*
D03*
Y1134110D02*
D03*
X275590Y1114280D02*
D03*
Y1097280D02*
D03*
D30*
X677790Y655000D02*
D03*
X660790D02*
D03*
X916550D02*
D03*
X899550D02*
D03*
X1157850D02*
D03*
X1140850D02*
D03*
X1397880D02*
D03*
X1380880D02*
D03*
X439030D02*
D03*
X422030D02*
D03*
X557140D02*
D03*
X540140D02*
D03*
X797170D02*
D03*
X780170D02*
D03*
X1038080D02*
D03*
X1021080D02*
D03*
X1277230D02*
D03*
X1260230D02*
D03*
X317110D02*
D03*
X300110D02*
D03*
D31*
X662330Y1085280D02*
D03*
D32*
X671830D02*
D03*
X681330D02*
D03*
Y1109280D02*
D03*
X662330D02*
D03*
D33*
X511810Y1055370D02*
D03*
D34*
Y1123370D02*
D03*
D35*
X755015Y933130D02*
D03*
X761365D02*
D03*
X767715D02*
D03*
X774065D02*
D03*
X780415D02*
D03*
X786765D02*
D03*
X793115D02*
D03*
X799465D02*
D03*
X805815D02*
D03*
X812165D02*
D03*
X818515D02*
D03*
X824865D02*
D03*
Y880430D02*
D03*
X818515D02*
D03*
X812165D02*
D03*
X805815D02*
D03*
X799465D02*
D03*
X793115D02*
D03*
X786765D02*
D03*
X780415D02*
D03*
X774065D02*
D03*
X767715D02*
D03*
X761365D02*
D03*
X755015D02*
D03*
D36*
X789940Y959740D02*
D03*
Y975740D02*
D03*
X814070Y975740D02*
D03*
Y959740D02*
D03*
D37*
X836930Y1173480D02*
D03*
Y1190480D02*
D03*
X275590Y1137920D02*
D03*
Y1154920D02*
D03*
D38*
X1310000Y739140D02*
D03*
Y759140D02*
D03*
Y714140D02*
D03*
Y784140D02*
D03*
X1190000Y739140D02*
D03*
Y759140D02*
D03*
Y714140D02*
D03*
Y784140D02*
D03*
X1070000Y739140D02*
D03*
Y759140D02*
D03*
Y714140D02*
D03*
Y784140D02*
D03*
X950000Y739140D02*
D03*
Y759140D02*
D03*
Y714140D02*
D03*
Y784140D02*
D03*
X830000Y739140D02*
D03*
Y759140D02*
D03*
Y714140D02*
D03*
Y784140D02*
D03*
X710000Y739140D02*
D03*
Y759140D02*
D03*
Y714140D02*
D03*
Y784140D02*
D03*
X590000Y739140D02*
D03*
Y759140D02*
D03*
Y714140D02*
D03*
Y784140D02*
D03*
X470000Y739140D02*
D03*
Y759140D02*
D03*
Y714140D02*
D03*
Y784140D02*
D03*
X350000Y739140D02*
D03*
Y759140D02*
D03*
Y714140D02*
D03*
Y784140D02*
D03*
X230000Y739140D02*
D03*
Y759140D02*
D03*
Y714140D02*
D03*
Y784140D02*
D03*
D39*
X1337000Y684140D02*
D03*
Y814140D02*
D03*
X381000Y1055710D02*
D03*
X1217000Y684140D02*
D03*
Y814140D02*
D03*
X1097000Y684140D02*
D03*
Y814140D02*
D03*
X977000Y684140D02*
D03*
Y814140D02*
D03*
X857000Y684140D02*
D03*
Y814140D02*
D03*
X737000Y684140D02*
D03*
Y814140D02*
D03*
X617000Y684140D02*
D03*
Y814140D02*
D03*
X497000Y684140D02*
D03*
Y814140D02*
D03*
X377000Y684140D02*
D03*
Y814140D02*
D03*
X257000Y684140D02*
D03*
Y814140D02*
D03*
D40*
X716990Y1191260D02*
D03*
X681990D02*
D03*
D41*
X646990D02*
D03*
D42*
X381000Y1122210D02*
D03*
D43*
X440500Y1110710D02*
D03*
Y1162710D02*
D03*
X321500D02*
D03*
Y1110710D02*
D03*
D44*
X381000Y1172210D02*
D03*
X1521460Y489540D02*
D03*
Y699540D02*
D03*
Y524540D02*
D03*
Y664540D02*
D03*
Y559540D02*
D03*
Y629540D02*
D03*
Y594540D02*
D03*
X39370Y489540D02*
D03*
Y699540D02*
D03*
Y524540D02*
D03*
Y664540D02*
D03*
Y559540D02*
D03*
Y629540D02*
D03*
Y594540D02*
D03*
Y750040D02*
D03*
Y960040D02*
D03*
Y785040D02*
D03*
Y925040D02*
D03*
Y820040D02*
D03*
Y890040D02*
D03*
Y855040D02*
D03*
X1521460Y750040D02*
D03*
Y960040D02*
D03*
Y785040D02*
D03*
Y925040D02*
D03*
Y820040D02*
D03*
Y890040D02*
D03*
Y855040D02*
D03*
D45*
X928370Y1167130D02*
D03*
X953770D02*
D03*
X979170D02*
D03*
X1004570D02*
D03*
X1029970D02*
D03*
X1055370D02*
D03*
X1080770D02*
D03*
X1106170D02*
D03*
X1131570D02*
D03*
X1156970D02*
D03*
X1182370D02*
D03*
X1207770D02*
D03*
X1233170D02*
D03*
X1258570D02*
D03*
X1283970D02*
D03*
Y1014730D02*
D03*
X1258570D02*
D03*
X1233170D02*
D03*
X1207770D02*
D03*
X1182370D02*
D03*
X1156970D02*
D03*
X1131570D02*
D03*
X1106170D02*
D03*
X1080770D02*
D03*
X1055370D02*
D03*
X1029970D02*
D03*
X1004570D02*
D03*
X979170D02*
D03*
X953770D02*
D03*
D46*
X928370D02*
D03*
M02*
