M48
;Layer_Color=9474304
;FILE_FORMAT=4:4
METRIC,LZ
;TYPE=PLATED
T1F00S00C0.3000
T3F00S00C1.1000
%
T01
X0002Y0002
X0004
X0006
X0008
X001
X0012
X0014
X0016
X0018
X002
X0022
X0024
X0026
X0028
X003
X0032
X0033Y0004
X0031
X0029
X0027
X0026Y0006
X0024
X002
X0018
X0016
X0014
X0012
X001
X0008
X0006
X0007Y0008
X0009
X0011
X0013
X0015
X0017
X0019
X0012Y001
X001
X0008
X0006
X0007Y0012
X0009
X0011
X0013
X0012Y0014
X001
X0008
X0006
X0007Y0016
X0009
X0011
X0013
X0012Y0018
X001
X0008
X0006
X0005Y0016
Y0012
Y0008
X0002Y001
Y0014
Y0018
Y0006
X0003Y0004
X0013Y002
X0031Y0008
X0033
X0032Y0006
X003
T03
X000475Y0022724
X000925
M30
