%TF.GenerationSoftware,Altium Limited,Altium NEXUS,2.1.5 (53)*%
G04 Layer_Color=16711935*
%FSLAX44Y44*%
%MOMM*%
%TF.FileFunction,Soldermask,Bot*%
%TF.Part,Single*%
G01*
G75*
%TA.AperFunction,ComponentPad*%
%ADD32C,1.0000*%
%TA.AperFunction,SMDPad,CuDef*%
%ADD42R,0.3556X1.0604*%
%ADD53R,0.2294X0.8080*%
%ADD54R,2.5400X1.6510*%
%ADD71R,0.9000X0.8000*%
%ADD72R,0.7000X0.6000*%
%ADD73R,1.0000X1.1000*%
%ADD74R,0.6000X0.7000*%
%ADD77R,0.8000X0.9000*%
%ADD78R,1.5000X1.2000*%
%TA.AperFunction,ComponentPad*%
%ADD79C,1.1000*%
%ADD80R,1.1000X1.1000*%
%ADD81C,1.6900*%
%ADD82R,1.6900X1.6900*%
%ADD83R,1.6900X1.6900*%
%ADD84R,4.1000X4.1000*%
%ADD85R,4.1000X4.1000*%
%ADD86R,1.7000X1.7000*%
%ADD87C,1.7000*%
%TA.AperFunction,SMDPad,CuDef*%
%ADD91O,2.6016X0.8016*%
%ADD92R,0.7000X0.7000*%
%ADD93R,1.4720X0.8100*%
%ADD94R,1.1000X1.1000*%
%ADD95R,2.8000X6.3000*%
%ADD96R,1.4000X1.9000*%
%ADD97R,2.7000X1.2000*%
%TA.AperFunction,ConnectorPad*%
%ADD98R,0.6000X2.4000*%
%ADD99R,2.1000X2.6000*%
%TA.AperFunction,SMDPad,CuDef*%
%ADD100R,0.7000X0.7000*%
G04:AMPARAMS|DCode=101|XSize=1.55mm|YSize=0.69mm|CornerRadius=0.1238mm|HoleSize=0mm|Usage=FLASHONLY|Rotation=0.000|XOffset=0mm|YOffset=0mm|HoleType=Round|Shape=RoundedRectangle|*
%AMROUNDEDRECTD101*
21,1,1.5500,0.4425,0,0,0.0*
21,1,1.3025,0.6900,0,0,0.0*
1,1,0.2475,0.6513,-0.2213*
1,1,0.2475,-0.6513,-0.2213*
1,1,0.2475,-0.6513,0.2213*
1,1,0.2475,0.6513,0.2213*
%
%ADD101ROUNDEDRECTD101*%
%TA.AperFunction,BGAPad,CuDef*%
%ADD102C,1.0032*%
G36*
X284646Y287550D02*
X290546D01*
Y283950D01*
X284646D01*
Y274850D01*
X290546D01*
Y271250D01*
X284646D01*
Y262150D01*
X290546D01*
Y258550D01*
X284546D01*
Y249450D01*
X331046D01*
Y296650D01*
X284646D01*
Y287550D01*
D02*
G37*
G36*
X429166Y258550D02*
X423266D01*
Y262150D01*
X429166D01*
Y271250D01*
X423266D01*
Y274850D01*
X429166D01*
Y283950D01*
X423266D01*
Y287550D01*
X429266D01*
Y296650D01*
X382766D01*
Y249450D01*
X429166D01*
Y258550D01*
D02*
G37*
D32*
X303530Y91440D02*
D03*
X347530D02*
D03*
X241310Y126492D02*
D03*
X251460Y50292D02*
D03*
X261610Y126492D02*
D03*
D42*
X358750Y217686D02*
D03*
X352247D02*
D03*
X345745D02*
D03*
X339242D02*
D03*
Y174998D02*
D03*
X345745D02*
D03*
X352247D02*
D03*
X358750D02*
D03*
D53*
X409120Y118086D02*
D03*
X413620D02*
D03*
X418120D02*
D03*
X422620D02*
D03*
X427120D02*
D03*
X431620D02*
D03*
X431620Y90194D02*
D03*
X427120D02*
D03*
X422620D02*
D03*
X418120D02*
D03*
X413620D02*
D03*
X409120D02*
D03*
D54*
X420370Y104140D02*
D03*
D71*
X213710Y95758D02*
D03*
X225710D02*
D03*
X225140Y167132D02*
D03*
X237140D02*
D03*
D72*
X150702Y185928D02*
D03*
X160702D02*
D03*
X432990Y76200D02*
D03*
X422990D02*
D03*
X204136Y137160D02*
D03*
X194136D02*
D03*
D73*
X405520Y138430D02*
D03*
X422520D02*
D03*
D74*
X140716Y175594D02*
D03*
Y185594D02*
D03*
X392430Y91520D02*
D03*
Y101520D02*
D03*
X313690Y152066D02*
D03*
Y142066D02*
D03*
X334518Y151812D02*
D03*
Y141812D02*
D03*
X393700Y148510D02*
D03*
Y138510D02*
D03*
D77*
X373634Y205074D02*
D03*
Y217074D02*
D03*
Y191674D02*
D03*
Y179674D02*
D03*
X147320Y209708D02*
D03*
Y197708D02*
D03*
X161036Y209708D02*
D03*
Y197708D02*
D03*
X343408Y141574D02*
D03*
Y153574D02*
D03*
X324104Y141320D02*
D03*
Y153320D02*
D03*
D78*
X163576Y164218D02*
D03*
Y149218D02*
D03*
D79*
X466090Y68834D02*
D03*
Y56134D02*
D03*
D80*
Y81534D02*
D03*
D81*
X218040Y355600D02*
D03*
X193040D02*
D03*
X168040D02*
D03*
X35560Y205810D02*
D03*
Y180810D02*
D03*
Y155810D02*
D03*
D82*
X143040Y355600D02*
D03*
D83*
X35560Y130810D02*
D03*
D84*
X600710Y273050D02*
D03*
Y213360D02*
D03*
D85*
X44450Y273050D02*
D03*
X43180Y349250D02*
D03*
D86*
X408686Y58674D02*
D03*
D87*
X434086D02*
D03*
D91*
X232780Y221996D02*
D03*
Y209296D02*
D03*
Y196596D02*
D03*
Y183896D02*
D03*
X183780D02*
D03*
Y196596D02*
D03*
Y209296D02*
D03*
Y221996D02*
D03*
D92*
X150448Y177038D02*
D03*
X160448D02*
D03*
D93*
X365906Y254000D02*
D03*
Y266700D02*
D03*
Y279400D02*
D03*
Y292100D02*
D03*
X347906D02*
D03*
Y279400D02*
D03*
Y266700D02*
D03*
Y254000D02*
D03*
D94*
X393606Y273050D02*
D03*
X320206D02*
D03*
D95*
X166816D02*
D03*
X249816D02*
D03*
D96*
X129816Y272796D02*
D03*
X100816D02*
D03*
X160506Y77470D02*
D03*
X189506D02*
D03*
D97*
X188976Y122720D02*
D03*
Y95720D02*
D03*
D98*
X309530Y117940D02*
D03*
X317530D02*
D03*
X325530D02*
D03*
X333530D02*
D03*
X341530D02*
D03*
D99*
X281030Y116940D02*
D03*
X370030D02*
D03*
X281030Y61940D02*
D03*
X370030D02*
D03*
D100*
X392684Y61468D02*
D03*
Y51468D02*
D03*
X392430Y81454D02*
D03*
Y71454D02*
D03*
D101*
X205606Y147980D02*
D03*
Y157480D02*
D03*
Y166980D02*
D03*
X182506D02*
D03*
Y157480D02*
D03*
Y147980D02*
D03*
D102*
X257810Y62992D02*
D03*
Y75692D02*
D03*
Y88392D02*
D03*
Y101092D02*
D03*
Y113792D02*
D03*
X245110D02*
D03*
Y101092D02*
D03*
Y88392D02*
D03*
Y75692D02*
D03*
Y62992D02*
D03*
%TF.MD5,96692c2b0553546aa5bbc926df96e10a*%
M02*
