%TF.GenerationSoftware,Altium Limited,Altium NEXUS,2.1.5 (53)*%
G04 Layer_Color=128*
%FSLAX44Y44*%
%MOMM*%
%TF.FileFunction,Paste,Bot*%
%TF.Part,Single*%
G01*
G75*
%TA.AperFunction,SMDPad,CuDef*%
%ADD18R,0.8000X0.7000*%
%ADD19R,0.6000X0.5000*%
%ADD20R,0.9000X1.0000*%
%ADD21R,0.5000X0.6000*%
%ADD24R,0.7000X0.8000*%
%ADD25R,1.4000X1.1000*%
%ADD42R,0.3556X1.0604*%
%ADD44R,0.6000X0.6000*%
%ADD46R,1.0000X1.0000*%
%ADD47R,2.7000X6.2000*%
%ADD48R,1.3000X1.8000*%
%ADD49R,2.6000X1.1000*%
%TA.AperFunction,ConnectorPad*%
%ADD50R,0.5000X2.3000*%
%ADD51R,2.0000X2.5000*%
%TA.AperFunction,SMDPad,CuDef*%
%ADD52R,0.6000X0.6000*%
%ADD53R,0.2294X0.8080*%
%ADD54R,2.5400X1.6510*%
G04:AMPARAMS|DCode=55|XSize=1.45mm|YSize=0.59mm|CornerRadius=0.0738mm|HoleSize=0mm|Usage=FLASHONLY|Rotation=0.000|XOffset=0mm|YOffset=0mm|HoleType=Round|Shape=RoundedRectangle|*
%AMROUNDEDRECTD55*
21,1,1.4500,0.4425,0,0,0.0*
21,1,1.3025,0.5900,0,0,0.0*
1,1,0.1475,0.6513,-0.2213*
1,1,0.1475,-0.6513,-0.2213*
1,1,0.1475,-0.6513,0.2213*
1,1,0.1475,0.6513,0.2213*
%
%ADD55ROUNDEDRECTD55*%
%ADD88O,2.2968X0.4968*%
G36*
X426536Y289560D02*
X418876D01*
Y294640D01*
X426536D01*
Y289560D01*
D02*
G37*
G36*
X294936D02*
X287276D01*
Y294640D01*
X294936D01*
Y289560D01*
D02*
G37*
G36*
X371396Y289290D02*
X360676D01*
Y294910D01*
X371396D01*
Y289290D01*
D02*
G37*
G36*
X353136D02*
X342416D01*
Y294910D01*
X353136D01*
Y289290D01*
D02*
G37*
G36*
X416016Y285010D02*
X403076D01*
Y292470D01*
X416016D01*
Y285010D01*
D02*
G37*
G36*
X399576D02*
X386636D01*
Y292470D01*
X399576D01*
Y285010D01*
D02*
G37*
G36*
X327176D02*
X314236D01*
Y292470D01*
X327176D01*
Y285010D01*
D02*
G37*
G36*
X310736D02*
X297796D01*
Y292470D01*
X310736D01*
Y285010D01*
D02*
G37*
G36*
X426536Y276860D02*
X418876D01*
Y281940D01*
X426536D01*
Y276860D01*
D02*
G37*
G36*
X294936D02*
X287276D01*
Y281940D01*
X294936D01*
Y276860D01*
D02*
G37*
G36*
X371396Y276590D02*
X360676D01*
Y282210D01*
X371396D01*
Y276590D01*
D02*
G37*
G36*
X353136D02*
X342416D01*
Y282210D01*
X353136D01*
Y276590D01*
D02*
G37*
G36*
X416016Y274550D02*
X403076D01*
Y282010D01*
X416016D01*
Y274550D01*
D02*
G37*
G36*
X399576D02*
X386636D01*
Y282010D01*
X399576D01*
Y274550D01*
D02*
G37*
G36*
X327176D02*
X314236D01*
Y282010D01*
X327176D01*
Y274550D01*
D02*
G37*
G36*
X310736D02*
X297796D01*
Y282010D01*
X310736D01*
Y274550D01*
D02*
G37*
G36*
X426536Y264160D02*
X418876D01*
Y269240D01*
X426536D01*
Y264160D01*
D02*
G37*
G36*
X294936D02*
X287276D01*
Y269240D01*
X294936D01*
Y264160D01*
D02*
G37*
G36*
X416016Y264090D02*
X403076D01*
Y271550D01*
X416016D01*
Y264090D01*
D02*
G37*
G36*
X399576D02*
X386636D01*
Y271550D01*
X399576D01*
Y264090D01*
D02*
G37*
G36*
X327176D02*
X314236D01*
Y271550D01*
X327176D01*
Y264090D01*
D02*
G37*
G36*
X310736D02*
X297796D01*
Y271550D01*
X310736D01*
Y264090D01*
D02*
G37*
G36*
X371396Y263890D02*
X360676D01*
Y269510D01*
X371396D01*
Y263890D01*
D02*
G37*
G36*
X353136D02*
X342416D01*
Y269510D01*
X353136D01*
Y263890D01*
D02*
G37*
G36*
X416016Y253630D02*
X403076D01*
Y261090D01*
X416016D01*
Y253630D01*
D02*
G37*
G36*
X399576D02*
X386636D01*
Y261090D01*
X399576D01*
Y253630D01*
D02*
G37*
G36*
X327176D02*
X314236D01*
Y261090D01*
X327176D01*
Y253630D01*
D02*
G37*
G36*
X310736D02*
X297796D01*
Y261090D01*
X310736D01*
Y253630D01*
D02*
G37*
G36*
X426536Y251460D02*
X418876D01*
Y256540D01*
X426536D01*
Y251460D01*
D02*
G37*
G36*
X294936D02*
X287276D01*
Y256540D01*
X294936D01*
Y251460D01*
D02*
G37*
G36*
X371396Y251190D02*
X360676D01*
Y256810D01*
X371396D01*
Y251190D01*
D02*
G37*
G36*
X353136D02*
X342416D01*
Y256810D01*
X353136D01*
Y251190D01*
D02*
G37*
G36*
X432070Y96885D02*
X421370D01*
Y111395D01*
X432070D01*
Y96885D01*
D02*
G37*
G36*
X419370D02*
X408670D01*
Y111395D01*
X419370D01*
Y96885D01*
D02*
G37*
D18*
X213710Y95758D02*
D03*
X225710D02*
D03*
X225140Y167132D02*
D03*
X237140D02*
D03*
D19*
X150702Y185928D02*
D03*
X160702D02*
D03*
X432990Y76200D02*
D03*
X422990D02*
D03*
X204136Y137160D02*
D03*
X194136D02*
D03*
D20*
X405520Y138430D02*
D03*
X422520D02*
D03*
D21*
X140716Y175594D02*
D03*
Y185594D02*
D03*
X392430Y91520D02*
D03*
Y101520D02*
D03*
X313690Y152066D02*
D03*
Y142066D02*
D03*
X334518Y151812D02*
D03*
Y141812D02*
D03*
X393700Y148510D02*
D03*
Y138510D02*
D03*
D24*
X373634Y205074D02*
D03*
Y217074D02*
D03*
Y191674D02*
D03*
Y179674D02*
D03*
X147320Y209708D02*
D03*
Y197708D02*
D03*
X161036Y209708D02*
D03*
Y197708D02*
D03*
X343408Y141574D02*
D03*
Y153574D02*
D03*
X324104Y141320D02*
D03*
Y153320D02*
D03*
D25*
X163576Y164218D02*
D03*
Y149218D02*
D03*
D42*
X358750Y217686D02*
D03*
X352247D02*
D03*
X345745D02*
D03*
X339242D02*
D03*
Y174998D02*
D03*
X345745D02*
D03*
X352247D02*
D03*
X358750D02*
D03*
D44*
X150448Y177038D02*
D03*
X160448D02*
D03*
D46*
X393606Y273050D02*
D03*
X320206D02*
D03*
D47*
X166816D02*
D03*
X249816D02*
D03*
D48*
X129816Y272796D02*
D03*
X100816D02*
D03*
X160506Y77470D02*
D03*
X189506D02*
D03*
D49*
X188976Y122720D02*
D03*
Y95720D02*
D03*
D50*
X309530Y117940D02*
D03*
X317530D02*
D03*
X325530D02*
D03*
X333530D02*
D03*
X341530D02*
D03*
D51*
X281030Y116940D02*
D03*
X370030D02*
D03*
X281030Y61940D02*
D03*
X370030D02*
D03*
D52*
X392684Y61468D02*
D03*
Y51468D02*
D03*
X392430Y81454D02*
D03*
Y71454D02*
D03*
D53*
X409120Y118086D02*
D03*
X413620D02*
D03*
X418120D02*
D03*
X422620D02*
D03*
X427120D02*
D03*
X431620D02*
D03*
X431620Y90194D02*
D03*
X427120D02*
D03*
X422620D02*
D03*
X418120D02*
D03*
X413620D02*
D03*
X409120D02*
D03*
D54*
X420370Y104140D02*
D03*
D55*
X205606Y147980D02*
D03*
Y157480D02*
D03*
Y166980D02*
D03*
X182506D02*
D03*
Y157480D02*
D03*
Y147980D02*
D03*
D88*
X232780Y221996D02*
D03*
Y209296D02*
D03*
Y196596D02*
D03*
Y183896D02*
D03*
X183780D02*
D03*
Y196596D02*
D03*
Y209296D02*
D03*
Y221996D02*
D03*
%TF.MD5,7a8adb205912c4966102055954e836ee*%
M02*
