%TF.GenerationSoftware,Altium Limited,Altium NEXUS,2.1.5 (53)*%
G04 Layer_Color=65535*
%FSLAX44Y44*%
%MOMM*%
%TF.FileFunction,Legend,Top*%
%TF.Part,Single*%
G01*
G75*
%TA.AperFunction,NonConductor*%
%ADD57C,0.2000*%
%ADD58C,0.2032*%
%ADD59C,0.1270*%
%ADD60C,0.3000*%
%ADD61C,0.2500*%
%ADD62C,0.6000*%
G36*
X87630Y241808D02*
X67310D01*
Y374650D01*
X87630D01*
Y241808D01*
D02*
G37*
G36*
X342900Y211861D02*
Y197866D01*
X317754D01*
Y211861D01*
X342900D01*
D02*
G37*
G36*
X529082Y72644D02*
X515366D01*
Y106426D01*
X529082D01*
Y72644D01*
D02*
G37*
G36*
X557530Y72390D02*
X543814D01*
Y106172D01*
X557530D01*
Y72390D01*
D02*
G37*
G36*
X401828Y272414D02*
X87884D01*
Y286004D01*
X257048D01*
D01*
X401828D01*
Y272414D01*
D02*
G37*
G36*
Y256794D02*
X87884D01*
Y272414D01*
X401828D01*
Y256794D01*
D02*
G37*
G36*
X381762Y305054D02*
X259842D01*
Y323088D01*
X381762D01*
Y305054D01*
D02*
G37*
G36*
X576834Y187452D02*
X550128D01*
Y301498D01*
X576834D01*
Y187452D01*
D02*
G37*
G36*
X586994Y72136D02*
X573278D01*
Y105918D01*
X586994D01*
Y72136D01*
D02*
G37*
G36*
X548894Y272414D02*
X401828D01*
Y286004D01*
X548894D01*
Y272414D01*
D02*
G37*
G36*
Y256794D02*
X401828D01*
Y272414D01*
X548894D01*
Y256794D01*
D02*
G37*
%LPC*%
G36*
X85478Y317456D02*
X69462D01*
Y315331D01*
X85478D01*
Y317456D01*
D02*
G37*
G36*
Y311624D02*
X69462D01*
Y299002D01*
X85478D01*
Y301043D01*
X72898D01*
X85478Y309458D01*
Y311624D01*
D02*
G37*
%LPD*%
G36*
X69462Y301189D02*
Y309583D01*
X82021D01*
X69462Y301189D01*
D02*
G37*
%LPC*%
G36*
X335477Y209747D02*
X333293D01*
D01*
X335477D01*
D02*
G37*
G36*
X339668D02*
X338423D01*
Y202076D01*
X333293Y209747D01*
X331972D01*
Y199981D01*
X333216D01*
Y207639D01*
X338334Y199981D01*
X334404D01*
X339668D01*
Y209747D01*
D02*
G37*
G36*
X330321Y209912D02*
X320986D01*
X325660D01*
X325279Y209899D01*
X324923Y209848D01*
X324580Y209785D01*
X324263Y209696D01*
X323958Y209594D01*
X323679Y209480D01*
X323425Y209353D01*
X323196Y209226D01*
X322993Y209086D01*
X322802Y208972D01*
X322650Y208845D01*
X322523Y208743D01*
X322421Y208655D01*
X322345Y208591D01*
X322294Y208540D01*
X322282Y208528D01*
X322053Y208261D01*
X321850Y207969D01*
X321685Y207664D01*
X321532Y207359D01*
X321405Y207042D01*
X321304Y206724D01*
X321215Y206419D01*
X321151Y206115D01*
X321100Y205835D01*
X321050Y205569D01*
X321024Y205340D01*
X321012Y205137D01*
X320999Y204959D01*
X320986Y204832D01*
Y204730D01*
X320999Y204489D01*
X321012Y204260D01*
X321075Y203803D01*
X321164Y203397D01*
X321215Y203206D01*
X321265Y203029D01*
X321316Y202876D01*
X321367Y202724D01*
X321418Y202597D01*
X321456Y202495D01*
X321494Y202406D01*
X321520Y202343D01*
X321545Y202305D01*
Y202292D01*
X321773Y201886D01*
X322040Y201517D01*
X322167Y201365D01*
X322307Y201212D01*
X322447Y201073D01*
X322574Y200946D01*
X322701Y200844D01*
X322815Y200742D01*
X322916Y200666D01*
X323005Y200603D01*
X323082Y200539D01*
X323133Y200501D01*
X323171Y200488D01*
X323183Y200476D01*
X323386Y200361D01*
X323602Y200260D01*
X323806Y200171D01*
X324021Y200095D01*
X324440Y199981D01*
X324822Y199904D01*
X324999Y199866D01*
X325152Y199853D01*
X325291Y199841D01*
X325419Y199828D01*
X325507Y199815D01*
X320986D01*
X325647D01*
X325888Y199828D01*
X326117Y199841D01*
X326549Y199904D01*
X326955Y200006D01*
X327133Y200057D01*
X327311Y200120D01*
X327463Y200171D01*
X327603Y200222D01*
X327717Y200273D01*
X327819Y200323D01*
X327895Y200361D01*
X327958Y200387D01*
X327997Y200412D01*
X328009D01*
X328213Y200527D01*
X328403Y200654D01*
X328746Y200946D01*
X329038Y201238D01*
X329165Y201378D01*
X329279Y201517D01*
X329381Y201657D01*
X329470Y201771D01*
X329533Y201886D01*
X329597Y201987D01*
X329647Y202063D01*
X329686Y202127D01*
X329698Y202165D01*
X329711Y202178D01*
X329813Y202406D01*
X329914Y202635D01*
X330067Y203092D01*
X330168Y203536D01*
X330206Y203752D01*
X330244Y203956D01*
X330270Y204146D01*
X330295Y204311D01*
X330308Y204464D01*
Y204591D01*
X330321Y204705D01*
Y205111D01*
X330295Y205378D01*
X330232Y205873D01*
X330194Y206102D01*
X330143Y206318D01*
X330092Y206521D01*
X330041Y206699D01*
X329978Y206864D01*
X329927Y207016D01*
X329876Y207143D01*
X329838Y207258D01*
X329800Y207347D01*
X329775Y207410D01*
X329762Y207448D01*
X329749Y207461D01*
X329508Y207867D01*
X329381Y208058D01*
X329254Y208235D01*
X329114Y208388D01*
X328974Y208540D01*
X328835Y208680D01*
X328708Y208794D01*
X328581Y208909D01*
X328466Y208997D01*
X328352Y209074D01*
X328263Y209150D01*
X328187Y209201D01*
X328136Y209239D01*
X328098Y209252D01*
X328086Y209264D01*
X327882Y209379D01*
X327666Y209480D01*
X327463Y209569D01*
X327247Y209645D01*
X326841Y209760D01*
X326473Y209836D01*
X326295Y209861D01*
X326142Y209874D01*
X326003Y209886D01*
X325888Y209899D01*
X325787Y209912D01*
X330321D01*
D02*
G37*
%LPD*%
G36*
X326015Y208769D02*
X326345Y208718D01*
X326638Y208642D01*
X326892Y208553D01*
X327006Y208502D01*
X327108Y208451D01*
X327196Y208413D01*
X327260Y208375D01*
X327323Y208350D01*
X327361Y208324D01*
X327387Y208299D01*
X327400D01*
X327679Y208096D01*
X327908Y207880D01*
X328111Y207651D01*
X328276Y207435D01*
X328416Y207232D01*
X328466Y207143D01*
X328504Y207080D01*
X328543Y207016D01*
X328568Y206966D01*
X328581Y206940D01*
Y206927D01*
X328720Y206585D01*
X328822Y206229D01*
X328885Y205873D01*
X328936Y205556D01*
X328949Y205403D01*
X328962Y205264D01*
X328974Y205149D01*
X328987Y205048D01*
Y204959D01*
Y204895D01*
Y204857D01*
Y204845D01*
X328974Y204502D01*
X328949Y204184D01*
X328898Y203879D01*
X328835Y203600D01*
X328771Y203333D01*
X328682Y203105D01*
X328606Y202876D01*
X328517Y202686D01*
X328428Y202508D01*
X328339Y202355D01*
X328251Y202228D01*
X328187Y202127D01*
X328124Y202038D01*
X328073Y201987D01*
X328047Y201949D01*
X328035Y201936D01*
X327857Y201758D01*
X327666Y201606D01*
X327463Y201466D01*
X327260Y201352D01*
X327057Y201250D01*
X326866Y201174D01*
X326663Y201098D01*
X326485Y201047D01*
X326307Y201009D01*
X326142Y200971D01*
X326003Y200946D01*
X325876Y200933D01*
X325774D01*
X325698Y200920D01*
X325634D01*
X325368Y200933D01*
X325126Y200958D01*
X324885Y201009D01*
X324669Y201073D01*
X324453Y201149D01*
X324263Y201238D01*
X324072Y201327D01*
X323920Y201428D01*
X323767Y201517D01*
X323641Y201606D01*
X323526Y201695D01*
X323437Y201771D01*
X323361Y201835D01*
X323298Y201886D01*
X323272Y201911D01*
X323260Y201924D01*
X323094Y202127D01*
X322955Y202330D01*
X322828Y202559D01*
X322713Y202787D01*
X322624Y203016D01*
X322548Y203244D01*
X322485Y203473D01*
X322434Y203702D01*
X322396Y203905D01*
X322370Y204095D01*
X322345Y204260D01*
X322332Y204413D01*
Y204540D01*
X322320Y204629D01*
Y204680D01*
Y204705D01*
X322332Y205099D01*
X322358Y205467D01*
X322408Y205810D01*
X322472Y206127D01*
X322548Y206407D01*
X322624Y206661D01*
X322713Y206889D01*
X322815Y207092D01*
X322904Y207270D01*
X322993Y207423D01*
X323069Y207562D01*
X323145Y207664D01*
X323209Y207740D01*
X323260Y207804D01*
X323285Y207829D01*
X323298Y207842D01*
X323488Y208007D01*
X323679Y208159D01*
X323882Y208286D01*
X324085Y208388D01*
X324288Y208490D01*
X324479Y208566D01*
X324669Y208629D01*
X324847Y208680D01*
X325025Y208718D01*
X325177Y208743D01*
X325317Y208769D01*
X325431Y208782D01*
X325533Y208794D01*
X325660D01*
X326015Y208769D01*
D02*
G37*
%LPC*%
G36*
X525427Y104556D02*
X519021D01*
Y98683D01*
X522720Y101149D01*
X525427D01*
Y101999D01*
X522720D01*
X519021Y104556D01*
X525427D01*
D01*
D02*
G37*
G36*
Y98466D02*
X519021D01*
Y93401D01*
X519779D01*
Y95508D01*
X525427D01*
Y98466D01*
D02*
G37*
G36*
Y92801D02*
X519021D01*
Y87919D01*
X525427D01*
Y88769D01*
X522828D01*
Y90401D01*
X522820Y90643D01*
X522803Y90868D01*
X522778Y91076D01*
X522736Y91268D01*
X522695Y91434D01*
X522645Y91593D01*
X522595Y91726D01*
X522545Y91851D01*
X522495Y91951D01*
X522436Y92043D01*
X522395Y92118D01*
X522353Y92176D01*
X522312Y92218D01*
X522286Y92251D01*
X522270Y92268D01*
X522262Y92276D01*
X522153Y92368D01*
X522037Y92451D01*
X521920Y92518D01*
X521803Y92576D01*
X521687Y92634D01*
X521578Y92676D01*
X521353Y92734D01*
X521262Y92759D01*
X521170Y92776D01*
X521087Y92784D01*
X521012Y92793D01*
X520953Y92801D01*
X525427D01*
D01*
D02*
G37*
G36*
Y86552D02*
X519021D01*
Y80437D01*
X525427D01*
Y81254D01*
X519970D01*
X525427Y83103D01*
Y83862D01*
X520062Y85736D01*
X525427D01*
Y86552D01*
D02*
G37*
G36*
Y79288D02*
X519021D01*
D01*
X524669D01*
Y75364D01*
X522486D01*
Y78896D01*
X521728D01*
Y75364D01*
X519779D01*
Y79138D01*
X519021D01*
Y74514D01*
X525427D01*
Y79288D01*
D02*
G37*
%LPD*%
G36*
X520912Y102323D02*
X521137Y102173D01*
X521353Y102040D01*
X521545Y101924D01*
X521712Y101815D01*
X521787Y101774D01*
X521853Y101732D01*
X521912Y101699D01*
X521953Y101665D01*
X521995Y101649D01*
X522020Y101632D01*
X522037Y101615D01*
X522045D01*
X521845Y101499D01*
X521645Y101390D01*
X521462Y101282D01*
X521303Y101182D01*
X521162Y101090D01*
X521104Y101057D01*
X521054Y101024D01*
X521012Y100999D01*
X520987Y100982D01*
X520970Y100974D01*
X520962Y100965D01*
X519021Y99699D01*
Y103565D01*
X520912Y102323D01*
D02*
G37*
G36*
X525427Y96358D02*
X519779D01*
Y98466D01*
X525427D01*
Y96358D01*
D02*
G37*
G36*
X520704Y92793D02*
X520545Y92767D01*
X520395Y92734D01*
X520262Y92701D01*
X520154Y92668D01*
X520070Y92634D01*
X520045Y92618D01*
X520020Y92609D01*
X520012Y92601D01*
X520004D01*
X519862Y92526D01*
X519737Y92443D01*
X519629Y92351D01*
X519546Y92268D01*
X519479Y92201D01*
X519429Y92134D01*
X519396Y92101D01*
X519387Y92084D01*
X519312Y91959D01*
X519246Y91826D01*
X519196Y91701D01*
X519154Y91576D01*
X519121Y91468D01*
X519104Y91376D01*
X519096Y91343D01*
X519087Y91326D01*
Y91301D01*
X519062Y91168D01*
X519046Y91010D01*
X519037Y90843D01*
X519029Y90693D01*
X519021Y90551D01*
Y92801D01*
X520878D01*
X520704Y92793D01*
D02*
G37*
G36*
X521104Y91909D02*
X521270Y91868D01*
X521420Y91818D01*
X521545Y91751D01*
X521645Y91684D01*
X521712Y91635D01*
X521753Y91593D01*
X521770Y91576D01*
X521820Y91510D01*
X521870Y91426D01*
X521945Y91251D01*
X521995Y91060D01*
X522028Y90868D01*
X522053Y90693D01*
X522062Y90618D01*
Y90551D01*
X522070Y90493D01*
Y88769D01*
X519779D01*
Y90601D01*
X519787Y90768D01*
X519795Y90901D01*
X519804Y91010D01*
X519820Y91085D01*
X519829Y91143D01*
X519837Y91176D01*
Y91185D01*
X519879Y91301D01*
X519937Y91410D01*
X519995Y91501D01*
X520062Y91576D01*
X520120Y91635D01*
X520170Y91684D01*
X520204Y91709D01*
X520220Y91718D01*
X520329Y91784D01*
X520445Y91834D01*
X520562Y91876D01*
X520670Y91901D01*
X520762Y91918D01*
X520837Y91926D01*
X520887D01*
X520895D01*
X520904D01*
X521104Y91909D01*
D02*
G37*
G36*
X523478Y83870D02*
X523719Y83786D01*
X523928Y83720D01*
X524103Y83661D01*
X524253Y83611D01*
X524361Y83578D01*
X524444Y83553D01*
X524494Y83537D01*
X524511Y83528D01*
X524378Y83486D01*
X524228Y83437D01*
X524069Y83387D01*
X523919Y83337D01*
X523778Y83295D01*
X523719Y83270D01*
X523661Y83253D01*
X523619Y83237D01*
X523586Y83228D01*
X523569Y83220D01*
X523561D01*
X519021Y81704D01*
Y85411D01*
X523478Y83870D01*
D02*
G37*
%LPC*%
G36*
X553875Y99091D02*
X547469D01*
Y98233D01*
X551593Y97225D01*
X551876Y97158D01*
X552142Y97092D01*
X552376Y97042D01*
X552484Y97016D01*
X552584Y96992D01*
X552667Y96975D01*
X552751Y96958D01*
X552817Y96941D01*
X552876Y96933D01*
X552926Y96925D01*
X552959Y96917D01*
X552976Y96908D01*
X552984D01*
X552584Y96842D01*
X552184Y96758D01*
X551992Y96717D01*
X551801Y96675D01*
X551626Y96633D01*
X551451Y96592D01*
X551301Y96558D01*
X551159Y96517D01*
X551026Y96483D01*
X550926Y96458D01*
X550835Y96433D01*
X550768Y96417D01*
X550734Y96408D01*
X550718Y96400D01*
X547469Y95492D01*
Y94467D01*
X551801Y93251D01*
X551842Y93243D01*
X551901Y93226D01*
X551968Y93209D01*
X552051Y93184D01*
X552142Y93167D01*
X552242Y93142D01*
X552451Y93092D01*
X552651Y93042D01*
X552742Y93018D01*
X552817Y93001D01*
X552884Y92984D01*
X552942Y92968D01*
X552976Y92959D01*
X552984D01*
X552742Y92918D01*
X552509Y92876D01*
X552284Y92826D01*
X552084Y92784D01*
X552001Y92768D01*
X551917Y92751D01*
X551851Y92734D01*
X551792Y92718D01*
X551743Y92709D01*
X551709Y92701D01*
X551684Y92693D01*
X551676D01*
X547469Y91726D01*
Y90851D01*
D01*
X553875Y92526D01*
Y91726D01*
Y99091D01*
D02*
G37*
G36*
X553984Y90343D02*
X547360D01*
D01*
X550509D01*
X550335Y90327D01*
X550010Y90285D01*
X549860Y90260D01*
X549718Y90227D01*
X549585Y90193D01*
X549468Y90160D01*
X549360Y90118D01*
X549260Y90085D01*
X549176Y90052D01*
X549102Y90027D01*
X549043Y90002D01*
X549002Y89985D01*
X548977Y89977D01*
X548968Y89968D01*
X548702Y89810D01*
X548577Y89727D01*
X548460Y89643D01*
X548360Y89552D01*
X548260Y89460D01*
X548168Y89368D01*
X548093Y89285D01*
X548018Y89202D01*
X547960Y89127D01*
X547910Y89052D01*
X547860Y88994D01*
X547827Y88944D01*
X547802Y88910D01*
X547794Y88885D01*
X547785Y88877D01*
X547710Y88744D01*
X547644Y88602D01*
X547585Y88469D01*
X547535Y88327D01*
X547460Y88061D01*
X547410Y87819D01*
X547394Y87702D01*
X547385Y87602D01*
X547377Y87511D01*
X547369Y87436D01*
X547360Y87369D01*
Y87286D01*
X547369Y87036D01*
X547402Y86803D01*
X547444Y86578D01*
X547502Y86369D01*
X547569Y86169D01*
X547644Y85986D01*
X547727Y85819D01*
X547810Y85669D01*
X547902Y85536D01*
X547977Y85411D01*
X548060Y85311D01*
X548127Y85228D01*
X548185Y85161D01*
X548227Y85111D01*
X548260Y85078D01*
X548268Y85070D01*
X548443Y84920D01*
X548635Y84786D01*
X548835Y84678D01*
X549035Y84578D01*
X549243Y84495D01*
X549451Y84428D01*
X549651Y84370D01*
X549851Y84328D01*
X550035Y84295D01*
X550210Y84262D01*
X550360Y84245D01*
X550493Y84236D01*
X550610Y84228D01*
X550693Y84220D01*
X550760D01*
X550918Y84228D01*
X551068Y84236D01*
X551368Y84278D01*
X551634Y84336D01*
X551759Y84370D01*
X551876Y84403D01*
X551976Y84436D01*
X552076Y84470D01*
X552159Y84503D01*
X552226Y84528D01*
X552284Y84553D01*
X552326Y84570D01*
X552351Y84586D01*
X552359D01*
X552626Y84736D01*
X552867Y84911D01*
X552967Y84995D01*
X553067Y85086D01*
X553159Y85178D01*
X553242Y85261D01*
X553309Y85344D01*
X553376Y85420D01*
X553425Y85486D01*
X553467Y85545D01*
X553509Y85594D01*
X553534Y85628D01*
X553542Y85653D01*
X553550Y85661D01*
X553625Y85794D01*
X553692Y85936D01*
X553750Y86069D01*
X553800Y86211D01*
X553875Y86486D01*
X553925Y86736D01*
X553950Y86853D01*
X553959Y86952D01*
X553967Y87044D01*
X553975Y87127D01*
X553984Y87186D01*
Y84220D01*
D01*
Y90343D01*
D02*
G37*
G36*
X553875Y83470D02*
X547469D01*
D01*
X553117D01*
Y80321D01*
X547469D01*
Y79471D01*
X553875D01*
Y83470D01*
D02*
G37*
%LPD*%
G36*
Y97333D02*
X547469Y99091D01*
X553875D01*
Y97333D01*
D02*
G37*
G36*
Y93417D02*
X549002Y94767D01*
X548877Y94800D01*
X548752Y94834D01*
X548618Y94867D01*
X548502Y94900D01*
X548402Y94925D01*
X548318Y94942D01*
X548285Y94950D01*
X548260D01*
X548252Y94959D01*
X548243D01*
X548277Y94967D01*
X548318Y94975D01*
X548418Y95009D01*
X548543Y95042D01*
X548677Y95075D01*
X548802Y95109D01*
X548902Y95142D01*
X548943Y95150D01*
X548977Y95159D01*
X548993Y95167D01*
X549002D01*
X553875Y96508D01*
Y93417D01*
D02*
G37*
G36*
X553984Y87277D02*
X553975Y87436D01*
X553967Y87586D01*
X553925Y87869D01*
X553859Y88135D01*
X553825Y88252D01*
X553784Y88369D01*
X553750Y88469D01*
X553717Y88560D01*
X553684Y88635D01*
X553650Y88702D01*
X553625Y88752D01*
X553609Y88794D01*
X553592Y88819D01*
Y88827D01*
X553517Y88960D01*
X553434Y89085D01*
X553242Y89310D01*
X553051Y89502D01*
X552959Y89585D01*
X552867Y89660D01*
X552776Y89727D01*
X552701Y89785D01*
X552626Y89827D01*
X552559Y89868D01*
X552509Y89902D01*
X552467Y89927D01*
X552442Y89935D01*
X552434Y89943D01*
X552284Y90010D01*
X552134Y90077D01*
X551834Y90177D01*
X551543Y90243D01*
X551401Y90268D01*
X551268Y90293D01*
X551143Y90310D01*
X551034Y90327D01*
X550934Y90335D01*
X550851D01*
X550776Y90343D01*
X553984D01*
Y87277D01*
D02*
G37*
G36*
X550909Y89460D02*
X551118Y89444D01*
X551318Y89410D01*
X551501Y89368D01*
X551676Y89327D01*
X551826Y89269D01*
X551976Y89219D01*
X552101Y89160D01*
X552217Y89102D01*
X552317Y89044D01*
X552401Y88985D01*
X552467Y88944D01*
X552526Y88902D01*
X552559Y88869D01*
X552584Y88852D01*
X552592Y88844D01*
X552709Y88727D01*
X552809Y88602D01*
X552901Y88469D01*
X552976Y88335D01*
X553042Y88202D01*
X553092Y88077D01*
X553142Y87944D01*
X553176Y87827D01*
X553200Y87711D01*
X553226Y87602D01*
X553242Y87511D01*
X553251Y87427D01*
Y87361D01*
X553259Y87311D01*
Y87269D01*
X553251Y87094D01*
X553234Y86936D01*
X553200Y86777D01*
X553159Y86636D01*
X553109Y86494D01*
X553051Y86369D01*
X552992Y86244D01*
X552926Y86144D01*
X552867Y86044D01*
X552809Y85961D01*
X552751Y85886D01*
X552701Y85828D01*
X552659Y85778D01*
X552626Y85736D01*
X552609Y85719D01*
X552601Y85711D01*
X552467Y85603D01*
X552334Y85511D01*
X552184Y85428D01*
X552034Y85353D01*
X551884Y85295D01*
X551734Y85245D01*
X551584Y85203D01*
X551434Y85170D01*
X551301Y85145D01*
X551176Y85128D01*
X551068Y85111D01*
X550968Y85103D01*
X550884D01*
X550826Y85095D01*
X550793D01*
X550776D01*
X550518Y85103D01*
X550276Y85120D01*
X550051Y85153D01*
X549843Y85195D01*
X549660Y85245D01*
X549493Y85295D01*
X549343Y85353D01*
X549210Y85420D01*
X549093Y85478D01*
X548993Y85536D01*
X548902Y85586D01*
X548835Y85636D01*
X548785Y85678D01*
X548743Y85711D01*
X548727Y85728D01*
X548718Y85736D01*
X548610Y85861D01*
X548510Y85986D01*
X548427Y86119D01*
X548360Y86253D01*
X548293Y86386D01*
X548243Y86511D01*
X548202Y86636D01*
X548168Y86753D01*
X548144Y86869D01*
X548127Y86969D01*
X548110Y87061D01*
X548102Y87136D01*
X548093Y87202D01*
Y87286D01*
X548110Y87519D01*
X548144Y87736D01*
X548194Y87927D01*
X548252Y88094D01*
X548285Y88169D01*
X548318Y88235D01*
X548343Y88294D01*
X548368Y88335D01*
X548385Y88377D01*
X548402Y88402D01*
X548418Y88419D01*
Y88427D01*
X548552Y88610D01*
X548693Y88760D01*
X548843Y88894D01*
X548985Y89002D01*
X549118Y89094D01*
X549176Y89127D01*
X549218Y89152D01*
X549260Y89177D01*
X549293Y89193D01*
X549310Y89202D01*
X549318D01*
X549543Y89293D01*
X549776Y89360D01*
X550010Y89402D01*
X550218Y89435D01*
X550318Y89444D01*
X550410Y89452D01*
X550485Y89460D01*
X550551Y89468D01*
X550610D01*
X550651D01*
X550676D01*
X550685D01*
X550909Y89460D01*
D02*
G37*
%LPC*%
G36*
X298979Y282894D02*
X298796D01*
X298346Y282878D01*
X297929Y282844D01*
X297530Y282761D01*
X297163Y282678D01*
X296830Y282578D01*
X296513Y282461D01*
X296230Y282344D01*
X295980Y282211D01*
X295747Y282078D01*
X295547Y281961D01*
X295380Y281845D01*
X295247Y281745D01*
X295130Y281661D01*
X295063Y281595D01*
X295014Y281545D01*
X294997Y281528D01*
X294764Y281262D01*
X294564Y280978D01*
X294380Y280678D01*
X294230Y280362D01*
X294097Y280028D01*
X293997Y279712D01*
X293897Y279395D01*
X293831Y279095D01*
X293780Y278796D01*
X293731Y278529D01*
X293697Y278296D01*
X293680Y278079D01*
Y277912D01*
X293664Y277779D01*
Y277662D01*
X293680Y277313D01*
X293697Y276996D01*
X293731Y276679D01*
X293780Y276379D01*
X293831Y276113D01*
X293897Y275863D01*
X293964Y275613D01*
X294047Y275413D01*
X294114Y275213D01*
X294180Y275046D01*
X294247Y274897D01*
X294297Y274780D01*
X294347Y274697D01*
X294380Y274613D01*
X294414Y274580D01*
Y274563D01*
X294564Y274347D01*
X294714Y274147D01*
X295014Y273797D01*
X295330Y273497D01*
X295613Y273280D01*
X295863Y273097D01*
X295963Y273030D01*
X296047Y272980D01*
X296130Y272930D01*
X296180Y272897D01*
X296213Y272880D01*
X296230D01*
X296646Y272730D01*
X297096Y272614D01*
X297546Y272530D01*
X297979Y272480D01*
X298163Y272447D01*
X298346D01*
X298513Y272430D01*
X298662Y272414D01*
X293664D01*
X303545D01*
Y275896D01*
X300795Y276746D01*
X300712Y276396D01*
X300595Y276096D01*
X300479Y275846D01*
X300379Y275630D01*
X300279Y275480D01*
X300196Y275363D01*
X300129Y275280D01*
X300112Y275263D01*
X299929Y275096D01*
X299712Y274980D01*
X299496Y274880D01*
X299262Y274830D01*
X299079Y274797D01*
X298913Y274780D01*
X298846Y274763D01*
X298762D01*
X298429Y274797D01*
X298146Y274863D01*
X297896Y274963D01*
X297696Y275080D01*
X297530Y275180D01*
X297413Y275280D01*
X297330Y275346D01*
X297313Y275380D01*
X297230Y275513D01*
X297146Y275663D01*
X297080Y275830D01*
X297030Y275996D01*
X296930Y276379D01*
X296880Y276763D01*
X296846Y277113D01*
X296830Y277262D01*
Y277412D01*
X296813Y277512D01*
Y277612D01*
Y277662D01*
Y277679D01*
Y277929D01*
X296830Y278162D01*
X296846Y278379D01*
X296880Y278562D01*
X296946Y278912D01*
X297030Y279195D01*
X297096Y279412D01*
X297163Y279562D01*
X297213Y279645D01*
X297230Y279679D01*
X297346Y279828D01*
X297463Y279962D01*
X297596Y280079D01*
X297729Y280178D01*
X297996Y280328D01*
X298263Y280445D01*
X298496Y280495D01*
X298696Y280528D01*
X298762Y280545D01*
X299046D01*
X299196Y280512D01*
X299346Y280478D01*
X299462Y280445D01*
X299579Y280412D01*
X299646Y280378D01*
X299696Y280362D01*
X299712Y280345D01*
X299979Y280178D01*
X300079Y280079D01*
X300179Y279995D01*
X300262Y279912D01*
X300312Y279862D01*
X300345Y279812D01*
X300362Y279795D01*
X300429Y279712D01*
X300479Y279595D01*
X300579Y279379D01*
X300629Y279279D01*
X300645Y279195D01*
X300679Y279145D01*
Y279129D01*
X303445Y279729D01*
X303328Y280028D01*
X303211Y280295D01*
X303095Y280545D01*
X302961Y280778D01*
X302812Y280995D01*
X302678Y281195D01*
X302545Y281362D01*
X302412Y281528D01*
X302295Y281661D01*
X302178Y281778D01*
X302062Y281878D01*
X301978Y281961D01*
X301895Y282028D01*
X301845Y282078D01*
X301812Y282095D01*
X301795Y282111D01*
X301579Y282245D01*
X301362Y282378D01*
X300862Y282561D01*
X300379Y282711D01*
X299896Y282794D01*
X299662Y282828D01*
X299462Y282861D01*
X299279Y282878D01*
X299112D01*
X298979Y282894D01*
D02*
G37*
G36*
X197887Y282894D02*
Y277729D01*
X197870Y278179D01*
X197836Y278612D01*
X197787Y279012D01*
X197737Y279362D01*
X197703Y279512D01*
X197687Y279662D01*
X197653Y279779D01*
X197637Y279879D01*
X197620Y279962D01*
X197603Y280028D01*
X197587Y280062D01*
Y280079D01*
X197537Y280295D01*
X197470Y280495D01*
X197403Y280678D01*
X197353Y280828D01*
X197287Y280962D01*
X197253Y281045D01*
X197220Y281112D01*
X197203Y281128D01*
X197103Y281295D01*
X197003Y281445D01*
X196903Y281595D01*
X196787Y281728D01*
X196703Y281828D01*
X196620Y281911D01*
X196570Y281961D01*
X196553Y281978D01*
X196387Y282128D01*
X196204Y282245D01*
X196020Y282361D01*
X195854Y282461D01*
X195704Y282528D01*
X195587Y282578D01*
X195504Y282611D01*
X195471Y282628D01*
X195221Y282711D01*
X194937Y282778D01*
X194654Y282828D01*
X194387Y282861D01*
X194154Y282878D01*
X193971Y282894D01*
X197887D01*
X189589D01*
X193804D01*
X193421Y282878D01*
X193054Y282844D01*
X192721Y282794D01*
X192405Y282711D01*
X192121Y282628D01*
X191855Y282528D01*
X191621Y282428D01*
X191422Y282311D01*
X191222Y282211D01*
X191072Y282095D01*
X190938Y281995D01*
X190822Y281911D01*
X190738Y281828D01*
X190672Y281778D01*
X190638Y281745D01*
X190622Y281728D01*
X190438Y281495D01*
X190289Y281228D01*
X190138Y280928D01*
X190022Y280612D01*
X189922Y280278D01*
X189839Y279945D01*
X189722Y279279D01*
X189672Y278962D01*
X189639Y278662D01*
X189622Y278379D01*
X189605Y278146D01*
X189589Y277962D01*
Y277679D01*
X189605Y277246D01*
X189622Y276846D01*
X189655Y276479D01*
X189689Y276163D01*
X189722Y275896D01*
X189739Y275796D01*
X189755Y275696D01*
X189772Y275630D01*
X189789Y275580D01*
Y275546D01*
Y275530D01*
X189872Y275180D01*
X189955Y274880D01*
X190055Y274630D01*
X190155Y274413D01*
X190222Y274247D01*
X190289Y274113D01*
X190338Y274047D01*
X190355Y274013D01*
X190555Y273730D01*
X190772Y273497D01*
X190988Y273280D01*
X191188Y273114D01*
X191371Y272980D01*
X191505Y272897D01*
X191605Y272830D01*
X191621Y272814D01*
X191638D01*
X191955Y272680D01*
X192305Y272580D01*
X192654Y272514D01*
X192988Y272464D01*
X193271Y272430D01*
X193404D01*
X193504Y272414D01*
X193721D01*
X194137Y272430D01*
X194521Y272464D01*
X194871Y272530D01*
X195187Y272614D01*
X195487Y272714D01*
X195737Y272814D01*
X195970Y272930D01*
X196187Y273047D01*
X196370Y273164D01*
X196520Y273280D01*
X196653Y273380D01*
X196754Y273480D01*
X196837Y273563D01*
X196887Y273630D01*
X196920Y273664D01*
X196937Y273680D01*
X197103Y273930D01*
X197253Y274230D01*
X197370Y274530D01*
X197487Y274846D01*
X197587Y275196D01*
X197653Y275530D01*
X197770Y276180D01*
X197803Y276496D01*
X197836Y276779D01*
X197853Y277046D01*
X197870Y277279D01*
X197887Y277463D01*
Y282894D01*
D02*
G37*
G36*
X353798D02*
X343284D01*
X348516D01*
X348067Y282878D01*
X347650Y282828D01*
X347250Y282761D01*
X346884Y282678D01*
X346534Y282578D01*
X346217Y282461D01*
X345934Y282328D01*
X345667Y282211D01*
X345434Y282078D01*
X345234Y281945D01*
X345067Y281828D01*
X344917Y281728D01*
X344817Y281645D01*
X344734Y281578D01*
X344684Y281528D01*
X344667Y281511D01*
X344417Y281245D01*
X344217Y280945D01*
X344034Y280645D01*
X343868Y280328D01*
X343734Y279995D01*
X343618Y279679D01*
X343534Y279362D01*
X343451Y279062D01*
X343401Y278779D01*
X343351Y278512D01*
X343334Y278262D01*
X343301Y278062D01*
Y277879D01*
X343284Y277762D01*
Y272414D01*
Y277646D01*
X343318Y277013D01*
X343351Y276713D01*
X343384Y276429D01*
X343451Y276163D01*
X343501Y275930D01*
X343568Y275696D01*
X343634Y275496D01*
X343684Y275313D01*
X343751Y275146D01*
X343818Y275013D01*
X343868Y274897D01*
X343901Y274797D01*
X343934Y274730D01*
X343968Y274697D01*
Y274680D01*
X344251Y274263D01*
X344551Y273913D01*
X344851Y273613D01*
X345134Y273363D01*
X345401Y273180D01*
X345501Y273114D01*
X345601Y273047D01*
X345684Y273014D01*
X345734Y272980D01*
X345767Y272947D01*
X345784D01*
X346234Y272764D01*
X346700Y272647D01*
X347183Y272547D01*
X347633Y272480D01*
X347833Y272464D01*
X348033Y272447D01*
X348200Y272430D01*
X348350D01*
X348466Y272414D01*
X348633D01*
X349250Y272447D01*
X349799Y272514D01*
X350049Y272564D01*
X350283Y272614D01*
X350499Y272664D01*
X350683Y272730D01*
X350866Y272780D01*
X351016Y272830D01*
X351149Y272880D01*
X351266Y272930D01*
X351349Y272980D01*
X351416Y272997D01*
X351449Y273030D01*
X351466D01*
X351866Y273280D01*
X352215Y273580D01*
X352515Y273863D01*
X352765Y274147D01*
X352949Y274413D01*
X353032Y274513D01*
X353082Y274613D01*
X353132Y274697D01*
X353165Y274746D01*
X353199Y274780D01*
Y274797D01*
X353399Y275246D01*
X353549Y275746D01*
X353648Y276229D01*
X353732Y276696D01*
X353748Y276913D01*
X353765Y277113D01*
X353782Y277279D01*
Y277429D01*
X353798Y277563D01*
Y273280D01*
Y277729D01*
X353782Y278179D01*
X353732Y278596D01*
X353665Y278979D01*
X353582Y279345D01*
X353482Y279695D01*
X353365Y279995D01*
X353232Y280278D01*
X353115Y280545D01*
X352982Y280762D01*
X352849Y280962D01*
X352732Y281145D01*
X352632Y281278D01*
X352549Y281395D01*
X352482Y281462D01*
X352432Y281511D01*
X352415Y281528D01*
X352149Y281761D01*
X351849Y281978D01*
X351549Y282161D01*
X351232Y282311D01*
X350899Y282444D01*
X350583Y282561D01*
X350266Y282645D01*
X349949Y282728D01*
X349666Y282778D01*
X349383Y282828D01*
X349150Y282861D01*
X348933Y282878D01*
X348766D01*
X348633Y282894D01*
X353798D01*
D02*
G37*
G36*
X325839Y282728D02*
X316108D01*
Y276679D01*
X316125Y276396D01*
X316158Y276096D01*
X316191Y275813D01*
X316258Y275546D01*
X316308Y275313D01*
X316341Y275130D01*
X316358Y275063D01*
X316375Y275013D01*
X316391Y274980D01*
Y274963D01*
X316475Y274746D01*
X316575Y274530D01*
X316691Y274330D01*
X316791Y274163D01*
X316891Y274013D01*
X316975Y273897D01*
X317041Y273830D01*
X317058Y273797D01*
X317241Y273597D01*
X317424Y273414D01*
X317608Y273263D01*
X317774Y273147D01*
X317908Y273047D01*
X318024Y272980D01*
X318091Y272930D01*
X318124Y272914D01*
X318358Y272814D01*
X318607Y272730D01*
X318857Y272664D01*
X319091Y272597D01*
X319291Y272564D01*
X319441Y272530D01*
X319507D01*
X319557Y272514D01*
X319590D01*
X319907Y272480D01*
X320224Y272464D01*
X320490Y272430D01*
X320740D01*
X320940Y272414D01*
X321223D01*
X321690Y272430D01*
X322107Y272464D01*
X322473Y272514D01*
X322790Y272580D01*
X323056Y272647D01*
X323156Y272664D01*
X323240Y272697D01*
X323323Y272714D01*
X323373Y272730D01*
X323390Y272747D01*
X323406D01*
X323656Y272847D01*
X323889Y272980D01*
X324106Y273114D01*
X324289Y273247D01*
X324456Y273380D01*
X324573Y273480D01*
X324639Y273547D01*
X324673Y273580D01*
X324889Y273813D01*
X325073Y274047D01*
X325222Y274280D01*
X325339Y274513D01*
X325439Y274697D01*
X325506Y274846D01*
X325539Y274946D01*
X325556Y274963D01*
Y274980D01*
X325656Y275280D01*
X325722Y275580D01*
X325772Y275863D01*
X325806Y276129D01*
X325822Y276346D01*
X325839Y276529D01*
Y272714D01*
Y282728D01*
D02*
G37*
G36*
X209534Y282728D02*
X198486D01*
D01*
X202285D01*
X198486Y272580D01*
X201686D01*
X202185Y274263D01*
X205735D01*
X206234Y272580D01*
X209534D01*
X205735Y282728D01*
X209534D01*
D02*
G37*
G36*
X365212D02*
X355515D01*
Y272580D01*
X358464D01*
Y278146D01*
X362263Y272580D01*
X365212D01*
Y282728D01*
D02*
G37*
G36*
X188689Y282894D02*
X179825D01*
X184956D01*
X179825Y276796D01*
Y274480D01*
X184956D01*
Y272580D01*
X187423D01*
Y274480D01*
X188689D01*
Y277246D01*
Y276663D01*
X187423D01*
Y282894D01*
X188689D01*
D01*
D02*
G37*
G36*
X173976Y275413D02*
X170960D01*
Y272580D01*
X173976D01*
Y275413D01*
D02*
G37*
G36*
X170127Y282728D02*
D01*
Y272580D01*
X166661Y277812D01*
X169827Y282728D01*
X170127D01*
X159096Y282728D01*
X159413D01*
X162596Y277862D01*
X159096Y272580D01*
X162596Y272580D01*
X164595Y275830D01*
X166595Y272580D01*
X170127D01*
Y282728D01*
D02*
G37*
G36*
X341435D02*
X338286D01*
Y272580D01*
X341435D01*
Y282728D01*
D02*
G37*
G36*
X336736D02*
X327205Y282728D01*
Y272580D01*
Y280228D01*
X330404Y280228D01*
Y272580D01*
X336736D01*
X333537D01*
Y280228D01*
X336736D01*
Y282728D01*
D02*
G37*
G36*
X155297Y282728D02*
X151848D01*
X148049Y272580D01*
X159096D01*
D01*
X155297Y282728D01*
D02*
G37*
G36*
X147066D02*
X135653D01*
Y272580D01*
X138218D01*
Y280312D01*
X140185Y272580D01*
X142517D01*
X144500Y280312D01*
Y272580D01*
X147066D01*
Y282728D01*
D02*
G37*
G36*
X311293D02*
X304044D01*
D01*
X307843D01*
X304044Y272580D01*
X307244D01*
X307744Y274263D01*
X311293D01*
X311793Y272580D01*
X315092D01*
X311293Y282728D01*
D02*
G37*
%LPD*%
G36*
X303545Y272414D02*
X298929D01*
X299412Y272430D01*
X299862Y272480D01*
X300245Y272530D01*
X300562Y272614D01*
X300712Y272647D01*
X300829Y272680D01*
X300929Y272714D01*
X301012Y272730D01*
X301095Y272764D01*
X301145Y272780D01*
X301162Y272797D01*
X301179D01*
X301495Y272964D01*
X301778Y273147D01*
X302028Y273347D01*
X302245Y273530D01*
X302428Y273697D01*
X302561Y273830D01*
X302628Y273930D01*
X302661Y273963D01*
X302878Y274280D01*
X303061Y274597D01*
X303211Y274913D01*
X303328Y275230D01*
X303428Y275496D01*
X303461Y275613D01*
X303495Y275713D01*
X303511Y275780D01*
X303528Y275846D01*
X303545Y275879D01*
Y272414D01*
D02*
G37*
G36*
X193937Y280978D02*
X194154Y280895D01*
X194337Y280795D01*
X194471Y280662D01*
X194587Y280528D01*
X194671Y280428D01*
X194721Y280345D01*
X194737Y280312D01*
X194804Y280162D01*
X194854Y279995D01*
X194904Y279795D01*
X194937Y279595D01*
X195004Y279145D01*
X195037Y278696D01*
X195054Y278479D01*
X195071Y278279D01*
Y278096D01*
X195087Y277929D01*
Y277796D01*
Y277696D01*
Y277629D01*
Y277612D01*
Y277362D01*
Y277129D01*
X195071Y276913D01*
Y276713D01*
X195054Y276529D01*
X195037Y276363D01*
X195021Y276080D01*
X194987Y275863D01*
X194954Y275696D01*
X194937Y275613D01*
Y275580D01*
X194871Y275346D01*
X194804Y275163D01*
X194721Y274996D01*
X194654Y274863D01*
X194587Y274763D01*
X194521Y274680D01*
X194487Y274646D01*
X194471Y274630D01*
X194354Y274530D01*
X194221Y274463D01*
X194088Y274413D01*
X193971Y274380D01*
X193871Y274363D01*
X193788Y274347D01*
X193721D01*
X193488Y274380D01*
X193288Y274463D01*
X193121Y274563D01*
X192971Y274697D01*
X192871Y274830D01*
X192788Y274930D01*
X192738Y275013D01*
X192721Y275046D01*
X192671Y275196D01*
X192605Y275363D01*
X192571Y275546D01*
X192521Y275746D01*
X192471Y276180D01*
X192438Y276629D01*
X192421Y276829D01*
X192405Y277029D01*
Y277213D01*
X192388Y277362D01*
Y277496D01*
Y277596D01*
Y277662D01*
Y277679D01*
Y278029D01*
X192405Y278346D01*
X192421Y278629D01*
X192438Y278895D01*
X192455Y279129D01*
X192488Y279345D01*
X192505Y279545D01*
X192538Y279712D01*
X192571Y279845D01*
X192588Y279979D01*
X192621Y280079D01*
X192638Y280162D01*
X192654Y280212D01*
X192671Y280262D01*
X192688Y280295D01*
X192754Y280428D01*
X192821Y280528D01*
X192988Y280712D01*
X193154Y280845D01*
X193321Y280928D01*
X193471Y280978D01*
X193588Y280995D01*
X193671Y281012D01*
X193704D01*
X193937Y280978D01*
D02*
G37*
G36*
X348866Y280478D02*
X349183Y280412D01*
X349450Y280295D01*
X349666Y280179D01*
X349849Y280062D01*
X349983Y279945D01*
X350049Y279879D01*
X350083Y279845D01*
X350183Y279712D01*
X350283Y279562D01*
X350416Y279245D01*
X350516Y278895D01*
X350599Y278562D01*
X350633Y278246D01*
X350649Y278112D01*
Y277996D01*
X350666Y277896D01*
Y277829D01*
Y277779D01*
Y277762D01*
Y277463D01*
X350649Y277179D01*
X350616Y276913D01*
X350583Y276679D01*
X350533Y276463D01*
X350483Y276280D01*
X350433Y276096D01*
X350383Y275946D01*
X350333Y275813D01*
X350283Y275713D01*
X350233Y275613D01*
X350183Y275546D01*
X350149Y275480D01*
X350116Y275446D01*
X350099Y275413D01*
X349883Y275196D01*
X349616Y275030D01*
X349366Y274930D01*
X349116Y274846D01*
X348883Y274797D01*
X348700Y274780D01*
X348633Y274763D01*
X348533D01*
X348183Y274797D01*
X347883Y274863D01*
X347617Y274980D01*
X347383Y275096D01*
X347217Y275213D01*
X347084Y275330D01*
X347017Y275396D01*
X346983Y275430D01*
X346884Y275563D01*
X346800Y275713D01*
X346650Y276063D01*
X346550Y276413D01*
X346484Y276779D01*
X346450Y277113D01*
X346434Y277246D01*
Y277379D01*
X346417Y277479D01*
Y277563D01*
Y277612D01*
Y277629D01*
Y277912D01*
X346434Y278162D01*
X346467Y278396D01*
X346500Y278612D01*
X346550Y278812D01*
X346600Y278995D01*
X346650Y279162D01*
X346700Y279312D01*
X346750Y279429D01*
X346800Y279545D01*
X346850Y279629D01*
X346900Y279695D01*
X346934Y279762D01*
X346967Y279795D01*
X346983Y279828D01*
X347217Y280062D01*
X347467Y280228D01*
X347733Y280345D01*
X347967Y280428D01*
X348183Y280478D01*
X348367Y280495D01*
X348433Y280512D01*
X348516D01*
X348866Y280478D01*
D02*
G37*
G36*
X322706Y276529D02*
X322690Y276229D01*
X322640Y275979D01*
X322556Y275746D01*
X322473Y275563D01*
X322390Y275430D01*
X322307Y275313D01*
X322257Y275246D01*
X322240Y275230D01*
X322057Y275080D01*
X321840Y274963D01*
X321640Y274897D01*
X321440Y274830D01*
X321257Y274797D01*
X321107Y274780D01*
X320974D01*
X320690Y274797D01*
X320424Y274846D01*
X320207Y274930D01*
X320024Y275013D01*
X319874Y275096D01*
X319774Y275180D01*
X319707Y275230D01*
X319690Y275246D01*
X319541Y275430D01*
X319424Y275646D01*
X319357Y275863D01*
X319291Y276063D01*
X319257Y276246D01*
X319241Y276396D01*
Y276496D01*
Y276513D01*
Y276529D01*
Y282728D01*
X322706D01*
Y276529D01*
D02*
G37*
G36*
X205068Y276463D02*
X202869D01*
X203968Y280095D01*
X205068Y276463D01*
D02*
G37*
G36*
X362263Y277113D02*
X358431Y282728D01*
X362263D01*
Y277113D01*
D02*
G37*
G36*
X184956Y276663D02*
X182241D01*
X184956Y279845D01*
Y276663D01*
D02*
G37*
G36*
X164662Y279595D02*
X162862Y282728D01*
X166411D01*
X164662Y279595D01*
D02*
G37*
G36*
X154631Y276463D02*
X152431D01*
X153531Y280095D01*
X154631Y276463D01*
D02*
G37*
G36*
X155797Y272580D02*
X151249D01*
X151748Y274263D01*
X155297D01*
X155797Y272580D01*
D02*
G37*
G36*
X141351Y276546D02*
X139785Y282728D01*
X142934D01*
X141351Y276546D01*
D02*
G37*
G36*
X310626Y276463D02*
X308427D01*
X309526Y280095D01*
X310626Y276463D01*
D02*
G37*
%LPC*%
G36*
X172335Y270384D02*
X167803D01*
X167236Y270368D01*
X166986Y270351D01*
X166753Y270318D01*
X166520Y270284D01*
X166320Y270251D01*
X166136Y270218D01*
X165953Y270184D01*
X165803Y270151D01*
X165670Y270118D01*
X165570Y270084D01*
X165470Y270051D01*
X165403Y270018D01*
X165353Y270001D01*
X165320Y269984D01*
X165303D01*
X164987Y269818D01*
X164703Y269651D01*
X164470Y269468D01*
X164270Y269285D01*
X164120Y269135D01*
X164020Y269001D01*
X163953Y268918D01*
X163937Y268885D01*
X163787Y268618D01*
X163670Y268368D01*
X163604Y268118D01*
X163537Y267902D01*
X163504Y267702D01*
X163487Y267552D01*
Y267452D01*
Y267435D01*
Y267418D01*
X163504Y267202D01*
X163520Y266985D01*
X163620Y266602D01*
X163770Y266269D01*
X163937Y265985D01*
X164087Y265752D01*
X164237Y265585D01*
X164287Y265536D01*
X164337Y265485D01*
X164353Y265469D01*
X164370Y265452D01*
X164553Y265319D01*
X164753Y265186D01*
X164970Y265052D01*
X165203Y264936D01*
X165686Y264736D01*
X166170Y264552D01*
X166403Y264486D01*
X166619Y264419D01*
X166819Y264369D01*
X166986Y264319D01*
X167119Y264286D01*
X167236Y264252D01*
X167303Y264236D01*
X167319D01*
X167553Y264186D01*
X167753Y264136D01*
X167936Y264069D01*
X168102Y264019D01*
X168252Y263969D01*
X168386Y263919D01*
X168602Y263836D01*
X168752Y263753D01*
X168869Y263686D01*
X168919Y263653D01*
X168936Y263636D01*
X169052Y263519D01*
X169136Y263403D01*
X169202Y263286D01*
X169235Y263169D01*
X169269Y263086D01*
X169286Y263003D01*
Y262953D01*
Y262936D01*
X169269Y262786D01*
X169235Y262653D01*
X169169Y262520D01*
X169102Y262420D01*
X169036Y262320D01*
X168969Y262253D01*
X168936Y262220D01*
X168919Y262203D01*
X168769Y262103D01*
X168602Y262036D01*
X168419Y261970D01*
X168252Y261936D01*
X168102Y261920D01*
X167986Y261903D01*
X167869D01*
X167553Y261936D01*
X167269Y262003D01*
X167036Y262086D01*
X166836Y262203D01*
X166670Y262320D01*
X166569Y262403D01*
X166486Y262470D01*
X166470Y262503D01*
X166370Y262670D01*
X166286Y262836D01*
X166220Y263020D01*
X166170Y263203D01*
X166136Y263369D01*
X166103Y263503D01*
X166086Y263586D01*
Y263619D01*
X163104Y263419D01*
X163137Y263136D01*
X163187Y262870D01*
X163320Y262370D01*
X163504Y261953D01*
X163604Y261753D01*
X163704Y261586D01*
X163804Y261420D01*
X163904Y261287D01*
X163987Y261170D01*
X164070Y261070D01*
X164120Y260987D01*
X164170Y260937D01*
X164203Y260903D01*
X164220Y260887D01*
X164420Y260720D01*
X164670Y260570D01*
X164920Y260437D01*
X165203Y260320D01*
X165503Y260220D01*
X165803Y260137D01*
X166403Y260020D01*
X166686Y259987D01*
X166953Y259954D01*
X167186Y259937D01*
X167403Y259920D01*
X167569Y259904D01*
X163104D01*
X172335D01*
X167819D01*
X168352Y259920D01*
X168836Y259970D01*
X169252Y260037D01*
X169436Y260070D01*
X169602Y260120D01*
X169752Y260154D01*
X169885Y260187D01*
X170002Y260220D01*
X170102Y260254D01*
X170169Y260287D01*
X170219Y260303D01*
X170252Y260320D01*
X170269D01*
X170618Y260504D01*
X170918Y260703D01*
X171185Y260903D01*
X171402Y261103D01*
X171568Y261287D01*
X171685Y261437D01*
X171768Y261537D01*
X171785Y261553D01*
Y261570D01*
X171968Y261887D01*
X172101Y262203D01*
X172201Y262503D01*
X172268Y262770D01*
X172301Y263020D01*
X172335Y263203D01*
Y263369D01*
X172318Y263669D01*
X172268Y263953D01*
X172201Y264202D01*
X172135Y264436D01*
X172052Y264619D01*
X171985Y264752D01*
X171935Y264836D01*
X171918Y264869D01*
X171751Y265102D01*
X171552Y265319D01*
X171335Y265519D01*
X171118Y265686D01*
X170918Y265802D01*
X170769Y265902D01*
X170702Y265935D01*
X170652Y265969D01*
X170635Y265985D01*
X170618D01*
X170435Y266069D01*
X170235Y266152D01*
X170019Y266235D01*
X169785Y266319D01*
X169302Y266469D01*
X168819Y266619D01*
X168586Y266669D01*
X168369Y266719D01*
X168169Y266769D01*
X168002Y266819D01*
X167869Y266835D01*
X167753Y266868D01*
X167686Y266885D01*
X167669D01*
X167386Y266952D01*
X167153Y267019D01*
X166969Y267085D01*
X166836Y267152D01*
X166736Y267202D01*
X166670Y267235D01*
X166636Y267252D01*
X166619Y267268D01*
X166536Y267335D01*
X166486Y267418D01*
X166420Y267552D01*
X166386Y267668D01*
Y267685D01*
Y267702D01*
X166403Y267818D01*
X166436Y267935D01*
X166520Y268118D01*
X166569Y268185D01*
X166619Y268235D01*
X166636Y268251D01*
X166653Y268268D01*
X166770Y268351D01*
X166903Y268402D01*
X167169Y268468D01*
X167303Y268485D01*
X167403Y268501D01*
X167486D01*
X167736Y268485D01*
X167936Y268451D01*
X168119Y268402D01*
X168269Y268351D01*
X168386Y268285D01*
X168469Y268235D01*
X168519Y268202D01*
X168536Y268185D01*
X168669Y268052D01*
X168786Y267902D01*
X168869Y267735D01*
X168936Y267568D01*
X168986Y267418D01*
X169019Y267302D01*
X169052Y267218D01*
Y267185D01*
X172001Y267352D01*
X171952Y267635D01*
X171885Y267902D01*
X171818Y268151D01*
X171718Y268385D01*
X171635Y268585D01*
X171518Y268768D01*
X171418Y268951D01*
X171318Y269101D01*
X171202Y269235D01*
X171102Y269335D01*
X171018Y269435D01*
X170935Y269518D01*
X170868Y269568D01*
X170819Y269618D01*
X170785Y269651D01*
X170769D01*
X170569Y269784D01*
X170352Y269901D01*
X169869Y270068D01*
X169386Y270201D01*
X168902Y270301D01*
X168686Y270318D01*
X168469Y270351D01*
X168286Y270368D01*
X168119D01*
X167986Y270384D01*
X172335D01*
D02*
G37*
G36*
X320824Y270384D02*
X316291D01*
X315725Y270368D01*
X315475Y270351D01*
X315242Y270318D01*
X315008Y270284D01*
X314808Y270251D01*
X314625Y270218D01*
X314442Y270184D01*
X314292Y270151D01*
X314159Y270118D01*
X314059Y270084D01*
X313959Y270051D01*
X313892Y270018D01*
X313842Y270001D01*
X313809Y269984D01*
X313792D01*
X313475Y269818D01*
X313192Y269651D01*
X312959Y269468D01*
X312759Y269285D01*
X312609Y269135D01*
X312509Y269001D01*
X312442Y268918D01*
X312426Y268885D01*
X312276Y268618D01*
X312159Y268368D01*
X312092Y268118D01*
X312026Y267902D01*
X311992Y267702D01*
X311976Y267552D01*
Y267452D01*
Y267435D01*
Y267418D01*
X311992Y267202D01*
X312009Y266985D01*
X312109Y266602D01*
X312259Y266269D01*
X312426Y265985D01*
X312576Y265752D01*
X312726Y265585D01*
X312776Y265536D01*
X312826Y265485D01*
X312842Y265469D01*
X312859Y265452D01*
X313042Y265319D01*
X313242Y265186D01*
X313459Y265052D01*
X313692Y264936D01*
X314175Y264736D01*
X314659Y264552D01*
X314892Y264486D01*
X315108Y264419D01*
X315308Y264369D01*
X315475Y264319D01*
X315608Y264286D01*
X315725Y264252D01*
X315791Y264236D01*
X315808D01*
X316041Y264186D01*
X316241Y264136D01*
X316425Y264069D01*
X316591Y264019D01*
X316741Y263969D01*
X316875Y263919D01*
X317091Y263836D01*
X317241Y263753D01*
X317358Y263686D01*
X317408Y263653D01*
X317424Y263636D01*
X317541Y263519D01*
X317624Y263403D01*
X317691Y263286D01*
X317724Y263169D01*
X317758Y263086D01*
X317774Y263003D01*
Y262953D01*
Y262936D01*
X317758Y262786D01*
X317724Y262653D01*
X317658Y262520D01*
X317591Y262420D01*
X317524Y262320D01*
X317458Y262253D01*
X317424Y262220D01*
X317408Y262203D01*
X317258Y262103D01*
X317091Y262036D01*
X316908Y261970D01*
X316741Y261936D01*
X316591Y261920D01*
X316475Y261903D01*
X316358D01*
X316041Y261936D01*
X315758Y262003D01*
X315525Y262086D01*
X315325Y262203D01*
X315158Y262320D01*
X315058Y262403D01*
X314975Y262470D01*
X314958Y262503D01*
X314858Y262670D01*
X314775Y262836D01*
X314708Y263020D01*
X314659Y263203D01*
X314625Y263369D01*
X314592Y263503D01*
X314575Y263586D01*
Y263619D01*
X311593Y263419D01*
X311626Y263136D01*
X311676Y262869D01*
X311809Y262370D01*
X311992Y261953D01*
X312092Y261753D01*
X312192Y261586D01*
X312292Y261420D01*
X312392Y261287D01*
X312476Y261170D01*
X312559Y261070D01*
X312609Y260987D01*
X312659Y260937D01*
X312692Y260903D01*
X312709Y260887D01*
X312909Y260720D01*
X313159Y260570D01*
X313409Y260437D01*
X313692Y260320D01*
X313992Y260220D01*
X314292Y260137D01*
X314892Y260020D01*
X315175Y259987D01*
X315442Y259954D01*
X315675Y259937D01*
X315891Y259920D01*
X316058Y259904D01*
X311593D01*
X320824D01*
X316308D01*
X316841Y259920D01*
X317324Y259970D01*
X317741Y260037D01*
X317924Y260070D01*
X318091Y260120D01*
X318241Y260154D01*
X318374Y260187D01*
X318491Y260220D01*
X318591Y260254D01*
X318657Y260287D01*
X318707Y260303D01*
X318741Y260320D01*
X318757D01*
X319107Y260504D01*
X319407Y260703D01*
X319674Y260903D01*
X319890Y261103D01*
X320057Y261287D01*
X320174Y261437D01*
X320257Y261537D01*
X320274Y261553D01*
Y261570D01*
X320457Y261886D01*
X320590Y262203D01*
X320690Y262503D01*
X320757Y262770D01*
X320790Y263020D01*
X320824Y263203D01*
Y263369D01*
X320807Y263669D01*
X320757Y263953D01*
X320690Y264202D01*
X320624Y264436D01*
X320540Y264619D01*
X320474Y264752D01*
X320424Y264836D01*
X320407Y264869D01*
X320240Y265102D01*
X320040Y265319D01*
X319824Y265519D01*
X319607Y265686D01*
X319407Y265802D01*
X319257Y265902D01*
X319191Y265935D01*
X319141Y265969D01*
X319124Y265985D01*
X319107D01*
X318924Y266069D01*
X318724Y266152D01*
X318507Y266235D01*
X318274Y266319D01*
X317791Y266469D01*
X317308Y266619D01*
X317075Y266669D01*
X316858Y266719D01*
X316658Y266768D01*
X316491Y266819D01*
X316358Y266835D01*
X316241Y266868D01*
X316175Y266885D01*
X316158D01*
X315875Y266952D01*
X315641Y267019D01*
X315458Y267085D01*
X315325Y267152D01*
X315225Y267202D01*
X315158Y267235D01*
X315125Y267252D01*
X315108Y267268D01*
X315025Y267335D01*
X314975Y267418D01*
X314908Y267552D01*
X314875Y267668D01*
Y267685D01*
Y267702D01*
X314892Y267818D01*
X314925Y267935D01*
X315008Y268118D01*
X315058Y268185D01*
X315108Y268235D01*
X315125Y268251D01*
X315142Y268268D01*
X315258Y268351D01*
X315392Y268401D01*
X315658Y268468D01*
X315791Y268485D01*
X315891Y268501D01*
X315975D01*
X316225Y268485D01*
X316425Y268451D01*
X316608Y268401D01*
X316758Y268351D01*
X316875Y268285D01*
X316958Y268235D01*
X317008Y268202D01*
X317024Y268185D01*
X317158Y268051D01*
X317274Y267902D01*
X317358Y267735D01*
X317424Y267568D01*
X317474Y267418D01*
X317508Y267302D01*
X317541Y267218D01*
Y267185D01*
X320490Y267352D01*
X320440Y267635D01*
X320374Y267902D01*
X320307Y268151D01*
X320207Y268385D01*
X320124Y268585D01*
X320007Y268768D01*
X319907Y268951D01*
X319807Y269101D01*
X319690Y269235D01*
X319590Y269335D01*
X319507Y269435D01*
X319424Y269518D01*
X319357Y269568D01*
X319307Y269618D01*
X319274Y269651D01*
X319257D01*
X319057Y269784D01*
X318841Y269901D01*
X318358Y270068D01*
X317874Y270201D01*
X317391Y270301D01*
X317174Y270318D01*
X316958Y270351D01*
X316775Y270368D01*
X316608D01*
X316475Y270384D01*
X320824D01*
D02*
G37*
G36*
X370677Y270384D02*
X370494D01*
X370044Y270368D01*
X369628Y270334D01*
X369228Y270251D01*
X368861Y270168D01*
X368528Y270068D01*
X368211Y269951D01*
X367928Y269834D01*
X367678Y269701D01*
X367445Y269568D01*
X367245Y269451D01*
X367078Y269335D01*
X366945Y269235D01*
X366828Y269151D01*
X366762Y269085D01*
X366712Y269035D01*
X366695Y269018D01*
X366462Y268751D01*
X366262Y268468D01*
X366079Y268168D01*
X365929Y267852D01*
X365795Y267518D01*
X365695Y267202D01*
X365595Y266885D01*
X365529Y266585D01*
X365479Y266285D01*
X365429Y266019D01*
X365396Y265786D01*
X365379Y265569D01*
Y265402D01*
X365362Y265269D01*
D01*
Y265152D01*
X365379Y264802D01*
X365396Y264486D01*
X365429Y264169D01*
X365479Y263869D01*
X365529Y263603D01*
X365595Y263353D01*
X365662Y263103D01*
X365745Y262903D01*
X365812Y262703D01*
X365879Y262536D01*
X365945Y262386D01*
X365995Y262270D01*
X366045Y262186D01*
X366079Y262103D01*
X366112Y262070D01*
Y262053D01*
X366262Y261836D01*
X366412Y261637D01*
X366712Y261287D01*
X367028Y260987D01*
X367312Y260770D01*
X367562Y260587D01*
X367662Y260520D01*
X367745Y260470D01*
X367828Y260420D01*
X367878Y260387D01*
X367911Y260370D01*
X367928D01*
X368345Y260220D01*
X368795Y260104D01*
X369244Y260020D01*
X369678Y259970D01*
X369861Y259937D01*
X370044D01*
X370211Y259920D01*
X370361Y259904D01*
X365362D01*
X375243D01*
Y263386D01*
X372494Y264236D01*
X372410Y263886D01*
X372294Y263586D01*
X372177Y263336D01*
X372077Y263120D01*
X371977Y262969D01*
X371894Y262853D01*
X371827Y262770D01*
X371810Y262753D01*
X371627Y262586D01*
X371411Y262470D01*
X371194Y262370D01*
X370961Y262320D01*
X370777Y262286D01*
X370611Y262270D01*
X370544Y262253D01*
X370461D01*
X370128Y262286D01*
X369844Y262353D01*
X369594Y262453D01*
X369394Y262570D01*
X369228Y262670D01*
X369111Y262770D01*
X369028Y262836D01*
X369011Y262870D01*
X368928Y263003D01*
X368845Y263153D01*
X368778Y263319D01*
X368728Y263486D01*
X368628Y263869D01*
X368578Y264252D01*
X368545Y264602D01*
X368528Y264752D01*
Y264902D01*
X368511Y265002D01*
Y265102D01*
Y265152D01*
Y265169D01*
Y265419D01*
X368528Y265652D01*
X368545Y265869D01*
X368578Y266052D01*
X368645Y266402D01*
X368728Y266685D01*
X368795Y266902D01*
X368861Y267052D01*
X368911Y267135D01*
X368928Y267169D01*
X369044Y267318D01*
X369161Y267452D01*
X369295Y267568D01*
X369428Y267668D01*
X369694Y267818D01*
X369961Y267935D01*
X370194Y267985D01*
X370394Y268018D01*
X370461Y268035D01*
X370744D01*
X370894Y268002D01*
X371044Y267968D01*
X371161Y267935D01*
X371277Y267902D01*
X371344Y267868D01*
X371394Y267852D01*
X371411Y267835D01*
X371677Y267668D01*
X371777Y267568D01*
X371877Y267485D01*
X371960Y267402D01*
X372010Y267352D01*
X372044Y267302D01*
X372060Y267285D01*
X372127Y267202D01*
X372177Y267085D01*
X372277Y266868D01*
X372327Y266769D01*
X372344Y266685D01*
X372377Y266635D01*
Y266619D01*
X375143Y267218D01*
X375026Y267518D01*
X374910Y267785D01*
X374793Y268035D01*
X374660Y268268D01*
X374510Y268485D01*
X374376Y268685D01*
X374243Y268851D01*
X374110Y269018D01*
X373993Y269151D01*
X373877Y269268D01*
X373760Y269368D01*
X373677Y269451D01*
X373593Y269518D01*
X373543Y269568D01*
X373510Y269585D01*
X373493Y269601D01*
X373277Y269734D01*
X373060Y269868D01*
X372560Y270051D01*
X372077Y270201D01*
X371594Y270284D01*
X371361Y270318D01*
X371161Y270351D01*
X370977Y270368D01*
X370811D01*
X370677Y270384D01*
D02*
G37*
G36*
X365362D02*
D01*
Y266052D01*
Y270384D01*
D01*
D02*
G37*
G36*
X141359Y270218D02*
X138160D01*
X135911Y262903D01*
X133611Y270218D01*
X130345D01*
X134178Y260070D01*
X130345D01*
X141359D01*
X137577D01*
X141359Y270218D01*
D02*
G37*
G36*
X182465Y270218D02*
Y262370D01*
X177050D01*
Y264369D01*
X181932D01*
Y266435D01*
X177050D01*
Y268052D01*
X182316D01*
Y270218D01*
X173901D01*
Y260070D01*
X182465D01*
Y270218D01*
D02*
G37*
G36*
X150940Y270218D02*
Y262370D01*
X145525D01*
Y264369D01*
X150407D01*
Y266435D01*
X145525D01*
Y268051D01*
X150790D01*
Y270218D01*
X150940D01*
X142376D01*
Y260070D01*
X150940D01*
Y270218D01*
D02*
G37*
G36*
X129662D02*
Y262370D01*
X124247D01*
Y264369D01*
X129129D01*
Y266435D01*
X124247D01*
Y268051D01*
X129512D01*
Y270218D01*
X129662D01*
X121098D01*
Y260070D01*
X129662D01*
Y270218D01*
D02*
G37*
G36*
X235069Y262903D02*
X232053D01*
Y260070D01*
X235069D01*
Y262903D01*
D02*
G37*
G36*
X230803Y270218D02*
X221272D01*
Y260070D01*
X230803D01*
X227604D01*
Y267718D01*
X230803D01*
Y270218D01*
D02*
G37*
G36*
X385324D02*
X376759D01*
Y260070D01*
X385324D01*
Y262386D01*
Y262370D01*
X379908D01*
Y264369D01*
X384790D01*
Y266435D01*
X379908D01*
Y268052D01*
X385174D01*
Y270218D01*
X385324D01*
D02*
G37*
G36*
X204760D02*
X199178D01*
Y260070D01*
X202327D01*
Y264186D01*
X202594D01*
X202744Y264169D01*
X202894Y264153D01*
X203027Y264103D01*
X203144Y264069D01*
X203227Y264019D01*
X203310Y263969D01*
X203344Y263953D01*
X203360Y263936D01*
X203460Y263853D01*
X203560Y263736D01*
X203643Y263619D01*
X203743Y263486D01*
X203810Y263353D01*
X203877Y263253D01*
X203910Y263186D01*
X203927Y263153D01*
X205609Y260070D01*
X209159D01*
X207626Y263003D01*
X207576Y263086D01*
X207509Y263186D01*
X207359Y263386D01*
X207292Y263486D01*
X207226Y263553D01*
X207192Y263603D01*
X207176Y263619D01*
X207059Y263769D01*
X206959Y263886D01*
X206876Y263969D01*
X206809Y264053D01*
X206759Y264103D01*
X206709Y264136D01*
X206693Y264169D01*
X206676D01*
X206576Y264236D01*
X206443Y264303D01*
X206176Y264419D01*
X206059Y264469D01*
X205959Y264503D01*
X205893Y264536D01*
X205876D01*
X206126Y264602D01*
X206343Y264669D01*
X206526Y264736D01*
X206693Y264802D01*
X206809Y264852D01*
X206909Y264902D01*
X206959Y264919D01*
X206976Y264936D01*
X207209Y265086D01*
X207392Y265252D01*
X207576Y265419D01*
X207709Y265585D01*
X207826Y265719D01*
X207909Y265835D01*
X207959Y265902D01*
X207976Y265935D01*
X208092Y266169D01*
X208192Y266419D01*
X208259Y266669D01*
X208292Y266885D01*
X208326Y267085D01*
X208342Y267252D01*
Y267352D01*
Y267368D01*
Y267385D01*
X208326Y267735D01*
X208276Y268052D01*
X208192Y268335D01*
X208109Y268585D01*
X208009Y268768D01*
X207942Y268918D01*
X207876Y269001D01*
X207859Y269035D01*
X207676Y269268D01*
X207476Y269468D01*
X207259Y269634D01*
X207076Y269751D01*
X206893Y269851D01*
X206759Y269918D01*
X206659Y269951D01*
X206643Y269968D01*
X206626D01*
X206309Y270051D01*
X205959Y270118D01*
X205576Y270151D01*
X205226Y270184D01*
X204893Y270201D01*
X204760Y270218D01*
D02*
G37*
G36*
X360930D02*
X357481D01*
X353682Y260070D01*
X360055D01*
X356881D01*
X357381Y261753D01*
X360930D01*
X361430Y260070D01*
X364729D01*
X360930Y270218D01*
D02*
G37*
G36*
X197495D02*
X188881D01*
Y260070D01*
X192030D01*
Y263836D01*
X193746D01*
X194096Y263853D01*
X194412Y263869D01*
X194712Y263919D01*
X194996Y263969D01*
X195245Y264036D01*
X195479Y264103D01*
X195679Y264186D01*
X195862Y264269D01*
X196029Y264336D01*
X196179Y264419D01*
X196295Y264486D01*
X196395Y264552D01*
X196462Y264602D01*
X196512Y264652D01*
X196545Y264669D01*
X196562Y264686D01*
X196728Y264852D01*
X196878Y265036D01*
X196995Y265236D01*
X197095Y265436D01*
X197262Y265835D01*
X197378Y266219D01*
X197412Y266402D01*
X197445Y266569D01*
X197462Y266719D01*
X197478Y266852D01*
X197495Y266952D01*
Y267102D01*
X197478Y267368D01*
X197462Y267635D01*
X197362Y268085D01*
X197295Y268285D01*
X197228Y268485D01*
X197145Y268651D01*
X197078Y268801D01*
X196995Y268951D01*
X196912Y269068D01*
X196845Y269168D01*
X196779Y269251D01*
X196728Y269318D01*
X196679Y269368D01*
X196662Y269385D01*
X196645Y269401D01*
X196479Y269551D01*
X196295Y269668D01*
X196095Y269784D01*
X195879Y269868D01*
X195462Y270018D01*
X195046Y270118D01*
X194846Y270151D01*
X194662Y270168D01*
X194496Y270201D01*
X194362D01*
X194246Y270218D01*
X197495D01*
D02*
G37*
G36*
X353682D02*
D01*
Y260070D01*
Y270218D01*
D01*
D02*
G37*
G36*
X353015D02*
X345251D01*
Y260070D01*
X348400D01*
Y264219D01*
X352349D01*
Y266269D01*
X348400D01*
Y268035D01*
X353015D01*
Y270218D01*
D02*
G37*
G36*
X344234D02*
X334253D01*
Y260070D01*
X337403D01*
Y264186D01*
X337669D01*
X337819Y264169D01*
X337969Y264153D01*
X338102Y264103D01*
X338219Y264069D01*
X338302Y264019D01*
X338386Y263969D01*
X338419Y263953D01*
X338436Y263936D01*
X338536Y263853D01*
X338636Y263736D01*
X338719Y263619D01*
X338819Y263486D01*
X338886Y263353D01*
X338952Y263253D01*
X338986Y263186D01*
X339002Y263153D01*
X340685Y260070D01*
X344234D01*
X342701Y263003D01*
X342651Y263086D01*
X342585Y263186D01*
X342435Y263386D01*
X342368Y263486D01*
X342301Y263553D01*
X342268Y263603D01*
X342251Y263619D01*
X342135Y263769D01*
X342035Y263886D01*
X341951Y263969D01*
X341885Y264053D01*
X341835Y264103D01*
X341785Y264136D01*
X341768Y264169D01*
X341752D01*
X341651Y264236D01*
X341518Y264303D01*
X341252Y264419D01*
X341135Y264469D01*
X341035Y264503D01*
X340968Y264536D01*
X340952D01*
X341202Y264602D01*
X341418Y264669D01*
X341602Y264736D01*
X341768Y264802D01*
X341885Y264852D01*
X341985Y264902D01*
X342035Y264919D01*
X342051Y264936D01*
X342285Y265086D01*
X342468Y265252D01*
X342651Y265419D01*
X342785Y265585D01*
X342901Y265719D01*
X342985Y265835D01*
X343035Y265902D01*
X343051Y265935D01*
X343168Y266169D01*
X343268Y266419D01*
X343334Y266669D01*
X343368Y266885D01*
X343401Y267085D01*
X343418Y267252D01*
Y267352D01*
Y267368D01*
Y267385D01*
X343401Y267735D01*
X343351Y268052D01*
X343268Y268335D01*
X343185Y268585D01*
X343084Y268768D01*
X343018Y268918D01*
X342951Y269001D01*
X342934Y269035D01*
X342751Y269268D01*
X342551Y269468D01*
X342335Y269634D01*
X342151Y269751D01*
X341968Y269851D01*
X341835Y269918D01*
X341735Y269951D01*
X341718Y269968D01*
X341702D01*
X341385Y270051D01*
X341035Y270118D01*
X340652Y270151D01*
X340302Y270184D01*
X339969Y270201D01*
X339835Y270218D01*
X344234D01*
D02*
G37*
G36*
X158255Y270218D02*
X152673D01*
Y260070D01*
X155822D01*
Y264186D01*
X156089D01*
X156239Y264169D01*
X156389Y264153D01*
X156522Y264102D01*
X156639Y264069D01*
X156722Y264019D01*
X156805Y263969D01*
X156839Y263953D01*
X156855Y263936D01*
X156955Y263853D01*
X157055Y263736D01*
X157139Y263619D01*
X157239Y263486D01*
X157305Y263353D01*
X157372Y263253D01*
X157405Y263186D01*
X157422Y263153D01*
X159105Y260070D01*
X162654Y260070D01*
X161121Y263003D01*
X161071Y263086D01*
X161004Y263186D01*
X160854Y263386D01*
X160788Y263486D01*
X160721Y263553D01*
X160688Y263603D01*
X160671Y263619D01*
X160554Y263769D01*
X160454Y263886D01*
X160371Y263969D01*
X160305Y264053D01*
X160254Y264102D01*
X160205Y264136D01*
X160188Y264169D01*
X160171D01*
X160071Y264236D01*
X159938Y264303D01*
X159671Y264419D01*
X159555Y264469D01*
X159455Y264502D01*
X159388Y264536D01*
X159371D01*
X159621Y264602D01*
X159838Y264669D01*
X160021Y264736D01*
X160188Y264802D01*
X160305Y264852D01*
X160404Y264902D01*
X160454Y264919D01*
X160471Y264936D01*
X160704Y265086D01*
X160888Y265252D01*
X161071Y265419D01*
X161204Y265585D01*
X161321Y265719D01*
X161404Y265835D01*
X161454Y265902D01*
X161471Y265935D01*
X161588Y266169D01*
X161688Y266419D01*
X161754Y266669D01*
X161787Y266885D01*
X161821Y267085D01*
X161837Y267252D01*
Y267352D01*
Y267368D01*
Y267385D01*
X161821Y267735D01*
X161771Y268052D01*
X161688Y268335D01*
X161604Y268585D01*
X161504Y268768D01*
X161437Y268918D01*
X161371Y269001D01*
X161354Y269035D01*
X161171Y269268D01*
X160971Y269468D01*
X160754Y269634D01*
X160571Y269751D01*
X160388Y269851D01*
X160254Y269918D01*
X160154Y269951D01*
X160138Y269968D01*
X160121D01*
X159805Y270051D01*
X159455Y270118D01*
X159072Y270151D01*
X158722Y270184D01*
X158388Y270201D01*
X158255Y270218D01*
D02*
G37*
G36*
X305994D02*
X296463D01*
Y260070D01*
Y267718D01*
X299662D01*
Y260070D01*
X305994D01*
X302795D01*
Y267718D01*
X305994D01*
Y270218D01*
D02*
G37*
G36*
X115699D02*
X110117D01*
Y260070D01*
X113266D01*
Y264186D01*
X113533D01*
X113683Y264169D01*
X113833Y264153D01*
X113966Y264102D01*
X114083Y264069D01*
X114166Y264019D01*
X114250Y263969D01*
X114283Y263953D01*
X114300Y263936D01*
X114400Y263853D01*
X114500Y263736D01*
X114583Y263619D01*
X114683Y263486D01*
X114749Y263353D01*
X114816Y263253D01*
X114850Y263186D01*
X114866Y263153D01*
X116549Y260070D01*
X120098D01*
X118565Y263003D01*
X118515Y263086D01*
X118448Y263186D01*
X118299Y263386D01*
X118232Y263486D01*
X118165Y263553D01*
X118132Y263603D01*
X118115Y263619D01*
X117999Y263769D01*
X117899Y263886D01*
X117815Y263969D01*
X117749Y264053D01*
X117699Y264102D01*
X117649Y264136D01*
X117632Y264169D01*
X117615D01*
X117515Y264236D01*
X117382Y264303D01*
X117115Y264419D01*
X116999Y264469D01*
X116899Y264502D01*
X116832Y264536D01*
X116816D01*
X117066Y264602D01*
X117282Y264669D01*
X117465Y264736D01*
X117632Y264802D01*
X117749Y264852D01*
X117849Y264902D01*
X117899Y264919D01*
X117915Y264936D01*
X118149Y265086D01*
X118332Y265252D01*
X118515Y265419D01*
X118649Y265585D01*
X118765Y265719D01*
X118848Y265835D01*
X118898Y265902D01*
X118915Y265935D01*
X119032Y266169D01*
X119132Y266419D01*
X119198Y266669D01*
X119232Y266885D01*
X119265Y267085D01*
X119282Y267252D01*
Y267352D01*
Y267368D01*
Y267385D01*
X119265Y267735D01*
X119215Y268051D01*
X119132Y268335D01*
X119048Y268585D01*
X118948Y268768D01*
X118882Y268918D01*
X118815Y269001D01*
X118798Y269035D01*
X118615Y269268D01*
X118415Y269468D01*
X118199Y269634D01*
X118015Y269751D01*
X117832Y269851D01*
X117699Y269918D01*
X117599Y269951D01*
X117582Y269968D01*
X117565D01*
X117249Y270051D01*
X116899Y270118D01*
X116516Y270151D01*
X116166Y270184D01*
X115833Y270201D01*
X115699Y270218D01*
D02*
G37*
G36*
X283267D02*
X273552D01*
Y260070D01*
X276685D01*
Y264169D01*
X280117D01*
Y260070D01*
X283267D01*
Y270218D01*
D02*
G37*
G36*
X220289Y264969D02*
Y259904D01*
D01*
D01*
Y264969D01*
D02*
G37*
G36*
Y270384D02*
X209775D01*
X215007D01*
X214557Y270368D01*
X214141Y270318D01*
X213741Y270251D01*
X213374Y270168D01*
X213024Y270068D01*
X212708Y269951D01*
X212425Y269818D01*
X212158Y269701D01*
X211925Y269568D01*
X211725Y269435D01*
X211558Y269318D01*
X211408Y269218D01*
X211308Y269135D01*
X211225Y269068D01*
X211175Y269018D01*
X211158Y269001D01*
X210908Y268735D01*
X210708Y268435D01*
X210525Y268135D01*
X210358Y267818D01*
X210225Y267485D01*
X210108Y267169D01*
X210025Y266852D01*
X209942Y266552D01*
X209892Y266269D01*
X209842Y266002D01*
X209825Y265752D01*
X209792Y265552D01*
Y265369D01*
X209775Y265252D01*
Y265136D01*
X209809Y264503D01*
X209842Y264202D01*
X209875Y263919D01*
X209942Y263653D01*
X209992Y263419D01*
X210058Y263186D01*
X210125Y262986D01*
X210175Y262803D01*
X210242Y262636D01*
X210308Y262503D01*
X210358Y262386D01*
X210392Y262286D01*
X210425Y262220D01*
X210458Y262186D01*
Y262170D01*
X210742Y261753D01*
X211042Y261403D01*
X211341Y261103D01*
X211625Y260853D01*
X211891Y260670D01*
X211991Y260604D01*
X212091Y260537D01*
X212174Y260504D01*
X212225Y260470D01*
X212258Y260437D01*
X212274D01*
X212724Y260254D01*
X213191Y260137D01*
X213674Y260037D01*
X214124Y259970D01*
X214324Y259954D01*
X214524Y259937D01*
X214691Y259920D01*
X214841D01*
X214957Y259904D01*
X215124D01*
X215740Y259937D01*
X216290Y260004D01*
X216540Y260054D01*
X216773Y260104D01*
X216990Y260154D01*
X217173Y260220D01*
X217356Y260270D01*
X217507Y260320D01*
X217640Y260370D01*
X217756Y260420D01*
X217840Y260470D01*
X217906Y260487D01*
X217940Y260520D01*
X217956D01*
X218356Y260770D01*
X218706Y261070D01*
X219006Y261353D01*
X219256Y261637D01*
X219439Y261903D01*
X219523Y262003D01*
X219573Y262103D01*
X219623Y262186D01*
X219656Y262236D01*
X219689Y262270D01*
Y262286D01*
X219889Y262736D01*
X220039Y263236D01*
X220139Y263719D01*
X220222Y264186D01*
X220239Y264403D01*
X220256Y264602D01*
X220273Y264769D01*
Y264919D01*
X220289Y265052D01*
Y265219D01*
X220273Y265669D01*
X220222Y266085D01*
X220156Y266469D01*
X220072Y266835D01*
X219972Y267185D01*
X219856Y267485D01*
X219723Y267768D01*
X219606Y268035D01*
X219473Y268251D01*
X219339Y268451D01*
X219223Y268635D01*
X219123Y268768D01*
X219039Y268885D01*
X218973Y268951D01*
X218923Y269001D01*
X218906Y269018D01*
X218640Y269251D01*
X218340Y269468D01*
X218040Y269651D01*
X217723Y269801D01*
X217390Y269934D01*
X217073Y270051D01*
X216757Y270134D01*
X216440Y270218D01*
X216157Y270268D01*
X215874Y270318D01*
X215640Y270351D01*
X215424Y270368D01*
X215257D01*
X215124Y270384D01*
X220289D01*
D02*
G37*
G36*
X163104D02*
D01*
Y259904D01*
D01*
Y270384D01*
D01*
D02*
G37*
G36*
X332137Y270218D02*
X322407Y270218D01*
Y259904D01*
D01*
Y264169D01*
X322423Y263886D01*
X322457Y263586D01*
X322490Y263303D01*
X322556Y263036D01*
X322606Y262803D01*
X322640Y262620D01*
X322656Y262553D01*
X322673Y262503D01*
X322690Y262470D01*
Y262453D01*
X322773Y262236D01*
X322873Y262020D01*
X322990Y261820D01*
X323090Y261653D01*
X323190Y261503D01*
X323273Y261387D01*
X323340Y261320D01*
X323356Y261287D01*
X323540Y261087D01*
X323723Y260903D01*
X323906Y260753D01*
X324073Y260637D01*
X324206Y260537D01*
X324323Y260470D01*
X324389Y260420D01*
X324423Y260403D01*
X324656Y260303D01*
X324906Y260220D01*
X325156Y260154D01*
X325389Y260087D01*
X325589Y260054D01*
X325739Y260020D01*
X325806D01*
X325856Y260004D01*
X325889D01*
X326205Y259970D01*
X326522Y259954D01*
X326789Y259920D01*
X327039D01*
X327239Y259904D01*
X327522D01*
X327988Y259920D01*
X328405Y259954D01*
X328772Y260004D01*
X329088Y260070D01*
X329355Y260137D01*
X329455Y260154D01*
X329538Y260187D01*
X329621Y260203D01*
X329671Y260220D01*
X329688Y260237D01*
X329705D01*
X329954Y260337D01*
X330188Y260470D01*
X330404Y260604D01*
X330588Y260737D01*
X330754Y260870D01*
X330871Y260970D01*
X330938Y261037D01*
X330971Y261070D01*
X331188Y261303D01*
X331371Y261537D01*
X331521Y261770D01*
X331637Y262003D01*
X331737Y262186D01*
X331804Y262336D01*
X331837Y262436D01*
X331854Y262453D01*
Y262470D01*
X331954Y262770D01*
X332021Y263069D01*
X332071Y263353D01*
X332104Y263619D01*
X332121Y263836D01*
X332137Y264019D01*
Y270218D01*
D02*
G37*
G36*
X311593Y270384D02*
D01*
Y259904D01*
D01*
Y270384D01*
D01*
D02*
G37*
G36*
X295480D02*
X284966D01*
Y259904D01*
D01*
Y265136D01*
X284999Y264502D01*
X285033Y264202D01*
X285066Y263919D01*
X285133Y263653D01*
X285183Y263419D01*
X285249Y263186D01*
X285316Y262986D01*
X285366Y262803D01*
X285433Y262636D01*
X285499Y262503D01*
X285549Y262386D01*
X285583Y262286D01*
X285616Y262220D01*
X285649Y262186D01*
Y262170D01*
X285933Y261753D01*
X286232Y261403D01*
X286532Y261103D01*
X286816Y260853D01*
X287082Y260670D01*
X287182Y260603D01*
X287282Y260537D01*
X287365Y260504D01*
X287415Y260470D01*
X287449Y260437D01*
X287465D01*
X287915Y260254D01*
X288382Y260137D01*
X288865Y260037D01*
X289315Y259970D01*
X289515Y259954D01*
X289715Y259937D01*
X289881Y259920D01*
X290031D01*
X290148Y259904D01*
X290315D01*
X290931Y259937D01*
X291481Y260004D01*
X291731Y260054D01*
X291964Y260104D01*
X292181Y260154D01*
X292364Y260220D01*
X292547Y260270D01*
X292697Y260320D01*
X292831Y260370D01*
X292947Y260420D01*
X293031Y260470D01*
X293097Y260487D01*
X293131Y260520D01*
X293147D01*
X293547Y260770D01*
X293897Y261070D01*
X294197Y261353D01*
X294447Y261637D01*
X294630Y261903D01*
X294714Y262003D01*
X294764Y262103D01*
X294813Y262186D01*
X294847Y262236D01*
X294880Y262270D01*
Y262286D01*
X295080Y262736D01*
X295230Y263236D01*
X295330Y263719D01*
X295413Y264186D01*
X295430Y264403D01*
X295447Y264602D01*
X295463Y264769D01*
Y264919D01*
X295480Y265052D01*
Y265219D01*
X295463Y265669D01*
X295413Y266085D01*
X295347Y266469D01*
X295263Y266835D01*
X295163Y267185D01*
X295047Y267485D01*
X294914Y267768D01*
X294797Y268035D01*
X294664Y268251D01*
X294530Y268451D01*
X294414Y268635D01*
X294314Y268768D01*
X294230Y268885D01*
X294164Y268951D01*
X294114Y269001D01*
X294097Y269018D01*
X293831Y269251D01*
X293531Y269468D01*
X293231Y269651D01*
X292914Y269801D01*
X292581Y269934D01*
X292264Y270051D01*
X291948Y270134D01*
X291631Y270218D01*
X291348Y270268D01*
X291064Y270318D01*
X290831Y270351D01*
X290615Y270368D01*
X290448D01*
X290315Y270384D01*
X295480D01*
D02*
G37*
%LPD*%
G36*
X375243Y259904D02*
X370628D01*
X371111Y259920D01*
X371561Y259970D01*
X371944Y260020D01*
X372260Y260104D01*
X372410Y260137D01*
X372527Y260170D01*
X372627Y260204D01*
X372710Y260220D01*
X372794Y260254D01*
X372844Y260270D01*
X372860Y260287D01*
X372877D01*
X373194Y260453D01*
X373477Y260637D01*
X373727Y260837D01*
X373943Y261020D01*
X374127Y261187D01*
X374260Y261320D01*
X374327Y261420D01*
X374360Y261453D01*
X374576Y261770D01*
X374760Y262086D01*
X374910Y262403D01*
X375026Y262720D01*
X375126Y262986D01*
X375160Y263103D01*
X375193Y263203D01*
X375210Y263270D01*
X375226Y263336D01*
X375243Y263369D01*
Y259904D01*
D02*
G37*
G36*
X224471Y260070D02*
X221272D01*
Y267718D01*
X224471D01*
Y260070D01*
D02*
G37*
G36*
X203993Y268151D02*
X204243Y268135D01*
X204443Y268085D01*
X204610Y268035D01*
X204726Y267985D01*
X204810Y267952D01*
X204860Y267918D01*
X204876Y267902D01*
X204976Y267785D01*
X205060Y267668D01*
X205110Y267535D01*
X205160Y267418D01*
X205176Y267302D01*
X205193Y267218D01*
Y267152D01*
Y267135D01*
Y267019D01*
X205160Y266902D01*
X205093Y266719D01*
X205060Y266652D01*
X205026Y266602D01*
X205010Y266569D01*
X204993Y266552D01*
X204910Y266469D01*
X204826Y266402D01*
X204660Y266302D01*
X204593Y266269D01*
X204527Y266252D01*
X204493Y266235D01*
X204477D01*
X204260Y266185D01*
X204093Y266152D01*
X203943Y266135D01*
X203827Y266119D01*
X203743Y266102D01*
X202327D01*
Y268168D01*
X203693D01*
X203993Y268151D01*
D02*
G37*
G36*
X360263Y263953D02*
X358064D01*
X359164Y267585D01*
X360263Y263953D01*
D02*
G37*
G36*
X193213Y268135D02*
X193479Y268102D01*
X193679Y268052D01*
X193846Y267985D01*
X193962Y267918D01*
X194046Y267868D01*
X194096Y267835D01*
X194112Y267818D01*
X194229Y267685D01*
X194312Y267552D01*
X194362Y267418D01*
X194412Y267285D01*
X194429Y267169D01*
X194446Y267085D01*
Y267019D01*
Y267002D01*
X194429Y266819D01*
X194379Y266669D01*
X194329Y266519D01*
X194263Y266402D01*
X194179Y266319D01*
X194129Y266235D01*
X194079Y266202D01*
X194062Y266185D01*
X193896Y266085D01*
X193713Y266019D01*
X193496Y265952D01*
X193296Y265919D01*
X193096Y265902D01*
X192946Y265885D01*
X192030D01*
Y268151D01*
X192913D01*
X193213Y268135D01*
D02*
G37*
G36*
X339069Y268151D02*
X339319Y268135D01*
X339519Y268085D01*
X339685Y268035D01*
X339802Y267985D01*
X339885Y267952D01*
X339935Y267918D01*
X339952Y267902D01*
X340052Y267785D01*
X340135Y267668D01*
X340185Y267535D01*
X340235Y267418D01*
X340252Y267302D01*
X340269Y267218D01*
Y267152D01*
Y267135D01*
Y267019D01*
X340235Y266902D01*
X340169Y266719D01*
X340135Y266652D01*
X340102Y266602D01*
X340085Y266569D01*
X340069Y266552D01*
X339985Y266469D01*
X339902Y266402D01*
X339735Y266302D01*
X339669Y266269D01*
X339602Y266252D01*
X339569Y266235D01*
X339552D01*
X339336Y266185D01*
X339169Y266152D01*
X339019Y266135D01*
X338902Y266119D01*
X338819Y266102D01*
X337403D01*
Y268168D01*
X338769D01*
X339069Y268151D01*
D02*
G37*
G36*
X157488Y268151D02*
X157739Y268135D01*
X157938Y268085D01*
X158105Y268035D01*
X158222Y267985D01*
X158305Y267952D01*
X158355Y267918D01*
X158372Y267902D01*
X158472Y267785D01*
X158555Y267668D01*
X158605Y267535D01*
X158655Y267418D01*
X158672Y267302D01*
X158688Y267218D01*
Y267152D01*
Y267135D01*
Y267019D01*
X158655Y266902D01*
X158588Y266719D01*
X158555Y266652D01*
X158522Y266602D01*
X158505Y266569D01*
X158488Y266552D01*
X158405Y266469D01*
X158322Y266402D01*
X158155Y266302D01*
X158088Y266269D01*
X158022Y266252D01*
X157988Y266235D01*
X157972D01*
X157755Y266185D01*
X157589Y266152D01*
X157438Y266135D01*
X157322Y266119D01*
X157239Y266102D01*
X155822D01*
Y268168D01*
X157189D01*
X157488Y268151D01*
D02*
G37*
G36*
X114933D02*
X115183Y268135D01*
X115383Y268085D01*
X115549Y268035D01*
X115666Y267985D01*
X115749Y267952D01*
X115799Y267918D01*
X115816Y267902D01*
X115916Y267785D01*
X115999Y267668D01*
X116049Y267535D01*
X116099Y267418D01*
X116116Y267302D01*
X116132Y267218D01*
Y267152D01*
Y267135D01*
Y267019D01*
X116099Y266902D01*
X116032Y266719D01*
X115999Y266652D01*
X115966Y266602D01*
X115949Y266569D01*
X115933Y266552D01*
X115849Y266469D01*
X115766Y266402D01*
X115599Y266302D01*
X115533Y266269D01*
X115466Y266252D01*
X115433Y266235D01*
X115416D01*
X115199Y266185D01*
X115033Y266152D01*
X114883Y266135D01*
X114766Y266119D01*
X114683Y266102D01*
X113266D01*
Y268168D01*
X114633D01*
X114933Y268151D01*
D02*
G37*
G36*
X280117Y266669D02*
X276685D01*
Y270218D01*
X280117D01*
Y266669D01*
D02*
G37*
G36*
X215357Y267968D02*
X215674Y267902D01*
X215940Y267785D01*
X216157Y267668D01*
X216340Y267552D01*
X216473Y267435D01*
X216540Y267368D01*
X216573Y267335D01*
X216673Y267202D01*
X216773Y267052D01*
X216907Y266735D01*
X217007Y266385D01*
X217090Y266052D01*
X217123Y265735D01*
X217140Y265602D01*
Y265485D01*
X217157Y265386D01*
Y265319D01*
Y265269D01*
Y265252D01*
Y264952D01*
X217140Y264669D01*
X217107Y264403D01*
X217073Y264169D01*
X217023Y263953D01*
X216973Y263769D01*
X216923Y263586D01*
X216873Y263436D01*
X216823Y263303D01*
X216773Y263203D01*
X216723Y263103D01*
X216673Y263036D01*
X216640Y262969D01*
X216607Y262936D01*
X216590Y262903D01*
X216374Y262686D01*
X216107Y262520D01*
X215857Y262420D01*
X215607Y262336D01*
X215374Y262286D01*
X215190Y262270D01*
X215124Y262253D01*
X215024D01*
X214674Y262286D01*
X214374Y262353D01*
X214107Y262470D01*
X213874Y262586D01*
X213708Y262703D01*
X213574Y262820D01*
X213507Y262886D01*
X213474Y262920D01*
X213374Y263053D01*
X213291Y263203D01*
X213141Y263553D01*
X213041Y263903D01*
X212974Y264269D01*
X212941Y264602D01*
X212924Y264736D01*
Y264869D01*
X212908Y264969D01*
Y265052D01*
Y265102D01*
Y265119D01*
Y265402D01*
X212924Y265652D01*
X212958Y265885D01*
X212991Y266102D01*
X213041Y266302D01*
X213091Y266485D01*
X213141Y266652D01*
X213191Y266802D01*
X213241Y266919D01*
X213291Y267035D01*
X213341Y267118D01*
X213391Y267185D01*
X213424Y267252D01*
X213458Y267285D01*
X213474Y267318D01*
X213708Y267552D01*
X213957Y267718D01*
X214224Y267835D01*
X214457Y267918D01*
X214674Y267968D01*
X214857Y267985D01*
X214924Y268002D01*
X215007D01*
X215357Y267968D01*
D02*
G37*
G36*
X329005Y264019D02*
X328988Y263719D01*
X328938Y263469D01*
X328855Y263236D01*
X328772Y263053D01*
X328688Y262920D01*
X328605Y262803D01*
X328555Y262736D01*
X328538Y262720D01*
X328355Y262570D01*
X328138Y262453D01*
X327938Y262386D01*
X327738Y262320D01*
X327555Y262286D01*
X327405Y262270D01*
X327272D01*
X326989Y262286D01*
X326722Y262336D01*
X326505Y262420D01*
X326322Y262503D01*
X326172Y262586D01*
X326072Y262670D01*
X326006Y262720D01*
X325989Y262736D01*
X325839Y262920D01*
X325722Y263136D01*
X325656Y263353D01*
X325589Y263553D01*
X325556Y263736D01*
X325539Y263886D01*
Y263986D01*
Y264003D01*
Y264019D01*
Y270218D01*
X329005D01*
Y264019D01*
D02*
G37*
G36*
X289748Y270368D02*
X289332Y270318D01*
X288932Y270251D01*
X288565Y270168D01*
X288215Y270068D01*
X287899Y269951D01*
X287615Y269818D01*
X287349Y269701D01*
X287115Y269568D01*
X286916Y269435D01*
X286749Y269318D01*
X286599Y269218D01*
X286499Y269135D01*
X286416Y269068D01*
X286366Y269018D01*
X286349Y269001D01*
X286099Y268735D01*
X285899Y268435D01*
X285716Y268135D01*
X285549Y267818D01*
X285416Y267485D01*
X285299Y267168D01*
X285216Y266852D01*
X285133Y266552D01*
X285083Y266269D01*
X285033Y266002D01*
X285016Y265752D01*
X284983Y265552D01*
Y265369D01*
X284966Y265252D01*
Y270384D01*
X290198D01*
X289748Y270368D01*
D02*
G37*
G36*
X290548Y267968D02*
X290865Y267902D01*
X291131Y267785D01*
X291348Y267668D01*
X291531Y267552D01*
X291664Y267435D01*
X291731Y267368D01*
X291764Y267335D01*
X291864Y267202D01*
X291964Y267052D01*
X292098Y266735D01*
X292197Y266385D01*
X292281Y266052D01*
X292314Y265735D01*
X292331Y265602D01*
Y265485D01*
X292348Y265385D01*
Y265319D01*
Y265269D01*
Y265252D01*
Y264952D01*
X292331Y264669D01*
X292297Y264403D01*
X292264Y264169D01*
X292214Y263953D01*
X292164Y263769D01*
X292114Y263586D01*
X292064Y263436D01*
X292014Y263303D01*
X291964Y263203D01*
X291914Y263103D01*
X291864Y263036D01*
X291831Y262969D01*
X291798Y262936D01*
X291781Y262903D01*
X291564Y262686D01*
X291298Y262520D01*
X291048Y262420D01*
X290798Y262336D01*
X290565Y262286D01*
X290381Y262270D01*
X290315Y262253D01*
X290215D01*
X289865Y262286D01*
X289565Y262353D01*
X289298Y262470D01*
X289065Y262586D01*
X288898Y262703D01*
X288765Y262819D01*
X288698Y262886D01*
X288665Y262920D01*
X288565Y263053D01*
X288482Y263203D01*
X288332Y263553D01*
X288232Y263903D01*
X288165Y264269D01*
X288132Y264602D01*
X288115Y264736D01*
Y264869D01*
X288099Y264969D01*
Y265052D01*
Y265102D01*
Y265119D01*
Y265402D01*
X288115Y265652D01*
X288149Y265885D01*
X288182Y266102D01*
X288232Y266302D01*
X288282Y266485D01*
X288332Y266652D01*
X288382Y266802D01*
X288432Y266919D01*
X288482Y267035D01*
X288532Y267118D01*
X288582Y267185D01*
X288615Y267252D01*
X288648Y267285D01*
X288665Y267318D01*
X288898Y267552D01*
X289148Y267718D01*
X289415Y267835D01*
X289648Y267918D01*
X289865Y267968D01*
X290048Y267985D01*
X290115Y268001D01*
X290198D01*
X290548Y267968D01*
D02*
G37*
%LPC*%
G36*
X311556Y321617D02*
X307629D01*
D01*
X311406D01*
X310956Y321601D01*
X310537Y321541D01*
X310177Y321467D01*
X309877Y321377D01*
X309742Y321332D01*
X309622Y321287D01*
X309533Y321242D01*
X309443Y321212D01*
X309383Y321182D01*
X309338Y321152D01*
X309308Y321137D01*
X309293D01*
X308993Y320942D01*
X308723Y320732D01*
X308514Y320522D01*
X308334Y320313D01*
X308199Y320133D01*
X308109Y319983D01*
X308079Y319923D01*
X308049Y319878D01*
X308034Y319863D01*
Y319848D01*
X307959Y319683D01*
X307899Y319503D01*
X307839Y319294D01*
X307794Y319084D01*
X307734Y318619D01*
X307674Y318170D01*
X307659Y317960D01*
X307644Y317765D01*
Y317585D01*
X307629Y317420D01*
Y309718D01*
D01*
Y309897D01*
X308933D01*
Y310931D01*
X309113Y310722D01*
X309308Y310527D01*
X309517Y310362D01*
X309712Y310227D01*
X309922Y310107D01*
X310132Y310017D01*
X310327Y309927D01*
X310507Y309867D01*
X310686Y309823D01*
X310851Y309778D01*
X311001Y309748D01*
X311121Y309733D01*
X311226D01*
X311316Y309718D01*
X311376D01*
D01*
X314987D01*
X311376D01*
X311780Y309748D01*
X312140Y309807D01*
X312470Y309897D01*
X312754Y309987D01*
X312994Y310092D01*
X313084Y310137D01*
X313159Y310182D01*
X313219Y310227D01*
X313264Y310242D01*
X313294Y310272D01*
X313309D01*
X313594Y310497D01*
X313848Y310752D01*
X314058Y311006D01*
X314238Y311261D01*
X314373Y311486D01*
X314433Y311576D01*
X314478Y311666D01*
X314508Y311741D01*
X314538Y311786D01*
X314553Y311816D01*
Y311831D01*
X314703Y312220D01*
X314808Y312595D01*
X314883Y312969D01*
X314928Y313314D01*
X314958Y313464D01*
Y313599D01*
X314972Y313719D01*
X314987Y313824D01*
Y314034D01*
X314972Y314348D01*
X314942Y314663D01*
X314897Y314948D01*
X314838Y315232D01*
X314763Y315502D01*
X314688Y315742D01*
X314598Y315967D01*
X314508Y316176D01*
X314433Y316356D01*
X314343Y316536D01*
X314268Y316671D01*
X314193Y316791D01*
X314133Y316896D01*
X314088Y316956D01*
X314058Y317001D01*
X314043Y317016D01*
X313864Y317226D01*
X313654Y317420D01*
X313444Y317585D01*
X313234Y317720D01*
X313009Y317840D01*
X312785Y317945D01*
X312560Y318020D01*
X312350Y318095D01*
X312155Y318140D01*
X311975Y318185D01*
X311810Y318200D01*
X311660Y318230D01*
X311541D01*
X311451Y318245D01*
X311376D01*
X311121Y318230D01*
X310881Y318200D01*
X310657Y318140D01*
X310432Y318080D01*
X310042Y317900D01*
X309862Y317795D01*
X309697Y317690D01*
X309562Y317600D01*
X309428Y317495D01*
X309323Y317405D01*
X309233Y317316D01*
X309158Y317255D01*
X309113Y317196D01*
X309083Y317166D01*
X309068Y317151D01*
Y317390D01*
Y317615D01*
Y317825D01*
X309083Y318005D01*
Y318170D01*
X309098Y318319D01*
Y318454D01*
X309113Y318559D01*
X309128Y318664D01*
Y318739D01*
X309158Y318859D01*
X309173Y318934D01*
Y318949D01*
X309248Y319204D01*
X309368Y319414D01*
X309473Y319608D01*
X309592Y319758D01*
X309712Y319878D01*
X309802Y319968D01*
X309862Y320028D01*
X309892Y320043D01*
X310117Y320178D01*
X310357Y320283D01*
X310611Y320343D01*
X310851Y320403D01*
X311076Y320433D01*
X311241Y320448D01*
X311406D01*
X311735Y320433D01*
X312020Y320388D01*
X312260Y320313D01*
X312470Y320238D01*
X312635Y320178D01*
X312754Y320103D01*
X312815Y320058D01*
X312844Y320043D01*
X312979Y319923D01*
X313084Y319773D01*
X313174Y319623D01*
X313234Y319459D01*
X313279Y319324D01*
X313309Y319219D01*
X313324Y319144D01*
Y319114D01*
X314703Y318919D01*
Y319159D01*
X314673Y319398D01*
X314628Y319608D01*
X314583Y319803D01*
X314508Y319983D01*
X314433Y320148D01*
X314358Y320298D01*
X314268Y320433D01*
X314193Y320552D01*
X314103Y320657D01*
X314028Y320747D01*
X313953Y320822D01*
X313908Y320867D01*
X313864Y320912D01*
X313834Y320927D01*
X313818Y320942D01*
X313639Y321062D01*
X313444Y321167D01*
X313054Y321332D01*
X312650Y321452D01*
X312260Y321526D01*
X312080Y321557D01*
X311930Y321586D01*
X311780Y321601D01*
X311646D01*
X311556Y321617D01*
D02*
G37*
G36*
X329224Y318424D02*
X321551D01*
Y309718D01*
D01*
Y318424D01*
X326377D01*
X326077Y318409D01*
X325792Y318379D01*
X325523Y318335D01*
X325298Y318290D01*
X325103Y318245D01*
X324953Y318200D01*
X324908Y318185D01*
X324863Y318170D01*
X324848Y318155D01*
X324833D01*
X324563Y318035D01*
X324279Y317885D01*
X324024Y317720D01*
X323799Y317570D01*
X323589Y317420D01*
X323439Y317300D01*
X323380Y317255D01*
X323335Y317226D01*
X323320Y317196D01*
X323305D01*
X323275Y317420D01*
X323230Y317615D01*
X323200Y317795D01*
X323140Y317945D01*
X323110Y318080D01*
X323065Y318170D01*
X323050Y318230D01*
X323035Y318245D01*
X321551D01*
X321641Y318065D01*
X321716Y317885D01*
X321776Y317720D01*
X321836Y317555D01*
X321866Y317435D01*
X321896Y317330D01*
X321911Y317271D01*
Y317241D01*
X321926Y317121D01*
X321941Y316986D01*
Y316821D01*
X321956Y316626D01*
X321971Y316222D01*
Y315802D01*
X321986Y315592D01*
Y315397D01*
Y315217D01*
Y315068D01*
Y314933D01*
Y314843D01*
Y314768D01*
Y314753D01*
Y312865D01*
Y312535D01*
X322001Y312265D01*
X322016Y312040D01*
Y311861D01*
X322031Y311726D01*
X322046Y311636D01*
X322061Y311576D01*
Y311561D01*
X322121Y311351D01*
X322181Y311171D01*
X322256Y311006D01*
X322331Y310872D01*
X322406Y310767D01*
X322465Y310677D01*
X322495Y310632D01*
X322510Y310617D01*
X322645Y310482D01*
X322795Y310347D01*
X322960Y310242D01*
X323125Y310152D01*
X323275Y310077D01*
X323395Y310017D01*
X323470Y309987D01*
X323484Y309972D01*
X323499D01*
X323769Y309882D01*
X324039Y309823D01*
X324339Y309778D01*
X324608Y309748D01*
X324848Y309733D01*
X324953Y309718D01*
X325223D01*
X325612Y309733D01*
X325972Y309762D01*
X326302Y309807D01*
X326572Y309867D01*
X326811Y309927D01*
X326901Y309942D01*
X326976Y309972D01*
X327036Y309987D01*
X327081Y310002D01*
X327111Y310017D01*
X327126D01*
X327411Y310137D01*
X327666Y310272D01*
X327875Y310407D01*
X328055Y310542D01*
X328190Y310677D01*
X328295Y310767D01*
X328355Y310826D01*
X328370Y310856D01*
X328520Y311066D01*
X328655Y311306D01*
X328760Y311546D01*
X328834Y311771D01*
X328909Y311966D01*
X328954Y312130D01*
X328969Y312190D01*
Y312235D01*
X328984Y312265D01*
Y312280D01*
X327606Y312475D01*
X327516Y312175D01*
X327396Y311905D01*
X327291Y311696D01*
X327171Y311531D01*
X327081Y311396D01*
X326991Y311306D01*
X326931Y311261D01*
X326916Y311246D01*
X326721Y311126D01*
X326482Y311036D01*
X326242Y310976D01*
X325987Y310931D01*
X325777Y310902D01*
X325597Y310886D01*
X325433D01*
X325058Y310902D01*
X324728Y310961D01*
X324459Y311036D01*
X324219Y311126D01*
X324039Y311216D01*
X323919Y311291D01*
X323844Y311351D01*
X323814Y311366D01*
X323679Y311516D01*
X323574Y311711D01*
X323515Y311905D01*
X323455Y312115D01*
X323425Y312295D01*
X323410Y312460D01*
Y312505D01*
Y312550D01*
Y312580D01*
Y312595D01*
Y312625D01*
Y312685D01*
Y312805D01*
X323425Y312865D01*
Y312910D01*
Y312940D01*
Y312955D01*
X323589Y312999D01*
X323769Y313059D01*
X324159Y313149D01*
X324579Y313239D01*
X324983Y313314D01*
X325178Y313344D01*
X325358Y313374D01*
X325523Y313389D01*
X325658Y313404D01*
X325777Y313434D01*
X325867D01*
X325927Y313449D01*
X325942D01*
X326242Y313494D01*
X326497Y313524D01*
X326707Y313554D01*
X326886Y313599D01*
X327021Y313614D01*
X327126Y313644D01*
X327186Y313659D01*
X327201D01*
X327411Y313719D01*
X327606Y313794D01*
X327771Y313869D01*
X327920Y313944D01*
X328040Y314018D01*
X328145Y314079D01*
X328205Y314109D01*
X328220Y314123D01*
X328385Y314243D01*
X328520Y314378D01*
X328655Y314513D01*
X328760Y314633D01*
X328834Y314753D01*
X328909Y314843D01*
X328939Y314903D01*
X328954Y314933D01*
X329044Y315128D01*
X329104Y315322D01*
X329164Y315517D01*
X329194Y315682D01*
X329209Y315832D01*
X329224Y315952D01*
Y316087D01*
Y316057D01*
X329209Y316252D01*
X329194Y316431D01*
X329104Y316761D01*
X328984Y317046D01*
X328849Y317300D01*
X328715Y317495D01*
X328610Y317645D01*
X328520Y317735D01*
X328505Y317750D01*
X328490Y317765D01*
X328340Y317885D01*
X328190Y317975D01*
X327845Y318140D01*
X327501Y318260D01*
X327156Y318335D01*
X326856Y318395D01*
X326721Y318409D01*
X326602D01*
X326512Y318424D01*
X329224D01*
D01*
D02*
G37*
G36*
X349590Y311876D02*
Y311861D01*
D01*
Y311876D01*
D02*
G37*
G36*
Y311471D02*
Y311456D01*
D01*
Y311471D01*
D02*
G37*
G36*
X319813Y318245D02*
X315272D01*
Y309718D01*
D01*
Y318245D01*
X318404D01*
Y313899D01*
X318389Y313569D01*
X318374Y313254D01*
X318329Y312985D01*
X318284Y312730D01*
X318254Y312535D01*
X318209Y312385D01*
X318194Y312325D01*
Y312280D01*
X318179Y312265D01*
Y312250D01*
X318104Y312070D01*
X318030Y311921D01*
X317940Y311786D01*
X317850Y311681D01*
X317775Y311591D01*
X317715Y311516D01*
X317670Y311486D01*
X317655Y311471D01*
X317505Y311381D01*
X317370Y311306D01*
X317220Y311261D01*
X317101Y311216D01*
X316981Y311201D01*
X316891Y311186D01*
X316816D01*
X316621Y311201D01*
X316426Y311231D01*
X316246Y311276D01*
X316096Y311336D01*
X315961Y311396D01*
X315857Y311441D01*
X315797Y311471D01*
X315767Y311486D01*
X315272Y310182D01*
X315557Y310032D01*
X315812Y309912D01*
X316066Y309837D01*
X316291Y309778D01*
X316471Y309748D01*
X316621Y309718D01*
X316741D01*
X316921Y309733D01*
X317085Y309762D01*
X317250Y309807D01*
X317385Y309852D01*
X317490Y309912D01*
X317580Y309957D01*
X317640Y309987D01*
X317655Y310002D01*
X317805Y310137D01*
X317970Y310302D01*
X318120Y310497D01*
X318254Y310707D01*
X318359Y310886D01*
X318464Y311036D01*
X318494Y311096D01*
X318524Y311141D01*
X318539Y311171D01*
Y309897D01*
X319813D01*
Y318245D01*
D02*
G37*
G36*
X296555D02*
X292014D01*
Y309718D01*
D01*
Y318245D01*
X295146D01*
Y313899D01*
X295131Y313569D01*
X295116Y313254D01*
X295071Y312985D01*
X295026Y312730D01*
X294996Y312535D01*
X294951Y312385D01*
X294936Y312325D01*
Y312280D01*
X294921Y312265D01*
Y312250D01*
X294846Y312070D01*
X294771Y311921D01*
X294681Y311786D01*
X294592Y311681D01*
X294517Y311591D01*
X294457Y311516D01*
X294412Y311486D01*
X294397Y311471D01*
X294247Y311381D01*
X294112Y311306D01*
X293962Y311261D01*
X293842Y311216D01*
X293722Y311201D01*
X293632Y311186D01*
X293557D01*
X293363Y311201D01*
X293168Y311231D01*
X292988Y311276D01*
X292838Y311336D01*
X292703Y311396D01*
X292598Y311441D01*
X292538Y311471D01*
X292508Y311486D01*
X292014Y310182D01*
X292299Y310032D01*
X292553Y309912D01*
X292808Y309837D01*
X293033Y309778D01*
X293213Y309748D01*
X293363Y309718D01*
X293482D01*
X293662Y309733D01*
X293827Y309762D01*
X293992Y309807D01*
X294127Y309852D01*
X294232Y309912D01*
X294322Y309957D01*
X294382Y309987D01*
X294397Y310002D01*
X294547Y310137D01*
X294711Y310302D01*
X294861Y310497D01*
X294996Y310707D01*
X295101Y310886D01*
X295206Y311036D01*
X295236Y311096D01*
X295266Y311141D01*
X295281Y311171D01*
Y309897D01*
X296555D01*
Y318245D01*
D02*
G37*
G36*
X349590Y310242D02*
D01*
D01*
D01*
D02*
G37*
G36*
Y310182D02*
D01*
D01*
D01*
D02*
G37*
G36*
Y309897D02*
D01*
D01*
D01*
D02*
G37*
G36*
D02*
D01*
D01*
D01*
D02*
G37*
G36*
Y309807D02*
D01*
D01*
D01*
D02*
G37*
G36*
X311316Y309718D02*
X310577D01*
X311316D01*
D01*
D02*
G37*
G36*
X305966Y318424D02*
X298278D01*
Y314063D01*
X298293Y313689D01*
X298323Y313329D01*
X298383Y312999D01*
X298443Y312685D01*
X298518Y312400D01*
X298608Y312145D01*
X298713Y311905D01*
X298803Y311681D01*
X298908Y311486D01*
X299012Y311321D01*
X299102Y311186D01*
X299177Y311066D01*
X299237Y310976D01*
X299297Y310916D01*
X299327Y310872D01*
X299342Y310856D01*
X299552Y310662D01*
X299762Y310482D01*
X299986Y310332D01*
X300226Y310197D01*
X300451Y310092D01*
X300676Y310002D01*
X300901Y309912D01*
X301110Y309852D01*
X301305Y309807D01*
X301500Y309778D01*
X301665Y309748D01*
X301800Y309733D01*
X301920Y309718D01*
X302085D01*
X302399Y309733D01*
X302699Y309762D01*
X302984Y309823D01*
X303253Y309897D01*
X303493Y309987D01*
X303733Y310092D01*
X303943Y310197D01*
X304138Y310302D01*
X304302Y310407D01*
X304452Y310512D01*
X304587Y310617D01*
X304692Y310707D01*
X304782Y310782D01*
X304842Y310842D01*
X304872Y310872D01*
X304887Y310886D01*
X305082Y311111D01*
X305247Y311351D01*
X305381Y311621D01*
X305516Y311891D01*
X305621Y312160D01*
X305696Y312430D01*
X305771Y312700D01*
X305831Y312955D01*
X305876Y313194D01*
X305906Y313419D01*
X305936Y313629D01*
X305951Y313809D01*
Y313944D01*
X305966Y314063D01*
Y314153D01*
X305951Y314528D01*
X305921Y314873D01*
X305861Y315187D01*
X305801Y315502D01*
X305726Y315772D01*
X305636Y316042D01*
X305531Y316266D01*
X305426Y316491D01*
X305336Y316671D01*
X305231Y316836D01*
X305142Y316971D01*
X305067Y317091D01*
X305007Y317181D01*
X304947Y317241D01*
X304917Y317285D01*
X304902Y317300D01*
X304692Y317495D01*
X304467Y317675D01*
X304228Y317825D01*
X303988Y317945D01*
X303748Y318065D01*
X303508Y318155D01*
X303268Y318230D01*
X303044Y318290D01*
X302834Y318335D01*
X302624Y318365D01*
X302444Y318395D01*
X302294Y318409D01*
X302174D01*
X302069Y318424D01*
X305966D01*
D01*
D02*
G37*
G36*
X298278Y313284D02*
Y309718D01*
D01*
Y313284D01*
D02*
G37*
G36*
X349590Y318439D02*
X339385D01*
X344165D01*
X343835Y318424D01*
X343521Y318395D01*
X343221Y318349D01*
X342936Y318290D01*
X342667Y318215D01*
X342412Y318125D01*
X342187Y318050D01*
X341962Y317945D01*
X341782Y317855D01*
X341618Y317780D01*
X341468Y317690D01*
X341348Y317615D01*
X341243Y317555D01*
X341183Y317510D01*
X341138Y317480D01*
X341123Y317465D01*
X340898Y317271D01*
X340688Y317061D01*
X340494Y316836D01*
X340329Y316596D01*
X340164Y316356D01*
X340029Y316132D01*
X339894Y315892D01*
X339789Y315667D01*
X339684Y315442D01*
X339609Y315247D01*
X339534Y315068D01*
X339475Y314918D01*
X339445Y314783D01*
X339415Y314678D01*
X339385Y314618D01*
Y306525D01*
Y314603D01*
X340913Y314213D01*
X340988Y314483D01*
X341063Y314723D01*
X341153Y314948D01*
X341243Y315173D01*
X341348Y315367D01*
X341438Y315547D01*
X341543Y315712D01*
X341647Y315847D01*
X341737Y315982D01*
X341827Y316087D01*
X341917Y316192D01*
X341977Y316266D01*
X342037Y316326D01*
X342082Y316371D01*
X342112Y316386D01*
X342127Y316401D01*
X342292Y316536D01*
X342472Y316641D01*
X342652Y316746D01*
X342846Y316821D01*
X343206Y316956D01*
X343551Y317046D01*
X343701Y317076D01*
X343851Y317091D01*
X343970Y317106D01*
X344090Y317121D01*
X344180Y317136D01*
X344300D01*
X344690Y317106D01*
X345049Y317046D01*
X345379Y316971D01*
X345679Y316866D01*
X345919Y316761D01*
X346023Y316716D01*
X346098Y316686D01*
X346173Y316641D01*
X346218Y316626D01*
X346248Y316596D01*
X346263D01*
X346578Y316371D01*
X346848Y316117D01*
X347072Y315847D01*
X347267Y315577D01*
X347417Y315337D01*
X347462Y315232D01*
X347507Y315142D01*
X347552Y315068D01*
X347582Y315008D01*
X347597Y314978D01*
Y314963D01*
X347732Y314543D01*
X347837Y314093D01*
X347912Y313674D01*
X347957Y313269D01*
X347987Y313089D01*
Y312925D01*
X348002Y312775D01*
X348017Y312640D01*
Y312535D01*
Y312460D01*
Y312415D01*
Y312400D01*
X348002Y311980D01*
X347957Y311576D01*
X347897Y311201D01*
X347837Y310856D01*
X347807Y310722D01*
X347777Y310587D01*
X347747Y310467D01*
X347717Y310362D01*
X347687Y310287D01*
X347672Y310227D01*
X347657Y310197D01*
Y310182D01*
X347507Y309792D01*
X347312Y309463D01*
X347102Y309163D01*
X346893Y308923D01*
X346713Y308729D01*
X346563Y308594D01*
X346503Y308534D01*
X346458Y308504D01*
X346428Y308474D01*
X346413D01*
X346233Y308354D01*
X346053Y308264D01*
X345679Y308099D01*
X345304Y307979D01*
X344959Y307904D01*
X344795Y307889D01*
X344645Y307859D01*
X344510Y307844D01*
X344405D01*
X344315Y307829D01*
X344180D01*
X343761Y307859D01*
X343386Y307919D01*
X343056Y308009D01*
X342771Y308114D01*
X342547Y308234D01*
X342457Y308279D01*
X342382Y308324D01*
X342322Y308354D01*
X342277Y308384D01*
X342262Y308414D01*
X342247D01*
X342112Y308534D01*
X341977Y308654D01*
X341737Y308938D01*
X341543Y309238D01*
X341378Y309538D01*
X341243Y309807D01*
X341198Y309927D01*
X341153Y310032D01*
X341123Y310122D01*
X341093Y310182D01*
X341078Y310227D01*
Y310242D01*
X339580Y309882D01*
X339669Y309598D01*
X339789Y309313D01*
X339909Y309058D01*
X340044Y308818D01*
X340179Y308609D01*
X340314Y308399D01*
X340449Y308219D01*
X340583Y308054D01*
X340718Y307904D01*
X340838Y307769D01*
X340958Y307665D01*
X341048Y307575D01*
X341123Y307500D01*
X341198Y307455D01*
X341228Y307425D01*
X341243Y307410D01*
X341468Y307260D01*
X341707Y307110D01*
X341947Y307005D01*
X342187Y306900D01*
X342442Y306810D01*
X342682Y306735D01*
X343131Y306630D01*
X343341Y306600D01*
X343536Y306570D01*
X343716Y306556D01*
X343866Y306541D01*
X343985Y306525D01*
X339385D01*
X344435D01*
X344705Y306556D01*
X345229Y306630D01*
X345709Y306750D01*
X345919Y306810D01*
X346128Y306870D01*
X346308Y306945D01*
X346473Y307005D01*
X346608Y307065D01*
X346728Y307125D01*
X346818Y307170D01*
X346893Y307200D01*
X346938Y307215D01*
X346953Y307230D01*
X347177Y307365D01*
X347402Y307515D01*
X347792Y307844D01*
X348136Y308174D01*
X348406Y308504D01*
X348526Y308668D01*
X348631Y308803D01*
X348721Y308938D01*
X348781Y309043D01*
X348841Y309133D01*
X348886Y309208D01*
X348901Y309253D01*
X348916Y309268D01*
X349036Y309523D01*
X349141Y309792D01*
X349305Y310317D01*
X349425Y310842D01*
X349470Y311096D01*
X349500Y311336D01*
X349530Y311561D01*
X349560Y311756D01*
X349575Y311936D01*
Y312100D01*
X349590Y312220D01*
Y312400D01*
X349560Y312999D01*
X349500Y313584D01*
X349455Y313839D01*
X349395Y314093D01*
X349350Y314333D01*
X349290Y314558D01*
X349230Y314768D01*
X349185Y314948D01*
X349126Y315098D01*
X349081Y315232D01*
X349051Y315337D01*
X349021Y315427D01*
X348991Y315472D01*
Y315487D01*
X348871Y315742D01*
X348736Y315997D01*
X348601Y316222D01*
X348451Y316431D01*
X348301Y316641D01*
X348152Y316821D01*
X348017Y316986D01*
X347867Y317121D01*
X347732Y317255D01*
X347612Y317375D01*
X347492Y317465D01*
X347402Y317540D01*
X347312Y317615D01*
X347252Y317660D01*
X347222Y317675D01*
X347207Y317690D01*
X346982Y317825D01*
X346743Y317930D01*
X346488Y318035D01*
X346233Y318125D01*
X345724Y318260D01*
X345244Y318349D01*
X345019Y318379D01*
X344825Y318395D01*
X344630Y318409D01*
X344480Y318424D01*
X344345Y318439D01*
X349590D01*
D01*
D02*
G37*
G36*
X337691Y318245D02*
X330918D01*
Y312969D01*
X330933Y312535D01*
X330962Y312160D01*
X331007Y311831D01*
X331067Y311576D01*
X331127Y311366D01*
X331172Y311216D01*
X331202Y311126D01*
X331217Y311096D01*
X331352Y310872D01*
X331502Y310662D01*
X331667Y310497D01*
X331817Y310347D01*
X331967Y310242D01*
X332086Y310152D01*
X332176Y310107D01*
X332191Y310092D01*
X332206D01*
X332461Y309972D01*
X332746Y309882D01*
X333001Y309807D01*
X333255Y309762D01*
X333465Y309733D01*
X333645Y309718D01*
X333795D01*
X334065Y309733D01*
X334334Y309762D01*
X334589Y309823D01*
X334829Y309897D01*
X335039Y309987D01*
X335248Y310077D01*
X335428Y310182D01*
X335608Y310287D01*
X335758Y310407D01*
X335893Y310512D01*
X336013Y310602D01*
X336103Y310692D01*
X336178Y310767D01*
X336238Y310826D01*
X336268Y310856D01*
X336283Y310872D01*
Y306720D01*
X337691D01*
Y318245D01*
D02*
G37*
%LPD*%
G36*
X311421Y317061D02*
X311601Y317046D01*
X311915Y316956D01*
X312200Y316836D01*
X312440Y316701D01*
X312635Y316566D01*
X312770Y316446D01*
X312859Y316356D01*
X312874Y316341D01*
X312889Y316326D01*
X313009Y316176D01*
X313099Y316012D01*
X313264Y315637D01*
X313369Y315232D01*
X313459Y314843D01*
X313474Y314663D01*
X313504Y314483D01*
X313519Y314333D01*
Y314198D01*
X313534Y314079D01*
Y314004D01*
Y313944D01*
Y313929D01*
X313519Y313659D01*
X313504Y313404D01*
X313474Y313164D01*
X313429Y312940D01*
X313384Y312745D01*
X313324Y312550D01*
X313264Y312385D01*
X313204Y312235D01*
X313144Y312100D01*
X313084Y311980D01*
X313024Y311891D01*
X312979Y311801D01*
X312934Y311741D01*
X312904Y311696D01*
X312874Y311681D01*
Y311666D01*
X312754Y311531D01*
X312620Y311411D01*
X312485Y311306D01*
X312350Y311216D01*
X312080Y311081D01*
X311825Y310976D01*
X311601Y310931D01*
X311421Y310902D01*
X311361Y310886D01*
X311271D01*
X311091Y310902D01*
X310926Y310916D01*
X310611Y311006D01*
X310327Y311126D01*
X310087Y311276D01*
X309907Y311426D01*
X309757Y311546D01*
X309667Y311636D01*
X309637Y311651D01*
Y311666D01*
X309517Y311816D01*
X309413Y311995D01*
X309233Y312355D01*
X309113Y312745D01*
X309038Y313104D01*
X309008Y313284D01*
X308978Y313449D01*
X308963Y313599D01*
Y313719D01*
X308948Y313824D01*
Y313899D01*
Y313959D01*
Y313974D01*
Y314258D01*
X308978Y314528D01*
X309008Y314783D01*
X309053Y315023D01*
X309098Y315232D01*
X309158Y315427D01*
X309218Y315592D01*
X309278Y315757D01*
X309338Y315892D01*
X309398Y316012D01*
X309458Y316102D01*
X309503Y316176D01*
X309548Y316252D01*
X309578Y316296D01*
X309592Y316311D01*
X309608Y316326D01*
X309727Y316461D01*
X309862Y316566D01*
X309997Y316671D01*
X310147Y316761D01*
X310417Y316896D01*
X310672Y316986D01*
X310896Y317031D01*
X311001Y317046D01*
X311076Y317061D01*
X311151Y317076D01*
X311241D01*
X311421Y317061D01*
D02*
G37*
G36*
X326317Y317300D02*
X326572Y317255D01*
X326796Y317196D01*
X326976Y317121D01*
X327111Y317061D01*
X327216Y317001D01*
X327276Y316956D01*
X327291Y316941D01*
X327426Y316791D01*
X327531Y316641D01*
X327606Y316476D01*
X327651Y316341D01*
X327681Y316206D01*
X327710Y316102D01*
Y316042D01*
Y316012D01*
X327696Y315877D01*
X327681Y315742D01*
X327651Y315637D01*
X327606Y315532D01*
X327576Y315457D01*
X327546Y315382D01*
X327531Y315352D01*
X327516Y315337D01*
X327441Y315232D01*
X327351Y315142D01*
X327171Y314993D01*
X327081Y314948D01*
X327021Y314918D01*
X326976Y314888D01*
X326961D01*
X326811Y314828D01*
X326617Y314768D01*
X326407Y314723D01*
X326212Y314678D01*
X326032Y314648D01*
X325867Y314618D01*
X325807D01*
X325777Y314603D01*
X325732D01*
X325448Y314558D01*
X325193Y314513D01*
X324953Y314468D01*
X324728Y314423D01*
X324519Y314378D01*
X324324Y314333D01*
X324159Y314288D01*
X324009Y314243D01*
X323874Y314213D01*
X323754Y314168D01*
X323649Y314138D01*
X323574Y314109D01*
X323499Y314093D01*
X323455Y314079D01*
X323439Y314063D01*
X323425D01*
Y314588D01*
X323439Y314918D01*
X323455Y315202D01*
X323499Y315442D01*
X323530Y315637D01*
X323574Y315802D01*
X323619Y315907D01*
X323634Y315967D01*
X323649Y315997D01*
X323769Y316222D01*
X323919Y316401D01*
X324084Y316581D01*
X324234Y316716D01*
X324369Y316821D01*
X324489Y316911D01*
X324563Y316956D01*
X324579Y316971D01*
X324594D01*
X324833Y317091D01*
X325088Y317166D01*
X325328Y317226D01*
X325553Y317271D01*
X325747Y317300D01*
X325897Y317316D01*
X326032D01*
X326317Y317300D01*
D02*
G37*
G36*
X301725Y318409D02*
X301470Y318395D01*
X301005Y318319D01*
X300796Y318260D01*
X300601Y318200D01*
X300421Y318140D01*
X300256Y318065D01*
X300106Y318005D01*
X299986Y317945D01*
X299867Y317885D01*
X299777Y317825D01*
X299702Y317780D01*
X299657Y317750D01*
X299627Y317720D01*
X299612D01*
X299297Y317435D01*
X299027Y317106D01*
X298803Y316776D01*
X298623Y316461D01*
X298503Y316176D01*
X298443Y316042D01*
X298413Y315937D01*
X298368Y315847D01*
X298353Y315787D01*
X298338Y315742D01*
Y315727D01*
X299807Y315532D01*
X299926Y315847D01*
X300076Y316117D01*
X300226Y316356D01*
X300361Y316536D01*
X300481Y316671D01*
X300586Y316776D01*
X300646Y316836D01*
X300676Y316851D01*
X300886Y316986D01*
X301110Y317091D01*
X301335Y317151D01*
X301530Y317211D01*
X301725Y317241D01*
X301860Y317255D01*
X301995D01*
X302189Y317241D01*
X302369Y317226D01*
X302714Y317136D01*
X303014Y317031D01*
X303268Y316896D01*
X303463Y316761D01*
X303628Y316641D01*
X303673Y316596D01*
X303718Y316566D01*
X303733Y316551D01*
X303748Y316536D01*
X303868Y316386D01*
X303973Y316236D01*
X304153Y315907D01*
X304287Y315562D01*
X304392Y315217D01*
X304452Y314918D01*
X304467Y314783D01*
X304482Y314663D01*
X304497Y314573D01*
X304512Y314498D01*
Y314453D01*
Y314438D01*
X298293D01*
X298278Y314273D01*
Y318424D01*
X301995D01*
X301725Y318409D01*
D02*
G37*
G36*
X304392Y312880D02*
X304302Y312550D01*
X304182Y312250D01*
X304048Y311995D01*
X303928Y311801D01*
X303823Y311666D01*
X303748Y311576D01*
X303718Y311546D01*
X303583Y311426D01*
X303448Y311321D01*
X303179Y311171D01*
X302894Y311051D01*
X302639Y310961D01*
X302414Y310916D01*
X302309Y310902D01*
X302234D01*
X302159Y310886D01*
X302069D01*
X301875Y310902D01*
X301680Y310916D01*
X301335Y311021D01*
X301035Y311141D01*
X300781Y311291D01*
X300586Y311456D01*
X300436Y311576D01*
X300391Y311636D01*
X300346Y311681D01*
X300316Y311696D01*
Y311711D01*
X300166Y311921D01*
X300046Y312175D01*
X299956Y312430D01*
X299881Y312685D01*
X299837Y312910D01*
X299807Y313015D01*
Y313104D01*
X299792Y313164D01*
X299777Y313224D01*
Y313254D01*
Y313269D01*
X304437D01*
X304392Y312880D01*
D02*
G37*
G36*
X336283Y313689D02*
X336268Y313344D01*
X336253Y313029D01*
X336208Y312760D01*
X336163Y312550D01*
X336133Y312370D01*
X336088Y312250D01*
X336073Y312175D01*
X336058Y312145D01*
X335953Y311950D01*
X335833Y311771D01*
X335698Y311621D01*
X335563Y311501D01*
X335458Y311396D01*
X335353Y311321D01*
X335294Y311276D01*
X335263Y311261D01*
X335054Y311156D01*
X334844Y311066D01*
X334649Y311006D01*
X334469Y310976D01*
X334319Y310946D01*
X334199Y310931D01*
X334095D01*
X333795Y310946D01*
X333540Y311006D01*
X333315Y311081D01*
X333120Y311171D01*
X332986Y311276D01*
X332881Y311351D01*
X332806Y311411D01*
X332791Y311426D01*
X332641Y311636D01*
X332521Y311876D01*
X332446Y312130D01*
X332386Y312370D01*
X332356Y312610D01*
X332341Y312715D01*
X332326Y312790D01*
Y312865D01*
Y312925D01*
Y312955D01*
Y312969D01*
Y318245D01*
X336283D01*
Y313689D01*
D02*
G37*
%LPC*%
G36*
X571489Y267302D02*
Y262033D01*
X557368D01*
Y267302D01*
X571489D01*
X555473D01*
Y254639D01*
X557368D01*
Y259909D01*
X571489D01*
Y254639D01*
D01*
D01*
Y267302D01*
D02*
G37*
G36*
X571760Y252306D02*
X555473D01*
Y250182D01*
X564720D01*
X565262Y250161D01*
X565762Y250140D01*
X566220Y250099D01*
X566637Y250036D01*
X567011Y249953D01*
X567345Y249869D01*
X567636Y249786D01*
X567886Y249682D01*
X568115Y249599D01*
X568303Y249494D01*
X568469Y249411D01*
X568594Y249349D01*
X568678Y249265D01*
X568740Y249224D01*
X568782Y249203D01*
X568803Y249182D01*
X568990Y248974D01*
X569136Y248745D01*
X569282Y248495D01*
X569407Y248245D01*
X569594Y247682D01*
X569719Y247141D01*
X569761Y246891D01*
X569781Y246641D01*
X569802Y246412D01*
X569823Y246225D01*
X569844Y246079D01*
Y245850D01*
X569823Y245350D01*
X569761Y244912D01*
X569677Y244517D01*
X569573Y244183D01*
X569490Y243913D01*
X569407Y243704D01*
X569344Y243579D01*
X569323Y243559D01*
Y243538D01*
X569094Y243204D01*
X568865Y242934D01*
X568594Y242705D01*
X568365Y242517D01*
X568136Y242371D01*
X567970Y242288D01*
X567845Y242226D01*
X567824Y242205D01*
X567803D01*
X567594Y242142D01*
X567386Y242080D01*
X566907Y241996D01*
X566386Y241913D01*
X565887Y241871D01*
X565658D01*
X565428Y241851D01*
X565241D01*
X565053Y241830D01*
X564929D01*
X564804D01*
X564741D01*
X564720D01*
X555473D01*
Y239705D01*
X565199D01*
X565637Y239726D01*
X566053Y239768D01*
X566449Y239809D01*
X566803Y239851D01*
X567136Y239893D01*
X567428Y239955D01*
X567699Y240018D01*
X567949Y240060D01*
X568157Y240122D01*
X568344Y240164D01*
X568490Y240226D01*
X568615Y240247D01*
X568698Y240289D01*
X568740Y240309D01*
X568761D01*
X569282Y240580D01*
X569719Y240893D01*
X570115Y241226D01*
X570427Y241559D01*
X570677Y241871D01*
X570844Y242121D01*
X570906Y242205D01*
X570948Y242288D01*
X570989Y242330D01*
Y242351D01*
X571239Y242913D01*
X571427Y243538D01*
X571573Y244142D01*
X571656Y244725D01*
X571698Y244996D01*
X571718Y245246D01*
X571739Y245475D01*
Y245662D01*
X571760Y245829D01*
Y252306D01*
D02*
G37*
G36*
Y236956D02*
X555202D01*
X563075D01*
X562637Y236914D01*
X561825Y236810D01*
X561450Y236748D01*
X561096Y236665D01*
X560763Y236581D01*
X560471Y236498D01*
X560201Y236394D01*
X559951Y236310D01*
X559742Y236227D01*
X559555Y236165D01*
X559409Y236102D01*
X559305Y236061D01*
X559243Y236040D01*
X559222Y236019D01*
X558555Y235623D01*
X558243Y235415D01*
X557951Y235207D01*
X557701Y234977D01*
X557451Y234748D01*
X557222Y234519D01*
X557035Y234311D01*
X556847Y234103D01*
X556702Y233915D01*
X556576Y233728D01*
X556452Y233582D01*
X556368Y233457D01*
X556306Y233374D01*
X556285Y233311D01*
X556264Y233290D01*
X556077Y232957D01*
X555910Y232603D01*
X555764Y232270D01*
X555639Y231916D01*
X555452Y231249D01*
X555327Y230645D01*
X555285Y230354D01*
X555264Y230104D01*
X555243Y229875D01*
X555223Y229687D01*
X555202Y229520D01*
Y229312D01*
X555223Y228687D01*
X555306Y228104D01*
X555410Y227542D01*
X555556Y227021D01*
X555723Y226521D01*
X555910Y226063D01*
X556118Y225646D01*
X556327Y225272D01*
X556556Y224938D01*
X556743Y224626D01*
X556951Y224376D01*
X557118Y224168D01*
X557264Y224001D01*
X557368Y223876D01*
X557451Y223793D01*
X557472Y223772D01*
X557910Y223397D01*
X558389Y223064D01*
X558888Y222793D01*
X559388Y222543D01*
X559909Y222335D01*
X560430Y222168D01*
X560930Y222022D01*
X561429Y221918D01*
X561888Y221835D01*
X562325Y221752D01*
X562700Y221710D01*
X563033Y221689D01*
X563325Y221668D01*
X563533Y221647D01*
X563700D01*
X564095Y221668D01*
X564470Y221689D01*
X565220Y221793D01*
X565887Y221939D01*
X566199Y222022D01*
X566491Y222106D01*
X566741Y222189D01*
X566991Y222272D01*
X567199Y222356D01*
X567365Y222418D01*
X567511Y222481D01*
X567615Y222522D01*
X567678Y222564D01*
X567699D01*
X568365Y222939D01*
X568969Y223376D01*
X569219Y223584D01*
X569469Y223814D01*
X569698Y224043D01*
X569907Y224251D01*
X570073Y224459D01*
X570240Y224647D01*
X570365Y224813D01*
X570469Y224959D01*
X570573Y225084D01*
X570635Y225167D01*
X570656Y225230D01*
X570677Y225251D01*
X570864Y225584D01*
X571031Y225938D01*
X571177Y226271D01*
X571302Y226625D01*
X571489Y227313D01*
X571614Y227938D01*
X571677Y228229D01*
X571698Y228479D01*
X571718Y228708D01*
X571739Y228916D01*
X571760Y229062D01*
Y229291D01*
X571739Y229687D01*
X571718Y230062D01*
X571614Y230770D01*
X571448Y231437D01*
X571364Y231728D01*
X571260Y232020D01*
X571177Y232270D01*
X571094Y232499D01*
X571010Y232686D01*
X570927Y232853D01*
X570864Y232978D01*
X570823Y233082D01*
X570781Y233145D01*
Y233165D01*
X570594Y233499D01*
X570386Y233811D01*
X569907Y234373D01*
X569427Y234853D01*
X569198Y235061D01*
X568969Y235248D01*
X568740Y235415D01*
X568553Y235561D01*
X568365Y235665D01*
X568199Y235769D01*
X568074Y235852D01*
X567970Y235915D01*
X567907Y235935D01*
X567886Y235956D01*
X567511Y236123D01*
X567136Y236290D01*
X566386Y236539D01*
X565658Y236706D01*
X565303Y236769D01*
X564970Y236831D01*
X564658Y236873D01*
X564387Y236914D01*
X564137Y236935D01*
X563929D01*
X563741Y236956D01*
X571760D01*
D01*
D02*
G37*
%LPD*%
G36*
Y246037D02*
X571739Y246454D01*
X571718Y246870D01*
X571677Y247245D01*
X571614Y247599D01*
X571552Y247932D01*
X571489Y248224D01*
X571406Y248516D01*
X571323Y248766D01*
X571239Y248995D01*
X571156Y249203D01*
X571094Y249370D01*
X571031Y249515D01*
X570969Y249620D01*
X570927Y249703D01*
X570885Y249744D01*
Y249765D01*
X570719Y250015D01*
X570531Y250265D01*
X570136Y250682D01*
X569761Y251015D01*
X569386Y251286D01*
X569073Y251494D01*
X568927Y251577D01*
X568803Y251640D01*
X568719Y251681D01*
X568636Y251723D01*
X568594Y251744D01*
X568573D01*
X568303Y251848D01*
X568011Y251931D01*
X567386Y252077D01*
X566741Y252160D01*
X566116Y252244D01*
X565845Y252265D01*
X565574Y252285D01*
X565345D01*
X565137Y252306D01*
X571760D01*
Y246037D01*
D02*
G37*
G36*
X564075Y234748D02*
X564595Y234707D01*
X565095Y234623D01*
X565553Y234519D01*
X565991Y234415D01*
X566366Y234269D01*
X566741Y234144D01*
X567053Y233999D01*
X567345Y233853D01*
X567594Y233707D01*
X567803Y233561D01*
X567970Y233457D01*
X568115Y233353D01*
X568199Y233270D01*
X568261Y233228D01*
X568282Y233207D01*
X568573Y232915D01*
X568823Y232603D01*
X569053Y232270D01*
X569240Y231936D01*
X569407Y231603D01*
X569532Y231291D01*
X569656Y230958D01*
X569740Y230666D01*
X569802Y230374D01*
X569865Y230104D01*
X569907Y229875D01*
X569927Y229666D01*
Y229500D01*
X569948Y229375D01*
Y229271D01*
X569927Y228833D01*
X569886Y228437D01*
X569802Y228042D01*
X569698Y227688D01*
X569573Y227334D01*
X569427Y227021D01*
X569282Y226709D01*
X569115Y226459D01*
X568969Y226209D01*
X568823Y226001D01*
X568678Y225813D01*
X568553Y225667D01*
X568448Y225542D01*
X568365Y225438D01*
X568324Y225397D01*
X568303Y225376D01*
X567970Y225105D01*
X567636Y224876D01*
X567261Y224668D01*
X566886Y224480D01*
X566511Y224334D01*
X566137Y224209D01*
X565762Y224105D01*
X565387Y224022D01*
X565053Y223959D01*
X564741Y223918D01*
X564470Y223876D01*
X564220Y223855D01*
X564012D01*
X563866Y223834D01*
X563783D01*
X563741D01*
X563096Y223855D01*
X562492Y223897D01*
X561929Y223980D01*
X561409Y224084D01*
X560950Y224209D01*
X560534Y224334D01*
X560159Y224480D01*
X559826Y224647D01*
X559534Y224792D01*
X559284Y224938D01*
X559055Y225063D01*
X558888Y225188D01*
X558764Y225292D01*
X558659Y225376D01*
X558618Y225417D01*
X558597Y225438D01*
X558326Y225751D01*
X558076Y226063D01*
X557868Y226396D01*
X557701Y226730D01*
X557535Y227063D01*
X557410Y227375D01*
X557305Y227688D01*
X557222Y227979D01*
X557160Y228271D01*
X557118Y228521D01*
X557076Y228750D01*
X557056Y228937D01*
X557035Y229104D01*
Y229312D01*
X557076Y229895D01*
X557160Y230437D01*
X557285Y230916D01*
X557430Y231332D01*
X557514Y231520D01*
X557597Y231687D01*
X557660Y231832D01*
X557722Y231936D01*
X557764Y232041D01*
X557805Y232103D01*
X557847Y232145D01*
Y232166D01*
X558180Y232624D01*
X558534Y232999D01*
X558909Y233332D01*
X559263Y233603D01*
X559597Y233832D01*
X559742Y233915D01*
X559846Y233978D01*
X559951Y234040D01*
X560034Y234082D01*
X560076Y234103D01*
X560097D01*
X560659Y234332D01*
X561242Y234498D01*
X561825Y234603D01*
X562346Y234686D01*
X562596Y234707D01*
X562825Y234727D01*
X563012Y234748D01*
X563179Y234769D01*
X563325D01*
X563429D01*
X563491D01*
X563512D01*
X564075Y234748D01*
D02*
G37*
%LPC*%
G36*
X583339Y102219D02*
D01*
Y99229D01*
X583331Y99437D01*
X583323Y99637D01*
X583306Y99812D01*
X583281Y99962D01*
X583264Y100087D01*
X583256Y100137D01*
X583248Y100178D01*
X583239Y100212D01*
Y100237D01*
X583231Y100245D01*
Y100253D01*
X583189Y100412D01*
X583139Y100562D01*
X583081Y100695D01*
X583031Y100803D01*
X582989Y100895D01*
X582948Y100961D01*
X582923Y101003D01*
X582915Y101020D01*
X582823Y101136D01*
X582731Y101253D01*
X582631Y101353D01*
X582540Y101436D01*
X582456Y101511D01*
X582390Y101561D01*
X582348Y101603D01*
X582331Y101611D01*
X582190Y101703D01*
X582031Y101795D01*
X581873Y101869D01*
X581723Y101928D01*
X581598Y101978D01*
X581540Y101994D01*
X581490Y102011D01*
X581456Y102028D01*
X581423Y102036D01*
X581407Y102044D01*
X581398D01*
X581182Y102103D01*
X580957Y102144D01*
X580740Y102178D01*
X580540Y102194D01*
X580448Y102203D01*
X580365Y102211D01*
X580290D01*
X580232Y102219D01*
X580107D01*
X579799Y102211D01*
X579507Y102178D01*
X579374Y102161D01*
X579249Y102136D01*
X579132Y102111D01*
X579024Y102094D01*
X578924Y102070D01*
X578840Y102044D01*
X578765Y102020D01*
X578699Y102003D01*
X578649Y101986D01*
X578616Y101969D01*
X578591Y101961D01*
X578582D01*
X578341Y101861D01*
X578132Y101736D01*
X577941Y101611D01*
X577782Y101486D01*
X577716Y101428D01*
X577658Y101378D01*
X577607Y101328D01*
X577566Y101286D01*
X577533Y101253D01*
X577508Y101228D01*
X577499Y101211D01*
X577491Y101203D01*
X577374Y101053D01*
X577274Y100895D01*
X577199Y100737D01*
X577133Y100587D01*
X577091Y100462D01*
X577074Y100403D01*
X577058Y100353D01*
X577049Y100320D01*
X577041Y100287D01*
X577033Y100270D01*
Y100262D01*
X576999Y100103D01*
X576974Y99920D01*
X576958Y99728D01*
X576941Y99545D01*
Y99387D01*
X576933Y99312D01*
Y96921D01*
X583339D01*
Y102219D01*
D02*
G37*
G36*
X580240Y95829D02*
X579973D01*
X579799Y95813D01*
X579474Y95771D01*
X579324Y95746D01*
X579182Y95713D01*
X579049Y95680D01*
X578932Y95646D01*
X578824Y95604D01*
X578724Y95571D01*
X578641Y95538D01*
X578566Y95513D01*
X578507Y95488D01*
X578466Y95471D01*
X578441Y95463D01*
X578432Y95455D01*
X578166Y95296D01*
X578041Y95213D01*
X577924Y95130D01*
X577824Y95038D01*
X577724Y94946D01*
X577632Y94855D01*
X577557Y94771D01*
X577482Y94688D01*
X577424Y94613D01*
X577374Y94538D01*
X577324Y94480D01*
X577291Y94430D01*
X577266Y94396D01*
X577258Y94372D01*
X577249Y94363D01*
X577174Y94230D01*
X577108Y94088D01*
X577049Y93955D01*
X576999Y93813D01*
X576924Y93547D01*
X576874Y93305D01*
X576858Y93188D01*
X576849Y93089D01*
X576841Y92997D01*
X576833Y92922D01*
X576824Y92855D01*
Y92772D01*
X576833Y92522D01*
X576866Y92289D01*
X576908Y92064D01*
X576966Y91855D01*
X577033Y91656D01*
X577108Y91472D01*
X577191Y91306D01*
X577274Y91156D01*
X577366Y91022D01*
X577441Y90897D01*
X577524Y90797D01*
X577591Y90714D01*
X577649Y90647D01*
X577691Y90597D01*
X577724Y90564D01*
X577732Y90556D01*
X577907Y90406D01*
X578099Y90273D01*
X578299Y90164D01*
X578499Y90064D01*
X578707Y89981D01*
X578915Y89914D01*
X579115Y89856D01*
X579315Y89814D01*
X579499Y89781D01*
X579674Y89748D01*
X579824Y89731D01*
X579957Y89723D01*
X580074Y89714D01*
X580157Y89706D01*
X576824D01*
D01*
X583448D01*
Y92764D01*
X583439Y92922D01*
X583431Y93072D01*
X583389Y93355D01*
X583323Y93622D01*
X583289Y93738D01*
X583248Y93855D01*
X583214Y93955D01*
X583181Y94046D01*
X583148Y94122D01*
X583114Y94188D01*
X583089Y94238D01*
X583073Y94280D01*
X583056Y94305D01*
Y94313D01*
X582981Y94446D01*
X582898Y94571D01*
X582706Y94796D01*
X582515Y94988D01*
X582423Y95071D01*
X582331Y95146D01*
X582240Y95213D01*
X582165Y95271D01*
X582090Y95313D01*
X582023Y95354D01*
X581973Y95388D01*
X581931Y95413D01*
X581906Y95421D01*
X581898Y95429D01*
X581748Y95496D01*
X581598Y95563D01*
X581298Y95663D01*
X581007Y95730D01*
X580865Y95754D01*
X580732Y95779D01*
X580607Y95796D01*
X580498Y95813D01*
X580398Y95821D01*
X580315D01*
X580240Y95829D01*
D02*
G37*
G36*
X583448Y88873D02*
D01*
Y85807D01*
X583439Y85965D01*
X583431Y86115D01*
X583389Y86398D01*
X583323Y86665D01*
X583289Y86782D01*
X583248Y86898D01*
X583214Y86998D01*
X583181Y87090D01*
X583148Y87165D01*
X583114Y87232D01*
X583089Y87282D01*
X583073Y87323D01*
X583056Y87348D01*
Y87357D01*
X582981Y87490D01*
X582898Y87615D01*
X582706Y87840D01*
X582515Y88031D01*
X582423Y88115D01*
X582331Y88190D01*
X582240Y88256D01*
X582165Y88315D01*
X582090Y88356D01*
X582023Y88398D01*
X581973Y88431D01*
X581931Y88456D01*
X581906Y88465D01*
X581898Y88473D01*
X581748Y88540D01*
X581598Y88606D01*
X581298Y88706D01*
X581007Y88773D01*
X580865Y88798D01*
X580732Y88823D01*
X580607Y88840D01*
X580498Y88856D01*
X580398Y88864D01*
X580315D01*
X580240Y88873D01*
X579973D01*
X579799Y88856D01*
X579474Y88815D01*
X579324Y88790D01*
X579182Y88756D01*
X579049Y88723D01*
X578932Y88690D01*
X578824Y88648D01*
X578724Y88615D01*
X578641Y88581D01*
X578566Y88556D01*
X578507Y88531D01*
X578466Y88515D01*
X578441Y88506D01*
X578432Y88498D01*
X578166Y88340D01*
X578041Y88256D01*
X577924Y88173D01*
X577824Y88081D01*
X577724Y87990D01*
X577632Y87898D01*
X577557Y87815D01*
X577482Y87732D01*
X577424Y87656D01*
X577374Y87582D01*
X577324Y87523D01*
X577291Y87473D01*
X577266Y87440D01*
X577258Y87415D01*
X577249Y87407D01*
X577174Y87273D01*
X577108Y87132D01*
X577049Y86998D01*
X576999Y86857D01*
X576924Y86590D01*
X576874Y86348D01*
X576858Y86232D01*
X576849Y86132D01*
X576841Y86040D01*
X576833Y85965D01*
X576824Y85899D01*
Y85815D01*
X576833Y85565D01*
X576866Y85332D01*
X576908Y85107D01*
X576966Y84899D01*
X577033Y84699D01*
X577108Y84516D01*
X577191Y84349D01*
X577274Y84199D01*
X577366Y84066D01*
X577441Y83941D01*
X577524Y83841D01*
X577591Y83757D01*
X577649Y83691D01*
X577691Y83641D01*
X577724Y83608D01*
X577732Y83599D01*
X577907Y83449D01*
X578099Y83316D01*
X578299Y83208D01*
X578499Y83108D01*
X578707Y83024D01*
X578915Y82958D01*
X579115Y82899D01*
X579315Y82858D01*
X579499Y82824D01*
X579674Y82791D01*
X579824Y82774D01*
X579957Y82766D01*
X580074Y82758D01*
X580157Y82749D01*
X576824D01*
D01*
X583448D01*
Y88873D01*
D02*
G37*
G36*
Y81758D02*
D01*
Y79100D01*
X583439Y79359D01*
X583406Y79609D01*
X583364Y79842D01*
X583323Y80050D01*
X583298Y80133D01*
X583273Y80217D01*
X583256Y80292D01*
X583239Y80350D01*
X583223Y80400D01*
X583206Y80433D01*
X583198Y80458D01*
Y80467D01*
X583098Y80717D01*
X582973Y80950D01*
X582856Y81166D01*
X582731Y81367D01*
X582673Y81450D01*
X582623Y81525D01*
X582581Y81591D01*
X582540Y81650D01*
X582506Y81700D01*
X582481Y81733D01*
X582465Y81750D01*
X582456Y81758D01*
X580074D01*
Y79042D01*
X580832D01*
Y80925D01*
X582031D01*
X582123Y80808D01*
X582206Y80683D01*
X582281Y80550D01*
X582348Y80425D01*
X582406Y80308D01*
X582448Y80208D01*
X582456Y80175D01*
X582473Y80150D01*
X582481Y80133D01*
Y80125D01*
X582548Y79925D01*
X582598Y79734D01*
X582640Y79559D01*
X582664Y79392D01*
X582681Y79250D01*
Y79192D01*
X582690Y79142D01*
Y79050D01*
X582681Y78817D01*
X582648Y78592D01*
X582606Y78392D01*
X582548Y78217D01*
X582523Y78134D01*
X582498Y78067D01*
X582481Y78001D01*
X582456Y77951D01*
X582440Y77909D01*
X582423Y77876D01*
X582415Y77859D01*
Y77851D01*
X582298Y77651D01*
X582165Y77484D01*
X582015Y77334D01*
X581881Y77217D01*
X581756Y77126D01*
X581698Y77084D01*
X581648Y77059D01*
X581615Y77034D01*
X581581Y77018D01*
X581565Y77001D01*
X581557D01*
X581331Y76901D01*
X581090Y76834D01*
X580848Y76784D01*
X580623Y76743D01*
X580523Y76734D01*
X580423Y76726D01*
X580340Y76718D01*
X580265D01*
X580207Y76709D01*
X580165D01*
X580132D01*
X580123D01*
X579865Y76718D01*
X579624Y76751D01*
X579407Y76784D01*
X579215Y76834D01*
X579132Y76851D01*
X579057Y76876D01*
X578991Y76893D01*
X578932Y76918D01*
X578890Y76926D01*
X578857Y76943D01*
X578840Y76951D01*
X578832D01*
X578707Y77009D01*
X578582Y77076D01*
X578474Y77143D01*
X578382Y77201D01*
X578307Y77259D01*
X578249Y77309D01*
X578216Y77343D01*
X578199Y77351D01*
X578099Y77451D01*
X577999Y77567D01*
X577924Y77684D01*
X577857Y77792D01*
X577799Y77884D01*
X577766Y77967D01*
X577741Y78017D01*
X577732Y78026D01*
Y78034D01*
X577674Y78201D01*
X577624Y78367D01*
X577591Y78542D01*
X577574Y78700D01*
X577557Y78834D01*
Y78892D01*
X577549Y78942D01*
Y79042D01*
X577557Y79217D01*
X577574Y79384D01*
X577607Y79534D01*
X577632Y79659D01*
X577666Y79767D01*
X577699Y79850D01*
X577716Y79900D01*
X577724Y79908D01*
Y79917D01*
X577791Y80058D01*
X577866Y80183D01*
X577941Y80292D01*
X578007Y80375D01*
X578074Y80442D01*
X578124Y80492D01*
X578157Y80525D01*
X578174Y80533D01*
X578282Y80608D01*
X578407Y80683D01*
X578541Y80742D01*
X578657Y80792D01*
X578774Y80833D01*
X578857Y80867D01*
X578890Y80875D01*
X578915Y80883D01*
X578932Y80892D01*
X578941D01*
X578732Y81658D01*
X578499Y81591D01*
X578291Y81508D01*
X578116Y81433D01*
X577966Y81350D01*
X577841Y81275D01*
X577791Y81250D01*
X577757Y81216D01*
X577724Y81200D01*
X577699Y81183D01*
X577691Y81166D01*
X577682D01*
X577541Y81041D01*
X577416Y80900D01*
X577308Y80750D01*
X577216Y80608D01*
X577149Y80483D01*
X577124Y80433D01*
X577099Y80383D01*
X577083Y80342D01*
X577066Y80317D01*
X577058Y80300D01*
Y80292D01*
X576983Y80075D01*
X576924Y79858D01*
X576883Y79650D01*
X576849Y79450D01*
X576841Y79367D01*
X576833Y79284D01*
Y79217D01*
X576824Y79150D01*
Y79034D01*
X576833Y78859D01*
X576841Y78692D01*
X576883Y78367D01*
X576916Y78217D01*
X576949Y78084D01*
X576983Y77951D01*
X577024Y77834D01*
X577058Y77726D01*
X577099Y77626D01*
X577133Y77542D01*
X577158Y77476D01*
X577191Y77417D01*
X577208Y77376D01*
X577216Y77351D01*
X577224Y77343D01*
X577299Y77209D01*
X577391Y77084D01*
X577574Y76859D01*
X577674Y76759D01*
X577774Y76668D01*
X577874Y76584D01*
X577974Y76509D01*
X578066Y76443D01*
X578149Y76384D01*
X578224Y76334D01*
X578291Y76293D01*
X578349Y76259D01*
X578391Y76234D01*
X578416Y76226D01*
X578424Y76218D01*
X578574Y76151D01*
X578732Y76093D01*
X579040Y75993D01*
X579332Y75926D01*
X579474Y75901D01*
X579599Y75884D01*
X579724Y75868D01*
X579832Y75851D01*
X579932Y75843D01*
X580015D01*
X580082Y75834D01*
X576824D01*
D01*
X583448D01*
D01*
X580173D01*
X580348Y75843D01*
X580515Y75851D01*
X580840Y75893D01*
X580990Y75926D01*
X581123Y75960D01*
X581256Y75993D01*
X581381Y76034D01*
X581490Y76068D01*
X581590Y76101D01*
X581673Y76135D01*
X581748Y76168D01*
X581806Y76193D01*
X581848Y76209D01*
X581873Y76226D01*
X581881D01*
X582023Y76301D01*
X582148Y76384D01*
X582273Y76476D01*
X582381Y76576D01*
X582490Y76668D01*
X582581Y76768D01*
X582673Y76859D01*
X582748Y76951D01*
X582814Y77043D01*
X582881Y77118D01*
X582931Y77193D01*
X582973Y77259D01*
X583006Y77309D01*
X583031Y77351D01*
X583039Y77376D01*
X583048Y77384D01*
X583114Y77534D01*
X583181Y77684D01*
X583281Y77976D01*
X583348Y78267D01*
X583373Y78401D01*
X583398Y78534D01*
X583414Y78650D01*
X583423Y78759D01*
X583439Y78859D01*
Y78942D01*
X583448Y79009D01*
Y81758D01*
D02*
G37*
%LPD*%
G36*
X580348Y101336D02*
X580590Y101320D01*
X580798Y101286D01*
X580890Y101270D01*
X580982Y101261D01*
X581057Y101245D01*
X581123Y101228D01*
X581182Y101211D01*
X581232Y101195D01*
X581273Y101186D01*
X581298Y101178D01*
X581315Y101170D01*
X581323D01*
X581507Y101103D01*
X581665Y101028D01*
X581806Y100953D01*
X581923Y100878D01*
X582015Y100803D01*
X582081Y100753D01*
X582123Y100720D01*
X582140Y100703D01*
X582215Y100620D01*
X582281Y100520D01*
X582331Y100428D01*
X582381Y100337D01*
X582415Y100253D01*
X582440Y100187D01*
X582456Y100145D01*
X582465Y100137D01*
Y100128D01*
X582506Y99987D01*
X582531Y99820D01*
X582556Y99653D01*
X582565Y99495D01*
X582573Y99354D01*
X582581Y99295D01*
Y97771D01*
X577691D01*
Y99254D01*
X577699Y99378D01*
Y99495D01*
X577707Y99604D01*
X577724Y99703D01*
X577732Y99795D01*
X577741Y99878D01*
X577757Y99945D01*
X577766Y100012D01*
X577782Y100062D01*
X577791Y100112D01*
X577799Y100145D01*
X577807Y100178D01*
X577816Y100195D01*
X577824Y100212D01*
X577866Y100295D01*
X577907Y100378D01*
X578016Y100537D01*
X578132Y100670D01*
X578257Y100787D01*
X578366Y100878D01*
X578457Y100953D01*
X578499Y100978D01*
X578524Y100995D01*
X578541Y101011D01*
X578549D01*
X578657Y101070D01*
X578774Y101120D01*
X579016Y101203D01*
X579274Y101261D01*
X579524Y101303D01*
X579640Y101320D01*
X579749Y101328D01*
X579840Y101336D01*
X579924D01*
X579990Y101345D01*
X580048D01*
X580082D01*
X580090D01*
X580348Y101336D01*
D02*
G37*
G36*
X580373Y94946D02*
X580582Y94930D01*
X580782Y94896D01*
X580965Y94855D01*
X581140Y94813D01*
X581290Y94755D01*
X581440Y94705D01*
X581565Y94646D01*
X581681Y94588D01*
X581781Y94530D01*
X581865Y94471D01*
X581931Y94430D01*
X581990Y94388D01*
X582023Y94355D01*
X582048Y94338D01*
X582056Y94330D01*
X582173Y94213D01*
X582273Y94088D01*
X582365Y93955D01*
X582440Y93822D01*
X582506Y93688D01*
X582556Y93563D01*
X582606Y93430D01*
X582640Y93313D01*
X582664Y93197D01*
X582690Y93089D01*
X582706Y92997D01*
X582715Y92914D01*
Y92847D01*
X582723Y92797D01*
Y92755D01*
X582715Y92580D01*
X582698Y92422D01*
X582664Y92264D01*
X582623Y92122D01*
X582573Y91980D01*
X582515Y91855D01*
X582456Y91730D01*
X582390Y91630D01*
X582331Y91531D01*
X582273Y91447D01*
X582215Y91372D01*
X582165Y91314D01*
X582123Y91264D01*
X582090Y91222D01*
X582073Y91206D01*
X582065Y91197D01*
X581931Y91089D01*
X581798Y90997D01*
X581648Y90914D01*
X581498Y90839D01*
X581348Y90781D01*
X581198Y90731D01*
X581048Y90689D01*
X580898Y90656D01*
X580765Y90631D01*
X580640Y90614D01*
X580532Y90597D01*
X580432Y90589D01*
X580348D01*
X580290Y90581D01*
X580257D01*
X580240D01*
X579982Y90589D01*
X579740Y90606D01*
X579515Y90639D01*
X579307Y90681D01*
X579124Y90731D01*
X578957Y90781D01*
X578807Y90839D01*
X578674Y90906D01*
X578557Y90964D01*
X578457Y91022D01*
X578366Y91072D01*
X578299Y91122D01*
X578249Y91164D01*
X578207Y91197D01*
X578191Y91214D01*
X578182Y91222D01*
X578074Y91347D01*
X577974Y91472D01*
X577891Y91606D01*
X577824Y91739D01*
X577757Y91872D01*
X577707Y91997D01*
X577666Y92122D01*
X577632Y92239D01*
X577607Y92355D01*
X577591Y92455D01*
X577574Y92547D01*
X577566Y92622D01*
X577557Y92689D01*
Y92772D01*
X577574Y93005D01*
X577607Y93222D01*
X577658Y93413D01*
X577716Y93580D01*
X577749Y93655D01*
X577782Y93722D01*
X577807Y93780D01*
X577832Y93822D01*
X577849Y93863D01*
X577866Y93888D01*
X577882Y93905D01*
Y93913D01*
X578016Y94096D01*
X578157Y94247D01*
X578307Y94380D01*
X578449Y94488D01*
X578582Y94580D01*
X578641Y94613D01*
X578682Y94638D01*
X578724Y94663D01*
X578757Y94680D01*
X578774Y94688D01*
X578782D01*
X579007Y94780D01*
X579240Y94846D01*
X579474Y94888D01*
X579682Y94921D01*
X579782Y94930D01*
X579874Y94938D01*
X579949Y94946D01*
X580015Y94955D01*
X580074D01*
X580115D01*
X580140D01*
X580149D01*
X580373Y94946D01*
D02*
G37*
G36*
X583448Y89706D02*
X580224D01*
X580382Y89714D01*
X580532Y89723D01*
X580832Y89764D01*
X581098Y89823D01*
X581223Y89856D01*
X581340Y89889D01*
X581440Y89923D01*
X581540Y89956D01*
X581623Y89989D01*
X581690Y90014D01*
X581748Y90039D01*
X581790Y90056D01*
X581815Y90073D01*
X581823D01*
X582090Y90223D01*
X582331Y90398D01*
X582431Y90481D01*
X582531Y90572D01*
X582623Y90664D01*
X582706Y90747D01*
X582773Y90831D01*
X582840Y90906D01*
X582890Y90972D01*
X582931Y91031D01*
X582973Y91081D01*
X582998Y91114D01*
X583006Y91139D01*
X583014Y91147D01*
X583089Y91281D01*
X583156Y91422D01*
X583214Y91556D01*
X583264Y91697D01*
X583339Y91972D01*
X583389Y92222D01*
X583414Y92339D01*
X583423Y92439D01*
X583431Y92530D01*
X583439Y92614D01*
X583448Y92672D01*
Y89706D01*
D02*
G37*
G36*
X580373Y87990D02*
X580582Y87973D01*
X580782Y87940D01*
X580965Y87898D01*
X581140Y87857D01*
X581290Y87798D01*
X581440Y87748D01*
X581565Y87690D01*
X581681Y87632D01*
X581781Y87573D01*
X581865Y87515D01*
X581931Y87473D01*
X581990Y87432D01*
X582023Y87398D01*
X582048Y87382D01*
X582056Y87373D01*
X582173Y87257D01*
X582273Y87132D01*
X582365Y86998D01*
X582440Y86865D01*
X582506Y86732D01*
X582556Y86607D01*
X582606Y86474D01*
X582640Y86357D01*
X582664Y86240D01*
X582690Y86132D01*
X582706Y86040D01*
X582715Y85957D01*
Y85890D01*
X582723Y85840D01*
Y85799D01*
X582715Y85624D01*
X582698Y85465D01*
X582664Y85307D01*
X582623Y85166D01*
X582573Y85024D01*
X582515Y84899D01*
X582456Y84774D01*
X582390Y84674D01*
X582331Y84574D01*
X582273Y84491D01*
X582215Y84416D01*
X582165Y84357D01*
X582123Y84307D01*
X582090Y84266D01*
X582073Y84249D01*
X582065Y84241D01*
X581931Y84132D01*
X581798Y84041D01*
X581648Y83958D01*
X581498Y83883D01*
X581348Y83824D01*
X581198Y83774D01*
X581048Y83733D01*
X580898Y83699D01*
X580765Y83674D01*
X580640Y83658D01*
X580532Y83641D01*
X580432Y83632D01*
X580348D01*
X580290Y83624D01*
X580257D01*
X580240D01*
X579982Y83632D01*
X579740Y83649D01*
X579515Y83682D01*
X579307Y83724D01*
X579124Y83774D01*
X578957Y83824D01*
X578807Y83883D01*
X578674Y83949D01*
X578557Y84008D01*
X578457Y84066D01*
X578366Y84116D01*
X578299Y84166D01*
X578249Y84207D01*
X578207Y84241D01*
X578191Y84257D01*
X578182Y84266D01*
X578074Y84391D01*
X577974Y84516D01*
X577891Y84649D01*
X577824Y84782D01*
X577757Y84916D01*
X577707Y85041D01*
X577666Y85166D01*
X577632Y85282D01*
X577607Y85399D01*
X577591Y85499D01*
X577574Y85590D01*
X577566Y85665D01*
X577557Y85732D01*
Y85815D01*
X577574Y86049D01*
X577607Y86265D01*
X577658Y86457D01*
X577716Y86623D01*
X577749Y86698D01*
X577782Y86765D01*
X577807Y86823D01*
X577832Y86865D01*
X577849Y86907D01*
X577866Y86932D01*
X577882Y86948D01*
Y86957D01*
X578016Y87140D01*
X578157Y87290D01*
X578307Y87423D01*
X578449Y87531D01*
X578582Y87623D01*
X578641Y87656D01*
X578682Y87682D01*
X578724Y87706D01*
X578757Y87723D01*
X578774Y87732D01*
X578782D01*
X579007Y87823D01*
X579240Y87890D01*
X579474Y87931D01*
X579682Y87965D01*
X579782Y87973D01*
X579874Y87981D01*
X579949Y87990D01*
X580015Y87998D01*
X580074D01*
X580115D01*
X580140D01*
X580149D01*
X580373Y87990D01*
D02*
G37*
G36*
X583448Y82749D02*
X580224D01*
X580382Y82758D01*
X580532Y82766D01*
X580832Y82808D01*
X581098Y82866D01*
X581223Y82899D01*
X581340Y82933D01*
X581440Y82966D01*
X581540Y82999D01*
X581623Y83033D01*
X581690Y83058D01*
X581748Y83083D01*
X581790Y83099D01*
X581815Y83116D01*
X581823D01*
X582090Y83266D01*
X582331Y83441D01*
X582431Y83524D01*
X582531Y83616D01*
X582623Y83708D01*
X582706Y83791D01*
X582773Y83874D01*
X582840Y83949D01*
X582890Y84016D01*
X582931Y84074D01*
X582973Y84124D01*
X582998Y84157D01*
X583006Y84182D01*
X583014Y84191D01*
X583089Y84324D01*
X583156Y84466D01*
X583214Y84599D01*
X583264Y84741D01*
X583339Y85015D01*
X583389Y85266D01*
X583414Y85382D01*
X583423Y85482D01*
X583431Y85574D01*
X583439Y85657D01*
X583448Y85715D01*
Y82749D01*
D02*
G37*
%LPC*%
G36*
X467238Y282894D02*
X458007D01*
D01*
X462706D01*
X462139Y282878D01*
X461889Y282861D01*
X461656Y282828D01*
X461423Y282794D01*
X461223Y282761D01*
X461040Y282728D01*
X460856Y282694D01*
X460706Y282661D01*
X460573Y282628D01*
X460473Y282595D01*
X460373Y282561D01*
X460307Y282528D01*
X460257Y282511D01*
X460223Y282495D01*
X460206D01*
X459890Y282328D01*
X459607Y282161D01*
X459373Y281978D01*
X459174Y281795D01*
X459024Y281645D01*
X458923Y281511D01*
X458857Y281428D01*
X458840Y281395D01*
X458690Y281128D01*
X458574Y280878D01*
X458507Y280628D01*
X458440Y280412D01*
X458407Y280212D01*
X458390Y280062D01*
Y279962D01*
Y279945D01*
Y279928D01*
X458407Y279712D01*
X458424Y279495D01*
X458524Y279112D01*
X458674Y278779D01*
X458840Y278496D01*
X458990Y278262D01*
X459140Y278096D01*
X459190Y278046D01*
X459240Y277996D01*
X459257Y277979D01*
X459273Y277962D01*
X459457Y277829D01*
X459657Y277696D01*
X459873Y277562D01*
X460107Y277446D01*
X460590Y277246D01*
X461073Y277063D01*
X461306Y276996D01*
X461523Y276929D01*
X461723Y276879D01*
X461889Y276829D01*
X462023Y276796D01*
X462139Y276763D01*
X462206Y276746D01*
X462223D01*
X462456Y276696D01*
X462656Y276646D01*
X462839Y276579D01*
X463006Y276529D01*
X463156Y276479D01*
X463289Y276429D01*
X463506Y276346D01*
X463656Y276263D01*
X463772Y276196D01*
X463822Y276163D01*
X463839Y276146D01*
X463956Y276029D01*
X464039Y275913D01*
X464105Y275796D01*
X464139Y275680D01*
X464172Y275596D01*
X464189Y275513D01*
Y275463D01*
Y275446D01*
X464172Y275296D01*
X464139Y275163D01*
X464072Y275030D01*
X464006Y274930D01*
X463939Y274830D01*
X463872Y274763D01*
X463839Y274730D01*
X463822Y274713D01*
X463672Y274613D01*
X463506Y274547D01*
X463322Y274480D01*
X463156Y274447D01*
X463006Y274430D01*
X462889Y274413D01*
X462773D01*
X462456Y274447D01*
X462173Y274513D01*
X461939Y274597D01*
X461740Y274713D01*
X461573Y274830D01*
X461473Y274913D01*
X461390Y274980D01*
X461373Y275013D01*
X461273Y275180D01*
X461190Y275346D01*
X461123Y275530D01*
X461073Y275713D01*
X461040Y275879D01*
X461006Y276013D01*
X460990Y276096D01*
Y276129D01*
X458007Y275930D01*
X458040Y275646D01*
X458090Y275380D01*
X458224Y274880D01*
X458407Y274463D01*
X458507Y274263D01*
X458607Y274097D01*
X458707Y273930D01*
X458807Y273797D01*
X458890Y273680D01*
X458974Y273580D01*
X459024Y273497D01*
X459073Y273447D01*
X459107Y273414D01*
X459123Y273397D01*
X459323Y273230D01*
X459573Y273080D01*
X459823Y272947D01*
X460107Y272830D01*
X460406Y272730D01*
X460706Y272647D01*
X461306Y272530D01*
X461590Y272497D01*
X461856Y272464D01*
X462089Y272447D01*
X462306Y272430D01*
X462473Y272414D01*
X462723D01*
X463256Y272430D01*
X463739Y272480D01*
X464156Y272547D01*
X464339Y272580D01*
X464505Y272630D01*
X464655Y272664D01*
X464789Y272697D01*
X464905Y272730D01*
X465005Y272764D01*
X465072Y272797D01*
X465122Y272814D01*
X465155Y272830D01*
X465172D01*
X465522Y273014D01*
X465822Y273214D01*
X466088Y273414D01*
X466305Y273613D01*
X466472Y273797D01*
X466588Y273947D01*
X466672Y274047D01*
X466688Y274063D01*
Y274080D01*
X466871Y274397D01*
X467005Y274713D01*
X467105Y275013D01*
X467171Y275280D01*
X467205Y275530D01*
X467238Y275713D01*
Y275896D01*
Y275879D01*
X467221Y276180D01*
X467171Y276463D01*
X467105Y276713D01*
X467038Y276946D01*
X466955Y277129D01*
X466888Y277262D01*
X466838Y277346D01*
X466822Y277379D01*
X466655Y277612D01*
X466455Y277829D01*
X466238Y278029D01*
X466022Y278196D01*
X465822Y278312D01*
X465672Y278412D01*
X465605Y278445D01*
X465555Y278479D01*
X465538Y278496D01*
X465522D01*
X465339Y278579D01*
X465139Y278662D01*
X464922Y278745D01*
X464689Y278829D01*
X464206Y278979D01*
X463722Y279129D01*
X463489Y279179D01*
X463272Y279229D01*
X463073Y279279D01*
X462906Y279329D01*
X462773Y279345D01*
X462656Y279379D01*
X462589Y279395D01*
X462573D01*
X462289Y279462D01*
X462056Y279529D01*
X461873Y279595D01*
X461740Y279662D01*
X461640Y279712D01*
X461573Y279745D01*
X461539Y279762D01*
X461523Y279778D01*
X461440Y279845D01*
X461390Y279928D01*
X461323Y280062D01*
X461290Y280178D01*
Y280195D01*
Y280212D01*
X461306Y280328D01*
X461340Y280445D01*
X461423Y280628D01*
X461473Y280695D01*
X461523Y280745D01*
X461539Y280762D01*
X461556Y280778D01*
X461673Y280862D01*
X461806Y280912D01*
X462073Y280978D01*
X462206Y280995D01*
X462306Y281012D01*
X462389D01*
X462639Y280995D01*
X462839Y280962D01*
X463022Y280912D01*
X463172Y280862D01*
X463289Y280795D01*
X463372Y280745D01*
X463422Y280712D01*
X463439Y280695D01*
X463572Y280562D01*
X463689Y280412D01*
X463772Y280245D01*
X463839Y280079D01*
X463889Y279928D01*
X463922Y279812D01*
X463956Y279729D01*
Y279695D01*
X466905Y279862D01*
X466855Y280145D01*
X466788Y280412D01*
X466721Y280662D01*
X466622Y280895D01*
X466538Y281095D01*
X466422Y281278D01*
X466322Y281461D01*
X466222Y281611D01*
X466105Y281745D01*
X466005Y281845D01*
X465922Y281945D01*
X465838Y282028D01*
X465772Y282078D01*
X465722Y282128D01*
X465689Y282161D01*
X465672D01*
X465472Y282295D01*
X465255Y282411D01*
X464772Y282578D01*
X464289Y282711D01*
X463806Y282811D01*
X463589Y282828D01*
X463372Y282861D01*
X463189Y282878D01*
X463022D01*
X462889Y282894D01*
X467238D01*
D01*
D02*
G37*
G36*
X503962Y279928D02*
X500946D01*
Y277096D01*
X503962D01*
Y279928D01*
D02*
G37*
G36*
Y276746D02*
Y275413D01*
X500946D01*
Y275430D01*
Y275413D01*
Y272580D01*
X503962D01*
Y276746D01*
D02*
G37*
G36*
X499696Y282728D02*
X490165D01*
Y280228D01*
X493365D01*
Y272580D01*
X490165D01*
D01*
X499696D01*
Y282728D01*
D02*
G37*
G36*
X485467D02*
X479885D01*
Y272580D01*
X483034D01*
Y276696D01*
X483301D01*
X483451Y276679D01*
X483601Y276663D01*
X483734Y276613D01*
X483851Y276579D01*
X483934Y276529D01*
X484017Y276479D01*
X484050Y276463D01*
X484067Y276446D01*
X484167Y276363D01*
X484267Y276246D01*
X484350Y276129D01*
X484450Y275996D01*
X484517Y275863D01*
X484584Y275763D01*
X484617Y275696D01*
X484634Y275663D01*
X486316Y272580D01*
X489866D01*
X488333Y275513D01*
X488283Y275596D01*
X488216Y275696D01*
X488066Y275896D01*
X487999Y275996D01*
X487933Y276063D01*
X487900Y276113D01*
X487883Y276129D01*
X487766Y276280D01*
X487666Y276396D01*
X487583Y276479D01*
X487516Y276563D01*
X487466Y276613D01*
X487416Y276646D01*
X487400Y276679D01*
X487383D01*
X487283Y276746D01*
X487150Y276813D01*
X486883Y276929D01*
X486766Y276979D01*
X486666Y277013D01*
X486600Y277046D01*
X486583D01*
X486833Y277113D01*
X487050Y277179D01*
X487233Y277246D01*
X487400Y277313D01*
X487516Y277362D01*
X487616Y277412D01*
X487666Y277429D01*
X487683Y277446D01*
X487916Y277596D01*
X488099Y277762D01*
X488283Y277929D01*
X488416Y278096D01*
X488533Y278229D01*
X488616Y278346D01*
X488666Y278412D01*
X488683Y278446D01*
X488799Y278679D01*
X488899Y278929D01*
X488966Y279179D01*
X488999Y279395D01*
X489033Y279595D01*
X489049Y279762D01*
Y279862D01*
Y279879D01*
Y279895D01*
X489033Y280245D01*
X488983Y280562D01*
X488899Y280845D01*
X488816Y281095D01*
X488716Y281278D01*
X488649Y281428D01*
X488583Y281511D01*
X488566Y281545D01*
X488383Y281778D01*
X488183Y281978D01*
X487966Y282145D01*
X487783Y282261D01*
X487599Y282361D01*
X487466Y282428D01*
X487366Y282461D01*
X487350Y282478D01*
X487333D01*
X487016Y282561D01*
X486666Y282628D01*
X486283Y282661D01*
X485933Y282694D01*
X485600Y282711D01*
X485467Y282728D01*
D02*
G37*
G36*
X456491Y282728D02*
X446760D01*
Y276679D01*
X446777Y276396D01*
X446810Y276096D01*
X446843Y275813D01*
X446910Y275546D01*
X446960Y275313D01*
X446993Y275130D01*
X447010Y275063D01*
X447027Y275013D01*
X447043Y274980D01*
Y274963D01*
X447127Y274746D01*
X447226Y274530D01*
X447343Y274330D01*
X447443Y274163D01*
X447543Y274013D01*
X447626Y273897D01*
X447693Y273830D01*
X447710Y273797D01*
X447893Y273597D01*
X448076Y273414D01*
X448260Y273263D01*
X448426Y273147D01*
X448559Y273047D01*
X448676Y272980D01*
X448743Y272930D01*
X448776Y272914D01*
X449009Y272814D01*
X449259Y272730D01*
X449509Y272664D01*
X449743Y272597D01*
X449943Y272564D01*
X450093Y272530D01*
X450159D01*
X450209Y272514D01*
X450242D01*
X450559Y272480D01*
X450876Y272464D01*
X451142Y272430D01*
X451392D01*
X451592Y272414D01*
X451875D01*
X452342Y272430D01*
X452758Y272464D01*
X453125Y272514D01*
X453442Y272580D01*
X453708Y272647D01*
X453808Y272664D01*
X453891Y272697D01*
X453975Y272714D01*
X454025Y272730D01*
X454041Y272747D01*
X454058D01*
X454308Y272847D01*
X454541Y272980D01*
X454758Y273114D01*
X454941Y273247D01*
X455108Y273380D01*
X455224Y273480D01*
X455291Y273547D01*
X455325Y273580D01*
X455541Y273813D01*
X455724Y274047D01*
X455874Y274280D01*
X455991Y274513D01*
X456091Y274697D01*
X456158Y274846D01*
X456191Y274946D01*
X456208Y274963D01*
Y274980D01*
X456307Y275280D01*
X456374Y275580D01*
X456424Y275863D01*
X456457Y276129D01*
X456474Y276346D01*
X456491Y276529D01*
Y272580D01*
Y282728D01*
D02*
G37*
G36*
X475036Y282728D02*
X471587Y282728D01*
X467788Y272580D01*
X474161D01*
X470987D01*
X471487Y274263D01*
X475036Y274263D01*
X475536Y272580D01*
X478835D01*
X475036Y282728D01*
D02*
G37*
%LPD*%
G36*
X499696Y272580D02*
X496497D01*
Y280228D01*
X499696D01*
Y272580D01*
D02*
G37*
G36*
X484700Y280662D02*
X484950Y280645D01*
X485150Y280595D01*
X485317Y280545D01*
X485433Y280495D01*
X485517Y280462D01*
X485567Y280428D01*
X485583Y280412D01*
X485683Y280295D01*
X485767Y280179D01*
X485817Y280045D01*
X485867Y279928D01*
X485883Y279812D01*
X485900Y279729D01*
Y279662D01*
Y279645D01*
Y279529D01*
X485867Y279412D01*
X485800Y279229D01*
X485767Y279162D01*
X485733Y279112D01*
X485717Y279079D01*
X485700Y279062D01*
X485617Y278979D01*
X485533Y278912D01*
X485367Y278812D01*
X485300Y278779D01*
X485233Y278762D01*
X485200Y278745D01*
X485183D01*
X484967Y278696D01*
X484800Y278662D01*
X484650Y278645D01*
X484534Y278629D01*
X484450Y278612D01*
X483034D01*
Y280678D01*
X484400D01*
X484700Y280662D01*
D02*
G37*
G36*
X453358Y276529D02*
X453342Y276229D01*
X453292Y275979D01*
X453208Y275746D01*
X453125Y275563D01*
X453042Y275430D01*
X452958Y275313D01*
X452908Y275246D01*
X452892Y275230D01*
X452709Y275080D01*
X452492Y274963D01*
X452292Y274897D01*
X452092Y274830D01*
X451909Y274797D01*
X451759Y274780D01*
X451625D01*
X451342Y274797D01*
X451076Y274846D01*
X450859Y274930D01*
X450676Y275013D01*
X450526Y275096D01*
X450426Y275180D01*
X450359Y275230D01*
X450342Y275246D01*
X450192Y275430D01*
X450076Y275646D01*
X450009Y275863D01*
X449943Y276063D01*
X449909Y276246D01*
X449893Y276396D01*
Y276496D01*
Y276513D01*
Y276529D01*
Y282728D01*
X453358D01*
Y276529D01*
D02*
G37*
G36*
X474370Y276463D02*
X472170D01*
X473270Y280095D01*
X474370Y276463D01*
D02*
G37*
%LPC*%
G36*
X459732Y270218D02*
X456916D01*
Y266485D01*
X459282D01*
X459732Y268535D01*
Y270218D01*
D02*
G37*
G36*
X513618Y270218D02*
X510669D01*
Y264602D01*
X506836Y270218D01*
X509676D01*
X503920D01*
Y260070D01*
X506870D01*
Y265636D01*
X510669Y260070D01*
X508769D01*
X513618D01*
Y270218D01*
D02*
G37*
G36*
X469096Y270384D02*
Y262370D01*
X464680D01*
X464947Y262620D01*
X465064Y262720D01*
X465164Y262803D01*
X465230Y262869D01*
X465297Y262936D01*
X465330Y262953D01*
X465347Y262969D01*
X465480Y263069D01*
X465647Y263203D01*
X465847Y263336D01*
X466030Y263486D01*
X466213Y263603D01*
X466363Y263703D01*
X466463Y263769D01*
X466480Y263803D01*
X466497D01*
X466763Y263986D01*
X466996Y264169D01*
X467213Y264352D01*
X467413Y264519D01*
X467596Y264669D01*
X467746Y264836D01*
X467896Y264969D01*
X468030Y265102D01*
X468130Y265219D01*
X468229Y265336D01*
X468380Y265502D01*
X468413Y265569D01*
X468446Y265619D01*
X468479Y265636D01*
Y265652D01*
X468663Y265969D01*
X468796Y266285D01*
X468896Y266585D01*
X468963Y266852D01*
X468996Y267085D01*
X469029Y267268D01*
Y267335D01*
Y267385D01*
Y267402D01*
Y267418D01*
X469013Y267735D01*
X468963Y268035D01*
X468879Y268302D01*
X468796Y268535D01*
X468696Y268735D01*
X468629Y268885D01*
X468563Y268968D01*
X468546Y269001D01*
X468346Y269251D01*
X468130Y269451D01*
X467913Y269634D01*
X467713Y269784D01*
X467513Y269884D01*
X467363Y269968D01*
X467263Y270018D01*
X467246Y270034D01*
X467230D01*
X466897Y270151D01*
X466530Y270234D01*
X466147Y270301D01*
X465780Y270334D01*
X465447Y270368D01*
X465297D01*
X465180Y270384D01*
X460631D01*
X464930D01*
X464431Y270368D01*
X463981Y270334D01*
X463597Y270268D01*
X463414Y270234D01*
X463264Y270201D01*
X463131Y270168D01*
X463014Y270134D01*
X462914Y270101D01*
X462831Y270068D01*
X462764Y270051D01*
X462714Y270034D01*
X462698Y270018D01*
X462681D01*
X462398Y269868D01*
X462148Y269718D01*
X461931Y269551D01*
X461764Y269384D01*
X461614Y269235D01*
X461515Y269118D01*
X461448Y269035D01*
X461431Y269001D01*
X461281Y268735D01*
X461148Y268435D01*
X461048Y268118D01*
X460965Y267818D01*
X460898Y267552D01*
X460881Y267435D01*
X460865Y267335D01*
X460848Y267252D01*
X460831Y267185D01*
Y267152D01*
Y267135D01*
X463664Y266919D01*
X463714Y267218D01*
X463781Y267468D01*
X463864Y267668D01*
X463931Y267835D01*
X463997Y267952D01*
X464064Y268035D01*
X464097Y268085D01*
X464114Y268102D01*
X464247Y268218D01*
X464397Y268302D01*
X464547Y268368D01*
X464680Y268401D01*
X464814Y268435D01*
X464914Y268451D01*
X464997D01*
X465180Y268435D01*
X465347Y268401D01*
X465497Y268351D01*
X465630Y268285D01*
X465730Y268218D01*
X465797Y268168D01*
X465847Y268135D01*
X465863Y268118D01*
X465980Y267985D01*
X466063Y267852D01*
X466130Y267718D01*
X466163Y267602D01*
X466197Y267485D01*
X466213Y267402D01*
Y267335D01*
Y267318D01*
X466197Y267168D01*
X466163Y267002D01*
X466097Y266852D01*
X466047Y266719D01*
X465980Y266602D01*
X465913Y266502D01*
X465880Y266435D01*
X465863Y266419D01*
X465797Y266319D01*
X465697Y266219D01*
X465463Y266002D01*
X465214Y265769D01*
X464947Y265536D01*
X464697Y265336D01*
X464481Y265169D01*
X464397Y265102D01*
X464330Y265052D01*
X464297Y265036D01*
X464281Y265019D01*
X463914Y264736D01*
X463581Y264469D01*
X463264Y264219D01*
X462981Y263986D01*
X462731Y263753D01*
X462514Y263536D01*
X462298Y263336D01*
X462131Y263153D01*
X461981Y262986D01*
X461848Y262853D01*
X461731Y262720D01*
X461648Y262620D01*
X461581Y262536D01*
X461531Y262470D01*
X461515Y262436D01*
X461498Y262420D01*
X461248Y262003D01*
X461048Y261586D01*
X460898Y261187D01*
X460798Y260837D01*
X460748Y260670D01*
X460715Y260520D01*
X460681Y260387D01*
X460665Y260287D01*
X460648Y260187D01*
X460631Y260120D01*
Y260070D01*
X469096D01*
Y270384D01*
D02*
G37*
G36*
X455299Y270218D02*
X447335D01*
X448601D01*
X447701Y264752D01*
X450101Y264403D01*
X450217Y264536D01*
X450334Y264652D01*
X450451Y264736D01*
X450534Y264819D01*
X450617Y264869D01*
X450667Y264902D01*
X450701Y264936D01*
X450717D01*
X450867Y265002D01*
X451001Y265052D01*
X451134Y265086D01*
X451267Y265119D01*
X451367D01*
X451451Y265136D01*
X451517D01*
X451750Y265119D01*
X451950Y265069D01*
X452134Y265002D01*
X452284Y264919D01*
X452400Y264836D01*
X452483Y264769D01*
X452533Y264719D01*
X452550Y264702D01*
X452683Y264519D01*
X452783Y264319D01*
X452850Y264102D01*
X452900Y263886D01*
X452933Y263686D01*
X452950Y263536D01*
Y263469D01*
Y263419D01*
Y263403D01*
Y263386D01*
X452933Y263069D01*
X452883Y262803D01*
X452817Y262570D01*
X452750Y262386D01*
X452683Y262236D01*
X452617Y262136D01*
X452567Y262070D01*
X452550Y262053D01*
X452400Y261903D01*
X452234Y261803D01*
X452084Y261720D01*
X451917Y261670D01*
X451784Y261637D01*
X451684Y261620D01*
X451584D01*
X451384Y261637D01*
X451217Y261670D01*
X451067Y261737D01*
X450934Y261803D01*
X450817Y261853D01*
X450734Y261920D01*
X450684Y261953D01*
X450667Y261970D01*
X450534Y262120D01*
X450434Y262286D01*
X450351Y262453D01*
X450284Y262620D01*
X450234Y262786D01*
X450201Y262903D01*
X450184Y262986D01*
Y263020D01*
X447335Y262703D01*
X447418Y262453D01*
X447501Y262220D01*
X447585Y262003D01*
X447668Y261836D01*
X447735Y261686D01*
X447785Y261586D01*
X447818Y261520D01*
X447835Y261503D01*
X447968Y261337D01*
X448101Y261170D01*
X448235Y261037D01*
X448368Y260903D01*
X448484Y260803D01*
X448568Y260720D01*
X448634Y260670D01*
X448651Y260653D01*
X448851Y260520D01*
X449068Y260403D01*
X449268Y260303D01*
X449468Y260220D01*
X449634Y260170D01*
X449768Y260120D01*
X449851Y260104D01*
X449884Y260087D01*
X450168Y260020D01*
X450451Y259987D01*
X450751Y259954D01*
X451017Y259920D01*
X451250D01*
X451434Y259904D01*
X455783D01*
X451600D01*
X452100Y259920D01*
X452550Y259970D01*
X452950Y260054D01*
X453283Y260137D01*
X453417Y260187D01*
X453550Y260220D01*
X453650Y260270D01*
X453733Y260303D01*
X453800Y260320D01*
X453867Y260354D01*
X453883Y260370D01*
X453900D01*
X454216Y260570D01*
X454500Y260787D01*
X454733Y261020D01*
X454933Y261237D01*
X455083Y261437D01*
X455200Y261603D01*
X455233Y261670D01*
X455266Y261720D01*
X455283Y261737D01*
Y261753D01*
X455449Y262086D01*
X455566Y262420D01*
X455666Y262753D01*
X455716Y263036D01*
X455749Y263286D01*
X455766Y263386D01*
X455783Y263469D01*
Y263686D01*
Y263636D01*
X455766Y263886D01*
X455749Y264136D01*
X455699Y264369D01*
X455633Y264586D01*
X455483Y264986D01*
X455299Y265319D01*
X455216Y265469D01*
X455116Y265585D01*
X455033Y265702D01*
X454966Y265785D01*
X454900Y265852D01*
X454866Y265919D01*
X454833Y265935D01*
X454816Y265952D01*
X454633Y266119D01*
X454433Y266269D01*
X454233Y266385D01*
X454033Y266485D01*
X453617Y266652D01*
X453233Y266768D01*
X453050Y266802D01*
X452883Y266835D01*
X452733Y266852D01*
X452600Y266868D01*
X452500Y266885D01*
X452350D01*
X452017Y266868D01*
X451867Y266852D01*
X451717Y266835D01*
X451600Y266802D01*
X451517Y266785D01*
X451451Y266768D01*
X451434D01*
X451101Y266669D01*
X450934Y266619D01*
X450801Y266552D01*
X450684Y266519D01*
X450584Y266469D01*
X450517Y266452D01*
X450501Y266435D01*
X450751Y267968D01*
X455299D01*
Y270218D01*
D02*
G37*
G36*
X498155Y270384D02*
X493973D01*
X497955D01*
X497405Y270351D01*
X496922Y270284D01*
X496689Y270234D01*
X496489Y270184D01*
X496306Y270134D01*
X496139Y270068D01*
X495989Y270001D01*
X495856Y269951D01*
X495739Y269901D01*
X495639Y269851D01*
X495573Y269818D01*
X495522Y269784D01*
X495489Y269751D01*
X495472D01*
X495273Y269601D01*
X495089Y269435D01*
X494923Y269268D01*
X494789Y269085D01*
X494673Y268918D01*
X494573Y268735D01*
X494506Y268568D01*
X494439Y268418D01*
X494356Y268118D01*
X494323Y267985D01*
X494306Y267885D01*
X494290Y267785D01*
Y267718D01*
Y267685D01*
Y267668D01*
X494306Y267385D01*
X494356Y267135D01*
X494423Y266902D01*
X494489Y266702D01*
X494556Y266535D01*
X494623Y266402D01*
X494673Y266335D01*
X494689Y266302D01*
X494823Y266152D01*
X494973Y266002D01*
X495139Y265869D01*
X495289Y265752D01*
X495439Y265652D01*
X495556Y265585D01*
X495622Y265536D01*
X495656Y265519D01*
X495356Y265386D01*
X495089Y265236D01*
X494873Y265069D01*
X494689Y264919D01*
X494556Y264769D01*
X494456Y264652D01*
X494389Y264586D01*
X494373Y264552D01*
X494240Y264319D01*
X494140Y264053D01*
X494073Y263803D01*
X494023Y263569D01*
X493990Y263369D01*
X493973Y263203D01*
Y263053D01*
X493990Y262720D01*
X494040Y262403D01*
X494106Y262120D01*
X494189Y261870D01*
X494273Y261670D01*
X494339Y261520D01*
X494389Y261420D01*
X494406Y261403D01*
Y261387D01*
X494589Y261137D01*
X494806Y260903D01*
X495023Y260703D01*
X495223Y260553D01*
X495406Y260437D01*
X495573Y260337D01*
X495672Y260287D01*
X495689Y260270D01*
X495706D01*
X495872Y260204D01*
X496056Y260154D01*
X496456Y260054D01*
X496856Y259987D01*
X497255Y259954D01*
X497439Y259937D01*
X497622Y259920D01*
X497772D01*
X497905Y259904D01*
X493973D01*
X498488D01*
X498788Y259937D01*
X499055Y259954D01*
X499288Y259987D01*
X499488Y260020D01*
X499638Y260037D01*
X499738Y260070D01*
X499771D01*
X500055Y260137D01*
X500288Y260220D01*
X500521Y260303D01*
X500704Y260387D01*
X500854Y260470D01*
X500954Y260537D01*
X501038Y260570D01*
X501054Y260587D01*
X501238Y260737D01*
X501404Y260903D01*
X501554Y261070D01*
X501688Y261237D01*
X501788Y261387D01*
X501854Y261503D01*
X501904Y261570D01*
X501921Y261603D01*
X502038Y261853D01*
X502121Y262103D01*
X502188Y262353D01*
X502221Y262570D01*
X502254Y262753D01*
X502271Y262903D01*
Y261503D01*
Y263053D01*
Y263036D01*
X502254Y263319D01*
X502204Y263586D01*
X502137Y263836D01*
X502071Y264053D01*
X501987Y264219D01*
X501921Y264352D01*
X501871Y264436D01*
X501854Y264469D01*
X501688Y264702D01*
X501488Y264902D01*
X501288Y265086D01*
X501088Y265236D01*
X500905Y265352D01*
X500755Y265452D01*
X500654Y265502D01*
X500638Y265519D01*
X500621D01*
X500838Y265669D01*
X501038Y265835D01*
X501188Y265969D01*
X501321Y266102D01*
X501421Y266202D01*
X501488Y266302D01*
X501521Y266352D01*
X501538Y266369D01*
X501671Y266602D01*
X501771Y266819D01*
X501838Y267035D01*
X501888Y267235D01*
X501921Y267402D01*
X501937Y267535D01*
Y267618D01*
Y267652D01*
X501921Y267868D01*
X501888Y268068D01*
X501854Y268268D01*
X501788Y268451D01*
X501621Y268785D01*
X501454Y269068D01*
X501271Y269301D01*
X501104Y269468D01*
X501038Y269518D01*
X501004Y269568D01*
X500971Y269585D01*
X500954Y269601D01*
X500755Y269734D01*
X500555Y269868D01*
X500071Y270051D01*
X499588Y270201D01*
X499088Y270284D01*
X498872Y270318D01*
X498655Y270351D01*
X498455Y270368D01*
X498288D01*
X498155Y270384D01*
D02*
G37*
G36*
X488074D02*
X479776D01*
Y259904D01*
Y265169D01*
X479793Y264736D01*
X479810Y264336D01*
X479843Y263969D01*
X479877Y263653D01*
X479910Y263386D01*
X479926Y263286D01*
X479943Y263186D01*
X479960Y263120D01*
X479977Y263069D01*
Y263036D01*
Y263020D01*
X480060Y262670D01*
X480143Y262370D01*
X480243Y262120D01*
X480343Y261903D01*
X480410Y261737D01*
X480476Y261603D01*
X480526Y261537D01*
X480543Y261503D01*
X480743Y261220D01*
X480960Y260987D01*
X481176Y260770D01*
X481376Y260604D01*
X481559Y260470D01*
X481693Y260387D01*
X481793Y260320D01*
X481809Y260303D01*
X481826D01*
X482143Y260170D01*
X482492Y260070D01*
X482842Y260004D01*
X483176Y259954D01*
X483459Y259920D01*
X483592D01*
X483692Y259904D01*
X483909D01*
X484325Y259920D01*
X484709Y259954D01*
X485059Y260020D01*
X485375Y260104D01*
X485675Y260204D01*
X485925Y260303D01*
X486158Y260420D01*
X486375Y260537D01*
X486558Y260653D01*
X486708Y260770D01*
X486841Y260870D01*
X486941Y260970D01*
X487025Y261053D01*
X487075Y261120D01*
X487108Y261153D01*
X487125Y261170D01*
X487291Y261420D01*
X487441Y261720D01*
X487558Y262020D01*
X487674Y262336D01*
X487775Y262686D01*
X487841Y263020D01*
X487958Y263669D01*
X487991Y263986D01*
X488024Y264269D01*
X488041Y264536D01*
X488058Y264769D01*
X488074Y264952D01*
Y260420D01*
Y265219D01*
X488058Y265669D01*
X488024Y266102D01*
X487974Y266502D01*
X487924Y266852D01*
X487891Y267002D01*
X487874Y267152D01*
X487841Y267268D01*
X487825Y267368D01*
X487808Y267452D01*
X487791Y267518D01*
X487775Y267552D01*
Y267568D01*
X487724Y267785D01*
X487658Y267985D01*
X487591Y268168D01*
X487541Y268318D01*
X487475Y268451D01*
X487441Y268535D01*
X487408Y268601D01*
X487391Y268618D01*
X487291Y268785D01*
X487191Y268935D01*
X487091Y269085D01*
X486975Y269218D01*
X486891Y269318D01*
X486808Y269401D01*
X486758Y269451D01*
X486741Y269468D01*
X486575Y269618D01*
X486391Y269734D01*
X486208Y269851D01*
X486042Y269951D01*
X485892Y270018D01*
X485775Y270068D01*
X485692Y270101D01*
X485658Y270118D01*
X485408Y270201D01*
X485125Y270268D01*
X484842Y270318D01*
X484575Y270351D01*
X484342Y270368D01*
X484159Y270384D01*
X488074D01*
D02*
G37*
G36*
X478610D02*
X470312Y270384D01*
Y259904D01*
Y265169D01*
X470329Y264736D01*
X470346Y264336D01*
X470379Y263969D01*
X470412Y263653D01*
X470446Y263386D01*
X470462Y263286D01*
X470479Y263186D01*
X470496Y263120D01*
X470512Y263069D01*
Y263036D01*
Y263020D01*
X470596Y262670D01*
X470679Y262370D01*
X470779Y262120D01*
X470879Y261903D01*
X470946Y261737D01*
X471012Y261603D01*
X471062Y261537D01*
X471079Y261503D01*
X471279Y261220D01*
X471495Y260987D01*
X471712Y260770D01*
X471912Y260603D01*
X472095Y260470D01*
X472229Y260387D01*
X472328Y260320D01*
X472345Y260303D01*
X472362D01*
X472678Y260170D01*
X473028Y260070D01*
X473378Y260004D01*
X473711Y259954D01*
X473995Y259920D01*
X474128D01*
X474228Y259904D01*
X474445D01*
X474861Y259920D01*
X475244Y259954D01*
X475594Y260020D01*
X475911Y260104D01*
X476211Y260204D01*
X476461Y260303D01*
X476694Y260420D01*
X476911Y260537D01*
X477094Y260653D01*
X477244Y260770D01*
X477377Y260870D01*
X477477Y260970D01*
X477560Y261053D01*
X477610Y261120D01*
X477644Y261153D01*
X477660Y261170D01*
X477827Y261420D01*
X477977Y261720D01*
X478094Y262020D01*
X478210Y262336D01*
X478310Y262686D01*
X478377Y263020D01*
X478493Y263669D01*
X478527Y263986D01*
X478560Y264269D01*
X478577Y264536D01*
X478593Y264769D01*
X478610Y264952D01*
Y260187D01*
Y265219D01*
X478593Y265669D01*
X478560Y266102D01*
X478510Y266502D01*
X478460Y266852D01*
X478427Y267002D01*
X478410Y267152D01*
X478377Y267268D01*
X478360Y267368D01*
X478344Y267452D01*
X478327Y267518D01*
X478310Y267552D01*
Y267568D01*
X478260Y267785D01*
X478194Y267985D01*
X478127Y268168D01*
X478077Y268318D01*
X478010Y268451D01*
X477977Y268535D01*
X477944Y268601D01*
X477927Y268618D01*
X477827Y268785D01*
X477727Y268935D01*
X477627Y269085D01*
X477510Y269218D01*
X477427Y269318D01*
X477344Y269401D01*
X477294Y269451D01*
X477277Y269468D01*
X477111Y269618D01*
X476927Y269734D01*
X476744Y269851D01*
X476577Y269951D01*
X476427Y270018D01*
X476311Y270068D01*
X476227Y270101D01*
X476194Y270118D01*
X475944Y270201D01*
X475661Y270268D01*
X475378Y270318D01*
X475111Y270351D01*
X474878Y270368D01*
X474695Y270384D01*
X478610D01*
D01*
D02*
G37*
G36*
X521632D02*
X519300D01*
X519117Y270034D01*
X518917Y269718D01*
X518700Y269451D01*
X518500Y269201D01*
X518333Y269018D01*
X518183Y268868D01*
X518083Y268785D01*
X518067Y268751D01*
X518050D01*
X517717Y268518D01*
X517367Y268302D01*
X517000Y268118D01*
X516634Y267952D01*
X516317Y267835D01*
X516167Y267768D01*
X516051Y267735D01*
X515951Y267702D01*
X515884Y267668D01*
X515834Y267652D01*
X515817D01*
Y260070D01*
X521632D01*
Y270384D01*
D02*
G37*
G36*
X444369Y270384D02*
X438554D01*
X442036D01*
X441853Y270034D01*
X441653Y269718D01*
X441436Y269451D01*
X441236Y269201D01*
X441070Y269018D01*
X440920Y268868D01*
X440820Y268785D01*
X440803Y268751D01*
X440787D01*
X440453Y268518D01*
X440103Y268302D01*
X439737Y268118D01*
X439370Y267952D01*
X439054Y267835D01*
X438904Y267768D01*
X438787Y267735D01*
X438687Y267702D01*
X438620Y267668D01*
X438570Y267652D01*
X438554D01*
Y260070D01*
Y265352D01*
X438904Y265452D01*
X439220Y265569D01*
X439487Y265669D01*
X439720Y265752D01*
X439920Y265835D01*
X440053Y265902D01*
X440137Y265935D01*
X440170Y265952D01*
X440420Y266085D01*
X440653Y266235D01*
X440886Y266369D01*
X441086Y266519D01*
X441270Y266635D01*
X441403Y266735D01*
X441486Y266802D01*
X441520Y266819D01*
Y260070D01*
X444369D01*
Y270384D01*
D02*
G37*
G36*
X434905D02*
X429090D01*
X432572D01*
X432389Y270034D01*
X432189Y269718D01*
X431972Y269451D01*
X431772Y269201D01*
X431605Y269018D01*
X431456Y268868D01*
X431356Y268785D01*
X431339Y268751D01*
X431322D01*
X430989Y268518D01*
X430639Y268302D01*
X430272Y268118D01*
X429906Y267952D01*
X429589Y267835D01*
X429439Y267768D01*
X429323Y267735D01*
X429223Y267702D01*
X429156Y267668D01*
X429106Y267652D01*
X429090D01*
Y260070D01*
Y265352D01*
X429439Y265452D01*
X429756Y265569D01*
X430023Y265669D01*
X430256Y265752D01*
X430456Y265835D01*
X430589Y265902D01*
X430672Y265935D01*
X430706Y265952D01*
X430956Y266085D01*
X431189Y266235D01*
X431422Y266369D01*
X431622Y266519D01*
X431805Y266635D01*
X431939Y266735D01*
X432022Y266802D01*
X432055Y266819D01*
Y260070D01*
X434905D01*
Y270384D01*
D02*
G37*
%LPD*%
G36*
X457366Y266485D02*
X456916D01*
Y268535D01*
X457366Y266485D01*
D02*
G37*
G36*
X498272Y268651D02*
X498438Y268618D01*
X498572Y268568D01*
X498688Y268501D01*
X498788Y268435D01*
X498855Y268385D01*
X498905Y268351D01*
X498922Y268335D01*
X499038Y268202D01*
X499122Y268068D01*
X499172Y267918D01*
X499222Y267785D01*
X499238Y267668D01*
X499255Y267568D01*
Y267502D01*
Y267485D01*
X499238Y267302D01*
X499205Y267152D01*
X499155Y267002D01*
X499105Y266885D01*
X499038Y266802D01*
X498988Y266719D01*
X498955Y266685D01*
X498938Y266669D01*
X498822Y266569D01*
X498688Y266485D01*
X498538Y266435D01*
X498422Y266385D01*
X498305Y266369D01*
X498222Y266352D01*
X498139D01*
X497939Y266369D01*
X497772Y266402D01*
X497622Y266452D01*
X497489Y266519D01*
X497389Y266569D01*
X497322Y266619D01*
X497272Y266652D01*
X497255Y266669D01*
X497155Y266802D01*
X497072Y266935D01*
X497022Y267069D01*
X496972Y267202D01*
X496955Y267318D01*
X496939Y267418D01*
Y267485D01*
Y267502D01*
X496955Y267685D01*
X496989Y267852D01*
X497039Y267985D01*
X497105Y268118D01*
X497155Y268202D01*
X497205Y268285D01*
X497239Y268318D01*
X497255Y268335D01*
X497389Y268451D01*
X497522Y268535D01*
X497655Y268585D01*
X497789Y268635D01*
X497905Y268651D01*
X498005Y268668D01*
X498088D01*
X498272Y268651D01*
D02*
G37*
G36*
X498288Y264669D02*
X498455Y264619D01*
X498622Y264552D01*
X498755Y264469D01*
X498872Y264386D01*
X498955Y264319D01*
X499005Y264269D01*
X499022Y264252D01*
X499155Y264086D01*
X499255Y263903D01*
X499338Y263719D01*
X499388Y263536D01*
X499422Y263386D01*
X499438Y263270D01*
Y263186D01*
Y263153D01*
X499422Y262920D01*
X499371Y262703D01*
X499305Y262520D01*
X499238Y262353D01*
X499155Y262220D01*
X499088Y262136D01*
X499038Y262070D01*
X499022Y262053D01*
X498872Y261920D01*
X498705Y261820D01*
X498555Y261737D01*
X498422Y261686D01*
X498305Y261653D01*
X498205Y261637D01*
X498122D01*
X497922Y261653D01*
X497755Y261703D01*
X497589Y261770D01*
X497455Y261853D01*
X497339Y261920D01*
X497255Y261986D01*
X497205Y262036D01*
X497189Y262053D01*
X497055Y262220D01*
X496955Y262403D01*
X496889Y262586D01*
X496839Y262753D01*
X496805Y262920D01*
X496789Y263036D01*
Y263120D01*
Y263153D01*
X496805Y263403D01*
X496856Y263619D01*
X496906Y263819D01*
X496989Y263969D01*
X497055Y264103D01*
X497105Y264186D01*
X497155Y264252D01*
X497172Y264269D01*
X497322Y264403D01*
X497472Y264503D01*
X497639Y264586D01*
X497772Y264636D01*
X497905Y264669D01*
X498005Y264686D01*
X498088D01*
X498288Y264669D01*
D02*
G37*
G36*
X483609Y270368D02*
X483242Y270334D01*
X482909Y270284D01*
X482593Y270201D01*
X482309Y270118D01*
X482043Y270018D01*
X481809Y269918D01*
X481609Y269801D01*
X481409Y269701D01*
X481259Y269585D01*
X481126Y269485D01*
X481010Y269401D01*
X480926Y269318D01*
X480860Y269268D01*
X480826Y269235D01*
X480810Y269218D01*
X480626Y268985D01*
X480476Y268718D01*
X480326Y268418D01*
X480210Y268102D01*
X480110Y267768D01*
X480027Y267435D01*
X479910Y266769D01*
X479860Y266452D01*
X479827Y266152D01*
X479810Y265869D01*
X479793Y265636D01*
X479776Y265452D01*
Y270384D01*
X483992D01*
X483609Y270368D01*
D02*
G37*
G36*
X484125Y268468D02*
X484342Y268385D01*
X484525Y268285D01*
X484659Y268151D01*
X484775Y268018D01*
X484859Y267918D01*
X484909Y267835D01*
X484925Y267802D01*
X484992Y267652D01*
X485042Y267485D01*
X485092Y267285D01*
X485125Y267085D01*
X485192Y266635D01*
X485225Y266185D01*
X485242Y265969D01*
X485258Y265769D01*
Y265585D01*
X485275Y265419D01*
Y265286D01*
Y265186D01*
Y265119D01*
Y265102D01*
Y264852D01*
Y264619D01*
X485258Y264403D01*
Y264202D01*
X485242Y264019D01*
X485225Y263853D01*
X485209Y263569D01*
X485175Y263353D01*
X485142Y263186D01*
X485125Y263103D01*
Y263069D01*
X485059Y262836D01*
X484992Y262653D01*
X484909Y262486D01*
X484842Y262353D01*
X484775Y262253D01*
X484709Y262170D01*
X484675Y262136D01*
X484659Y262120D01*
X484542Y262020D01*
X484409Y261953D01*
X484275Y261903D01*
X484159Y261870D01*
X484059Y261853D01*
X483975Y261836D01*
X483909D01*
X483675Y261870D01*
X483476Y261953D01*
X483309Y262053D01*
X483159Y262186D01*
X483059Y262320D01*
X482976Y262420D01*
X482926Y262503D01*
X482909Y262536D01*
X482859Y262686D01*
X482792Y262853D01*
X482759Y263036D01*
X482709Y263236D01*
X482659Y263669D01*
X482626Y264119D01*
X482609Y264319D01*
X482593Y264519D01*
Y264702D01*
X482576Y264852D01*
Y264986D01*
Y265086D01*
Y265152D01*
Y265169D01*
Y265519D01*
X482593Y265835D01*
X482609Y266119D01*
X482626Y266385D01*
X482643Y266619D01*
X482676Y266835D01*
X482692Y267035D01*
X482726Y267202D01*
X482759Y267335D01*
X482776Y267468D01*
X482809Y267568D01*
X482826Y267652D01*
X482842Y267702D01*
X482859Y267752D01*
X482876Y267785D01*
X482942Y267918D01*
X483009Y268018D01*
X483176Y268202D01*
X483342Y268335D01*
X483509Y268418D01*
X483659Y268468D01*
X483775Y268485D01*
X483859Y268501D01*
X483892D01*
X484125Y268468D01*
D02*
G37*
G36*
X474145Y270368D02*
X473778Y270334D01*
X473445Y270284D01*
X473128Y270201D01*
X472845Y270118D01*
X472578Y270018D01*
X472345Y269918D01*
X472145Y269801D01*
X471945Y269701D01*
X471795Y269585D01*
X471662Y269485D01*
X471545Y269401D01*
X471462Y269318D01*
X471395Y269268D01*
X471362Y269235D01*
X471345Y269218D01*
X471162Y268985D01*
X471012Y268718D01*
X470862Y268418D01*
X470746Y268102D01*
X470645Y267768D01*
X470562Y267435D01*
X470446Y266768D01*
X470396Y266452D01*
X470362Y266152D01*
X470346Y265869D01*
X470329Y265636D01*
X470312Y265452D01*
Y270384D01*
X474528Y270384D01*
X474145Y270368D01*
D02*
G37*
G36*
X474661Y268468D02*
X474878Y268385D01*
X475061Y268285D01*
X475194Y268151D01*
X475311Y268018D01*
X475394Y267918D01*
X475444Y267835D01*
X475461Y267802D01*
X475528Y267652D01*
X475578Y267485D01*
X475628Y267285D01*
X475661Y267085D01*
X475728Y266635D01*
X475761Y266185D01*
X475778Y265969D01*
X475794Y265769D01*
Y265585D01*
X475811Y265419D01*
Y265286D01*
Y265186D01*
Y265119D01*
Y265102D01*
Y264852D01*
Y264619D01*
X475794Y264403D01*
Y264202D01*
X475778Y264019D01*
X475761Y263853D01*
X475744Y263569D01*
X475711Y263353D01*
X475678Y263186D01*
X475661Y263103D01*
Y263069D01*
X475594Y262836D01*
X475528Y262653D01*
X475444Y262486D01*
X475378Y262353D01*
X475311Y262253D01*
X475244Y262170D01*
X475211Y262136D01*
X475194Y262120D01*
X475078Y262020D01*
X474944Y261953D01*
X474811Y261903D01*
X474695Y261870D01*
X474594Y261853D01*
X474511Y261836D01*
X474445Y261836D01*
X474211Y261870D01*
X474011Y261953D01*
X473845Y262053D01*
X473695Y262186D01*
X473595Y262320D01*
X473512Y262420D01*
X473461Y262503D01*
X473445Y262536D01*
X473395Y262686D01*
X473328Y262853D01*
X473295Y263036D01*
X473245Y263236D01*
X473195Y263669D01*
X473162Y264119D01*
X473145Y264319D01*
X473128Y264519D01*
Y264702D01*
X473112Y264852D01*
Y264986D01*
Y265086D01*
Y265152D01*
Y265169D01*
Y265519D01*
X473128Y265835D01*
X473145Y266119D01*
X473162Y266385D01*
X473178Y266619D01*
X473212Y266835D01*
X473228Y267035D01*
X473261Y267202D01*
X473295Y267335D01*
X473312Y267468D01*
X473345Y267568D01*
X473362Y267652D01*
X473378Y267702D01*
X473395Y267752D01*
X473411Y267785D01*
X473478Y267918D01*
X473545Y268018D01*
X473711Y268202D01*
X473878Y268335D01*
X474045Y268418D01*
X474195Y268468D01*
X474311Y268485D01*
X474395Y268501D01*
X474428D01*
X474661Y268468D01*
D02*
G37*
G36*
X518783Y260070D02*
X515817D01*
Y265352D01*
X516167Y265452D01*
X516484Y265569D01*
X516750Y265669D01*
X516984Y265752D01*
X517184Y265835D01*
X517317Y265902D01*
X517400Y265935D01*
X517434Y265952D01*
X517683Y266085D01*
X517917Y266235D01*
X518150Y266369D01*
X518350Y266519D01*
X518533Y266635D01*
X518667Y266735D01*
X518750Y266802D01*
X518783Y266819D01*
Y260070D01*
D02*
G37*
D57*
X106918Y57404D02*
G03*
X106918Y57404I-1000J0D01*
G01*
X113440Y355600D02*
G03*
X113440Y355600I-1000J0D01*
G01*
X67548Y98660D02*
G03*
X67548Y98660I-1000J0D01*
G01*
X487250Y157650D02*
G03*
X487250Y157650I-1000J0D01*
G01*
X352850Y154650D02*
G03*
X352850Y154650I-1000J0D01*
G01*
X86614Y344424D02*
X104394Y362204D01*
X86614Y359410D02*
X97028Y369824D01*
X79502Y322326D02*
X112522Y355346D01*
X86614Y314452D02*
X119634Y347472D01*
X87884Y300482D02*
X126492Y339090D01*
X86741Y314325D02*
X119126Y346710D01*
X101346Y298704D02*
X134366Y331724D01*
X93472Y373634D02*
X166624Y300482D01*
X92964Y373634D02*
X93472D01*
X86614D02*
X92964D01*
X542417Y189357D02*
X573469Y220408D01*
X527812Y188468D02*
X551307Y211963D01*
X518414Y194056D02*
X551053Y226695D01*
X510921Y201549D02*
X558165Y248793D01*
X524002Y188468D02*
X550926D01*
X469900Y242570D02*
X524002Y188468D01*
X489204Y223520D02*
X529717Y265303D01*
X496570Y217170D02*
X544703Y265303D01*
X503682Y209296D02*
X551053Y256667D01*
X447294Y242824D02*
X463550Y259080D01*
X462280Y242824D02*
X477520Y258064D01*
X473583Y239141D02*
X492633Y258191D01*
X481203Y231775D02*
X507619Y258191D01*
X489204Y223520D02*
X529717Y265303D01*
X387223Y242697D02*
X403352Y259080D01*
X402336Y242824D02*
X424815Y265303D01*
X417449Y242951D02*
X432943Y258445D01*
X432308Y242824D02*
X447929Y258445D01*
X447294Y242824D02*
X463550Y259080D01*
X327406Y242824D02*
X344170Y259080D01*
X342392Y242824D02*
X357886Y258318D01*
X357505Y242951D02*
X373253Y258699D01*
X372237Y242952D02*
X387562Y258104D01*
X387223Y242697D02*
X403352Y259080D01*
X267462Y242824D02*
X283718Y258826D01*
X282448Y242824D02*
X298069Y258445D01*
X297561Y242951D02*
X312928Y258318D01*
X312420Y242824D02*
X328549Y258953D01*
X327406Y242824D02*
X344170Y259080D01*
X207518Y242824D02*
X223520Y259080D01*
X222504Y242824D02*
X237998Y258318D01*
X237617Y242951D02*
X252603Y257937D01*
X252476Y242824D02*
X268224Y258572D01*
X267462Y242824D02*
X283718Y258826D01*
X147574Y242824D02*
X162052Y258064D01*
X162814Y243078D02*
X177927Y258191D01*
X177673Y242951D02*
X192786Y258064D01*
X192532Y242824D02*
X207899Y258191D01*
X207518Y242824D02*
X223520Y259080D01*
X87503Y242697D02*
X103251Y258445D01*
X102870Y243078D02*
X118491Y258699D01*
X117729Y242951D02*
X132715Y257937D01*
X132588Y242824D02*
X148209Y258445D01*
X147574Y242824D02*
X162052Y258064D01*
X506984Y284734D02*
X521843Y299593D01*
X513969Y276733D02*
X536829Y299593D01*
X529463Y277241D02*
X551815Y299593D01*
X544195Y276987D02*
X566801Y299593D01*
X439293Y276987D02*
X461899Y299593D01*
X462026Y284734D02*
X476885Y299593D01*
X476758Y284480D02*
X491871Y299593D01*
X492506Y285242D02*
X506857Y299593D01*
X506984Y284734D02*
X521843Y299593D01*
X387096Y284734D02*
X401955Y299593D01*
Y284607D02*
X416941Y299593D01*
X409575Y277241D02*
X431927Y299593D01*
X424307Y276987D02*
X446913Y299593D01*
X439293Y276987D02*
X461899Y299593D01*
X327660Y284480D02*
X342011Y299593D01*
X342392Y284988D02*
X356997Y299593D01*
Y284607D02*
X371983Y299593D01*
X372364Y284988D02*
X386969Y299593D01*
X387096Y284734D02*
X401955Y299593D01*
X267208Y284734D02*
X282067Y299593D01*
X281940Y284480D02*
X297053Y299593D01*
Y284607D02*
X312039Y299593D01*
X311785Y284353D02*
X327025Y299593D01*
X327660Y284480D02*
X342011Y299593D01*
X207264Y284226D02*
X222123Y299593D01*
X214249Y276733D02*
X237109Y299593D01*
X229743Y277241D02*
X252095Y299593D01*
X251841Y284353D02*
X267081Y299593D01*
X267208Y284734D02*
X282067Y299593D01*
X147574Y284480D02*
X164737Y302369D01*
X162306Y284734D02*
X177165Y299593D01*
X177546Y284988D02*
X192151Y299593D01*
X192659Y285115D02*
X207137Y299593D01*
X207264Y284226D02*
X222123Y299593D01*
X79629Y276987D02*
X134747Y332105D01*
X94361Y276733D02*
X142240Y324612D01*
X116586Y283972D02*
X149606Y316992D01*
X132207Y284607D02*
X157099Y309499D01*
X147574Y284480D02*
X164737Y302369D01*
X455930Y48514D02*
Y89154D01*
X476250Y48514D02*
Y89154D01*
X455930D02*
X476250D01*
X455930Y48514D02*
X476250D01*
X309880Y167640D02*
X312420D01*
X309880Y175260D02*
X312420D01*
X446786Y45974D02*
Y71374D01*
X395986Y45974D02*
X446786D01*
X395986D02*
Y71374D01*
X446786D01*
X480790Y76147D02*
Y83144D01*
X484289D01*
X485455Y81978D01*
Y79645D01*
X484289Y78479D01*
X480790D01*
X483123D02*
X485455Y76147D01*
X487788Y83144D02*
X492453Y76147D01*
Y83144D02*
X487788Y76147D01*
X480790Y69947D02*
X485455D01*
X483123D01*
Y62949D01*
X487788Y69947D02*
X492453Y62949D01*
Y69947D02*
X487788Y62949D01*
X485455Y55584D02*
X484289Y56750D01*
X481956D01*
X480790Y55584D01*
Y50918D01*
X481956Y49752D01*
X484289D01*
X485455Y50918D01*
Y53251D01*
X483123D01*
X487788Y49752D02*
Y56750D01*
X492453Y49752D01*
Y56750D01*
X494785D02*
Y49752D01*
X498284D01*
X499451Y50918D01*
Y55584D01*
X498284Y56750D01*
X494785D01*
X407892Y371787D02*
Y361791D01*
X412890D01*
X414557Y363457D01*
Y365123D01*
X412890Y366789D01*
X407892D01*
X412890D01*
X414557Y368455D01*
Y370121D01*
X412890Y371787D01*
X407892D01*
X419555Y368455D02*
X422887D01*
X424553Y366789D01*
Y361791D01*
X419555D01*
X417889Y363457D01*
X419555Y365123D01*
X424553D01*
X429552Y370121D02*
Y368455D01*
X427886D01*
X431218D01*
X429552D01*
Y363457D01*
X431218Y361791D01*
X437882Y370121D02*
Y368455D01*
X436216D01*
X439548D01*
X437882D01*
Y363457D01*
X439548Y361791D01*
X449545D02*
X446213D01*
X444547Y363457D01*
Y366789D01*
X446213Y368455D01*
X449545D01*
X451211Y366789D01*
Y365123D01*
X444547D01*
X454544Y368455D02*
Y361791D01*
Y365123D01*
X456210Y366789D01*
X457876Y368455D01*
X459542D01*
X464540D02*
Y363457D01*
X466207Y361791D01*
X471205D01*
Y360125D01*
X469539Y358458D01*
X467873D01*
X471205Y361791D02*
Y368455D01*
X474537Y361791D02*
Y371787D01*
X479536D01*
X481202Y370121D01*
Y366789D01*
X479536Y365123D01*
X474537D01*
X484534Y368455D02*
Y361791D01*
Y365123D01*
X486200Y366789D01*
X487866Y368455D01*
X489532D01*
X496197Y361791D02*
X499529D01*
X501195Y363457D01*
Y366789D01*
X499529Y368455D01*
X496197D01*
X494531Y366789D01*
Y363457D01*
X496197Y361791D01*
X506194Y370121D02*
Y368455D01*
X504528D01*
X507860D01*
X506194D01*
Y363457D01*
X507860Y361791D01*
X517856D02*
X514524D01*
X512858Y363457D01*
Y366789D01*
X514524Y368455D01*
X517856D01*
X519523Y366789D01*
Y365123D01*
X512858D01*
X529519Y368455D02*
X524521D01*
X522855Y366789D01*
Y363457D01*
X524521Y361791D01*
X529519D01*
X534518Y370121D02*
Y368455D01*
X532852D01*
X536184D01*
X534518D01*
Y363457D01*
X536184Y361791D01*
X542849D02*
X546181D01*
X547847Y363457D01*
Y366789D01*
X546181Y368455D01*
X542849D01*
X541182Y366789D01*
Y363457D01*
X542849Y361791D01*
X551179Y368455D02*
Y361791D01*
Y365123D01*
X552845Y366789D01*
X554511Y368455D01*
X556177D01*
X407892Y351659D02*
X411224D01*
X409558D01*
Y341662D01*
X407892D01*
X411224D01*
X416223D02*
Y351659D01*
X421221D01*
X422887Y349993D01*
Y346661D01*
X421221Y344995D01*
X416223D01*
X426219Y341662D02*
Y348327D01*
X429552Y351659D01*
X432884Y348327D01*
Y341662D01*
Y346661D01*
X426219D01*
X452878Y341662D02*
X446213D01*
X452878Y348327D01*
Y349993D01*
X451211Y351659D01*
X447879D01*
X446213Y349993D01*
X456210D02*
X457876Y351659D01*
X461208D01*
X462874Y349993D01*
Y343328D01*
X461208Y341662D01*
X457876D01*
X456210Y343328D01*
Y349993D01*
X472871Y341662D02*
X466207D01*
X472871Y348327D01*
Y349993D01*
X471205Y351659D01*
X467873D01*
X466207Y349993D01*
X476203Y341662D02*
X479536D01*
X477869D01*
Y351659D01*
X476203Y349993D01*
X407892Y324866D02*
Y334863D01*
X411224Y331531D01*
X414557Y334863D01*
Y324866D01*
X419555Y331531D02*
X422887D01*
X424553Y329865D01*
Y324866D01*
X419555D01*
X417889Y326532D01*
X419555Y328198D01*
X424553D01*
X427886Y331531D02*
Y324866D01*
Y328198D01*
X429552Y329865D01*
X431218Y331531D01*
X432884D01*
X444547D02*
X439548D01*
X437882Y329865D01*
Y326532D01*
X439548Y324866D01*
X444547D01*
X449545D02*
X452878D01*
X454544Y326532D01*
Y329865D01*
X452878Y331531D01*
X449545D01*
X447879Y329865D01*
Y326532D01*
X449545Y324866D01*
X474537Y333197D02*
X472871Y334863D01*
X469539D01*
X467873Y333197D01*
Y331531D01*
X469539Y329865D01*
X472871D01*
X474537Y328198D01*
Y326532D01*
X472871Y324866D01*
X469539D01*
X467873Y326532D01*
X479536Y333197D02*
Y331531D01*
X477869D01*
X481202D01*
X479536D01*
Y326532D01*
X481202Y324866D01*
X487866Y331531D02*
X491199D01*
X492865Y329865D01*
Y324866D01*
X487866D01*
X486200Y326532D01*
X487866Y328198D01*
X492865D01*
X496197Y331531D02*
Y326532D01*
X497863Y324866D01*
X502861D01*
Y331531D01*
X506194Y334863D02*
Y324866D01*
X511192D01*
X512858Y326532D01*
Y328198D01*
Y329865D01*
X511192Y331531D01*
X506194D01*
X521189Y324866D02*
X517857D01*
X516190Y326532D01*
Y329865D01*
X517857Y331531D01*
X521189D01*
X522855Y329865D01*
Y328198D01*
X516190D01*
X526187Y331531D02*
Y324866D01*
Y328198D01*
X527853Y329865D01*
X529520Y331531D01*
X531186D01*
X414557Y318067D02*
X407892D01*
Y308070D01*
X414557D01*
X407892Y313068D02*
X411224D01*
X417889Y318067D02*
X424553D01*
X421221D01*
Y308070D01*
X427886Y318067D02*
Y308070D01*
Y313068D01*
X434550D01*
Y318067D01*
Y308070D01*
X447879Y318067D02*
X454544D01*
Y316401D01*
X447879Y309736D01*
Y308070D01*
X454544D01*
X457876Y314734D02*
Y309736D01*
X459542Y308070D01*
X464540D01*
Y314734D01*
X472871Y308070D02*
X469539D01*
X467873Y309736D01*
Y313068D01*
X469539Y314734D01*
X472871D01*
X474537Y313068D01*
Y311402D01*
X467873D01*
X477869Y314734D02*
Y308070D01*
Y311402D01*
X479536Y313068D01*
X481202Y314734D01*
X482868D01*
X487866Y308070D02*
X491199D01*
X489532D01*
Y314734D01*
X487866D01*
X502861D02*
X497863D01*
X496197Y313068D01*
Y309736D01*
X497863Y308070D01*
X502861D01*
X506194Y318067D02*
Y308070D01*
Y313068D01*
X507860Y314734D01*
X511192D01*
X512858Y313068D01*
Y308070D01*
X389128Y83198D02*
X393793D01*
X391461D01*
Y76200D01*
X400791Y83198D02*
X396126D01*
Y76200D01*
X400791D01*
X396126Y79699D02*
X398458D01*
X403124Y76200D02*
Y83198D01*
X405456Y80865D01*
X407789Y83198D01*
Y76200D01*
X410121D02*
Y83198D01*
X413620D01*
X414786Y82031D01*
Y79699D01*
X413620Y78533D01*
X410121D01*
X424117Y82031D02*
X425283Y83198D01*
X427616D01*
X428782Y82031D01*
Y80865D01*
X427616Y79699D01*
X426449D01*
X427616D01*
X428782Y78533D01*
Y77366D01*
X427616Y76200D01*
X425283D01*
X424117Y77366D01*
X431115Y76200D02*
Y77366D01*
X432281D01*
Y76200D01*
X431115D01*
X436946Y82031D02*
X438112Y83198D01*
X440445D01*
X441611Y82031D01*
Y80865D01*
X440445Y79699D01*
X439278D01*
X440445D01*
X441611Y78533D01*
Y77366D01*
X440445Y76200D01*
X438112D01*
X436946Y77366D01*
X443944Y83198D02*
Y78533D01*
X446276Y76200D01*
X448609Y78533D01*
Y83198D01*
X407679Y96275D02*
Y103273D01*
X412344Y96275D01*
Y103273D01*
X414677Y96275D02*
Y103273D01*
X417009Y100940D01*
X419342Y103273D01*
Y96275D01*
X425173Y103273D02*
X422841D01*
X421674Y102107D01*
Y97441D01*
X422841Y96275D01*
X425173D01*
X426340Y97441D01*
Y102107D01*
X425173Y103273D01*
X433337Y102107D02*
X432171Y103273D01*
X429839D01*
X428672Y102107D01*
Y100940D01*
X429839Y99774D01*
X432171D01*
X433337Y98608D01*
Y97441D01*
X432171Y96275D01*
X429839D01*
X428672Y97441D01*
X446167Y103273D02*
X443834D01*
X442668Y102107D01*
Y97441D01*
X443834Y96275D01*
X446167D01*
X447333Y97441D01*
Y102107D01*
X446167Y103273D01*
X449665Y96275D02*
Y103273D01*
X453164D01*
X454331Y102107D01*
Y99774D01*
X453164Y98608D01*
X449665D01*
X461328Y103273D02*
X456663D01*
Y96275D01*
X461328D01*
X456663Y99774D02*
X458996D01*
X463661Y96275D02*
Y103273D01*
X468326Y96275D01*
Y103273D01*
D58*
X166624Y300482D02*
X549910Y300482D01*
X469900Y242824D02*
X524002Y188722D01*
X549910Y188468D02*
Y300482D01*
X524002Y188468D02*
X549910D01*
X93472Y373634D02*
X166624Y300482D01*
X87884Y373634D02*
X93472Y373634D01*
X87884Y242824D02*
X469900D01*
X87884Y373634D02*
X87884Y242824D01*
D59*
X194416Y83550D02*
Y106950D01*
X107916Y83550D02*
Y106950D01*
X118540Y321600D02*
Y379100D01*
X242540D01*
Y321600D02*
Y379100D01*
X118540Y321600D02*
X242540D01*
X12060Y106310D02*
X69560D01*
X12060D02*
Y230310D01*
X69560D01*
Y106310D02*
Y230310D01*
X484450Y114650D02*
X496250D01*
X406250D02*
X418050D01*
X406250D02*
Y150650D01*
X418050D01*
X484450D02*
X496250D01*
Y114650D02*
Y150650D01*
X459450D02*
X468050D01*
X459450Y114650D02*
X468050D01*
X434450Y150650D02*
X443050D01*
X434450Y114650D02*
X443050D01*
X288850Y60250D02*
Y61300D01*
X358850Y60250D02*
Y61300D01*
X288850Y129200D02*
Y130250D01*
X358850Y129200D02*
Y130250D01*
X288850Y60250D02*
X289900D01*
X357800D02*
X358850D01*
X288850Y130250D02*
X289900D01*
X357800D02*
X358850D01*
D60*
X414528Y107950D02*
X460248D01*
D61*
X314706Y215646D02*
Y220472D01*
X431546Y170434D02*
X436372D01*
X573822Y62992D02*
Y67818D01*
X544612Y62992D02*
Y67818D01*
X515402Y63373D02*
Y68198D01*
X519430Y160274D02*
X573278D01*
X519430Y111506D02*
X573278D01*
X519176Y130556D02*
Y141478D01*
X574040Y130683D02*
Y141605D01*
D62*
X362966Y375923D02*
X352809D01*
X285753Y370840D02*
Y380997D01*
X280674Y375918D02*
X290831D01*
X633987Y208280D02*
Y218437D01*
X633732Y266700D02*
Y276857D01*
X628654Y271778D02*
X638811D01*
X13211Y267716D02*
Y277873D01*
X8132Y272794D02*
X18289D01*
X12194Y345186D02*
Y355343D01*
%TF.MD5,f51f2782e3c09c81f81d24f35b5fe24a*%
M02*
