%TF.GenerationSoftware,Altium Limited,Altium NEXUS,2.1.5 (53)*%
G04 Layer_Physical_Order=2*
G04 Layer_Color=16711680*
%FSLAX44Y44*%
%MOMM*%
%TF.FileFunction,Copper,L2,Bot,Signal*%
%TF.Part,Single*%
G01*
G75*
%TA.AperFunction,SMDPad,CuDef*%
%ADD18R,0.8000X0.7000*%
%ADD19R,0.6000X0.5000*%
%ADD20R,0.9000X1.0000*%
%ADD21R,0.5000X0.6000*%
%ADD24R,0.7000X0.8000*%
%ADD25R,1.4000X1.1000*%
%TA.AperFunction,Conductor*%
%ADD26C,0.5000*%
%ADD27C,0.4000*%
%ADD28C,0.2540*%
%ADD29C,0.2000*%
%TA.AperFunction,WasherPad*%
%ADD30C,5.0000*%
%TA.AperFunction,ComponentPad*%
%ADD31C,0.9000*%
%ADD32C,1.0000*%
%ADD33R,1.0000X1.0000*%
%ADD34C,1.5900*%
%ADD35R,1.5900X1.5900*%
%ADD36R,1.5900X1.5900*%
%ADD37R,4.0000X4.0000*%
%ADD38R,4.0000X4.0000*%
%ADD39R,1.6000X1.6000*%
%ADD40C,1.6000*%
%TA.AperFunction,ViaPad*%
%ADD41C,0.6000*%
%TA.AperFunction,SMDPad,CuDef*%
%ADD42R,0.3556X1.0604*%
%ADD43O,2.5000X0.7000*%
%ADD44R,0.6000X0.6000*%
%ADD45R,1.3720X0.7100*%
%ADD46R,1.0000X1.0000*%
%ADD47R,2.7000X6.2000*%
%ADD48R,1.3000X1.8000*%
%ADD49R,2.6000X1.1000*%
%TA.AperFunction,ConnectorPad*%
%ADD50R,0.5000X2.3000*%
%ADD51R,2.0000X2.5000*%
%TA.AperFunction,SMDPad,CuDef*%
%ADD52R,0.6000X0.6000*%
%ADD53R,0.2294X0.8080*%
%ADD54R,2.5400X1.6510*%
G04:AMPARAMS|DCode=55|XSize=1.45mm|YSize=0.59mm|CornerRadius=0.0738mm|HoleSize=0mm|Usage=FLASHONLY|Rotation=0.000|XOffset=0mm|YOffset=0mm|HoleType=Round|Shape=RoundedRectangle|*
%AMROUNDEDRECTD55*
21,1,1.4500,0.4425,0,0,0.0*
21,1,1.3025,0.5900,0,0,0.0*
1,1,0.1475,0.6513,-0.2213*
1,1,0.1475,-0.6513,-0.2213*
1,1,0.1475,-0.6513,0.2213*
1,1,0.1475,0.6513,0.2213*
%
%ADD55ROUNDEDRECTD55*%
%TA.AperFunction,BGAPad,CuDef*%
%ADD56C,0.8000*%
G36*
X229351Y385036D02*
X229351Y273558D01*
X224483Y268689D01*
X223921Y267849D01*
X223724Y266858D01*
Y226848D01*
X221919Y226489D01*
X220341Y225435D01*
X219287Y223857D01*
X218917Y221996D01*
X219116Y220994D01*
X207976Y209854D01*
X206597Y210272D01*
X206460Y210962D01*
X205516Y212374D01*
X204104Y213318D01*
X202438Y213650D01*
X200772Y213318D01*
X199359Y212374D01*
X199033Y211886D01*
X196786D01*
X196219Y212735D01*
X194641Y213789D01*
X192780Y214159D01*
X174780D01*
X172919Y213789D01*
X171341Y212735D01*
X170774Y211886D01*
X165806D01*
Y214978D01*
X156266D01*
Y212298D01*
X152090D01*
Y214978D01*
X142550D01*
Y204438D01*
X152090D01*
Y207118D01*
X156266D01*
Y204438D01*
X165806D01*
Y206706D01*
X170774D01*
X171341Y205857D01*
X172919Y204803D01*
X174780Y204433D01*
X192780D01*
X194641Y204803D01*
X196219Y205857D01*
X196786Y206706D01*
X199033D01*
X199359Y206217D01*
X200772Y205274D01*
X202438Y204942D01*
X204104Y205274D01*
X205388Y206132D01*
X205977Y205985D01*
X206658Y205640D01*
Y185291D01*
X191979Y170612D01*
X190466Y170640D01*
X189802Y171084D01*
X189018Y171239D01*
X175993D01*
X175210Y171084D01*
X174546Y170640D01*
X174102Y169976D01*
X174022Y169570D01*
X171846D01*
Y170988D01*
X155306D01*
Y157448D01*
X171846D01*
Y164390D01*
X174022D01*
X174102Y163984D01*
X174546Y163320D01*
X175208Y162878D01*
X175210Y162867D01*
Y161593D01*
X175208Y161582D01*
X174546Y161140D01*
X174102Y160476D01*
X173947Y159692D01*
Y155267D01*
X174102Y154484D01*
X174546Y153820D01*
X175210Y153377D01*
X175993Y153221D01*
Y151964D01*
X175316Y151829D01*
X174741Y151445D01*
X174357Y150870D01*
X174222Y150192D01*
Y149250D01*
X182506D01*
Y147980D01*
X183776D01*
Y143996D01*
X189018D01*
X189696Y144131D01*
X189942Y144295D01*
X191037Y143878D01*
X191212Y143733D01*
Y140930D01*
X189866D01*
Y133390D01*
X191546D01*
Y129490D01*
X174706D01*
Y115950D01*
X203246D01*
Y129490D01*
X196726D01*
Y133390D01*
X198406D01*
Y140930D01*
X196392D01*
Y143912D01*
X197646Y144320D01*
X198310Y143876D01*
X199093Y143721D01*
X199657D01*
X199710Y143710D01*
X199762Y143721D01*
X201546D01*
Y140930D01*
X199866D01*
Y133390D01*
X208406D01*
Y140930D01*
X206726D01*
Y143721D01*
X212118D01*
X212902Y143876D01*
X213566Y144320D01*
X214009Y144984D01*
X214165Y145767D01*
Y150192D01*
X214009Y150976D01*
X213566Y151640D01*
X212904Y152082D01*
X212902Y152093D01*
Y153367D01*
X212904Y153378D01*
X213566Y153820D01*
X214009Y154484D01*
X214165Y155267D01*
Y159692D01*
X214009Y160476D01*
X213566Y161140D01*
X212904Y161582D01*
X212902Y161593D01*
Y162867D01*
X212904Y162878D01*
X213566Y163320D01*
X214009Y163984D01*
X214105Y164466D01*
X219870D01*
Y162362D01*
X222914D01*
Y100528D01*
X220440D01*
Y90988D01*
X230980D01*
Y100528D01*
X228094D01*
Y162362D01*
X230410D01*
Y171902D01*
X219870D01*
Y169646D01*
X214075D01*
X214009Y169976D01*
X213566Y170640D01*
X212902Y171084D01*
X212118Y171239D01*
X201591D01*
X201105Y172413D01*
X211079Y182387D01*
X211641Y183227D01*
X211838Y184218D01*
Y193844D01*
X213108Y194230D01*
X213584Y193517D01*
X214996Y192574D01*
X216662Y192242D01*
X218328Y192574D01*
X218933Y192978D01*
X220341Y193157D01*
X221919Y192103D01*
X223780Y191733D01*
X241780D01*
X243641Y192103D01*
X245219Y193157D01*
X246273Y194735D01*
X246643Y196596D01*
X246273Y198457D01*
X245219Y200035D01*
X243641Y201089D01*
X241780Y201459D01*
X223780D01*
X221919Y201089D01*
X220341Y200035D01*
X218933Y200214D01*
X218328Y200618D01*
X216662Y200950D01*
X214996Y200618D01*
X213584Y199674D01*
X213108Y198962D01*
X211838Y199348D01*
Y206391D01*
X222778Y217332D01*
X223780Y217133D01*
X241780D01*
X243641Y217503D01*
X245219Y218557D01*
X245264Y218624D01*
X245799Y218764D01*
X246574Y218817D01*
X246948Y218567D01*
X247295Y218282D01*
X247440Y218238D01*
X247567Y218154D01*
X248007Y218066D01*
X248437Y217936D01*
X248589Y217951D01*
X248737Y217921D01*
X323292Y217921D01*
Y213868D01*
X323489Y212877D01*
X324051Y212037D01*
X330401Y205687D01*
X331241Y205125D01*
X332232Y204928D01*
X333036D01*
X333421Y203658D01*
X333195Y203507D01*
X290269Y160581D01*
X289707Y159741D01*
X289510Y158750D01*
Y154535D01*
X289021Y154208D01*
X288078Y152796D01*
X287746Y151130D01*
X288078Y149464D01*
X289021Y148052D01*
X290434Y147108D01*
X292100Y146776D01*
X293766Y147108D01*
X295179Y148052D01*
X296122Y149464D01*
X296454Y151130D01*
X296122Y152796D01*
X295179Y154208D01*
X294690Y154535D01*
Y157677D01*
X296728Y159715D01*
X297906Y159130D01*
X298238Y157464D01*
X299181Y156052D01*
X299670Y155725D01*
Y114440D01*
X298635Y113537D01*
X298450Y113574D01*
X296784Y113242D01*
X295371Y112298D01*
X294428Y110886D01*
X294096Y109220D01*
X294428Y107554D01*
X295371Y106142D01*
X296084Y105666D01*
X295698Y104396D01*
X292030D01*
Y115670D01*
X282300D01*
Y103440D01*
X288131D01*
X288617Y102267D01*
X265109Y78758D01*
X264547Y77918D01*
X264350Y76926D01*
Y76336D01*
X263080Y76211D01*
X262774Y77748D01*
X261609Y79492D01*
X259866Y80656D01*
X257810Y81065D01*
X255754Y80656D01*
X254011Y79492D01*
X252846Y77748D01*
X252437Y75692D01*
X252846Y73636D01*
X254011Y71892D01*
X255754Y70728D01*
X257810Y70319D01*
X259866Y70728D01*
X260532Y71173D01*
X261342Y70186D01*
X259237Y68081D01*
X257810Y68365D01*
X255754Y67956D01*
X254011Y66792D01*
X252846Y65048D01*
X252437Y62992D01*
X252846Y60936D01*
X254011Y59193D01*
X255754Y58028D01*
X257810Y57619D01*
X259866Y58028D01*
X261609Y59193D01*
X262774Y60936D01*
X263183Y62992D01*
X262899Y64419D01*
X268760Y70279D01*
X268807Y70279D01*
X270030Y69889D01*
Y63210D01*
X279760D01*
Y75440D01*
X270912D01*
X270386Y76710D01*
X289071Y95395D01*
X289796Y95157D01*
X290317Y94845D01*
X290618Y93330D01*
X291562Y91917D01*
X291590Y91898D01*
Y75440D01*
X282300D01*
Y61940D01*
X281030D01*
Y60670D01*
X270030D01*
Y48440D01*
X270030D01*
X269958Y47834D01*
X268673Y47784D01*
X268500Y48652D01*
X267556Y50065D01*
X266144Y51008D01*
X264478Y51340D01*
X262812Y51008D01*
X261400Y50065D01*
X260456Y48652D01*
X260124Y46986D01*
X260456Y45320D01*
X261400Y43907D01*
X262812Y42964D01*
X262859Y42955D01*
X262734Y41684D01*
X65273D01*
X64698Y42955D01*
X67897Y46602D01*
X70975Y51210D01*
X73426Y56179D01*
X75207Y61426D01*
X76288Y66861D01*
X76651Y72390D01*
X76288Y77919D01*
X75207Y83354D01*
X73426Y88601D01*
X70975Y93570D01*
X67897Y98178D01*
X64243Y102344D01*
X60078Y105997D01*
X55470Y109075D01*
X50501Y111526D01*
X45254Y113307D01*
X39819Y114388D01*
X34290Y114751D01*
X28761Y114388D01*
X23326Y113307D01*
X18079Y111526D01*
X13110Y109075D01*
X8502Y105997D01*
X4890Y102829D01*
X3620Y103405D01*
Y377226D01*
X3636D01*
X3902Y379243D01*
X4680Y381123D01*
X5919Y382737D01*
X7533Y383975D01*
X9413Y384754D01*
X11430Y385020D01*
Y385036D01*
X164088D01*
X164453Y384101D01*
X164522Y383765D01*
X163618Y382412D01*
X163286Y380746D01*
X163618Y379080D01*
X164562Y377668D01*
X165050Y377341D01*
Y364341D01*
X163390Y363654D01*
X161464Y362176D01*
X159986Y360250D01*
X159057Y358007D01*
X158740Y355600D01*
X159057Y353193D01*
X159986Y350950D01*
X161464Y349024D01*
X163390Y347546D01*
X165633Y346617D01*
X168040Y346301D01*
X170447Y346617D01*
X172690Y347546D01*
X174616Y349024D01*
X176094Y350950D01*
X177023Y353193D01*
X177339Y355600D01*
X177023Y358007D01*
X176094Y360250D01*
X174616Y362176D01*
X172690Y363654D01*
X170447Y364583D01*
X170230Y364611D01*
Y377341D01*
X170718Y377668D01*
X171662Y379080D01*
X171994Y380746D01*
X171662Y382412D01*
X170758Y383765D01*
X170827Y384101D01*
X171192Y385036D01*
X228081D01*
X229351Y385036D01*
D02*
G37*
G36*
X380801Y296435D02*
X379531Y295756D01*
X379364Y295868D01*
X377698Y296200D01*
X376032Y295868D01*
X375306Y295383D01*
X374036Y296062D01*
Y296920D01*
X357776D01*
Y287280D01*
X374036D01*
Y287630D01*
X375306Y288309D01*
X376032Y287824D01*
X377698Y287492D01*
X379364Y287824D01*
X379531Y287936D01*
X380801Y287257D01*
Y225814D01*
X355854D01*
Y224915D01*
X355025Y223988D01*
X353517D01*
Y217686D01*
X350977D01*
Y223988D01*
X349469D01*
X348742Y224957D01*
Y225814D01*
X348335D01*
Y249180D01*
X356036D01*
Y258820D01*
X339776D01*
X339140Y259827D01*
Y261272D01*
X340046Y262150D01*
X340410Y262150D01*
X346636D01*
Y266700D01*
X347906D01*
D01*
X346636D01*
Y271250D01*
X340410D01*
X340046Y271250D01*
X339140Y272129D01*
Y273972D01*
X340046Y274850D01*
X340410Y274850D01*
X346636D01*
Y279400D01*
Y283950D01*
X340410D01*
X340046Y283950D01*
X339140Y284828D01*
Y286672D01*
X340046Y287550D01*
X346636D01*
Y292100D01*
Y296650D01*
X340046D01*
Y296173D01*
X338776Y295494D01*
X338216Y295868D01*
X336550Y296200D01*
X334884Y295868D01*
X333599Y295010D01*
X333011Y295157D01*
X332329Y295501D01*
Y385036D01*
X380801D01*
Y296435D01*
D02*
G37*
G36*
X329271Y295650D02*
X330046D01*
Y293479D01*
X330102Y293435D01*
X330167Y293338D01*
X330454Y293146D01*
X330454Y220980D01*
X248737Y220980D01*
X247931Y221962D01*
X247938Y221996D01*
X247470Y224353D01*
X246135Y226351D01*
X244137Y227686D01*
X241780Y228154D01*
X232410D01*
X232410Y385036D01*
X329271Y385036D01*
Y295650D01*
D02*
G37*
G36*
X380801Y173990D02*
X381034Y172819D01*
X381697Y171827D01*
X382690Y171164D01*
X383860Y170931D01*
X649195D01*
X649195Y169661D01*
Y103373D01*
X647925Y102798D01*
X644278Y105997D01*
X639670Y109075D01*
X634701Y111526D01*
X629454Y113307D01*
X624019Y114388D01*
X618490Y114751D01*
X612961Y114388D01*
X607526Y113307D01*
X602279Y111526D01*
X597310Y109075D01*
X592702Y105997D01*
X588536Y102344D01*
X587635Y101315D01*
X587562Y101267D01*
X587061Y100516D01*
X586885Y99630D01*
Y45340D01*
X586853Y45183D01*
X587030Y44297D01*
X587483Y43619D01*
X587484Y43615D01*
X587758Y42850D01*
X587043Y41684D01*
X539903D01*
X539377Y42955D01*
X564150Y67727D01*
X565150Y67528D01*
X566816Y67860D01*
X568228Y68804D01*
X569172Y70216D01*
X569504Y71882D01*
X569172Y73548D01*
X568228Y74960D01*
X566816Y75904D01*
X565150Y76236D01*
X563484Y75904D01*
X562071Y74960D01*
X561128Y73548D01*
X560796Y71882D01*
X560827Y71729D01*
X535327Y46230D01*
X396761D01*
X396684Y47468D01*
X396684D01*
Y50198D01*
X392684D01*
Y51468D01*
X391414D01*
Y55468D01*
X390209D01*
X389411Y56736D01*
X389634Y57198D01*
X396954D01*
Y58878D01*
X399416D01*
Y49404D01*
X417956D01*
Y67944D01*
X399416D01*
Y64058D01*
X396954D01*
Y65738D01*
X395274D01*
Y67184D01*
X396700D01*
Y75724D01*
X390813D01*
X390009Y76994D01*
X390098Y77184D01*
X396700D01*
Y84516D01*
X397970Y85309D01*
X398222Y85186D01*
Y79502D01*
X398419Y78511D01*
X398981Y77671D01*
X403505Y73147D01*
X404345Y72585D01*
X405336Y72388D01*
X421274D01*
X421484Y72430D01*
X427260D01*
Y78512D01*
X428530Y79267D01*
X428736Y79155D01*
X428990Y78832D01*
Y77470D01*
X432990D01*
X436990D01*
Y79700D01*
X435965D01*
X435286Y80970D01*
X435568Y81392D01*
X435900Y83058D01*
X435568Y84724D01*
X434624Y86137D01*
X434136Y86463D01*
Y89822D01*
X434210Y90194D01*
X434037Y91063D01*
Y94885D01*
X434070D01*
Y102870D01*
X420370D01*
Y105410D01*
X434070D01*
Y113395D01*
X434037D01*
Y123396D01*
X429203D01*
Y123126D01*
X428390D01*
Y118086D01*
X425850D01*
Y123126D01*
X425210D01*
Y132160D01*
X428290D01*
Y144700D01*
X416750D01*
Y132160D01*
X420030D01*
Y127826D01*
X418760Y127701D01*
X418568Y128666D01*
X417625Y130078D01*
X416212Y131022D01*
X414546Y131354D01*
X412880Y131022D01*
X411468Y130078D01*
X410524Y128666D01*
X410192Y127000D01*
X410524Y125334D01*
X410970Y124666D01*
X410532Y123396D01*
X406703D01*
Y120676D01*
X404957D01*
X392566Y133067D01*
X393052Y134240D01*
X397470D01*
Y135420D01*
X399750D01*
Y132160D01*
X411290D01*
Y144700D01*
X399750D01*
Y140600D01*
X397470D01*
Y142780D01*
X391472D01*
X391139Y143240D01*
X391153Y143407D01*
X391787Y144510D01*
X392430D01*
Y147240D01*
X390200D01*
Y145556D01*
X390200Y145124D01*
X388930Y144598D01*
X383903Y149625D01*
X384141Y150350D01*
X384453Y150871D01*
X385968Y151172D01*
X387380Y152115D01*
X388324Y153528D01*
X388656Y155194D01*
X388619Y155379D01*
X389522Y156414D01*
X447445D01*
X447771Y155926D01*
X448260Y155599D01*
Y76511D01*
X438591Y66842D01*
X436506Y67705D01*
X434086Y68024D01*
X431666Y67705D01*
X429411Y66771D01*
X427475Y65285D01*
X425989Y63349D01*
X425055Y61094D01*
X424736Y58674D01*
X425055Y56254D01*
X425989Y53999D01*
X427475Y52063D01*
X429411Y50577D01*
X431666Y49643D01*
X434086Y49324D01*
X436506Y49643D01*
X438761Y50577D01*
X440697Y52063D01*
X442183Y53999D01*
X443117Y56254D01*
X443436Y58674D01*
X443117Y61094D01*
X442254Y63179D01*
X452681Y73607D01*
X453243Y74447D01*
X453440Y75438D01*
Y155599D01*
X453928Y155926D01*
X454255Y156414D01*
X457143D01*
X491823Y121735D01*
X491708Y121158D01*
X492040Y119492D01*
X492984Y118080D01*
X494396Y117136D01*
X496062Y116804D01*
X497728Y117136D01*
X499141Y118080D01*
X500084Y119492D01*
X500416Y121158D01*
X500084Y122824D01*
X499141Y124236D01*
X497728Y125180D01*
X496062Y125512D01*
X495485Y125397D01*
X460047Y160835D01*
X459207Y161397D01*
X458216Y161594D01*
X454255D01*
X453928Y162083D01*
X452516Y163026D01*
X450850Y163358D01*
X449184Y163026D01*
X447771Y162083D01*
X447445Y161594D01*
X388112D01*
X387121Y161397D01*
X386281Y160835D01*
X384879Y159433D01*
X384302Y159548D01*
X382636Y159216D01*
X381223Y158272D01*
X380710Y157505D01*
X379534Y157979D01*
X379510Y157994D01*
X379180Y159654D01*
X378237Y161066D01*
X376824Y162010D01*
X375158Y162342D01*
X373492Y162010D01*
X372080Y161066D01*
X371989Y160931D01*
X370641Y161200D01*
X370544Y161686D01*
X369600Y163099D01*
X368188Y164042D01*
X366522Y164374D01*
X364856Y164042D01*
X363443Y163099D01*
X362500Y161686D01*
X362168Y160020D01*
X362500Y158354D01*
X363113Y157437D01*
X362126Y156627D01*
X359744Y159009D01*
X358904Y159571D01*
X357913Y159768D01*
X356929D01*
X356804Y161038D01*
X358282Y161332D01*
X359695Y162276D01*
X360638Y163688D01*
X360970Y165354D01*
X360638Y167020D01*
X360447Y167306D01*
X361046Y168426D01*
X361798D01*
Y175256D01*
X361847Y175506D01*
Y181756D01*
X362600Y181906D01*
X364012Y182850D01*
X364956Y184262D01*
X365288Y185928D01*
X364956Y187594D01*
X364012Y189007D01*
X363372Y189434D01*
X363758Y190704D01*
X368864D01*
Y186404D01*
X378404D01*
Y196944D01*
X376224D01*
Y199804D01*
X378404D01*
Y210344D01*
X368864D01*
Y199804D01*
X371044D01*
Y196944D01*
X368864D01*
Y195884D01*
X345440D01*
X344449Y195687D01*
X343609Y195125D01*
X337411Y188928D01*
X336850Y188088D01*
X336653Y187096D01*
Y181570D01*
X336194D01*
Y168426D01*
X342290D01*
X342290Y168426D01*
X343421Y168090D01*
X343914Y167353D01*
X345863Y165404D01*
X345337Y164134D01*
X328114D01*
X327123Y163937D01*
X326283Y163375D01*
X321765Y158857D01*
X321586Y158590D01*
X319334D01*
Y148050D01*
X328874D01*
Y158590D01*
X329993Y158954D01*
X337414D01*
X338638Y158844D01*
Y156825D01*
X338018Y155812D01*
X337368Y155812D01*
X335788D01*
Y151812D01*
Y147812D01*
X337090D01*
X337978Y146571D01*
X337912Y146386D01*
X337644Y146082D01*
X330748D01*
Y137542D01*
X331434D01*
Y130710D01*
X329760D01*
X329760Y130710D01*
X329300D01*
Y130710D01*
X328490Y130710D01*
X327153D01*
Y136050D01*
X328874D01*
Y146590D01*
X319334D01*
Y144606D01*
X317460D01*
Y146336D01*
X309920D01*
Y137796D01*
X317460D01*
Y139426D01*
X319334D01*
Y136050D01*
X321973D01*
Y131701D01*
X321300Y130710D01*
X320490Y130710D01*
X314188D01*
X313760Y130710D01*
X312602Y130440D01*
X310800D01*
Y117940D01*
X308260D01*
Y130440D01*
X306120D01*
X306030Y130440D01*
X304850Y130657D01*
Y155725D01*
X305338Y156052D01*
X306282Y157464D01*
X306614Y159130D01*
X306282Y160796D01*
X305338Y162208D01*
X303926Y163152D01*
X302260Y163484D01*
X301675Y164662D01*
X336099Y199086D01*
X355243D01*
X355569Y198598D01*
X356982Y197654D01*
X358648Y197322D01*
X360314Y197654D01*
X361726Y198598D01*
X362670Y200010D01*
X363002Y201676D01*
X362670Y203342D01*
X361726Y204755D01*
X360314Y205698D01*
X358648Y206030D01*
X356982Y205698D01*
X355862Y204950D01*
X355675Y204983D01*
X355247Y206351D01*
X360010Y211114D01*
X361798D01*
Y214588D01*
X368864D01*
Y211804D01*
X378404D01*
Y222344D01*
X379504Y222755D01*
X380801D01*
Y173990D01*
D02*
G37*
G36*
X339102Y252169D02*
X339776Y251719D01*
Y249180D01*
X343155D01*
Y225446D01*
X342697Y224258D01*
X341539Y223988D01*
X340512D01*
Y217686D01*
Y211158D01*
X341156Y210436D01*
X341082Y210108D01*
X333305D01*
X328472Y214941D01*
Y217921D01*
X330454D01*
X331624Y218154D01*
X332617Y218817D01*
X333280Y219809D01*
X333513Y220980D01*
Y256071D01*
X334510Y256469D01*
X334783Y256488D01*
X339102Y252169D01*
D02*
G37*
G36*
X588082Y383765D02*
X584883Y380118D01*
X581805Y375510D01*
X579354Y370541D01*
X577573Y365294D01*
X576492Y359859D01*
X576129Y354330D01*
X576492Y348801D01*
X577573Y343366D01*
X579354Y338119D01*
X581805Y333150D01*
X584883Y328542D01*
X588536Y324376D01*
X592702Y320723D01*
X597310Y317645D01*
X602279Y315194D01*
X607526Y313413D01*
X612961Y312332D01*
X618490Y311969D01*
X624019Y312332D01*
X629454Y313413D01*
X634701Y315194D01*
X639670Y317645D01*
X644278Y320723D01*
X647925Y323922D01*
X649195Y323347D01*
X649195Y173990D01*
X383860D01*
Y250450D01*
X383766D01*
Y295650D01*
X383860D01*
Y385036D01*
X587507D01*
X588082Y383765D01*
D02*
G37*
G36*
X379815Y131613D02*
X379329Y130440D01*
X371300D01*
Y118210D01*
X381030D01*
Y128739D01*
X382203Y129225D01*
X402540Y108888D01*
Y94833D01*
X402565Y94708D01*
X401485Y93628D01*
X400812Y93762D01*
X399146Y93430D01*
X397733Y92486D01*
X397470Y92092D01*
X396200Y92477D01*
Y95790D01*
X388660D01*
Y95252D01*
X361819D01*
X360828Y95055D01*
X359988Y94493D01*
X354387Y88893D01*
X353041Y89212D01*
X352985Y89286D01*
X353413Y91440D01*
X352965Y93691D01*
X351690Y95600D01*
X349781Y96875D01*
X347530Y97323D01*
X345279Y96875D01*
X343370Y95600D01*
X342095Y93691D01*
X341647Y91440D01*
X342095Y89189D01*
X343370Y87280D01*
X345279Y86005D01*
X347530Y85557D01*
X349684Y85985D01*
X349758Y85929D01*
X350008Y84873D01*
X349145Y83870D01*
X318449D01*
X318293Y84104D01*
X316880Y85048D01*
X315214Y85380D01*
X313548Y85048D01*
X312136Y84104D01*
X311192Y82692D01*
X310860Y81026D01*
X311192Y79360D01*
X312136Y77948D01*
X313548Y77004D01*
X315214Y76672D01*
X316880Y77004D01*
X317733Y77574D01*
X318543Y76588D01*
X312997Y71041D01*
X312420Y71156D01*
X310754Y70824D01*
X309342Y69880D01*
X308398Y68468D01*
X308066Y66802D01*
X308398Y65136D01*
X309342Y63724D01*
X310754Y62780D01*
X312420Y62448D01*
X314086Y62780D01*
X315499Y63724D01*
X316442Y65136D01*
X316774Y66802D01*
X316659Y67379D01*
X322431Y73150D01*
X349690D01*
X350216Y71880D01*
X348235Y69900D01*
X329795D01*
X329468Y70388D01*
X328056Y71332D01*
X326390Y71664D01*
X324724Y71332D01*
X323312Y70388D01*
X322368Y68976D01*
X322036Y67310D01*
X322368Y65644D01*
X323312Y64232D01*
X324724Y63288D01*
X326390Y62956D01*
X328056Y63288D01*
X329468Y64232D01*
X329795Y64720D01*
X349308D01*
X350299Y64917D01*
X351139Y65479D01*
X357857Y72196D01*
X359030Y71710D01*
Y63210D01*
X370030D01*
Y61940D01*
X371300D01*
Y48440D01*
X381030D01*
Y48440D01*
X382300Y48682D01*
X382471Y48427D01*
X387943Y42955D01*
X387417Y41684D01*
X294725Y41684D01*
X294364Y42356D01*
X294267Y42955D01*
X296011Y44699D01*
X296573Y45539D01*
X296770Y46530D01*
Y89340D01*
X298040Y89465D01*
X298095Y89189D01*
X299370Y87280D01*
X301279Y86005D01*
X303530Y85557D01*
X305781Y86005D01*
X307690Y87280D01*
X308965Y89189D01*
X309413Y91440D01*
X308965Y93691D01*
X307690Y95600D01*
X305781Y96875D01*
X303530Y97323D01*
X301279Y96875D01*
X300075Y96071D01*
X298664Y96655D01*
X298662Y96662D01*
X297804Y97946D01*
X297951Y98535D01*
X298296Y99216D01*
X324117D01*
X324581Y98521D01*
X325994Y97578D01*
X327660Y97246D01*
X329326Y97578D01*
X330485Y98352D01*
X330738Y98371D01*
X331245Y98230D01*
X331842Y97887D01*
X331840Y97759D01*
X329381Y95300D01*
X318365D01*
X318039Y95788D01*
X316626Y96732D01*
X314960Y97064D01*
X313294Y96732D01*
X311882Y95788D01*
X310938Y94376D01*
X310606Y92710D01*
X310938Y91044D01*
X311882Y89632D01*
X313294Y88688D01*
X314960Y88356D01*
X316626Y88688D01*
X318039Y89632D01*
X318365Y90120D01*
X330454D01*
X331445Y90317D01*
X332285Y90879D01*
X336227Y94821D01*
X336804Y94706D01*
X338470Y95038D01*
X339883Y95982D01*
X340826Y97394D01*
X341158Y99060D01*
X340826Y100726D01*
X339883Y102139D01*
X338470Y103082D01*
X336804Y103414D01*
X335138Y103082D01*
X333726Y102139D01*
X333246Y101420D01*
X332606Y101514D01*
X331973Y101802D01*
X331682Y103266D01*
X331259Y103900D01*
X331937Y105170D01*
X336490D01*
X337300Y105170D01*
X338570Y105170D01*
X345300D01*
Y124467D01*
X360611Y139779D01*
X361188Y139664D01*
X362854Y139996D01*
X364267Y140940D01*
X365210Y142352D01*
X365542Y144018D01*
X365524Y144109D01*
X366694Y144734D01*
X379815Y131613D01*
D02*
G37*
%LPC*%
G36*
X219310Y364460D02*
Y356870D01*
X226900D01*
X226760Y357936D01*
X225858Y360114D01*
X224423Y361983D01*
X222554Y363418D01*
X220376Y364320D01*
X219310Y364460D01*
D02*
G37*
G36*
X216770D02*
X215704Y364320D01*
X213526Y363418D01*
X211657Y361983D01*
X210222Y360114D01*
X209320Y357936D01*
X209180Y356870D01*
X216770D01*
Y364460D01*
D02*
G37*
G36*
X65720Y371790D02*
X49180D01*
Y355250D01*
X65720D01*
Y371790D01*
D02*
G37*
G36*
X37180D02*
X20640D01*
Y355250D01*
X37180D01*
Y371790D01*
D02*
G37*
G36*
X226900Y354330D02*
X219310D01*
Y346740D01*
X220376Y346880D01*
X222554Y347782D01*
X224423Y349217D01*
X225858Y351086D01*
X226760Y353264D01*
X226900Y354330D01*
D02*
G37*
G36*
X216770D02*
X209180D01*
X209320Y353264D01*
X210222Y351086D01*
X211657Y349217D01*
X213526Y347782D01*
X215704Y346880D01*
X216770Y346740D01*
Y354330D01*
D02*
G37*
G36*
X117894Y383336D02*
X20066D01*
X19075Y383139D01*
X18235Y382577D01*
X8329Y372671D01*
X7767Y371831D01*
X7570Y370840D01*
Y156210D01*
X7767Y155219D01*
X8329Y154379D01*
X26340Y136368D01*
Y121590D01*
X44780D01*
Y140030D01*
X30003D01*
X12750Y157283D01*
Y369767D01*
X21139Y378156D01*
X116821D01*
X133820Y361157D01*
Y346380D01*
X152260D01*
Y364820D01*
X137483D01*
X119725Y382577D01*
X118885Y383139D01*
X117894Y383336D01*
D02*
G37*
G36*
X193040Y364899D02*
X190633Y364583D01*
X188390Y363654D01*
X186464Y362176D01*
X184986Y360250D01*
X184057Y358007D01*
X183741Y355600D01*
X184057Y353193D01*
X184986Y350950D01*
X186464Y349024D01*
X188390Y347546D01*
X190633Y346617D01*
X193040Y346301D01*
X195447Y346617D01*
X197690Y347546D01*
X199616Y349024D01*
X201094Y350950D01*
X202023Y353193D01*
X202339Y355600D01*
X202023Y358007D01*
X201094Y360250D01*
X199616Y362176D01*
X197690Y363654D01*
X195447Y364583D01*
X193040Y364899D01*
D02*
G37*
G36*
X65720Y343250D02*
X49180D01*
Y326710D01*
X65720D01*
Y343250D01*
D02*
G37*
G36*
X37180D02*
X20640D01*
Y326710D01*
X37180D01*
Y343250D01*
D02*
G37*
G36*
X21946Y323353D02*
X20775Y323120D01*
X19783Y322457D01*
X19120Y321465D01*
X18887Y320294D01*
X18887Y220218D01*
X19120Y219047D01*
X19783Y218055D01*
X20775Y217392D01*
X21946Y217159D01*
X111346Y217159D01*
X111412Y217172D01*
X111479Y217162D01*
X111995Y217288D01*
X112517Y217392D01*
X112573Y217429D01*
X112638Y217445D01*
X113067Y217759D01*
X113509Y218055D01*
X114399Y217646D01*
X115570Y217413D01*
X167924Y217413D01*
X168073Y217443D01*
X168224Y217428D01*
X168654Y217558D01*
X169094Y217646D01*
X169221Y217730D01*
X169366Y217774D01*
X169713Y218059D01*
X170087Y218309D01*
X170475Y218386D01*
X171386Y218527D01*
X172919Y217503D01*
X174780Y217133D01*
X192780D01*
X194641Y217503D01*
X196219Y218557D01*
X197273Y220135D01*
X197643Y221996D01*
X197273Y223857D01*
X196219Y225435D01*
X194641Y226489D01*
X192836Y226848D01*
Y266930D01*
X192639Y267921D01*
X192077Y268761D01*
X187209Y273630D01*
X187209Y320294D01*
X186976Y321465D01*
X186313Y322457D01*
X185320Y323120D01*
X184150Y323353D01*
X115570Y323353D01*
X114399Y323120D01*
X114041Y322880D01*
X113682Y323120D01*
X112511Y323353D01*
X111241Y323353D01*
X21946Y323353D01*
D02*
G37*
G36*
X241780Y213884D02*
X234050D01*
Y210566D01*
X246115D01*
X246019Y211052D01*
X245024Y212540D01*
X243536Y213535D01*
X241780Y213884D01*
D02*
G37*
G36*
X231510D02*
X223780D01*
X222024Y213535D01*
X220536Y212540D01*
X219541Y211052D01*
X219445Y210566D01*
X231510D01*
Y213884D01*
D02*
G37*
G36*
X36830Y214670D02*
Y207080D01*
X44420D01*
X44280Y208146D01*
X43378Y210324D01*
X41943Y212193D01*
X40074Y213628D01*
X37896Y214530D01*
X36830Y214670D01*
D02*
G37*
G36*
X34290D02*
X33224Y214530D01*
X31046Y213628D01*
X29177Y212193D01*
X27742Y210324D01*
X26840Y208146D01*
X26700Y207080D01*
X34290D01*
Y214670D01*
D02*
G37*
G36*
X246115Y208026D02*
X234050D01*
Y204708D01*
X241780D01*
X243536Y205057D01*
X245024Y206052D01*
X246019Y207540D01*
X246115Y208026D01*
D02*
G37*
G36*
X231510D02*
X219445D01*
X219541Y207540D01*
X220536Y206052D01*
X222024Y205057D01*
X223780Y204708D01*
X231510D01*
Y208026D01*
D02*
G37*
G36*
X151820Y202708D02*
X148590D01*
Y198978D01*
X151820D01*
Y202708D01*
D02*
G37*
G36*
X146050D02*
X142820D01*
Y198978D01*
X146050D01*
Y202708D01*
D02*
G37*
G36*
X44420Y204540D02*
X36830D01*
Y196950D01*
X37896Y197090D01*
X40074Y197992D01*
X41943Y199427D01*
X43378Y201296D01*
X44280Y203474D01*
X44420Y204540D01*
D02*
G37*
G36*
X34290D02*
X26700D01*
X26840Y203474D01*
X27742Y201296D01*
X29177Y199427D01*
X31046Y197992D01*
X33224Y197090D01*
X34290Y196950D01*
Y204540D01*
D02*
G37*
G36*
X151820Y196438D02*
X148590D01*
Y192708D01*
X151820D01*
Y196438D01*
D02*
G37*
G36*
X146050D02*
X142820D01*
Y192708D01*
X146050D01*
Y196438D01*
D02*
G37*
G36*
X165806Y202978D02*
X156266D01*
Y192438D01*
X158279D01*
Y189698D01*
X156432D01*
Y182158D01*
X156432Y182158D01*
X156178Y181308D01*
X156178D01*
X156178Y180993D01*
Y172768D01*
X164718D01*
Y174448D01*
X167840D01*
X168831Y174645D01*
X169671Y175207D01*
X173710Y179245D01*
X174780Y179033D01*
X192780D01*
X194641Y179403D01*
X196219Y180457D01*
X197273Y182035D01*
X197643Y183896D01*
X197273Y185757D01*
X196219Y187335D01*
X194641Y188389D01*
X192780Y188759D01*
X174780D01*
X174120Y188628D01*
X173935Y188813D01*
X173212Y189743D01*
X173004Y190791D01*
X173637Y191660D01*
X173962Y191895D01*
X174780Y191733D01*
X192780D01*
X194641Y192103D01*
X196219Y193157D01*
X197273Y194735D01*
X197643Y196596D01*
X197273Y198457D01*
X196219Y200035D01*
X194641Y201089D01*
X192780Y201459D01*
X174780D01*
X172919Y201089D01*
X171341Y200035D01*
X170774Y199186D01*
X165806D01*
Y202978D01*
D02*
G37*
G36*
X154702Y189428D02*
X151972D01*
Y187198D01*
X154702D01*
Y189428D01*
D02*
G37*
G36*
X149432D02*
X146702D01*
Y187198D01*
X149432D01*
Y189428D01*
D02*
G37*
G36*
X144216Y189594D02*
X141986D01*
Y186864D01*
X144216D01*
Y189594D01*
D02*
G37*
G36*
X139446D02*
X137216D01*
Y186864D01*
X139446D01*
Y189594D01*
D02*
G37*
G36*
X144216Y184324D02*
X141986D01*
Y181594D01*
X144216D01*
Y184324D01*
D02*
G37*
G36*
X139446D02*
X137216D01*
Y181594D01*
X139446D01*
Y184324D01*
D02*
G37*
G36*
X241780Y188759D02*
X223780D01*
X221919Y188389D01*
X220341Y187335D01*
X219287Y185757D01*
X218917Y183896D01*
X219287Y182035D01*
X220341Y180457D01*
X221919Y179403D01*
X223780Y179033D01*
X241780D01*
X243641Y179403D01*
X245219Y180457D01*
X246273Y182035D01*
X246643Y183896D01*
X246273Y185757D01*
X245219Y187335D01*
X243641Y188389D01*
X241780Y188759D01*
D02*
G37*
G36*
X154702Y184658D02*
X150702D01*
X146702D01*
Y182578D01*
X146702Y182428D01*
X146340Y181308D01*
X146178D01*
Y178906D01*
X144486D01*
Y179864D01*
X136946D01*
Y171324D01*
X144486D01*
Y173726D01*
X146178D01*
Y172768D01*
X146662D01*
Y168947D01*
X145512Y168179D01*
X144568Y166766D01*
X144236Y165100D01*
X144568Y163434D01*
X145512Y162022D01*
X146924Y161078D01*
X148590Y160746D01*
X150256Y161078D01*
X151669Y162022D01*
X152612Y163434D01*
X152944Y165100D01*
X152612Y166766D01*
X151842Y167919D01*
Y172768D01*
X154718D01*
Y181165D01*
X154718Y181308D01*
X154702Y182571D01*
Y182578D01*
Y184658D01*
D02*
G37*
G36*
X35560Y190110D02*
X33153Y189793D01*
X30910Y188864D01*
X28984Y187386D01*
X27506Y185460D01*
X26577Y183217D01*
X26260Y180810D01*
X26577Y178403D01*
X27506Y176160D01*
X28984Y174234D01*
X30910Y172756D01*
X33153Y171827D01*
X35560Y171511D01*
X37967Y171827D01*
X40210Y172756D01*
X42136Y174234D01*
X43614Y176160D01*
X44543Y178403D01*
X44859Y180810D01*
X44543Y183217D01*
X43614Y185460D01*
X42136Y187386D01*
X40210Y188864D01*
X37967Y189793D01*
X35560Y190110D01*
D02*
G37*
G36*
X242140Y171632D02*
X238410D01*
Y168402D01*
X242140D01*
Y171632D01*
D02*
G37*
G36*
X235870D02*
X232140D01*
Y168402D01*
X235870D01*
Y171632D01*
D02*
G37*
G36*
X242140Y165862D02*
X238410D01*
Y162632D01*
X242140D01*
Y165862D01*
D02*
G37*
G36*
X235870D02*
X232140D01*
Y162632D01*
X235870D01*
Y165862D01*
D02*
G37*
G36*
X171576Y155718D02*
X164846D01*
Y150488D01*
X171576D01*
Y155718D01*
D02*
G37*
G36*
X162306D02*
X155576D01*
Y150488D01*
X162306D01*
Y155718D01*
D02*
G37*
G36*
X35560Y165110D02*
X33153Y164793D01*
X30910Y163864D01*
X28984Y162386D01*
X27506Y160460D01*
X26577Y158217D01*
X26260Y155810D01*
X26577Y153403D01*
X27506Y151160D01*
X28984Y149234D01*
X30910Y147756D01*
X33153Y146827D01*
X35560Y146510D01*
X37967Y146827D01*
X40210Y147756D01*
X42136Y149234D01*
X43614Y151160D01*
X44543Y153403D01*
X44859Y155810D01*
X44543Y158217D01*
X43614Y160460D01*
X42136Y162386D01*
X40210Y163864D01*
X37967Y164793D01*
X35560Y165110D01*
D02*
G37*
G36*
X181236Y146710D02*
X174222D01*
Y145767D01*
X174357Y145090D01*
X174741Y144515D01*
X175316Y144131D01*
X175993Y143996D01*
X181236D01*
Y146710D01*
D02*
G37*
G36*
X171576Y147948D02*
X164846D01*
Y142718D01*
X171576D01*
Y147948D01*
D02*
G37*
G36*
X162306D02*
X155576D01*
Y142718D01*
X162306D01*
Y147948D01*
D02*
G37*
G36*
X281940Y141514D02*
X280274Y141182D01*
X278862Y140239D01*
X278535Y139750D01*
X238760D01*
X237769Y139553D01*
X236929Y138991D01*
X231209Y133271D01*
X230647Y132431D01*
X230450Y131440D01*
Y113162D01*
X230647Y112171D01*
X231209Y111331D01*
X240021Y102519D01*
X239737Y101092D01*
X240146Y99036D01*
X241311Y97292D01*
X243054Y96128D01*
X245110Y95719D01*
X247166Y96128D01*
X248909Y97292D01*
X250074Y99036D01*
X250483Y101092D01*
X250074Y103148D01*
X248909Y104892D01*
X247166Y106056D01*
X245110Y106465D01*
X243683Y106181D01*
X235630Y114235D01*
Y121595D01*
X236900Y121898D01*
X238864Y120586D01*
X241310Y120099D01*
X243756Y120586D01*
X245830Y121972D01*
X247216Y124046D01*
X247703Y126492D01*
X247216Y128938D01*
X245830Y131012D01*
X243756Y132398D01*
X241310Y132885D01*
X239604Y132545D01*
X238978Y133716D01*
X239833Y134570D01*
X278535D01*
X278862Y134081D01*
X280274Y133138D01*
X281940Y132806D01*
X283606Y133138D01*
X285019Y134081D01*
X285962Y135494D01*
X286294Y137160D01*
X285962Y138826D01*
X285019Y140239D01*
X283606Y141182D01*
X281940Y141514D01*
D02*
G37*
G36*
X261610Y132885D02*
X259164Y132398D01*
X257090Y131012D01*
X255704Y128938D01*
X255217Y126492D01*
X255704Y124046D01*
X257090Y121972D01*
X259164Y120586D01*
X261610Y120099D01*
X264056Y120586D01*
X266130Y121972D01*
X267516Y124046D01*
X268003Y126492D01*
X267516Y128938D01*
X266130Y131012D01*
X264056Y132398D01*
X261610Y132885D01*
D02*
G37*
G36*
X292030Y130440D02*
X282300D01*
Y118210D01*
X292030D01*
Y130440D01*
D02*
G37*
G36*
X279760D02*
X270030D01*
Y118210D01*
X279760D01*
Y130440D01*
D02*
G37*
G36*
X281030Y116940D02*
D01*
D01*
D01*
D02*
G37*
G36*
X246380Y118637D02*
Y115062D01*
X249955D01*
X249820Y115743D01*
X248715Y117397D01*
X247061Y118502D01*
X246380Y118637D01*
D02*
G37*
G36*
X243840D02*
X243159Y118502D01*
X241505Y117397D01*
X240400Y115743D01*
X240265Y115062D01*
X243840D01*
Y118637D01*
D02*
G37*
G36*
X249955Y112522D02*
X246380D01*
Y108947D01*
X247061Y109082D01*
X248715Y110187D01*
X249820Y111841D01*
X249955Y112522D01*
D02*
G37*
G36*
X243840D02*
X240265D01*
X240400Y111841D01*
X241505Y110187D01*
X243159Y109082D01*
X243840Y108947D01*
Y112522D01*
D02*
G37*
G36*
X257810Y119165D02*
X255754Y118756D01*
X254011Y117591D01*
X252846Y115848D01*
X252437Y113792D01*
X252846Y111736D01*
X254011Y109993D01*
X255754Y108828D01*
X257810Y108419D01*
X259866Y108828D01*
X261609Y109993D01*
X262774Y111736D01*
X263183Y113792D01*
X262774Y115848D01*
X261609Y117591D01*
X259866Y118756D01*
X257810Y119165D01*
D02*
G37*
G36*
X279760Y115670D02*
X270030D01*
Y103440D01*
X279760D01*
Y115670D01*
D02*
G37*
G36*
X168910Y105954D02*
X167244Y105622D01*
X165832Y104678D01*
X165505Y104190D01*
X121179D01*
X120188Y103993D01*
X119348Y103431D01*
X110945Y95028D01*
X110383Y94188D01*
X110186Y93197D01*
Y88241D01*
X109698Y87914D01*
X108754Y86502D01*
X108422Y84836D01*
X108754Y83170D01*
X109698Y81757D01*
X111110Y80814D01*
X112776Y80482D01*
X114442Y80814D01*
X115855Y81757D01*
X116798Y83170D01*
X117130Y84836D01*
X116798Y86502D01*
X115855Y87914D01*
X115366Y88241D01*
Y92124D01*
X116605Y93363D01*
X117330Y93125D01*
X117851Y92813D01*
X118152Y91298D01*
X119095Y89886D01*
X120508Y88942D01*
X122174Y88610D01*
X123840Y88942D01*
X125253Y89886D01*
X125579Y90374D01*
X133293D01*
X134191Y89476D01*
X134076Y88900D01*
X134408Y87234D01*
X135351Y85822D01*
X136764Y84878D01*
X138430Y84546D01*
X140096Y84878D01*
X141509Y85822D01*
X142452Y87234D01*
X142784Y88900D01*
X142452Y90566D01*
X141509Y91979D01*
X140096Y92922D01*
X138430Y93254D01*
X137853Y93139D01*
X136197Y94795D01*
X135357Y95357D01*
X134366Y95554D01*
X125579D01*
X125253Y96042D01*
X123840Y96986D01*
X123063Y97141D01*
X122533Y98525D01*
X122912Y99010D01*
X165505D01*
X165832Y98521D01*
X167244Y97578D01*
X168910Y97246D01*
X170576Y97578D01*
X171989Y98521D01*
X172932Y99934D01*
X173264Y101600D01*
X172932Y103266D01*
X171989Y104678D01*
X170576Y105622D01*
X168910Y105954D01*
D02*
G37*
G36*
X257810Y106465D02*
X255754Y106056D01*
X254011Y104892D01*
X252846Y103148D01*
X252437Y101092D01*
X252846Y99036D01*
X254011Y97292D01*
X255754Y96128D01*
X257810Y95719D01*
X259866Y96128D01*
X261609Y97292D01*
X262774Y99036D01*
X263183Y101092D01*
X262774Y103148D01*
X261609Y104892D01*
X259866Y106056D01*
X257810Y106465D01*
D02*
G37*
G36*
X203246Y102490D02*
X174706D01*
Y88950D01*
X181591D01*
X181736Y87740D01*
X181736D01*
Y70844D01*
X169361Y58470D01*
X146915D01*
X146588Y58959D01*
X145176Y59902D01*
X143510Y60234D01*
X141844Y59902D01*
X140431Y58959D01*
X139488Y57546D01*
X139156Y55880D01*
X139488Y54214D01*
X140431Y52801D01*
X141844Y51858D01*
X143510Y51526D01*
X145176Y51858D01*
X146588Y52801D01*
X146915Y53290D01*
X170434D01*
X171425Y53487D01*
X172265Y54049D01*
X185417Y67200D01*
X193613D01*
X199653Y61161D01*
X200493Y60599D01*
X201484Y60402D01*
X230535D01*
X233231Y57706D01*
X233116Y57130D01*
X233448Y55464D01*
X234391Y54051D01*
X235804Y53108D01*
X237470Y52776D01*
X239136Y53108D01*
X240548Y54051D01*
X241492Y55464D01*
X241824Y57130D01*
X241779Y57352D01*
X242922Y58116D01*
X243054Y58028D01*
X245110Y57619D01*
X247166Y58028D01*
X248909Y59193D01*
X250074Y60936D01*
X250483Y62992D01*
X250074Y65048D01*
X248909Y66792D01*
X247166Y67956D01*
X245110Y68365D01*
X243054Y67956D01*
X241311Y66792D01*
X240502Y65582D01*
X239298D01*
X238912Y66852D01*
X239552Y67280D01*
X239895Y67792D01*
X240767Y67965D01*
X241607Y68527D01*
X243683Y70603D01*
X245110Y70319D01*
X247166Y70728D01*
X248909Y71892D01*
X250074Y73636D01*
X250483Y75692D01*
X250074Y77748D01*
X248909Y79492D01*
X247166Y80656D01*
X245110Y81065D01*
X243054Y80656D01*
X241311Y79492D01*
X240146Y77748D01*
X239737Y75692D01*
X239932Y74710D01*
X238849Y73906D01*
X238140Y74380D01*
X236474Y74712D01*
X234808Y74380D01*
X233396Y73436D01*
X232452Y72024D01*
X232120Y70358D01*
X232452Y68692D01*
X233396Y67280D01*
X234036Y66852D01*
X233650Y65582D01*
X202557D01*
X197276Y70862D01*
Y87740D01*
X197276D01*
X197421Y88950D01*
X203246D01*
Y93168D01*
X208440D01*
Y90988D01*
X218980D01*
Y100528D01*
X208440D01*
Y98348D01*
X203246D01*
Y102490D01*
D02*
G37*
G36*
X246380Y93237D02*
Y89662D01*
X249955D01*
X249820Y90343D01*
X248715Y91997D01*
X247061Y93102D01*
X246380Y93237D01*
D02*
G37*
G36*
X243840D02*
X243159Y93102D01*
X241505Y91997D01*
X240400Y90343D01*
X240265Y89662D01*
X243840D01*
Y93237D01*
D02*
G37*
G36*
X249955Y87122D02*
X246380D01*
Y83547D01*
X247061Y83682D01*
X248715Y84787D01*
X249820Y86441D01*
X249955Y87122D01*
D02*
G37*
G36*
X243840D02*
X240265D01*
X240400Y86441D01*
X241505Y84787D01*
X243159Y83682D01*
X243840Y83547D01*
Y87122D01*
D02*
G37*
G36*
X257810Y93765D02*
X255754Y93356D01*
X254011Y92191D01*
X252846Y90448D01*
X252437Y88392D01*
X252846Y86336D01*
X254011Y84593D01*
X255754Y83428D01*
X257810Y83019D01*
X259866Y83428D01*
X261609Y84593D01*
X262774Y86336D01*
X263183Y88392D01*
X262774Y90448D01*
X261609Y92191D01*
X259866Y93356D01*
X257810Y93765D01*
D02*
G37*
G36*
X168006Y87470D02*
X161776D01*
Y78740D01*
X168006D01*
Y87470D01*
D02*
G37*
G36*
X159236D02*
X153006D01*
Y78740D01*
X159236D01*
Y87470D01*
D02*
G37*
G36*
X168006Y76200D02*
X161776D01*
Y67470D01*
X168006D01*
Y76200D01*
D02*
G37*
G36*
X159236D02*
X153006D01*
Y67470D01*
X159236D01*
Y76200D01*
D02*
G37*
G36*
X251460Y56685D02*
X249014Y56198D01*
X246940Y54812D01*
X245554Y52738D01*
X245067Y50292D01*
X245554Y47846D01*
X246940Y45772D01*
X249014Y44386D01*
X251460Y43899D01*
X253906Y44386D01*
X255980Y45772D01*
X257366Y47846D01*
X257853Y50292D01*
X257366Y52738D01*
X255980Y54812D01*
X253906Y56198D01*
X251460Y56685D01*
D02*
G37*
%LPD*%
G36*
X184150Y320294D02*
X184150Y228154D01*
X174780D01*
X172423Y227686D01*
X170425Y226351D01*
X169090Y224353D01*
X168622Y221996D01*
X168729Y221454D01*
X167924Y220472D01*
X115570Y220472D01*
X115570Y320294D01*
X184150Y320294D01*
D02*
G37*
G36*
X111241Y320294D02*
X112511Y320294D01*
X112511Y221488D01*
X111346Y220218D01*
X21946Y220218D01*
X21946Y320294D01*
X111241Y320294D01*
D02*
G37*
%LPC*%
G36*
X182856Y306590D02*
X170316D01*
Y276550D01*
X182856D01*
Y306590D01*
D02*
G37*
G36*
X163316D02*
X150776D01*
Y276550D01*
X163316D01*
Y306590D01*
D02*
G37*
G36*
X138856Y284336D02*
X133316D01*
Y276296D01*
X138856D01*
Y284336D01*
D02*
G37*
G36*
X126316D02*
X120776D01*
Y276296D01*
X126316D01*
Y284336D01*
D02*
G37*
G36*
X138856Y269296D02*
X133316D01*
Y261256D01*
X138856D01*
Y269296D01*
D02*
G37*
G36*
X126316D02*
X120776D01*
Y261256D01*
X126316D01*
Y269296D01*
D02*
G37*
G36*
X182856Y269550D02*
X170316D01*
Y239510D01*
X182856D01*
Y269550D01*
D02*
G37*
G36*
X163316D02*
X150776D01*
Y239510D01*
X163316D01*
Y269550D01*
D02*
G37*
G36*
X65450Y294050D02*
X47950D01*
Y276550D01*
X65450D01*
Y294050D01*
D02*
G37*
G36*
X40950D02*
X23450D01*
Y276550D01*
X40950D01*
Y294050D01*
D02*
G37*
G36*
X108316Y282796D02*
X104316D01*
Y276296D01*
X108316D01*
Y282796D01*
D02*
G37*
G36*
X97316D02*
X93316D01*
Y276296D01*
X97316D01*
Y282796D01*
D02*
G37*
G36*
X108316Y269296D02*
X104316D01*
Y262796D01*
X108316D01*
Y269296D01*
D02*
G37*
G36*
X97316D02*
X93316D01*
Y262796D01*
X97316D01*
Y269296D01*
D02*
G37*
G36*
X65450Y269550D02*
X47950D01*
Y252050D01*
X65450D01*
Y269550D01*
D02*
G37*
G36*
X40950D02*
X23450D01*
Y252050D01*
X40950D01*
Y269550D01*
D02*
G37*
G36*
X355766Y296650D02*
X349176D01*
Y293370D01*
X355766D01*
Y296650D01*
D02*
G37*
G36*
Y290830D02*
X349176D01*
Y287550D01*
X355766D01*
Y290830D01*
D02*
G37*
G36*
X349176Y283950D02*
Y280670D01*
X355766D01*
Y283950D01*
X349176D01*
D02*
G37*
G36*
X373766D02*
X367176D01*
Y280670D01*
X373766D01*
Y283950D01*
D02*
G37*
G36*
X364636D02*
X358046D01*
Y280670D01*
X364636D01*
Y283950D01*
D02*
G37*
G36*
X373766Y278130D02*
X367176D01*
Y274850D01*
X373766D01*
Y278130D01*
D02*
G37*
G36*
X364636D02*
X358046D01*
Y274850D01*
X364636D01*
Y278130D01*
D02*
G37*
G36*
X355766D02*
X349176D01*
Y274850D01*
X355766D01*
Y278130D01*
D02*
G37*
G36*
X349176Y271250D02*
Y267970D01*
X355766D01*
Y271250D01*
X349176D01*
D02*
G37*
G36*
X373766D02*
X367176D01*
Y267970D01*
X373766D01*
Y271250D01*
D02*
G37*
G36*
X364636D02*
X358046D01*
Y267970D01*
X364636D01*
Y271250D01*
D02*
G37*
G36*
X373766Y265430D02*
X367176D01*
Y262150D01*
X373766D01*
Y265430D01*
D02*
G37*
G36*
X364636D02*
X358046D01*
Y262150D01*
X364636D01*
Y265430D01*
D02*
G37*
G36*
X355766D02*
X349176D01*
Y262150D01*
X355766D01*
Y265430D01*
D02*
G37*
G36*
X373766Y258550D02*
X367176D01*
Y255270D01*
X373766D01*
Y258550D01*
D02*
G37*
G36*
X364636D02*
X358046D01*
Y255270D01*
X364636D01*
Y258550D01*
D02*
G37*
G36*
X373766Y252730D02*
X367176D01*
Y249450D01*
X373766D01*
Y252730D01*
D02*
G37*
G36*
X364636D02*
X358046D01*
Y249450D01*
X364636D01*
Y252730D01*
D02*
G37*
G36*
X265856Y306590D02*
X257316D01*
Y280550D01*
X265856D01*
Y306590D01*
D02*
G37*
G36*
X242316D02*
X233776D01*
Y280550D01*
X242316D01*
Y306590D01*
D02*
G37*
G36*
X265856Y265550D02*
X257316D01*
Y239510D01*
X265856D01*
Y265550D01*
D02*
G37*
G36*
X242316D02*
X233776D01*
Y239510D01*
X242316D01*
Y265550D01*
D02*
G37*
G36*
X378134Y184674D02*
X374904D01*
Y180944D01*
X378134D01*
Y184674D01*
D02*
G37*
G36*
X372364D02*
X369134D01*
Y180944D01*
X372364D01*
Y184674D01*
D02*
G37*
G36*
X378134Y178404D02*
X374904D01*
Y174674D01*
X378134D01*
Y178404D01*
D02*
G37*
G36*
X372364D02*
X369134D01*
Y174674D01*
X372364D01*
Y178404D01*
D02*
G37*
G36*
X317190Y156066D02*
X314960D01*
Y153336D01*
X317190D01*
Y156066D01*
D02*
G37*
G36*
X312420D02*
X310190D01*
Y153336D01*
X312420D01*
Y156066D01*
D02*
G37*
G36*
X333248Y155812D02*
X331018D01*
Y153082D01*
X333248D01*
Y155812D01*
D02*
G37*
G36*
X397200Y152510D02*
X394970D01*
Y149780D01*
X397200D01*
Y152510D01*
D02*
G37*
G36*
X392430D02*
X390200D01*
Y149780D01*
X392430D01*
Y152510D01*
D02*
G37*
G36*
X317190Y150796D02*
X314960D01*
Y148066D01*
X317190D01*
Y150796D01*
D02*
G37*
G36*
X312420D02*
X310190D01*
Y148066D01*
X312420D01*
Y150796D01*
D02*
G37*
G36*
X333248Y150542D02*
X331018D01*
Y147812D01*
X333248D01*
Y150542D01*
D02*
G37*
G36*
X397200Y147240D02*
X394970D01*
Y144510D01*
X397200D01*
Y147240D01*
D02*
G37*
G36*
X436990Y74930D02*
X434260D01*
Y72700D01*
X436990D01*
Y74930D01*
D02*
G37*
G36*
X431720D02*
X428990D01*
Y72700D01*
X431720D01*
Y74930D01*
D02*
G37*
G36*
X536194Y75474D02*
X534528Y75142D01*
X533116Y74198D01*
X532172Y72786D01*
X531840Y71120D01*
X531955Y70543D01*
X522421Y61010D01*
X492863D01*
X492537Y61498D01*
X491124Y62442D01*
X489458Y62774D01*
X487792Y62442D01*
X486380Y61498D01*
X485436Y60086D01*
X485104Y58420D01*
X485436Y56754D01*
X486380Y55342D01*
X487792Y54398D01*
X489458Y54066D01*
X491124Y54398D01*
X492537Y55342D01*
X492863Y55830D01*
X523494D01*
X524485Y56027D01*
X525325Y56589D01*
X535617Y66881D01*
X536194Y66766D01*
X537860Y67098D01*
X539272Y68042D01*
X540216Y69454D01*
X540548Y71120D01*
X540216Y72786D01*
X539272Y74198D01*
X537860Y75142D01*
X536194Y75474D01*
D02*
G37*
G36*
X472360Y87804D02*
X459820D01*
Y75264D01*
X462141D01*
X462527Y73994D01*
X461570Y73354D01*
X460184Y71280D01*
X459697Y68834D01*
X460184Y66388D01*
X461570Y64314D01*
X463495Y63027D01*
X463609Y62468D01*
X463548Y61652D01*
X461764Y60460D01*
X460438Y58475D01*
X460225Y57404D01*
X466090D01*
X471955D01*
X471742Y58475D01*
X470416Y60460D01*
X468632Y61652D01*
X468571Y62468D01*
X468685Y63027D01*
X470610Y64314D01*
X471996Y66388D01*
X472483Y68834D01*
X471996Y71280D01*
X470610Y73354D01*
X469653Y73994D01*
X470038Y75264D01*
X472360D01*
Y87804D01*
D02*
G37*
G36*
X396684Y55468D02*
X393954D01*
Y52738D01*
X396684D01*
Y55468D01*
D02*
G37*
G36*
X471955Y54864D02*
X467360D01*
Y50269D01*
X468431Y50482D01*
X470416Y51808D01*
X471742Y53793D01*
X471955Y54864D01*
D02*
G37*
G36*
X464820D02*
X460225D01*
X460438Y53793D01*
X461764Y51808D01*
X463749Y50482D01*
X464820Y50269D01*
Y54864D01*
D02*
G37*
G36*
X337972Y223988D02*
X336464D01*
Y218956D01*
X337972D01*
Y223988D01*
D02*
G37*
G36*
Y216416D02*
X336464D01*
Y211384D01*
X337972D01*
Y216416D01*
D02*
G37*
G36*
X621710Y294050D02*
X608210D01*
Y280550D01*
X621710D01*
Y294050D01*
D02*
G37*
G36*
X593210D02*
X579710D01*
Y280550D01*
X593210D01*
Y294050D01*
D02*
G37*
G36*
X621710Y265550D02*
X608210D01*
Y252050D01*
X621710D01*
Y265550D01*
D02*
G37*
G36*
X593210D02*
X579710D01*
Y252050D01*
X593210D01*
Y265550D01*
D02*
G37*
G36*
X621980Y234630D02*
X579440D01*
Y192090D01*
X621980D01*
Y234630D01*
D02*
G37*
G36*
X368760Y130440D02*
X359030D01*
Y118210D01*
X368760D01*
Y130440D01*
D02*
G37*
G36*
X381030Y115670D02*
X371300D01*
Y103440D01*
X381030D01*
Y115670D01*
D02*
G37*
G36*
X368760D02*
X359030D01*
Y103440D01*
X368760D01*
Y115670D01*
D02*
G37*
G36*
X395930Y105520D02*
X393700D01*
Y102790D01*
X395930D01*
Y105520D01*
D02*
G37*
G36*
X391160D02*
X388930D01*
Y102790D01*
X391160D01*
Y105520D01*
D02*
G37*
G36*
X395930Y100250D02*
X393700D01*
Y97520D01*
X395930D01*
Y100250D01*
D02*
G37*
G36*
X391160D02*
X388930D01*
Y97520D01*
X391160D01*
Y100250D01*
D02*
G37*
G36*
X368760Y60670D02*
X359030D01*
Y48440D01*
X368760D01*
Y60670D01*
D02*
G37*
%LPD*%
D18*
X213710Y95758D02*
D03*
X225710D02*
D03*
X225140Y167132D02*
D03*
X237140D02*
D03*
D19*
X150702Y185928D02*
D03*
X160702D02*
D03*
X432990Y76200D02*
D03*
X422990D02*
D03*
X204136Y137160D02*
D03*
X194136D02*
D03*
D20*
X405520Y138430D02*
D03*
X422520D02*
D03*
D21*
X140716Y175594D02*
D03*
Y185594D02*
D03*
X392430Y91520D02*
D03*
Y101520D02*
D03*
X313690Y152066D02*
D03*
Y142066D02*
D03*
X334518Y151812D02*
D03*
Y141812D02*
D03*
X393700Y148510D02*
D03*
Y138510D02*
D03*
D24*
X373634Y205074D02*
D03*
Y217074D02*
D03*
Y191674D02*
D03*
Y179674D02*
D03*
X147320Y209708D02*
D03*
Y197708D02*
D03*
X161036Y209708D02*
D03*
Y197708D02*
D03*
X343408Y141574D02*
D03*
Y153574D02*
D03*
X324104Y141320D02*
D03*
Y153320D02*
D03*
D25*
X163576Y164218D02*
D03*
Y149218D02*
D03*
D26*
X352298Y217737D02*
Y229870D01*
X352247Y217686D02*
X352298Y217737D01*
X355766Y264430D02*
Y280670D01*
Y262430D02*
Y264430D01*
X360172Y250190D02*
Y263144D01*
X358046Y262150D02*
Y283950D01*
X355766Y264430D02*
X358046Y262150D01*
X355276Y281160D02*
Y290830D01*
Y281160D02*
X355766Y280670D01*
X137160Y262890D02*
Y283210D01*
X129540D02*
X137160D01*
X152400Y238760D02*
Y309880D01*
X130810Y262890D02*
X137160D01*
D27*
X64770Y326710D02*
Y374680D01*
X264668Y277876D02*
Y292862D01*
X264414Y253746D02*
Y272796D01*
X93570Y263050D02*
X97570D01*
X93570D02*
Y283050D01*
X97790D01*
D28*
X458216Y159004D02*
X496062Y121158D01*
X450850Y159004D02*
X458216D01*
X338328Y230356D02*
Y242062D01*
X337842Y229870D02*
X338328Y230356D01*
X345745Y217686D02*
Y251839D01*
X339242Y217686D02*
Y227917D01*
X340933Y254000D02*
X347906D01*
X336550Y258384D02*
X340933Y254000D01*
X336550Y258384D02*
Y291846D01*
X339082Y217526D02*
X339242Y217686D01*
X352751Y207518D02*
X358750Y213516D01*
X325882Y223774D02*
X326136Y224028D01*
X325882Y213868D02*
Y223774D01*
X332232Y207518D02*
X352751D01*
X325882Y213868D02*
X332232Y207518D01*
X358750Y213516D02*
Y217686D01*
X355632Y166338D02*
X356616Y165354D01*
X348591Y166338D02*
X355632D01*
X355161Y157178D02*
X357913D01*
X350795Y161544D02*
X355161Y157178D01*
X328114Y161544D02*
X350795D01*
X323596Y157026D02*
X328114Y161544D01*
X345745Y169184D02*
X348591Y166338D01*
X345745Y169184D02*
Y174998D01*
X324563Y118907D02*
Y143559D01*
X316026Y142016D02*
X321086D01*
X334024Y141732D02*
X340360D01*
X334024Y118434D02*
Y141732D01*
X354430Y151030D02*
X355092Y150368D01*
X349158Y151030D02*
X354430D01*
X346138Y154050D02*
X349158Y151030D01*
X345638Y154050D02*
X346138D01*
X343408Y156280D02*
X345638Y154050D01*
X343408Y156280D02*
Y156780D01*
X405130Y94833D02*
Y109961D01*
X357913Y157178D02*
X405130Y109961D01*
X335026Y201676D02*
X358648D01*
X292100Y158750D02*
X335026Y201676D01*
X372014Y193294D02*
X373634Y191674D01*
X345440Y193294D02*
X372014D01*
X339242Y187096D02*
X345440Y193294D01*
X360934Y184992D02*
Y185928D01*
X359258Y183315D02*
X360934Y184992D01*
X359258Y175506D02*
Y183315D01*
X358750Y174998D02*
X359258Y175506D01*
X373634Y191674D02*
Y205074D01*
X292100Y151130D02*
Y158750D01*
X352273Y186411D02*
X352298Y186436D01*
X352273Y175023D02*
Y186411D01*
X352247Y174998D02*
X352273Y175023D01*
X339242Y174998D02*
Y187096D01*
X345745Y251839D02*
X347906Y254000D01*
X358750Y217686D02*
X359258Y217178D01*
X373530D01*
X373634Y217074D01*
X377444Y292100D02*
X377698Y291846D01*
X365906Y292100D02*
X377444D01*
X193802Y138136D02*
X195032Y136906D01*
X188976Y122720D02*
X189906D01*
X194136Y126950D01*
Y137160D01*
X204136Y146510D02*
X205606Y147980D01*
X204136Y137160D02*
Y146510D01*
X182506Y157480D02*
X186806D01*
X195032Y136906D02*
X195406D01*
X193802Y138136D02*
Y150484D01*
X186806Y157480D02*
X193802Y150484D01*
X164585Y186095D02*
X167974Y189484D01*
X160869Y186095D02*
X164585D01*
X160702Y185928D02*
X160869Y186095D01*
X167974Y189484D02*
X168910D01*
X174698Y183896D02*
X183780D01*
X167840Y177038D02*
X174698Y183896D01*
X160448Y177038D02*
X167840D01*
X162148Y196596D02*
X183642D01*
X149726Y176316D02*
X150448Y177038D01*
X149252Y175842D02*
X149726Y176316D01*
X148590Y165100D02*
X149252Y165762D01*
Y175842D01*
X209248Y184218D02*
Y207464D01*
X216662Y196596D02*
X232780D01*
X232018Y195834D02*
X232780Y196596D01*
X191908Y166878D02*
X209248Y184218D01*
X183780Y209296D02*
X202438D01*
X209248Y207464D02*
X223780Y221996D01*
X228374D02*
X232780D01*
X223780D02*
X228374D01*
X182506Y166980D02*
X182608Y166878D01*
X191908D01*
X166338Y166980D02*
X182506D01*
X163576Y164218D02*
X166338Y166980D01*
X141438Y176316D02*
X149726D01*
X140716Y175594D02*
X141438Y176316D01*
X161036Y197708D02*
X162148Y196596D01*
X160869Y197541D02*
X161036Y197708D01*
X160869Y186095D02*
Y197541D01*
X161448Y209296D02*
X183780D01*
X161036Y209708D02*
X161448Y209296D01*
X147320Y209708D02*
X161036D01*
X226314Y224056D02*
Y266858D01*
Y224056D02*
X228374Y221996D01*
X189014Y95758D02*
X213710D01*
X232506Y273050D02*
X249816D01*
X226314Y266858D02*
X232506Y273050D01*
X190246Y222250D02*
Y266930D01*
X166816Y273050D02*
X184126D01*
X190246Y266930D01*
X199390Y122720D02*
X199470Y122800D01*
X181476Y122720D02*
X188976D01*
Y95720D02*
X189014Y95758D01*
X224694D02*
X225504Y96568D01*
Y166768D01*
X199390Y95720D02*
X199920Y95190D01*
X188976Y78000D02*
Y95720D01*
X201484Y62992D02*
X231608D01*
X193347Y71129D02*
X201484Y62992D01*
X189506Y74952D02*
Y77470D01*
X170434Y55880D02*
X189506Y74952D01*
X143510Y55880D02*
X170434D01*
X188976Y78000D02*
X189506Y77470D01*
X225140Y167132D02*
X225504Y166768D01*
X205606Y166980D02*
X205682Y167056D01*
X225064D01*
X225140Y167132D01*
X178206Y157480D02*
X182506D01*
X201390Y147980D02*
X205606D01*
X199710Y146300D02*
X201390Y147980D01*
X191908Y166878D02*
X201306Y157480D01*
X205606D01*
X384302Y50258D02*
X390920Y43640D01*
X536400Y43640D02*
X564642Y71882D01*
X536400Y43640D02*
Y43640D01*
X390920Y43640D02*
X536400D01*
X349308Y67310D02*
X359310Y77312D01*
X384615D01*
X400812Y79502D02*
Y89408D01*
X405130Y94833D02*
X406999Y92964D01*
X408997D01*
X361819Y92662D02*
X391288D01*
X350437Y81280D02*
X361819Y92662D01*
X391288D02*
X392430Y91520D01*
X351317Y75740D02*
X361429Y85852D01*
X384302D01*
X405336Y74978D02*
X421274D01*
X400812Y79502D02*
X405336Y74978D01*
X391200Y90170D02*
X392430Y91400D01*
Y91520D01*
X384302Y50258D02*
Y57658D01*
X489458Y58420D02*
X523494D01*
X421274Y74978D02*
X422743Y76447D01*
X415290Y81788D02*
Y82724D01*
X422743Y76447D02*
Y90071D01*
X414546Y126064D02*
Y127000D01*
X413743Y125261D02*
X414546Y126064D01*
X413743Y120856D02*
Y125261D01*
X408997Y92964D02*
X409120Y92841D01*
X384302Y155194D02*
X388112Y159004D01*
X390855Y139010D02*
X393700D01*
X375158Y154707D02*
X390855Y139010D01*
X323596Y156526D02*
Y157026D01*
X333530Y117940D02*
X334024Y118434D01*
X324563Y118907D02*
X325530Y117940D01*
X312420Y66802D02*
X321358Y75740D01*
X351317D01*
X294180Y46530D02*
Y94536D01*
X294640Y94996D01*
X292290Y44640D02*
X294180Y46530D01*
X117894Y380746D02*
X143040Y355600D01*
X20066Y380746D02*
X117894D01*
X10160Y370840D02*
X20066Y380746D01*
X167640Y356000D02*
X168040Y355600D01*
X167640Y356000D02*
Y380746D01*
X393700Y138010D02*
X405520D01*
X375158Y154707D02*
Y157988D01*
X341530Y124360D02*
X361188Y144018D01*
X341530Y117940D02*
Y124360D01*
X366522Y155448D02*
Y160020D01*
Y155448D02*
X403884Y118086D01*
X409120D01*
X388112Y159004D02*
X450850D01*
X236474Y70358D02*
X239776D01*
X266940Y76926D02*
X291819Y101806D01*
X266940Y72122D02*
Y76926D01*
X257810Y62992D02*
X266940Y72122D01*
X291819Y101806D02*
X327454D01*
X327660Y101600D01*
X330454Y92710D02*
X336804Y99060D01*
X314960Y92710D02*
X330454D01*
X298450Y109220D02*
X302260Y113030D01*
Y159130D01*
X326390Y67310D02*
X349308D01*
X315468Y81280D02*
X350437D01*
X315214Y81026D02*
X315468Y81280D01*
X265414Y46986D02*
X267760Y44640D01*
X264478Y46986D02*
X265414D01*
X267760Y44640D02*
X292290D01*
X239776Y70358D02*
X245110Y75692D01*
X231608Y62992D02*
X245110D01*
X233040Y131440D02*
X238760Y137160D01*
X233040Y113162D02*
Y131440D01*
Y113162D02*
X245110Y101092D01*
X112776Y93197D02*
X121179Y101600D01*
X112776Y84836D02*
Y93197D01*
X121179Y101600D02*
X168910D01*
X134366Y92964D02*
X138430Y88900D01*
X122174Y92964D02*
X134366D01*
X415290Y82724D02*
X417997Y85431D01*
Y90071D01*
X431546Y83058D02*
Y90120D01*
X431620Y90194D01*
X393700Y138510D02*
Y139010D01*
Y138010D02*
Y138510D01*
X450850Y75438D02*
Y159004D01*
X434086Y58674D02*
X450850Y75438D01*
X564642Y71882D02*
X565150D01*
X407464Y58420D02*
X408734Y57150D01*
X392684Y61468D02*
Y71708D01*
Y61468D02*
X405892D01*
X408686Y58674D01*
X523494Y58420D02*
X536194Y71120D01*
X392430Y81454D02*
Y88980D01*
X422620Y118086D02*
Y138330D01*
X422520Y138430D02*
X422620Y138330D01*
X405440Y138510D02*
X405520Y138430D01*
X292100Y151130D02*
X292762Y151792D01*
X301370Y159130D02*
X302260D01*
X238760Y137160D02*
X281940D01*
X231608Y62992D02*
X237470Y57130D01*
X10160Y156210D02*
Y370840D01*
Y156210D02*
X35560Y130810D01*
D29*
X413620Y118086D02*
X418120D01*
D30*
X34290Y72390D02*
D03*
X618490D02*
D03*
Y354330D02*
D03*
D31*
X303530Y91440D02*
D03*
X347530D02*
D03*
D32*
X466090Y68834D02*
D03*
Y56134D02*
D03*
X241310Y126492D02*
D03*
X251460Y50292D02*
D03*
X261610Y126492D02*
D03*
D33*
X466090Y81534D02*
D03*
D34*
X218040Y355600D02*
D03*
X193040D02*
D03*
X168040D02*
D03*
X35560Y205810D02*
D03*
Y180810D02*
D03*
Y155810D02*
D03*
D35*
X143040Y355600D02*
D03*
D36*
X35560Y130810D02*
D03*
D37*
X600710Y273050D02*
D03*
Y213360D02*
D03*
D38*
X44450Y273050D02*
D03*
X43180Y349250D02*
D03*
D39*
X408686Y58674D02*
D03*
D40*
X434086D02*
D03*
D41*
X301498Y359156D02*
D03*
X291498D02*
D03*
X281498D02*
D03*
X271494D02*
D03*
X272288Y156210D02*
D03*
X112268Y162814D02*
D03*
X600000Y150000D02*
D03*
X550000D02*
D03*
X475000Y100000D02*
D03*
X275000Y200000D02*
D03*
X225000Y300000D02*
D03*
X200000Y250000D02*
D03*
X100000Y350000D02*
D03*
X125000Y200000D02*
D03*
X100000Y50000D02*
D03*
X75000Y100000D02*
D03*
X338328Y242062D02*
D03*
X388620Y218186D02*
D03*
X336550Y291846D02*
D03*
X355092Y150368D02*
D03*
X356616Y165354D02*
D03*
X358648Y201676D02*
D03*
X360934Y185928D02*
D03*
X352298Y186436D02*
D03*
X377698Y291846D02*
D03*
X168910Y189484D02*
D03*
X148590Y165100D02*
D03*
X216662Y196596D02*
D03*
X202438Y209296D02*
D03*
X271494Y349504D02*
D03*
X281498D02*
D03*
X291498D02*
D03*
X301498D02*
D03*
X301530Y340360D02*
D03*
X291530D02*
D03*
X281530D02*
D03*
X271526D02*
D03*
Y331720D02*
D03*
X281530D02*
D03*
X291530D02*
D03*
X301530D02*
D03*
X143510Y55880D02*
D03*
X360172Y45974D02*
D03*
X384615Y77312D02*
D03*
X400812Y89408D02*
D03*
X384302Y85852D02*
D03*
Y57658D02*
D03*
X489458Y58420D02*
D03*
X415290Y81788D02*
D03*
X414546Y127000D02*
D03*
X384302Y155194D02*
D03*
X303022Y76708D02*
D03*
X312420Y66802D02*
D03*
X167640Y380746D02*
D03*
X375158Y157988D02*
D03*
X361188Y144018D02*
D03*
X366522Y160020D02*
D03*
X391160Y105520D02*
D03*
X236474Y70358D02*
D03*
X294640Y94996D02*
D03*
X336804Y99060D02*
D03*
X326390Y67310D02*
D03*
X315214Y81026D02*
D03*
X264478Y46986D02*
D03*
X122174Y92964D02*
D03*
X112776Y84836D02*
D03*
X431546Y83058D02*
D03*
X496062Y121158D02*
D03*
X450850Y159004D02*
D03*
X565150Y71882D02*
D03*
X536194Y71120D02*
D03*
X292100Y151130D02*
D03*
X302260Y159130D02*
D03*
X314960Y92710D02*
D03*
X327660Y101600D02*
D03*
X298450Y109220D02*
D03*
X281940Y137160D02*
D03*
X237470Y57130D02*
D03*
X168910Y101600D02*
D03*
X138430Y88900D02*
D03*
D42*
X358750Y217686D02*
D03*
X352247D02*
D03*
X345745D02*
D03*
X339242D02*
D03*
Y174998D02*
D03*
X345745D02*
D03*
X352247D02*
D03*
X358750D02*
D03*
D43*
X232780Y221996D02*
D03*
Y209296D02*
D03*
Y196596D02*
D03*
Y183896D02*
D03*
X183780D02*
D03*
Y196596D02*
D03*
Y209296D02*
D03*
Y221996D02*
D03*
D44*
X150448Y177038D02*
D03*
X160448D02*
D03*
D45*
X365906Y254000D02*
D03*
Y266700D02*
D03*
Y279400D02*
D03*
Y292100D02*
D03*
X347906D02*
D03*
Y279400D02*
D03*
Y266700D02*
D03*
Y254000D02*
D03*
D46*
X393606Y273050D02*
D03*
X320206D02*
D03*
D47*
X166816D02*
D03*
X249816D02*
D03*
D48*
X129816Y272796D02*
D03*
X100816D02*
D03*
X160506Y77470D02*
D03*
X189506D02*
D03*
D49*
X188976Y122720D02*
D03*
Y95720D02*
D03*
D50*
X309530Y117940D02*
D03*
X317530D02*
D03*
X325530D02*
D03*
X333530D02*
D03*
X341530D02*
D03*
D51*
X281030Y116940D02*
D03*
X370030D02*
D03*
X281030Y61940D02*
D03*
X370030D02*
D03*
D52*
X392684Y61468D02*
D03*
Y51468D02*
D03*
X392430Y81454D02*
D03*
Y71454D02*
D03*
D53*
X409120Y118086D02*
D03*
X413620D02*
D03*
X418120D02*
D03*
X422620D02*
D03*
X427120D02*
D03*
X431620D02*
D03*
X431620Y90194D02*
D03*
X427120D02*
D03*
X422620D02*
D03*
X418120D02*
D03*
X413620D02*
D03*
X409120D02*
D03*
D54*
X420370Y104140D02*
D03*
D55*
X205606Y147980D02*
D03*
Y157480D02*
D03*
Y166980D02*
D03*
X182506D02*
D03*
Y157480D02*
D03*
Y147980D02*
D03*
D56*
X257810Y62992D02*
D03*
Y75692D02*
D03*
Y88392D02*
D03*
Y101092D02*
D03*
Y113792D02*
D03*
X245110D02*
D03*
Y101092D02*
D03*
Y88392D02*
D03*
Y75692D02*
D03*
Y62992D02*
D03*
%TF.MD5,b84946c2ede5119d4ad71d8aef329a66*%
M02*
