G04*
G04 #@! TF.GenerationSoftware,Altium Limited,Altium NEXUS,2.1.5 (53)*
G04*
G04 Layer_Physical_Order=1*
G04 Layer_Color=255*
%FSLAX44Y44*%
%MOMM*%
G71*
G01*
G75*
%ADD10C,0.2000*%
%ADD16R,4.1000X4.0000*%
%ADD17R,4.0000X4.0000*%
G04:AMPARAMS|DCode=18|XSize=1.97mm|YSize=0.6mm|CornerRadius=0.15mm|HoleSize=0mm|Usage=FLASHONLY|Rotation=90.000|XOffset=0mm|YOffset=0mm|HoleType=Round|Shape=RoundedRectangle|*
%AMROUNDEDRECTD18*
21,1,1.9700,0.3000,0,0,90.0*
21,1,1.6700,0.6000,0,0,90.0*
1,1,0.3000,0.1500,0.8350*
1,1,0.3000,0.1500,-0.8350*
1,1,0.3000,-0.1500,-0.8350*
1,1,0.3000,-0.1500,0.8350*
%
%ADD18ROUNDEDRECTD18*%
%ADD19R,0.8000X0.8000*%
%ADD20R,1.0000X1.6000*%
G04:AMPARAMS|DCode=21|XSize=1.56mm|YSize=0.55mm|CornerRadius=0.0688mm|HoleSize=0mm|Usage=FLASHONLY|Rotation=0.000|XOffset=0mm|YOffset=0mm|HoleType=Round|Shape=RoundedRectangle|*
%AMROUNDEDRECTD21*
21,1,1.5600,0.4125,0,0,0.0*
21,1,1.4225,0.5500,0,0,0.0*
1,1,0.1375,0.7113,-0.2063*
1,1,0.1375,-0.7113,-0.2063*
1,1,0.1375,-0.7113,0.2063*
1,1,0.1375,0.7113,0.2063*
%
%ADD21ROUNDEDRECTD21*%
G04:AMPARAMS|DCode=22|XSize=1.56mm|YSize=0.55mm|CornerRadius=0.0688mm|HoleSize=0mm|Usage=FLASHONLY|Rotation=270.000|XOffset=0mm|YOffset=0mm|HoleType=Round|Shape=RoundedRectangle|*
%AMROUNDEDRECTD22*
21,1,1.5600,0.4125,0,0,270.0*
21,1,1.4225,0.5500,0,0,270.0*
1,1,0.1375,-0.2063,-0.7113*
1,1,0.1375,-0.2063,0.7113*
1,1,0.1375,0.2063,0.7113*
1,1,0.1375,0.2063,-0.7113*
%
%ADD22ROUNDEDRECTD22*%
%ADD23R,0.8000X0.8000*%
%ADD24R,0.8000X0.7000*%
%ADD25R,0.6000X0.5000*%
%ADD26R,0.9000X1.0000*%
%ADD27R,0.5000X0.6000*%
%ADD28R,1.6000X1.4000*%
%ADD29R,1.1000X1.4000*%
%ADD30R,0.7000X0.8000*%
%ADD31R,1.4000X1.1000*%
%ADD48C,1.0000*%
%ADD57C,0.5000*%
%ADD58C,0.4000*%
%ADD59C,0.2540*%
%ADD60C,5.0000*%
%ADD61C,0.9000*%
%ADD62R,1.0000X1.0000*%
%ADD63C,1.5900*%
%ADD64R,1.5900X1.5900*%
%ADD65R,1.5900X1.5900*%
%ADD66R,4.0000X4.0000*%
%ADD67R,1.6000X1.6000*%
%ADD68C,1.6000*%
%ADD69C,0.6000*%
G36*
X588082Y383765D02*
X584883Y380118D01*
X581805Y375510D01*
X579354Y370541D01*
X577573Y365294D01*
X576492Y359859D01*
X576129Y354330D01*
X576492Y348801D01*
X577573Y343366D01*
X579354Y338119D01*
X581805Y333150D01*
X584883Y328542D01*
X588536Y324376D01*
X592702Y320723D01*
X597310Y317645D01*
X602279Y315194D01*
X607526Y313413D01*
X612961Y312332D01*
X618490Y311969D01*
X624019Y312332D01*
X629454Y313413D01*
X634701Y315194D01*
X639670Y317645D01*
X644278Y320723D01*
X647925Y323922D01*
X649195Y323347D01*
X649195Y103373D01*
X647925Y102798D01*
X644278Y105997D01*
X639670Y109075D01*
X634701Y111526D01*
X629454Y113307D01*
X624019Y114388D01*
X618490Y114751D01*
X612961Y114388D01*
X607526Y113307D01*
X602279Y111526D01*
X597310Y109075D01*
X592702Y105997D01*
X588536Y102344D01*
X587635Y101315D01*
X587562Y101267D01*
X587061Y100516D01*
X586885Y99630D01*
Y54616D01*
X585696Y54420D01*
X585615Y54420D01*
X575156D01*
Y51739D01*
X569920D01*
Y55150D01*
X560380D01*
Y44610D01*
X569920D01*
Y46560D01*
X575156D01*
Y43880D01*
X585696D01*
Y44493D01*
X586966Y44618D01*
X587030Y44297D01*
X587483Y43619D01*
X587484Y43615D01*
X587758Y42850D01*
X587043Y41684D01*
X492230D01*
X491704Y42955D01*
X500787Y52037D01*
X501960Y51551D01*
Y44610D01*
X511500D01*
Y46940D01*
X516736D01*
Y44260D01*
X527276D01*
Y54800D01*
X516736D01*
Y52120D01*
X511500D01*
Y55150D01*
X507144D01*
X506465Y56420D01*
X506592Y56610D01*
X511500D01*
Y67150D01*
X501960D01*
Y60272D01*
X499771Y58083D01*
X499209Y57243D01*
X499150Y56947D01*
X487888Y45684D01*
X481792D01*
X481266Y46954D01*
X488557Y54246D01*
X489458Y54066D01*
X491124Y54398D01*
X492537Y55342D01*
X493480Y56754D01*
X493812Y58420D01*
X493480Y60086D01*
X492537Y61498D01*
X491124Y62442D01*
X489458Y62774D01*
X487792Y62442D01*
X486380Y61498D01*
X485436Y60086D01*
X485104Y58420D01*
X485284Y57519D01*
X477459Y49694D01*
X469538D01*
X469153Y50964D01*
X470416Y51808D01*
X471742Y53793D01*
X471955Y54864D01*
X466090D01*
X460225D01*
X460438Y53793D01*
X461764Y51808D01*
X463027Y50964D01*
X462642Y49694D01*
X439697D01*
X439266Y50964D01*
X440697Y52063D01*
X442183Y53999D01*
X443117Y56254D01*
X443436Y58674D01*
X443117Y61094D01*
X442183Y63349D01*
X440697Y65285D01*
X438761Y66771D01*
X436506Y67705D01*
X434086Y68024D01*
X431666Y67705D01*
X429411Y66771D01*
X427475Y65285D01*
X425989Y63349D01*
X425055Y61094D01*
X424736Y58674D01*
X425055Y56254D01*
X425989Y53999D01*
X427475Y52063D01*
X428906Y50964D01*
X428475Y49694D01*
X417956D01*
Y67944D01*
X399416D01*
Y49694D01*
X380553D01*
X378035Y52213D01*
Y68803D01*
X379305Y69329D01*
X381712Y66922D01*
Y61063D01*
X381223Y60736D01*
X380280Y59324D01*
X379948Y57658D01*
X380280Y55992D01*
X381223Y54580D01*
X382636Y53636D01*
X384302Y53304D01*
X385968Y53636D01*
X387380Y54580D01*
X388324Y55992D01*
X388656Y57658D01*
X388324Y59324D01*
X387380Y60736D01*
X386892Y61063D01*
Y67994D01*
X386695Y68985D01*
X386133Y69825D01*
X384876Y71083D01*
X384961Y72157D01*
X385205Y72550D01*
X385898Y72625D01*
X385958Y72585D01*
X386949Y72388D01*
X423466D01*
X424457Y72585D01*
X425297Y73147D01*
X430970Y78819D01*
X431546Y78704D01*
X432122Y78819D01*
X444193Y66749D01*
X445033Y66187D01*
X446024Y65990D01*
X460449D01*
X461570Y64314D01*
X463495Y63027D01*
X463609Y62468D01*
X463548Y61652D01*
X461764Y60460D01*
X460438Y58475D01*
X460225Y57404D01*
X466090D01*
X471955D01*
X471742Y58475D01*
X470416Y60460D01*
X468632Y61652D01*
X468571Y62468D01*
X468685Y63027D01*
X470610Y64314D01*
X471996Y66388D01*
X472483Y68834D01*
X471996Y71280D01*
X470610Y73354D01*
X469653Y73994D01*
X470038Y75264D01*
X472360D01*
Y87804D01*
X460689D01*
X456793Y91699D01*
X455953Y92261D01*
X454962Y92458D01*
X423370D01*
X422379Y92261D01*
X421539Y91699D01*
X415867Y86027D01*
X415290Y86142D01*
X413624Y85810D01*
X412211Y84867D01*
X411885Y84378D01*
X403255D01*
X402870Y85648D01*
X403890Y86329D01*
X404834Y87742D01*
X405166Y89408D01*
X405051Y89985D01*
X416377Y101311D01*
X416939Y102151D01*
X417136Y103142D01*
Y123595D01*
X417625Y123921D01*
X418568Y125334D01*
X418710Y126046D01*
X419980Y125921D01*
Y111380D01*
X432520D01*
Y129920D01*
X419980D01*
Y128079D01*
X418710Y127954D01*
X418568Y128666D01*
X417710Y129950D01*
X417858Y130539D01*
X418202Y131220D01*
X482002D01*
X482993Y131417D01*
X483833Y131979D01*
X496051Y144197D01*
X496613Y145037D01*
X496810Y146028D01*
Y161020D01*
X499490D01*
Y163470D01*
X504270D01*
Y162560D01*
X505950D01*
Y159400D01*
X501270D01*
Y142860D01*
X519810D01*
Y159400D01*
X511130D01*
Y162560D01*
X512810D01*
Y170100D01*
X504270D01*
Y168650D01*
X499490D01*
Y170560D01*
X488950D01*
Y161020D01*
X491630D01*
Y147101D01*
X483693Y139164D01*
X482520Y139650D01*
Y153920D01*
X469980D01*
Y136400D01*
X457520D01*
Y153920D01*
X453840D01*
Y155866D01*
X453928Y155926D01*
X454872Y157338D01*
X455204Y159004D01*
X454872Y160670D01*
X453928Y162083D01*
X452516Y163026D01*
X450850Y163358D01*
X449184Y163026D01*
X447771Y162083D01*
X446828Y160670D01*
X446496Y159004D01*
X446828Y157338D01*
X447771Y155926D01*
X448660Y155332D01*
Y153920D01*
X444980D01*
Y136400D01*
X432520D01*
Y153920D01*
X419980D01*
Y147240D01*
X405850D01*
X404859Y147043D01*
X404019Y146481D01*
X395782Y138244D01*
X394512Y138770D01*
Y159060D01*
X397796D01*
Y168600D01*
X387256D01*
Y159883D01*
X385986Y159204D01*
X385968Y159216D01*
X384302Y159548D01*
X382636Y159216D01*
X381223Y158272D01*
X380710Y157505D01*
X379534Y157979D01*
X379510Y157994D01*
X379180Y159654D01*
X378237Y161066D01*
X376824Y162010D01*
X375158Y162342D01*
X373492Y162010D01*
X372080Y161066D01*
X371989Y160931D01*
X370641Y161200D01*
X370544Y161686D01*
X369600Y163099D01*
X368188Y164042D01*
X366522Y164374D01*
X364856Y164042D01*
X363443Y163099D01*
X362500Y161686D01*
X362217Y160267D01*
X356410Y154459D01*
X355092Y154722D01*
X353426Y154390D01*
X352014Y153447D01*
X351070Y152034D01*
X350738Y150368D01*
X351070Y148702D01*
X351921Y147428D01*
X351762Y146809D01*
X351421Y146158D01*
X349787D01*
X349024Y146006D01*
X348376Y145574D01*
X347511D01*
X346440Y146478D01*
Y153039D01*
X354819Y161419D01*
X354950Y161332D01*
X356616Y161000D01*
X358282Y161332D01*
X359695Y162276D01*
X360638Y163688D01*
X360970Y165354D01*
X360638Y167020D01*
X359695Y168433D01*
X358282Y169376D01*
X356616Y169708D01*
X354950Y169376D01*
X353537Y168433D01*
X352594Y167020D01*
X352469Y166394D01*
X342019Y155943D01*
X341457Y155103D01*
X341260Y154112D01*
Y146053D01*
X341024Y146006D01*
X340376Y145574D01*
X339511D01*
X338440Y146478D01*
Y168915D01*
X351721Y182197D01*
X352298Y182082D01*
X353964Y182414D01*
X355377Y183358D01*
X355741Y183903D01*
X355881Y183946D01*
X357210Y183816D01*
X357855Y182850D01*
X359268Y181906D01*
X360934Y181574D01*
X362600Y181906D01*
X364012Y182850D01*
X364956Y184262D01*
X365288Y185928D01*
X364956Y187594D01*
X364012Y189007D01*
X362600Y189950D01*
X361698Y190130D01*
Y198578D01*
X361726Y198598D01*
X362670Y200010D01*
X363002Y201676D01*
X362670Y203342D01*
X361726Y204755D01*
X360314Y205698D01*
X358648Y206030D01*
X356982Y205698D01*
X355569Y204755D01*
X354626Y203342D01*
X354294Y201676D01*
X354626Y200010D01*
X355569Y198598D01*
X356518Y197964D01*
Y190092D01*
X355837Y189747D01*
X355248Y189600D01*
X353964Y190458D01*
X352298Y190790D01*
X350632Y190458D01*
X349220Y189515D01*
X348276Y188102D01*
X347944Y186436D01*
X348059Y185860D01*
X334019Y171819D01*
X333457Y170979D01*
X333260Y169988D01*
Y146053D01*
X333024Y146006D01*
X332376Y145574D01*
X331324D01*
X330676Y146006D01*
X329912Y146158D01*
X325788D01*
X325024Y146006D01*
X324376Y145574D01*
X323571D01*
X322495Y146500D01*
Y152124D01*
X322550Y152400D01*
Y154980D01*
X324230D01*
Y162520D01*
X322550D01*
Y165180D01*
X325420D01*
Y177720D01*
X313880D01*
Y165180D01*
X317370D01*
Y162520D01*
X315690D01*
Y154980D01*
X317370D01*
Y152621D01*
X317315Y152345D01*
Y146064D01*
X317024Y146006D01*
X316376Y145574D01*
X315324D01*
X314676Y146006D01*
X313913Y146158D01*
X313740D01*
Y147320D01*
X313543Y148311D01*
X312981Y149151D01*
X309171Y152961D01*
X308331Y153523D01*
X307340Y153720D01*
X303458D01*
X303333Y154990D01*
X303926Y155108D01*
X304690Y155618D01*
X305960Y155250D01*
Y155250D01*
X308690D01*
Y158750D01*
Y162250D01*
X305960D01*
X305960Y162250D01*
X304850Y162636D01*
Y165180D01*
X308420D01*
Y177720D01*
X296880D01*
Y172610D01*
X293330D01*
Y174290D01*
X285790D01*
Y172610D01*
X211037D01*
X192331Y191315D01*
X191491Y191877D01*
X190500Y192074D01*
X172315D01*
X171989Y192563D01*
X170576Y193506D01*
X168910Y193838D01*
X167244Y193506D01*
X165832Y192563D01*
X164888Y191150D01*
X164556Y189484D01*
X164888Y187818D01*
X165832Y186406D01*
X167244Y185462D01*
X168910Y185130D01*
X170576Y185462D01*
X171989Y186406D01*
X172315Y186894D01*
X189427D01*
X207362Y168960D01*
X206836Y167690D01*
X151995D01*
X151669Y168179D01*
X150256Y169122D01*
X148590Y169454D01*
X146924Y169122D01*
X145512Y168179D01*
X144568Y166766D01*
X144236Y165100D01*
X144568Y163434D01*
X145138Y162581D01*
X144151Y161771D01*
X119941Y185981D01*
X119101Y186543D01*
X118110Y186740D01*
X100170D01*
Y188920D01*
X97490D01*
Y192080D01*
X100170D01*
Y201620D01*
X89630D01*
Y192080D01*
X92310D01*
Y188920D01*
X89630D01*
Y184564D01*
X88360Y183885D01*
X88170Y184012D01*
Y188920D01*
X77630D01*
Y185070D01*
X43775D01*
X43614Y185460D01*
X42136Y187386D01*
X40210Y188864D01*
X37967Y189793D01*
X35560Y190110D01*
X33153Y189793D01*
X31093Y188939D01*
X16560Y203473D01*
Y368497D01*
X17993Y369930D01*
X20640D01*
Y355250D01*
X65720D01*
Y369930D01*
X175047D01*
X184911Y360067D01*
X184057Y358007D01*
X183741Y355600D01*
X184057Y353193D01*
X184986Y350950D01*
X186464Y349024D01*
X188390Y347546D01*
X190633Y346617D01*
X193040Y346301D01*
X195447Y346617D01*
X197690Y347546D01*
X199616Y349024D01*
X201094Y350950D01*
X202023Y353193D01*
X202339Y355600D01*
X202023Y358007D01*
X201094Y360250D01*
X199616Y362176D01*
X197690Y363654D01*
X195447Y364583D01*
X193040Y364899D01*
X190633Y364583D01*
X188573Y363729D01*
X177951Y374351D01*
X177111Y374913D01*
X176120Y375110D01*
X18548D01*
X18022Y376380D01*
X19798Y378156D01*
X164235D01*
X164562Y377668D01*
X165974Y376724D01*
X167640Y376392D01*
X169306Y376724D01*
X170718Y377668D01*
X171662Y379080D01*
X171994Y380746D01*
X171662Y382412D01*
X170758Y383765D01*
X170827Y384101D01*
X171192Y385036D01*
X587507Y385036D01*
X588082Y383765D01*
D02*
G37*
G36*
X154890Y133547D02*
Y131398D01*
X153641Y130705D01*
X152666Y130899D01*
X152436D01*
Y120000D01*
Y109101D01*
X152666D01*
X153641Y109295D01*
X154890Y108602D01*
Y101908D01*
X155087Y100917D01*
X155649Y100077D01*
X167590Y88135D01*
Y82223D01*
X166549Y81528D01*
X166320Y81484D01*
X165366Y81674D01*
X162780D01*
X147370Y97085D01*
Y108650D01*
X148640Y109329D01*
X148691Y109295D01*
X149666Y109101D01*
X149896D01*
Y120000D01*
Y130899D01*
X149666D01*
X148691Y130705D01*
X148640Y130671D01*
X147370Y131350D01*
Y135890D01*
X147173Y136881D01*
X146611Y137721D01*
X128521Y155811D01*
X127681Y156373D01*
X126690Y156570D01*
X100900D01*
Y158750D01*
X98220D01*
Y161910D01*
X100900D01*
Y171450D01*
X100900D01*
X101020Y172670D01*
X115767D01*
X154890Y133547D01*
D02*
G37*
G36*
X296880Y165180D02*
X299670D01*
Y162535D01*
X299181Y162208D01*
X298238Y160796D01*
X297906Y159130D01*
X298238Y157464D01*
X299181Y156052D01*
X300594Y155108D01*
X301187Y154990D01*
X301062Y153720D01*
X295505D01*
X295179Y154208D01*
X293867Y155084D01*
X293477Y155537D01*
X293060Y156092D01*
X293060Y156588D01*
Y158750D01*
X289560D01*
X286060D01*
Y156020D01*
X289447D01*
X289832Y154750D01*
X289021Y154208D01*
X288078Y152796D01*
X287746Y151130D01*
X288078Y149464D01*
X289021Y148052D01*
X290434Y147108D01*
X291938Y146809D01*
X292198Y146285D01*
X292348Y145531D01*
X291944Y144926D01*
X291792Y144163D01*
Y132630D01*
X290618Y132144D01*
X286179Y136583D01*
X286294Y137160D01*
X285962Y138826D01*
X285019Y140239D01*
X283606Y141182D01*
X281940Y141514D01*
X280274Y141182D01*
X278862Y140239D01*
X277918Y138826D01*
X277586Y137160D01*
X277918Y135494D01*
X278862Y134081D01*
X280274Y133138D01*
X281940Y132806D01*
X282516Y132921D01*
X286956Y128482D01*
X286470Y127308D01*
X276604D01*
X237752Y166160D01*
X238278Y167430D01*
X285790D01*
Y165750D01*
X293330D01*
Y167430D01*
X296880D01*
Y165180D01*
D02*
G37*
G36*
X389332Y152751D02*
Y138873D01*
X387363Y136904D01*
X386190Y137390D01*
Y140660D01*
X383460D01*
Y137160D01*
X382190D01*
Y135890D01*
X378190D01*
Y133660D01*
X378190D01*
X377806Y132549D01*
X375359Y130101D01*
X374797Y129261D01*
X374600Y128270D01*
Y127641D01*
X373461Y126927D01*
X373330Y126920D01*
X372762Y127033D01*
X366920D01*
Y123250D01*
X365650D01*
Y121980D01*
X356817D01*
Y121187D01*
X356948Y120529D01*
X357311Y119985D01*
X357321Y119967D01*
Y119250D01*
Y118533D01*
X357311Y118515D01*
X356948Y117971D01*
X356817Y117312D01*
Y116520D01*
X365650D01*
Y113980D01*
X356817D01*
Y113188D01*
X356948Y112529D01*
X357149Y112228D01*
X357316Y111941D01*
X357149Y110866D01*
X357057Y110620D01*
X356694Y110076D01*
X356542Y109312D01*
Y105188D01*
X356694Y104424D01*
X357126Y103776D01*
Y102724D01*
X356694Y102076D01*
X356542Y101313D01*
Y97188D01*
X356694Y96424D01*
X357126Y95776D01*
Y94724D01*
X356694Y94076D01*
X356542Y93313D01*
Y89187D01*
X356694Y88424D01*
X357126Y87776D01*
Y86724D01*
X356694Y86076D01*
X356542Y85312D01*
Y81187D01*
X356694Y80424D01*
X357126Y79776D01*
Y78724D01*
X356694Y78076D01*
X356542Y77312D01*
Y73187D01*
X356694Y72424D01*
X357126Y71776D01*
Y70724D01*
X356694Y70076D01*
X356542Y69313D01*
Y65188D01*
X356694Y64424D01*
X357126Y63776D01*
X357774Y63344D01*
X358537Y63192D01*
X363335D01*
Y55228D01*
X363512Y54342D01*
X364013Y53591D01*
X374650Y42955D01*
X374124Y41684D01*
X266222Y41684D01*
X266097Y42955D01*
X266144Y42964D01*
X267556Y43907D01*
X268500Y45320D01*
X268578Y45710D01*
X276320D01*
X277311Y45907D01*
X278151Y46469D01*
X281252Y49570D01*
X286130D01*
Y50750D01*
X291792D01*
Y46337D01*
X291944Y45574D01*
X292376Y44926D01*
X293024Y44494D01*
X293787Y44342D01*
X297913D01*
X298676Y44494D01*
X299324Y44926D01*
X300376D01*
X301024Y44494D01*
X301787Y44342D01*
X305912D01*
X306676Y44494D01*
X307324Y44926D01*
X308376D01*
X309024Y44494D01*
X309788Y44342D01*
X313913D01*
X314676Y44494D01*
X315324Y44926D01*
X316376D01*
X317024Y44494D01*
X317787Y44342D01*
X321912D01*
X322676Y44494D01*
X323324Y44926D01*
X324376D01*
X325024Y44494D01*
X325788Y44342D01*
X329912D01*
X330676Y44494D01*
X331324Y44926D01*
X332376D01*
X333024Y44494D01*
X333787Y44342D01*
X337912D01*
X338676Y44494D01*
X339324Y44926D01*
X340376D01*
X341024Y44494D01*
X341787Y44342D01*
X345913D01*
X346676Y44494D01*
X347324Y44926D01*
X348376D01*
X349024Y44494D01*
X349787Y44342D01*
X353913D01*
X354676Y44494D01*
X355324Y44926D01*
X355756Y45574D01*
X355908Y46337D01*
Y60563D01*
X355756Y61326D01*
X355324Y61974D01*
X354676Y62406D01*
X354440Y62453D01*
Y67250D01*
X354243Y68241D01*
X353681Y69081D01*
X326600Y96162D01*
X327226Y97333D01*
X327660Y97246D01*
X329326Y97578D01*
X330738Y98521D01*
X331218Y99240D01*
X331858Y99146D01*
X332491Y98858D01*
X332782Y97394D01*
X333726Y95982D01*
X335138Y95038D01*
X336804Y94706D01*
X338470Y95038D01*
X339883Y95982D01*
X340826Y97394D01*
X341158Y99060D01*
X341043Y99636D01*
X353681Y112275D01*
X354243Y113115D01*
X354440Y114106D01*
Y128047D01*
X354676Y128094D01*
X355324Y128526D01*
X355756Y129174D01*
X355908Y129937D01*
Y134570D01*
X367920D01*
Y133390D01*
X376460D01*
Y140930D01*
X375240D01*
X374971Y142200D01*
X383726Y150955D01*
X384302Y150840D01*
X385968Y151172D01*
X387380Y152115D01*
X388062Y153136D01*
X389332Y152751D01*
D02*
G37*
G36*
X163800Y383765D02*
X163672Y383536D01*
X163396Y383336D01*
X18726D01*
X17734Y383139D01*
X16894Y382577D01*
X7599Y373282D01*
X7037Y372442D01*
X6840Y371451D01*
Y179800D01*
X7037Y178809D01*
X7599Y177969D01*
X26804Y158764D01*
X26577Y158217D01*
X26260Y155810D01*
X26577Y153403D01*
X27506Y151160D01*
X28984Y149234D01*
X30910Y147756D01*
X33153Y146827D01*
X35560Y146510D01*
X37967Y146827D01*
X40210Y147756D01*
X42136Y149234D01*
X43614Y151160D01*
X44088Y152305D01*
X78360D01*
Y149210D01*
X81040D01*
Y145740D01*
X78360D01*
Y136200D01*
X88900D01*
Y145740D01*
X86220D01*
Y149210D01*
X88900D01*
Y158750D01*
X78360D01*
Y157485D01*
X44639D01*
X44543Y158217D01*
X43614Y160460D01*
X42136Y162386D01*
X40210Y163864D01*
X37967Y164793D01*
X35560Y165110D01*
X33153Y164793D01*
X30910Y163864D01*
X29846Y163047D01*
X12020Y180873D01*
Y198892D01*
X13290Y199418D01*
X27431Y185277D01*
X26577Y183217D01*
X26260Y180810D01*
X26577Y178403D01*
X27506Y176160D01*
X28984Y174234D01*
X30910Y172756D01*
X33153Y171827D01*
X35560Y171511D01*
X37967Y171827D01*
X40210Y172756D01*
X42136Y174234D01*
X43614Y176160D01*
X44543Y178403D01*
X44738Y179890D01*
X77630D01*
Y179380D01*
X84508D01*
X90459Y173429D01*
X91299Y172867D01*
X92040Y172720D01*
X91915Y171450D01*
X90360D01*
Y161910D01*
X93040D01*
Y158750D01*
X90360D01*
Y149210D01*
X100900D01*
Y151390D01*
X125617D01*
X142190Y134817D01*
Y131398D01*
X140941Y130705D01*
X139966Y130899D01*
X139736D01*
Y120000D01*
Y109101D01*
X139966D01*
X140941Y109295D01*
X142190Y108602D01*
Y96012D01*
X142387Y95021D01*
X142949Y94181D01*
X154940Y82189D01*
X154131Y81203D01*
X153747Y81459D01*
X152666Y81674D01*
X149666D01*
X148585Y81459D01*
X147669Y80847D01*
X147057Y79931D01*
X146842Y78850D01*
Y62150D01*
X147057Y61069D01*
X147669Y60153D01*
X148287Y59740D01*
X148113Y58470D01*
X146915D01*
X146588Y58959D01*
X145176Y59902D01*
X143510Y60234D01*
X143231Y60483D01*
X142632Y61354D01*
X142790Y62150D01*
Y78850D01*
X142575Y79931D01*
X141963Y80847D01*
X141047Y81459D01*
X141038Y81461D01*
Y85507D01*
X141509Y85822D01*
X142452Y87234D01*
X142784Y88900D01*
X142452Y90566D01*
X141509Y91979D01*
X140096Y92922D01*
X138430Y93254D01*
X136764Y92922D01*
X135940Y92372D01*
X134670Y93050D01*
Y108650D01*
X135940Y109329D01*
X135990Y109295D01*
X136966Y109101D01*
X137196D01*
Y120000D01*
Y130899D01*
X136966D01*
X135990Y130705D01*
X135940Y130671D01*
X134670Y131350D01*
Y137160D01*
X134473Y138151D01*
X133911Y138991D01*
X130101Y142801D01*
X129261Y143363D01*
X128270Y143560D01*
X100900D01*
Y145740D01*
X90360D01*
Y136200D01*
X100900D01*
Y138380D01*
X127197D01*
X129490Y136087D01*
Y131723D01*
X128449Y131028D01*
X128220Y130984D01*
X127266Y131174D01*
X124266D01*
X123185Y130959D01*
X122269Y130347D01*
X121657Y129431D01*
X121442Y128350D01*
Y122590D01*
X117390D01*
Y128350D01*
X117175Y129431D01*
X116563Y130347D01*
X115647Y130959D01*
X114566Y131174D01*
X111566D01*
X110485Y130959D01*
X109569Y130347D01*
X108957Y129431D01*
X108742Y128350D01*
Y111650D01*
X108957Y110569D01*
X109569Y109653D01*
X110485Y109041D01*
X111566Y108826D01*
X114566D01*
X115647Y109041D01*
X116563Y109653D01*
X117175Y110569D01*
X117390Y111650D01*
Y117410D01*
X121442D01*
Y111650D01*
X121657Y110569D01*
X122269Y109653D01*
X123185Y109041D01*
X124266Y108826D01*
X127266D01*
X128220Y109016D01*
X128449Y108972D01*
X129490Y108277D01*
Y93275D01*
X127486Y91270D01*
X126315Y91896D01*
X126528Y92964D01*
X126196Y94630D01*
X125253Y96042D01*
X123840Y96986D01*
X122174Y97318D01*
X120508Y96986D01*
X119095Y96042D01*
X117660Y95993D01*
X100900Y112753D01*
Y120340D01*
X98220D01*
Y123645D01*
X98360Y123760D01*
X98610Y123810D01*
X100900D01*
Y126100D01*
X100950Y126350D01*
X100900Y126600D01*
Y133350D01*
X90360D01*
Y123810D01*
X93040D01*
Y120340D01*
X90360D01*
Y110800D01*
X95527D01*
X115195Y91133D01*
X116035Y90571D01*
X117026Y90374D01*
X118769D01*
X119095Y89886D01*
X120508Y88942D01*
X122174Y88610D01*
X123242Y88823D01*
X123837Y87875D01*
X123893Y87657D01*
X123373Y86879D01*
X123176Y85888D01*
Y81453D01*
X122269Y80847D01*
X121657Y79931D01*
X121442Y78850D01*
Y62150D01*
X121657Y61069D01*
X122269Y60153D01*
X123176Y59547D01*
Y54300D01*
X120110D01*
Y44760D01*
X130650D01*
Y54300D01*
X128356D01*
Y59547D01*
X129263Y60153D01*
X129875Y61069D01*
X130090Y62150D01*
Y78850D01*
X129875Y79931D01*
X129263Y80847D01*
X128356Y81453D01*
Y84815D01*
X132866Y89326D01*
X133627Y89058D01*
X134103Y88766D01*
X134408Y87234D01*
X135351Y85822D01*
X135858Y85483D01*
Y81441D01*
X134969Y80847D01*
X134357Y79931D01*
X134142Y78850D01*
Y62150D01*
X134357Y61069D01*
X134969Y60153D01*
X135885Y59541D01*
X136966Y59326D01*
X139150D01*
X139828Y58056D01*
X139488Y57546D01*
X139156Y55880D01*
X139488Y54214D01*
X140279Y53030D01*
X140016Y52196D01*
X139716Y51760D01*
X137050D01*
Y49530D01*
X141050D01*
X145050D01*
Y50918D01*
X145510Y51187D01*
X146780Y50459D01*
Y44490D01*
X155320D01*
Y52030D01*
X153698D01*
Y59531D01*
X153747Y59541D01*
X154663Y60153D01*
X155275Y61069D01*
X155490Y62150D01*
Y78850D01*
X155275Y79931D01*
X155019Y80315D01*
X156005Y81124D01*
X159542Y77588D01*
Y62150D01*
X159757Y61069D01*
X160369Y60153D01*
X161285Y59541D01*
X162366Y59326D01*
X165366D01*
X165692Y59391D01*
X166318Y58220D01*
X162849Y54751D01*
X162287Y53911D01*
X162112Y53030D01*
X161700D01*
X161450Y53080D01*
X161200Y53030D01*
X158910D01*
Y50740D01*
X158860Y50490D01*
X158910Y50240D01*
Y43490D01*
X169450D01*
Y53030D01*
X169450D01*
X169158Y53735D01*
X172011Y56589D01*
X172573Y57429D01*
X172706Y58100D01*
X173976Y57975D01*
Y53030D01*
X170910D01*
Y43490D01*
X181450D01*
Y45670D01*
X189390D01*
Y43490D01*
X199930D01*
Y53030D01*
X189390D01*
Y50850D01*
X181450D01*
Y53030D01*
X179156D01*
Y59547D01*
X180063Y60153D01*
X180675Y61069D01*
X180890Y62150D01*
Y78850D01*
X180675Y79931D01*
X180063Y80847D01*
X179147Y81459D01*
X178066Y81674D01*
X175066D01*
X174040Y81470D01*
X173976Y81465D01*
X172770Y82175D01*
Y89208D01*
X172573Y90199D01*
X172011Y91039D01*
X166510Y96541D01*
X167244Y97578D01*
X168910Y97246D01*
X170576Y97578D01*
X171989Y98521D01*
X172315Y99010D01*
X190500D01*
X191491Y99207D01*
X192331Y99769D01*
X199901Y107338D01*
X201074Y106852D01*
Y106736D01*
X211614D01*
Y116276D01*
X201074D01*
Y114096D01*
X200406D01*
X199415Y113899D01*
X198575Y113337D01*
X189427Y104190D01*
X172315D01*
X171989Y104678D01*
X170576Y105622D01*
X168910Y105954D01*
X167244Y105622D01*
X165832Y104678D01*
X164888Y103266D01*
X164556Y101600D01*
X164888Y99934D01*
X163851Y99200D01*
X160070Y102981D01*
Y108325D01*
X161276Y109035D01*
X161340Y109030D01*
X162366Y108826D01*
X165366D01*
X166447Y109041D01*
X167363Y109653D01*
X167975Y110569D01*
X168190Y111650D01*
Y128350D01*
X167975Y129431D01*
X167363Y130347D01*
X166456Y130953D01*
Y138394D01*
X166259Y139385D01*
X165697Y140225D01*
X145261Y160662D01*
X146070Y161648D01*
X146924Y161078D01*
X148590Y160746D01*
X150256Y161078D01*
X151669Y162022D01*
X151995Y162510D01*
X234077D01*
X262606Y133982D01*
X261980Y132811D01*
X261610Y132885D01*
X259164Y132398D01*
X257090Y131012D01*
X255704Y128938D01*
X255217Y126492D01*
X255704Y124046D01*
X257090Y121972D01*
X259164Y120586D01*
X261610Y120099D01*
X264056Y120586D01*
X266130Y121972D01*
X267516Y124046D01*
X268003Y126492D01*
X267929Y126862D01*
X269100Y127488D01*
X272942Y123646D01*
Y121187D01*
X273094Y120424D01*
X273526Y119776D01*
Y118724D01*
X273094Y118076D01*
X272942Y117312D01*
Y113188D01*
X273094Y112424D01*
X273526Y111776D01*
Y110724D01*
X273094Y110076D01*
X272942Y109312D01*
Y105188D01*
X273094Y104424D01*
X273526Y103776D01*
Y102911D01*
X272622Y101840D01*
X251677D01*
X231536Y121980D01*
Y131858D01*
X219286D01*
X219036Y131908D01*
X216981D01*
X216698Y132318D01*
X217363Y133588D01*
X221996D01*
Y138818D01*
X215266D01*
Y134625D01*
X213996Y134098D01*
X212542Y135553D01*
Y142430D01*
X203002D01*
Y131890D01*
X207910D01*
X208037Y131700D01*
X207358Y130430D01*
X203002D01*
Y127750D01*
X193590D01*
Y128350D01*
X193375Y129431D01*
X192763Y130347D01*
X191856Y130953D01*
Y136200D01*
X194186D01*
Y145740D01*
X183646D01*
Y136200D01*
X186676D01*
Y130953D01*
X185769Y130347D01*
X185157Y129431D01*
X184942Y128350D01*
Y111650D01*
X185157Y110569D01*
X185769Y109653D01*
X186685Y109041D01*
X187766Y108826D01*
X190766D01*
X191847Y109041D01*
X192763Y109653D01*
X193375Y110569D01*
X193590Y111650D01*
Y122570D01*
X203002D01*
Y119890D01*
X212542D01*
Y126483D01*
X213812Y127133D01*
X214123Y126925D01*
X214996Y126752D01*
Y118318D01*
X227873D01*
X248773Y97419D01*
X249613Y96857D01*
X250604Y96660D01*
X273046D01*
X273094Y96424D01*
X273526Y95776D01*
Y94911D01*
X272622Y93840D01*
X227884D01*
Y104790D01*
X220934D01*
Y106736D01*
X223614D01*
Y116276D01*
X213074D01*
Y106736D01*
X215754D01*
Y104790D01*
X214344D01*
Y88250D01*
X214344D01*
Y87518D01*
X214344D01*
Y70978D01*
X215850D01*
Y68270D01*
X212820D01*
Y58730D01*
X223360D01*
Y68270D01*
X221030D01*
Y70978D01*
X227884D01*
Y80660D01*
X273046D01*
X273094Y80424D01*
X273526Y79776D01*
Y78724D01*
X273094Y78076D01*
X272942Y77312D01*
Y73187D01*
X273094Y72424D01*
X273457Y71880D01*
X273549Y71634D01*
X273717Y70554D01*
X273585Y70326D01*
X273348Y69971D01*
X273217Y69313D01*
Y68520D01*
X282050D01*
Y65980D01*
X273217D01*
Y65188D01*
X273290Y64820D01*
X272779Y63891D01*
X272475Y63550D01*
X265741D01*
X257101Y72189D01*
X256261Y72751D01*
X255270Y72948D01*
X239879D01*
X239552Y73436D01*
X238140Y74380D01*
X236474Y74712D01*
X234808Y74380D01*
X233396Y73436D01*
X232452Y72024D01*
X232120Y70358D01*
X232452Y68692D01*
X233396Y67280D01*
X234808Y66336D01*
X236474Y66004D01*
X238140Y66336D01*
X239552Y67280D01*
X239879Y67768D01*
X254197D01*
X262837Y59129D01*
X263677Y58567D01*
X264668Y58370D01*
X277567D01*
X277590Y57110D01*
X277590D01*
Y53779D01*
X277130Y53431D01*
X275860Y54063D01*
Y56840D01*
X273130D01*
Y53340D01*
X271860D01*
Y52070D01*
X267860D01*
Y50890D01*
X266322D01*
X266144Y51008D01*
X266091Y51019D01*
X256717Y60393D01*
X255877Y60955D01*
X254886Y61152D01*
X247362D01*
X246371Y60955D01*
X245531Y60393D01*
X244857Y59720D01*
X240875D01*
X240548Y60209D01*
X239136Y61152D01*
X237470Y61484D01*
X235804Y61152D01*
X234391Y60209D01*
X233448Y58796D01*
X233116Y57130D01*
X233448Y55464D01*
X234391Y54051D01*
X235804Y53108D01*
X237470Y52776D01*
X239136Y53108D01*
X240548Y54051D01*
X240875Y54540D01*
X245230D01*
X245909Y53270D01*
X245554Y52738D01*
X245067Y50292D01*
X245554Y47846D01*
X246940Y45772D01*
X249014Y44386D01*
X251460Y43899D01*
X253906Y44386D01*
X255980Y45772D01*
X257366Y47846D01*
X257827Y50162D01*
X258939Y50846D01*
X260727Y49058D01*
X260456Y48652D01*
X260124Y46986D01*
X260456Y45320D01*
X261400Y43907D01*
X262812Y42964D01*
X262859Y42955D01*
X262734Y41684D01*
X65273D01*
X64698Y42955D01*
X67897Y46602D01*
X70975Y51210D01*
X73426Y56179D01*
X75207Y61426D01*
X76288Y66861D01*
X76651Y72390D01*
X76288Y77919D01*
X75207Y83354D01*
X73426Y88601D01*
X70975Y93570D01*
X67897Y98178D01*
X64243Y102344D01*
X60078Y105997D01*
X55470Y109075D01*
X50501Y111526D01*
X45254Y113307D01*
X39819Y114388D01*
X34290Y114751D01*
X28761Y114388D01*
X23326Y113307D01*
X18079Y111526D01*
X13110Y109075D01*
X8502Y105997D01*
X4890Y102829D01*
X3620Y103405D01*
Y377226D01*
X3636D01*
X3902Y379243D01*
X4680Y381123D01*
X5919Y382737D01*
X7533Y383975D01*
X9413Y384754D01*
X11430Y385020D01*
Y385036D01*
X163052D01*
X163800Y383765D01*
D02*
G37*
G36*
X419980Y136400D02*
X411725D01*
X410734Y136203D01*
X409894Y135641D01*
X403299Y129046D01*
X402737Y128206D01*
X402540Y127215D01*
Y110932D01*
X386860Y95252D01*
X376636D01*
X375885Y96522D01*
X375961Y96660D01*
X377380D01*
X378371Y96857D01*
X379211Y97419D01*
X384951Y103159D01*
X385513Y103999D01*
X385710Y104990D01*
Y107990D01*
X387890D01*
Y115530D01*
X386480D01*
Y118420D01*
X389160D01*
Y123751D01*
X389620Y124099D01*
X390890Y123467D01*
Y118690D01*
X394620D01*
Y123190D01*
Y127690D01*
X394212D01*
X393726Y128863D01*
X406923Y142060D01*
X419980D01*
Y136400D01*
D02*
G37*
G36*
X311192Y79360D02*
X312114Y77980D01*
X312076Y77778D01*
X311702Y76710D01*
X310107D01*
X309116Y76513D01*
X308276Y75951D01*
X298704Y66380D01*
X292451D01*
X292153Y66321D01*
X290883Y67209D01*
Y69313D01*
X290752Y69971D01*
X290515Y70326D01*
X290383Y70554D01*
X290551Y71634D01*
X290643Y71880D01*
X291006Y72424D01*
X291158Y73187D01*
Y74252D01*
X291589Y74337D01*
X292429Y74899D01*
X298459Y80928D01*
X310880D01*
X311192Y79360D01*
D02*
G37*
%LPC*%
G36*
X219310Y364460D02*
Y356870D01*
X226900D01*
X226760Y357936D01*
X225858Y360114D01*
X224423Y361983D01*
X222554Y363418D01*
X220376Y364320D01*
X219310Y364460D01*
D02*
G37*
G36*
X216770D02*
X215704Y364320D01*
X213526Y363418D01*
X211657Y361983D01*
X210222Y360114D01*
X209320Y357936D01*
X209180Y356870D01*
X216770D01*
Y364460D01*
D02*
G37*
G36*
X379910Y369250D02*
X359370D01*
Y349210D01*
X379910D01*
Y369250D01*
D02*
G37*
G36*
X354370D02*
X333830D01*
Y349210D01*
X354370D01*
Y369250D01*
D02*
G37*
G36*
X226900Y354330D02*
X219310D01*
Y346740D01*
X220376Y346880D01*
X222554Y347782D01*
X224423Y349217D01*
X225858Y351086D01*
X226760Y353264D01*
X226900Y354330D01*
D02*
G37*
G36*
X216770D02*
X209180D01*
X209320Y353264D01*
X210222Y351086D01*
X211657Y349217D01*
X213526Y347782D01*
X215704Y346880D01*
X216770Y346740D01*
Y354330D01*
D02*
G37*
G36*
X152260Y364820D02*
X133820D01*
Y346380D01*
X152260D01*
Y364820D01*
D02*
G37*
G36*
X168040Y364899D02*
X165633Y364583D01*
X163390Y363654D01*
X161464Y362176D01*
X159986Y360250D01*
X159057Y358007D01*
X158740Y355600D01*
X159057Y353193D01*
X159986Y350950D01*
X161464Y349024D01*
X163390Y347546D01*
X165633Y346617D01*
X168040Y346301D01*
X170447Y346617D01*
X172690Y347546D01*
X174616Y349024D01*
X176094Y350950D01*
X177023Y353193D01*
X177339Y355600D01*
X177023Y358007D01*
X176094Y360250D01*
X174616Y362176D01*
X172690Y363654D01*
X170447Y364583D01*
X168040Y364899D01*
D02*
G37*
G36*
X65720Y343250D02*
X49180D01*
Y326710D01*
X65720D01*
Y343250D01*
D02*
G37*
G36*
X37180D02*
X20640D01*
Y326710D01*
X37180D01*
Y343250D01*
D02*
G37*
G36*
X379910Y344210D02*
X359370D01*
Y324170D01*
X379910D01*
Y344210D01*
D02*
G37*
G36*
X354370D02*
X333830D01*
Y324170D01*
X354370D01*
Y344210D01*
D02*
G37*
G36*
X309750Y370710D02*
X261750D01*
Y322710D01*
X309750D01*
Y370710D01*
D02*
G37*
G36*
X377698Y296200D02*
X376032Y295868D01*
X374619Y294925D01*
X374293Y294436D01*
X339955D01*
X339628Y294925D01*
X338216Y295868D01*
X336550Y296200D01*
X334884Y295868D01*
X333471Y294925D01*
X332528Y293512D01*
X332196Y291846D01*
X332528Y290180D01*
X333471Y288768D01*
X334884Y287824D01*
X336550Y287492D01*
X338216Y287824D01*
X339628Y288768D01*
X339955Y289256D01*
X374293D01*
X374619Y288768D01*
X376032Y287824D01*
X377698Y287492D01*
X379364Y287824D01*
X380776Y288768D01*
X381720Y290180D01*
X382052Y291846D01*
X381720Y293512D01*
X380776Y294925D01*
X379364Y295868D01*
X377698Y296200D01*
D02*
G37*
G36*
X621980Y294320D02*
X579440D01*
Y251780D01*
X621980D01*
Y294320D01*
D02*
G37*
G36*
X65720D02*
X23180D01*
Y251780D01*
X65720D01*
Y294320D01*
D02*
G37*
G36*
X327200Y223186D02*
X323470D01*
Y219456D01*
X327200D01*
Y223186D01*
D02*
G37*
G36*
X320930D02*
X317200D01*
Y219456D01*
X320930D01*
Y223186D01*
D02*
G37*
G36*
X623250Y235900D02*
X606710D01*
Y219360D01*
X623250D01*
Y235900D01*
D02*
G37*
G36*
X594710D02*
X578170D01*
Y219360D01*
X594710D01*
Y235900D01*
D02*
G37*
G36*
X369410Y222956D02*
X358870D01*
Y213416D01*
X369410D01*
Y215596D01*
X385215D01*
X385541Y215107D01*
X386954Y214164D01*
X388620Y213832D01*
X390286Y214164D01*
X391698Y215107D01*
X392642Y216520D01*
X392974Y218186D01*
X392642Y219852D01*
X391698Y221264D01*
X390286Y222208D01*
X388620Y222540D01*
X386954Y222208D01*
X385541Y221264D01*
X385215Y220776D01*
X369410D01*
Y222956D01*
D02*
G37*
G36*
X343470Y223456D02*
X332930D01*
Y212916D01*
X343470D01*
Y214852D01*
X346870D01*
Y213416D01*
X357410D01*
Y222956D01*
X350258D01*
X349886Y223030D01*
X349513Y222956D01*
X346870D01*
Y221520D01*
X343470D01*
Y223456D01*
D02*
G37*
G36*
X327200Y216916D02*
X323470D01*
Y213186D01*
X327200D01*
Y216916D01*
D02*
G37*
G36*
X320930D02*
X317200D01*
Y213186D01*
X320930D01*
Y216916D01*
D02*
G37*
G36*
X36830Y214670D02*
Y207080D01*
X44420D01*
X44280Y208146D01*
X43378Y210324D01*
X41943Y212193D01*
X40074Y213628D01*
X37896Y214530D01*
X36830Y214670D01*
D02*
G37*
G36*
X34290D02*
X33224Y214530D01*
X31046Y213628D01*
X29177Y212193D01*
X27742Y210324D01*
X26840Y208146D01*
X26700Y207080D01*
X34290D01*
Y214670D01*
D02*
G37*
G36*
X87900Y201350D02*
X84170D01*
Y198120D01*
X87900D01*
Y201350D01*
D02*
G37*
G36*
X81630D02*
X77900D01*
Y198120D01*
X81630D01*
Y201350D01*
D02*
G37*
G36*
X44420Y204540D02*
X36830D01*
Y196950D01*
X37896Y197090D01*
X40074Y197992D01*
X41943Y199427D01*
X43378Y201296D01*
X44280Y203474D01*
X44420Y204540D01*
D02*
G37*
G36*
X34290D02*
X26700D01*
X26840Y203474D01*
X27742Y201296D01*
X29177Y199427D01*
X31046Y197992D01*
X33224Y197090D01*
X34290Y196950D01*
Y204540D01*
D02*
G37*
G36*
X87900Y195580D02*
X84170D01*
Y192350D01*
X87900D01*
Y195580D01*
D02*
G37*
G36*
X81630D02*
X77900D01*
Y192350D01*
X81630D01*
Y195580D01*
D02*
G37*
G36*
X202438Y213650D02*
X200772Y213318D01*
X199359Y212374D01*
X198416Y210962D01*
X198084Y209296D01*
X198416Y207630D01*
X199359Y206217D01*
X200772Y205274D01*
X202438Y204942D01*
X204104Y205274D01*
X204235Y205361D01*
X212423Y197173D01*
X212308Y196596D01*
X212640Y194930D01*
X213584Y193517D01*
X214996Y192574D01*
X216662Y192242D01*
X218328Y192574D01*
X219741Y193517D01*
X220684Y194930D01*
X221016Y196596D01*
X220684Y198262D01*
X219741Y199674D01*
X218328Y200618D01*
X216662Y200950D01*
X216085Y200835D01*
X206585Y210336D01*
X206460Y210962D01*
X205516Y212374D01*
X204104Y213318D01*
X202438Y213650D01*
D02*
G37*
G36*
X623250Y207360D02*
X606710D01*
Y190820D01*
X623250D01*
Y207360D01*
D02*
G37*
G36*
X594710D02*
X578170D01*
Y190820D01*
X594710D01*
Y207360D01*
D02*
G37*
G36*
X522540Y169830D02*
X519810D01*
Y167600D01*
X522540D01*
Y169830D01*
D02*
G37*
G36*
X517270D02*
X514540D01*
Y167600D01*
X517270D01*
Y169830D01*
D02*
G37*
G36*
X487220Y170290D02*
X483490D01*
Y167060D01*
X487220D01*
Y170290D01*
D02*
G37*
G36*
X480950D02*
X477220D01*
Y167060D01*
X480950D01*
Y170290D01*
D02*
G37*
G36*
X422974Y169100D02*
X412434D01*
Y166420D01*
X409796D01*
Y168600D01*
X399256D01*
Y159060D01*
X409796D01*
Y161240D01*
X412434D01*
Y158560D01*
X422974D01*
Y169100D01*
D02*
G37*
G36*
X438704Y168830D02*
X434974D01*
Y165100D01*
X438704D01*
Y168830D01*
D02*
G37*
G36*
X432434D02*
X428704D01*
Y165100D01*
X432434D01*
Y168830D01*
D02*
G37*
G36*
X522540Y165060D02*
X519810D01*
Y162830D01*
X522540D01*
Y165060D01*
D02*
G37*
G36*
X517270D02*
X514540D01*
Y162830D01*
X517270D01*
Y165060D01*
D02*
G37*
G36*
X487220Y164520D02*
X483490D01*
Y161290D01*
X487220D01*
Y164520D01*
D02*
G37*
G36*
X480950D02*
X477220D01*
Y161290D01*
X480950D01*
Y164520D01*
D02*
G37*
G36*
X313960Y162250D02*
X311230D01*
Y160020D01*
X313960D01*
Y162250D01*
D02*
G37*
G36*
X438704Y162560D02*
X434974D01*
Y158830D01*
X438704D01*
Y162560D01*
D02*
G37*
G36*
X432434D02*
X428704D01*
Y158830D01*
X432434D01*
Y162560D01*
D02*
G37*
G36*
X313960Y157480D02*
X311230D01*
Y155250D01*
X313960D01*
Y157480D01*
D02*
G37*
G36*
X591810Y159400D02*
X573270D01*
Y142860D01*
X591810D01*
Y159400D01*
D02*
G37*
G36*
X519810Y129400D02*
X501270D01*
Y123748D01*
X499467D01*
X499141Y124236D01*
X497728Y125180D01*
X496062Y125512D01*
X494396Y125180D01*
X492984Y124236D01*
X492040Y122824D01*
X491708Y121158D01*
X492040Y119492D01*
X492984Y118080D01*
X494396Y117136D01*
X496062Y116804D01*
X497728Y117136D01*
X499141Y118080D01*
X499467Y118568D01*
X501270D01*
Y112860D01*
X519810D01*
Y129400D01*
D02*
G37*
G36*
X591810D02*
X573270D01*
Y112860D01*
X591810D01*
Y129400D01*
D02*
G37*
G36*
X482520Y129920D02*
X469980D01*
Y111380D01*
X482520D01*
Y129920D01*
D02*
G37*
G36*
X457520D02*
X444980D01*
Y111380D01*
X457520D01*
Y129920D01*
D02*
G37*
G36*
X527006Y70531D02*
X523276D01*
Y66801D01*
X527006D01*
Y70531D01*
D02*
G37*
G36*
X520736D02*
X517006D01*
Y66801D01*
X520736D01*
Y70531D01*
D02*
G37*
G36*
X585426Y70150D02*
X581696D01*
Y66420D01*
X585426D01*
Y70150D01*
D02*
G37*
G36*
X556216D02*
X552486D01*
Y66420D01*
X556216D01*
Y70150D01*
D02*
G37*
G36*
X579156D02*
X575426D01*
Y66420D01*
X579156D01*
Y70150D01*
D02*
G37*
G36*
X549946D02*
X546216D01*
Y66420D01*
X549946D01*
Y70150D01*
D02*
G37*
G36*
X527006Y64261D02*
X523276D01*
Y60531D01*
X527006D01*
Y64261D01*
D02*
G37*
G36*
X520736D02*
X517006D01*
Y60531D01*
X520736D01*
Y64261D01*
D02*
G37*
G36*
X585426Y63881D02*
X581696D01*
Y60150D01*
X585426D01*
Y63881D01*
D02*
G37*
G36*
X579156D02*
X575426D01*
Y60150D01*
X579156D01*
Y63881D01*
D02*
G37*
G36*
X556216D02*
X552486D01*
Y60150D01*
X556216D01*
Y63881D01*
D02*
G37*
G36*
X549946D02*
X546216D01*
Y60150D01*
X549946D01*
Y63881D01*
D02*
G37*
G36*
X565150Y76236D02*
X563484Y75904D01*
X562071Y74960D01*
X561128Y73548D01*
X560796Y71882D01*
X561128Y70216D01*
X562071Y68804D01*
X562560Y68477D01*
Y67150D01*
X560380D01*
Y56610D01*
X569920D01*
Y67150D01*
X567740D01*
Y68477D01*
X568228Y68804D01*
X569172Y70216D01*
X569504Y71882D01*
X569172Y73548D01*
X568228Y74960D01*
X566816Y75904D01*
X565150Y76236D01*
D02*
G37*
G36*
X536194Y75474D02*
X534528Y75142D01*
X533116Y74198D01*
X532172Y72786D01*
X531840Y71120D01*
X532172Y69454D01*
X532863Y68420D01*
X532369Y67225D01*
X532300Y67150D01*
X531170D01*
Y56610D01*
X540710D01*
Y67150D01*
X540088D01*
X540019Y67225D01*
X539525Y68420D01*
X540216Y69454D01*
X540548Y71120D01*
X540216Y72786D01*
X539272Y74198D01*
X537860Y75142D01*
X536194Y75474D01*
D02*
G37*
G36*
X540710Y55150D02*
X531170D01*
Y44610D01*
X540710D01*
Y46560D01*
X545946D01*
Y43880D01*
X556486D01*
Y54420D01*
X545946D01*
Y51739D01*
X540710D01*
Y55150D01*
D02*
G37*
G36*
X293060Y164020D02*
X290830D01*
Y161290D01*
X293060D01*
Y164020D01*
D02*
G37*
G36*
X288290D02*
X286060D01*
Y161290D01*
X288290D01*
Y164020D01*
D02*
G37*
G36*
X380920Y140660D02*
X378190D01*
Y138430D01*
X380920D01*
Y140660D01*
D02*
G37*
G36*
X364380Y127033D02*
X358537D01*
X357879Y126902D01*
X357321Y126529D01*
X356948Y125971D01*
X356817Y125312D01*
Y124520D01*
X364380D01*
Y127033D01*
D02*
G37*
G36*
X347530Y97323D02*
X345279Y96875D01*
X343370Y95600D01*
X342095Y93691D01*
X341647Y91440D01*
X342095Y89189D01*
X343370Y87280D01*
X345279Y86005D01*
X347530Y85557D01*
X349781Y86005D01*
X351690Y87280D01*
X352965Y89189D01*
X353413Y91440D01*
X352965Y93691D01*
X351690Y95600D01*
X349781Y96875D01*
X347530Y97323D01*
D02*
G37*
G36*
X88630Y171180D02*
X84900D01*
Y167950D01*
X88630D01*
Y171180D01*
D02*
G37*
G36*
X82360D02*
X78630D01*
Y167950D01*
X82360D01*
Y171180D01*
D02*
G37*
G36*
X88630Y165410D02*
X84900D01*
Y162180D01*
X88630D01*
Y165410D01*
D02*
G37*
G36*
X82360D02*
X78630D01*
Y162180D01*
X82360D01*
Y165410D01*
D02*
G37*
G36*
X193880Y159440D02*
X190150D01*
Y156210D01*
X193880D01*
Y159440D01*
D02*
G37*
G36*
X187610D02*
X183880D01*
Y156210D01*
X187610D01*
Y159440D01*
D02*
G37*
G36*
X193880Y153670D02*
X190150D01*
Y150440D01*
X193880D01*
Y153670D01*
D02*
G37*
G36*
X187610D02*
X183880D01*
Y150440D01*
X187610D01*
Y153670D01*
D02*
G37*
G36*
X231266Y146588D02*
X224536D01*
Y141358D01*
X231266D01*
Y146588D01*
D02*
G37*
G36*
X221996D02*
X215266D01*
Y141358D01*
X221996D01*
Y146588D01*
D02*
G37*
G36*
X231266Y138818D02*
X224536D01*
Y133588D01*
X231266D01*
Y138818D01*
D02*
G37*
G36*
X44780Y140030D02*
X26340D01*
Y121590D01*
X44780D01*
Y125990D01*
X78360D01*
Y123810D01*
X88900D01*
Y133350D01*
X78360D01*
Y131170D01*
X44780D01*
Y140030D01*
D02*
G37*
G36*
X241310Y132885D02*
X238864Y132398D01*
X236790Y131012D01*
X235404Y128938D01*
X234917Y126492D01*
X235404Y124046D01*
X236790Y121972D01*
X238864Y120586D01*
X241310Y120099D01*
X243756Y120586D01*
X245830Y121972D01*
X247216Y124046D01*
X247703Y126492D01*
X247216Y128938D01*
X245830Y131012D01*
X243756Y132398D01*
X241310Y132885D01*
D02*
G37*
G36*
X88630Y120070D02*
X84900D01*
Y116840D01*
X88630D01*
Y120070D01*
D02*
G37*
G36*
X82360D02*
X78630D01*
Y116840D01*
X82360D01*
Y120070D01*
D02*
G37*
G36*
X88630Y114300D02*
X84900D01*
Y111070D01*
X88630D01*
Y114300D01*
D02*
G37*
G36*
X82360D02*
X78630D01*
Y111070D01*
X82360D01*
Y114300D01*
D02*
G37*
G36*
X182150Y159710D02*
X171610D01*
Y150170D01*
X174326D01*
Y145740D01*
X171646D01*
Y136200D01*
X173976D01*
Y130953D01*
X173069Y130347D01*
X172457Y129431D01*
X172242Y128350D01*
Y111650D01*
X172457Y110569D01*
X173069Y109653D01*
X173985Y109041D01*
X175066Y108826D01*
X178066D01*
X179147Y109041D01*
X180063Y109653D01*
X180675Y110569D01*
X180890Y111650D01*
Y128350D01*
X180675Y129431D01*
X180063Y130347D01*
X179156Y130953D01*
Y136200D01*
X182186D01*
Y145740D01*
X179506D01*
Y150170D01*
X182150D01*
Y159710D01*
D02*
G37*
G36*
X212614Y104520D02*
X207384D01*
Y97790D01*
X212614D01*
Y104520D01*
D02*
G37*
G36*
X204844D02*
X199614D01*
Y97790D01*
X204844D01*
Y104520D01*
D02*
G37*
G36*
X212614Y95250D02*
X207384D01*
Y88520D01*
X212614D01*
Y95250D01*
D02*
G37*
G36*
X204844D02*
X199614D01*
Y88520D01*
X204844D01*
Y95250D01*
D02*
G37*
G36*
X212614Y87248D02*
X207384D01*
Y80518D01*
X212614D01*
Y87248D01*
D02*
G37*
G36*
X204844D02*
X199614D01*
Y80518D01*
X204844D01*
Y87248D01*
D02*
G37*
G36*
X212614Y77978D02*
X207384D01*
Y71248D01*
X212614D01*
Y77978D01*
D02*
G37*
G36*
X204844D02*
X199614D01*
Y71248D01*
X204844D01*
Y77978D01*
D02*
G37*
G36*
X270590Y56840D02*
X267860D01*
Y54610D01*
X270590D01*
Y56840D01*
D02*
G37*
G36*
X145050Y46990D02*
X142320D01*
Y44760D01*
X145050D01*
Y46990D01*
D02*
G37*
G36*
X139780D02*
X137050D01*
Y44760D01*
X139780D01*
Y46990D01*
D02*
G37*
G36*
X112776Y89190D02*
X111110Y88858D01*
X109698Y87914D01*
X108754Y86502D01*
X108422Y84836D01*
X108754Y83170D01*
X109373Y82243D01*
X109569Y80847D01*
X108957Y79931D01*
X108742Y78850D01*
Y62150D01*
X108957Y61069D01*
X109569Y60153D01*
X110476Y59547D01*
Y54300D01*
X108110D01*
Y44760D01*
X118650D01*
Y54300D01*
X115656D01*
Y59547D01*
X116563Y60153D01*
X117175Y61069D01*
X117390Y62150D01*
Y78850D01*
X117175Y79931D01*
X116563Y80847D01*
X116358Y82511D01*
X116798Y83170D01*
X117130Y84836D01*
X116798Y86502D01*
X115855Y87914D01*
X114442Y88858D01*
X112776Y89190D01*
D02*
G37*
G36*
X190766Y81674D02*
X187766D01*
X186685Y81459D01*
X185769Y80847D01*
X185157Y79931D01*
X184942Y78850D01*
Y62150D01*
X185157Y61069D01*
X185769Y60153D01*
X186685Y59541D01*
X187766Y59326D01*
X190766D01*
X191847Y59541D01*
X192763Y60153D01*
X193269Y60910D01*
X200820D01*
Y58730D01*
X204070D01*
Y53030D01*
X201390D01*
Y43490D01*
X211930D01*
Y53030D01*
X209250D01*
Y58730D01*
X211360D01*
Y68270D01*
X200820D01*
Y66090D01*
X193590D01*
Y78850D01*
X193375Y79931D01*
X192763Y80847D01*
X191847Y81459D01*
X190766Y81674D01*
D02*
G37*
G36*
X400890Y127690D02*
X397160D01*
Y124460D01*
X400890D01*
Y127690D01*
D02*
G37*
G36*
Y121920D02*
X397160D01*
Y118690D01*
X400890D01*
Y121920D01*
D02*
G37*
G36*
X397620Y115260D02*
X394890D01*
Y113030D01*
X397620D01*
Y115260D01*
D02*
G37*
G36*
X392350D02*
X389620D01*
Y113030D01*
X392350D01*
Y115260D01*
D02*
G37*
G36*
X397620Y110490D02*
X394890D01*
Y108260D01*
X397620D01*
Y110490D01*
D02*
G37*
G36*
X392350D02*
X389620D01*
Y108260D01*
X392350D01*
Y110490D01*
D02*
G37*
%LPD*%
D10*
X377508Y43370D02*
X488847D01*
X365650Y55228D02*
X377508Y43370D01*
X488847D02*
X501602Y56125D01*
X375720Y51254D02*
Y70538D01*
Y51254D02*
X379594Y47380D01*
X371007Y75250D02*
X375720Y70538D01*
X379594Y47380D02*
X478418D01*
X365650Y55228D02*
Y67250D01*
Y75250D02*
X371007D01*
X478418Y47380D02*
X489458Y58420D01*
D16*
X356870Y346710D02*
D03*
D17*
X285750D02*
D03*
X44450Y273050D02*
D03*
X43180Y349250D02*
D03*
D18*
X113066Y70500D02*
D03*
X125766D02*
D03*
X138466D02*
D03*
X151166D02*
D03*
X163866D02*
D03*
X176566D02*
D03*
X189266D02*
D03*
Y120000D02*
D03*
X176566D02*
D03*
X163866D02*
D03*
X151166D02*
D03*
X138466D02*
D03*
X125766D02*
D03*
X113066D02*
D03*
D19*
X322200Y218186D02*
D03*
X338200D02*
D03*
X433704Y163830D02*
D03*
X417704D02*
D03*
D20*
X476250Y144650D02*
D03*
X451250D02*
D03*
X426250D02*
D03*
X476250Y120650D02*
D03*
X451250D02*
D03*
X426250D02*
D03*
D21*
X282050Y123250D02*
D03*
Y115250D02*
D03*
Y107250D02*
D03*
Y99250D02*
D03*
Y91250D02*
D03*
Y83250D02*
D03*
Y75250D02*
D03*
Y67250D02*
D03*
X365650D02*
D03*
Y75250D02*
D03*
Y83250D02*
D03*
Y91250D02*
D03*
Y99250D02*
D03*
Y107250D02*
D03*
Y115250D02*
D03*
Y123250D02*
D03*
D22*
X351850Y137050D02*
D03*
X343850D02*
D03*
X335850D02*
D03*
X327850D02*
D03*
X319850D02*
D03*
X311850D02*
D03*
X303850D02*
D03*
X295850D02*
D03*
Y53450D02*
D03*
X303850D02*
D03*
X311850D02*
D03*
X319850D02*
D03*
X327850D02*
D03*
X335850D02*
D03*
X343850D02*
D03*
X351850D02*
D03*
D23*
X580426Y65150D02*
D03*
Y49150D02*
D03*
X551216Y65150D02*
D03*
Y49150D02*
D03*
X522006Y65531D02*
D03*
Y49530D02*
D03*
D24*
X364140Y218186D02*
D03*
X352140D02*
D03*
X404526Y163830D02*
D03*
X392526D02*
D03*
X395890Y123190D02*
D03*
X383890D02*
D03*
X95630Y128580D02*
D03*
X83630D02*
D03*
X206344Y111506D02*
D03*
X218344D02*
D03*
X95630Y140970D02*
D03*
X83630D02*
D03*
X113380Y49530D02*
D03*
X125380D02*
D03*
X83630Y115570D02*
D03*
X95630D02*
D03*
Y153980D02*
D03*
X83630D02*
D03*
X206090Y63500D02*
D03*
X218090D02*
D03*
X176180Y48260D02*
D03*
X164180D02*
D03*
X94900Y184150D02*
D03*
X82900D02*
D03*
X206660Y48260D02*
D03*
X194660D02*
D03*
X482220Y165790D02*
D03*
X494220D02*
D03*
X83630Y166680D02*
D03*
X95630D02*
D03*
X82900Y196850D02*
D03*
X94900D02*
D03*
X176880Y154940D02*
D03*
X188880D02*
D03*
X176916Y140970D02*
D03*
X188916D02*
D03*
D25*
X383620Y111760D02*
D03*
X393620D02*
D03*
X382190Y137160D02*
D03*
X372190D02*
D03*
X271860Y53340D02*
D03*
X281860D02*
D03*
X319960Y158750D02*
D03*
X309960D02*
D03*
X151050Y48260D02*
D03*
X141050D02*
D03*
X508540Y166330D02*
D03*
X518540D02*
D03*
D26*
X319650Y171450D02*
D03*
X302650D02*
D03*
D27*
X289560Y170020D02*
D03*
Y160020D02*
D03*
D28*
X582540Y121130D02*
D03*
Y151130D02*
D03*
X510540Y121130D02*
D03*
Y151130D02*
D03*
D29*
X206114Y96520D02*
D03*
X221114D02*
D03*
X206114Y79248D02*
D03*
X221114D02*
D03*
D30*
X565150Y49880D02*
D03*
Y61880D02*
D03*
X535940Y49880D02*
D03*
Y61880D02*
D03*
X506730Y49880D02*
D03*
Y61880D02*
D03*
X207772Y125160D02*
D03*
Y137160D02*
D03*
D31*
X223266Y140088D02*
D03*
Y125088D02*
D03*
D48*
X466090Y68834D02*
D03*
Y56134D02*
D03*
X241310Y126492D02*
D03*
X251460Y50292D02*
D03*
X261610Y126492D02*
D03*
D57*
X579374Y190500D02*
Y240030D01*
X176880Y154940D02*
Y154940D01*
D58*
X335280Y325628D02*
X382524D01*
X335280D02*
Y346710D01*
X338200Y218186D02*
X352140D01*
D59*
X302260Y170390D02*
X303620Y171750D01*
X388620Y218186D02*
X388620Y218186D01*
X364140Y218186D02*
X388620D01*
X338200Y218186D02*
X338200Y218186D01*
X336550Y291846D02*
X377698D01*
X349886Y220440D02*
X352140Y218186D01*
X355092Y165354D02*
X356616D01*
X343850Y154112D02*
X355092Y165354D01*
X343850Y137050D02*
Y154112D01*
X359108Y187500D02*
Y201216D01*
X358648Y201676D02*
X359108Y201216D01*
X360680Y185928D02*
X360934D01*
X359108Y187500D02*
X360680Y185928D01*
X335850Y169988D02*
X352298Y186436D01*
X335850Y137050D02*
Y169988D01*
X168910Y189484D02*
X190500D01*
X209964Y170020D01*
X289560D01*
X148590Y165100D02*
X235150D01*
X277000Y123250D01*
X203962Y209296D02*
X216662Y196596D01*
X202438Y209296D02*
X203962D01*
X423466Y74978D02*
X431546Y83058D01*
X384615Y77312D02*
X386949Y74978D01*
X423466D01*
X371389Y83250D02*
X377444Y77195D01*
Y74852D02*
Y77195D01*
Y74852D02*
X379990Y72306D01*
Y72306D02*
Y72306D01*
Y72306D02*
X384302Y67994D01*
Y57658D02*
Y67994D01*
X397764Y81788D02*
X415290D01*
X393700Y85852D02*
X397764Y81788D01*
X400812Y89408D02*
X414546Y103142D01*
X384302Y85852D02*
X393700D01*
X367062Y92662D02*
X387933D01*
X405130Y109859D01*
X365650Y91250D02*
X367062Y92662D01*
X405130Y109859D02*
Y127215D01*
X365650Y83250D02*
X371389D01*
X446024Y68580D02*
X463550D01*
X431546Y83058D02*
X446024Y68580D01*
X290598Y76730D02*
X297386Y83518D01*
X283530Y76730D02*
X290598D01*
X282050Y75250D02*
X283530Y76730D01*
X423370Y89868D02*
X454962D01*
X415290Y81788D02*
X423370Y89868D01*
X414546Y103142D02*
Y127000D01*
X405130Y127215D02*
X411725Y133810D01*
X372190Y143082D02*
X384302Y155194D01*
X391922Y137800D02*
Y165430D01*
X365633Y160020D02*
X366522D01*
X355981Y150368D02*
X365633Y160020D01*
X355092Y150368D02*
X355981D01*
X312722Y83518D02*
X315214Y81026D01*
X297386Y83518D02*
X312722D01*
X299777Y63790D02*
X310107Y74120D01*
X294644Y68330D02*
X303022Y76708D01*
X283130Y68330D02*
X294644D01*
X310107Y74120D02*
X334820D01*
X312420Y54020D02*
Y66802D01*
X311850Y53450D02*
X312420Y54020D01*
X292451Y63790D02*
X299777D01*
X351960Y137160D02*
X372190D01*
X351850Y137050D02*
X351960Y137160D01*
X282050Y67250D02*
X283130Y68330D01*
X289621Y60960D02*
X292451Y63790D01*
X264668Y60960D02*
X289621D01*
X164680Y48260D02*
Y52920D01*
X176120Y372520D02*
X193040Y355600D01*
X16920Y372520D02*
X176120D01*
X9430Y371451D02*
X18726Y380746D01*
X167640D01*
X13970Y369570D02*
X16920Y372520D01*
X9430Y179800D02*
X10160Y179070D01*
X9430Y179800D02*
Y371451D01*
X411725Y133810D02*
X482002D01*
X361188Y144018D02*
X375158Y157988D01*
X372190Y137160D02*
Y143082D01*
X377380Y99250D02*
X383120Y104990D01*
Y111760D01*
X454962Y89868D02*
X463550Y81280D01*
X236474Y70358D02*
X255270D01*
X294640Y94996D02*
Y105410D01*
X351850Y114106D02*
Y137050D01*
X336804Y99060D02*
X351850Y114106D01*
X319850Y60770D02*
X326390Y67310D01*
X319850Y53450D02*
Y60770D01*
X334820Y74120D02*
X343850Y65090D01*
X365650Y99250D02*
X377380D01*
X377190Y109220D02*
Y128270D01*
X375220Y107250D02*
X377190Y109220D01*
X365650Y107250D02*
X375220D01*
X254886Y58562D02*
X265148Y48300D01*
X247362Y58562D02*
X254886D01*
X245930Y57130D02*
X247362Y58562D01*
X237470Y57130D02*
X245930D01*
X265148Y48300D02*
X276320D01*
X255270Y70358D02*
X264668Y60960D01*
X281910Y137130D02*
X281970D01*
X110876Y49530D02*
X113066Y51720D01*
X125766Y85888D02*
X132080Y92202D01*
X125766Y70500D02*
Y85888D01*
X117026Y92964D02*
X122174D01*
X95630Y114360D02*
X117026Y92964D01*
X112776Y70790D02*
X113066Y70500D01*
X112776Y70790D02*
Y84836D01*
X132080Y92202D02*
Y137160D01*
X384932Y130810D02*
X391922Y137800D01*
X163866Y70500D02*
Y76926D01*
X144780Y96012D02*
X163866Y76926D01*
X144780Y96012D02*
Y135890D01*
X496062Y121158D02*
X510512D01*
X510540Y121130D01*
X451250Y144650D02*
Y158604D01*
X450850Y159004D02*
X451250Y158604D01*
X418466Y163830D02*
X418466Y163830D01*
X404526Y163830D02*
X418466D01*
X565150Y61880D02*
Y71882D01*
X536067Y70993D02*
X536194Y71120D01*
X536067Y62007D02*
Y70993D01*
X535940Y61880D02*
X536067Y62007D01*
X501602Y56125D02*
Y56252D01*
X506730Y61380D01*
X482002Y133810D02*
X494220Y146028D01*
Y165790D01*
X506730Y61380D02*
Y61880D01*
X565186Y51150D02*
X567186Y49150D01*
X580426D01*
X535976Y51150D02*
X537976Y49150D01*
X551216D01*
X506766Y51530D02*
X508766Y49530D01*
X522006D01*
X508540Y153130D02*
Y166330D01*
Y153130D02*
X510540Y151130D01*
X508270Y166060D02*
X508540Y166330D01*
X494490Y166060D02*
X508270D01*
X494220Y165790D02*
X494490Y166060D01*
X384390Y123190D02*
X405850Y144650D01*
X383890Y123190D02*
X384390D01*
X383890Y112030D02*
Y123190D01*
X379730Y130810D02*
X384932D01*
X377190Y128270D02*
X379730Y130810D01*
X405850Y144650D02*
X426250D01*
X383620Y111760D02*
X383890Y112030D01*
X383120Y111760D02*
X383620D01*
X311150Y137750D02*
Y147320D01*
Y137750D02*
X311850Y137050D01*
X307340Y151130D02*
X311150Y147320D01*
X292100Y151130D02*
X307340D01*
X289560Y170020D02*
X301220D01*
X302650Y171450D01*
X302260Y159130D02*
Y170390D01*
X319960Y158750D02*
Y171450D01*
Y152400D02*
Y158750D01*
X281970Y137130D02*
X351850Y67250D01*
X298450Y109220D02*
X314960Y92710D01*
X351850Y53450D02*
Y67250D01*
X327660Y101600D02*
Y136860D01*
X327850Y137050D01*
X176880Y154940D02*
X176916Y154904D01*
Y140970D02*
Y154904D01*
X294640Y105410D02*
X298450Y109220D01*
X281860Y53340D02*
X295740D01*
X281360D02*
X281860D01*
X343850Y53450D02*
Y65090D01*
X276320Y48300D02*
X281360Y53340D01*
X151108Y55880D02*
Y70442D01*
Y48318D02*
Y55880D01*
X143510D02*
X151108D01*
X319850Y137050D02*
X319905Y137105D01*
Y152345D01*
X319960Y152400D01*
X295740Y53340D02*
X295850Y53450D01*
X250604Y99250D02*
X282050D01*
X224766Y125088D02*
X250604Y99250D01*
X223266Y125088D02*
X224766D01*
X219036Y129318D02*
X223266Y125088D01*
X215114Y129318D02*
X219036D01*
X207772Y136660D02*
X215114Y129318D01*
X207772Y136660D02*
Y137160D01*
X277000Y123250D02*
X282050D01*
X200406Y111506D02*
X206344D01*
X190500Y101600D02*
X200406Y111506D01*
X168910Y101600D02*
X190500D01*
X170180Y58420D02*
Y89208D01*
X164680Y52920D02*
X170180Y58420D01*
X157480Y101908D02*
Y134620D01*
X116840Y175260D02*
X157480Y134620D01*
X92290Y175260D02*
X116840D01*
X157480Y101908D02*
X170180Y89208D01*
X83400Y184150D02*
X92290Y175260D01*
X82900Y184150D02*
X83400D01*
X118110D02*
X163866Y138394D01*
X94900Y184150D02*
X118110D01*
X81230Y182480D02*
X82900Y184150D01*
X37230Y182480D02*
X81230D01*
X35560Y180810D02*
X37230Y182480D01*
X95630Y140970D02*
X128270D01*
X126690Y153980D02*
X144780Y135890D01*
X128270Y140970D02*
X132080Y137160D01*
X164180Y48260D02*
X164680D01*
X95630Y153980D02*
X126690D01*
X163866Y120000D02*
Y138394D01*
X161450Y50490D02*
X163680Y48260D01*
X164180D01*
X125766Y49916D02*
Y70500D01*
X95630Y114360D02*
Y115570D01*
X138430Y88900D02*
X138448Y88882D01*
Y70518D02*
Y88882D01*
X95630Y115570D02*
Y128580D01*
X95630Y128580D02*
X95630Y128580D01*
X83630Y140970D02*
Y153980D01*
X83630Y140970D02*
X83630Y140970D01*
X138448Y70518D02*
X138466Y70500D01*
X96130Y128580D02*
X98360Y126350D01*
X95630Y128580D02*
X96130D01*
X113066Y120000D02*
X125766D01*
X31825Y157405D02*
X33965D01*
X10160Y179070D02*
X31825Y157405D01*
X13970Y202400D02*
Y369570D01*
X33965Y157405D02*
X35560Y155810D01*
X13970Y202400D02*
X35560Y180810D01*
X94900Y196850D02*
X94900Y196850D01*
X94900Y184150D02*
Y196850D01*
X95630Y166680D02*
X95630Y166680D01*
X95630Y153980D02*
Y166680D01*
X96170Y115570D02*
X96170Y115570D01*
X37790Y128580D02*
X83630D01*
X35560Y130810D02*
X37790Y128580D01*
X82715Y154895D02*
X83630Y153980D01*
X36475Y154895D02*
X82715D01*
X35560Y155810D02*
X36475Y154895D01*
X151108Y70442D02*
X151166Y70500D01*
X151050Y48260D02*
X151108Y48318D01*
X125380Y49530D02*
X125766Y49916D01*
X113066Y51720D02*
Y70500D01*
X218344Y99290D02*
X221114Y96520D01*
X218344Y99290D02*
Y111506D01*
X221114Y95480D02*
Y96520D01*
Y95480D02*
X225344Y91250D01*
X282050D01*
X221114Y79248D02*
X225116Y83250D01*
X282050D01*
X218440Y76574D02*
X221114Y79248D01*
X218440Y63850D02*
Y76574D01*
X218090Y63500D02*
X218440Y63850D01*
X189266Y65212D02*
X190978Y63500D01*
X189266Y65212D02*
Y70500D01*
X190978Y63500D02*
X206090D01*
X206660Y62930D01*
Y48260D02*
Y62930D01*
X176180Y48260D02*
X194660D01*
X176180D02*
X176566Y48646D01*
Y70500D01*
X189266Y120000D02*
Y123448D01*
Y140620D01*
Y123448D02*
X190978Y125160D01*
X207772D01*
X188916Y140970D02*
X189266Y140620D01*
X176566Y140620D02*
X176916Y140970D01*
X176566Y120000D02*
Y140620D01*
D60*
X34290Y72390D02*
D03*
X618490D02*
D03*
Y354330D02*
D03*
D61*
X303530Y91440D02*
D03*
X347530D02*
D03*
D62*
X466090Y81534D02*
D03*
D63*
X218040Y355600D02*
D03*
X193040D02*
D03*
X168040D02*
D03*
X35560Y205810D02*
D03*
Y180810D02*
D03*
Y155810D02*
D03*
D64*
X143040Y355600D02*
D03*
D65*
X35560Y130810D02*
D03*
D66*
X600710Y273050D02*
D03*
Y213360D02*
D03*
D67*
X408686Y58674D02*
D03*
D68*
X434086D02*
D03*
D69*
X301498Y359156D02*
D03*
X291498D02*
D03*
X281498D02*
D03*
X271494D02*
D03*
X272288Y156210D02*
D03*
X112268Y162814D02*
D03*
X600000Y150000D02*
D03*
X550000D02*
D03*
X475000Y100000D02*
D03*
X275000Y200000D02*
D03*
X225000Y300000D02*
D03*
X200000Y250000D02*
D03*
X100000Y350000D02*
D03*
X125000Y200000D02*
D03*
X100000Y50000D02*
D03*
X75000Y100000D02*
D03*
X338328Y242062D02*
D03*
X388620Y218186D02*
D03*
X336550Y291846D02*
D03*
X355092Y150368D02*
D03*
X356616Y165354D02*
D03*
X358648Y201676D02*
D03*
X360934Y185928D02*
D03*
X352298Y186436D02*
D03*
X377698Y291846D02*
D03*
X168910Y189484D02*
D03*
X148590Y165100D02*
D03*
X216662Y196596D02*
D03*
X202438Y209296D02*
D03*
X271494Y349504D02*
D03*
X281498D02*
D03*
X291498D02*
D03*
X301498D02*
D03*
X301530Y340360D02*
D03*
X291530D02*
D03*
X281530D02*
D03*
X271526D02*
D03*
Y331720D02*
D03*
X281530D02*
D03*
X291530D02*
D03*
X301530D02*
D03*
X143510Y55880D02*
D03*
X360172Y45974D02*
D03*
X384615Y77312D02*
D03*
X400812Y89408D02*
D03*
X384302Y85852D02*
D03*
Y57658D02*
D03*
X489458Y58420D02*
D03*
X415290Y81788D02*
D03*
X414546Y127000D02*
D03*
X384302Y155194D02*
D03*
X303022Y76708D02*
D03*
X312420Y66802D02*
D03*
X167640Y380746D02*
D03*
X375158Y157988D02*
D03*
X361188Y144018D02*
D03*
X366522Y160020D02*
D03*
X391160Y105520D02*
D03*
X236474Y70358D02*
D03*
X294640Y94996D02*
D03*
X336804Y99060D02*
D03*
X326390Y67310D02*
D03*
X315214Y81026D02*
D03*
X264478Y46986D02*
D03*
X122174Y92964D02*
D03*
X112776Y84836D02*
D03*
X431546Y83058D02*
D03*
X496062Y121158D02*
D03*
X450850Y159004D02*
D03*
X565150Y71882D02*
D03*
X536194Y71120D02*
D03*
X292100Y151130D02*
D03*
X302260Y159130D02*
D03*
X314960Y92710D02*
D03*
X327660Y101600D02*
D03*
X298450Y109220D02*
D03*
X281940Y137160D02*
D03*
X237470Y57130D02*
D03*
X168910Y101600D02*
D03*
X138430Y88900D02*
D03*
M02*
