G04*
G04 #@! TF.GenerationSoftware,Altium Limited,Altium NEXUS,2.1.5 (53)*
G04*
G04 Layer_Color=8421504*
%FSLAX44Y44*%
%MOMM*%
G71*
G01*
G75*
%ADD16R,4.1000X4.0000*%
%ADD17R,4.0000X4.0000*%
G04:AMPARAMS|DCode=18|XSize=1.97mm|YSize=0.6mm|CornerRadius=0.15mm|HoleSize=0mm|Usage=FLASHONLY|Rotation=90.000|XOffset=0mm|YOffset=0mm|HoleType=Round|Shape=RoundedRectangle|*
%AMROUNDEDRECTD18*
21,1,1.9700,0.3000,0,0,90.0*
21,1,1.6700,0.6000,0,0,90.0*
1,1,0.3000,0.1500,0.8350*
1,1,0.3000,0.1500,-0.8350*
1,1,0.3000,-0.1500,-0.8350*
1,1,0.3000,-0.1500,0.8350*
%
%ADD18ROUNDEDRECTD18*%
%ADD19R,0.8000X0.8000*%
%ADD20R,1.0000X1.6000*%
G04:AMPARAMS|DCode=21|XSize=1.56mm|YSize=0.55mm|CornerRadius=0.0688mm|HoleSize=0mm|Usage=FLASHONLY|Rotation=0.000|XOffset=0mm|YOffset=0mm|HoleType=Round|Shape=RoundedRectangle|*
%AMROUNDEDRECTD21*
21,1,1.5600,0.4125,0,0,0.0*
21,1,1.4225,0.5500,0,0,0.0*
1,1,0.1375,0.7113,-0.2063*
1,1,0.1375,-0.7113,-0.2063*
1,1,0.1375,-0.7113,0.2063*
1,1,0.1375,0.7113,0.2063*
%
%ADD21ROUNDEDRECTD21*%
G04:AMPARAMS|DCode=22|XSize=1.56mm|YSize=0.55mm|CornerRadius=0.0688mm|HoleSize=0mm|Usage=FLASHONLY|Rotation=270.000|XOffset=0mm|YOffset=0mm|HoleType=Round|Shape=RoundedRectangle|*
%AMROUNDEDRECTD22*
21,1,1.5600,0.4125,0,0,270.0*
21,1,1.4225,0.5500,0,0,270.0*
1,1,0.1375,-0.2063,-0.7113*
1,1,0.1375,-0.2063,0.7113*
1,1,0.1375,0.2063,0.7113*
1,1,0.1375,0.2063,-0.7113*
%
%ADD22ROUNDEDRECTD22*%
%ADD23R,0.8000X0.8000*%
%ADD24R,0.8000X0.7000*%
%ADD25R,0.6000X0.5000*%
%ADD26R,0.9000X1.0000*%
%ADD27R,0.5000X0.6000*%
%ADD28R,1.6000X1.4000*%
%ADD29R,1.1000X1.4000*%
%ADD30R,0.7000X0.8000*%
%ADD31R,1.4000X1.1000*%
D16*
X356870Y346710D02*
D03*
D17*
X285750D02*
D03*
D18*
X113066Y70500D02*
D03*
X125766D02*
D03*
X138466D02*
D03*
X151166D02*
D03*
X163866D02*
D03*
X176566D02*
D03*
X189266D02*
D03*
Y120000D02*
D03*
X176566D02*
D03*
X163866D02*
D03*
X151166D02*
D03*
X138466D02*
D03*
X125766D02*
D03*
X113066D02*
D03*
D19*
X322200Y218186D02*
D03*
X338200D02*
D03*
X433704Y163830D02*
D03*
X417704D02*
D03*
D20*
X476250Y144650D02*
D03*
X451250D02*
D03*
X426250D02*
D03*
X476250Y120650D02*
D03*
X451250D02*
D03*
X426250D02*
D03*
D21*
X282050Y123250D02*
D03*
Y115250D02*
D03*
Y107250D02*
D03*
Y99250D02*
D03*
Y91250D02*
D03*
Y83250D02*
D03*
Y75250D02*
D03*
Y67250D02*
D03*
X365650D02*
D03*
Y75250D02*
D03*
Y83250D02*
D03*
Y91250D02*
D03*
Y99250D02*
D03*
Y107250D02*
D03*
Y115250D02*
D03*
Y123250D02*
D03*
D22*
X351850Y137050D02*
D03*
X343850D02*
D03*
X335850D02*
D03*
X327850D02*
D03*
X319850D02*
D03*
X311850D02*
D03*
X303850D02*
D03*
X295850D02*
D03*
Y53450D02*
D03*
X303850D02*
D03*
X311850D02*
D03*
X319850D02*
D03*
X327850D02*
D03*
X335850D02*
D03*
X343850D02*
D03*
X351850D02*
D03*
D23*
X580426Y65150D02*
D03*
Y49150D02*
D03*
X551216Y65150D02*
D03*
Y49150D02*
D03*
X522006Y65531D02*
D03*
Y49530D02*
D03*
D24*
X364140Y218186D02*
D03*
X352140D02*
D03*
X404526Y163830D02*
D03*
X392526D02*
D03*
X395890Y123190D02*
D03*
X383890D02*
D03*
X95630Y128580D02*
D03*
X83630D02*
D03*
X206344Y111506D02*
D03*
X218344D02*
D03*
X95630Y140970D02*
D03*
X83630D02*
D03*
X113380Y49530D02*
D03*
X125380D02*
D03*
X83630Y115570D02*
D03*
X95630D02*
D03*
Y153980D02*
D03*
X83630D02*
D03*
X206090Y63500D02*
D03*
X218090D02*
D03*
X176180Y48260D02*
D03*
X164180D02*
D03*
X94900Y184150D02*
D03*
X82900D02*
D03*
X206660Y48260D02*
D03*
X194660D02*
D03*
X482220Y165790D02*
D03*
X494220D02*
D03*
X83630Y166680D02*
D03*
X95630D02*
D03*
X82900Y196850D02*
D03*
X94900D02*
D03*
X176880Y154940D02*
D03*
X188880D02*
D03*
X176916Y140970D02*
D03*
X188916D02*
D03*
D25*
X383620Y111760D02*
D03*
X393620D02*
D03*
X382190Y137160D02*
D03*
X372190D02*
D03*
X271860Y53340D02*
D03*
X281860D02*
D03*
X319960Y158750D02*
D03*
X309960D02*
D03*
X151050Y48260D02*
D03*
X141050D02*
D03*
X508540Y166330D02*
D03*
X518540D02*
D03*
D26*
X319650Y171450D02*
D03*
X302650D02*
D03*
D27*
X289560Y170020D02*
D03*
Y160020D02*
D03*
D28*
X582540Y121130D02*
D03*
Y151130D02*
D03*
X510540Y121130D02*
D03*
Y151130D02*
D03*
D29*
X206114Y96520D02*
D03*
X221114D02*
D03*
X206114Y79248D02*
D03*
X221114D02*
D03*
D30*
X565150Y49880D02*
D03*
Y61880D02*
D03*
X535940Y49880D02*
D03*
Y61880D02*
D03*
X506730Y49880D02*
D03*
Y61880D02*
D03*
X207772Y125160D02*
D03*
Y137160D02*
D03*
D31*
X223266Y140088D02*
D03*
Y125088D02*
D03*
M02*
