G04*
G04 #@! TF.GenerationSoftware,Altium Limited,Altium NEXUS,2.1.5 (53)*
G04*
G04 Layer_Color=32896*
%FSLAX44Y44*%
%MOMM*%
G71*
G01*
G75*
%ADD10C,0.2000*%
%ADD12C,0.1270*%
%ADD15C,0.6000*%
%ADD98C,0.1524*%
%ADD99C,0.0762*%
G36*
X577088Y187452D02*
X550382D01*
Y297942D01*
X577088D01*
Y187452D01*
D02*
G37*
G36*
X429768Y317372D02*
Y301752D01*
X284988D01*
Y317372D01*
Y330962D01*
X429768D01*
Y317372D01*
D02*
G37*
G36*
X88138Y250952D02*
X67818D01*
Y374142D01*
X88138D01*
Y250952D01*
D02*
G37*
G36*
X146812Y218694D02*
X78994D01*
Y240792D01*
X146812D01*
Y218694D01*
D02*
G37*
%LPC*%
G36*
X572014Y265525D02*
X555456D01*
Y250216D01*
Y257652D01*
X555477Y257485D01*
X555498Y257297D01*
X555518Y257068D01*
X555539Y256818D01*
X555581Y256527D01*
X555706Y255923D01*
X555893Y255256D01*
X556018Y254902D01*
X556164Y254569D01*
X556331Y254215D01*
X556518Y253882D01*
X556539Y253861D01*
X556560Y253798D01*
X556622Y253715D01*
X556706Y253590D01*
X556830Y253444D01*
X556955Y253257D01*
X557101Y253069D01*
X557289Y252861D01*
X557476Y252653D01*
X557705Y252424D01*
X557955Y252195D01*
X558205Y251966D01*
X558497Y251757D01*
X558809Y251549D01*
X559476Y251153D01*
X559496Y251132D01*
X559559Y251112D01*
X559663Y251070D01*
X559809Y251007D01*
X559996Y250945D01*
X560205Y250862D01*
X560455Y250778D01*
X560725Y250674D01*
X561017Y250591D01*
X561350Y250508D01*
X561704Y250424D01*
X562079Y250362D01*
X562892Y250258D01*
X563329Y250216D01*
X563995D01*
X564183Y250237D01*
X564391D01*
X564641Y250258D01*
X564912Y250299D01*
X565224Y250341D01*
X565558Y250403D01*
X565911Y250466D01*
X566641Y250632D01*
X567390Y250882D01*
X567765Y251049D01*
X568140Y251216D01*
X568161Y251236D01*
X568223Y251257D01*
X568328Y251320D01*
X568453Y251403D01*
X568619Y251507D01*
X568807Y251611D01*
X568994Y251757D01*
X569223Y251924D01*
X569452Y252111D01*
X569681Y252320D01*
X570160Y252799D01*
X570639Y253361D01*
X570848Y253673D01*
X571035Y254007D01*
Y254027D01*
X571077Y254090D01*
X571119Y254194D01*
X571181Y254319D01*
X571264Y254486D01*
X571348Y254673D01*
X571431Y254902D01*
X571514Y255152D01*
X571618Y255444D01*
X571702Y255735D01*
X571868Y256402D01*
X571973Y257110D01*
X571993Y257485D01*
X572014Y257881D01*
Y258110D01*
X571993Y258256D01*
X571973Y258464D01*
X571952Y258693D01*
X571931Y258943D01*
X571868Y259234D01*
X571743Y259859D01*
X571556Y260547D01*
X571431Y260901D01*
X571285Y261234D01*
X571119Y261588D01*
X570931Y261921D01*
X570910Y261942D01*
X570889Y262005D01*
X570827Y262088D01*
X570723Y262213D01*
X570619Y262359D01*
X570494Y262525D01*
X570327Y262713D01*
X570160Y262921D01*
X569952Y263129D01*
X569723Y263358D01*
X569473Y263587D01*
X569223Y263796D01*
X568619Y264233D01*
X567953Y264608D01*
X567932D01*
X567869Y264650D01*
X567765Y264691D01*
X567619Y264754D01*
X567453Y264816D01*
X567244Y264900D01*
X566995Y264983D01*
X566745Y265066D01*
X566453Y265150D01*
X566141Y265233D01*
X565474Y265379D01*
X564724Y265483D01*
X564349Y265504D01*
X563954Y265525D01*
X572014D01*
D01*
D02*
G37*
G36*
Y247467D02*
X555727D01*
Y234866D01*
X565391D01*
X565599Y234886D01*
X565828D01*
X566099Y234907D01*
X566370Y234928D01*
X566995Y235012D01*
X567640Y235095D01*
X568265Y235241D01*
X568557Y235324D01*
X568828Y235428D01*
X568848D01*
X568890Y235449D01*
X568973Y235490D01*
X569057Y235532D01*
X569182Y235595D01*
X569327Y235678D01*
X569640Y235886D01*
X570015Y236157D01*
X570390Y236490D01*
X570785Y236907D01*
X570973Y237157D01*
X571139Y237407D01*
Y237428D01*
X571181Y237469D01*
X571223Y237553D01*
X571285Y237657D01*
X571348Y237802D01*
X571410Y237969D01*
X571493Y238177D01*
X571577Y238406D01*
X571660Y238656D01*
X571743Y238948D01*
X571806Y239240D01*
X571868Y239573D01*
X571931Y239927D01*
X571973Y240302D01*
X571993Y240718D01*
X572014Y241135D01*
Y241343D01*
X571993Y241510D01*
Y241697D01*
X571973Y241926D01*
X571952Y242176D01*
X571910Y242447D01*
X571827Y243030D01*
X571681Y243634D01*
X571493Y244259D01*
X571244Y244821D01*
Y244842D01*
X571202Y244884D01*
X571160Y244967D01*
X571098Y245051D01*
X570931Y245301D01*
X570681Y245613D01*
X570369Y245946D01*
X569973Y246279D01*
X569536Y246592D01*
X569015Y246863D01*
X568994D01*
X568952Y246883D01*
X568869Y246925D01*
X568744Y246946D01*
X568598Y247008D01*
X568411Y247050D01*
X568203Y247113D01*
X567953Y247154D01*
X567682Y247217D01*
X567390Y247279D01*
X567057Y247321D01*
X566703Y247362D01*
X566307Y247404D01*
X565891Y247446D01*
X565453Y247467D01*
X572014D01*
D01*
D02*
G37*
G36*
X571743Y232533D02*
Y227264D01*
X557622D01*
Y232533D01*
X571743D01*
X555727D01*
Y219869D01*
X557622D01*
Y225139D01*
X571743D01*
Y219869D01*
D01*
D01*
Y232533D01*
D02*
G37*
%LPD*%
G36*
X563579Y265504D02*
X563287Y265483D01*
X562954Y265462D01*
X562579Y265420D01*
X562142Y265337D01*
X561684Y265254D01*
X561184Y265150D01*
X560684Y265004D01*
X560163Y264837D01*
X559642Y264629D01*
X559142Y264379D01*
X558643Y264108D01*
X558163Y263775D01*
X557726Y263400D01*
X557705Y263379D01*
X557622Y263296D01*
X557518Y263171D01*
X557372Y263004D01*
X557205Y262796D01*
X556997Y262546D01*
X556810Y262234D01*
X556581Y261900D01*
X556372Y261525D01*
X556164Y261109D01*
X555977Y260651D01*
X555810Y260151D01*
X555664Y259630D01*
X555560Y259068D01*
X555477Y258485D01*
X555456Y257860D01*
Y265525D01*
X563787D01*
X563579Y265504D01*
D02*
G37*
G36*
X564266Y263317D02*
X564474D01*
X564724Y263296D01*
X564995Y263254D01*
X565308Y263213D01*
X565641Y263150D01*
X566016Y263067D01*
X566391Y262963D01*
X566766Y262838D01*
X567140Y262692D01*
X567515Y262504D01*
X567890Y262296D01*
X568223Y262067D01*
X568557Y261796D01*
X568577Y261775D01*
X568619Y261734D01*
X568703Y261630D01*
X568807Y261505D01*
X568932Y261359D01*
X569077Y261171D01*
X569223Y260963D01*
X569369Y260713D01*
X569536Y260463D01*
X569681Y260151D01*
X569827Y259838D01*
X569952Y259484D01*
X570056Y259130D01*
X570140Y258735D01*
X570181Y258339D01*
X570202Y257901D01*
Y257797D01*
X570181Y257672D01*
Y257506D01*
X570160Y257297D01*
X570119Y257068D01*
X570056Y256798D01*
X569994Y256506D01*
X569911Y256214D01*
X569786Y255881D01*
X569661Y255569D01*
X569494Y255236D01*
X569306Y254902D01*
X569077Y254569D01*
X568828Y254256D01*
X568536Y253965D01*
X568515Y253944D01*
X568453Y253902D01*
X568369Y253819D01*
X568223Y253715D01*
X568057Y253611D01*
X567849Y253465D01*
X567599Y253319D01*
X567307Y253174D01*
X566995Y253028D01*
X566620Y252903D01*
X566245Y252757D01*
X565807Y252653D01*
X565349Y252549D01*
X564849Y252465D01*
X564329Y252424D01*
X563766Y252403D01*
X563745D01*
X563683D01*
X563579D01*
X563433D01*
X563266Y252424D01*
X563079Y252444D01*
X562850Y252465D01*
X562600Y252486D01*
X562079Y252570D01*
X561496Y252674D01*
X560913Y252840D01*
X560350Y253069D01*
X560330D01*
X560288Y253090D01*
X560205Y253132D01*
X560101Y253194D01*
X559996Y253257D01*
X559851Y253340D01*
X559517Y253569D01*
X559163Y253840D01*
X558788Y254173D01*
X558434Y254548D01*
X558101Y255006D01*
Y255027D01*
X558059Y255069D01*
X558018Y255131D01*
X557976Y255236D01*
X557914Y255340D01*
X557851Y255485D01*
X557768Y255652D01*
X557685Y255840D01*
X557539Y256256D01*
X557414Y256735D01*
X557330Y257277D01*
X557289Y257860D01*
Y258068D01*
X557310Y258235D01*
X557330Y258422D01*
X557372Y258651D01*
X557414Y258901D01*
X557476Y259193D01*
X557560Y259484D01*
X557664Y259797D01*
X557789Y260109D01*
X557955Y260443D01*
X558122Y260776D01*
X558330Y261109D01*
X558580Y261421D01*
X558851Y261734D01*
X558872Y261755D01*
X558913Y261796D01*
X559017Y261880D01*
X559142Y261984D01*
X559309Y262109D01*
X559538Y262234D01*
X559788Y262379D01*
X560080Y262525D01*
X560413Y262692D01*
X560788Y262838D01*
X561204Y262963D01*
X561663Y263088D01*
X562183Y263192D01*
X562746Y263275D01*
X563350Y263317D01*
X563995Y263337D01*
X564037D01*
X564120D01*
X564266Y263317D01*
D02*
G37*
G36*
X565495Y245321D02*
X565682D01*
X565911Y245301D01*
X566141D01*
X566641Y245259D01*
X567161Y245175D01*
X567640Y245092D01*
X567849Y245030D01*
X568057Y244967D01*
X568078D01*
X568098Y244946D01*
X568223Y244884D01*
X568390Y244801D01*
X568619Y244655D01*
X568848Y244467D01*
X569119Y244238D01*
X569348Y243967D01*
X569577Y243634D01*
Y243613D01*
X569598Y243593D01*
X569661Y243468D01*
X569744Y243259D01*
X569827Y242989D01*
X569931Y242655D01*
X570015Y242260D01*
X570077Y241822D01*
X570098Y241322D01*
Y241093D01*
X570077Y240947D01*
X570056Y240760D01*
X570036Y240531D01*
X570015Y240281D01*
X569973Y240031D01*
X569848Y239489D01*
X569661Y238927D01*
X569536Y238677D01*
X569390Y238427D01*
X569244Y238198D01*
X569057Y237990D01*
X569036Y237969D01*
X568994Y237948D01*
X568932Y237907D01*
X568848Y237823D01*
X568723Y237761D01*
X568557Y237677D01*
X568369Y237573D01*
X568140Y237490D01*
X567890Y237386D01*
X567599Y237302D01*
X567265Y237219D01*
X566890Y237136D01*
X566474Y237073D01*
X566016Y237032D01*
X565516Y237011D01*
X564974Y236990D01*
X555727D01*
Y245342D01*
X564974D01*
X564995D01*
X565058D01*
X565183D01*
X565308D01*
X565495Y245321D01*
D02*
G37*
%LPC*%
G36*
X370708Y327686D02*
X365843D01*
X367575D01*
Y321487D01*
Y321471D01*
Y321454D01*
Y321354D01*
X367559Y321204D01*
X367525Y321021D01*
X367459Y320821D01*
X367392Y320604D01*
X367276Y320388D01*
X367126Y320204D01*
X367109Y320188D01*
X367042Y320138D01*
X366942Y320054D01*
X366792Y319971D01*
X366609Y319888D01*
X366392Y319804D01*
X366126Y319755D01*
X365843Y319738D01*
X365709D01*
X365559Y319755D01*
X365376Y319788D01*
X365176Y319855D01*
X364976Y319921D01*
X364759Y320038D01*
X364576Y320188D01*
X364560Y320204D01*
X364510Y320271D01*
X364426Y320388D01*
X364343Y320521D01*
X364260Y320704D01*
X364176Y320938D01*
X364126Y321187D01*
X364110Y321487D01*
Y327686D01*
X360977D01*
Y321487D01*
X360994Y321304D01*
X361010Y321087D01*
X361044Y320821D01*
X361094Y320538D01*
X361160Y320238D01*
X361260Y319938D01*
Y319921D01*
X361277Y319904D01*
X361310Y319804D01*
X361377Y319655D01*
X361477Y319471D01*
X361594Y319238D01*
X361744Y319005D01*
X361927Y318771D01*
X362143Y318538D01*
X362177Y318505D01*
X362243Y318438D01*
X362360Y318338D01*
X362527Y318205D01*
X362710Y318072D01*
X362927Y317938D01*
X363160Y317805D01*
X363410Y317705D01*
X363427D01*
X363443Y317688D01*
X363493Y317672D01*
X363576Y317655D01*
X363660Y317622D01*
X363760Y317605D01*
X364026Y317538D01*
X364343Y317472D01*
X364710Y317422D01*
X365126Y317388D01*
X365592Y317372D01*
X365876D01*
X366076Y317388D01*
X366326D01*
X366592Y317422D01*
X366909Y317438D01*
X367225Y317472D01*
X367259D01*
X367309Y317488D01*
X367375D01*
X367525Y317522D01*
X367725Y317555D01*
X367959Y317622D01*
X368209Y317688D01*
X368459Y317772D01*
X368692Y317872D01*
X368725Y317888D01*
X368792Y317938D01*
X368908Y318005D01*
X369042Y318105D01*
X369208Y318221D01*
X369392Y318372D01*
X369575Y318555D01*
X369758Y318755D01*
X369775Y318788D01*
X369841Y318855D01*
X369925Y318971D01*
X370025Y319121D01*
X370125Y319288D01*
X370241Y319488D01*
X370341Y319704D01*
X370425Y319921D01*
Y319938D01*
X370441Y319971D01*
X370458Y320021D01*
X370475Y320088D01*
X370508Y320271D01*
X370558Y320504D01*
X370625Y320771D01*
X370658Y321054D01*
X370691Y321354D01*
X370708Y321637D01*
Y317372D01*
Y327686D01*
D02*
G37*
G36*
X393152Y327852D02*
X383271D01*
D01*
X387837D01*
X387704Y327836D01*
X387537D01*
X387354Y327819D01*
X387154Y327786D01*
X386920Y327752D01*
X386437Y327669D01*
X385954Y327519D01*
X385454Y327336D01*
X385238Y327203D01*
X385021Y327069D01*
X385004Y327053D01*
X384971Y327036D01*
X384921Y326986D01*
X384838Y326919D01*
X384754Y326836D01*
X384638Y326736D01*
X384521Y326619D01*
X384404Y326486D01*
X384271Y326320D01*
X384138Y326153D01*
X384005Y325953D01*
X383855Y325736D01*
X383721Y325503D01*
X383605Y325253D01*
X383488Y324986D01*
X383371Y324687D01*
X386137Y324087D01*
Y324103D01*
X386171Y324153D01*
X386187Y324237D01*
X386237Y324337D01*
X386337Y324553D01*
X386387Y324670D01*
X386454Y324753D01*
X386471Y324770D01*
X386504Y324820D01*
X386554Y324870D01*
X386637Y324953D01*
X386737Y325037D01*
X386837Y325136D01*
X387104Y325303D01*
X387120Y325320D01*
X387170Y325336D01*
X387237Y325370D01*
X387354Y325403D01*
X387470Y325436D01*
X387620Y325470D01*
X387770Y325503D01*
X388054D01*
X388120Y325486D01*
X388320Y325453D01*
X388553Y325403D01*
X388820Y325286D01*
X389086Y325136D01*
X389220Y325037D01*
X389353Y324920D01*
X389470Y324786D01*
X389586Y324637D01*
X389603Y324603D01*
X389653Y324520D01*
X389720Y324370D01*
X389786Y324153D01*
X389870Y323870D01*
X389936Y323520D01*
X389970Y323337D01*
X389986Y323120D01*
X390003Y322887D01*
Y322637D01*
Y322620D01*
Y322570D01*
Y322470D01*
X389986Y322370D01*
Y322220D01*
X389970Y322071D01*
X389936Y321721D01*
X389886Y321337D01*
X389786Y320954D01*
X389736Y320788D01*
X389670Y320621D01*
X389586Y320471D01*
X389503Y320338D01*
X389486Y320304D01*
X389403Y320238D01*
X389286Y320138D01*
X389120Y320038D01*
X388920Y319921D01*
X388670Y319821D01*
X388387Y319755D01*
X388054Y319721D01*
X387970D01*
X387904Y319738D01*
X387737Y319755D01*
X387554Y319788D01*
X387320Y319838D01*
X387104Y319938D01*
X386887Y320054D01*
X386704Y320221D01*
X386687Y320238D01*
X386620Y320321D01*
X386537Y320438D01*
X386437Y320588D01*
X386337Y320804D01*
X386221Y321054D01*
X386104Y321354D01*
X386021Y321704D01*
X383271Y320854D01*
Y320838D01*
X383288Y320804D01*
X383305Y320738D01*
X383321Y320671D01*
X383355Y320571D01*
X383388Y320454D01*
X383488Y320188D01*
X383605Y319871D01*
X383755Y319555D01*
X383938Y319238D01*
X384155Y318921D01*
X384188Y318888D01*
X384254Y318788D01*
X384388Y318655D01*
X384571Y318488D01*
X384788Y318305D01*
X385038Y318105D01*
X385321Y317922D01*
X385637Y317755D01*
X385654D01*
X385671Y317738D01*
X385721Y317722D01*
X385804Y317688D01*
X385887Y317672D01*
X385987Y317638D01*
X386104Y317605D01*
X386254Y317572D01*
X386571Y317488D01*
X386954Y317438D01*
X387404Y317388D01*
X387887Y317372D01*
X388153D01*
X388303Y317388D01*
X388470Y317405D01*
X388653D01*
X388837Y317438D01*
X389270Y317488D01*
X389720Y317572D01*
X390170Y317688D01*
X390586Y317838D01*
X390603D01*
X390636Y317855D01*
X390686Y317888D01*
X390769Y317938D01*
X390853Y317988D01*
X390953Y318055D01*
X391203Y318238D01*
X391486Y318455D01*
X391802Y318755D01*
X392102Y319105D01*
X392252Y319305D01*
X392402Y319521D01*
Y319538D01*
X392436Y319571D01*
X392469Y319655D01*
X392519Y319738D01*
X392569Y319855D01*
X392636Y320004D01*
X392702Y320171D01*
X392769Y320371D01*
X392852Y320571D01*
X392919Y320821D01*
X392985Y321071D01*
X393036Y321337D01*
X393086Y321637D01*
X393119Y321954D01*
X393135Y322271D01*
X393152Y322620D01*
Y322737D01*
X393135Y322870D01*
Y323037D01*
X393119Y323254D01*
X393086Y323487D01*
X393036Y323754D01*
X392985Y324053D01*
X392919Y324353D01*
X392819Y324670D01*
X392719Y324986D01*
X392586Y325320D01*
X392436Y325636D01*
X392252Y325936D01*
X392052Y326219D01*
X391819Y326486D01*
X391802Y326503D01*
X391753Y326553D01*
X391686Y326619D01*
X391569Y326703D01*
X391436Y326803D01*
X391269Y326919D01*
X391069Y327036D01*
X390836Y327169D01*
X390586Y327303D01*
X390303Y327419D01*
X389986Y327536D01*
X389653Y327636D01*
X389286Y327719D01*
X388887Y327802D01*
X388470Y327836D01*
X388020Y327852D01*
X393152D01*
D02*
G37*
G36*
X378973Y327686D02*
X371724D01*
D01*
X375523D01*
X371724Y317538D01*
X375023D01*
X375523Y319221D01*
X379072D01*
X379572Y317538D01*
X382771D01*
X378973Y327686D01*
D02*
G37*
G36*
X359611D02*
X350080Y327686D01*
Y317538D01*
Y325186D01*
X353279D01*
Y317538D01*
X356412D01*
Y325186D01*
X359611Y325186D01*
Y327686D01*
D02*
G37*
G36*
X348530Y327686D02*
X345381D01*
Y317538D01*
X348530D01*
Y327686D01*
D02*
G37*
G36*
X331301D02*
X321604D01*
Y317538D01*
X324553D01*
X328352Y323104D01*
Y317538D01*
X331301D01*
Y327686D01*
D02*
G37*
G36*
X343531Y327852D02*
X333018D01*
D01*
X338183D01*
X338050Y327836D01*
X337883D01*
X337666Y327819D01*
X337433Y327786D01*
X337150Y327736D01*
X336867Y327686D01*
X336550Y327602D01*
X336233Y327519D01*
X335917Y327402D01*
X335584Y327269D01*
X335267Y327119D01*
X334967Y326936D01*
X334667Y326719D01*
X334401Y326486D01*
X334384Y326469D01*
X334334Y326419D01*
X334267Y326353D01*
X334184Y326236D01*
X334084Y326103D01*
X333967Y325919D01*
X333834Y325720D01*
X333701Y325503D01*
X333584Y325236D01*
X333451Y324953D01*
X333334Y324653D01*
X333234Y324303D01*
X333151Y323937D01*
X333084Y323554D01*
X333034Y323137D01*
X333018Y322687D01*
Y322520D01*
X333034Y322387D01*
Y322237D01*
X333051Y322071D01*
X333068Y321871D01*
X333084Y321654D01*
X333167Y321187D01*
X333268Y320704D01*
X333418Y320204D01*
X333617Y319755D01*
Y319738D01*
X333651Y319704D01*
X333684Y319655D01*
X333734Y319571D01*
X333784Y319471D01*
X333867Y319371D01*
X334051Y319105D01*
X334301Y318821D01*
X334600Y318538D01*
X334950Y318238D01*
X335350Y317988D01*
X335367D01*
X335400Y317955D01*
X335467Y317938D01*
X335550Y317888D01*
X335667Y317838D01*
X335800Y317788D01*
X335950Y317738D01*
X336133Y317688D01*
X336317Y317622D01*
X336533Y317572D01*
X336767Y317522D01*
X337016Y317472D01*
X337566Y317405D01*
X338183Y317372D01*
X338350D01*
X338466Y317388D01*
X338616D01*
X338783Y317405D01*
X338983Y317422D01*
X339183Y317438D01*
X339632Y317505D01*
X340116Y317605D01*
X340582Y317722D01*
X341032Y317905D01*
X341049D01*
X341082Y317938D01*
X341132Y317972D01*
X341216Y318005D01*
X341315Y318072D01*
X341415Y318138D01*
X341682Y318321D01*
X341965Y318571D01*
X342265Y318871D01*
X342565Y319221D01*
X342848Y319638D01*
Y319655D01*
X342882Y319688D01*
X342915Y319755D01*
X342948Y319854D01*
X342998Y319971D01*
X343065Y320104D01*
X343132Y320271D01*
X343182Y320454D01*
X343248Y320654D01*
X343315Y320887D01*
X343365Y321121D01*
X343432Y321387D01*
X343465Y321671D01*
X343498Y321971D01*
X343531Y322604D01*
Y322737D01*
Y322720D01*
X343515Y322837D01*
Y323020D01*
X343482Y323220D01*
X343465Y323470D01*
X343415Y323737D01*
X343365Y324020D01*
X343282Y324320D01*
X343198Y324636D01*
X343082Y324953D01*
X342948Y325286D01*
X342782Y325603D01*
X342598Y325903D01*
X342398Y326203D01*
X342149Y326469D01*
X342132Y326486D01*
X342082Y326536D01*
X341999Y326603D01*
X341899Y326686D01*
X341749Y326786D01*
X341582Y326903D01*
X341382Y327036D01*
X341149Y327169D01*
X340882Y327286D01*
X340599Y327419D01*
X340282Y327536D01*
X339933Y327636D01*
X339566Y327719D01*
X339166Y327786D01*
X338749Y327836D01*
X338300Y327852D01*
X343531D01*
D01*
D02*
G37*
G36*
X375223Y315342D02*
X370341D01*
X370208Y315326D01*
X370041D01*
X369858Y315309D01*
X369641Y315276D01*
X369425Y315259D01*
X368942Y315159D01*
X368459Y315026D01*
X367975Y314859D01*
X367759Y314742D01*
X367559Y314609D01*
X367542D01*
X367509Y314576D01*
X367459Y314526D01*
X367392Y314476D01*
X367309Y314393D01*
X367225Y314293D01*
X367126Y314193D01*
X367009Y314059D01*
X366909Y313909D01*
X366809Y313726D01*
X366692Y313543D01*
X366609Y313343D01*
X366509Y313109D01*
X366442Y312860D01*
X366376Y312593D01*
X366326Y312310D01*
X369275Y312143D01*
Y312176D01*
X369308Y312260D01*
X369342Y312376D01*
X369392Y312526D01*
X369458Y312693D01*
X369542Y312860D01*
X369658Y313009D01*
X369791Y313143D01*
X369808Y313160D01*
X369858Y313193D01*
X369941Y313243D01*
X370058Y313309D01*
X370208Y313359D01*
X370391Y313409D01*
X370591Y313443D01*
X370841Y313459D01*
X370924D01*
X371025Y313443D01*
X371158Y313426D01*
X371424Y313359D01*
X371558Y313309D01*
X371674Y313226D01*
X371691Y313209D01*
X371708Y313193D01*
X371758Y313143D01*
X371808Y313076D01*
X371891Y312893D01*
X371924Y312776D01*
X371941Y312660D01*
Y312643D01*
Y312626D01*
X371908Y312510D01*
X371841Y312376D01*
X371791Y312293D01*
X371708Y312226D01*
X371691Y312210D01*
X371658Y312193D01*
X371591Y312160D01*
X371491Y312110D01*
X371358Y312043D01*
X371175Y311977D01*
X370941Y311910D01*
X370658Y311843D01*
X370641D01*
X370575Y311826D01*
X370458Y311793D01*
X370325Y311777D01*
X370158Y311726D01*
X369958Y311677D01*
X369742Y311627D01*
X369508Y311577D01*
X369025Y311427D01*
X368542Y311277D01*
X368308Y311193D01*
X368092Y311110D01*
X367892Y311027D01*
X367709Y310943D01*
X367692D01*
X367675Y310927D01*
X367625Y310893D01*
X367559Y310860D01*
X367409Y310760D01*
X367209Y310644D01*
X366992Y310477D01*
X366776Y310277D01*
X366576Y310060D01*
X366409Y309827D01*
X366392Y309794D01*
X366342Y309710D01*
X366276Y309577D01*
X366192Y309394D01*
X366126Y309160D01*
X366059Y308911D01*
X366009Y308627D01*
X365993Y308327D01*
Y315342D01*
D01*
D01*
Y304862D01*
D01*
Y308161D01*
X366026Y307978D01*
X366059Y307728D01*
X366126Y307461D01*
X366226Y307161D01*
X366359Y306844D01*
X366542Y306528D01*
Y306511D01*
X366559Y306495D01*
X366642Y306395D01*
X366759Y306245D01*
X366926Y306061D01*
X367142Y305861D01*
X367409Y305661D01*
X367709Y305462D01*
X368059Y305278D01*
X368075D01*
X368109Y305261D01*
X368159Y305245D01*
X368225Y305212D01*
X368325Y305178D01*
X368442Y305145D01*
X368575Y305112D01*
X368725Y305078D01*
X368892Y305028D01*
X369075Y304995D01*
X369492Y304928D01*
X369975Y304878D01*
X370508Y304862D01*
X370758D01*
X370924Y304878D01*
X371141Y304895D01*
X371374Y304912D01*
X371641Y304945D01*
X371924Y304978D01*
X372524Y305095D01*
X372824Y305178D01*
X373124Y305278D01*
X373407Y305395D01*
X373657Y305528D01*
X373907Y305678D01*
X374107Y305845D01*
X374124Y305861D01*
X374157Y305895D01*
X374207Y305945D01*
X374257Y306028D01*
X374340Y306128D01*
X374424Y306245D01*
X374524Y306378D01*
X374624Y306544D01*
X374724Y306711D01*
X374823Y306911D01*
X375007Y307328D01*
X375140Y307827D01*
X375190Y308094D01*
X375223Y308377D01*
D01*
X372241Y308577D01*
Y308544D01*
X372224Y308461D01*
X372191Y308327D01*
X372158Y308161D01*
X372108Y307978D01*
X372041Y307794D01*
X371958Y307628D01*
X371858Y307461D01*
X371841Y307428D01*
X371758Y307361D01*
X371658Y307278D01*
X371491Y307161D01*
X371291Y307044D01*
X371058Y306961D01*
X370775Y306894D01*
X370458Y306861D01*
X370341D01*
X370225Y306878D01*
X370075Y306894D01*
X369908Y306928D01*
X369725Y306994D01*
X369558Y307061D01*
X369408Y307161D01*
X369392Y307178D01*
X369358Y307211D01*
X369292Y307278D01*
X369225Y307378D01*
X369158Y307478D01*
X369092Y307611D01*
X369058Y307744D01*
X369042Y307894D01*
Y307911D01*
Y307961D01*
X369058Y308044D01*
X369092Y308127D01*
X369125Y308244D01*
X369192Y308361D01*
X369275Y308477D01*
X369392Y308594D01*
X369408Y308611D01*
X369458Y308644D01*
X369575Y308711D01*
X369725Y308794D01*
X369941Y308877D01*
X370075Y308927D01*
X370225Y308977D01*
X370391Y309027D01*
X370575Y309094D01*
X370775Y309144D01*
X371008Y309194D01*
X371025D01*
X371091Y309210D01*
X371208Y309244D01*
X371341Y309277D01*
X371508Y309327D01*
X371708Y309377D01*
X371924Y309444D01*
X372158Y309510D01*
X372641Y309694D01*
X373124Y309894D01*
X373357Y310010D01*
X373574Y310144D01*
X373774Y310277D01*
X373957Y310410D01*
X373974Y310427D01*
X373990Y310443D01*
X374040Y310494D01*
X374090Y310543D01*
X374240Y310710D01*
X374390Y310943D01*
X374557Y311227D01*
X374707Y311560D01*
X374807Y311943D01*
X374823Y312160D01*
X374840Y312376D01*
Y312393D01*
Y312410D01*
Y312510D01*
X374823Y312660D01*
X374790Y312860D01*
X374724Y313076D01*
X374657Y313326D01*
X374540Y313576D01*
X374390Y313843D01*
X374374Y313876D01*
X374307Y313959D01*
X374207Y314093D01*
X374057Y314243D01*
X373857Y314426D01*
X373624Y314609D01*
X373341Y314776D01*
X373024Y314942D01*
X373007D01*
X372974Y314959D01*
X372924Y314976D01*
X372857Y315009D01*
X372757Y315042D01*
X372657Y315076D01*
X372524Y315109D01*
X372374Y315142D01*
X372191Y315176D01*
X372008Y315209D01*
X371808Y315242D01*
X371574Y315276D01*
X371341Y315309D01*
X371091Y315326D01*
X370525Y315342D01*
X375223D01*
D02*
G37*
G36*
X364409Y315176D02*
X361277D01*
Y308977D01*
Y308961D01*
Y308944D01*
Y308844D01*
X361260Y308694D01*
X361227Y308511D01*
X361160Y308311D01*
X361094Y308094D01*
X360977Y307878D01*
X360827Y307694D01*
X360811Y307678D01*
X360744Y307628D01*
X360644Y307544D01*
X360494Y307461D01*
X360311Y307378D01*
X360094Y307294D01*
X359827Y307244D01*
X359544Y307228D01*
X359411D01*
X359261Y307244D01*
X359078Y307278D01*
X358878Y307344D01*
X358678Y307411D01*
X358461Y307528D01*
X358278Y307678D01*
X358261Y307694D01*
X358211Y307761D01*
X358128Y307878D01*
X358045Y308011D01*
X357961Y308194D01*
X357878Y308427D01*
X357828Y308677D01*
X357811Y308977D01*
Y315176D01*
X354679Y315176D01*
Y304862D01*
D01*
Y308977D01*
X354695Y308794D01*
X354712Y308577D01*
X354745Y308311D01*
X354795Y308027D01*
X354862Y307728D01*
X354962Y307428D01*
Y307411D01*
X354979Y307394D01*
X355012Y307294D01*
X355079Y307144D01*
X355179Y306961D01*
X355295Y306728D01*
X355445Y306495D01*
X355628Y306261D01*
X355845Y306028D01*
X355878Y305995D01*
X355945Y305928D01*
X356062Y305828D01*
X356228Y305695D01*
X356412Y305561D01*
X356628Y305428D01*
X356861Y305295D01*
X357111Y305195D01*
X357128D01*
X357145Y305178D01*
X357195Y305161D01*
X357278Y305145D01*
X357361Y305112D01*
X357461Y305095D01*
X357728Y305028D01*
X358045Y304962D01*
X358411Y304912D01*
X358828Y304878D01*
X359294Y304862D01*
X364409D01*
X359577D01*
X359777Y304878D01*
X360027D01*
X360294Y304912D01*
X360611Y304928D01*
X360927Y304962D01*
X360960D01*
X361010Y304978D01*
X361077D01*
X361227Y305012D01*
X361427Y305045D01*
X361660Y305112D01*
X361910Y305178D01*
X362160Y305261D01*
X362393Y305361D01*
X362427Y305378D01*
X362493Y305428D01*
X362610Y305495D01*
X362743Y305595D01*
X362910Y305711D01*
X363093Y305861D01*
X363276Y306045D01*
X363460Y306245D01*
X363476Y306278D01*
X363543Y306345D01*
X363626Y306461D01*
X363726Y306611D01*
X363826Y306778D01*
X363943Y306978D01*
X364043Y307194D01*
X364126Y307411D01*
Y307428D01*
X364143Y307461D01*
X364160Y307511D01*
X364176Y307578D01*
X364210Y307761D01*
X364260Y307994D01*
X364326Y308261D01*
X364360Y308544D01*
X364393Y308844D01*
X364409Y309127D01*
Y315176D01*
D02*
G37*
G36*
X413264D02*
X403549D01*
Y305028D01*
X406699D01*
Y309127D01*
X410131D01*
Y305028D01*
X413264D01*
Y315176D01*
D02*
G37*
G36*
X390353D02*
X380822D01*
Y305028D01*
Y312676D01*
X384021D01*
Y305028D01*
X387154D01*
Y312676D01*
X390353D01*
Y315176D01*
D02*
G37*
G36*
X352563Y315176D02*
X342582D01*
Y305028D01*
Y315176D01*
X346981D01*
X346847Y315159D01*
X346514Y315142D01*
X346164Y315109D01*
X345781Y315076D01*
X345431Y315009D01*
X345115Y314926D01*
X345098D01*
X345081Y314909D01*
X344981Y314876D01*
X344848Y314809D01*
X344665Y314709D01*
X344481Y314592D01*
X344265Y314426D01*
X344065Y314226D01*
X343881Y313993D01*
X343865Y313959D01*
X343798Y313876D01*
X343731Y313726D01*
X343632Y313543D01*
X343548Y313293D01*
X343465Y313009D01*
X343415Y312693D01*
X343398Y312343D01*
Y312326D01*
Y312310D01*
Y312210D01*
X343415Y312043D01*
X343448Y311843D01*
X343482Y311626D01*
X343548Y311377D01*
X343648Y311127D01*
X343765Y310893D01*
X343782Y310860D01*
X343831Y310793D01*
X343915Y310677D01*
X344031Y310543D01*
X344165Y310377D01*
X344348Y310210D01*
X344531Y310044D01*
X344765Y309894D01*
X344781Y309877D01*
X344831Y309860D01*
X344931Y309810D01*
X345048Y309760D01*
X345214Y309694D01*
X345398Y309627D01*
X345614Y309560D01*
X345864Y309494D01*
X345848D01*
X345781Y309460D01*
X345681Y309427D01*
X345564Y309377D01*
X345298Y309261D01*
X345164Y309194D01*
X345065Y309127D01*
X345048D01*
X345031Y309094D01*
X344981Y309060D01*
X344931Y309011D01*
X344865Y308927D01*
X344781Y308844D01*
X344681Y308727D01*
X344565Y308577D01*
X344548Y308561D01*
X344515Y308511D01*
X344448Y308444D01*
X344381Y308344D01*
X344231Y308144D01*
X344165Y308044D01*
X344115Y307961D01*
X342582Y305028D01*
X346131D01*
X347814Y308111D01*
X347830Y308144D01*
X347864Y308211D01*
X347930Y308311D01*
X347997Y308444D01*
X348097Y308577D01*
X348180Y308694D01*
X348280Y308811D01*
X348380Y308894D01*
X348397Y308911D01*
X348430Y308927D01*
X348514Y308977D01*
X348597Y309027D01*
X348714Y309060D01*
X348847Y309111D01*
X348997Y309127D01*
X349147Y309144D01*
X349413D01*
Y305028D01*
X352563D01*
Y315176D01*
D02*
G37*
G36*
X341565D02*
X333801D01*
Y305028D01*
Y312993D01*
X338416D01*
Y311227D01*
X334467D01*
Y309177D01*
X338416D01*
Y305028D01*
X333801D01*
X341565D01*
Y315176D01*
D02*
G37*
G36*
X333134D02*
X322087D01*
Y305028D01*
Y315176D01*
X325886D01*
X322087Y305028D01*
X326761D01*
X325386D01*
X325886Y306711D01*
X329435D01*
X329935Y305028D01*
X333134D01*
X329335Y315176D01*
X333134D01*
D02*
G37*
G36*
X310057D02*
X301492D01*
Y305028D01*
X310057D01*
Y315176D01*
D02*
G37*
G36*
X401850Y315342D02*
X391336D01*
Y304862D01*
D01*
Y310010D01*
X391353Y309877D01*
Y309727D01*
X391369Y309560D01*
X391386Y309361D01*
X391403Y309144D01*
X391486Y308677D01*
X391586Y308194D01*
X391736Y307694D01*
X391936Y307244D01*
Y307228D01*
X391969Y307194D01*
X392002Y307144D01*
X392052Y307061D01*
X392102Y306961D01*
X392186Y306861D01*
X392369Y306595D01*
X392619Y306311D01*
X392919Y306028D01*
X393269Y305728D01*
X393669Y305478D01*
X393685D01*
X393719Y305445D01*
X393785Y305428D01*
X393869Y305378D01*
X393985Y305328D01*
X394119Y305278D01*
X394269Y305228D01*
X394452Y305178D01*
X394635Y305112D01*
X394852Y305062D01*
X395085Y305012D01*
X395335Y304962D01*
X395885Y304895D01*
X396501Y304862D01*
X396668D01*
X396785Y304878D01*
X396935D01*
X397101Y304895D01*
X397301Y304912D01*
X397501Y304928D01*
X397951Y304995D01*
X398434Y305095D01*
X398901Y305212D01*
X399351Y305395D01*
X399367D01*
X399401Y305428D01*
X399451Y305462D01*
X399534Y305495D01*
X399634Y305561D01*
X399734Y305628D01*
X400000Y305811D01*
X400284Y306061D01*
X400584Y306361D01*
X400883Y306711D01*
X401167Y307128D01*
Y307144D01*
X401200Y307178D01*
X401233Y307244D01*
X401267Y307344D01*
X401317Y307461D01*
X401383Y307594D01*
X401450Y307761D01*
X401500Y307944D01*
X401567Y308144D01*
X401633Y308377D01*
X401683Y308611D01*
X401750Y308877D01*
X401783Y309160D01*
X401817Y309460D01*
X401850Y310094D01*
Y310210D01*
X401833Y310327D01*
Y310510D01*
X401800Y310710D01*
X401783Y310960D01*
X401733Y311227D01*
X401683Y311510D01*
X401600Y311810D01*
X401517Y312126D01*
X401400Y312443D01*
X401267Y312776D01*
X401100Y313093D01*
X400917Y313393D01*
X400717Y313693D01*
X400467Y313959D01*
X400450Y313976D01*
X400400Y314026D01*
X400317Y314093D01*
X400217Y314176D01*
X400067Y314276D01*
X399900Y314393D01*
X399701Y314526D01*
X399467Y314659D01*
X399201Y314776D01*
X398917Y314909D01*
X398601Y315026D01*
X398251Y315126D01*
X397884Y315209D01*
X397484Y315276D01*
X397068Y315326D01*
X396618Y315342D01*
X401850D01*
D02*
G37*
G36*
X321454Y315342D02*
X311573D01*
Y308327D01*
X311590Y308294D01*
X311606Y308227D01*
X311623Y308161D01*
X311656Y308061D01*
X311690Y307944D01*
X311790Y307677D01*
X311906Y307361D01*
X312056Y307044D01*
X312240Y306728D01*
X312456Y306411D01*
X312489Y306378D01*
X312556Y306278D01*
X312689Y306145D01*
X312873Y305978D01*
X313089Y305795D01*
X313339Y305595D01*
X313622Y305411D01*
X313939Y305245D01*
X313956D01*
X313972Y305228D01*
X314022Y305212D01*
X314106Y305178D01*
X314189Y305161D01*
X314289Y305128D01*
X314406Y305095D01*
X314556Y305061D01*
X314872Y304978D01*
X315256Y304928D01*
X315705Y304878D01*
X316189Y304862D01*
X316455D01*
X316605Y304878D01*
X316772Y304895D01*
X316955D01*
X317138Y304928D01*
X317572Y304978D01*
X318021Y305061D01*
X318471Y305178D01*
X318888Y305328D01*
X318904D01*
X318938Y305345D01*
X318988Y305378D01*
X319071Y305428D01*
X319154Y305478D01*
X319254Y305545D01*
X319504Y305728D01*
X319788Y305945D01*
X320104Y306245D01*
X320404Y306595D01*
X320554Y306794D01*
X320704Y307011D01*
Y307028D01*
X320737Y307061D01*
X320771Y307144D01*
X320821Y307228D01*
X320871Y307344D01*
X320937Y307494D01*
X321004Y307661D01*
X321071Y307861D01*
X321154Y308061D01*
X321221Y308311D01*
X321287Y308561D01*
X321337Y308827D01*
X321387Y309127D01*
X321421Y309444D01*
X321437Y309760D01*
X321454Y310110D01*
Y310227D01*
X321437Y310360D01*
Y310527D01*
X321421Y310743D01*
X321387Y310977D01*
X321337Y311243D01*
X321287Y311543D01*
X321221Y311843D01*
X321121Y312160D01*
X321021Y312476D01*
X320887Y312810D01*
X320737Y313126D01*
X320554Y313426D01*
X320354Y313709D01*
X320121Y313976D01*
X320104Y313993D01*
X320054Y314043D01*
X319988Y314109D01*
X319871Y314193D01*
X319738Y314293D01*
X319571Y314409D01*
X319371Y314526D01*
X319138Y314659D01*
X318888Y314792D01*
X318605Y314909D01*
X318288Y315026D01*
X317955Y315126D01*
X317588Y315209D01*
X317188Y315292D01*
X316772Y315326D01*
X316322Y315342D01*
X321454D01*
D02*
G37*
%LPD*%
G36*
X378389Y321421D02*
X376190D01*
X377290Y325053D01*
X378389Y321421D01*
D02*
G37*
G36*
X324553Y322071D02*
Y327686D01*
X328385D01*
X324553Y322071D01*
D02*
G37*
G36*
X338450Y325453D02*
X338633Y325436D01*
X338849Y325386D01*
X339083Y325303D01*
X339349Y325186D01*
X339599Y325020D01*
X339832Y324786D01*
X339849Y324753D01*
X339883Y324720D01*
X339916Y324653D01*
X339966Y324586D01*
X340016Y324503D01*
X340066Y324387D01*
X340116Y324270D01*
X340166Y324120D01*
X340216Y323953D01*
X340266Y323770D01*
X340316Y323570D01*
X340349Y323354D01*
X340382Y323120D01*
X340399Y322870D01*
Y322587D01*
Y322570D01*
Y322520D01*
Y322437D01*
X340382Y322337D01*
Y322204D01*
X340366Y322071D01*
X340332Y321737D01*
X340266Y321371D01*
X340166Y321021D01*
X340016Y320671D01*
X339933Y320521D01*
X339832Y320388D01*
X339799Y320354D01*
X339733Y320288D01*
X339599Y320171D01*
X339433Y320054D01*
X339199Y319938D01*
X338933Y319821D01*
X338633Y319755D01*
X338283Y319721D01*
X338183D01*
X338116Y319738D01*
X337933Y319755D01*
X337700Y319804D01*
X337450Y319888D01*
X337200Y319988D01*
X336933Y320154D01*
X336717Y320371D01*
X336700Y320404D01*
X336667Y320438D01*
X336633Y320504D01*
X336583Y320571D01*
X336533Y320671D01*
X336483Y320771D01*
X336433Y320904D01*
X336383Y321054D01*
X336333Y321237D01*
X336283Y321421D01*
X336233Y321637D01*
X336200Y321871D01*
X336167Y322137D01*
X336150Y322420D01*
Y322720D01*
Y322737D01*
Y322787D01*
Y322854D01*
X336167Y322954D01*
Y323070D01*
X336183Y323204D01*
X336217Y323520D01*
X336300Y323853D01*
X336400Y324203D01*
X336533Y324520D01*
X336633Y324670D01*
X336733Y324803D01*
X336767Y324837D01*
X336833Y324903D01*
X336967Y325020D01*
X337150Y325136D01*
X337366Y325253D01*
X337633Y325370D01*
X337950Y325436D01*
X338300Y325470D01*
X338383D01*
X338450Y325453D01*
D02*
G37*
G36*
X410131Y311627D02*
X406699D01*
Y315176D01*
X410131D01*
Y311627D01*
D02*
G37*
G36*
X349413Y311060D02*
X347997D01*
X347914Y311077D01*
X347797Y311093D01*
X347647Y311110D01*
X347481Y311143D01*
X347264Y311193D01*
X347247D01*
X347214Y311210D01*
X347147Y311227D01*
X347081Y311260D01*
X346914Y311360D01*
X346831Y311427D01*
X346747Y311510D01*
X346731Y311527D01*
X346714Y311560D01*
X346681Y311610D01*
X346647Y311677D01*
X346581Y311860D01*
X346547Y311976D01*
Y312093D01*
Y312110D01*
Y312176D01*
X346564Y312260D01*
X346581Y312376D01*
X346631Y312493D01*
X346681Y312626D01*
X346764Y312743D01*
X346864Y312859D01*
X346881Y312876D01*
X346931Y312910D01*
X347014Y312943D01*
X347131Y312993D01*
X347297Y313043D01*
X347497Y313093D01*
X347747Y313109D01*
X348047Y313126D01*
X349413D01*
Y311060D01*
D02*
G37*
G36*
X328752Y308911D02*
X326553D01*
X327652Y312543D01*
X328752Y308911D01*
D02*
G37*
G36*
X301642Y313009D02*
X306908D01*
Y311393D01*
X302026D01*
Y309327D01*
X306908D01*
Y307328D01*
X301492D01*
Y315176D01*
X301642D01*
Y313009D01*
D02*
G37*
G36*
X396368Y315326D02*
X396201D01*
X395985Y315309D01*
X395751Y315276D01*
X395468Y315226D01*
X395185Y315176D01*
X394868Y315092D01*
X394552Y315009D01*
X394235Y314892D01*
X393902Y314759D01*
X393585Y314609D01*
X393285Y314426D01*
X392985Y314209D01*
X392719Y313976D01*
X392702Y313959D01*
X392652Y313909D01*
X392586Y313843D01*
X392502Y313726D01*
X392402Y313593D01*
X392286Y313409D01*
X392152Y313209D01*
X392019Y312993D01*
X391903Y312726D01*
X391769Y312443D01*
X391653Y312143D01*
X391553Y311793D01*
X391469Y311427D01*
X391403Y311043D01*
X391353Y310627D01*
X391336Y310177D01*
Y315342D01*
X396501D01*
X396368Y315326D01*
D02*
G37*
G36*
X396768Y312943D02*
X396951Y312926D01*
X397168Y312876D01*
X397401Y312793D01*
X397668Y312676D01*
X397918Y312510D01*
X398151Y312276D01*
X398168Y312243D01*
X398201Y312210D01*
X398234Y312143D01*
X398284Y312076D01*
X398334Y311993D01*
X398384Y311877D01*
X398434Y311760D01*
X398484Y311610D01*
X398534Y311443D01*
X398584Y311260D01*
X398634Y311060D01*
X398667Y310843D01*
X398701Y310610D01*
X398717Y310360D01*
Y310077D01*
Y310060D01*
Y310010D01*
Y309927D01*
X398701Y309827D01*
Y309694D01*
X398684Y309560D01*
X398651Y309227D01*
X398584Y308861D01*
X398484Y308511D01*
X398334Y308161D01*
X398251Y308011D01*
X398151Y307878D01*
X398118Y307844D01*
X398051Y307778D01*
X397918Y307661D01*
X397751Y307544D01*
X397518Y307428D01*
X397251Y307311D01*
X396951Y307244D01*
X396601Y307211D01*
X396501D01*
X396435Y307228D01*
X396251Y307244D01*
X396018Y307294D01*
X395768Y307378D01*
X395518Y307478D01*
X395252Y307644D01*
X395035Y307861D01*
X395018Y307894D01*
X394985Y307927D01*
X394952Y307994D01*
X394902Y308061D01*
X394852Y308161D01*
X394802Y308261D01*
X394752Y308394D01*
X394702Y308544D01*
X394652Y308727D01*
X394602Y308911D01*
X394552Y309127D01*
X394519Y309361D01*
X394485Y309627D01*
X394468Y309910D01*
Y310210D01*
Y310227D01*
Y310277D01*
Y310343D01*
X394485Y310443D01*
Y310560D01*
X394502Y310693D01*
X394535Y311010D01*
X394618Y311343D01*
X394718Y311693D01*
X394852Y312010D01*
X394952Y312160D01*
X395052Y312293D01*
X395085Y312326D01*
X395152Y312393D01*
X395285Y312510D01*
X395468Y312626D01*
X395685Y312743D01*
X395951Y312860D01*
X396268Y312926D01*
X396618Y312959D01*
X396701D01*
X396768Y312943D01*
D02*
G37*
G36*
X316005Y315326D02*
X315839D01*
X315655Y315309D01*
X315455Y315276D01*
X315222Y315242D01*
X314739Y315159D01*
X314256Y315009D01*
X313756Y314826D01*
X313539Y314692D01*
X313323Y314559D01*
X313306Y314542D01*
X313273Y314526D01*
X313223Y314476D01*
X313139Y314409D01*
X313056Y314326D01*
X312939Y314226D01*
X312823Y314109D01*
X312706Y313976D01*
X312573Y313809D01*
X312439Y313643D01*
X312306Y313443D01*
X312156Y313226D01*
X312023Y312993D01*
X311906Y312743D01*
X311790Y312476D01*
X311673Y312176D01*
X314439Y311576D01*
Y311593D01*
X314472Y311643D01*
X314489Y311726D01*
X314539Y311826D01*
X314639Y312043D01*
X314689Y312160D01*
X314756Y312243D01*
X314772Y312260D01*
X314806Y312310D01*
X314856Y312360D01*
X314939Y312443D01*
X315039Y312526D01*
X315139Y312626D01*
X315405Y312793D01*
X315422Y312810D01*
X315472Y312826D01*
X315539Y312859D01*
X315655Y312893D01*
X315772Y312926D01*
X315922Y312959D01*
X316072Y312993D01*
X316355D01*
X316422Y312976D01*
X316622Y312943D01*
X316855Y312893D01*
X317122Y312776D01*
X317388Y312626D01*
X317521Y312526D01*
X317655Y312410D01*
X317771Y312276D01*
X317888Y312126D01*
X317905Y312093D01*
X317955Y312010D01*
X318021Y311860D01*
X318088Y311643D01*
X318171Y311360D01*
X318238Y311010D01*
X318271Y310827D01*
X318288Y310610D01*
X318305Y310377D01*
Y310127D01*
Y310110D01*
Y310060D01*
Y309960D01*
X318288Y309860D01*
Y309710D01*
X318271Y309560D01*
X318238Y309210D01*
X318188Y308827D01*
X318088Y308444D01*
X318038Y308277D01*
X317971Y308111D01*
X317888Y307961D01*
X317805Y307827D01*
X317788Y307794D01*
X317705Y307728D01*
X317588Y307628D01*
X317422Y307528D01*
X317222Y307411D01*
X316972Y307311D01*
X316688Y307244D01*
X316355Y307211D01*
X316272D01*
X316205Y307228D01*
X316039Y307244D01*
X315855Y307278D01*
X315622Y307328D01*
X315405Y307428D01*
X315189Y307544D01*
X315005Y307711D01*
X314989Y307728D01*
X314922Y307811D01*
X314839Y307927D01*
X314739Y308077D01*
X314639Y308294D01*
X314522Y308544D01*
X314406Y308844D01*
X314322Y309194D01*
X311573Y308344D01*
Y315342D01*
X316139D01*
X316005Y315326D01*
D02*
G37*
%LPC*%
G36*
X85986Y321774D02*
X69970D01*
Y309152D01*
X85986D01*
Y311318D01*
X73406Y319733D01*
X85986D01*
Y321774D01*
D02*
G37*
G36*
Y305445D02*
X69970D01*
Y303320D01*
X85986D01*
Y305445D01*
D02*
G37*
%LPD*%
G36*
X82529Y311193D02*
X69970D01*
Y319587D01*
X82529Y311193D01*
D02*
G37*
%LPC*%
G36*
X121649Y233673D02*
X118739D01*
D01*
X121649D01*
D02*
G37*
G36*
X111141Y231499D02*
Y231486D01*
D01*
Y231499D01*
D02*
G37*
G36*
X125662Y233673D02*
X122001D01*
X121901Y233661D01*
X121776D01*
X121638Y233648D01*
X121476Y233623D01*
X121313Y233611D01*
X120951Y233536D01*
X120589Y233436D01*
X120226Y233311D01*
X120064Y233223D01*
X119914Y233123D01*
X119901D01*
X119876Y233098D01*
X119839Y233061D01*
X119789Y233023D01*
X119726Y232961D01*
X119664Y232886D01*
X119589Y232811D01*
X119501Y232711D01*
X119426Y232598D01*
X119351Y232461D01*
X119264Y232324D01*
X119201Y232174D01*
X119126Y231999D01*
X119076Y231811D01*
X119026Y231611D01*
X118989Y231399D01*
X121201Y231274D01*
Y231299D01*
X121226Y231361D01*
X121251Y231449D01*
X121288Y231561D01*
X121338Y231686D01*
X121401Y231811D01*
X121488Y231924D01*
X121588Y232024D01*
X121601Y232036D01*
X121638Y232061D01*
X121701Y232099D01*
X121788Y232149D01*
X121901Y232186D01*
X122038Y232224D01*
X122188Y232249D01*
X122376Y232261D01*
X122438D01*
X122513Y232249D01*
X122613Y232236D01*
X122813Y232186D01*
X122913Y232149D01*
X123000Y232086D01*
X123013Y232074D01*
X123025Y232061D01*
X123063Y232024D01*
X123100Y231974D01*
X123163Y231836D01*
X123188Y231749D01*
X123200Y231661D01*
Y231649D01*
Y231636D01*
X123175Y231549D01*
X123125Y231449D01*
X123088Y231386D01*
X123025Y231336D01*
X123013Y231324D01*
X122988Y231311D01*
X122938Y231286D01*
X122863Y231249D01*
X122763Y231199D01*
X122626Y231149D01*
X122451Y231099D01*
X122238Y231049D01*
X122226D01*
X122176Y231036D01*
X122088Y231011D01*
X121988Y230999D01*
X121863Y230961D01*
X121713Y230924D01*
X121551Y230886D01*
X121376Y230849D01*
X121013Y230737D01*
X120651Y230624D01*
X120476Y230562D01*
X120314Y230499D01*
X120164Y230437D01*
X120026Y230374D01*
X120014D01*
X120001Y230362D01*
X119964Y230337D01*
X119914Y230312D01*
X119801Y230237D01*
X119651Y230149D01*
X119489Y230024D01*
X119326Y229874D01*
X119176Y229712D01*
X119051Y229537D01*
X119039Y229512D01*
X119001Y229449D01*
X118952Y229349D01*
X118889Y229212D01*
X118839Y229037D01*
X118789Y228850D01*
X118751Y228637D01*
X118739Y228412D01*
D01*
Y228287D01*
X118764Y228150D01*
X118789Y227962D01*
X118839Y227762D01*
X118914Y227537D01*
X119014Y227300D01*
X119151Y227062D01*
Y227050D01*
X119164Y227037D01*
X119226Y226963D01*
X119314Y226850D01*
X119439Y226712D01*
X119601Y226563D01*
X119801Y226413D01*
X120026Y226263D01*
X120289Y226125D01*
X120301D01*
X120326Y226113D01*
X120364Y226100D01*
X120414Y226075D01*
X120489Y226050D01*
X120576Y226025D01*
X120676Y226000D01*
X120788Y225975D01*
X120913Y225938D01*
X121051Y225913D01*
X121363Y225863D01*
X121726Y225825D01*
X122126Y225813D01*
X122313D01*
X122438Y225825D01*
X122600Y225838D01*
X122775Y225850D01*
X122975Y225875D01*
X123188Y225900D01*
X123638Y225988D01*
X123863Y226050D01*
X124088Y226125D01*
X124300Y226213D01*
X124487Y226313D01*
X124675Y226425D01*
X124825Y226550D01*
X124837Y226563D01*
X124862Y226588D01*
X124900Y226625D01*
X124937Y226688D01*
X125000Y226763D01*
X125062Y226850D01*
X125137Y226950D01*
X125212Y227075D01*
X125287Y227200D01*
X125362Y227350D01*
X125500Y227662D01*
X125600Y228037D01*
X125637Y228237D01*
X125662Y228450D01*
X123425Y228599D01*
Y228575D01*
X123413Y228512D01*
X123388Y228412D01*
X123363Y228287D01*
X123325Y228150D01*
X123275Y228012D01*
X123213Y227887D01*
X123138Y227762D01*
X123125Y227737D01*
X123063Y227687D01*
X122988Y227625D01*
X122863Y227537D01*
X122713Y227450D01*
X122538Y227387D01*
X122326Y227337D01*
X122088Y227312D01*
X122001D01*
X121913Y227325D01*
X121801Y227337D01*
X121676Y227362D01*
X121538Y227412D01*
X121413Y227462D01*
X121301Y227537D01*
X121288Y227550D01*
X121263Y227575D01*
X121213Y227625D01*
X121163Y227700D01*
X121113Y227775D01*
X121063Y227875D01*
X121038Y227975D01*
X121026Y228087D01*
Y228100D01*
Y228137D01*
X121038Y228200D01*
X121063Y228262D01*
X121088Y228350D01*
X121138Y228437D01*
X121201Y228525D01*
X121288Y228612D01*
X121301Y228624D01*
X121338Y228650D01*
X121426Y228699D01*
X121538Y228762D01*
X121701Y228825D01*
X121801Y228862D01*
X121913Y228899D01*
X122038Y228937D01*
X122176Y228987D01*
X122326Y229024D01*
X122500Y229062D01*
X122513D01*
X122563Y229074D01*
X122650Y229099D01*
X122751Y229124D01*
X122875Y229162D01*
X123025Y229199D01*
X123188Y229249D01*
X123363Y229299D01*
X123725Y229437D01*
X124088Y229587D01*
X124263Y229674D01*
X124425Y229774D01*
X124575Y229874D01*
X124712Y229974D01*
X124725Y229987D01*
X124738Y229999D01*
X124775Y230037D01*
X124812Y230074D01*
X124925Y230199D01*
X125037Y230374D01*
X125162Y230586D01*
X125275Y230837D01*
X125350Y231124D01*
X125362Y231286D01*
X125375Y231449D01*
Y231461D01*
Y231474D01*
Y231549D01*
X125362Y231661D01*
X125337Y231811D01*
X125287Y231974D01*
X125237Y232161D01*
X125150Y232349D01*
X125037Y232549D01*
X125025Y232574D01*
X124975Y232636D01*
X124900Y232736D01*
X124788Y232848D01*
X124637Y232986D01*
X124462Y233123D01*
X124250Y233248D01*
X124013Y233373D01*
X124000D01*
X123975Y233386D01*
X123938Y233398D01*
X123888Y233423D01*
X123813Y233448D01*
X123738Y233473D01*
X123638Y233498D01*
X123525Y233523D01*
X123388Y233548D01*
X123250Y233573D01*
X123100Y233598D01*
X122925Y233623D01*
X122751Y233648D01*
X122563Y233661D01*
X122138Y233673D01*
X125662D01*
D02*
G37*
G36*
X111141Y227762D02*
D01*
D01*
D01*
D02*
G37*
G36*
X134098Y233548D02*
X131748D01*
Y228899D01*
Y228887D01*
Y228874D01*
Y228799D01*
X131736Y228687D01*
X131711Y228550D01*
X131661Y228400D01*
X131611Y228237D01*
X131523Y228075D01*
X131411Y227937D01*
X131398Y227925D01*
X131348Y227887D01*
X131273Y227825D01*
X131161Y227762D01*
X131023Y227700D01*
X130861Y227637D01*
X130661Y227600D01*
X130449Y227587D01*
X130349D01*
X130236Y227600D01*
X130099Y227625D01*
X129949Y227675D01*
X129799Y227725D01*
X129636Y227812D01*
X129499Y227925D01*
X129486Y227937D01*
X129449Y227987D01*
X129386Y228075D01*
X129324Y228175D01*
X129261Y228312D01*
X129199Y228487D01*
X129161Y228675D01*
X129149Y228899D01*
Y233548D01*
X130449D01*
X126799D01*
Y225813D01*
Y228899D01*
X126812Y228762D01*
X126824Y228599D01*
X126849Y228400D01*
X126887Y228187D01*
X126937Y227962D01*
X127012Y227737D01*
Y227725D01*
X127024Y227712D01*
X127049Y227637D01*
X127099Y227525D01*
X127174Y227387D01*
X127262Y227212D01*
X127374Y227037D01*
X127512Y226863D01*
X127674Y226688D01*
X127699Y226663D01*
X127749Y226613D01*
X127837Y226538D01*
X127962Y226438D01*
X128099Y226338D01*
X128262Y226238D01*
X128436Y226138D01*
X128624Y226063D01*
X128637D01*
X128649Y226050D01*
X128687Y226038D01*
X128749Y226025D01*
X128811Y226000D01*
X128886Y225988D01*
X129086Y225938D01*
X129324Y225888D01*
X129599Y225850D01*
X129911Y225825D01*
X130261Y225813D01*
X126799D01*
X130473D01*
X130624Y225825D01*
X130811D01*
X131011Y225850D01*
X131248Y225863D01*
X131486Y225888D01*
X131511D01*
X131548Y225900D01*
X131598D01*
X131711Y225925D01*
X131861Y225950D01*
X132036Y226000D01*
X132223Y226050D01*
X132410Y226113D01*
X132585Y226188D01*
X132611Y226200D01*
X132660Y226238D01*
X132748Y226288D01*
X132848Y226363D01*
X132973Y226450D01*
X133110Y226563D01*
X133248Y226700D01*
X133385Y226850D01*
X133398Y226875D01*
X133448Y226925D01*
X133510Y227012D01*
X133585Y227125D01*
X133660Y227250D01*
X133748Y227400D01*
X133823Y227562D01*
X133885Y227725D01*
Y227737D01*
X133898Y227762D01*
X133910Y227800D01*
X133923Y227850D01*
X133948Y227987D01*
X133985Y228162D01*
X134035Y228362D01*
X134060Y228575D01*
X134085Y228799D01*
X134098Y229012D01*
Y225938D01*
Y233548D01*
D02*
G37*
G36*
X99569Y233673D02*
X93345D01*
D01*
X96282D01*
X96145Y233661D01*
X95970Y233648D01*
X95770Y233623D01*
X95557Y233586D01*
X95345Y233536D01*
X95157Y233473D01*
X95133Y233461D01*
X95070Y233436D01*
X94983Y233398D01*
X94870Y233348D01*
X94745Y233273D01*
X94608Y233186D01*
X94470Y233098D01*
X94345Y232986D01*
X94333Y232973D01*
X94295Y232936D01*
X94233Y232873D01*
X94170Y232799D01*
X94083Y232698D01*
X94008Y232586D01*
X93933Y232474D01*
X93858Y232349D01*
X93845Y232336D01*
X93820Y232286D01*
X93795Y232224D01*
X93745Y232124D01*
X93708Y232011D01*
X93658Y231874D01*
X93608Y231724D01*
X93570Y231561D01*
Y231549D01*
X93558Y231524D01*
X93546Y231474D01*
X93533Y231411D01*
X93520Y231336D01*
X93496Y231249D01*
X93483Y231136D01*
X93458Y231024D01*
X93420Y230762D01*
X93383Y230462D01*
X93358Y230137D01*
X93345Y229799D01*
Y229599D01*
X93358Y229462D01*
X93371Y229287D01*
X93383Y229087D01*
X93408Y228874D01*
X93433Y228637D01*
X93520Y228150D01*
X93570Y227900D01*
X93645Y227637D01*
X93733Y227400D01*
X93820Y227175D01*
X93933Y226950D01*
X94058Y226763D01*
X94070Y226750D01*
X94095Y226725D01*
X94133Y226675D01*
X94195Y226613D01*
X94270Y226538D01*
X94370Y226463D01*
X94483Y226375D01*
X94620Y226288D01*
X94783Y226200D01*
X94958Y226113D01*
X95145Y226038D01*
X95370Y225963D01*
X95607Y225900D01*
X95870Y225850D01*
X96157Y225825D01*
X96470Y225813D01*
X96632D01*
X96707Y225825D01*
X96807D01*
X97020Y225850D01*
X97269Y225888D01*
X97532Y225938D01*
X97794Y226013D01*
X98032Y226113D01*
X98044D01*
X98057Y226125D01*
X98132Y226175D01*
X98232Y226238D01*
X98369Y226338D01*
X98519Y226463D01*
X98682Y226625D01*
X98844Y226800D01*
X98994Y227012D01*
X99007Y227037D01*
X99044Y227087D01*
X99094Y227187D01*
X99144Y227312D01*
X99219Y227475D01*
X99294Y227662D01*
X99356Y227887D01*
X99419Y228150D01*
Y228162D01*
Y228187D01*
X99431Y228225D01*
X99444Y228275D01*
X99456Y228350D01*
X99469Y228425D01*
X99494Y228624D01*
X99519Y228862D01*
X99544Y229137D01*
X99556Y229437D01*
X99569Y229762D01*
Y227175D01*
Y229974D01*
X99556Y230112D01*
X99544Y230287D01*
X99531Y230499D01*
X99506Y230724D01*
X99469Y230961D01*
X99382Y231461D01*
X99319Y231711D01*
X99244Y231961D01*
X99157Y232199D01*
X99044Y232424D01*
X98932Y232624D01*
X98794Y232799D01*
X98782Y232811D01*
X98757Y232836D01*
X98707Y232873D01*
X98644Y232936D01*
X98557Y232998D01*
X98457Y233073D01*
X98344Y233161D01*
X98194Y233236D01*
X98044Y233323D01*
X97869Y233398D01*
X97669Y233473D01*
X97457Y233536D01*
X97219Y233598D01*
X96970Y233636D01*
X96695Y233661D01*
X96407Y233673D01*
X99569D01*
D01*
D02*
G37*
G36*
X141196Y233548D02*
X135372D01*
Y225938D01*
Y231911D01*
X138834D01*
Y230586D01*
X135872D01*
Y229049D01*
X138834D01*
Y225938D01*
X141196D01*
Y233548D01*
D02*
G37*
G36*
X117564D02*
X111141D01*
X111253D01*
Y231924D01*
X115202D01*
Y230711D01*
X111541D01*
Y229162D01*
X115202D01*
Y227662D01*
X111141D01*
Y225938D01*
X117564D01*
Y233548D01*
D02*
G37*
G36*
X106892Y233673D02*
X100244D01*
D01*
X101194D01*
Y228999D01*
X100244D01*
Y225938D01*
Y227362D01*
X101194D01*
Y225938D01*
X103043D01*
Y227362D01*
X106892D01*
Y229099D01*
X103043Y233673D01*
X106892D01*
D02*
G37*
G36*
X90046Y233548D02*
X87459D01*
X84610Y225938D01*
D01*
X92896D01*
X90046Y233548D01*
D02*
G37*
G36*
X122126Y225813D02*
X118739D01*
X122126D01*
D01*
D02*
G37*
%LPD*%
G36*
X96570Y232249D02*
X96657Y232236D01*
X96770Y232199D01*
X96895Y232136D01*
X97020Y232036D01*
X97144Y231899D01*
X97194Y231824D01*
X97245Y231724D01*
X97257Y231699D01*
X97269Y231661D01*
X97282Y231624D01*
X97295Y231561D01*
X97319Y231486D01*
X97332Y231386D01*
X97357Y231286D01*
X97382Y231161D01*
X97395Y231011D01*
X97420Y230849D01*
X97432Y230674D01*
X97444Y230474D01*
X97457Y230262D01*
X97470Y230024D01*
Y229762D01*
Y229749D01*
Y229699D01*
Y229624D01*
Y229524D01*
X97457Y229412D01*
Y229274D01*
X97444Y229124D01*
X97432Y228974D01*
X97407Y228637D01*
X97369Y228312D01*
X97332Y228162D01*
X97307Y228025D01*
X97257Y227900D01*
X97219Y227787D01*
X97207Y227762D01*
X97170Y227700D01*
X97107Y227625D01*
X97032Y227525D01*
X96920Y227425D01*
X96795Y227350D01*
X96645Y227287D01*
X96470Y227262D01*
X96420D01*
X96357Y227275D01*
X96282Y227287D01*
X96195Y227312D01*
X96095Y227350D01*
X95995Y227400D01*
X95907Y227475D01*
X95895Y227487D01*
X95870Y227512D01*
X95820Y227575D01*
X95770Y227650D01*
X95720Y227750D01*
X95657Y227875D01*
X95607Y228012D01*
X95557Y228187D01*
Y228212D01*
X95545Y228275D01*
X95520Y228400D01*
X95495Y228562D01*
X95483Y228775D01*
X95470Y228899D01*
X95457Y229037D01*
Y229187D01*
X95445Y229349D01*
Y229524D01*
Y229712D01*
Y229724D01*
Y229774D01*
Y229849D01*
Y229949D01*
X95457Y230074D01*
Y230212D01*
X95470Y230362D01*
X95483Y230524D01*
X95507Y230861D01*
X95557Y231199D01*
X95582Y231349D01*
X95620Y231499D01*
X95657Y231624D01*
X95707Y231736D01*
X95720Y231761D01*
X95757Y231824D01*
X95820Y231899D01*
X95907Y231999D01*
X96007Y232099D01*
X96145Y232174D01*
X96307Y232236D01*
X96482Y232261D01*
X96507D01*
X96570Y232249D01*
D02*
G37*
G36*
X105080Y228999D02*
X103043D01*
Y231386D01*
X105080Y228999D01*
D02*
G37*
G36*
X89609Y228850D02*
X87959D01*
X88784Y231574D01*
X89609Y228850D01*
D02*
G37*
G36*
X90496Y225938D02*
X87085D01*
X87459Y227200D01*
X90121D01*
X90496Y225938D01*
D02*
G37*
D10*
X359902Y246888D02*
G03*
X359902Y246888I-1000J0D01*
G01*
X357616Y299212D02*
G03*
X357616Y299212I-1000J0D01*
G01*
X342530Y135440D02*
G03*
X342530Y135440I-1000J0D01*
G01*
X171056Y145480D02*
G03*
X171056Y145480I-1000J0D01*
G01*
X199280Y177946D02*
X217280D01*
X199280D02*
Y227946D01*
X217280Y177946D02*
Y220946D01*
X210280Y227946D02*
X217280Y220946D01*
X199280Y227946D02*
X210280D01*
X111316Y280796D02*
X119316D01*
X111316Y264796D02*
X119316D01*
X176976Y105220D02*
Y113220D01*
X200976Y105220D02*
Y113220D01*
X412750Y134620D02*
X415290D01*
X412750Y142240D02*
X415290D01*
X171006Y85470D02*
X179006D01*
X171006Y69470D02*
X179006D01*
X258735Y148649D02*
X260734Y150648D01*
X264733D01*
X266732Y148649D01*
Y146649D01*
X264733Y144650D01*
X260734D01*
X258735Y142651D01*
Y140651D01*
X260734Y138652D01*
X264733D01*
X266732Y140651D01*
X254736Y150648D02*
Y138652D01*
X250737Y142651D01*
X246738Y138652D01*
Y150648D01*
X242740D02*
Y138652D01*
X236742D01*
X234742Y140651D01*
Y148649D01*
X236742Y150648D01*
X242740D01*
X498126Y76147D02*
Y83144D01*
X494627D01*
X493461Y81978D01*
Y79645D01*
X494627Y78479D01*
X498126D01*
X495793D02*
X493461Y76147D01*
X491128Y83144D02*
X486463Y76147D01*
Y83144D02*
X491128Y76147D01*
X498126Y69947D02*
X493461D01*
X495793D01*
Y62949D01*
X491128Y69947D02*
X486463Y62949D01*
Y69947D02*
X491128Y62949D01*
X493461Y55584D02*
X494627Y56750D01*
X496960D01*
X498126Y55584D01*
Y50918D01*
X496960Y49752D01*
X494627D01*
X493461Y50918D01*
Y53251D01*
X495793D01*
X491128Y49752D02*
Y56750D01*
X486463Y49752D01*
Y56750D01*
X484131D02*
Y49752D01*
X480632D01*
X479465Y50918D01*
Y55584D01*
X480632Y56750D01*
X484131D01*
D12*
X363106Y247300D02*
X424106D01*
X363106Y298800D02*
X424106D01*
X289706D02*
X350706D01*
X289706Y247300D02*
X350706D01*
X294230Y124440D02*
X303830D01*
X347230D02*
X356830D01*
X288030Y39440D02*
Y46240D01*
X363030Y39440D02*
Y46240D01*
X288030Y77640D02*
Y101240D01*
X363030Y77640D02*
Y101240D01*
X186056Y173130D02*
X202056D01*
X186056Y141830D02*
X202056D01*
D15*
X633987Y218440D02*
Y208283D01*
X633732Y266700D02*
Y276857D01*
X628654Y271778D02*
X638811D01*
X13464Y267716D02*
Y277873D01*
X8386Y272794D02*
X18543D01*
X12194Y345186D02*
Y355343D01*
D98*
X410136Y127134D02*
G03*
X410136Y127134I-1016J0D01*
G01*
X332232Y179578D02*
X334137D01*
X363855D02*
X365760D01*
Y213106D01*
X332232D02*
X334137D01*
X332232Y179578D02*
Y213106D01*
X363855D02*
X365760D01*
X436626Y87884D02*
Y120396D01*
X404114Y87884D02*
Y120396D01*
D99*
X361696Y165862D02*
X363812D01*
Y167978D01*
X361696D01*
Y165862D01*
M02*
