M48
;Layer_Color=9474304
;FILE_FORMAT=4:4
METRIC,LZ
;TYPE=PLATED
T1F00S00C0.3000
T3F00S00C0.9000
T4F00S00C0.9500
T6F00S00C1.1000
T7F00S00C1.2000
T8F00S00C1.6000
T9F00S00C2.0000
T10F00S00C2.3000
%
T01
X0005Y002
X001
X0015
X002
X0025
X003
X0035
X00125Y0025
X00075
X001Y003
X0015
X00125Y0035
X00075
X0005Y003
X004Y002
X0045
X005
X0055
X006
X0065
X007
X0075
X008
X0085
X009
X0095
X01
X0105
X011
X0115
X012
X0125
X013
X0135
X014
X0145
X015
X01525Y0025
X01475
X01425
X0145Y003
X015
X01525Y0035
X01475
X01425
X0145Y004
X015
X01525Y0045
X01475
X01425
X0145Y005
X015
X01475Y0055
X01425
X01375
X01337Y0056896
X0135Y006
X014
X01425Y0065
X014Y007
X015
X01525Y0065
X015Y006
X014Y005
X0135
X0125
X01275Y0055
X01217Y0056896
X0125Y007
X01275Y0075
X01175
X01125
X0115Y007
X01175Y0065
X01125
X0115Y006
X01175Y0055
X01125
X01097Y0056896
X0105Y006
X01
X00977Y0056896
X01025Y0055
X0105Y005
X01
X009
X00925Y0055
X009Y006
X00857Y0056896
X008Y006
Y007
X00875Y0075
X00925
X01Y007
X0105
X00875Y0065
X008Y005
X0115
X0075
X00775Y0055
X00737Y0056896
X0075Y006
X00675Y0055
X0065Y005
X0055
X00575Y0055
X00525
X00497Y0056896
X0045Y006
X004
X00425Y0055
X0045Y005
X004
Y007
X0045
X0055
X00575Y0075
X00525
Y0065
X00575
X0055Y006
X00617Y0056896
X0065Y007
X00675Y0075
X00325
X00275
Y0065
X003Y006
X00257Y0056896
X00325Y0055
X00377Y0056896
X003Y005
X002
X0015
X001
X0005
X00075Y0055
X00125
X00175
X002Y006
X0015
X001
X00075Y0065
X001Y007
X0015
X002
X00175Y0075
Y0065
X00075Y0075
Y0045
X00125
X0015Y004
X001
X0005
X001Y008
X0015
X002
X00225Y0085
X00275
X00325
X0035Y008
X00375Y0095
X00325
X00275
X00225
X0019685Y0093726
Y0092075
Y0090297
X00175Y0095
X00125
X001Y01
X0005
X00075Y0105
X00125
X00175
X00225
X00275
X0028575Y0099695
X003Y011
X0035
X00375Y0115
X00225
X00175
X00125
X00075
X001Y011
X0015
X002
X0025
X0005
X001Y009
X00175Y0085
X004Y008
X0045
X0055
X006
X0065
X007
X0073025Y0093853
X0075311Y009525
X00760995Y0091313
X0078613Y0090805
X0078105Y009906
X0075057Y0100711
X0074168Y0099949
X0072517Y009906
X0068707Y0099695
Y01016
X00675Y0095
X00625
X00575
X00525
X00475
X00425
X004Y011
X00425Y0115
X00475
X00525
X00575
X006Y011
X0065
X00625Y0105
X00575
X005Y011
X0075
X00761365Y01038225
X00775Y0105
Y0115
X00725
X00825
X0081915Y0113411
X008Y011
X0079883Y0105791
X0080899Y0104775
X00821161Y0105029
X008255Y0100711
X0080772Y0099949
X0085Y01
X009
X0095
X01
X0105
X011
X0111887Y0103378
X011Y011
X0115
X01175Y0115
X01125
X01075
X01025
X00975
X00925
X00875
X009Y011
X0095
X01
X0105
X01075Y0095
X01125
X01175
X0115Y009
X011
X0105
X01
X0095
X009
X0085
X008
X00825Y0095
X00875
X00925
X00975
X01025
X0105Y008
X01
X0095
X008
X0115
X0085Y011
X012
X0125
X013
X0135
X014
X0145
X015
X01525Y0115
X01475
X01425
X01375
X01325
X0132207Y0100203
X013Y01
X0130429Y009906
X01325Y0095
X01375
X014Y009
X0135
X013
X0125
X012
X01225Y0095
X01275
X0125Y01
X012
Y008
X0125
X013
X01325Y0085
X01375
X014Y008
X0143764Y0086868
X0145288Y00889
X0147066Y0090551
X01475Y0105
X01525
X01425
X01275Y0085
X013Y012
X0135
X014
X0145
X015
X0125
X012
X0115
X011
X0105
X01
X0095
X009
X0085
X008
X0075
X007
X006
X0055
X005
X0045
X004
X0035
X003
X0025
X002
X0015
X001
T03
X0092837Y0101473
X0095377
X0097917
X0100457
X0102997
X0105537
X0108077
X0110617
X0113157
X0115697
X0118237
Y0116713
X0115697
X0113157
X0110617
X0108077
X0105537
X0102997
X0100457
X0097917
X0095377
X0092837
X0120777
X0123317
X0125857
X0128397
Y0101473
X0125857
X0123317
X0120777
T04
X0131Y0071414
Y0073914
Y0075914
Y0078414
X0119
Y0075914
Y0073914
Y0071414
X0107
Y0073914
Y0075914
Y0078414
X0095
Y0075914
Y0073914
Y0071414
X0083
Y0073914
Y0075914
Y0078414
X0071
Y0075914
Y0073914
Y0071414
X0059
Y0073914
Y0075914
Y0078414
X0047
Y0075914
Y0073914
Y0071414
X0035
Y0073914
Y0075914
Y0078414
X0023
Y0075914
Y0073914
Y0071414
T06
X0152146Y0048954
Y0052454
Y0055954
Y0059454
Y0062954
Y0066454
Y0069954
Y0075004
Y0078504
X0003937
Y0075004
Y0069954
Y0066454
Y0062954
Y0059454
Y0055954
Y0052454
Y0048954
Y0082004
Y0085504
Y0089004
Y0092504
Y0096004
X0152146
Y0092504
Y0089004
Y0085504
Y0082004
T07
X0064699Y0119126
X0068199
X0071699
T08
X00381Y0117221
T09
X00381Y0105571
T10
X01217Y0068414
X01337
X01097
X00977
X00857
X00737
X00617
X00497
X00377
X00257
Y0081414
X00377
X00497
X00617
X00737
X00857
X00977
X01097
X01217
X01337
M30
