M48
;Layer_Color=9474304
;FILE_FORMAT=4:4
METRIC,LZ
;TYPE=PLATED
T1F00S00C0.3000
T2F00S00C0.7000
T3F00S00C1.0600
T4F00S00C1.1000
T5F00S00C3.0000
;TYPE=NON_PLATED
T6F00S00C0.9000
T7F00S00C1.0000
T8F00S00C3.3000
%
T01
X001Y0005
X00112776Y00084836
X00122174Y00092964
X0013843Y000889
X0014351Y0005588
X0016891Y001016
X0014859Y001651
X00112268Y00162814
X00125Y002
X0016891Y00189484
X00202438Y00209296
X00216662Y00196596
X00275Y002
X00272288Y0015621
X002921Y0015113
X0030226Y0015913
X0028194Y0013716
X0029845Y0010922
X0029464Y00094996
X0031496Y0009271
X00315214Y00081026
X00303022Y00076708
X0031242Y00066802
X0032639Y0006731
X0032766Y001016
X00336804Y0009906
X00384302Y00085852
X00384615Y00077312
X00384302Y00057658
X00360172Y00045974
X0039116Y0010552
X00384302Y00155194
X00375158Y00157988
X00366522Y0016002
X00356616Y00165354
X00355092Y00150368
X00361188Y00144018
X00360934Y00185928
X00352298Y00186436
X00358648Y00201676
X0038862Y00218186
X00338328Y00242062
X0033655Y00291846
X00377698
X0030153Y0033172
Y0034036
X00301498Y00349504
Y00359156
X00291498
Y00349504
X0029153Y0034036
Y0033172
X0028153
Y0034036
X00281498Y00349504
Y00359156
X00271494
Y00349504
X00271526Y0034036
Y0033172
X00225Y003
X002Y0025
X0016764Y00380746
X001Y0035
X00075Y001
X00236474Y00070358
X0023747Y0005713
X00264478Y00046986
X00400812Y00089408
X0041529Y00081788
X00431546Y00083058
X00475Y001
X00496062Y00121158
X00489458Y0005842
X00536194Y0007112
X0056515Y00071882
X0055Y0015
X006
X0045085Y00159004
X00414546Y00127
T02
X0046609Y00056134
Y00068834
Y00081534
T03
X0003556Y0013081
Y0015581
Y0018081
Y0020581
X0014304Y003556
X0016804
X0019304
X0021804
T04
X00408686Y00058674
X00434086
T05
X0004445Y0027305
X0004318Y0034925
X0060071Y0027305
Y0021336
T06
X0030353Y0009144
X0034753
T07
X0025146Y00050292
X0024131Y00126492
X0026161
T08
X0003429Y0007239
X0061849
Y0035433
M30
