G04*
G04 #@! TF.GenerationSoftware,Altium Limited,Altium NEXUS,2.1.5 (53)*
G04*
G04 Layer_Physical_Order=2*
G04 Layer_Color=16711680*
%FSLAX44Y44*%
%MOMM*%
G71*
G01*
G75*
%ADD58C,0.3000*%
%ADD61C,2.3000*%
%ADD62C,1.4280*%
%ADD63R,1.4280X1.4280*%
%ADD64R,1.7000X1.7000*%
%ADD65C,1.7000*%
%ADD66C,0.6000*%
G36*
X263091Y143309D02*
X220980Y143309D01*
X219599Y143035D01*
X218428Y142252D01*
X217645Y141081D01*
X217371Y139700D01*
X217371Y3609D01*
X53139D01*
Y139700D01*
X52865Y141081D01*
X52082Y142252D01*
X50911Y143035D01*
X49530Y143309D01*
X3609D01*
Y444500D01*
X263091D01*
Y143309D01*
D02*
G37*
%LPC*%
G36*
X229870Y441498D02*
Y431800D01*
X239568D01*
X239356Y433412D01*
X238243Y436098D01*
X236474Y438404D01*
X234168Y440173D01*
X231482Y441286D01*
X229870Y441498D01*
D02*
G37*
G36*
X227330D02*
X225718Y441286D01*
X223032Y440173D01*
X220726Y438404D01*
X218957Y436098D01*
X217844Y433412D01*
X217632Y431800D01*
X227330D01*
Y441498D01*
D02*
G37*
G36*
X239568Y429260D02*
X229870D01*
Y419562D01*
X231482Y419774D01*
X234168Y420887D01*
X236474Y422656D01*
X238243Y424962D01*
X239356Y427648D01*
X239568Y429260D01*
D02*
G37*
G36*
X227330D02*
X217632D01*
X217844Y427648D01*
X218957Y424962D01*
X220726Y422656D01*
X223032Y420887D01*
X225718Y419774D01*
X227330Y419562D01*
Y429260D01*
D02*
G37*
G36*
X239640Y403470D02*
X217560D01*
Y381390D01*
X239640D01*
Y403470D01*
D02*
G37*
G36*
X229870Y365298D02*
Y355600D01*
X239568D01*
X239356Y357212D01*
X238243Y359898D01*
X236474Y362204D01*
X234168Y363973D01*
X231482Y365086D01*
X229870Y365298D01*
D02*
G37*
G36*
X227330D02*
X225718Y365086D01*
X223032Y363973D01*
X220726Y362204D01*
X218957Y359898D01*
X217844Y357212D01*
X217632Y355600D01*
X227330D01*
Y365298D01*
D02*
G37*
G36*
X239568Y353060D02*
X229870D01*
Y343362D01*
X231482Y343574D01*
X234168Y344687D01*
X236474Y346456D01*
X238243Y348762D01*
X239356Y351448D01*
X239568Y353060D01*
D02*
G37*
G36*
X227330D02*
X217632D01*
X217844Y351448D01*
X218957Y348762D01*
X220726Y346456D01*
X223032Y344687D01*
X225718Y343574D01*
X227330Y343362D01*
Y353060D01*
D02*
G37*
G36*
X239640Y327270D02*
X217560D01*
Y305190D01*
X239640D01*
Y327270D01*
D02*
G37*
G36*
X229870Y289098D02*
Y279400D01*
X239568D01*
X239356Y281012D01*
X238243Y283698D01*
X236474Y286004D01*
X234168Y287773D01*
X231482Y288886D01*
X229870Y289098D01*
D02*
G37*
G36*
X227330D02*
X225718Y288886D01*
X223032Y287773D01*
X220726Y286004D01*
X218957Y283698D01*
X217844Y281012D01*
X217632Y279400D01*
X227330D01*
Y289098D01*
D02*
G37*
G36*
X239568Y276860D02*
X229870D01*
Y267162D01*
X231482Y267374D01*
X234168Y268487D01*
X236474Y270256D01*
X238243Y272562D01*
X239356Y275248D01*
X239568Y276860D01*
D02*
G37*
G36*
X227330D02*
X217632D01*
X217844Y275248D01*
X218957Y272562D01*
X220726Y270256D01*
X223032Y268487D01*
X225718Y267374D01*
X227330Y267162D01*
Y276860D01*
D02*
G37*
G36*
X239640Y251070D02*
X217560D01*
Y228990D01*
X239640D01*
Y251070D01*
D02*
G37*
G36*
X229870Y212898D02*
Y203200D01*
X239568D01*
X239356Y204812D01*
X238243Y207498D01*
X236474Y209804D01*
X234168Y211573D01*
X231482Y212686D01*
X229870Y212898D01*
D02*
G37*
G36*
X227330D02*
X225718Y212686D01*
X223032Y211573D01*
X220726Y209804D01*
X218957Y207498D01*
X217844Y204812D01*
X217632Y203200D01*
X227330D01*
Y212898D01*
D02*
G37*
G36*
X239568Y200660D02*
X229870D01*
Y190962D01*
X231482Y191174D01*
X234168Y192287D01*
X236474Y194056D01*
X238243Y196362D01*
X239356Y199048D01*
X239568Y200660D01*
D02*
G37*
G36*
X227330D02*
X217632D01*
X217844Y199048D01*
X218957Y196362D01*
X220726Y194056D01*
X223032Y192287D01*
X225718Y191174D01*
X227330Y190962D01*
Y200660D01*
D02*
G37*
G36*
X239640Y174870D02*
X217560D01*
Y152790D01*
X239640D01*
Y174870D01*
D02*
G37*
G36*
X144780Y428559D02*
X142618Y428129D01*
X140786Y426904D01*
X139561Y425072D01*
X139131Y422910D01*
X139561Y420748D01*
X140501Y419342D01*
Y136101D01*
X139738Y135786D01*
X137716Y134234D01*
X136165Y132212D01*
X135280Y130075D01*
X134620Y129958D01*
X133960Y130075D01*
X133076Y132212D01*
X131524Y134234D01*
X129502Y135786D01*
X128739Y136101D01*
Y419342D01*
X129679Y420748D01*
X130108Y422910D01*
X129679Y425072D01*
X128454Y426904D01*
X126622Y428129D01*
X124460Y428559D01*
X122298Y428129D01*
X120466Y426904D01*
X119241Y425072D01*
X118812Y422910D01*
X119241Y420748D01*
X120466Y418916D01*
X120501Y418893D01*
Y136101D01*
X119738Y135786D01*
X117716Y134234D01*
X116165Y132212D01*
X115189Y129857D01*
X114857Y127330D01*
X115189Y124803D01*
X116165Y122448D01*
X117716Y120426D01*
X119738Y118875D01*
X122093Y117899D01*
X124620Y117566D01*
X127147Y117899D01*
X129502Y118875D01*
X131524Y120426D01*
X133076Y122448D01*
X133960Y124585D01*
X134620Y124702D01*
X135280Y124585D01*
X136165Y122448D01*
X137716Y120426D01*
X139738Y118875D01*
X142093Y117899D01*
X144620Y117566D01*
X147147Y117899D01*
X149502Y118875D01*
X151524Y120426D01*
X153076Y122448D01*
X154051Y124803D01*
X154383Y127330D01*
X154051Y129857D01*
X153076Y132212D01*
X151524Y134234D01*
X149502Y135786D01*
X148739Y136101D01*
Y418893D01*
X148774Y418916D01*
X149999Y420748D01*
X150428Y422910D01*
X149999Y425072D01*
X148774Y426904D01*
X146942Y428129D01*
X144780Y428559D01*
D02*
G37*
G36*
X170890Y136926D02*
Y128600D01*
X179216D01*
X179051Y129857D01*
X178076Y132212D01*
X176524Y134234D01*
X174502Y135786D01*
X172147Y136761D01*
X170890Y136926D01*
D02*
G37*
G36*
X168350D02*
X167093Y136761D01*
X164738Y135786D01*
X162716Y134234D01*
X161164Y132212D01*
X160189Y129857D01*
X160024Y128600D01*
X168350D01*
Y136926D01*
D02*
G37*
G36*
X179216Y126060D02*
X170890D01*
Y117734D01*
X172147Y117899D01*
X174502Y118875D01*
X176524Y120426D01*
X178076Y122448D01*
X179051Y124803D01*
X179216Y126060D01*
D02*
G37*
G36*
X168350D02*
X160024D01*
X160189Y124803D01*
X161164Y122448D01*
X162716Y120426D01*
X164738Y118875D01*
X167093Y117899D01*
X168350Y117734D01*
Y126060D01*
D02*
G37*
G36*
X109300Y137010D02*
X89940D01*
Y117650D01*
X109300D01*
Y137010D01*
D02*
G37*
G36*
X200320Y114391D02*
X196655Y113909D01*
X193239Y112494D01*
X190307Y110243D01*
X188056Y107311D01*
X186641Y103895D01*
X186159Y100230D01*
X186641Y96565D01*
X188056Y93149D01*
X190307Y90217D01*
X193239Y87966D01*
X196655Y86551D01*
X200320Y86069D01*
X203985Y86551D01*
X207401Y87966D01*
X210333Y90217D01*
X212584Y93149D01*
X213999Y96565D01*
X214481Y100230D01*
X213999Y103895D01*
X212584Y107311D01*
X210333Y110243D01*
X207401Y112494D01*
X203985Y113909D01*
X200320Y114391D01*
D02*
G37*
G36*
X68920D02*
X65255Y113909D01*
X61839Y112494D01*
X58907Y110243D01*
X56656Y107311D01*
X55241Y103895D01*
X54759Y100230D01*
X55241Y96565D01*
X56656Y93149D01*
X58907Y90217D01*
X61839Y87966D01*
X65255Y86551D01*
X68920Y86069D01*
X72585Y86551D01*
X76001Y87966D01*
X78933Y90217D01*
X81184Y93149D01*
X82599Y96565D01*
X83081Y100230D01*
X82599Y103895D01*
X81184Y107311D01*
X78933Y110243D01*
X76001Y112494D01*
X72585Y113909D01*
X68920Y114391D01*
D02*
G37*
%LPD*%
D58*
X144620Y422750D02*
X144780Y422910D01*
X144620Y127330D02*
Y422750D01*
X124460Y422910D02*
X124620Y422750D01*
Y127330D02*
Y422750D01*
D61*
X200320Y100230D02*
D03*
X68920D02*
D03*
D62*
X169620Y127330D02*
D03*
X144620D02*
D03*
X124620D02*
D03*
D63*
X99620D02*
D03*
D64*
X228600Y163830D02*
D03*
Y240030D02*
D03*
Y392430D02*
D03*
Y316230D02*
D03*
D65*
Y201930D02*
D03*
Y278130D02*
D03*
Y430530D02*
D03*
Y354330D02*
D03*
D66*
X144780Y422910D02*
D03*
X124460D02*
D03*
X29210Y332740D02*
D03*
X250000Y425000D02*
D03*
Y375000D02*
D03*
Y325000D02*
D03*
Y275000D02*
D03*
Y225000D02*
D03*
Y175000D02*
D03*
X225000Y375000D02*
D03*
X237500Y300000D02*
D03*
X225000Y225000D02*
D03*
X200000Y425000D02*
D03*
Y375000D02*
D03*
X212500Y350000D02*
D03*
X200000Y325000D02*
D03*
X212500Y300000D02*
D03*
X200000Y275000D02*
D03*
X212500Y250000D02*
D03*
X200000Y225000D02*
D03*
X212500Y200000D02*
D03*
Y150000D02*
D03*
X200000Y125000D02*
D03*
Y75000D02*
D03*
X212500Y50000D02*
D03*
X200000Y25000D02*
D03*
X175000Y425000D02*
D03*
X187500Y400000D02*
D03*
Y300000D02*
D03*
X175000Y225000D02*
D03*
X187500Y150000D02*
D03*
X175000Y75000D02*
D03*
X187500Y50000D02*
D03*
X175000Y25000D02*
D03*
X162500Y400000D02*
D03*
Y300000D02*
D03*
Y150000D02*
D03*
Y100000D02*
D03*
X150000Y75000D02*
D03*
X162500Y50000D02*
D03*
X150000Y25000D02*
D03*
X137500Y100000D02*
D03*
X125000Y75000D02*
D03*
X137500Y50000D02*
D03*
X125000Y25000D02*
D03*
X112500Y400000D02*
D03*
Y350000D02*
D03*
X100000Y175000D02*
D03*
X112500Y100000D02*
D03*
X100000Y75000D02*
D03*
X112500Y50000D02*
D03*
X100000Y25000D02*
D03*
X75000Y425000D02*
D03*
X87500Y400000D02*
D03*
Y350000D02*
D03*
X75000Y225000D02*
D03*
X87500Y150000D02*
D03*
X75000Y125000D02*
D03*
X87500Y100000D02*
D03*
X75000Y75000D02*
D03*
X87500Y50000D02*
D03*
X75000Y25000D02*
D03*
X62500Y350000D02*
D03*
Y300000D02*
D03*
X50000Y175000D02*
D03*
X62500Y150000D02*
D03*
Y50000D02*
D03*
X25000Y375000D02*
D03*
Y225000D02*
D03*
X37500Y200000D02*
D03*
X25000Y175000D02*
D03*
X37500Y150000D02*
D03*
M02*
