G04*
G04 #@! TF.GenerationSoftware,Altium Limited,Altium NEXUS,2.1.5 (53)*
G04*
G04 Layer_Color=32896*
%FSLAX44Y44*%
%MOMM*%
G71*
G01*
G75*
G36*
X62134Y395260D02*
X55211D01*
X55561Y394935D01*
X55861Y394585D01*
X56111Y394235D01*
X56335Y393910D01*
X56535Y393560D01*
X56685Y393210D01*
X56810Y392886D01*
X56910Y392586D01*
X56985Y392311D01*
X57060Y392036D01*
X57110Y391811D01*
X57135Y391611D01*
X57160Y391436D01*
Y391211D01*
X57135Y390736D01*
X57085Y390286D01*
X56985Y389886D01*
X56860Y389486D01*
X56735Y389112D01*
X56585Y388762D01*
X56410Y388437D01*
X56235Y388137D01*
X56061Y387887D01*
X55886Y387662D01*
X55736Y387462D01*
X55611Y387287D01*
X55486Y387162D01*
X55386Y387062D01*
X55336Y387012D01*
X55311Y386987D01*
X54936Y386687D01*
X54561Y386437D01*
X54136Y386212D01*
X53686Y386037D01*
X53236Y385862D01*
X52786Y385737D01*
X51912Y385537D01*
X51512Y385488D01*
X51137Y385438D01*
X50787Y385387D01*
X50487Y385363D01*
X50262Y385337D01*
X50062D01*
X49962D01*
X49912D01*
X49287Y385363D01*
X48687Y385412D01*
X48113Y385488D01*
X47613Y385612D01*
X47113Y385737D01*
X46688Y385887D01*
X46263Y386037D01*
X45913Y386187D01*
X45588Y386337D01*
X45313Y386512D01*
X45063Y386637D01*
X44863Y386762D01*
X44713Y386887D01*
X44613Y386962D01*
X44538Y387012D01*
X44514Y387037D01*
X44164Y387362D01*
X43889Y387712D01*
X43614Y388037D01*
X43414Y388387D01*
X43214Y388737D01*
X43064Y389086D01*
X42939Y389412D01*
X42839Y389736D01*
X42739Y390011D01*
X42689Y390286D01*
X42639Y390536D01*
X42614Y390736D01*
Y390911D01*
X42589Y391036D01*
Y391136D01*
X42614Y391586D01*
X42689Y392011D01*
X42764Y392411D01*
X42889Y392761D01*
X42989Y393060D01*
X43064Y393285D01*
X43139Y393435D01*
X43164Y393485D01*
X43414Y393910D01*
X43689Y394285D01*
X43989Y394635D01*
X44289Y394935D01*
X44538Y395185D01*
X44738Y395360D01*
X44888Y395460D01*
X44913Y395510D01*
X42914D01*
Y398934D01*
X62134D01*
Y395260D01*
D02*
G37*
G36*
X56685Y384138D02*
X56860Y383713D01*
X56985Y383288D01*
X57085Y382913D01*
X57135Y382613D01*
X57160Y382363D01*
Y382138D01*
X57135Y381813D01*
X57085Y381513D01*
X57010Y381264D01*
X56935Y381014D01*
X56835Y380839D01*
X56760Y380689D01*
X56710Y380589D01*
X56685Y380564D01*
X56485Y380289D01*
X56210Y380014D01*
X55911Y379764D01*
X55586Y379514D01*
X55311Y379314D01*
X55061Y379139D01*
X54961Y379064D01*
X54886Y379039D01*
X54861Y378989D01*
X56835D01*
Y375565D01*
X42914D01*
Y379239D01*
X47213D01*
X47863D01*
X48438Y379264D01*
X48962D01*
X49437Y379289D01*
X49862Y379314D01*
X50237Y379339D01*
X50587Y379364D01*
X50862Y379389D01*
X51112Y379414D01*
X51337Y379439D01*
X51487Y379464D01*
X51637Y379489D01*
X51737Y379514D01*
X51812Y379539D01*
X51862D01*
X52262Y379664D01*
X52586Y379789D01*
X52836Y379939D01*
X53061Y380064D01*
X53211Y380189D01*
X53336Y380289D01*
X53386Y380339D01*
X53411Y380364D01*
X53561Y380589D01*
X53661Y380814D01*
X53761Y381039D01*
X53811Y381239D01*
X53836Y381438D01*
X53861Y381589D01*
Y381713D01*
X53836Y382013D01*
X53761Y382313D01*
X53661Y382613D01*
X53561Y382888D01*
X53436Y383113D01*
X53336Y383288D01*
X53261Y383388D01*
X53236Y383438D01*
X56460Y384588D01*
X56685Y384138D01*
D02*
G37*
G36*
X43264Y372716D02*
X43614Y372566D01*
X43939Y372466D01*
X44214Y372366D01*
X44439Y372291D01*
X44613Y372241D01*
X44713Y372216D01*
X44763D01*
X45138Y372166D01*
X45563Y372116D01*
X46013Y372091D01*
X46463Y372066D01*
X46863Y372041D01*
X47038D01*
X47188D01*
X47313D01*
X47413D01*
X47463D01*
X47488D01*
X51787Y372091D01*
X52211D01*
X52611Y372066D01*
X52986Y372041D01*
X53311Y372016D01*
X53611Y371966D01*
X53886Y371941D01*
X54136Y371891D01*
X54336Y371841D01*
X54511Y371791D01*
X54686Y371741D01*
X54811Y371716D01*
X54911Y371666D01*
X55036Y371616D01*
X55086Y371591D01*
X55411Y371366D01*
X55686Y371116D01*
X55960Y370841D01*
X56160Y370566D01*
X56335Y370291D01*
X56460Y370091D01*
X56535Y369941D01*
X56560Y369916D01*
Y369892D01*
X56660Y369641D01*
X56760Y369392D01*
X56910Y368817D01*
X57010Y368192D01*
X57085Y367617D01*
X57110Y367317D01*
X57135Y367067D01*
Y366817D01*
X57160Y366617D01*
Y365718D01*
X57110Y365268D01*
X57060Y364818D01*
X57010Y364418D01*
X56935Y364068D01*
X56835Y363718D01*
X56760Y363418D01*
X56660Y363143D01*
X56560Y362918D01*
X56485Y362693D01*
X56385Y362518D01*
X56311Y362368D01*
X56260Y362268D01*
X56210Y362193D01*
X56160Y362143D01*
Y362118D01*
X55761Y361644D01*
X55286Y361244D01*
X54786Y360894D01*
X54286Y360644D01*
X53861Y360444D01*
X53661Y360369D01*
X53486Y360294D01*
X53361Y360244D01*
X53261Y360219D01*
X53186Y360194D01*
X53161D01*
X52561Y363518D01*
X52911Y363643D01*
X53186Y363793D01*
X53436Y363943D01*
X53611Y364068D01*
X53761Y364193D01*
X53861Y364293D01*
X53911Y364368D01*
X53936Y364393D01*
X54061Y364618D01*
X54161Y364868D01*
X54236Y365118D01*
X54286Y365368D01*
X54311Y365593D01*
X54336Y365768D01*
Y365942D01*
X54311Y366442D01*
X54261Y366867D01*
X54186Y367217D01*
X54111Y367467D01*
X54011Y367667D01*
X53936Y367817D01*
X53886Y367892D01*
X53861Y367917D01*
X53661Y368092D01*
X53436Y368242D01*
X53186Y368342D01*
X52911Y368392D01*
X52686Y368442D01*
X52486Y368467D01*
X52361D01*
X52337D01*
X52312D01*
X51962D01*
X51887Y368267D01*
X51812Y368017D01*
X51712Y367767D01*
X51637Y367492D01*
X51487Y366892D01*
X51337Y366292D01*
X51212Y365742D01*
X51162Y365493D01*
X51112Y365293D01*
X51087Y365118D01*
X51062Y364993D01*
X51037Y364893D01*
Y364868D01*
X50912Y364193D01*
X50762Y363618D01*
X50612Y363118D01*
X50487Y362693D01*
X50362Y362368D01*
X50262Y362143D01*
X50212Y361993D01*
X50187Y361944D01*
X49987Y361594D01*
X49762Y361269D01*
X49537Y361019D01*
X49312Y360794D01*
X49112Y360594D01*
X48937Y360469D01*
X48837Y360394D01*
X48787Y360369D01*
X48438Y360194D01*
X48063Y360044D01*
X47713Y359944D01*
X47388Y359894D01*
X47113Y359844D01*
X46888Y359819D01*
X46738D01*
X46713D01*
X46688D01*
X46363Y359844D01*
X46063Y359869D01*
X45488Y360019D01*
X44963Y360219D01*
X44538Y360444D01*
X44214Y360669D01*
X43939Y360844D01*
X43864Y360944D01*
X43789Y360994D01*
X43764Y361019D01*
X43739Y361044D01*
X43539Y361294D01*
X43364Y361544D01*
X43064Y362094D01*
X42864Y362668D01*
X42739Y363218D01*
X42639Y363693D01*
X42614Y363918D01*
Y364093D01*
X42589Y364243D01*
Y364443D01*
X42614Y364893D01*
X42664Y365318D01*
X42739Y365692D01*
X42814Y366042D01*
X42889Y366317D01*
X42964Y366542D01*
X43014Y366667D01*
X43039Y366717D01*
X43239Y367117D01*
X43439Y367492D01*
X43664Y367842D01*
X43889Y368142D01*
X44089Y368392D01*
X44264Y368567D01*
X44363Y368692D01*
X44413Y368742D01*
X44314Y368792D01*
X44164Y368817D01*
X44039Y368867D01*
X44014D01*
X43989D01*
X43739Y368942D01*
X43514Y369017D01*
X43339Y369092D01*
X43189Y369142D01*
X43064Y369192D01*
X42989Y369217D01*
X42939Y369242D01*
X42914D01*
Y372891D01*
X43264Y372716D01*
D02*
G37*
G36*
X80449Y364768D02*
X80624Y364343D01*
X80749Y363918D01*
X80849Y363543D01*
X80899Y363243D01*
X80924Y362993D01*
Y362768D01*
X80899Y362443D01*
X80849Y362143D01*
X80774Y361894D01*
X80699Y361644D01*
X80599Y361469D01*
X80524Y361319D01*
X80474Y361219D01*
X80449Y361194D01*
X80249Y360919D01*
X79974Y360644D01*
X79675Y360394D01*
X79349Y360144D01*
X79075Y359944D01*
X78825Y359769D01*
X78725Y359694D01*
X78650Y359669D01*
X78625Y359619D01*
X80599D01*
Y356195D01*
X66678D01*
Y359869D01*
X70977D01*
X71627D01*
X72201Y359894D01*
X72726D01*
X73201Y359919D01*
X73626Y359944D01*
X74001Y359969D01*
X74351Y359994D01*
X74626Y360019D01*
X74876Y360044D01*
X75101Y360069D01*
X75251Y360094D01*
X75401Y360119D01*
X75500Y360144D01*
X75575Y360169D01*
X75626D01*
X76025Y360294D01*
X76350Y360419D01*
X76600Y360569D01*
X76825Y360694D01*
X76975Y360819D01*
X77100Y360919D01*
X77150Y360969D01*
X77175Y360994D01*
X77325Y361219D01*
X77425Y361444D01*
X77525Y361669D01*
X77575Y361869D01*
X77600Y362068D01*
X77625Y362218D01*
Y362343D01*
X77600Y362643D01*
X77525Y362943D01*
X77425Y363243D01*
X77325Y363518D01*
X77200Y363743D01*
X77100Y363918D01*
X77025Y364018D01*
X77000Y364068D01*
X80224Y365218D01*
X80449Y364768D01*
D02*
G37*
G36*
X74051Y353296D02*
X74726Y353221D01*
X75351Y353121D01*
X75900Y352971D01*
X76425Y352846D01*
X76875Y352671D01*
X77300Y352521D01*
X77675Y352346D01*
X77975Y352196D01*
X78250Y352046D01*
X78475Y351896D01*
X78625Y351796D01*
X78750Y351696D01*
X78825Y351646D01*
X78850Y351621D01*
X79225Y351271D01*
X79524Y350896D01*
X79824Y350496D01*
X80049Y350097D01*
X80249Y349697D01*
X80424Y349272D01*
X80549Y348872D01*
X80674Y348497D01*
X80749Y348122D01*
X80824Y347797D01*
X80849Y347497D01*
X80899Y347247D01*
Y347022D01*
X80924Y346872D01*
Y346722D01*
X80899Y346222D01*
X80849Y345723D01*
X80749Y345273D01*
X80624Y344848D01*
X80474Y344423D01*
X80299Y344048D01*
X80124Y343723D01*
X79949Y343398D01*
X79749Y343123D01*
X79574Y342873D01*
X79399Y342648D01*
X79250Y342473D01*
X79125Y342323D01*
X79025Y342224D01*
X78975Y342174D01*
X78950Y342149D01*
X78575Y341824D01*
X78150Y341549D01*
X77725Y341324D01*
X77275Y341099D01*
X76825Y340924D01*
X76375Y340799D01*
X75925Y340674D01*
X75500Y340574D01*
X75101Y340499D01*
X74726Y340449D01*
X74376Y340399D01*
X74101Y340374D01*
X73851D01*
X73676Y340349D01*
X73576D01*
X73526D01*
X73001Y340374D01*
X72476Y340399D01*
X72001Y340474D01*
X71551Y340574D01*
X71127Y340674D01*
X70727Y340774D01*
X70377Y340899D01*
X70052Y341049D01*
X69752Y341174D01*
X69477Y341299D01*
X69252Y341399D01*
X69077Y341499D01*
X68927Y341599D01*
X68827Y341674D01*
X68752Y341699D01*
X68727Y341724D01*
X68302Y342074D01*
X67952Y342449D01*
X67628Y342848D01*
X67353Y343298D01*
X67128Y343723D01*
X66928Y344173D01*
X66778Y344623D01*
X66653Y345048D01*
X66553Y345448D01*
X66478Y345848D01*
X66428Y346172D01*
X66403Y346473D01*
X66378Y346722D01*
X66353Y346922D01*
Y347072D01*
X66403Y347897D01*
X66528Y348647D01*
X66678Y349297D01*
X66778Y349572D01*
X66878Y349847D01*
X66978Y350097D01*
X67078Y350297D01*
X67153Y350471D01*
X67228Y350621D01*
X67303Y350746D01*
X67353Y350821D01*
X67403Y350871D01*
Y350896D01*
X67828Y351421D01*
X68327Y351896D01*
X68827Y352271D01*
X69327Y352596D01*
X69777Y352846D01*
X69977Y352921D01*
X70152Y353021D01*
X70277Y353071D01*
X70377Y353121D01*
X70452Y353146D01*
X70477D01*
X71102Y349472D01*
X70727Y349347D01*
X70402Y349197D01*
X70152Y349047D01*
X69927Y348897D01*
X69752Y348747D01*
X69652Y348647D01*
X69577Y348572D01*
X69552Y348547D01*
X69402Y348322D01*
X69302Y348072D01*
X69202Y347847D01*
X69152Y347622D01*
X69127Y347422D01*
X69102Y347272D01*
Y347122D01*
X69152Y346672D01*
X69252Y346247D01*
X69377Y345898D01*
X69552Y345573D01*
X69727Y345323D01*
X69852Y345148D01*
X69952Y345048D01*
X70002Y344998D01*
X70377Y344723D01*
X70802Y344498D01*
X71227Y344348D01*
X71627Y344248D01*
X72001Y344173D01*
X72301Y344148D01*
X72426Y344123D01*
X72501D01*
X72551D01*
X72576D01*
Y353346D01*
X73351D01*
X74051Y353296D01*
D02*
G37*
G36*
X50487Y357895D02*
X51037Y357845D01*
X51562Y357745D01*
X52036Y357595D01*
X52486Y357445D01*
X52911Y357270D01*
X53311Y357095D01*
X53661Y356920D01*
X53986Y356720D01*
X54261Y356545D01*
X54511Y356370D01*
X54711Y356220D01*
X54886Y356095D01*
X54986Y355995D01*
X55061Y355920D01*
X55086Y355895D01*
X55461Y355495D01*
X55761Y355095D01*
X56061Y354670D01*
X56286Y354221D01*
X56485Y353796D01*
X56660Y353371D01*
X56785Y352946D01*
X56910Y352546D01*
X56985Y352146D01*
X57060Y351796D01*
X57085Y351496D01*
X57135Y351221D01*
Y350996D01*
X57160Y350846D01*
Y350696D01*
X57110Y349947D01*
X57010Y349272D01*
X56860Y348647D01*
X56710Y348097D01*
X56610Y347847D01*
X56535Y347647D01*
X56460Y347447D01*
X56385Y347297D01*
X56311Y347172D01*
X56286Y347072D01*
X56235Y347022D01*
Y346997D01*
X55861Y346423D01*
X55436Y345898D01*
X55011Y345473D01*
X54586Y345098D01*
X54211Y344823D01*
X54036Y344698D01*
X53886Y344623D01*
X53786Y344548D01*
X53686Y344498D01*
X53636Y344448D01*
X53611D01*
X52961Y344148D01*
X52337Y343923D01*
X51737Y343773D01*
X51187Y343673D01*
X50962Y343623D01*
X50737Y343598D01*
X50537Y343573D01*
X50387D01*
X50237Y343548D01*
X50137D01*
X50087D01*
X50062D01*
X49187Y343598D01*
X48412Y343698D01*
X48063Y343748D01*
X47713Y343823D01*
X47413Y343923D01*
X47138Y343998D01*
X46863Y344073D01*
X46638Y344173D01*
X46463Y344248D01*
X46288Y344298D01*
X46163Y344373D01*
X46063Y344398D01*
X46013Y344448D01*
X45988D01*
X45388Y344823D01*
X44888Y345248D01*
X44439Y345673D01*
X44089Y346098D01*
X43814Y346473D01*
X43689Y346647D01*
X43614Y346797D01*
X43539Y346897D01*
X43489Y346997D01*
X43439Y347047D01*
Y347072D01*
X43164Y347722D01*
X42939Y348397D01*
X42789Y348997D01*
X42689Y349572D01*
X42664Y349822D01*
X42639Y350047D01*
X42614Y350247D01*
Y350421D01*
X42589Y350546D01*
Y350746D01*
X42614Y351321D01*
X42689Y351846D01*
X42789Y352371D01*
X42914Y352846D01*
X43064Y353296D01*
X43239Y353721D01*
X43439Y354095D01*
X43639Y354470D01*
X43814Y354770D01*
X44014Y355070D01*
X44189Y355295D01*
X44338Y355495D01*
X44464Y355670D01*
X44563Y355770D01*
X44638Y355845D01*
X44663Y355870D01*
X45063Y356220D01*
X45488Y356545D01*
X45913Y356820D01*
X46363Y357045D01*
X46813Y357245D01*
X47238Y357420D01*
X47663Y357545D01*
X48063Y357670D01*
X48438Y357745D01*
X48787Y357820D01*
X49112Y357869D01*
X49387Y357895D01*
X49612D01*
X49762Y357920D01*
X49887D01*
X49912D01*
X50487Y357895D01*
D02*
G37*
G36*
X49062Y341099D02*
X49612Y340999D01*
X50112Y340849D01*
X50537Y340674D01*
X50887Y340499D01*
X51137Y340349D01*
X51237Y340299D01*
X51312Y340249D01*
X51337Y340199D01*
X51362D01*
X51787Y339799D01*
X52161Y339374D01*
X52461Y338924D01*
X52686Y338499D01*
X52886Y338100D01*
X52961Y337925D01*
X53011Y337800D01*
X53061Y337675D01*
X53086Y337575D01*
X53111Y337525D01*
Y337500D01*
X53361Y337950D01*
X53611Y338325D01*
X53911Y338675D01*
X54186Y338949D01*
X54436Y339174D01*
X54636Y339349D01*
X54761Y339449D01*
X54811Y339474D01*
X55236Y339724D01*
X55661Y339899D01*
X56086Y340024D01*
X56460Y340099D01*
X56810Y340174D01*
X57060Y340199D01*
X57160D01*
X57235D01*
X57260D01*
X57285D01*
X57735Y340174D01*
X58160Y340099D01*
X58535Y339999D01*
X58885Y339899D01*
X59160Y339799D01*
X59360Y339699D01*
X59485Y339624D01*
X59535Y339599D01*
X59885Y339374D01*
X60209Y339124D01*
X60484Y338874D01*
X60709Y338649D01*
X60884Y338424D01*
X61034Y338275D01*
X61109Y338175D01*
X61134Y338125D01*
X61334Y337800D01*
X61509Y337450D01*
X61659Y337100D01*
X61759Y336800D01*
X61834Y336525D01*
X61884Y336325D01*
X61934Y336175D01*
Y336125D01*
X61959Y335900D01*
X62009Y335650D01*
X62059Y335125D01*
X62084Y334551D01*
X62109Y334001D01*
X62134Y333501D01*
Y325053D01*
X42914D01*
Y332251D01*
X42939Y332851D01*
Y333876D01*
X42964Y334301D01*
Y335025D01*
X42989Y335300D01*
Y335550D01*
X43014Y335750D01*
Y336050D01*
X43039Y336150D01*
Y336250D01*
X43139Y336800D01*
X43264Y337300D01*
X43389Y337750D01*
X43564Y338125D01*
X43689Y338424D01*
X43814Y338675D01*
X43914Y338799D01*
X43939Y338849D01*
X44239Y339224D01*
X44563Y339574D01*
X44888Y339849D01*
X45213Y340099D01*
X45488Y340274D01*
X45713Y340424D01*
X45863Y340499D01*
X45888Y340524D01*
X45913D01*
X46388Y340724D01*
X46838Y340874D01*
X47263Y340999D01*
X47663Y341074D01*
X47988Y341124D01*
X48238Y341149D01*
X48337D01*
X48412D01*
X48438D01*
X48463D01*
X49062Y341099D01*
D02*
G37*
G36*
X74401Y338450D02*
X75001Y338400D01*
X75550Y338325D01*
X76050Y338225D01*
X76525Y338075D01*
X76975Y337950D01*
X77375Y337800D01*
X77725Y337650D01*
X78025Y337475D01*
X78300Y337325D01*
X78550Y337200D01*
X78725Y337075D01*
X78875Y336950D01*
X79000Y336875D01*
X79050Y336825D01*
X79075Y336800D01*
X79399Y336475D01*
X79675Y336150D01*
X79924Y335800D01*
X80149Y335425D01*
X80324Y335075D01*
X80474Y334725D01*
X80599Y334376D01*
X80699Y334051D01*
X80774Y333751D01*
X80824Y333476D01*
X80874Y333226D01*
X80899Y333001D01*
X80924Y332826D01*
Y332576D01*
X80899Y332151D01*
X80849Y331726D01*
X80749Y331351D01*
X80624Y330976D01*
X80299Y330277D01*
X80124Y329977D01*
X79949Y329702D01*
X79774Y329427D01*
X79599Y329202D01*
X79425Y329027D01*
X79275Y328852D01*
X79150Y328727D01*
X79050Y328627D01*
X79000Y328577D01*
X78975Y328552D01*
X85898D01*
Y324878D01*
X66678D01*
Y328302D01*
X68702D01*
X68302Y328627D01*
X67952Y328952D01*
X67653Y329302D01*
X67403Y329602D01*
X67203Y329877D01*
X67078Y330077D01*
X66978Y330227D01*
X66953Y330277D01*
X66753Y330727D01*
X66603Y331151D01*
X66503Y331551D01*
X66428Y331901D01*
X66378Y332201D01*
X66353Y332451D01*
Y332651D01*
X66378Y333101D01*
X66428Y333526D01*
X66528Y333926D01*
X66653Y334326D01*
X66803Y334675D01*
X66953Y335025D01*
X67128Y335325D01*
X67328Y335625D01*
X67503Y335875D01*
X67677Y336100D01*
X67828Y336300D01*
X67977Y336475D01*
X68102Y336600D01*
X68202Y336700D01*
X68252Y336750D01*
X68277Y336775D01*
X68652Y337075D01*
X69077Y337325D01*
X69502Y337575D01*
X69952Y337750D01*
X70402Y337925D01*
X70852Y338050D01*
X71751Y338275D01*
X72151Y338325D01*
X72551Y338374D01*
X72901Y338424D01*
X73176Y338450D01*
X73426Y338475D01*
X73626D01*
X73726D01*
X73776D01*
X74401Y338450D01*
D02*
G37*
G36*
X80599Y317530D02*
X74726D01*
X74201D01*
X73701D01*
X73276Y317505D01*
X72876Y317480D01*
X72526Y317455D01*
X72226D01*
X71951Y317430D01*
X71726Y317405D01*
X71527Y317380D01*
X71352Y317355D01*
X71227Y317330D01*
X71127Y317305D01*
X71052Y317280D01*
X71002D01*
X70952Y317255D01*
X70677Y317130D01*
X70427Y316980D01*
X70227Y316805D01*
X70027Y316630D01*
X69877Y316480D01*
X69777Y316355D01*
X69702Y316255D01*
X69677Y316230D01*
X69502Y315930D01*
X69377Y315655D01*
X69302Y315355D01*
X69252Y315105D01*
X69202Y314881D01*
X69177Y314681D01*
Y314531D01*
X69202Y314256D01*
X69227Y313981D01*
X69302Y313756D01*
X69377Y313556D01*
X69427Y313406D01*
X69502Y313281D01*
X69527Y313206D01*
X69552Y313181D01*
X69702Y313006D01*
X69877Y312856D01*
X70052Y312731D01*
X70202Y312631D01*
X70352Y312556D01*
X70477Y312506D01*
X70552Y312456D01*
X70577D01*
X70727Y312431D01*
X70927Y312381D01*
X71152Y312356D01*
X71427Y312331D01*
X72026Y312306D01*
X72651Y312281D01*
X73226Y312256D01*
X73501D01*
X73726D01*
X73926D01*
X74076D01*
X74176D01*
X74201D01*
X80599D01*
Y308582D01*
X71776D01*
X71077Y308607D01*
X70452Y308657D01*
X69927Y308732D01*
X69477Y308832D01*
X69127Y308907D01*
X68877Y308982D01*
X68802Y309007D01*
X68727Y309032D01*
X68702Y309057D01*
X68677D01*
X68277Y309282D01*
X67952Y309507D01*
X67653Y309782D01*
X67403Y310057D01*
X67203Y310282D01*
X67078Y310482D01*
X66978Y310607D01*
X66953Y310657D01*
X66753Y311082D01*
X66603Y311531D01*
X66503Y311956D01*
X66428Y312331D01*
X66378Y312681D01*
X66353Y312956D01*
Y313181D01*
X66378Y313681D01*
X66453Y314156D01*
X66553Y314606D01*
X66678Y315005D01*
X66778Y315330D01*
X66878Y315580D01*
X66928Y315655D01*
X66953Y315730D01*
X66978Y315755D01*
Y315780D01*
X67253Y316230D01*
X67528Y316605D01*
X67828Y316955D01*
X68102Y317230D01*
X68352Y317480D01*
X68577Y317630D01*
X68702Y317755D01*
X68752Y317780D01*
X66678D01*
Y321204D01*
X80599D01*
Y317530D01*
D02*
G37*
G36*
X56685Y315530D02*
X56860Y315105D01*
X56985Y314681D01*
X57085Y314306D01*
X57135Y314006D01*
X57160Y313756D01*
Y313531D01*
X57135Y313206D01*
X57085Y312906D01*
X57010Y312656D01*
X56935Y312406D01*
X56835Y312231D01*
X56760Y312081D01*
X56710Y311981D01*
X56685Y311956D01*
X56485Y311681D01*
X56210Y311406D01*
X55911Y311157D01*
X55586Y310907D01*
X55311Y310707D01*
X55061Y310532D01*
X54961Y310457D01*
X54886Y310432D01*
X54861Y310382D01*
X56835D01*
Y306958D01*
X42914D01*
Y310632D01*
X47213D01*
X47863D01*
X48438Y310657D01*
X48962D01*
X49437Y310682D01*
X49862Y310707D01*
X50237Y310732D01*
X50587Y310757D01*
X50862Y310782D01*
X51112Y310807D01*
X51337Y310832D01*
X51487Y310857D01*
X51637Y310882D01*
X51737Y310907D01*
X51812Y310932D01*
X51862D01*
X52262Y311056D01*
X52586Y311182D01*
X52836Y311332D01*
X53061Y311456D01*
X53211Y311581D01*
X53336Y311681D01*
X53386Y311731D01*
X53411Y311756D01*
X53561Y311981D01*
X53661Y312206D01*
X53761Y312431D01*
X53811Y312631D01*
X53836Y312831D01*
X53861Y312981D01*
Y313106D01*
X53836Y313406D01*
X53761Y313706D01*
X53661Y314006D01*
X53561Y314281D01*
X53436Y314506D01*
X53336Y314681D01*
X53261Y314781D01*
X53236Y314831D01*
X56460Y315980D01*
X56685Y315530D01*
D02*
G37*
G36*
X50287Y304058D02*
X50962Y303983D01*
X51587Y303883D01*
X52137Y303733D01*
X52661Y303608D01*
X53111Y303433D01*
X53536Y303284D01*
X53911Y303109D01*
X54211Y302959D01*
X54486Y302809D01*
X54711Y302659D01*
X54861Y302559D01*
X54986Y302459D01*
X55061Y302409D01*
X55086Y302384D01*
X55461Y302034D01*
X55761Y301659D01*
X56061Y301259D01*
X56286Y300859D01*
X56485Y300459D01*
X56660Y300034D01*
X56785Y299634D01*
X56910Y299259D01*
X56985Y298885D01*
X57060Y298560D01*
X57085Y298260D01*
X57135Y298010D01*
Y297785D01*
X57160Y297635D01*
Y297485D01*
X57135Y296985D01*
X57085Y296485D01*
X56985Y296035D01*
X56860Y295611D01*
X56710Y295186D01*
X56535Y294811D01*
X56360Y294486D01*
X56185Y294161D01*
X55985Y293886D01*
X55811Y293636D01*
X55636Y293411D01*
X55486Y293236D01*
X55361Y293086D01*
X55261Y292986D01*
X55211Y292936D01*
X55186Y292911D01*
X54811Y292586D01*
X54386Y292311D01*
X53961Y292086D01*
X53511Y291861D01*
X53061Y291686D01*
X52611Y291562D01*
X52161Y291437D01*
X51737Y291337D01*
X51337Y291262D01*
X50962Y291212D01*
X50612Y291162D01*
X50337Y291137D01*
X50087D01*
X49912Y291112D01*
X49812D01*
X49762D01*
X49237Y291137D01*
X48712Y291162D01*
X48238Y291237D01*
X47788Y291337D01*
X47363Y291437D01*
X46963Y291537D01*
X46613Y291661D01*
X46288Y291812D01*
X45988Y291936D01*
X45713Y292061D01*
X45488Y292161D01*
X45313Y292261D01*
X45163Y292361D01*
X45063Y292436D01*
X44988Y292461D01*
X44963Y292486D01*
X44538Y292836D01*
X44189Y293211D01*
X43864Y293611D01*
X43589Y294061D01*
X43364Y294486D01*
X43164Y294936D01*
X43014Y295385D01*
X42889Y295810D01*
X42789Y296210D01*
X42714Y296610D01*
X42664Y296935D01*
X42639Y297235D01*
X42614Y297485D01*
X42589Y297685D01*
Y297835D01*
X42639Y298660D01*
X42764Y299410D01*
X42914Y300059D01*
X43014Y300334D01*
X43114Y300609D01*
X43214Y300859D01*
X43314Y301059D01*
X43389Y301234D01*
X43464Y301384D01*
X43539Y301509D01*
X43589Y301584D01*
X43639Y301634D01*
Y301659D01*
X44064Y302184D01*
X44563Y302659D01*
X45063Y303034D01*
X45563Y303358D01*
X46013Y303608D01*
X46213Y303683D01*
X46388Y303783D01*
X46513Y303833D01*
X46613Y303883D01*
X46688Y303908D01*
X46713D01*
X47338Y300234D01*
X46963Y300109D01*
X46638Y299959D01*
X46388Y299809D01*
X46163Y299659D01*
X45988Y299510D01*
X45888Y299410D01*
X45813Y299335D01*
X45788Y299310D01*
X45638Y299085D01*
X45538Y298835D01*
X45438Y298610D01*
X45388Y298385D01*
X45363Y298185D01*
X45338Y298035D01*
Y297885D01*
X45388Y297435D01*
X45488Y297010D01*
X45613Y296660D01*
X45788Y296335D01*
X45963Y296085D01*
X46088Y295910D01*
X46188Y295810D01*
X46238Y295760D01*
X46613Y295485D01*
X47038Y295261D01*
X47463Y295111D01*
X47863Y295011D01*
X48238Y294936D01*
X48537Y294911D01*
X48662Y294886D01*
X48737D01*
X48787D01*
X48812D01*
Y304108D01*
X49587D01*
X50287Y304058D01*
D02*
G37*
G36*
X67028Y305633D02*
X67378Y305483D01*
X67702Y305383D01*
X67977Y305283D01*
X68202Y305208D01*
X68377Y305158D01*
X68477Y305133D01*
X68527D01*
X68902Y305083D01*
X69327Y305033D01*
X69777Y305008D01*
X70227Y304983D01*
X70627Y304958D01*
X70802D01*
X70952D01*
X71077D01*
X71177D01*
X71227D01*
X71252D01*
X75550Y305008D01*
X75975D01*
X76375Y304983D01*
X76750Y304958D01*
X77075Y304933D01*
X77375Y304883D01*
X77650Y304858D01*
X77900Y304808D01*
X78100Y304758D01*
X78275Y304708D01*
X78450Y304658D01*
X78575Y304633D01*
X78675Y304583D01*
X78800Y304533D01*
X78850Y304508D01*
X79175Y304283D01*
X79450Y304033D01*
X79724Y303758D01*
X79924Y303484D01*
X80099Y303209D01*
X80224Y303009D01*
X80299Y302859D01*
X80324Y302834D01*
Y302809D01*
X80424Y302559D01*
X80524Y302309D01*
X80674Y301734D01*
X80774Y301109D01*
X80849Y300534D01*
X80874Y300234D01*
X80899Y299984D01*
Y299734D01*
X80924Y299534D01*
Y298635D01*
X80874Y298185D01*
X80824Y297735D01*
X80774Y297335D01*
X80699Y296985D01*
X80599Y296635D01*
X80524Y296335D01*
X80424Y296060D01*
X80324Y295835D01*
X80249Y295611D01*
X80149Y295436D01*
X80074Y295286D01*
X80024Y295186D01*
X79974Y295111D01*
X79924Y295061D01*
Y295036D01*
X79524Y294561D01*
X79050Y294161D01*
X78550Y293811D01*
X78050Y293561D01*
X77625Y293361D01*
X77425Y293286D01*
X77250Y293211D01*
X77125Y293161D01*
X77025Y293136D01*
X76950Y293111D01*
X76925D01*
X76325Y296435D01*
X76675Y296560D01*
X76950Y296710D01*
X77200Y296860D01*
X77375Y296985D01*
X77525Y297110D01*
X77625Y297210D01*
X77675Y297285D01*
X77700Y297310D01*
X77825Y297535D01*
X77925Y297785D01*
X78000Y298035D01*
X78050Y298285D01*
X78075Y298510D01*
X78100Y298685D01*
Y298860D01*
X78075Y299359D01*
X78025Y299784D01*
X77950Y300134D01*
X77875Y300384D01*
X77775Y300584D01*
X77700Y300734D01*
X77650Y300809D01*
X77625Y300834D01*
X77425Y301009D01*
X77200Y301159D01*
X76950Y301259D01*
X76675Y301309D01*
X76450Y301359D01*
X76250Y301384D01*
X76125D01*
X76100D01*
X76075D01*
X75725D01*
X75651Y301184D01*
X75575Y300934D01*
X75476Y300684D01*
X75401Y300409D01*
X75251Y299809D01*
X75101Y299210D01*
X74976Y298660D01*
X74926Y298410D01*
X74876Y298210D01*
X74851Y298035D01*
X74826Y297910D01*
X74801Y297810D01*
Y297785D01*
X74676Y297110D01*
X74526Y296535D01*
X74376Y296035D01*
X74251Y295611D01*
X74126Y295286D01*
X74026Y295061D01*
X73976Y294911D01*
X73951Y294861D01*
X73751Y294511D01*
X73526Y294186D01*
X73301Y293936D01*
X73076Y293711D01*
X72876Y293511D01*
X72701Y293386D01*
X72601Y293311D01*
X72551Y293286D01*
X72201Y293111D01*
X71827Y292961D01*
X71477Y292861D01*
X71152Y292811D01*
X70877Y292761D01*
X70652Y292736D01*
X70502D01*
X70477D01*
X70452D01*
X70127Y292761D01*
X69827Y292786D01*
X69252Y292936D01*
X68727Y293136D01*
X68302Y293361D01*
X67977Y293586D01*
X67702Y293761D01*
X67628Y293861D01*
X67553Y293911D01*
X67528Y293936D01*
X67503Y293961D01*
X67303Y294211D01*
X67128Y294461D01*
X66828Y295011D01*
X66628Y295585D01*
X66503Y296135D01*
X66403Y296610D01*
X66378Y296835D01*
Y297010D01*
X66353Y297160D01*
Y297360D01*
X66378Y297810D01*
X66428Y298235D01*
X66503Y298610D01*
X66578Y298960D01*
X66653Y299235D01*
X66728Y299459D01*
X66778Y299585D01*
X66803Y299634D01*
X67003Y300034D01*
X67203Y300409D01*
X67428Y300759D01*
X67653Y301059D01*
X67853Y301309D01*
X68027Y301484D01*
X68127Y301609D01*
X68177Y301659D01*
X68077Y301709D01*
X67927Y301734D01*
X67803Y301784D01*
X67778D01*
X67752D01*
X67503Y301859D01*
X67278Y301934D01*
X67103Y302009D01*
X66953Y302059D01*
X66828Y302109D01*
X66753Y302134D01*
X66703Y302159D01*
X66678D01*
Y305808D01*
X67028Y305633D01*
D02*
G37*
G36*
X69752Y291112D02*
X69627Y290762D01*
X69552Y290462D01*
X69477Y290212D01*
X69452Y290012D01*
X69427Y289837D01*
X69402Y289737D01*
Y289637D01*
X69427Y289387D01*
X69502Y289162D01*
X69552Y289037D01*
X69577Y289012D01*
Y288987D01*
X69727Y288837D01*
X69877Y288737D01*
X69977Y288687D01*
X70027Y288662D01*
X70102D01*
X70202Y288637D01*
X70477D01*
X70802D01*
X71152Y288612D01*
X71477D01*
X71751D01*
X71877D01*
X71951D01*
X72001D01*
X72026D01*
X77675D01*
Y291137D01*
X80599D01*
Y288612D01*
X85548D01*
X83373Y284938D01*
X80599D01*
Y283239D01*
X77675D01*
Y284938D01*
X71576D01*
X71227D01*
X70902D01*
X70602D01*
X70352Y284963D01*
X70102D01*
X69902D01*
X69552Y284988D01*
X69277Y285013D01*
X69102D01*
X69002Y285038D01*
X68977D01*
X68652Y285113D01*
X68377Y285188D01*
X68127Y285263D01*
X67927Y285363D01*
X67752Y285438D01*
X67628Y285513D01*
X67553Y285538D01*
X67528Y285563D01*
X67353Y285713D01*
X67178Y285913D01*
X66903Y286288D01*
X66803Y286463D01*
X66728Y286613D01*
X66703Y286713D01*
X66678Y286738D01*
X66578Y287038D01*
X66503Y287363D01*
X66428Y287663D01*
X66403Y287937D01*
X66378Y288162D01*
X66353Y288337D01*
Y288512D01*
X66378Y289112D01*
X66428Y289662D01*
X66528Y290162D01*
X66628Y290587D01*
X66703Y290937D01*
X66803Y291212D01*
X66828Y291312D01*
X66853Y291387D01*
X66878Y291412D01*
Y291437D01*
X69752Y291112D01*
D02*
G37*
G36*
X56835Y286613D02*
X47688Y283964D01*
X56835Y281639D01*
Y278090D01*
X47688Y275691D01*
X56835Y273091D01*
Y269517D01*
X42914Y273916D01*
Y277490D01*
X51862Y279839D01*
X42914Y282239D01*
Y285788D01*
X56835Y290262D01*
Y286613D01*
D02*
G37*
G36*
X72926Y281489D02*
X73526Y281389D01*
X74051Y281264D01*
X74476Y281139D01*
X74851Y280989D01*
X74976Y280914D01*
X75101Y280864D01*
X75201Y280814D01*
X75276Y280764D01*
X75301Y280739D01*
X75326D01*
X75775Y280414D01*
X76150Y280089D01*
X76500Y279739D01*
X76775Y279390D01*
X77000Y279090D01*
X77175Y278840D01*
X77225Y278740D01*
X77275Y278665D01*
X77300Y278640D01*
Y278615D01*
X77425Y278340D01*
X77575Y278040D01*
X77825Y277390D01*
X78050Y276690D01*
X78275Y276015D01*
X78375Y275716D01*
X78450Y275416D01*
X78525Y275141D01*
X78575Y274916D01*
X78625Y274716D01*
X78675Y274566D01*
X78700Y274466D01*
Y274441D01*
X78825Y273941D01*
X78950Y273466D01*
X79075Y273066D01*
X79175Y272691D01*
X79300Y272366D01*
X79399Y272066D01*
X79500Y271817D01*
X79599Y271617D01*
X79675Y271417D01*
X79749Y271267D01*
X79824Y271142D01*
X79874Y271042D01*
X79924Y270967D01*
X79949Y270917D01*
X79974Y270892D01*
X80174Y270692D01*
X80374Y270567D01*
X80574Y270467D01*
X80749Y270392D01*
X80899Y270342D01*
X81049Y270317D01*
X81124D01*
X81149D01*
X81424Y270342D01*
X81649Y270417D01*
X81849Y270517D01*
X82024Y270617D01*
X82174Y270717D01*
X82274Y270817D01*
X82324Y270892D01*
X82349Y270917D01*
X82574Y271292D01*
X82749Y271742D01*
X82874Y272167D01*
X82974Y272591D01*
X83024Y272991D01*
Y273141D01*
X83049Y273291D01*
Y273566D01*
X83024Y274141D01*
X82949Y274641D01*
X82849Y275066D01*
X82724Y275391D01*
X82599Y275666D01*
X82499Y275865D01*
X82424Y275965D01*
X82399Y276015D01*
X82124Y276290D01*
X81799Y276540D01*
X81449Y276715D01*
X81099Y276865D01*
X80774Y276965D01*
X80524Y277040D01*
X80424Y277065D01*
X80349Y277090D01*
X80299D01*
X80274D01*
X80424Y280964D01*
X80899Y280939D01*
X81374Y280864D01*
X81799Y280739D01*
X82199Y280614D01*
X82574Y280464D01*
X82924Y280314D01*
X83249Y280139D01*
X83524Y279965D01*
X83798Y279790D01*
X84023Y279615D01*
X84198Y279465D01*
X84373Y279340D01*
X84498Y279215D01*
X84573Y279115D01*
X84623Y279065D01*
X84648Y279040D01*
X84923Y278690D01*
X85173Y278290D01*
X85398Y277865D01*
X85573Y277415D01*
X85723Y276965D01*
X85848Y276515D01*
X86048Y275641D01*
X86123Y275216D01*
X86173Y274841D01*
X86198Y274491D01*
X86223Y274191D01*
X86248Y273941D01*
Y273591D01*
X86223Y272791D01*
X86148Y272066D01*
X86023Y271442D01*
X85973Y271142D01*
X85923Y270892D01*
X85848Y270642D01*
X85798Y270442D01*
X85723Y270242D01*
X85673Y270092D01*
X85648Y269967D01*
X85598Y269892D01*
X85573Y269842D01*
Y269817D01*
X85298Y269267D01*
X84973Y268792D01*
X84648Y268393D01*
X84323Y268043D01*
X84048Y267793D01*
X83823Y267593D01*
X83648Y267493D01*
X83624Y267443D01*
X83598D01*
X83124Y267168D01*
X82624Y266968D01*
X82174Y266818D01*
X81749Y266718D01*
X81399Y266668D01*
X81124Y266643D01*
X81024Y266618D01*
X80949D01*
X80899D01*
X80874D01*
X80449Y266643D01*
X80049Y266693D01*
X79650Y266768D01*
X79300Y266893D01*
X78625Y267168D01*
X78325Y267343D01*
X78075Y267493D01*
X77825Y267668D01*
X77600Y267818D01*
X77425Y267968D01*
X77250Y268092D01*
X77150Y268218D01*
X77050Y268293D01*
X77000Y268342D01*
X76975Y268368D01*
X76775Y268617D01*
X76575Y268917D01*
X76375Y269242D01*
X76200Y269567D01*
X75875Y270292D01*
X75601Y271017D01*
X75476Y271367D01*
X75376Y271692D01*
X75301Y271992D01*
X75226Y272241D01*
X75151Y272441D01*
X75101Y272616D01*
X75076Y272716D01*
Y272741D01*
X74976Y273166D01*
X74876Y273566D01*
X74776Y273916D01*
X74701Y274241D01*
X74626Y274541D01*
X74551Y274791D01*
X74476Y275016D01*
X74426Y275191D01*
X74376Y275366D01*
X74326Y275491D01*
X74301Y275616D01*
X74276Y275691D01*
X74251Y275816D01*
X74226Y275840D01*
X74101Y276190D01*
X73951Y276490D01*
X73801Y276715D01*
X73676Y276915D01*
X73576Y277065D01*
X73476Y277165D01*
X73426Y277215D01*
X73401Y277240D01*
X73226Y277365D01*
X73026Y277465D01*
X72826Y277540D01*
X72626Y277590D01*
X72476Y277615D01*
X72351Y277640D01*
X72251D01*
X72226D01*
X71852Y277590D01*
X71502Y277490D01*
X71177Y277340D01*
X70902Y277165D01*
X70677Y276965D01*
X70527Y276815D01*
X70402Y276715D01*
X70377Y276665D01*
X70127Y276265D01*
X69927Y275816D01*
X69802Y275366D01*
X69702Y274891D01*
X69652Y274491D01*
X69627Y274316D01*
Y274141D01*
X69602Y274016D01*
Y273841D01*
X69652Y273216D01*
X69752Y272666D01*
X69877Y272192D01*
X70052Y271792D01*
X70202Y271467D01*
X70352Y271242D01*
X70452Y271092D01*
X70477Y271042D01*
X70852Y270692D01*
X71302Y270392D01*
X71751Y270142D01*
X72226Y269967D01*
X72626Y269817D01*
X72801Y269767D01*
X72976Y269742D01*
X73101Y269717D01*
X73201Y269692D01*
X73251Y269667D01*
X73276D01*
X72901Y265893D01*
X72326Y265993D01*
X71776Y266093D01*
X71252Y266243D01*
X70777Y266418D01*
X70327Y266593D01*
X69927Y266793D01*
X69577Y266993D01*
X69252Y267193D01*
X68952Y267393D01*
X68702Y267593D01*
X68502Y267743D01*
X68327Y267918D01*
X68177Y268043D01*
X68077Y268143D01*
X68027Y268193D01*
X68003Y268218D01*
X67702Y268592D01*
X67453Y269017D01*
X67228Y269467D01*
X67028Y269917D01*
X66878Y270392D01*
X66728Y270842D01*
X66528Y271742D01*
X66478Y272167D01*
X66428Y272566D01*
X66378Y272916D01*
X66353Y273216D01*
X66328Y273466D01*
Y273816D01*
X66353Y274716D01*
X66428Y275516D01*
X66503Y275891D01*
X66553Y276240D01*
X66603Y276540D01*
X66678Y276840D01*
X66753Y277090D01*
X66803Y277340D01*
X66878Y277515D01*
X66928Y277690D01*
X66953Y277815D01*
X67003Y277915D01*
X67028Y277965D01*
Y277990D01*
X67328Y278590D01*
X67653Y279115D01*
X68003Y279540D01*
X68352Y279914D01*
X68677Y280214D01*
X68927Y280414D01*
X69027Y280489D01*
X69102Y280539D01*
X69127Y280589D01*
X69152D01*
X69702Y280889D01*
X70252Y281114D01*
X70777Y281289D01*
X71252Y281389D01*
X71677Y281464D01*
X71852Y281489D01*
X72001D01*
X72101Y281514D01*
X72201D01*
X72251D01*
X72276D01*
X72926Y281489D01*
D02*
G37*
G36*
X50487Y268417D02*
X51037Y268368D01*
X51562Y268267D01*
X52036Y268118D01*
X52486Y267968D01*
X52911Y267793D01*
X53311Y267618D01*
X53661Y267443D01*
X53986Y267243D01*
X54261Y267068D01*
X54511Y266893D01*
X54711Y266743D01*
X54886Y266618D01*
X54986Y266518D01*
X55061Y266443D01*
X55086Y266418D01*
X55461Y266018D01*
X55761Y265618D01*
X56061Y265193D01*
X56286Y264743D01*
X56485Y264319D01*
X56660Y263894D01*
X56785Y263469D01*
X56910Y263069D01*
X56985Y262669D01*
X57060Y262319D01*
X57085Y262019D01*
X57135Y261744D01*
Y261519D01*
X57160Y261369D01*
Y261219D01*
X57110Y260469D01*
X57010Y259795D01*
X56860Y259170D01*
X56710Y258620D01*
X56610Y258370D01*
X56535Y258170D01*
X56460Y257970D01*
X56385Y257820D01*
X56311Y257695D01*
X56286Y257595D01*
X56235Y257545D01*
Y257520D01*
X55861Y256945D01*
X55436Y256420D01*
X55011Y255996D01*
X54586Y255621D01*
X54211Y255346D01*
X54036Y255221D01*
X53886Y255146D01*
X53786Y255071D01*
X53686Y255021D01*
X53636Y254971D01*
X53611D01*
X52961Y254671D01*
X52337Y254446D01*
X51737Y254296D01*
X51187Y254196D01*
X50962Y254146D01*
X50737Y254121D01*
X50537Y254096D01*
X50387D01*
X50237Y254071D01*
X50137D01*
X50087D01*
X50062D01*
X49187Y254121D01*
X48412Y254221D01*
X48063Y254271D01*
X47713Y254346D01*
X47413Y254446D01*
X47138Y254521D01*
X46863Y254596D01*
X46638Y254696D01*
X46463Y254771D01*
X46288Y254821D01*
X46163Y254896D01*
X46063Y254921D01*
X46013Y254971D01*
X45988D01*
X45388Y255346D01*
X44888Y255771D01*
X44439Y256196D01*
X44089Y256621D01*
X43814Y256995D01*
X43689Y257170D01*
X43614Y257320D01*
X43539Y257420D01*
X43489Y257520D01*
X43439Y257570D01*
Y257595D01*
X43164Y258245D01*
X42939Y258920D01*
X42789Y259520D01*
X42689Y260095D01*
X42664Y260345D01*
X42639Y260569D01*
X42614Y260769D01*
Y260944D01*
X42589Y261069D01*
Y261269D01*
X42614Y261844D01*
X42689Y262369D01*
X42789Y262894D01*
X42914Y263369D01*
X43064Y263819D01*
X43239Y264244D01*
X43439Y264618D01*
X43639Y264993D01*
X43814Y265293D01*
X44014Y265593D01*
X44189Y265818D01*
X44338Y266018D01*
X44464Y266193D01*
X44563Y266293D01*
X44638Y266368D01*
X44663Y266393D01*
X45063Y266743D01*
X45488Y267068D01*
X45913Y267343D01*
X46363Y267568D01*
X46813Y267768D01*
X47238Y267943D01*
X47663Y268067D01*
X48063Y268193D01*
X48438Y268267D01*
X48787Y268342D01*
X49112Y268393D01*
X49387Y268417D01*
X49612D01*
X49762Y268442D01*
X49887D01*
X49912D01*
X50487Y268417D01*
D02*
G37*
G36*
X74251Y256521D02*
X74801Y256471D01*
X75326Y256371D01*
X75800Y256221D01*
X76250Y256071D01*
X76675Y255896D01*
X77075Y255721D01*
X77425Y255546D01*
X77750Y255346D01*
X78025Y255171D01*
X78275Y254996D01*
X78475Y254846D01*
X78650Y254721D01*
X78750Y254621D01*
X78825Y254546D01*
X78850Y254521D01*
X79225Y254121D01*
X79524Y253721D01*
X79824Y253296D01*
X80049Y252846D01*
X80249Y252421D01*
X80424Y251997D01*
X80549Y251572D01*
X80674Y251172D01*
X80749Y250772D01*
X80824Y250422D01*
X80849Y250122D01*
X80899Y249847D01*
Y249622D01*
X80924Y249472D01*
Y249322D01*
X80874Y248573D01*
X80774Y247898D01*
X80624Y247273D01*
X80474Y246723D01*
X80374Y246473D01*
X80299Y246273D01*
X80224Y246073D01*
X80149Y245923D01*
X80074Y245798D01*
X80049Y245698D01*
X79999Y245648D01*
Y245623D01*
X79625Y245048D01*
X79200Y244524D01*
X78775Y244099D01*
X78350Y243724D01*
X77975Y243449D01*
X77800Y243324D01*
X77650Y243249D01*
X77550Y243174D01*
X77450Y243124D01*
X77400Y243074D01*
X77375D01*
X76725Y242774D01*
X76100Y242549D01*
X75500Y242399D01*
X74951Y242299D01*
X74726Y242249D01*
X74501Y242224D01*
X74301Y242199D01*
X74151D01*
X74001Y242174D01*
X73901D01*
X73851D01*
X73826D01*
X72951Y242224D01*
X72176Y242324D01*
X71827Y242374D01*
X71477Y242449D01*
X71177Y242549D01*
X70902Y242624D01*
X70627Y242699D01*
X70402Y242799D01*
X70227Y242874D01*
X70052Y242924D01*
X69927Y242999D01*
X69827Y243024D01*
X69777Y243074D01*
X69752D01*
X69152Y243449D01*
X68652Y243874D01*
X68202Y244299D01*
X67853Y244723D01*
X67578Y245098D01*
X67453Y245273D01*
X67378Y245423D01*
X67303Y245523D01*
X67253Y245623D01*
X67203Y245673D01*
Y245698D01*
X66928Y246348D01*
X66703Y247023D01*
X66553Y247623D01*
X66453Y248198D01*
X66428Y248448D01*
X66403Y248673D01*
X66378Y248873D01*
Y249047D01*
X66353Y249172D01*
Y249372D01*
X66378Y249947D01*
X66453Y250472D01*
X66553Y250997D01*
X66678Y251472D01*
X66828Y251922D01*
X67003Y252347D01*
X67203Y252722D01*
X67403Y253096D01*
X67578Y253396D01*
X67778Y253696D01*
X67952Y253921D01*
X68102Y254121D01*
X68227Y254296D01*
X68327Y254396D01*
X68402Y254471D01*
X68427Y254496D01*
X68827Y254846D01*
X69252Y255171D01*
X69677Y255446D01*
X70127Y255671D01*
X70577Y255871D01*
X71002Y256046D01*
X71427Y256171D01*
X71827Y256296D01*
X72201Y256371D01*
X72551Y256446D01*
X72876Y256495D01*
X73151Y256521D01*
X73376D01*
X73526Y256546D01*
X73651D01*
X73676D01*
X74251Y256521D01*
D02*
G37*
G36*
X57035Y251722D02*
X57760Y251597D01*
X58110Y251522D01*
X58410Y251422D01*
X58685Y251322D01*
X58960Y251222D01*
X59185Y251097D01*
X59385Y250997D01*
X59560Y250897D01*
X59710Y250822D01*
X59810Y250747D01*
X59885Y250697D01*
X59935Y250672D01*
X59960Y250647D01*
X60459Y250197D01*
X60859Y249747D01*
X61184Y249272D01*
X61434Y248848D01*
X61634Y248473D01*
X61684Y248298D01*
X61734Y248173D01*
X61784Y248048D01*
X61809Y247973D01*
X61834Y247923D01*
Y247898D01*
X61884Y247673D01*
X61934Y247398D01*
X61984Y247073D01*
X62009Y246723D01*
X62059Y245973D01*
X62109Y245173D01*
Y244449D01*
X62134Y244124D01*
Y237076D01*
X42914D01*
Y240949D01*
X50162D01*
Y243949D01*
X50187Y244399D01*
Y244823D01*
X50212Y245198D01*
X50237Y245573D01*
X50262Y245898D01*
X50287Y246198D01*
X50312Y246448D01*
X50337Y246698D01*
X50362Y246898D01*
Y247073D01*
X50387Y247223D01*
X50412Y247323D01*
X50437Y247398D01*
Y247473D01*
X50537Y247848D01*
X50662Y248223D01*
X50812Y248547D01*
X50962Y248848D01*
X51112Y249122D01*
X51237Y249297D01*
X51312Y249422D01*
X51337Y249472D01*
X51612Y249822D01*
X51937Y250147D01*
X52236Y250422D01*
X52561Y250672D01*
X52811Y250872D01*
X53036Y250997D01*
X53186Y251097D01*
X53211Y251122D01*
X53236D01*
X53711Y251347D01*
X54211Y251497D01*
X54711Y251622D01*
X55186Y251697D01*
X55586Y251747D01*
X55761D01*
X55911Y251772D01*
X56035D01*
X56136D01*
X56185D01*
X56210D01*
X56635D01*
X57035Y251722D01*
D02*
G37*
G36*
X72001Y236800D02*
X71502Y236676D01*
X71052Y236526D01*
X70702Y236376D01*
X70402Y236226D01*
X70202Y236076D01*
X70052Y235951D01*
X69952Y235876D01*
X69927Y235851D01*
X69727Y235576D01*
X69602Y235301D01*
X69502Y235001D01*
X69427Y234726D01*
X69377Y234501D01*
X69352Y234301D01*
Y234126D01*
X69402Y233626D01*
X69502Y233202D01*
X69677Y232802D01*
X69877Y232502D01*
X70052Y232227D01*
X70227Y232052D01*
X70327Y231952D01*
X70377Y231902D01*
X70577Y231752D01*
X70827Y231627D01*
X71352Y231427D01*
X71926Y231277D01*
X72501Y231177D01*
X73051Y231127D01*
X73276Y231102D01*
X73476D01*
X73651Y231077D01*
X73776D01*
X73851D01*
X73876D01*
X74276D01*
X74651Y231102D01*
X75001Y231152D01*
X75301Y231202D01*
X75601Y231252D01*
X75850Y231327D01*
X76100Y231402D01*
X76300Y231477D01*
X76475Y231552D01*
X76625Y231627D01*
X76775Y231702D01*
X76875Y231752D01*
X77000Y231852D01*
X77050Y231877D01*
X77375Y232202D01*
X77625Y232577D01*
X77800Y232952D01*
X77900Y233301D01*
X77975Y233626D01*
X78000Y233876D01*
X78025Y233976D01*
Y234101D01*
X78000Y234476D01*
X77950Y234801D01*
X77850Y235076D01*
X77750Y235326D01*
X77650Y235526D01*
X77550Y235651D01*
X77500Y235751D01*
X77475Y235776D01*
X77250Y236001D01*
X77000Y236176D01*
X76725Y236326D01*
X76450Y236451D01*
X76225Y236526D01*
X76025Y236576D01*
X75900Y236626D01*
X75875D01*
X75850D01*
X76500Y240250D01*
X76900Y240125D01*
X77275Y239975D01*
X77625Y239800D01*
X77950Y239625D01*
X78250Y239450D01*
X78525Y239275D01*
X78775Y239075D01*
X79000Y238900D01*
X79200Y238750D01*
X79349Y238575D01*
X79500Y238450D01*
X79625Y238325D01*
X79700Y238225D01*
X79774Y238150D01*
X79824Y238100D01*
Y238075D01*
X80024Y237775D01*
X80199Y237475D01*
X80449Y236826D01*
X80649Y236151D01*
X80799Y235501D01*
X80824Y235201D01*
X80874Y234926D01*
X80899Y234676D01*
Y234476D01*
X80924Y234301D01*
Y234051D01*
X80899Y233476D01*
X80849Y232952D01*
X80749Y232427D01*
X80624Y231952D01*
X80474Y231527D01*
X80324Y231102D01*
X80149Y230752D01*
X79974Y230402D01*
X79774Y230102D01*
X79599Y229852D01*
X79450Y229627D01*
X79300Y229427D01*
X79175Y229303D01*
X79075Y229177D01*
X79025Y229128D01*
X79000Y229102D01*
X78625Y228778D01*
X78225Y228503D01*
X77800Y228278D01*
X77350Y228053D01*
X76900Y227878D01*
X76450Y227753D01*
X76000Y227628D01*
X75575Y227528D01*
X75176Y227453D01*
X74801Y227403D01*
X74476Y227353D01*
X74176Y227328D01*
X73926D01*
X73751Y227303D01*
X73651D01*
X73601D01*
X72976Y227328D01*
X72401Y227378D01*
X71852Y227478D01*
X71327Y227578D01*
X70852Y227728D01*
X70427Y227878D01*
X70027Y228028D01*
X69677Y228203D01*
X69352Y228378D01*
X69077Y228528D01*
X68827Y228678D01*
X68627Y228828D01*
X68477Y228928D01*
X68377Y229028D01*
X68302Y229077D01*
X68277Y229102D01*
X67927Y229452D01*
X67653Y229827D01*
X67378Y230227D01*
X67178Y230627D01*
X66978Y231052D01*
X66828Y231452D01*
X66703Y231852D01*
X66603Y232227D01*
X66503Y232577D01*
X66453Y232927D01*
X66403Y233227D01*
X66378Y233476D01*
Y233676D01*
X66353Y233851D01*
Y233976D01*
X66378Y234476D01*
X66403Y234926D01*
X66478Y235376D01*
X66553Y235776D01*
X66653Y236151D01*
X66753Y236501D01*
X66853Y236826D01*
X66978Y237125D01*
X67103Y237375D01*
X67203Y237600D01*
X67303Y237800D01*
X67403Y237950D01*
X67478Y238075D01*
X67553Y238175D01*
X67578Y238225D01*
X67603Y238250D01*
X67853Y238550D01*
X68127Y238800D01*
X68727Y239275D01*
X69352Y239650D01*
X69977Y239950D01*
X70252Y240050D01*
X70527Y240150D01*
X70752Y240250D01*
X70977Y240300D01*
X71127Y240350D01*
X71277Y240400D01*
X71352Y240425D01*
X71377D01*
X72001Y236800D01*
D02*
G37*
G36*
X29872Y231052D02*
X30772Y231002D01*
X31622Y230902D01*
X32397Y230777D01*
X33121Y230652D01*
X33771Y230477D01*
X34346Y230327D01*
X34846Y230152D01*
X35296Y229977D01*
X35671Y229802D01*
X35996Y229627D01*
X36271Y229502D01*
X36470Y229377D01*
X36621Y229277D01*
X36695Y229228D01*
X36720Y229202D01*
X37070Y228903D01*
X37370Y228553D01*
X37645Y228203D01*
X37870Y227853D01*
X38070Y227503D01*
X38245Y227128D01*
X38370Y226778D01*
X38470Y226428D01*
X38545Y226103D01*
X38620Y225803D01*
X38670Y225528D01*
X38695Y225303D01*
X38720Y225103D01*
Y224829D01*
X38695Y224329D01*
X38645Y223829D01*
X38545Y223379D01*
X38420Y222979D01*
X38270Y222579D01*
X38095Y222229D01*
X37920Y221904D01*
X37745Y221604D01*
X37545Y221355D01*
X37370Y221130D01*
X37195Y220930D01*
X37045Y220755D01*
X36920Y220630D01*
X36820Y220555D01*
X36771Y220505D01*
X36746Y220480D01*
X36271Y220155D01*
X35721Y219855D01*
X35121Y219605D01*
X34496Y219405D01*
X33871Y219205D01*
X33196Y219055D01*
X32547Y218930D01*
X31922Y218830D01*
X31322Y218755D01*
X30747Y218705D01*
X30247Y218655D01*
X29797Y218630D01*
X29422D01*
X29272Y218605D01*
X29147D01*
X29022D01*
X28972D01*
X28923D01*
X28898D01*
X27898Y218630D01*
X26973Y218680D01*
X26123Y218755D01*
X25348Y218880D01*
X24649Y219005D01*
X24024Y219155D01*
X23474Y219305D01*
X22974Y219455D01*
X22549Y219605D01*
X22174Y219780D01*
X21874Y219905D01*
X21624Y220030D01*
X21424Y220155D01*
X21299Y220230D01*
X21224Y220280D01*
X21199Y220305D01*
X20824Y220630D01*
X20500Y221005D01*
X20200Y221355D01*
X19950Y221729D01*
X19750Y222129D01*
X19575Y222504D01*
X19425Y222854D01*
X19325Y223204D01*
X19225Y223554D01*
X19175Y223854D01*
X19125Y224129D01*
X19075Y224354D01*
Y224554D01*
X19050Y224704D01*
Y224829D01*
X19075Y225329D01*
X19125Y225828D01*
X19225Y226278D01*
X19350Y226678D01*
X19500Y227078D01*
X19675Y227428D01*
X19850Y227753D01*
X20025Y228053D01*
X20200Y228303D01*
X20375Y228553D01*
X20550Y228728D01*
X20700Y228903D01*
X20824Y229028D01*
X20924Y229102D01*
X20975Y229153D01*
X21000Y229177D01*
X21474Y229502D01*
X22024Y229802D01*
X22624Y230052D01*
X23249Y230277D01*
X23899Y230452D01*
X24549Y230602D01*
X25198Y230752D01*
X25848Y230852D01*
X26448Y230927D01*
X27023Y230977D01*
X27523Y231027D01*
X27973Y231052D01*
X28348Y231077D01*
X28498D01*
X28623D01*
X28747D01*
X28823D01*
X28847D01*
X28872D01*
X29872Y231052D01*
D02*
G37*
G36*
X49062Y233726D02*
X49612Y233626D01*
X50112Y233476D01*
X50537Y233301D01*
X50887Y233127D01*
X51137Y232976D01*
X51237Y232927D01*
X51312Y232876D01*
X51337Y232827D01*
X51362D01*
X51787Y232427D01*
X52161Y232002D01*
X52461Y231552D01*
X52686Y231127D01*
X52886Y230727D01*
X52961Y230552D01*
X53011Y230427D01*
X53061Y230302D01*
X53086Y230202D01*
X53111Y230152D01*
Y230127D01*
X53361Y230577D01*
X53611Y230952D01*
X53911Y231302D01*
X54186Y231577D01*
X54436Y231802D01*
X54636Y231977D01*
X54761Y232077D01*
X54811Y232102D01*
X55236Y232352D01*
X55661Y232527D01*
X56086Y232652D01*
X56460Y232727D01*
X56810Y232802D01*
X57060Y232827D01*
X57160D01*
X57235D01*
X57260D01*
X57285D01*
X57735Y232802D01*
X58160Y232727D01*
X58535Y232627D01*
X58885Y232527D01*
X59160Y232427D01*
X59360Y232327D01*
X59485Y232252D01*
X59535Y232227D01*
X59885Y232002D01*
X60209Y231752D01*
X60484Y231502D01*
X60709Y231277D01*
X60884Y231052D01*
X61034Y230902D01*
X61109Y230802D01*
X61134Y230752D01*
X61334Y230427D01*
X61509Y230077D01*
X61659Y229727D01*
X61759Y229427D01*
X61834Y229153D01*
X61884Y228953D01*
X61934Y228803D01*
Y228753D01*
X61959Y228528D01*
X62009Y228278D01*
X62059Y227753D01*
X62084Y227178D01*
X62109Y226628D01*
X62134Y226128D01*
Y217680D01*
X42914D01*
Y224879D01*
X42939Y225478D01*
Y226503D01*
X42964Y226928D01*
Y227653D01*
X42989Y227928D01*
Y228178D01*
X43014Y228378D01*
Y228678D01*
X43039Y228778D01*
Y228878D01*
X43139Y229427D01*
X43264Y229927D01*
X43389Y230377D01*
X43564Y230752D01*
X43689Y231052D01*
X43814Y231302D01*
X43914Y231427D01*
X43939Y231477D01*
X44239Y231852D01*
X44563Y232202D01*
X44888Y232477D01*
X45213Y232727D01*
X45488Y232901D01*
X45713Y233051D01*
X45863Y233127D01*
X45888Y233151D01*
X45913D01*
X46388Y233351D01*
X46838Y233501D01*
X47263Y233626D01*
X47663Y233701D01*
X47988Y233751D01*
X48238Y233776D01*
X48337D01*
X48412D01*
X48438D01*
X48463D01*
X49062Y233726D01*
D02*
G37*
G36*
X80449Y226078D02*
X80624Y225653D01*
X80749Y225229D01*
X80849Y224854D01*
X80899Y224554D01*
X80924Y224304D01*
Y224079D01*
X80899Y223754D01*
X80849Y223454D01*
X80774Y223204D01*
X80699Y222954D01*
X80599Y222779D01*
X80524Y222629D01*
X80474Y222529D01*
X80449Y222504D01*
X80249Y222229D01*
X79974Y221954D01*
X79675Y221704D01*
X79349Y221455D01*
X79075Y221255D01*
X78825Y221080D01*
X78725Y221005D01*
X78650Y220980D01*
X78625Y220930D01*
X80599D01*
Y217505D01*
X66678D01*
Y221180D01*
X70977D01*
X71627D01*
X72201Y221204D01*
X72726D01*
X73201Y221229D01*
X73626Y221255D01*
X74001Y221280D01*
X74351Y221304D01*
X74626Y221329D01*
X74876Y221355D01*
X75101Y221380D01*
X75251Y221404D01*
X75401Y221430D01*
X75500Y221455D01*
X75575Y221479D01*
X75626D01*
X76025Y221604D01*
X76350Y221729D01*
X76600Y221879D01*
X76825Y222004D01*
X76975Y222129D01*
X77100Y222229D01*
X77150Y222279D01*
X77175Y222304D01*
X77325Y222529D01*
X77425Y222754D01*
X77525Y222979D01*
X77575Y223179D01*
X77600Y223379D01*
X77625Y223529D01*
Y223654D01*
X77600Y223954D01*
X77525Y224254D01*
X77425Y224554D01*
X77325Y224829D01*
X77200Y225054D01*
X77100Y225229D01*
X77025Y225329D01*
X77000Y225378D01*
X80224Y226528D01*
X80449Y226078D01*
D02*
G37*
G36*
X23074Y211957D02*
X19400D01*
Y215631D01*
X23074D01*
Y211957D01*
D02*
G37*
G36*
X67028Y214656D02*
X67378Y214506D01*
X67702Y214406D01*
X67977Y214306D01*
X68202Y214231D01*
X68377Y214181D01*
X68477Y214156D01*
X68527D01*
X68902Y214106D01*
X69327Y214056D01*
X69777Y214031D01*
X70227Y214006D01*
X70627Y213981D01*
X70802D01*
X70952D01*
X71077D01*
X71177D01*
X71227D01*
X71252D01*
X75550Y214031D01*
X75975D01*
X76375Y214006D01*
X76750Y213981D01*
X77075Y213956D01*
X77375Y213906D01*
X77650Y213881D01*
X77900Y213831D01*
X78100Y213781D01*
X78275Y213731D01*
X78450Y213682D01*
X78575Y213657D01*
X78675Y213606D01*
X78800Y213556D01*
X78850Y213531D01*
X79175Y213307D01*
X79450Y213057D01*
X79724Y212782D01*
X79924Y212507D01*
X80099Y212232D01*
X80224Y212032D01*
X80299Y211882D01*
X80324Y211857D01*
Y211832D01*
X80424Y211582D01*
X80524Y211332D01*
X80674Y210757D01*
X80774Y210132D01*
X80849Y209557D01*
X80874Y209258D01*
X80899Y209008D01*
Y208758D01*
X80924Y208558D01*
Y207658D01*
X80874Y207208D01*
X80824Y206758D01*
X80774Y206358D01*
X80699Y206008D01*
X80599Y205658D01*
X80524Y205359D01*
X80424Y205084D01*
X80324Y204859D01*
X80249Y204634D01*
X80149Y204459D01*
X80074Y204309D01*
X80024Y204209D01*
X79974Y204134D01*
X79924Y204084D01*
Y204059D01*
X79524Y203584D01*
X79050Y203184D01*
X78550Y202834D01*
X78050Y202584D01*
X77625Y202384D01*
X77425Y202309D01*
X77250Y202234D01*
X77125Y202184D01*
X77025Y202159D01*
X76950Y202134D01*
X76925D01*
X76325Y205459D01*
X76675Y205583D01*
X76950Y205734D01*
X77200Y205884D01*
X77375Y206008D01*
X77525Y206133D01*
X77625Y206233D01*
X77675Y206308D01*
X77700Y206333D01*
X77825Y206558D01*
X77925Y206808D01*
X78000Y207058D01*
X78050Y207308D01*
X78075Y207533D01*
X78100Y207708D01*
Y207883D01*
X78075Y208383D01*
X78025Y208808D01*
X77950Y209158D01*
X77875Y209408D01*
X77775Y209608D01*
X77700Y209757D01*
X77650Y209832D01*
X77625Y209857D01*
X77425Y210032D01*
X77200Y210182D01*
X76950Y210282D01*
X76675Y210332D01*
X76450Y210382D01*
X76250Y210407D01*
X76125D01*
X76100D01*
X76075D01*
X75725D01*
X75651Y210207D01*
X75575Y209957D01*
X75476Y209708D01*
X75401Y209433D01*
X75251Y208833D01*
X75101Y208233D01*
X74976Y207683D01*
X74926Y207433D01*
X74876Y207233D01*
X74851Y207058D01*
X74826Y206933D01*
X74801Y206833D01*
Y206808D01*
X74676Y206133D01*
X74526Y205558D01*
X74376Y205059D01*
X74251Y204634D01*
X74126Y204309D01*
X74026Y204084D01*
X73976Y203934D01*
X73951Y203884D01*
X73751Y203534D01*
X73526Y203209D01*
X73301Y202959D01*
X73076Y202734D01*
X72876Y202534D01*
X72701Y202409D01*
X72601Y202334D01*
X72551Y202309D01*
X72201Y202134D01*
X71827Y201985D01*
X71477Y201884D01*
X71152Y201835D01*
X70877Y201784D01*
X70652Y201759D01*
X70502D01*
X70477D01*
X70452D01*
X70127Y201784D01*
X69827Y201810D01*
X69252Y201959D01*
X68727Y202159D01*
X68302Y202384D01*
X67977Y202609D01*
X67702Y202784D01*
X67628Y202884D01*
X67553Y202934D01*
X67528Y202959D01*
X67503Y202984D01*
X67303Y203234D01*
X67128Y203484D01*
X66828Y204034D01*
X66628Y204609D01*
X66503Y205159D01*
X66403Y205634D01*
X66378Y205858D01*
Y206033D01*
X66353Y206183D01*
Y206383D01*
X66378Y206833D01*
X66428Y207258D01*
X66503Y207633D01*
X66578Y207983D01*
X66653Y208258D01*
X66728Y208483D01*
X66778Y208608D01*
X66803Y208658D01*
X67003Y209058D01*
X67203Y209433D01*
X67428Y209783D01*
X67653Y210082D01*
X67853Y210332D01*
X68027Y210507D01*
X68127Y210632D01*
X68177Y210682D01*
X68077Y210732D01*
X67927Y210757D01*
X67803Y210807D01*
X67778D01*
X67752D01*
X67503Y210882D01*
X67278Y210957D01*
X67103Y211032D01*
X66953Y211082D01*
X66828Y211132D01*
X66753Y211157D01*
X66703Y211182D01*
X66678D01*
Y214831D01*
X67028Y214656D01*
D02*
G37*
G36*
X49162Y214356D02*
X49762Y214256D01*
X50287Y214131D01*
X50712Y214006D01*
X51087Y213856D01*
X51212Y213781D01*
X51337Y213731D01*
X51437Y213682D01*
X51512Y213631D01*
X51537Y213606D01*
X51562D01*
X52012Y213282D01*
X52386Y212957D01*
X52736Y212607D01*
X53011Y212257D01*
X53236Y211957D01*
X53411Y211707D01*
X53461Y211607D01*
X53511Y211532D01*
X53536Y211507D01*
Y211482D01*
X53661Y211207D01*
X53811Y210907D01*
X54061Y210257D01*
X54286Y209557D01*
X54511Y208883D01*
X54611Y208583D01*
X54686Y208283D01*
X54761Y208008D01*
X54811Y207783D01*
X54861Y207583D01*
X54911Y207433D01*
X54936Y207333D01*
Y207308D01*
X55061Y206808D01*
X55186Y206333D01*
X55311Y205933D01*
X55411Y205558D01*
X55536Y205234D01*
X55636Y204934D01*
X55736Y204684D01*
X55836Y204484D01*
X55911Y204284D01*
X55985Y204134D01*
X56061Y204009D01*
X56111Y203909D01*
X56160Y203834D01*
X56185Y203784D01*
X56210Y203759D01*
X56410Y203559D01*
X56610Y203434D01*
X56810Y203334D01*
X56985Y203259D01*
X57135Y203209D01*
X57285Y203184D01*
X57360D01*
X57385D01*
X57660Y203209D01*
X57885Y203284D01*
X58085Y203384D01*
X58260Y203484D01*
X58410Y203584D01*
X58510Y203684D01*
X58560Y203759D01*
X58585Y203784D01*
X58810Y204159D01*
X58985Y204609D01*
X59110Y205034D01*
X59210Y205459D01*
X59260Y205858D01*
Y206008D01*
X59285Y206158D01*
Y206433D01*
X59260Y207008D01*
X59185Y207508D01*
X59085Y207933D01*
X58960Y208258D01*
X58835Y208533D01*
X58735Y208733D01*
X58660Y208833D01*
X58635Y208883D01*
X58360Y209158D01*
X58035Y209408D01*
X57685Y209583D01*
X57335Y209732D01*
X57010Y209832D01*
X56760Y209907D01*
X56660Y209932D01*
X56585Y209957D01*
X56535D01*
X56510D01*
X56660Y213831D01*
X57135Y213806D01*
X57610Y213731D01*
X58035Y213606D01*
X58435Y213482D01*
X58810Y213332D01*
X59160Y213182D01*
X59485Y213007D01*
X59760Y212832D01*
X60034Y212657D01*
X60259Y212482D01*
X60434Y212332D01*
X60609Y212207D01*
X60734Y212082D01*
X60809Y211982D01*
X60859Y211932D01*
X60884Y211907D01*
X61159Y211557D01*
X61409Y211157D01*
X61634Y210732D01*
X61809Y210282D01*
X61959Y209832D01*
X62084Y209383D01*
X62284Y208508D01*
X62359Y208083D01*
X62409Y207708D01*
X62434Y207358D01*
X62459Y207058D01*
X62484Y206808D01*
Y206458D01*
X62459Y205658D01*
X62384Y204934D01*
X62259Y204309D01*
X62209Y204009D01*
X62159Y203759D01*
X62084Y203509D01*
X62034Y203309D01*
X61959Y203109D01*
X61909Y202959D01*
X61884Y202834D01*
X61834Y202759D01*
X61809Y202709D01*
Y202684D01*
X61534Y202134D01*
X61209Y201660D01*
X60884Y201260D01*
X60559Y200910D01*
X60284Y200660D01*
X60059Y200460D01*
X59885Y200360D01*
X59859Y200310D01*
X59835D01*
X59360Y200035D01*
X58860Y199835D01*
X58410Y199685D01*
X57985Y199585D01*
X57635Y199535D01*
X57360Y199510D01*
X57260Y199485D01*
X57185D01*
X57135D01*
X57110D01*
X56685Y199510D01*
X56286Y199560D01*
X55886Y199635D01*
X55536Y199760D01*
X54861Y200035D01*
X54561Y200210D01*
X54311Y200360D01*
X54061Y200535D01*
X53836Y200685D01*
X53661Y200835D01*
X53486Y200960D01*
X53386Y201085D01*
X53286Y201160D01*
X53236Y201210D01*
X53211Y201235D01*
X53011Y201485D01*
X52811Y201784D01*
X52611Y202109D01*
X52436Y202434D01*
X52112Y203159D01*
X51837Y203884D01*
X51712Y204234D01*
X51612Y204559D01*
X51537Y204859D01*
X51462Y205109D01*
X51387Y205309D01*
X51337Y205484D01*
X51312Y205583D01*
Y205609D01*
X51212Y206033D01*
X51112Y206433D01*
X51012Y206783D01*
X50937Y207108D01*
X50862Y207408D01*
X50787Y207658D01*
X50712Y207883D01*
X50662Y208058D01*
X50612Y208233D01*
X50562Y208358D01*
X50537Y208483D01*
X50512Y208558D01*
X50487Y208683D01*
X50462Y208708D01*
X50337Y209058D01*
X50187Y209358D01*
X50037Y209583D01*
X49912Y209783D01*
X49812Y209932D01*
X49712Y210032D01*
X49662Y210082D01*
X49637Y210107D01*
X49462Y210232D01*
X49262Y210332D01*
X49062Y210407D01*
X48862Y210457D01*
X48712Y210482D01*
X48587Y210507D01*
X48488D01*
X48463D01*
X48088Y210457D01*
X47738Y210357D01*
X47413Y210207D01*
X47138Y210032D01*
X46913Y209832D01*
X46763Y209683D01*
X46638Y209583D01*
X46613Y209533D01*
X46363Y209133D01*
X46163Y208683D01*
X46038Y208233D01*
X45938Y207758D01*
X45888Y207358D01*
X45863Y207183D01*
Y207008D01*
X45838Y206883D01*
Y206708D01*
X45888Y206083D01*
X45988Y205534D01*
X46113Y205059D01*
X46288Y204659D01*
X46438Y204334D01*
X46588Y204109D01*
X46688Y203959D01*
X46713Y203909D01*
X47088Y203559D01*
X47538Y203259D01*
X47988Y203009D01*
X48463Y202834D01*
X48862Y202684D01*
X49037Y202634D01*
X49212Y202609D01*
X49337Y202584D01*
X49437Y202559D01*
X49487Y202534D01*
X49512D01*
X49137Y198760D01*
X48562Y198860D01*
X48013Y198960D01*
X47488Y199110D01*
X47013Y199285D01*
X46563Y199460D01*
X46163Y199660D01*
X45813Y199860D01*
X45488Y200060D01*
X45188Y200260D01*
X44938Y200460D01*
X44738Y200610D01*
X44563Y200785D01*
X44413Y200910D01*
X44314Y201010D01*
X44264Y201060D01*
X44239Y201085D01*
X43939Y201460D01*
X43689Y201884D01*
X43464Y202334D01*
X43264Y202784D01*
X43114Y203259D01*
X42964Y203709D01*
X42764Y204609D01*
X42714Y205034D01*
X42664Y205434D01*
X42614Y205784D01*
X42589Y206083D01*
X42564Y206333D01*
Y206683D01*
X42589Y207583D01*
X42664Y208383D01*
X42739Y208758D01*
X42789Y209108D01*
X42839Y209408D01*
X42914Y209708D01*
X42989Y209957D01*
X43039Y210207D01*
X43114Y210382D01*
X43164Y210557D01*
X43189Y210682D01*
X43239Y210782D01*
X43264Y210832D01*
Y210857D01*
X43564Y211457D01*
X43889Y211982D01*
X44239Y212407D01*
X44588Y212782D01*
X44913Y213082D01*
X45163Y213282D01*
X45263Y213356D01*
X45338Y213407D01*
X45363Y213456D01*
X45388D01*
X45938Y213756D01*
X46488Y213981D01*
X47013Y214156D01*
X47488Y214256D01*
X47913Y214331D01*
X48088Y214356D01*
X48238D01*
X48337Y214381D01*
X48438D01*
X48488D01*
X48513D01*
X49162Y214356D01*
D02*
G37*
G36*
X38720Y202659D02*
X38395Y202534D01*
X38070Y202384D01*
X37495Y202034D01*
X36970Y201660D01*
X36495Y201260D01*
X36146Y200910D01*
X35971Y200760D01*
X35846Y200610D01*
X35746Y200485D01*
X35671Y200410D01*
X35646Y200360D01*
X35621Y200335D01*
X35171Y199710D01*
X34796Y199135D01*
X34471Y198610D01*
X34246Y198160D01*
X34071Y197785D01*
X33996Y197611D01*
X33946Y197486D01*
X33896Y197386D01*
X33871Y197311D01*
X33846Y197261D01*
Y197236D01*
X30497D01*
X30872Y198210D01*
X31322Y199135D01*
X31547Y199535D01*
X31772Y199935D01*
X31997Y200310D01*
X32222Y200635D01*
X32447Y200935D01*
X32622Y201210D01*
X32822Y201435D01*
X32971Y201635D01*
X33096Y201784D01*
X33196Y201884D01*
X33246Y201959D01*
X33271Y201985D01*
X19400D01*
Y205658D01*
X38720D01*
Y202659D01*
D02*
G37*
G36*
X33321Y190987D02*
X26198Y188363D01*
X25773Y188213D01*
X25573Y188138D01*
X25398Y188088D01*
X25248Y188038D01*
X25123Y187988D01*
X25048Y187963D01*
X25024D01*
X24899Y187938D01*
X24699Y187863D01*
X24324Y187738D01*
X24124Y187688D01*
X23974Y187638D01*
X23874Y187613D01*
X23824Y187588D01*
X26198Y186838D01*
X33321Y184214D01*
Y180340D01*
X19400Y185939D01*
Y189263D01*
X33321Y194786D01*
Y190987D01*
D02*
G37*
G36*
X62134Y191812D02*
X51487D01*
X51062D01*
X50687D01*
X50337Y191787D01*
X50012D01*
X49712Y191762D01*
X49437D01*
X49212Y191737D01*
X48987D01*
X48812Y191712D01*
X48637Y191687D01*
X48513D01*
X48412Y191662D01*
X48263Y191637D01*
X48212D01*
X47863Y191537D01*
X47538Y191412D01*
X47263Y191237D01*
X47013Y191062D01*
X46838Y190887D01*
X46688Y190737D01*
X46588Y190662D01*
X46563Y190612D01*
X46338Y190263D01*
X46163Y189863D01*
X46063Y189438D01*
X45963Y189038D01*
X45913Y188688D01*
X45888Y188388D01*
Y188113D01*
X45913Y187538D01*
X45988Y187038D01*
X46113Y186588D01*
X46238Y186213D01*
X46363Y185914D01*
X46488Y185714D01*
X46563Y185589D01*
X46588Y185539D01*
X46888Y185214D01*
X47188Y184964D01*
X47513Y184739D01*
X47813Y184589D01*
X48088Y184464D01*
X48288Y184389D01*
X48438Y184364D01*
X48463Y184339D01*
X48488D01*
X48637Y184314D01*
X48837Y184289D01*
X49062D01*
X49287Y184264D01*
X49837Y184239D01*
X50362D01*
X50887Y184214D01*
X51112D01*
X51312D01*
X51487D01*
X51612D01*
X51687D01*
X51712D01*
X62134D01*
Y180340D01*
X51862D01*
X51287D01*
X50737Y180365D01*
X50212D01*
X49737Y180390D01*
X49287Y180440D01*
X48887Y180465D01*
X48537Y180490D01*
X48212Y180540D01*
X47913Y180565D01*
X47663Y180590D01*
X47463Y180640D01*
X47288Y180665D01*
X47138Y180690D01*
X47038D01*
X46988Y180715D01*
X46963D01*
X46563Y180840D01*
X46163Y180990D01*
X45813Y181165D01*
X45488Y181340D01*
X45213Y181515D01*
X45013Y181665D01*
X44888Y181765D01*
X44838Y181790D01*
X44464Y182115D01*
X44139Y182489D01*
X43864Y182864D01*
X43639Y183214D01*
X43439Y183539D01*
X43314Y183814D01*
X43264Y183914D01*
X43214Y183989D01*
X43189Y184014D01*
Y184039D01*
X43089Y184314D01*
X42989Y184639D01*
X42839Y185289D01*
X42714Y185989D01*
X42639Y186663D01*
X42614Y186988D01*
X42589Y187288D01*
Y187563D01*
X42564Y187788D01*
Y188238D01*
X42589Y189063D01*
X42664Y189788D01*
X42739Y190412D01*
X42789Y190687D01*
X42864Y190937D01*
X42914Y191162D01*
X42964Y191362D01*
X43014Y191537D01*
X43039Y191687D01*
X43089Y191787D01*
X43114Y191862D01*
X43139Y191912D01*
Y191937D01*
X43364Y192437D01*
X43614Y192887D01*
X43889Y193287D01*
X44139Y193587D01*
X44338Y193862D01*
X44538Y194037D01*
X44638Y194161D01*
X44688Y194186D01*
X45088Y194486D01*
X45488Y194736D01*
X45888Y194936D01*
X46288Y195086D01*
X46613Y195211D01*
X46888Y195286D01*
X46988Y195336D01*
X47063D01*
X47088Y195361D01*
X47113D01*
X47413Y195411D01*
X47738Y195461D01*
X48113Y195511D01*
X48488Y195561D01*
X49312Y195611D01*
X50112Y195636D01*
X50487Y195661D01*
X50837D01*
X51162Y195686D01*
X51462D01*
X51687D01*
X51862D01*
X51962D01*
X52012D01*
X62134D01*
Y191812D01*
D02*
G37*
G36*
X85898Y193062D02*
X72776Y189613D01*
X85898Y186138D01*
Y180340D01*
X66678D01*
Y183939D01*
X81799D01*
X66678Y187713D01*
Y191462D01*
X81799Y195261D01*
X66678Y195286D01*
Y198885D01*
X85898D01*
Y193062D01*
D02*
G37*
G36*
X158939Y339180D02*
D01*
Y314937D01*
Y289443D01*
D01*
Y264575D01*
D01*
Y240331D01*
Y214837D01*
D01*
Y189969D01*
D01*
Y165100D01*
X154940D01*
Y190593D01*
D01*
Y215462D01*
D01*
Y239706D01*
Y240331D01*
Y265199D01*
D01*
Y290068D01*
D01*
Y314937D01*
Y339805D01*
D01*
Y364674D01*
X158939D01*
Y339180D01*
D02*
G37*
G36*
Y412219D02*
D01*
Y387350D01*
X154940D01*
Y412844D01*
D01*
Y437712D01*
X158939D01*
Y412219D01*
D02*
G37*
G36*
X139723Y441591D02*
X140202Y441549D01*
X140661Y441487D01*
X141098Y441383D01*
X141473Y441279D01*
X141848Y441175D01*
X142181Y441029D01*
X142473Y440904D01*
X142743Y440779D01*
X142972Y440654D01*
X143160Y440529D01*
X143327Y440425D01*
X143452Y440321D01*
X143556Y440258D01*
X143597Y440216D01*
X143618Y440196D01*
X143910Y439925D01*
X144139Y439633D01*
X144368Y439363D01*
X144556Y439071D01*
X144701Y438779D01*
X144826Y438488D01*
X144930Y438217D01*
X145014Y437946D01*
X145097Y437696D01*
X145139Y437467D01*
X145180Y437280D01*
X145201Y437092D01*
X145222Y436946D01*
Y436759D01*
X145201Y436343D01*
X145139Y435947D01*
X145035Y435593D01*
X144951Y435280D01*
X144847Y435009D01*
X144743Y434822D01*
X144680Y434697D01*
X144660Y434676D01*
Y434655D01*
X144451Y434322D01*
X144201Y434010D01*
X143972Y433760D01*
X143743Y433552D01*
X143556Y433385D01*
X143389Y433260D01*
X143285Y433177D01*
X143243Y433156D01*
X144951D01*
Y430302D01*
X128914D01*
Y433364D01*
X134766D01*
X134433Y433677D01*
X134162Y433989D01*
X133933Y434260D01*
X133767Y434489D01*
X133621Y434697D01*
X133538Y434864D01*
X133475Y434947D01*
X133454Y434989D01*
X133329Y435301D01*
X133246Y435593D01*
X133162Y435884D01*
X133121Y436155D01*
X133100Y436384D01*
X133079Y436572D01*
Y436738D01*
X133100Y437113D01*
X133142Y437467D01*
X133225Y437800D01*
X133329Y438134D01*
X133454Y438425D01*
X133579Y438717D01*
X133725Y438967D01*
X133891Y439217D01*
X134037Y439425D01*
X134183Y439613D01*
X134308Y439779D01*
X134433Y439925D01*
X134537Y440029D01*
X134621Y440112D01*
X134662Y440154D01*
X134683Y440175D01*
X134995Y440425D01*
X135329Y440654D01*
X135704Y440841D01*
X136058Y441008D01*
X136433Y441154D01*
X136828Y441258D01*
X137182Y441362D01*
X137536Y441425D01*
X137891Y441487D01*
X138203Y441529D01*
X138474Y441570D01*
X138724Y441591D01*
X138932Y441612D01*
X139078D01*
X139161D01*
X139203D01*
X139723Y441591D01*
D02*
G37*
G36*
X141348Y427282D02*
X141598D01*
X141848Y427262D01*
X142264Y427199D01*
X142598Y427137D01*
X142848Y427074D01*
X143014Y427032D01*
X143118Y426991D01*
X143160Y426970D01*
X143514Y426782D01*
X143827Y426574D01*
X144097Y426366D01*
X144305Y426137D01*
X144493Y425949D01*
X144597Y425783D01*
X144680Y425679D01*
X144701Y425658D01*
Y425637D01*
X144868Y425304D01*
X144993Y424929D01*
X145097Y424575D01*
X145160Y424241D01*
X145201Y423950D01*
X145222Y423700D01*
Y423492D01*
X145201Y423117D01*
X145139Y422784D01*
X145076Y422450D01*
X144993Y422179D01*
X144889Y421930D01*
X144826Y421763D01*
X144764Y421638D01*
X144743Y421617D01*
Y421596D01*
X144556Y421284D01*
X144326Y420971D01*
X144097Y420701D01*
X143889Y420451D01*
X143681Y420243D01*
X143514Y420076D01*
X143410Y419993D01*
X143389Y419951D01*
X143368D01*
X143701Y419743D01*
X143972Y419514D01*
X144201Y419305D01*
X144410Y419097D01*
X144556Y418909D01*
X144660Y418764D01*
X144722Y418660D01*
X144743Y418618D01*
X144909Y418306D01*
X145014Y417972D01*
X145097Y417639D01*
X145160Y417347D01*
X145201Y417077D01*
X145222Y416868D01*
Y416681D01*
X145201Y416306D01*
X145139Y415931D01*
X145055Y415577D01*
X144930Y415244D01*
X144785Y414931D01*
X144639Y414640D01*
X144451Y414369D01*
X144285Y414119D01*
X144118Y413890D01*
X143952Y413682D01*
X143785Y413515D01*
X143639Y413369D01*
X143514Y413244D01*
X143431Y413161D01*
X143368Y413119D01*
X143347Y413098D01*
X144951D01*
Y410266D01*
X133350D01*
Y413328D01*
X138974D01*
X139286D01*
X139557Y413348D01*
X139827D01*
X140057Y413369D01*
X140286Y413390D01*
X140473Y413411D01*
X140806Y413453D01*
X141056Y413494D01*
X141223Y413515D01*
X141327Y413557D01*
X141369D01*
X141619Y413661D01*
X141848Y413786D01*
X142035Y413932D01*
X142202Y414057D01*
X142306Y414182D01*
X142410Y414286D01*
X142452Y414348D01*
X142473Y414369D01*
X142598Y414598D01*
X142702Y414827D01*
X142764Y415036D01*
X142827Y415244D01*
X142848Y415410D01*
X142868Y415535D01*
Y415869D01*
X142827Y416056D01*
X142785Y416202D01*
X142743Y416348D01*
X142702Y416431D01*
X142660Y416514D01*
X142639Y416556D01*
X142619Y416577D01*
X142514Y416702D01*
X142389Y416806D01*
X142160Y416973D01*
X142035Y417035D01*
X141952Y417077D01*
X141889Y417098D01*
X141869D01*
X141764Y417118D01*
X141639Y417160D01*
X141327Y417202D01*
X140973Y417222D01*
X140598Y417243D01*
X140265Y417264D01*
X140119D01*
X139973D01*
X139869D01*
X139786D01*
X139723D01*
X139703D01*
X133350D01*
Y420326D01*
X138911D01*
X139203D01*
X139494Y420347D01*
X139973Y420368D01*
X140390Y420409D01*
X140723Y420451D01*
X140973Y420492D01*
X141160Y420534D01*
X141265Y420576D01*
X141306D01*
X141577Y420680D01*
X141806Y420805D01*
X142014Y420951D01*
X142181Y421076D01*
X142306Y421201D01*
X142389Y421305D01*
X142452Y421367D01*
X142473Y421388D01*
X142598Y421596D01*
X142702Y421805D01*
X142764Y422013D01*
X142827Y422200D01*
X142848Y422367D01*
X142868Y422492D01*
Y422596D01*
X142848Y422909D01*
X142764Y423179D01*
X142660Y423408D01*
X142535Y423596D01*
X142410Y423721D01*
X142306Y423825D01*
X142223Y423887D01*
X142202Y423908D01*
X142098Y423971D01*
X141973Y424012D01*
X141639Y424096D01*
X141285Y424158D01*
X140911Y424200D01*
X140556Y424221D01*
X140390Y424241D01*
X140244D01*
X140140D01*
X140057D01*
X139994D01*
X139973D01*
X133350D01*
Y427303D01*
X140765D01*
X141077D01*
X141348Y427282D01*
D02*
G37*
G36*
X149367Y402414D02*
Y398956D01*
X133350Y392729D01*
Y396144D01*
X136995Y397477D01*
Y403872D01*
X133350Y405288D01*
Y408808D01*
X149367Y402414D01*
D02*
G37*
G36*
X145326Y385376D02*
X145659Y385335D01*
X145972Y385272D01*
X146284Y385189D01*
X146826Y384960D01*
X147055Y384856D01*
X147284Y384731D01*
X147492Y384585D01*
X147659Y384481D01*
X147805Y384356D01*
X147930Y384252D01*
X148034Y384168D01*
X148096Y384106D01*
X148138Y384064D01*
X148159Y384043D01*
X148388Y383773D01*
X148575Y383502D01*
X148763Y383190D01*
X148909Y382898D01*
X149033Y382585D01*
X149138Y382273D01*
X149283Y381669D01*
X149346Y381398D01*
X149388Y381148D01*
X149408Y380898D01*
X149429Y380711D01*
X149450Y380544D01*
Y380315D01*
X149429Y379920D01*
X149408Y379545D01*
X149346Y379170D01*
X149283Y378836D01*
X149200Y378524D01*
X149096Y378232D01*
X148992Y377941D01*
X148909Y377712D01*
X148804Y377483D01*
X148700Y377274D01*
X148596Y377108D01*
X148513Y376962D01*
X148450Y376858D01*
X148388Y376774D01*
X148367Y376733D01*
X148346Y376712D01*
X148117Y376462D01*
X147867Y376233D01*
X147596Y376025D01*
X147305Y375837D01*
X147013Y375671D01*
X146701Y375546D01*
X146118Y375317D01*
X145826Y375233D01*
X145555Y375171D01*
X145326Y375108D01*
X145118Y375067D01*
X144951Y375046D01*
X144805Y375025D01*
X144722Y375004D01*
X144701D01*
X144410Y378066D01*
X144868Y378128D01*
X145264Y378212D01*
X145597Y378316D01*
X145868Y378420D01*
X146076Y378524D01*
X146222Y378628D01*
X146305Y378691D01*
X146326Y378712D01*
X146513Y378941D01*
X146659Y379190D01*
X146763Y379440D01*
X146847Y379690D01*
X146888Y379899D01*
X146909Y380065D01*
Y380232D01*
X146888Y380586D01*
X146826Y380878D01*
X146722Y381148D01*
X146638Y381357D01*
X146534Y381523D01*
X146430Y381648D01*
X146368Y381731D01*
X146347Y381752D01*
X146118Y381940D01*
X145868Y382086D01*
X145597Y382169D01*
X145347Y382252D01*
X145118Y382294D01*
X144930Y382315D01*
X144805D01*
X144785D01*
X144764D01*
X144410Y382294D01*
X144076Y382211D01*
X143764Y382106D01*
X143472Y382002D01*
X143243Y381877D01*
X143056Y381773D01*
X142931Y381690D01*
X142910Y381669D01*
X142889D01*
X142743Y381565D01*
X142577Y381419D01*
X142389Y381273D01*
X142181Y381086D01*
X141764Y380669D01*
X141327Y380232D01*
X140911Y379815D01*
X140744Y379628D01*
X140577Y379461D01*
X140452Y379315D01*
X140348Y379211D01*
X140286Y379149D01*
X140265Y379128D01*
X139827Y378670D01*
X139411Y378253D01*
X139015Y377858D01*
X138661Y377503D01*
X138307Y377191D01*
X137995Y376920D01*
X137703Y376670D01*
X137432Y376441D01*
X137203Y376254D01*
X136995Y376108D01*
X136828Y375983D01*
X136683Y375879D01*
X136558Y375796D01*
X136474Y375733D01*
X136433Y375712D01*
X136412Y375691D01*
X135870Y375400D01*
X135329Y375171D01*
X134808Y374983D01*
X134329Y374837D01*
X134121Y374796D01*
X133933Y374754D01*
X133767Y374712D01*
X133621Y374692D01*
X133517Y374671D01*
X133413Y374650D01*
X133371D01*
X133350D01*
Y385397D01*
X136203D01*
Y379295D01*
X136495Y379482D01*
X136766Y379690D01*
X136870Y379774D01*
X136953Y379857D01*
X137016Y379899D01*
X137037Y379920D01*
X137120Y380003D01*
X137245Y380107D01*
X137495Y380378D01*
X137786Y380669D01*
X138078Y380982D01*
X138370Y381273D01*
X138599Y381523D01*
X138682Y381627D01*
X138744Y381690D01*
X138786Y381731D01*
X138807Y381752D01*
X139057Y382023D01*
X139286Y382252D01*
X139703Y382690D01*
X140057Y383023D01*
X140348Y383314D01*
X140577Y383523D01*
X140744Y383669D01*
X140827Y383752D01*
X140869Y383773D01*
X141265Y384064D01*
X141639Y384314D01*
X141973Y384523D01*
X142285Y384710D01*
X142535Y384835D01*
X142743Y384918D01*
X142868Y384981D01*
X142889Y385001D01*
X142910D01*
X143285Y385126D01*
X143639Y385231D01*
X143993Y385293D01*
X144305Y385356D01*
X144576Y385376D01*
X144785Y385397D01*
X144868D01*
X144930D01*
X144951D01*
X144972D01*
X145326Y385376D01*
D02*
G37*
G36*
X135754Y351844D02*
X132080D01*
Y355518D01*
X135754D01*
Y351844D01*
D02*
G37*
G36*
X151300Y351694D02*
X146776D01*
X137029Y352644D01*
Y354744D01*
X146776Y355668D01*
X151300D01*
Y351694D01*
D02*
G37*
G36*
Y343772D02*
X132080D01*
Y347446D01*
X151300D01*
Y343772D01*
D02*
G37*
G36*
X132430Y340772D02*
X132780Y340622D01*
X133105Y340522D01*
X133380Y340422D01*
X133605Y340347D01*
X133780Y340297D01*
X133879Y340272D01*
X133930D01*
X134304Y340222D01*
X134729Y340172D01*
X135179Y340148D01*
X135629Y340122D01*
X136029Y340098D01*
X136204D01*
X136354D01*
X136479D01*
X136579D01*
X136629D01*
X136654D01*
X140953Y340148D01*
X141378D01*
X141777Y340122D01*
X142152Y340098D01*
X142477Y340073D01*
X142777Y340023D01*
X143052Y339997D01*
X143302Y339948D01*
X143502Y339897D01*
X143677Y339847D01*
X143852Y339798D01*
X143977Y339772D01*
X144077Y339723D01*
X144202Y339673D01*
X144252Y339648D01*
X144577Y339423D01*
X144852Y339173D01*
X145127Y338898D01*
X145327Y338623D01*
X145502Y338348D01*
X145626Y338148D01*
X145702Y337998D01*
X145726Y337973D01*
Y337948D01*
X145827Y337698D01*
X145927Y337448D01*
X146076Y336873D01*
X146176Y336249D01*
X146251Y335674D01*
X146276Y335374D01*
X146301Y335124D01*
Y334874D01*
X146326Y334674D01*
Y333774D01*
X146276Y333324D01*
X146226Y332874D01*
X146176Y332474D01*
X146101Y332124D01*
X146001Y331775D01*
X145927Y331475D01*
X145827Y331200D01*
X145726Y330975D01*
X145652Y330750D01*
X145552Y330575D01*
X145477Y330425D01*
X145427Y330325D01*
X145377Y330250D01*
X145327Y330200D01*
Y330175D01*
X144927Y329700D01*
X144452Y329300D01*
X143952Y328950D01*
X143452Y328700D01*
X143027Y328500D01*
X142827Y328425D01*
X142652Y328350D01*
X142527Y328301D01*
X142427Y328275D01*
X142352Y328251D01*
X142327D01*
X141728Y331575D01*
X142077Y331700D01*
X142352Y331850D01*
X142602Y332000D01*
X142777Y332124D01*
X142927Y332249D01*
X143027Y332349D01*
X143077Y332424D01*
X143102Y332449D01*
X143227Y332674D01*
X143327Y332924D01*
X143402Y333174D01*
X143452Y333424D01*
X143477Y333649D01*
X143502Y333824D01*
Y333999D01*
X143477Y334499D01*
X143427Y334924D01*
X143352Y335274D01*
X143277Y335524D01*
X143177Y335724D01*
X143102Y335873D01*
X143052Y335948D01*
X143027Y335974D01*
X142827Y336148D01*
X142602Y336298D01*
X142352Y336398D01*
X142077Y336448D01*
X141853Y336498D01*
X141652Y336523D01*
X141528D01*
X141503D01*
X141478D01*
X141128D01*
X141053Y336323D01*
X140978Y336073D01*
X140878Y335824D01*
X140803Y335549D01*
X140653Y334949D01*
X140503Y334349D01*
X140378Y333799D01*
X140328Y333549D01*
X140278Y333349D01*
X140253Y333174D01*
X140228Y333049D01*
X140203Y332949D01*
Y332924D01*
X140078Y332249D01*
X139928Y331675D01*
X139778Y331175D01*
X139653Y330750D01*
X139528Y330425D01*
X139428Y330200D01*
X139378Y330050D01*
X139353Y330000D01*
X139153Y329650D01*
X138928Y329325D01*
X138703Y329075D01*
X138478Y328850D01*
X138278Y328650D01*
X138104Y328525D01*
X138004Y328450D01*
X137954Y328425D01*
X137604Y328251D01*
X137229Y328101D01*
X136879Y328001D01*
X136554Y327951D01*
X136279Y327901D01*
X136054Y327876D01*
X135904D01*
X135879D01*
X135854D01*
X135529Y327901D01*
X135229Y327926D01*
X134654Y328075D01*
X134129Y328275D01*
X133705Y328500D01*
X133380Y328725D01*
X133105Y328900D01*
X133030Y329000D01*
X132955Y329050D01*
X132930Y329075D01*
X132905Y329100D01*
X132705Y329350D01*
X132530Y329600D01*
X132230Y330150D01*
X132030Y330725D01*
X131905Y331275D01*
X131805Y331750D01*
X131780Y331974D01*
Y332150D01*
X131755Y332299D01*
Y332499D01*
X131780Y332949D01*
X131830Y333374D01*
X131905Y333749D01*
X131980Y334099D01*
X132055Y334374D01*
X132130Y334599D01*
X132180Y334724D01*
X132205Y334774D01*
X132405Y335174D01*
X132605Y335549D01*
X132830Y335899D01*
X133055Y336199D01*
X133255Y336448D01*
X133430Y336623D01*
X133530Y336748D01*
X133580Y336798D01*
X133480Y336848D01*
X133330Y336873D01*
X133205Y336923D01*
X133180D01*
X133155D01*
X132905Y336998D01*
X132680Y337073D01*
X132505Y337148D01*
X132355Y337198D01*
X132230Y337248D01*
X132155Y337273D01*
X132105Y337298D01*
X132080D01*
Y340947D01*
X132430Y340772D01*
D02*
G37*
G36*
X135154Y326251D02*
X135029Y325901D01*
X134954Y325601D01*
X134879Y325351D01*
X134854Y325151D01*
X134829Y324976D01*
X134804Y324876D01*
Y324776D01*
X134829Y324526D01*
X134904Y324301D01*
X134954Y324176D01*
X134979Y324151D01*
Y324127D01*
X135129Y323977D01*
X135279Y323877D01*
X135379Y323827D01*
X135429Y323802D01*
X135504D01*
X135604Y323777D01*
X135879D01*
X136204D01*
X136554Y323752D01*
X136879D01*
X137154D01*
X137279D01*
X137354D01*
X137404D01*
X137429D01*
X143077D01*
Y326276D01*
X146001D01*
Y323752D01*
X150950D01*
X148776Y320078D01*
X146001D01*
Y318378D01*
X143077D01*
Y320078D01*
X136979D01*
X136629D01*
X136304D01*
X136004D01*
X135754Y320103D01*
X135504D01*
X135304D01*
X134954Y320128D01*
X134679Y320153D01*
X134504D01*
X134404Y320178D01*
X134379D01*
X134054Y320252D01*
X133780Y320327D01*
X133530Y320402D01*
X133330Y320503D01*
X133155Y320578D01*
X133030Y320652D01*
X132955Y320677D01*
X132930Y320702D01*
X132755Y320852D01*
X132580Y321052D01*
X132305Y321427D01*
X132205Y321602D01*
X132130Y321752D01*
X132105Y321852D01*
X132080Y321877D01*
X131980Y322177D01*
X131905Y322502D01*
X131830Y322802D01*
X131805Y323077D01*
X131780Y323302D01*
X131755Y323477D01*
Y323652D01*
X131780Y324252D01*
X131830Y324801D01*
X131930Y325301D01*
X132030Y325726D01*
X132105Y326076D01*
X132205Y326351D01*
X132230Y326451D01*
X132255Y326526D01*
X132280Y326551D01*
Y326576D01*
X135154Y326251D01*
D02*
G37*
G36*
X139653Y317003D02*
X140203Y316953D01*
X140728Y316853D01*
X141203Y316703D01*
X141652Y316553D01*
X142077Y316378D01*
X142477Y316204D01*
X142827Y316029D01*
X143152Y315829D01*
X143427Y315654D01*
X143677Y315479D01*
X143877Y315329D01*
X144052Y315204D01*
X144152Y315104D01*
X144227Y315029D01*
X144252Y315004D01*
X144627Y314604D01*
X144927Y314204D01*
X145227Y313779D01*
X145452Y313329D01*
X145652Y312904D01*
X145827Y312479D01*
X145951Y312055D01*
X146076Y311655D01*
X146151Y311255D01*
X146226Y310905D01*
X146251Y310605D01*
X146301Y310330D01*
Y310105D01*
X146326Y309955D01*
Y309805D01*
X146276Y309055D01*
X146176Y308381D01*
X146026Y307756D01*
X145877Y307206D01*
X145777Y306956D01*
X145702Y306756D01*
X145626Y306556D01*
X145552Y306406D01*
X145477Y306281D01*
X145452Y306181D01*
X145402Y306131D01*
Y306106D01*
X145027Y305531D01*
X144602Y305007D01*
X144177Y304582D01*
X143752Y304207D01*
X143377Y303932D01*
X143202Y303807D01*
X143052Y303732D01*
X142952Y303657D01*
X142852Y303607D01*
X142802Y303557D01*
X142777D01*
X142127Y303257D01*
X141503Y303032D01*
X140903Y302882D01*
X140353Y302782D01*
X140128Y302732D01*
X139903Y302707D01*
X139703Y302682D01*
X139553D01*
X139403Y302657D01*
X139303D01*
X139253D01*
X139228D01*
X138353Y302707D01*
X137579Y302807D01*
X137229Y302857D01*
X136879Y302932D01*
X136579Y303032D01*
X136304Y303107D01*
X136029Y303182D01*
X135804Y303282D01*
X135629Y303357D01*
X135454Y303407D01*
X135329Y303482D01*
X135229Y303507D01*
X135179Y303557D01*
X135154D01*
X134554Y303932D01*
X134054Y304357D01*
X133605Y304781D01*
X133255Y305206D01*
X132980Y305581D01*
X132855Y305756D01*
X132780Y305906D01*
X132705Y306006D01*
X132655Y306106D01*
X132605Y306156D01*
Y306181D01*
X132330Y306831D01*
X132105Y307506D01*
X131955Y308106D01*
X131855Y308680D01*
X131830Y308930D01*
X131805Y309155D01*
X131780Y309355D01*
Y309530D01*
X131755Y309655D01*
Y309855D01*
X131780Y310430D01*
X131855Y310955D01*
X131955Y311480D01*
X132080Y311955D01*
X132230Y312405D01*
X132405Y312829D01*
X132605Y313204D01*
X132805Y313579D01*
X132980Y313879D01*
X133180Y314179D01*
X133355Y314404D01*
X133505Y314604D01*
X133630Y314779D01*
X133730Y314879D01*
X133805Y314954D01*
X133830Y314979D01*
X134229Y315329D01*
X134654Y315654D01*
X135079Y315929D01*
X135529Y316154D01*
X135979Y316353D01*
X136404Y316528D01*
X136829Y316653D01*
X137229Y316778D01*
X137604Y316853D01*
X137954Y316928D01*
X138278Y316978D01*
X138553Y317003D01*
X138778D01*
X138928Y317028D01*
X139053D01*
X139078D01*
X139653Y317003D01*
D02*
G37*
G36*
X135154Y300907D02*
X135029Y300558D01*
X134954Y300258D01*
X134879Y300008D01*
X134854Y299808D01*
X134829Y299633D01*
X134804Y299533D01*
Y299433D01*
X134829Y299183D01*
X134904Y298958D01*
X134954Y298833D01*
X134979Y298808D01*
Y298783D01*
X135129Y298633D01*
X135279Y298533D01*
X135379Y298483D01*
X135429Y298458D01*
X135504D01*
X135604Y298433D01*
X135879D01*
X136204D01*
X136554Y298408D01*
X136879D01*
X137154D01*
X137279D01*
X137354D01*
X137404D01*
X137429D01*
X143077D01*
Y300933D01*
X146001D01*
Y298408D01*
X150950D01*
X148776Y294734D01*
X146001D01*
Y293034D01*
X143077D01*
Y294734D01*
X136979D01*
X136629D01*
X136304D01*
X136004D01*
X135754Y294759D01*
X135504D01*
X135304D01*
X134954Y294784D01*
X134679Y294809D01*
X134504D01*
X134404Y294834D01*
X134379D01*
X134054Y294909D01*
X133780Y294984D01*
X133530Y295059D01*
X133330Y295159D01*
X133155Y295234D01*
X133030Y295309D01*
X132955Y295334D01*
X132930Y295359D01*
X132755Y295509D01*
X132580Y295709D01*
X132305Y296084D01*
X132205Y296259D01*
X132130Y296409D01*
X132105Y296509D01*
X132080Y296534D01*
X131980Y296833D01*
X131905Y297159D01*
X131830Y297458D01*
X131805Y297733D01*
X131780Y297958D01*
X131755Y298133D01*
Y298308D01*
X131780Y298908D01*
X131830Y299458D01*
X131930Y299958D01*
X132030Y300383D01*
X132105Y300732D01*
X132205Y301007D01*
X132230Y301107D01*
X132255Y301182D01*
X132280Y301207D01*
Y301232D01*
X135154Y300907D01*
D02*
G37*
G36*
X141803Y283362D02*
X142202Y283312D01*
X142577Y283287D01*
X142852Y283237D01*
X143052Y283187D01*
X143152Y283162D01*
X143202D01*
X143527Y283062D01*
X143802Y282962D01*
X144077Y282837D01*
X144302Y282737D01*
X144502Y282612D01*
X144627Y282512D01*
X144727Y282462D01*
X144752Y282437D01*
X145002Y282237D01*
X145202Y281987D01*
X145402Y281737D01*
X145576Y281488D01*
X145702Y281262D01*
X145801Y281088D01*
X145851Y280963D01*
X145877Y280913D01*
X146026Y280538D01*
X146126Y280138D01*
X146226Y279763D01*
X146276Y279438D01*
X146301Y279138D01*
X146326Y278888D01*
Y278688D01*
X146301Y278188D01*
X146226Y277688D01*
X146101Y277239D01*
X145951Y276789D01*
X145777Y276389D01*
X145576Y276014D01*
X145352Y275664D01*
X145152Y275339D01*
X144927Y275064D01*
X144702Y274814D01*
X144502Y274589D01*
X144327Y274414D01*
X144177Y274264D01*
X144052Y274164D01*
X143977Y274114D01*
X143952Y274089D01*
X146001D01*
Y270665D01*
X132080D01*
Y274339D01*
X138378D01*
X138803D01*
X139178Y274364D01*
X139528D01*
X139853Y274389D01*
X140153Y274414D01*
X140403Y274439D01*
X140653Y274464D01*
X140853Y274489D01*
X141028Y274514D01*
X141178Y274539D01*
X141303D01*
X141403Y274564D01*
X141528Y274614D01*
X141578D01*
X141877Y274739D01*
X142177Y274889D01*
X142402Y275064D01*
X142602Y275239D01*
X142777Y275414D01*
X142877Y275539D01*
X142952Y275639D01*
X142977Y275664D01*
X143152Y275964D01*
X143277Y276264D01*
X143377Y276539D01*
X143427Y276814D01*
X143477Y277039D01*
X143502Y277239D01*
Y277388D01*
X143477Y277663D01*
X143452Y277913D01*
X143377Y278138D01*
X143327Y278338D01*
X143252Y278488D01*
X143177Y278588D01*
X143152Y278663D01*
X143127Y278688D01*
X142977Y278863D01*
X142802Y279038D01*
X142627Y279163D01*
X142452Y279263D01*
X142302Y279363D01*
X142177Y279413D01*
X142102Y279463D01*
X142077D01*
X141927Y279513D01*
X141777Y279538D01*
X141578Y279588D01*
X141353Y279613D01*
X140878Y279663D01*
X140378Y279688D01*
X139928Y279713D01*
X139728D01*
X139553D01*
X139403D01*
X139278D01*
X139203D01*
X139178D01*
X132080D01*
Y283387D01*
X140728D01*
X141303D01*
X141803Y283362D01*
D02*
G37*
G36*
X151300Y263267D02*
X147901D01*
Y266941D01*
X151300D01*
Y263267D01*
D02*
G37*
G36*
X146001D02*
X132080D01*
Y266941D01*
X146001D01*
Y263267D01*
D02*
G37*
G36*
X139728Y252870D02*
X140303Y252820D01*
X140853Y252745D01*
X141378Y252620D01*
X141827Y252495D01*
X142277Y252370D01*
X142677Y252195D01*
X143027Y252045D01*
X143352Y251895D01*
X143627Y251745D01*
X143852Y251595D01*
X144052Y251470D01*
X144202Y251345D01*
X144327Y251270D01*
X144377Y251220D01*
X144402Y251195D01*
X144752Y250870D01*
X145027Y250520D01*
X145302Y250196D01*
X145527Y249846D01*
X145702Y249496D01*
X145851Y249146D01*
X145976Y248821D01*
X146076Y248496D01*
X146176Y248196D01*
X146226Y247921D01*
X146276Y247696D01*
X146301Y247471D01*
X146326Y247296D01*
Y247071D01*
X146301Y246571D01*
X146226Y246096D01*
X146101Y245672D01*
X146001Y245297D01*
X145877Y244972D01*
X145751Y244747D01*
X145676Y244597D01*
X145652Y244572D01*
Y244547D01*
X145402Y244147D01*
X145102Y243772D01*
X144827Y243472D01*
X144552Y243222D01*
X144327Y243022D01*
X144127Y242872D01*
X144002Y242772D01*
X143952Y242747D01*
X146001D01*
Y239323D01*
X126756D01*
Y242997D01*
X133780D01*
X133380Y243372D01*
X133055Y243747D01*
X132780Y244072D01*
X132580Y244347D01*
X132405Y244597D01*
X132305Y244797D01*
X132230Y244897D01*
X132205Y244947D01*
X132055Y245322D01*
X131955Y245672D01*
X131855Y246022D01*
X131805Y246346D01*
X131780Y246621D01*
X131755Y246846D01*
Y247046D01*
X131780Y247496D01*
X131830Y247921D01*
X131930Y248321D01*
X132055Y248721D01*
X132205Y249071D01*
X132355Y249421D01*
X132530Y249721D01*
X132730Y250021D01*
X132905Y250271D01*
X133080Y250495D01*
X133230Y250695D01*
X133380Y250870D01*
X133505Y250995D01*
X133605Y251095D01*
X133655Y251145D01*
X133680Y251170D01*
X134054Y251470D01*
X134454Y251745D01*
X134904Y251970D01*
X135329Y252170D01*
X135779Y252345D01*
X136254Y252470D01*
X136679Y252595D01*
X137104Y252670D01*
X137529Y252745D01*
X137903Y252795D01*
X138228Y252845D01*
X138528Y252870D01*
X138778Y252895D01*
X138953D01*
X139053D01*
X139103D01*
X139728Y252870D01*
D02*
G37*
G36*
X141678Y235699D02*
X141978D01*
X142277Y235674D01*
X142777Y235599D01*
X143177Y235524D01*
X143477Y235449D01*
X143677Y235399D01*
X143802Y235349D01*
X143852Y235324D01*
X144277Y235099D01*
X144652Y234849D01*
X144977Y234599D01*
X145227Y234325D01*
X145452Y234100D01*
X145576Y233900D01*
X145676Y233775D01*
X145702Y233750D01*
Y233725D01*
X145901Y233325D01*
X146051Y232875D01*
X146176Y232450D01*
X146251Y232050D01*
X146301Y231700D01*
X146326Y231400D01*
Y231150D01*
X146301Y230700D01*
X146226Y230301D01*
X146151Y229901D01*
X146051Y229576D01*
X145927Y229276D01*
X145851Y229076D01*
X145777Y228926D01*
X145751Y228901D01*
Y228876D01*
X145527Y228501D01*
X145252Y228126D01*
X144977Y227801D01*
X144727Y227501D01*
X144477Y227251D01*
X144277Y227051D01*
X144152Y226951D01*
X144127Y226901D01*
X144102D01*
X144502Y226651D01*
X144827Y226377D01*
X145102Y226127D01*
X145352Y225877D01*
X145527Y225652D01*
X145652Y225477D01*
X145726Y225352D01*
X145751Y225302D01*
X145951Y224927D01*
X146076Y224527D01*
X146176Y224127D01*
X146251Y223777D01*
X146301Y223452D01*
X146326Y223202D01*
Y222978D01*
X146301Y222528D01*
X146226Y222078D01*
X146126Y221653D01*
X145976Y221253D01*
X145801Y220878D01*
X145626Y220528D01*
X145402Y220203D01*
X145202Y219903D01*
X145002Y219628D01*
X144802Y219378D01*
X144602Y219178D01*
X144427Y219004D01*
X144277Y218853D01*
X144177Y218754D01*
X144102Y218704D01*
X144077Y218679D01*
X146001D01*
Y215279D01*
X132080D01*
Y218953D01*
X138828D01*
X139203D01*
X139528Y218979D01*
X139853D01*
X140128Y219004D01*
X140403Y219028D01*
X140628Y219053D01*
X141028Y219103D01*
X141328Y219153D01*
X141528Y219178D01*
X141652Y219228D01*
X141702D01*
X142002Y219353D01*
X142277Y219503D01*
X142502Y219678D01*
X142702Y219828D01*
X142827Y219978D01*
X142952Y220103D01*
X143002Y220178D01*
X143027Y220203D01*
X143177Y220478D01*
X143302Y220753D01*
X143377Y221003D01*
X143452Y221253D01*
X143477Y221453D01*
X143502Y221603D01*
Y222003D01*
X143452Y222228D01*
X143402Y222403D01*
X143352Y222578D01*
X143302Y222677D01*
X143252Y222778D01*
X143227Y222827D01*
X143202Y222852D01*
X143077Y223002D01*
X142927Y223127D01*
X142652Y223327D01*
X142502Y223402D01*
X142402Y223452D01*
X142327Y223477D01*
X142302D01*
X142177Y223502D01*
X142028Y223552D01*
X141652Y223602D01*
X141228Y223627D01*
X140778Y223652D01*
X140378Y223677D01*
X140203D01*
X140028D01*
X139903D01*
X139803D01*
X139728D01*
X139703D01*
X132080D01*
Y227351D01*
X138753D01*
X139103D01*
X139453Y227376D01*
X140028Y227401D01*
X140528Y227451D01*
X140928Y227501D01*
X141228Y227551D01*
X141453Y227601D01*
X141578Y227651D01*
X141628D01*
X141952Y227776D01*
X142227Y227926D01*
X142477Y228101D01*
X142677Y228251D01*
X142827Y228401D01*
X142927Y228526D01*
X143002Y228601D01*
X143027Y228626D01*
X143177Y228876D01*
X143302Y229126D01*
X143377Y229376D01*
X143452Y229601D01*
X143477Y229801D01*
X143502Y229951D01*
Y230076D01*
X143477Y230450D01*
X143377Y230776D01*
X143252Y231050D01*
X143102Y231275D01*
X142952Y231425D01*
X142827Y231550D01*
X142727Y231625D01*
X142702Y231650D01*
X142577Y231725D01*
X142427Y231775D01*
X142028Y231875D01*
X141603Y231950D01*
X141153Y232000D01*
X140728Y232025D01*
X140528Y232050D01*
X140353D01*
X140228D01*
X140128D01*
X140053D01*
X140028D01*
X132080D01*
Y235724D01*
X140978D01*
X141353D01*
X141678Y235699D01*
D02*
G37*
G36*
X151300Y205857D02*
Y201708D01*
X132080Y194235D01*
Y198334D01*
X136454Y199933D01*
Y207606D01*
X132080Y209306D01*
Y213530D01*
X151300Y205857D01*
D02*
G37*
G36*
X151400Y179414D02*
X151075Y179289D01*
X150750Y179139D01*
X150175Y178789D01*
X149650Y178414D01*
X149176Y178014D01*
X148826Y177664D01*
X148651Y177514D01*
X148526Y177364D01*
X148426Y177239D01*
X148351Y177164D01*
X148326Y177114D01*
X148301Y177089D01*
X147851Y176464D01*
X147476Y175889D01*
X147151Y175365D01*
X146926Y174915D01*
X146751Y174540D01*
X146676Y174365D01*
X146626Y174240D01*
X146576Y174140D01*
X146551Y174065D01*
X146526Y174015D01*
Y173990D01*
X143177D01*
X143552Y174965D01*
X144002Y175889D01*
X144227Y176289D01*
X144452Y176689D01*
X144677Y177064D01*
X144902Y177389D01*
X145127Y177689D01*
X145302Y177964D01*
X145502Y178189D01*
X145652Y178389D01*
X145777Y178539D01*
X145877Y178639D01*
X145927Y178714D01*
X145951Y178739D01*
X132080D01*
Y182413D01*
X151400D01*
Y179414D01*
D02*
G37*
G36*
X181760Y422773D02*
X182593Y422690D01*
X183385Y422565D01*
X184093Y422356D01*
X184801Y422148D01*
X185426Y421940D01*
X186009Y421648D01*
X186551Y421398D01*
X187009Y421148D01*
X187426Y420898D01*
X187801Y420648D01*
X188092Y420440D01*
X188342Y420232D01*
X188509Y420107D01*
X188592Y420023D01*
X188634Y419982D01*
X189175Y419440D01*
X189633Y418857D01*
X190008Y418274D01*
X190383Y417691D01*
X190675Y417108D01*
X190883Y416566D01*
X191091Y415983D01*
X191258Y415483D01*
X191383Y414983D01*
X191466Y414525D01*
X191549Y414108D01*
X191591Y413733D01*
X191633Y413484D01*
Y413067D01*
X191591Y412276D01*
X191466Y411526D01*
X191300Y410818D01*
X191133Y410151D01*
X190925Y409651D01*
X190758Y409235D01*
X190675Y409068D01*
X190633Y408943D01*
X190591Y408901D01*
Y408860D01*
X196048Y409860D01*
Y421398D01*
X201797D01*
Y405236D01*
X185135Y402070D01*
X184426Y407027D01*
X184843Y407443D01*
X185218Y407818D01*
X185509Y408235D01*
X185759Y408652D01*
X186176Y409443D01*
X186467Y410151D01*
X186634Y410776D01*
X186676Y411068D01*
X186717Y411276D01*
X186759Y411484D01*
Y411734D01*
X186676Y412484D01*
X186509Y413150D01*
X186301Y413733D01*
X186009Y414233D01*
X185718Y414608D01*
X185509Y414900D01*
X185343Y415108D01*
X185259Y415150D01*
X184635Y415608D01*
X183927Y415941D01*
X183177Y416149D01*
X182468Y416316D01*
X181802Y416399D01*
X181552Y416441D01*
X181302Y416483D01*
X181094D01*
X180927D01*
X180844D01*
X180802D01*
X179678Y416441D01*
X178720Y416274D01*
X177928Y416066D01*
X177262Y415816D01*
X176720Y415566D01*
X176345Y415358D01*
X176137Y415191D01*
X176054Y415150D01*
X175554Y414608D01*
X175179Y414067D01*
X174887Y413525D01*
X174720Y413025D01*
X174596Y412567D01*
X174554Y412234D01*
X174512Y411984D01*
Y411901D01*
X174554Y411276D01*
X174720Y410734D01*
X174887Y410234D01*
X175137Y409818D01*
X175345Y409443D01*
X175554Y409193D01*
X175679Y408985D01*
X175720Y408943D01*
X176220Y408526D01*
X176762Y408193D01*
X177303Y407902D01*
X177803Y407735D01*
X178303Y407610D01*
X178678Y407485D01*
X178928Y407443D01*
X178969D01*
X179011D01*
X178345Y401320D01*
X177595Y401445D01*
X176928Y401612D01*
X176262Y401820D01*
X175679Y402070D01*
X175095Y402320D01*
X174554Y402611D01*
X174096Y402903D01*
X173679Y403195D01*
X173263Y403486D01*
X172929Y403736D01*
X172638Y403986D01*
X172388Y404194D01*
X172221Y404403D01*
X172096Y404528D01*
X172013Y404611D01*
X171971Y404652D01*
X171555Y405194D01*
X171180Y405777D01*
X170888Y406360D01*
X170597Y406944D01*
X170388Y407568D01*
X170180Y408152D01*
X169888Y409318D01*
X169805Y409818D01*
X169722Y410318D01*
X169680Y410734D01*
X169639Y411109D01*
X169597Y411442D01*
Y411859D01*
X169639Y412859D01*
X169763Y413817D01*
X169972Y414733D01*
X170263Y415566D01*
X170597Y416316D01*
X170930Y417024D01*
X171346Y417691D01*
X171721Y418274D01*
X172138Y418774D01*
X172513Y419232D01*
X172846Y419649D01*
X173179Y419940D01*
X173471Y420190D01*
X173679Y420398D01*
X173804Y420482D01*
X173846Y420523D01*
X174429Y420940D01*
X175054Y421273D01*
X175637Y421606D01*
X176262Y421856D01*
X177428Y422273D01*
X178511Y422523D01*
X179011Y422606D01*
X179469Y422690D01*
X179886Y422731D01*
X180219Y422773D01*
X180511Y422814D01*
X180719D01*
X180844D01*
X180886D01*
X181760Y422773D01*
D02*
G37*
G36*
X190322Y206465D02*
X190989Y206382D01*
X191614Y206257D01*
X192238Y206091D01*
X193321Y205632D01*
X193780Y205424D01*
X194238Y205174D01*
X194654Y204883D01*
X194988Y204674D01*
X195279Y204424D01*
X195529Y204216D01*
X195737Y204049D01*
X195862Y203924D01*
X195946Y203841D01*
X195987Y203799D01*
X196446Y203258D01*
X196821Y202716D01*
X197195Y202092D01*
X197487Y201508D01*
X197737Y200884D01*
X197945Y200259D01*
X198237Y199051D01*
X198362Y198509D01*
X198445Y198009D01*
X198487Y197509D01*
X198528Y197134D01*
X198570Y196801D01*
Y196343D01*
X198528Y195552D01*
X198487Y194802D01*
X198362Y194052D01*
X198237Y193385D01*
X198070Y192761D01*
X197862Y192177D01*
X197654Y191594D01*
X197487Y191136D01*
X197279Y190678D01*
X197071Y190261D01*
X196862Y189928D01*
X196696Y189636D01*
X196571Y189428D01*
X196446Y189261D01*
X196404Y189178D01*
X196362Y189137D01*
X195904Y188637D01*
X195404Y188178D01*
X194863Y187762D01*
X194279Y187387D01*
X193696Y187054D01*
X193071Y186804D01*
X191905Y186346D01*
X191322Y186179D01*
X190780Y186054D01*
X190322Y185929D01*
X189906Y185846D01*
X189572Y185804D01*
X189281Y185762D01*
X189114Y185721D01*
X189072D01*
X188489Y191844D01*
X189406Y191969D01*
X190197Y192136D01*
X190864Y192344D01*
X191405Y192552D01*
X191822Y192761D01*
X192113Y192969D01*
X192280Y193094D01*
X192322Y193136D01*
X192697Y193594D01*
X192988Y194094D01*
X193197Y194594D01*
X193363Y195093D01*
X193446Y195510D01*
X193488Y195843D01*
Y196176D01*
X193446Y196884D01*
X193321Y197468D01*
X193113Y198009D01*
X192946Y198426D01*
X192738Y198759D01*
X192530Y199009D01*
X192405Y199176D01*
X192363Y199217D01*
X191905Y199592D01*
X191405Y199884D01*
X190864Y200050D01*
X190364Y200217D01*
X189906Y200300D01*
X189531Y200342D01*
X189281D01*
X189239D01*
X189198D01*
X188489Y200300D01*
X187823Y200134D01*
X187198Y199925D01*
X186615Y199717D01*
X186157Y199467D01*
X185782Y199259D01*
X185532Y199092D01*
X185490Y199051D01*
X185448D01*
X185157Y198842D01*
X184824Y198551D01*
X184449Y198259D01*
X184032Y197884D01*
X183199Y197051D01*
X182324Y196176D01*
X181491Y195343D01*
X181158Y194968D01*
X180825Y194635D01*
X180575Y194343D01*
X180366Y194135D01*
X180241Y194010D01*
X180200Y193969D01*
X179325Y193052D01*
X178492Y192219D01*
X177700Y191428D01*
X176992Y190720D01*
X176284Y190095D01*
X175659Y189553D01*
X175076Y189053D01*
X174535Y188595D01*
X174076Y188220D01*
X173660Y187929D01*
X173327Y187679D01*
X173035Y187470D01*
X172785Y187304D01*
X172618Y187179D01*
X172535Y187137D01*
X172493Y187095D01*
X171410Y186512D01*
X170327Y186054D01*
X169286Y185679D01*
X168328Y185387D01*
X167911Y185304D01*
X167536Y185221D01*
X167203Y185138D01*
X166912Y185096D01*
X166703Y185054D01*
X166495Y185013D01*
X166412D01*
X166370D01*
Y206507D01*
X172077D01*
Y194302D01*
X172660Y194677D01*
X173202Y195093D01*
X173410Y195260D01*
X173577Y195427D01*
X173701Y195510D01*
X173743Y195552D01*
X173910Y195718D01*
X174160Y195926D01*
X174660Y196468D01*
X175243Y197051D01*
X175826Y197676D01*
X176409Y198259D01*
X176867Y198759D01*
X177034Y198967D01*
X177159Y199092D01*
X177242Y199176D01*
X177284Y199217D01*
X177784Y199759D01*
X178242Y200217D01*
X179075Y201092D01*
X179783Y201758D01*
X180366Y202341D01*
X180825Y202758D01*
X181158Y203050D01*
X181325Y203216D01*
X181408Y203258D01*
X182199Y203841D01*
X182949Y204341D01*
X183616Y204757D01*
X184240Y205132D01*
X184740Y205382D01*
X185157Y205549D01*
X185407Y205674D01*
X185448Y205716D01*
X185490D01*
X186240Y205966D01*
X186948Y206174D01*
X187656Y206299D01*
X188281Y206424D01*
X188823Y206465D01*
X189239Y206507D01*
X189406D01*
X189531D01*
X189572D01*
X189614D01*
X190322Y206465D01*
D02*
G37*
G36*
X198570Y171599D02*
X198029Y171391D01*
X197487Y171141D01*
X196529Y170558D01*
X195654Y169933D01*
X194863Y169267D01*
X194279Y168683D01*
X193988Y168433D01*
X193780Y168184D01*
X193613Y167975D01*
X193488Y167850D01*
X193446Y167767D01*
X193405Y167725D01*
X192655Y166684D01*
X192030Y165726D01*
X191489Y164851D01*
X191114Y164101D01*
X190822Y163476D01*
X190697Y163185D01*
X190614Y162977D01*
X190530Y162810D01*
X190489Y162685D01*
X190447Y162602D01*
Y162560D01*
X184865D01*
X185490Y164185D01*
X186240Y165726D01*
X186615Y166392D01*
X186990Y167059D01*
X187365Y167684D01*
X187740Y168225D01*
X188114Y168725D01*
X188406Y169183D01*
X188739Y169558D01*
X188989Y169891D01*
X189198Y170141D01*
X189364Y170308D01*
X189447Y170433D01*
X189489Y170475D01*
X166370D01*
Y176598D01*
X198570D01*
Y171599D01*
D02*
G37*
G36*
X185177Y268978D02*
X186635Y268895D01*
X187968Y268728D01*
X189218Y268520D01*
X190343Y268311D01*
X191342Y268020D01*
X192259Y267770D01*
X193092Y267478D01*
X193800Y267187D01*
X194383Y266895D01*
X194925Y266604D01*
X195341Y266395D01*
X195633Y266187D01*
X195883Y266020D01*
X196008Y265937D01*
X196049Y265895D01*
X196716Y265312D01*
X197299Y264646D01*
X197799Y263979D01*
X198257Y263313D01*
X198590Y262646D01*
X198924Y261980D01*
X199174Y261355D01*
X199382Y260730D01*
X199507Y260147D01*
X199632Y259605D01*
X199715Y259105D01*
X199798Y258689D01*
Y258356D01*
X199840Y258106D01*
Y257897D01*
X199798Y257064D01*
X199715Y256273D01*
X199548Y255565D01*
X199382Y254856D01*
X199132Y254190D01*
X198882Y253607D01*
X198632Y253024D01*
X198340Y252524D01*
X198049Y252066D01*
X197799Y251691D01*
X197549Y251316D01*
X197299Y251066D01*
X197132Y250816D01*
X196966Y250649D01*
X196882Y250566D01*
X196841Y250524D01*
X196258Y250024D01*
X195633Y249566D01*
X195008Y249191D01*
X194342Y248858D01*
X193675Y248566D01*
X193050Y248358D01*
X192384Y248150D01*
X191800Y248025D01*
X191217Y247900D01*
X190676Y247817D01*
X190176Y247733D01*
X189759Y247692D01*
X189426Y247650D01*
X189176D01*
X189009D01*
X188968D01*
X188093Y247692D01*
X187302Y247775D01*
X186510Y247900D01*
X185802Y248067D01*
X185135Y248275D01*
X184469Y248525D01*
X183927Y248733D01*
X183386Y249025D01*
X182928Y249275D01*
X182511Y249483D01*
X182178Y249733D01*
X181886Y249941D01*
X181636Y250108D01*
X181470Y250233D01*
X181387Y250316D01*
X181345Y250358D01*
X180845Y250899D01*
X180387Y251441D01*
X180012Y251982D01*
X179679Y252524D01*
X179387Y253107D01*
X179137Y253648D01*
X178929Y254148D01*
X178804Y254648D01*
X178679Y255106D01*
X178596Y255565D01*
X178512Y255940D01*
X178471Y256273D01*
X178429Y256523D01*
Y256898D01*
X178471Y257523D01*
X178554Y258147D01*
X178679Y258731D01*
X178846Y259272D01*
X179262Y260230D01*
X179762Y261105D01*
X180012Y261438D01*
X180262Y261771D01*
X180470Y262063D01*
X180678Y262271D01*
X180845Y262438D01*
X180970Y262563D01*
X181053Y262646D01*
X181095Y262688D01*
X180095Y262605D01*
X179220Y262521D01*
X178387Y262396D01*
X177637Y262271D01*
X176971Y262146D01*
X176388Y261980D01*
X175846Y261855D01*
X175430Y261688D01*
X175013Y261563D01*
X174680Y261438D01*
X174430Y261313D01*
X174222Y261188D01*
X174055Y261105D01*
X173930Y261022D01*
X173888Y260980D01*
X173847D01*
X173264Y260480D01*
X172847Y259939D01*
X172555Y259397D01*
X172347Y258897D01*
X172222Y258439D01*
X172181Y258106D01*
X172139Y257856D01*
Y257772D01*
X172181Y257231D01*
X172264Y256773D01*
X172389Y256356D01*
X172555Y256023D01*
X172722Y255731D01*
X172847Y255523D01*
X172930Y255398D01*
X172972Y255356D01*
X173347Y255065D01*
X173763Y254815D01*
X174222Y254648D01*
X174638Y254482D01*
X175055Y254398D01*
X175388Y254315D01*
X175596Y254273D01*
X175680D01*
X175013Y248316D01*
X174305Y248442D01*
X173597Y248608D01*
X172972Y248816D01*
X172389Y249025D01*
X171847Y249275D01*
X171347Y249524D01*
X170931Y249774D01*
X170514Y250024D01*
X170181Y250233D01*
X169848Y250483D01*
X169598Y250691D01*
X169390Y250858D01*
X169223Y251024D01*
X169098Y251149D01*
X169056Y251191D01*
X169015Y251232D01*
X168681Y251691D01*
X168390Y252149D01*
X167890Y253149D01*
X167557Y254190D01*
X167307Y255148D01*
X167223Y255606D01*
X167182Y256023D01*
X167099Y256356D01*
Y256689D01*
X167057Y256939D01*
Y257314D01*
X167099Y258272D01*
X167223Y259189D01*
X167432Y260022D01*
X167682Y260813D01*
X167973Y261605D01*
X168265Y262271D01*
X168640Y262938D01*
X169015Y263479D01*
X169348Y264021D01*
X169723Y264479D01*
X170014Y264854D01*
X170348Y265187D01*
X170556Y265437D01*
X170764Y265604D01*
X170889Y265729D01*
X170931Y265770D01*
X171722Y266353D01*
X172597Y266853D01*
X173555Y267270D01*
X174555Y267645D01*
X175596Y267978D01*
X176679Y268228D01*
X177721Y268436D01*
X178762Y268603D01*
X179720Y268728D01*
X180637Y268853D01*
X181470Y268936D01*
X182220Y268978D01*
X182803Y269020D01*
X183261D01*
X183428D01*
X183553D01*
X183594D01*
X183636D01*
X185177Y268978D01*
D02*
G37*
G36*
X179532Y364555D02*
X180490Y364388D01*
X181324Y364097D01*
X182073Y363805D01*
X182656Y363514D01*
X183073Y363222D01*
X183240Y363139D01*
X183365Y363055D01*
X183406Y362972D01*
X183448D01*
X184156Y362306D01*
X184739Y361597D01*
X185198Y360889D01*
X185531Y360181D01*
X185822Y359556D01*
X185906Y359306D01*
X185989Y359056D01*
X186031Y358848D01*
X186072Y358723D01*
X186114Y358640D01*
Y358598D01*
X186614Y359431D01*
X187114Y360140D01*
X187655Y360723D01*
X188238Y361264D01*
X188780Y361722D01*
X189363Y362097D01*
X189905Y362389D01*
X190446Y362639D01*
X190946Y362847D01*
X191404Y362972D01*
X191821Y363097D01*
X192154Y363139D01*
X192446Y363180D01*
X192696Y363222D01*
X192820D01*
X192862D01*
X193404Y363180D01*
X193945Y363139D01*
X194945Y362847D01*
X195861Y362514D01*
X196653Y362097D01*
X197278Y361639D01*
X197569Y361473D01*
X197778Y361306D01*
X197944Y361139D01*
X198069Y361014D01*
X198153Y360973D01*
X198194Y360931D01*
X198694Y360389D01*
X199152Y359848D01*
X199527Y359265D01*
X199902Y358640D01*
X200152Y358057D01*
X200402Y357432D01*
X200610Y356849D01*
X200735Y356307D01*
X200860Y355766D01*
X200944Y355266D01*
X201027Y354808D01*
X201068Y354433D01*
X201110Y354141D01*
Y353683D01*
X201068Y352725D01*
X200944Y351808D01*
X200777Y351017D01*
X200610Y350309D01*
X200444Y349725D01*
X200277Y349267D01*
X200194Y349101D01*
X200152Y348976D01*
X200110Y348934D01*
Y348892D01*
X199694Y348143D01*
X199277Y347476D01*
X198819Y346893D01*
X198361Y346435D01*
X197986Y346060D01*
X197653Y345768D01*
X197444Y345602D01*
X197361Y345560D01*
X196653Y345143D01*
X195903Y344810D01*
X195112Y344477D01*
X194362Y344269D01*
X193695Y344060D01*
X193445Y343977D01*
X193195Y343935D01*
X192987Y343894D01*
X192820Y343852D01*
X192737Y343810D01*
X192696D01*
X191737Y349476D01*
X192487Y349600D01*
X193112Y349767D01*
X193654Y349975D01*
X194112Y350225D01*
X194445Y350434D01*
X194695Y350642D01*
X194862Y350767D01*
X194903Y350808D01*
X195278Y351267D01*
X195570Y351725D01*
X195737Y352141D01*
X195903Y352600D01*
X195986Y352975D01*
X196028Y353266D01*
Y353516D01*
X195986Y354099D01*
X195861Y354599D01*
X195695Y355016D01*
X195528Y355391D01*
X195362Y355682D01*
X195195Y355891D01*
X195070Y356016D01*
X195028Y356057D01*
X194653Y356390D01*
X194237Y356640D01*
X193779Y356807D01*
X193362Y356932D01*
X193029Y357015D01*
X192696Y357057D01*
X192529D01*
X192446D01*
X191779Y357015D01*
X191154Y356849D01*
X190613Y356640D01*
X190196Y356390D01*
X189821Y356141D01*
X189571Y355932D01*
X189405Y355766D01*
X189363Y355724D01*
X188988Y355182D01*
X188738Y354599D01*
X188530Y353974D01*
X188405Y353350D01*
X188363Y352808D01*
X188322Y352350D01*
Y351933D01*
X183323Y351267D01*
X183490Y351850D01*
X183615Y352392D01*
X183698Y352850D01*
X183781Y353266D01*
Y353600D01*
X183823Y353849D01*
Y354058D01*
X183781Y354724D01*
X183615Y355307D01*
X183406Y355807D01*
X183156Y356265D01*
X182865Y356599D01*
X182656Y356890D01*
X182490Y357057D01*
X182448Y357099D01*
X181907Y357515D01*
X181282Y357807D01*
X180657Y358057D01*
X180074Y358182D01*
X179532Y358265D01*
X179116Y358348D01*
X178949D01*
X178866D01*
X178783D01*
X178741D01*
X177866Y358307D01*
X177075Y358140D01*
X176408Y357932D01*
X175867Y357682D01*
X175408Y357432D01*
X175075Y357224D01*
X174909Y357057D01*
X174825Y357015D01*
X174367Y356515D01*
X173992Y355974D01*
X173742Y355432D01*
X173575Y354933D01*
X173492Y354516D01*
X173451Y354183D01*
X173409Y353933D01*
Y353849D01*
X173451Y353225D01*
X173575Y352600D01*
X173784Y352100D01*
X173992Y351642D01*
X174200Y351308D01*
X174409Y351017D01*
X174534Y350850D01*
X174575Y350808D01*
X175075Y350392D01*
X175617Y350059D01*
X176200Y349767D01*
X176783Y349600D01*
X177283Y349476D01*
X177699Y349351D01*
X177866D01*
X177991Y349309D01*
X178033D01*
X178074D01*
X177325Y343352D01*
X176575Y343477D01*
X175867Y343644D01*
X175242Y343810D01*
X174617Y344060D01*
X174034Y344310D01*
X173492Y344602D01*
X172992Y344893D01*
X172534Y345185D01*
X172159Y345435D01*
X171784Y345727D01*
X171493Y345976D01*
X171243Y346185D01*
X171035Y346393D01*
X170910Y346518D01*
X170826Y346601D01*
X170784Y346643D01*
X170368Y347184D01*
X169993Y347768D01*
X169660Y348392D01*
X169368Y348976D01*
X169118Y349600D01*
X168910Y350184D01*
X168618Y351308D01*
X168535Y351850D01*
X168452Y352308D01*
X168410Y352766D01*
X168368Y353141D01*
X168327Y353433D01*
Y353849D01*
X168368Y354683D01*
X168452Y355516D01*
X168618Y356265D01*
X168785Y357015D01*
X168993Y357682D01*
X169243Y358307D01*
X169535Y358890D01*
X169826Y359431D01*
X170076Y359931D01*
X170368Y360348D01*
X170618Y360681D01*
X170826Y361014D01*
X170993Y361222D01*
X171159Y361431D01*
X171243Y361514D01*
X171284Y361556D01*
X171868Y362097D01*
X172451Y362556D01*
X173034Y362972D01*
X173659Y363347D01*
X174284Y363639D01*
X174867Y363889D01*
X175450Y364097D01*
X175991Y364263D01*
X176533Y364388D01*
X176991Y364472D01*
X177408Y364555D01*
X177783Y364597D01*
X178074Y364638D01*
X178324D01*
X178449D01*
X178491D01*
X179532Y364555D01*
D02*
G37*
G36*
X175033Y332480D02*
X168910D01*
Y338603D01*
X175033D01*
Y332480D01*
D02*
G37*
G36*
X179532Y327273D02*
X180490Y327106D01*
X181324Y326815D01*
X182073Y326523D01*
X182656Y326231D01*
X183073Y325940D01*
X183240Y325857D01*
X183365Y325773D01*
X183406Y325690D01*
X183448D01*
X184156Y325023D01*
X184739Y324315D01*
X185198Y323607D01*
X185531Y322899D01*
X185822Y322274D01*
X185906Y322024D01*
X185989Y321774D01*
X186031Y321566D01*
X186072Y321441D01*
X186114Y321358D01*
Y321316D01*
X186614Y322149D01*
X187114Y322857D01*
X187655Y323441D01*
X188238Y323982D01*
X188780Y324440D01*
X189363Y324815D01*
X189905Y325107D01*
X190446Y325357D01*
X190946Y325565D01*
X191404Y325690D01*
X191821Y325815D01*
X192154Y325857D01*
X192446Y325898D01*
X192696Y325940D01*
X192820D01*
X192862D01*
X193404Y325898D01*
X193945Y325857D01*
X194945Y325565D01*
X195861Y325232D01*
X196653Y324815D01*
X197278Y324357D01*
X197569Y324190D01*
X197778Y324024D01*
X197944Y323857D01*
X198069Y323732D01*
X198153Y323690D01*
X198194Y323649D01*
X198694Y323107D01*
X199152Y322566D01*
X199527Y321983D01*
X199902Y321358D01*
X200152Y320775D01*
X200402Y320150D01*
X200610Y319566D01*
X200735Y319025D01*
X200860Y318484D01*
X200944Y317984D01*
X201027Y317525D01*
X201068Y317150D01*
X201110Y316859D01*
Y316401D01*
X201068Y315443D01*
X200944Y314526D01*
X200777Y313735D01*
X200610Y313027D01*
X200444Y312443D01*
X200277Y311985D01*
X200194Y311819D01*
X200152Y311694D01*
X200110Y311652D01*
Y311610D01*
X199694Y310860D01*
X199277Y310194D01*
X198819Y309611D01*
X198361Y309153D01*
X197986Y308778D01*
X197653Y308486D01*
X197444Y308319D01*
X197361Y308278D01*
X196653Y307861D01*
X195903Y307528D01*
X195112Y307195D01*
X194362Y306986D01*
X193695Y306778D01*
X193445Y306695D01*
X193195Y306653D01*
X192987Y306611D01*
X192820Y306570D01*
X192737Y306528D01*
X192696D01*
X191737Y312193D01*
X192487Y312318D01*
X193112Y312485D01*
X193654Y312693D01*
X194112Y312943D01*
X194445Y313151D01*
X194695Y313360D01*
X194862Y313485D01*
X194903Y313526D01*
X195278Y313985D01*
X195570Y314443D01*
X195737Y314859D01*
X195903Y315318D01*
X195986Y315693D01*
X196028Y315984D01*
Y316234D01*
X195986Y316817D01*
X195861Y317317D01*
X195695Y317734D01*
X195528Y318109D01*
X195362Y318400D01*
X195195Y318608D01*
X195070Y318733D01*
X195028Y318775D01*
X194653Y319108D01*
X194237Y319358D01*
X193779Y319525D01*
X193362Y319650D01*
X193029Y319733D01*
X192696Y319775D01*
X192529D01*
X192446D01*
X191779Y319733D01*
X191154Y319566D01*
X190613Y319358D01*
X190196Y319108D01*
X189821Y318858D01*
X189571Y318650D01*
X189405Y318484D01*
X189363Y318442D01*
X188988Y317900D01*
X188738Y317317D01*
X188530Y316692D01*
X188405Y316067D01*
X188363Y315526D01*
X188322Y315068D01*
Y314651D01*
X183323Y313985D01*
X183490Y314568D01*
X183615Y315109D01*
X183698Y315568D01*
X183781Y315984D01*
Y316317D01*
X183823Y316567D01*
Y316776D01*
X183781Y317442D01*
X183615Y318025D01*
X183406Y318525D01*
X183156Y318983D01*
X182865Y319317D01*
X182656Y319608D01*
X182490Y319775D01*
X182448Y319816D01*
X181907Y320233D01*
X181282Y320525D01*
X180657Y320775D01*
X180074Y320900D01*
X179532Y320983D01*
X179116Y321066D01*
X178949D01*
X178866D01*
X178783D01*
X178741D01*
X177866Y321025D01*
X177075Y320858D01*
X176408Y320650D01*
X175867Y320400D01*
X175408Y320150D01*
X175075Y319941D01*
X174909Y319775D01*
X174825Y319733D01*
X174367Y319233D01*
X173992Y318692D01*
X173742Y318150D01*
X173575Y317650D01*
X173492Y317234D01*
X173451Y316901D01*
X173409Y316651D01*
Y316567D01*
X173451Y315942D01*
X173575Y315318D01*
X173784Y314818D01*
X173992Y314359D01*
X174200Y314026D01*
X174409Y313735D01*
X174534Y313568D01*
X174575Y313526D01*
X175075Y313110D01*
X175617Y312777D01*
X176200Y312485D01*
X176783Y312318D01*
X177283Y312193D01*
X177699Y312069D01*
X177866D01*
X177991Y312027D01*
X178033D01*
X178074D01*
X177325Y306070D01*
X176575Y306195D01*
X175867Y306362D01*
X175242Y306528D01*
X174617Y306778D01*
X174034Y307028D01*
X173492Y307320D01*
X172992Y307611D01*
X172534Y307903D01*
X172159Y308153D01*
X171784Y308444D01*
X171493Y308694D01*
X171243Y308903D01*
X171035Y309111D01*
X170910Y309236D01*
X170826Y309319D01*
X170784Y309361D01*
X170368Y309902D01*
X169993Y310485D01*
X169660Y311110D01*
X169368Y311694D01*
X169118Y312318D01*
X168910Y312902D01*
X168618Y314026D01*
X168535Y314568D01*
X168452Y315026D01*
X168410Y315484D01*
X168368Y315859D01*
X168327Y316151D01*
Y316567D01*
X168368Y317400D01*
X168452Y318234D01*
X168618Y318983D01*
X168785Y319733D01*
X168993Y320400D01*
X169243Y321025D01*
X169535Y321608D01*
X169826Y322149D01*
X170076Y322649D01*
X170368Y323066D01*
X170618Y323399D01*
X170826Y323732D01*
X170993Y323940D01*
X171159Y324149D01*
X171243Y324232D01*
X171284Y324274D01*
X171868Y324815D01*
X172451Y325273D01*
X173034Y325690D01*
X173659Y326065D01*
X174284Y326357D01*
X174867Y326606D01*
X175450Y326815D01*
X175991Y326981D01*
X176533Y327106D01*
X176991Y327190D01*
X177408Y327273D01*
X177783Y327315D01*
X178074Y327356D01*
X178324D01*
X178449D01*
X178491D01*
X179532Y327273D01*
D02*
G37*
%LPC*%
G36*
X50037Y395285D02*
X49912D01*
X49837D01*
X49812D01*
X49412D01*
X49037Y395235D01*
X48712Y395210D01*
X48387Y395135D01*
X48088Y395085D01*
X47838Y395010D01*
X47588Y394910D01*
X47363Y394835D01*
X47188Y394760D01*
X47013Y394660D01*
X46888Y394585D01*
X46763Y394535D01*
X46688Y394460D01*
X46613Y394435D01*
X46588Y394385D01*
X46563D01*
X46363Y394210D01*
X46213Y394035D01*
X45938Y393660D01*
X45763Y393311D01*
X45613Y392961D01*
X45538Y392661D01*
X45513Y392436D01*
X45488Y392336D01*
Y392211D01*
X45513Y391911D01*
X45538Y391636D01*
X45613Y391386D01*
X45713Y391136D01*
X45938Y390711D01*
X46213Y390361D01*
X46463Y390086D01*
X46688Y389886D01*
X46788Y389811D01*
X46863Y389761D01*
X46888Y389711D01*
X46913D01*
X47113Y389611D01*
X47338Y389511D01*
X47838Y389361D01*
X48387Y389262D01*
X48912Y389187D01*
X49387Y389137D01*
X49612D01*
X49787Y389112D01*
X49937D01*
X50062D01*
X50137D01*
X50162D01*
X50887Y389161D01*
X51537Y389262D01*
X52062Y389386D01*
X52511Y389561D01*
X52836Y389711D01*
X53086Y389861D01*
X53236Y389961D01*
X53286Y389986D01*
X53636Y390336D01*
X53886Y390711D01*
X54086Y391061D01*
X54211Y391411D01*
X54286Y391711D01*
X54311Y391961D01*
X54336Y392061D01*
Y392436D01*
X54286Y392661D01*
X54161Y393111D01*
X53986Y393485D01*
X53811Y393810D01*
X53611Y394060D01*
X53436Y394260D01*
X53311Y394360D01*
X53286Y394410D01*
X53261D01*
X53061Y394560D01*
X52811Y394710D01*
X52287Y394910D01*
X51712Y395060D01*
X51137Y395185D01*
X50637Y395235D01*
X50412Y395260D01*
X50212D01*
X50037Y395285D01*
D02*
G37*
G36*
X49562Y368467D02*
X48812D01*
X48362D01*
X47988Y368442D01*
X47688Y368417D01*
X47438Y368392D01*
X47263Y368367D01*
X47138Y368342D01*
X47063Y368317D01*
X47038D01*
X46788Y368217D01*
X46538Y368092D01*
X46338Y367942D01*
X46163Y367792D01*
X46038Y367667D01*
X45913Y367542D01*
X45863Y367467D01*
X45838Y367442D01*
X45613Y367092D01*
X45463Y366742D01*
X45338Y366417D01*
X45263Y366142D01*
X45213Y365892D01*
X45188Y365692D01*
Y365518D01*
X45213Y365193D01*
X45263Y364918D01*
X45363Y364668D01*
X45463Y364468D01*
X45563Y364293D01*
X45663Y364168D01*
X45713Y364093D01*
X45738Y364068D01*
X45963Y363868D01*
X46188Y363743D01*
X46388Y363643D01*
X46613Y363568D01*
X46788Y363518D01*
X46938Y363493D01*
X47038D01*
X47063D01*
X47338Y363518D01*
X47588Y363593D01*
X47813Y363718D01*
X48013Y363843D01*
X48162Y363968D01*
X48263Y364093D01*
X48337Y364168D01*
X48362Y364193D01*
X48488Y364418D01*
X48587Y364718D01*
X48687Y365043D01*
X48787Y365368D01*
X48862Y365692D01*
X48937Y365942D01*
X48962Y366042D01*
Y366117D01*
X48987Y366167D01*
Y366192D01*
X49112Y366742D01*
X49212Y367192D01*
X49312Y367592D01*
X49387Y367917D01*
X49462Y368167D01*
X49512Y368342D01*
X49562Y368442D01*
Y368467D01*
D02*
G37*
G36*
X74976Y349697D02*
X74901D01*
X74851D01*
X74826D01*
Y344173D01*
X75351Y344198D01*
X75826Y344298D01*
X76225Y344423D01*
X76575Y344573D01*
X76850Y344698D01*
X77050Y344823D01*
X77150Y344923D01*
X77200Y344948D01*
X77500Y345273D01*
X77725Y345598D01*
X77875Y345923D01*
X78000Y346247D01*
X78050Y346522D01*
X78075Y346747D01*
X78100Y346897D01*
Y346947D01*
X78075Y347347D01*
X77975Y347722D01*
X77825Y348047D01*
X77675Y348322D01*
X77525Y348547D01*
X77375Y348697D01*
X77275Y348822D01*
X77250Y348847D01*
X76900Y349122D01*
X76525Y349322D01*
X76125Y349472D01*
X75725Y349572D01*
X75376Y349647D01*
X75101Y349672D01*
X74976Y349697D01*
D02*
G37*
G36*
X50087Y354120D02*
X49987D01*
X49912D01*
X49887D01*
X49137Y354071D01*
X48513Y353970D01*
X47963Y353796D01*
X47513Y353621D01*
X47138Y353446D01*
X47013Y353346D01*
X46888Y353271D01*
X46813Y353221D01*
X46738Y353171D01*
X46713Y353121D01*
X46688D01*
X46488Y352946D01*
X46338Y352746D01*
X46063Y352346D01*
X45863Y351946D01*
X45738Y351546D01*
X45638Y351221D01*
X45613Y350971D01*
X45588Y350871D01*
Y350721D01*
X45613Y350446D01*
X45638Y350196D01*
X45763Y349722D01*
X45938Y349322D01*
X46138Y348972D01*
X46338Y348672D01*
X46513Y348472D01*
X46638Y348347D01*
X46688Y348297D01*
X47138Y347972D01*
X47638Y347722D01*
X48187Y347572D01*
X48687Y347447D01*
X49137Y347372D01*
X49337Y347347D01*
X49512D01*
X49662Y347322D01*
X49762D01*
X49837D01*
X49862D01*
X50587Y347372D01*
X51237Y347472D01*
X51787Y347622D01*
X52236Y347822D01*
X52586Y347997D01*
X52711Y348072D01*
X52836Y348147D01*
X52911Y348197D01*
X52986Y348247D01*
X53036Y348297D01*
X53236Y348497D01*
X53411Y348672D01*
X53686Y349097D01*
X53886Y349497D01*
X54011Y349872D01*
X54111Y350221D01*
X54136Y350471D01*
X54161Y350571D01*
Y350996D01*
X54111Y351246D01*
X53986Y351696D01*
X53811Y352096D01*
X53611Y352446D01*
X53386Y352746D01*
X53211Y352946D01*
X53086Y353071D01*
X53061Y353121D01*
X53036D01*
X52586Y353446D01*
X52087Y353696D01*
X51562Y353871D01*
X51062Y353996D01*
X50587Y354071D01*
X50387Y354095D01*
X50237D01*
X50087Y354120D01*
D02*
G37*
G36*
X56885Y336425D02*
X56785D01*
X56735D01*
X56410Y336400D01*
X56111Y336325D01*
X55861Y336250D01*
X55636Y336150D01*
X55461Y336025D01*
X55336Y335950D01*
X55261Y335875D01*
X55236Y335850D01*
X55036Y335625D01*
X54886Y335350D01*
X54761Y335100D01*
X54661Y334850D01*
X54611Y334626D01*
X54561Y334450D01*
X54536Y334326D01*
Y334151D01*
X54511Y334001D01*
Y333151D01*
X54486Y332651D01*
Y328927D01*
X58935D01*
Y332826D01*
X58910Y333126D01*
Y333826D01*
X58885Y334001D01*
Y334326D01*
X58860Y334426D01*
Y334450D01*
X58785Y334800D01*
X58710Y335100D01*
X58585Y335350D01*
X58485Y335550D01*
X58360Y335725D01*
X58285Y335825D01*
X58210Y335900D01*
X58185Y335925D01*
X57960Y336100D01*
X57735Y336225D01*
X57485Y336300D01*
X57260Y336375D01*
X57060Y336400D01*
X56885Y336425D01*
D02*
G37*
G36*
X48812Y337150D02*
X48712D01*
X48662D01*
X48288Y337125D01*
X47963Y337075D01*
X47688Y336975D01*
X47463Y336875D01*
X47263Y336775D01*
X47138Y336675D01*
X47038Y336625D01*
X47013Y336600D01*
X46813Y336375D01*
X46638Y336150D01*
X46513Y335900D01*
X46413Y335675D01*
X46338Y335475D01*
X46288Y335325D01*
X46263Y335225D01*
Y335175D01*
X46238Y335050D01*
Y334900D01*
X46213Y334725D01*
Y334525D01*
X46188Y334101D01*
Y333651D01*
X46163Y333226D01*
Y328927D01*
X51287D01*
Y332951D01*
X51262Y333351D01*
X51237Y333701D01*
X51212Y334026D01*
Y334301D01*
X51187Y334551D01*
X51162Y334776D01*
X51137Y334950D01*
X51112Y335100D01*
X51087Y335225D01*
X51062Y335325D01*
X51037Y335450D01*
X51012Y335500D01*
X50887Y335775D01*
X50762Y336025D01*
X50612Y336250D01*
X50462Y336425D01*
X50337Y336550D01*
X50212Y336650D01*
X50137Y336700D01*
X50112Y336725D01*
X49887Y336875D01*
X49637Y336975D01*
X49387Y337050D01*
X49162Y337100D01*
X48962Y337125D01*
X48812Y337150D01*
D02*
G37*
G36*
X73801Y334701D02*
X73676D01*
X73601D01*
X73576D01*
X73176D01*
X72801Y334675D01*
X72426Y334626D01*
X72101Y334576D01*
X71827Y334501D01*
X71551Y334426D01*
X71302Y334351D01*
X71077Y334276D01*
X70902Y334176D01*
X70727Y334101D01*
X70602Y334026D01*
X70477Y333976D01*
X70402Y333901D01*
X70327Y333876D01*
X70302Y333826D01*
X70277D01*
X69927Y333476D01*
X69677Y333126D01*
X69502Y332776D01*
X69377Y332451D01*
X69302Y332151D01*
X69277Y331926D01*
X69252Y331776D01*
Y331726D01*
X69277Y331426D01*
X69327Y331151D01*
X69377Y330901D01*
X69477Y330652D01*
X69702Y330227D01*
X69977Y329852D01*
X70252Y329552D01*
X70477Y329352D01*
X70577Y329277D01*
X70652Y329227D01*
X70677Y329177D01*
X70702D01*
X70902Y329052D01*
X71152Y328952D01*
X71652Y328777D01*
X72176Y328677D01*
X72701Y328577D01*
X73176Y328527D01*
X73401D01*
X73576Y328502D01*
X73726D01*
X73826D01*
X73901D01*
X73926D01*
X74301D01*
X74676Y328552D01*
X75001Y328577D01*
X75301Y328652D01*
X75826Y328777D01*
X76275Y328952D01*
X76625Y329102D01*
X76850Y329252D01*
X77000Y329352D01*
X77050Y329377D01*
X77400Y329727D01*
X77650Y330102D01*
X77850Y330477D01*
X77975Y330826D01*
X78050Y331126D01*
X78075Y331376D01*
X78100Y331476D01*
Y331851D01*
X78050Y332076D01*
X77925Y332526D01*
X77750Y332901D01*
X77575Y333226D01*
X77375Y333476D01*
X77200Y333676D01*
X77075Y333776D01*
X77050Y333826D01*
X77025D01*
X76825Y333976D01*
X76575Y334126D01*
X76050Y334326D01*
X75476Y334476D01*
X74901Y334600D01*
X74401Y334650D01*
X74176Y334675D01*
X73976D01*
X73801Y334701D01*
D02*
G37*
G36*
X51212Y300459D02*
X51137D01*
X51087D01*
X51062D01*
Y294936D01*
X51587Y294961D01*
X52062Y295061D01*
X52461Y295186D01*
X52811Y295336D01*
X53086Y295460D01*
X53286Y295585D01*
X53386Y295686D01*
X53436Y295711D01*
X53736Y296035D01*
X53961Y296360D01*
X54111Y296685D01*
X54236Y297010D01*
X54286Y297285D01*
X54311Y297510D01*
X54336Y297660D01*
Y297710D01*
X54311Y298110D01*
X54211Y298485D01*
X54061Y298810D01*
X53911Y299085D01*
X53761Y299310D01*
X53611Y299459D01*
X53511Y299585D01*
X53486Y299610D01*
X53136Y299884D01*
X52761Y300084D01*
X52361Y300234D01*
X51962Y300334D01*
X51612Y300409D01*
X51337Y300434D01*
X51212Y300459D01*
D02*
G37*
G36*
X73326Y301384D02*
X72576D01*
X72126D01*
X71751Y301359D01*
X71452Y301334D01*
X71202Y301309D01*
X71027Y301284D01*
X70902Y301259D01*
X70827Y301234D01*
X70802D01*
X70552Y301134D01*
X70302Y301009D01*
X70102Y300859D01*
X69927Y300709D01*
X69802Y300584D01*
X69677Y300459D01*
X69627Y300384D01*
X69602Y300359D01*
X69377Y300009D01*
X69227Y299659D01*
X69102Y299335D01*
X69027Y299060D01*
X68977Y298810D01*
X68952Y298610D01*
Y298435D01*
X68977Y298110D01*
X69027Y297835D01*
X69127Y297585D01*
X69227Y297385D01*
X69327Y297210D01*
X69427Y297085D01*
X69477Y297010D01*
X69502Y296985D01*
X69727Y296785D01*
X69952Y296660D01*
X70152Y296560D01*
X70377Y296485D01*
X70552Y296435D01*
X70702Y296410D01*
X70802D01*
X70827D01*
X71102Y296435D01*
X71352Y296510D01*
X71576Y296635D01*
X71776Y296760D01*
X71926Y296885D01*
X72026Y297010D01*
X72101Y297085D01*
X72126Y297110D01*
X72251Y297335D01*
X72351Y297635D01*
X72451Y297960D01*
X72551Y298285D01*
X72626Y298610D01*
X72701Y298860D01*
X72726Y298960D01*
Y299035D01*
X72751Y299085D01*
Y299110D01*
X72876Y299659D01*
X72976Y300109D01*
X73076Y300509D01*
X73151Y300834D01*
X73226Y301084D01*
X73276Y301259D01*
X73326Y301359D01*
Y301384D01*
D02*
G37*
G36*
X50087Y264643D02*
X49987D01*
X49912D01*
X49887D01*
X49137Y264593D01*
X48513Y264494D01*
X47963Y264319D01*
X47513Y264144D01*
X47138Y263969D01*
X47013Y263869D01*
X46888Y263794D01*
X46813Y263744D01*
X46738Y263694D01*
X46713Y263644D01*
X46688D01*
X46488Y263469D01*
X46338Y263269D01*
X46063Y262869D01*
X45863Y262469D01*
X45738Y262069D01*
X45638Y261744D01*
X45613Y261494D01*
X45588Y261394D01*
Y261244D01*
X45613Y260969D01*
X45638Y260719D01*
X45763Y260245D01*
X45938Y259845D01*
X46138Y259495D01*
X46338Y259195D01*
X46513Y258995D01*
X46638Y258870D01*
X46688Y258820D01*
X47138Y258495D01*
X47638Y258245D01*
X48187Y258095D01*
X48687Y257970D01*
X49137Y257895D01*
X49337Y257870D01*
X49512D01*
X49662Y257845D01*
X49762D01*
X49837D01*
X49862D01*
X50587Y257895D01*
X51237Y257995D01*
X51787Y258145D01*
X52236Y258345D01*
X52586Y258520D01*
X52711Y258595D01*
X52836Y258670D01*
X52911Y258720D01*
X52986Y258770D01*
X53036Y258820D01*
X53236Y259020D01*
X53411Y259195D01*
X53686Y259620D01*
X53886Y260020D01*
X54011Y260394D01*
X54111Y260744D01*
X54136Y260994D01*
X54161Y261094D01*
Y261519D01*
X54111Y261769D01*
X53986Y262219D01*
X53811Y262619D01*
X53611Y262969D01*
X53386Y263269D01*
X53211Y263469D01*
X53086Y263594D01*
X53061Y263644D01*
X53036D01*
X52586Y263969D01*
X52087Y264219D01*
X51562Y264394D01*
X51062Y264518D01*
X50587Y264593D01*
X50387Y264618D01*
X50237D01*
X50087Y264643D01*
D02*
G37*
G36*
X73851Y252747D02*
X73751D01*
X73676D01*
X73651D01*
X72901Y252696D01*
X72276Y252596D01*
X71726Y252421D01*
X71277Y252247D01*
X70902Y252072D01*
X70777Y251972D01*
X70652Y251897D01*
X70577Y251847D01*
X70502Y251797D01*
X70477Y251747D01*
X70452D01*
X70252Y251572D01*
X70102Y251372D01*
X69827Y250972D01*
X69627Y250572D01*
X69502Y250172D01*
X69402Y249847D01*
X69377Y249597D01*
X69352Y249497D01*
Y249347D01*
X69377Y249072D01*
X69402Y248822D01*
X69527Y248348D01*
X69702Y247948D01*
X69902Y247598D01*
X70102Y247298D01*
X70277Y247098D01*
X70402Y246973D01*
X70452Y246923D01*
X70902Y246598D01*
X71402Y246348D01*
X71951Y246198D01*
X72451Y246073D01*
X72901Y245998D01*
X73101Y245973D01*
X73276D01*
X73426Y245948D01*
X73526D01*
X73601D01*
X73626D01*
X74351Y245998D01*
X75001Y246098D01*
X75550Y246248D01*
X76000Y246448D01*
X76350Y246623D01*
X76475Y246698D01*
X76600Y246773D01*
X76675Y246823D01*
X76750Y246873D01*
X76800Y246923D01*
X77000Y247123D01*
X77175Y247298D01*
X77450Y247723D01*
X77650Y248123D01*
X77775Y248498D01*
X77875Y248848D01*
X77900Y249097D01*
X77925Y249197D01*
Y249622D01*
X77875Y249872D01*
X77750Y250322D01*
X77575Y250722D01*
X77375Y251072D01*
X77150Y251372D01*
X76975Y251572D01*
X76850Y251697D01*
X76825Y251747D01*
X76800D01*
X76350Y252072D01*
X75850Y252322D01*
X75326Y252496D01*
X74826Y252621D01*
X74351Y252696D01*
X74151Y252722D01*
X74001D01*
X73851Y252747D01*
D02*
G37*
G36*
X56335Y247773D02*
X56210D01*
X56160D01*
X55836Y247748D01*
X55561Y247698D01*
X55286Y247623D01*
X55061Y247548D01*
X54886Y247473D01*
X54761Y247398D01*
X54661Y247348D01*
X54636Y247323D01*
X54411Y247148D01*
X54236Y246948D01*
X54061Y246748D01*
X53936Y246548D01*
X53836Y246373D01*
X53761Y246223D01*
X53736Y246123D01*
X53711Y246098D01*
X53661Y245948D01*
X53611Y245748D01*
X53561Y245548D01*
X53536Y245298D01*
X53486Y244799D01*
X53461Y244299D01*
X53436Y243824D01*
X53411Y243599D01*
Y240949D01*
X58885D01*
Y243524D01*
X58860Y243849D01*
Y244374D01*
X58835Y244599D01*
Y244799D01*
X58810Y244998D01*
X58785Y245273D01*
X58760Y245448D01*
X58735Y245573D01*
Y245598D01*
X58660Y245923D01*
X58535Y246223D01*
X58385Y246498D01*
X58235Y246723D01*
X58110Y246898D01*
X57985Y247048D01*
X57910Y247123D01*
X57885Y247148D01*
X57610Y247348D01*
X57335Y247498D01*
X57035Y247623D01*
X56760Y247698D01*
X56535Y247748D01*
X56335Y247773D01*
D02*
G37*
G36*
X29697Y227228D02*
X29422D01*
X29197D01*
X29022D01*
X28923D01*
X28872D01*
X28248D01*
X27698Y227203D01*
X27173D01*
X26698Y227178D01*
X26248Y227128D01*
X25848Y227103D01*
X25498Y227078D01*
X25198Y227028D01*
X24924Y227003D01*
X24674Y226953D01*
X24474Y226928D01*
X24324Y226903D01*
X24199Y226878D01*
X24124Y226853D01*
X24074Y226828D01*
X24049D01*
X23674Y226703D01*
X23349Y226578D01*
X23074Y226453D01*
X22874Y226328D01*
X22724Y226203D01*
X22599Y226103D01*
X22549Y226053D01*
X22524Y226028D01*
X22374Y225828D01*
X22274Y225628D01*
X22199Y225429D01*
X22149Y225229D01*
X22124Y225079D01*
X22099Y224954D01*
Y224829D01*
X22124Y224579D01*
X22174Y224354D01*
X22224Y224154D01*
X22299Y223979D01*
X22374Y223829D01*
X22449Y223729D01*
X22474Y223654D01*
X22499Y223629D01*
X22699Y223454D01*
X22949Y223279D01*
X23224Y223129D01*
X23499Y223029D01*
X23774Y222929D01*
X23999Y222854D01*
X24149Y222804D01*
X24174Y222779D01*
X24199D01*
X24474Y222729D01*
X24773Y222679D01*
X25099Y222629D01*
X25473Y222604D01*
X26248Y222529D01*
X27023Y222504D01*
X27373Y222479D01*
X27723D01*
X28048Y222454D01*
X28323D01*
X28548D01*
X28723D01*
X28823D01*
X28872D01*
X29497D01*
X30047Y222479D01*
X30572D01*
X31072Y222504D01*
X31497Y222554D01*
X31897Y222579D01*
X32247Y222604D01*
X32571Y222654D01*
X32822Y222679D01*
X33071Y222704D01*
X33271Y222754D01*
X33421Y222779D01*
X33546Y222804D01*
X33621D01*
X33671Y222829D01*
X33696D01*
X34071Y222954D01*
X34396Y223079D01*
X34671Y223204D01*
X34871Y223329D01*
X35021Y223454D01*
X35146Y223554D01*
X35196Y223604D01*
X35221Y223629D01*
X35371Y223829D01*
X35471Y224029D01*
X35571Y224229D01*
X35621Y224429D01*
X35646Y224579D01*
X35671Y224704D01*
Y224829D01*
X35646Y225079D01*
X35596Y225303D01*
X35521Y225503D01*
X35446Y225678D01*
X35371Y225803D01*
X35296Y225903D01*
X35246Y225978D01*
X35221Y226003D01*
X35021Y226203D01*
X34771Y226353D01*
X34496Y226503D01*
X34221Y226628D01*
X33946Y226728D01*
X33721Y226828D01*
X33571Y226853D01*
X33546Y226878D01*
X33521D01*
X33271Y226928D01*
X32971Y227003D01*
X32622Y227053D01*
X32272Y227078D01*
X31497Y227153D01*
X30722Y227178D01*
X30372Y227203D01*
X30022D01*
X29697Y227228D01*
D02*
G37*
G36*
X56885Y229053D02*
X56785D01*
X56735D01*
X56410Y229028D01*
X56111Y228953D01*
X55861Y228878D01*
X55636Y228778D01*
X55461Y228653D01*
X55336Y228578D01*
X55261Y228503D01*
X55236Y228478D01*
X55036Y228253D01*
X54886Y227978D01*
X54761Y227728D01*
X54661Y227478D01*
X54611Y227253D01*
X54561Y227078D01*
X54536Y226953D01*
Y226778D01*
X54511Y226628D01*
Y225778D01*
X54486Y225278D01*
Y221554D01*
X58935D01*
Y225453D01*
X58910Y225753D01*
Y226453D01*
X58885Y226628D01*
Y226953D01*
X58860Y227053D01*
Y227078D01*
X58785Y227428D01*
X58710Y227728D01*
X58585Y227978D01*
X58485Y228178D01*
X58360Y228353D01*
X58285Y228453D01*
X58210Y228528D01*
X58185Y228553D01*
X57960Y228728D01*
X57735Y228853D01*
X57485Y228928D01*
X57260Y229002D01*
X57060Y229028D01*
X56885Y229053D01*
D02*
G37*
G36*
X48812Y229777D02*
X48712D01*
X48662D01*
X48288Y229752D01*
X47963Y229702D01*
X47688Y229602D01*
X47463Y229502D01*
X47263Y229402D01*
X47138Y229303D01*
X47038Y229252D01*
X47013Y229228D01*
X46813Y229002D01*
X46638Y228778D01*
X46513Y228528D01*
X46413Y228303D01*
X46338Y228103D01*
X46288Y227953D01*
X46263Y227853D01*
Y227803D01*
X46238Y227678D01*
Y227528D01*
X46213Y227353D01*
Y227153D01*
X46188Y226728D01*
Y226278D01*
X46163Y225853D01*
Y221554D01*
X51287D01*
Y225578D01*
X51262Y225978D01*
X51237Y226328D01*
X51212Y226653D01*
Y226928D01*
X51187Y227178D01*
X51162Y227403D01*
X51137Y227578D01*
X51112Y227728D01*
X51087Y227853D01*
X51062Y227953D01*
X51037Y228078D01*
X51012Y228128D01*
X50887Y228403D01*
X50762Y228653D01*
X50612Y228878D01*
X50462Y229053D01*
X50337Y229177D01*
X50212Y229277D01*
X50137Y229328D01*
X50112Y229352D01*
X49887Y229502D01*
X49637Y229602D01*
X49387Y229677D01*
X49162Y229727D01*
X48962Y229752D01*
X48812Y229777D01*
D02*
G37*
G36*
X73326Y210407D02*
X72576D01*
X72126D01*
X71751Y210382D01*
X71452Y210357D01*
X71202Y210332D01*
X71027Y210307D01*
X70902Y210282D01*
X70827Y210257D01*
X70802D01*
X70552Y210157D01*
X70302Y210032D01*
X70102Y209882D01*
X69927Y209732D01*
X69802Y209608D01*
X69677Y209482D01*
X69627Y209408D01*
X69602Y209383D01*
X69377Y209033D01*
X69227Y208683D01*
X69102Y208358D01*
X69027Y208083D01*
X68977Y207833D01*
X68952Y207633D01*
Y207458D01*
X68977Y207133D01*
X69027Y206858D01*
X69127Y206608D01*
X69227Y206408D01*
X69327Y206233D01*
X69427Y206108D01*
X69477Y206033D01*
X69502Y206008D01*
X69727Y205809D01*
X69952Y205683D01*
X70152Y205583D01*
X70377Y205509D01*
X70552Y205459D01*
X70702Y205434D01*
X70802D01*
X70827D01*
X71102Y205459D01*
X71352Y205534D01*
X71576Y205658D01*
X71776Y205784D01*
X71926Y205909D01*
X72026Y206033D01*
X72101Y206108D01*
X72126Y206133D01*
X72251Y206358D01*
X72351Y206658D01*
X72451Y206983D01*
X72551Y207308D01*
X72626Y207633D01*
X72701Y207883D01*
X72726Y207983D01*
Y208058D01*
X72751Y208108D01*
Y208133D01*
X72876Y208683D01*
X72976Y209133D01*
X73076Y209533D01*
X73151Y209857D01*
X73226Y210107D01*
X73276Y210282D01*
X73326Y210382D01*
Y210407D01*
D02*
G37*
G36*
X139348Y438467D02*
X139265D01*
X139203D01*
X139182D01*
X138828D01*
X138495Y438446D01*
X138203Y438405D01*
X137911Y438363D01*
X137661Y438300D01*
X137432Y438238D01*
X137224Y438175D01*
X137037Y438113D01*
X136891Y438030D01*
X136745Y437967D01*
X136620Y437905D01*
X136537Y437863D01*
X136453Y437800D01*
X136412Y437780D01*
X136370Y437738D01*
X136079Y437467D01*
X135870Y437155D01*
X135724Y436863D01*
X135620Y436592D01*
X135558Y436343D01*
X135537Y436155D01*
X135516Y436009D01*
Y435968D01*
X135537Y435759D01*
X135558Y435572D01*
X135662Y435218D01*
X135808Y434885D01*
X135995Y434614D01*
X136162Y434406D01*
X136308Y434239D01*
X136412Y434135D01*
X136453Y434093D01*
X136641Y433968D01*
X136849Y433843D01*
X137307Y433656D01*
X137786Y433510D01*
X138245Y433427D01*
X138682Y433364D01*
X138869Y433343D01*
X139036D01*
X139161Y433322D01*
X139265D01*
X139328D01*
X139348D01*
X139952Y433364D01*
X140473Y433447D01*
X140911Y433552D01*
X141285Y433697D01*
X141556Y433822D01*
X141764Y433947D01*
X141889Y434031D01*
X141931Y434052D01*
X142223Y434343D01*
X142431Y434655D01*
X142598Y434968D01*
X142702Y435280D01*
X142764Y435530D01*
X142785Y435738D01*
X142806Y435822D01*
Y436113D01*
X142764Y436301D01*
X142660Y436655D01*
X142514Y436967D01*
X142368Y437217D01*
X142202Y437426D01*
X142056Y437592D01*
X141952Y437676D01*
X141931Y437717D01*
X141910D01*
X141723Y437842D01*
X141535Y437967D01*
X141098Y438155D01*
X140661Y438279D01*
X140202Y438384D01*
X139807Y438425D01*
X139640Y438446D01*
X139473D01*
X139348Y438467D01*
D02*
G37*
G36*
X139703Y402851D02*
Y398477D01*
X145639Y400643D01*
X139703Y402851D01*
D02*
G37*
G36*
X138728Y336523D02*
X137978D01*
X137529D01*
X137154Y336498D01*
X136854Y336473D01*
X136604Y336448D01*
X136429Y336423D01*
X136304Y336398D01*
X136229Y336373D01*
X136204D01*
X135954Y336273D01*
X135704Y336148D01*
X135504Y335998D01*
X135329Y335849D01*
X135204Y335724D01*
X135079Y335599D01*
X135029Y335524D01*
X135004Y335499D01*
X134779Y335149D01*
X134629Y334799D01*
X134504Y334474D01*
X134429Y334199D01*
X134379Y333949D01*
X134354Y333749D01*
Y333574D01*
X134379Y333249D01*
X134429Y332974D01*
X134529Y332724D01*
X134629Y332524D01*
X134729Y332349D01*
X134829Y332225D01*
X134879Y332150D01*
X134904Y332124D01*
X135129Y331925D01*
X135354Y331800D01*
X135554Y331700D01*
X135779Y331625D01*
X135954Y331575D01*
X136104Y331550D01*
X136204D01*
X136229D01*
X136504Y331575D01*
X136754Y331650D01*
X136979Y331775D01*
X137179Y331900D01*
X137329Y332024D01*
X137429Y332150D01*
X137504Y332225D01*
X137529Y332249D01*
X137654Y332474D01*
X137753Y332774D01*
X137853Y333099D01*
X137954Y333424D01*
X138028Y333749D01*
X138104Y333999D01*
X138128Y334099D01*
Y334174D01*
X138153Y334224D01*
Y334249D01*
X138278Y334799D01*
X138378Y335249D01*
X138478Y335649D01*
X138553Y335974D01*
X138628Y336223D01*
X138678Y336398D01*
X138728Y336498D01*
Y336523D01*
D02*
G37*
G36*
X139253Y313229D02*
X139153D01*
X139078D01*
X139053D01*
X138303Y313179D01*
X137679Y313079D01*
X137129Y312904D01*
X136679Y312729D01*
X136304Y312554D01*
X136179Y312454D01*
X136054Y312380D01*
X135979Y312330D01*
X135904Y312280D01*
X135879Y312230D01*
X135854D01*
X135654Y312055D01*
X135504Y311855D01*
X135229Y311455D01*
X135029Y311055D01*
X134904Y310655D01*
X134804Y310330D01*
X134779Y310080D01*
X134754Y309980D01*
Y309830D01*
X134779Y309555D01*
X134804Y309305D01*
X134929Y308831D01*
X135104Y308431D01*
X135304Y308081D01*
X135504Y307781D01*
X135679Y307581D01*
X135804Y307456D01*
X135854Y307406D01*
X136304Y307081D01*
X136804Y306831D01*
X137354Y306681D01*
X137853Y306556D01*
X138303Y306481D01*
X138503Y306456D01*
X138678D01*
X138828Y306431D01*
X138928D01*
X139003D01*
X139028D01*
X139753Y306481D01*
X140403Y306581D01*
X140953Y306731D01*
X141403Y306931D01*
X141753Y307106D01*
X141877Y307181D01*
X142002Y307256D01*
X142077Y307306D01*
X142152Y307356D01*
X142202Y307406D01*
X142402Y307606D01*
X142577Y307781D01*
X142852Y308206D01*
X143052Y308605D01*
X143177Y308980D01*
X143277Y309330D01*
X143302Y309580D01*
X143327Y309680D01*
Y310105D01*
X143277Y310355D01*
X143152Y310805D01*
X142977Y311205D01*
X142777Y311555D01*
X142552Y311855D01*
X142377Y312055D01*
X142252Y312180D01*
X142227Y312230D01*
X142202D01*
X141753Y312554D01*
X141253Y312805D01*
X140728Y312979D01*
X140228Y313104D01*
X139753Y313179D01*
X139553Y313204D01*
X139403D01*
X139253Y313229D01*
D02*
G37*
G36*
X139278Y249121D02*
X139178D01*
X139103D01*
X139078D01*
X138653D01*
X138253Y249096D01*
X137903Y249046D01*
X137554Y248996D01*
X137254Y248921D01*
X136979Y248846D01*
X136729Y248771D01*
X136504Y248696D01*
X136329Y248596D01*
X136154Y248521D01*
X136004Y248446D01*
X135904Y248396D01*
X135804Y248321D01*
X135754Y248296D01*
X135704Y248246D01*
X135354Y247921D01*
X135104Y247546D01*
X134929Y247196D01*
X134804Y246871D01*
X134729Y246571D01*
X134704Y246346D01*
X134679Y246171D01*
Y246122D01*
X134704Y245872D01*
X134729Y245647D01*
X134854Y245222D01*
X135029Y244822D01*
X135254Y244497D01*
X135454Y244247D01*
X135629Y244047D01*
X135754Y243922D01*
X135804Y243872D01*
X136029Y243722D01*
X136279Y243572D01*
X136829Y243347D01*
X137404Y243172D01*
X137954Y243072D01*
X138478Y242997D01*
X138703Y242972D01*
X138903D01*
X139053Y242947D01*
X139178D01*
X139253D01*
X139278D01*
X140003Y242997D01*
X140628Y243097D01*
X141153Y243222D01*
X141603Y243397D01*
X141927Y243547D01*
X142177Y243697D01*
X142327Y243797D01*
X142377Y243822D01*
X142727Y244172D01*
X142977Y244547D01*
X143177Y244922D01*
X143302Y245297D01*
X143377Y245597D01*
X143402Y245847D01*
X143427Y245947D01*
Y246297D01*
X143377Y246521D01*
X143252Y246946D01*
X143077Y247321D01*
X142902Y247621D01*
X142702Y247871D01*
X142527Y248071D01*
X142402Y248171D01*
X142377Y248221D01*
X142352D01*
X142127Y248371D01*
X141903Y248521D01*
X141378Y248746D01*
X140853Y248896D01*
X140303Y249021D01*
X139828Y249071D01*
X139628Y249096D01*
X139428D01*
X139278Y249121D01*
D02*
G37*
G36*
X139703Y206382D02*
Y201133D01*
X146826Y203732D01*
X139703Y206382D01*
D02*
G37*
G36*
X188968Y262146D02*
X188760D01*
X188593D01*
X188510D01*
X188468D01*
X187510Y262105D01*
X186677Y261938D01*
X185927Y261771D01*
X185344Y261521D01*
X184886Y261313D01*
X184552Y261105D01*
X184386Y260938D01*
X184302Y260897D01*
X183844Y260438D01*
X183511Y259939D01*
X183261Y259439D01*
X183094Y258980D01*
X183011Y258564D01*
X182969Y258231D01*
X182928Y258022D01*
Y257939D01*
X183011Y257272D01*
X183178Y256689D01*
X183386Y256189D01*
X183678Y255731D01*
X183927Y255398D01*
X184177Y255106D01*
X184344Y254940D01*
X184386Y254898D01*
X185011Y254482D01*
X185719Y254190D01*
X186469Y253982D01*
X187218Y253857D01*
X187885Y253773D01*
X188218Y253732D01*
X188468Y253690D01*
X188676D01*
X188843D01*
X188926D01*
X188968D01*
X190051Y253732D01*
X190967Y253857D01*
X191717Y254023D01*
X192342Y254232D01*
X192800Y254440D01*
X193134Y254607D01*
X193342Y254732D01*
X193383Y254773D01*
X193842Y255231D01*
X194175Y255690D01*
X194425Y256148D01*
X194591Y256606D01*
X194675Y257023D01*
X194758Y257314D01*
Y257606D01*
X194675Y258272D01*
X194508Y258855D01*
X194216Y259397D01*
X193925Y259855D01*
X193633Y260230D01*
X193342Y260522D01*
X193175Y260730D01*
X193092Y260772D01*
X192425Y261230D01*
X191675Y261563D01*
X190884Y261813D01*
X190176Y261980D01*
X189509Y262063D01*
X189218Y262105D01*
X188968Y262146D01*
D02*
G37*
%LPD*%
M02*
