M48
;Layer_Color=9474304
;FILE_FORMAT=4:4
METRIC,LZ
;TYPE=PLATED
T1F00S00C0.3000
T2F00S00C0.9200
T3F00S00C1.2000
;TYPE=NON_PLATED
T4F00S00C2.3000
%
T01
X00075Y00025
X001
X00125
X0015
X00175
X002
X002125Y0005
X001875
X001625
X001375
X001125
X000875
X000625
X00075Y00075
X001
X00125
X0015
X00175
X002
Y00125
X002125Y0015
X001875
X001625
Y001
X001375
X001125
X000875
X00075Y00125
X000875Y0015
X000625
X000375
X0005Y00175
X00025
X000375Y002
X00025Y00225
X00075
X001Y00175
X00175Y00225
X002
X00225
X0025
Y00275
X002375Y003
X002125
X001875
X001625
X002Y00325
X002125Y0035
X00225Y00375
X0025
Y00325
X002Y00375
Y00275
X002125Y0025
Y002
X0025Y00175
X001125Y0035
X000875
X000625
Y003
X0002921Y0033274
X00025Y00375
X000875Y004
X001125
X0012446Y0042291
X0014478
X00175Y00425
X002
X001875Y004
X001625
X0025Y00425
X00075
T02
X0009962Y0012733
X0012462
X0014462
X0016962
T03
X002286Y0016383
Y0020193
Y0024003
Y0027813
Y0031623
Y0035433
Y0039243
Y0043053
T04
X0006892Y0010023
X0020032
M30
