G04*
G04 #@! TF.GenerationSoftware,Altium Limited,Altium NEXUS,2.1.5 (53)*
G04*
G04 Layer_Color=255*
%FSLAX44Y44*%
%MOMM*%
G71*
G01*
G75*
%ADD13R,1.2700X12.7000*%
%ADD14R,1.2700X12.0000*%
%ADD15R,1.0000X0.9000*%
%ADD16R,1.0000X1.1000*%
%ADD17R,1.2200X1.0000*%
G04:AMPARAMS|DCode=18|XSize=1mm|YSize=1.22mm|CornerRadius=0mm|HoleSize=0mm|Usage=FLASHONLY|Rotation=270.000|XOffset=0mm|YOffset=0mm|HoleType=Round|Shape=Octagon|*
%AMOCTAGOND18*
4,1,8,0.6100,0.2500,0.6100,-0.2500,0.3600,-0.5000,-0.3600,-0.5000,-0.6100,-0.2500,-0.6100,0.2500,-0.3600,0.5000,0.3600,0.5000,0.6100,0.2500,0.0*
%
%ADD18OCTAGOND18*%

%ADD19R,0.9000X0.8000*%
%ADD20R,0.8000X0.9000*%
%ADD21R,0.7000X0.9000*%
%ADD22R,2.5900X0.9500*%
%ADD23R,5.9400X5.6300*%
%ADD24O,2.5000X0.8000*%
%ADD25R,2.5000X0.8000*%
%ADD26R,2.2000X3.0000*%
%ADD27R,1.3700X0.5900*%
%ADD28R,0.9000X1.0000*%
%ADD29R,1.4000X1.0000*%
%ADD30R,1.0000X1.4000*%
%ADD31R,0.9000X0.7000*%
%ADD32R,0.8000X0.6000*%
%ADD61C,2.3000*%
%ADD62C,1.4280*%
%ADD63R,1.4280X1.4280*%
%ADD64R,1.7000X1.7000*%
%ADD65C,1.7000*%
D13*
X97790Y546100D02*
D03*
X173990D02*
D03*
D14*
X146685Y542290D02*
D03*
X125095D02*
D03*
D15*
X54610Y426330D02*
D03*
Y409330D02*
D03*
X95250Y190890D02*
D03*
Y207890D02*
D03*
D16*
X30480Y426330D02*
D03*
Y409330D02*
D03*
D17*
X148289Y173990D02*
D03*
X140669Y281940D02*
D03*
D18*
X181911Y173990D02*
D03*
X174291Y281940D02*
D03*
D19*
X123190Y295290D02*
D03*
Y281290D02*
D03*
X15240Y241920D02*
D03*
Y255920D02*
D03*
X200660Y188610D02*
D03*
Y174610D02*
D03*
X78740Y177150D02*
D03*
Y191150D02*
D03*
X191770Y351170D02*
D03*
Y337170D02*
D03*
D20*
X118730Y173990D02*
D03*
X132730D02*
D03*
X29830Y318770D02*
D03*
X43830D02*
D03*
D21*
X159900Y255270D02*
D03*
X144900D02*
D03*
X29450Y306070D02*
D03*
X44450D02*
D03*
D22*
X81860Y317500D02*
D03*
Y363220D02*
D03*
D23*
X150360Y340360D02*
D03*
D24*
X98354Y243078D02*
D03*
Y255778D02*
D03*
Y268478D02*
D03*
Y281178D02*
D03*
X38354Y243078D02*
D03*
Y255778D02*
D03*
Y268478D02*
D03*
D25*
Y281178D02*
D03*
D26*
X68580Y261620D02*
D03*
D27*
X112710Y189890D02*
D03*
Y208890D02*
D03*
X136210D02*
D03*
Y199390D02*
D03*
Y189890D02*
D03*
D28*
X182490Y194310D02*
D03*
X165490D02*
D03*
X165490Y210820D02*
D03*
X182490D02*
D03*
D29*
X180340Y237650D02*
D03*
Y257650D02*
D03*
D30*
X159860Y237490D02*
D03*
X139860D02*
D03*
D31*
X121920Y255150D02*
D03*
Y240150D02*
D03*
D32*
X99410Y224790D02*
D03*
X111410D02*
D03*
D61*
X200320Y100230D02*
D03*
X68920D02*
D03*
D62*
X169620Y127330D02*
D03*
X144620D02*
D03*
X124620D02*
D03*
D63*
X99620D02*
D03*
D64*
X228600Y163830D02*
D03*
Y240030D02*
D03*
Y392430D02*
D03*
Y316230D02*
D03*
D65*
Y201930D02*
D03*
Y278130D02*
D03*
Y430530D02*
D03*
Y354330D02*
D03*
M02*
