G04*
G04 #@! TF.GenerationSoftware,Altium Limited,Altium NEXUS,2.1.5 (53)*
G04*
G04 Layer_Color=8388736*
%FSLAX44Y44*%
%MOMM*%
G71*
G01*
G75*
%ADD33R,1.4732X12.9032*%
%ADD34R,1.4732X12.2032*%
%ADD35R,1.2032X1.1032*%
%ADD36R,1.2032X1.3032*%
%ADD37R,1.4232X1.2032*%
G04:AMPARAMS|DCode=38|XSize=1.2032mm|YSize=1.4232mm|CornerRadius=0mm|HoleSize=0mm|Usage=FLASHONLY|Rotation=270.000|XOffset=0mm|YOffset=0mm|HoleType=Round|Shape=Octagon|*
%AMOCTAGOND38*
4,1,8,0.7116,0.3008,0.7116,-0.3008,0.4108,-0.6016,-0.4108,-0.6016,-0.7116,-0.3008,-0.7116,0.3008,-0.4108,0.6016,0.4108,0.6016,0.7116,0.3008,0.0*
%
%ADD38OCTAGOND38*%

%ADD39R,1.1032X1.0032*%
%ADD40R,1.0032X1.1032*%
%ADD41R,0.9032X1.1032*%
%ADD42R,2.7932X1.1532*%
%ADD43R,6.1432X5.8332*%
%ADD44O,2.7032X1.0032*%
%ADD45R,2.7032X1.0032*%
%ADD46R,2.4032X3.2032*%
%ADD47R,1.5732X0.7932*%
%ADD48R,1.1032X1.2032*%
%ADD49R,1.6032X1.2032*%
%ADD50R,1.2032X1.6032*%
%ADD51R,1.1032X0.9032*%
%ADD52R,1.0032X0.8032*%
%ADD53C,2.5032*%
%ADD54C,1.6312*%
%ADD55R,1.6312X1.6312*%
%ADD56R,1.9032X1.9032*%
%ADD57C,1.9032*%
D33*
X97790Y546100D02*
D03*
X173990D02*
D03*
D34*
X146685Y542290D02*
D03*
X125095D02*
D03*
D35*
X54610Y426330D02*
D03*
Y409330D02*
D03*
X95250Y190890D02*
D03*
Y207890D02*
D03*
D36*
X30480Y426330D02*
D03*
Y409330D02*
D03*
D37*
X148289Y173990D02*
D03*
X140669Y281940D02*
D03*
D38*
X181911Y173990D02*
D03*
X174291Y281940D02*
D03*
D39*
X123190Y295290D02*
D03*
Y281290D02*
D03*
X15240Y241920D02*
D03*
Y255920D02*
D03*
X200660Y188610D02*
D03*
Y174610D02*
D03*
X78740Y177150D02*
D03*
Y191150D02*
D03*
X191770Y351170D02*
D03*
Y337170D02*
D03*
D40*
X118730Y173990D02*
D03*
X132730D02*
D03*
X29830Y318770D02*
D03*
X43830D02*
D03*
D41*
X159900Y255270D02*
D03*
X144900D02*
D03*
X29450Y306070D02*
D03*
X44450D02*
D03*
D42*
X81860Y317500D02*
D03*
Y363220D02*
D03*
D43*
X150360Y340360D02*
D03*
D44*
X98354Y243078D02*
D03*
Y255778D02*
D03*
Y268478D02*
D03*
Y281178D02*
D03*
X38354Y243078D02*
D03*
Y255778D02*
D03*
Y268478D02*
D03*
D45*
Y281178D02*
D03*
D46*
X68580Y261620D02*
D03*
D47*
X112710Y189890D02*
D03*
Y208890D02*
D03*
X136210D02*
D03*
Y199390D02*
D03*
Y189890D02*
D03*
D48*
X182490Y194310D02*
D03*
X165490D02*
D03*
X165490Y210820D02*
D03*
X182490D02*
D03*
D49*
X180340Y237650D02*
D03*
Y257650D02*
D03*
D50*
X159860Y237490D02*
D03*
X139860D02*
D03*
D51*
X121920Y255150D02*
D03*
Y240150D02*
D03*
D52*
X99410Y224790D02*
D03*
X111410D02*
D03*
D53*
X200320Y100230D02*
D03*
X68920D02*
D03*
D54*
X169620Y127330D02*
D03*
X144620D02*
D03*
X124620D02*
D03*
D55*
X99620D02*
D03*
D56*
X228600Y163830D02*
D03*
Y240030D02*
D03*
Y392430D02*
D03*
Y316230D02*
D03*
D57*
Y201930D02*
D03*
Y278130D02*
D03*
Y430530D02*
D03*
Y354330D02*
D03*
M02*
